%TF.GenerationSoftware,KiCad,Pcbnew,9.0.0*%
%TF.CreationDate,2026-02-24T22:35:43+01:00*%
%TF.ProjectId,DetectorReader,44657465-6374-46f7-9252-65616465722e,rev?*%
%TF.SameCoordinates,Original*%
%TF.FileFunction,Legend,Top*%
%TF.FilePolarity,Positive*%
%FSLAX46Y46*%
G04 Gerber Fmt 4.6, Leading zero omitted, Abs format (unit mm)*
G04 Created by KiCad (PCBNEW 9.0.0) date 2026-02-24 22:35:43*
%MOMM*%
%LPD*%
G01*
G04 APERTURE LIST*
G04 Aperture macros list*
%AMRoundRect*
0 Rectangle with rounded corners*
0 $1 Rounding radius*
0 $2 $3 $4 $5 $6 $7 $8 $9 X,Y pos of 4 corners*
0 Add a 4 corners polygon primitive as box body*
4,1,4,$2,$3,$4,$5,$6,$7,$8,$9,$2,$3,0*
0 Add four circle primitives for the rounded corners*
1,1,$1+$1,$2,$3*
1,1,$1+$1,$4,$5*
1,1,$1+$1,$6,$7*
1,1,$1+$1,$8,$9*
0 Add four rect primitives between the rounded corners*
20,1,$1+$1,$2,$3,$4,$5,0*
20,1,$1+$1,$4,$5,$6,$7,0*
20,1,$1+$1,$6,$7,$8,$9,0*
20,1,$1+$1,$8,$9,$2,$3,0*%
G04 Aperture macros list end*
%ADD10C,0.150000*%
%ADD11C,0.200000*%
%ADD12C,0.100000*%
%ADD13C,0.120000*%
%ADD14RoundRect,0.062500X-0.062500X0.350000X-0.062500X-0.350000X0.062500X-0.350000X0.062500X0.350000X0*%
%ADD15RoundRect,0.062500X-0.350000X0.062500X-0.350000X-0.062500X0.350000X-0.062500X0.350000X0.062500X0*%
%ADD16R,2.600000X2.600000*%
%ADD17RoundRect,0.225000X-0.250000X0.225000X-0.250000X-0.225000X0.250000X-0.225000X0.250000X0.225000X0*%
%ADD18RoundRect,0.218750X0.218750X0.256250X-0.218750X0.256250X-0.218750X-0.256250X0.218750X-0.256250X0*%
%ADD19RoundRect,0.200000X-0.200000X-0.275000X0.200000X-0.275000X0.200000X0.275000X-0.200000X0.275000X0*%
%ADD20C,1.700000*%
%ADD21RoundRect,0.150000X0.587500X0.150000X-0.587500X0.150000X-0.587500X-0.150000X0.587500X-0.150000X0*%
%ADD22RoundRect,0.225000X0.250000X-0.225000X0.250000X0.225000X-0.250000X0.225000X-0.250000X-0.225000X0*%
%ADD23RoundRect,0.150000X-0.512500X-0.150000X0.512500X-0.150000X0.512500X0.150000X-0.512500X0.150000X0*%
%ADD24RoundRect,0.218750X-0.256250X0.218750X-0.256250X-0.218750X0.256250X-0.218750X0.256250X0.218750X0*%
%ADD25R,0.800000X1.200000*%
%ADD26R,1.700000X1.700000*%
%ADD27O,1.700000X1.700000*%
%ADD28RoundRect,0.225000X0.225000X0.250000X-0.225000X0.250000X-0.225000X-0.250000X0.225000X-0.250000X0*%
%ADD29C,3.200000*%
%ADD30RoundRect,0.200000X-0.275000X0.200000X-0.275000X-0.200000X0.275000X-0.200000X0.275000X0.200000X0*%
%ADD31C,0.650000*%
%ADD32RoundRect,0.150000X-0.425000X0.150000X-0.425000X-0.150000X0.425000X-0.150000X0.425000X0.150000X0*%
%ADD33RoundRect,0.075000X-0.500000X0.075000X-0.500000X-0.075000X0.500000X-0.075000X0.500000X0.075000X0*%
%ADD34O,2.100000X1.000000*%
%ADD35O,1.800000X1.000000*%
%ADD36RoundRect,0.200000X0.275000X-0.200000X0.275000X0.200000X-0.275000X0.200000X-0.275000X-0.200000X0*%
%ADD37RoundRect,0.150000X-0.825000X-0.150000X0.825000X-0.150000X0.825000X0.150000X-0.825000X0.150000X0*%
%ADD38RoundRect,0.250000X1.350000X-0.385000X1.350000X0.385000X-1.350000X0.385000X-1.350000X-0.385000X0*%
%ADD39RoundRect,0.250000X1.600000X-0.425000X1.600000X0.425000X-1.600000X0.425000X-1.600000X-0.425000X0*%
%ADD40RoundRect,0.218750X-0.218750X-0.256250X0.218750X-0.256250X0.218750X0.256250X-0.218750X0.256250X0*%
%ADD41RoundRect,0.075000X0.650000X0.075000X-0.650000X0.075000X-0.650000X-0.075000X0.650000X-0.075000X0*%
%ADD42RoundRect,0.100000X-0.225000X-0.100000X0.225000X-0.100000X0.225000X0.100000X-0.225000X0.100000X0*%
%ADD43R,0.900000X0.800000*%
%ADD44RoundRect,0.150000X-0.587500X-0.150000X0.587500X-0.150000X0.587500X0.150000X-0.587500X0.150000X0*%
%ADD45RoundRect,0.225000X-0.225000X-0.250000X0.225000X-0.250000X0.225000X0.250000X-0.225000X0.250000X0*%
G04 APERTURE END LIST*
D10*
X113400000Y-91880000D02*
X113400000Y-92880000D01*
X113400000Y-92380000D02*
X114200000Y-92380000D01*
X114137704Y-86827619D02*
X114137704Y-87284762D01*
X113337704Y-87056190D02*
X114137704Y-87056190D01*
X113337704Y-87475238D02*
X113871038Y-87894286D01*
X113871038Y-87475238D02*
X113337704Y-87894286D01*
X114137704Y-93660953D02*
X113490085Y-93660953D01*
X113490085Y-93660953D02*
X113413895Y-93699048D01*
X113413895Y-93699048D02*
X113375800Y-93737143D01*
X113375800Y-93737143D02*
X113337704Y-93813334D01*
X113337704Y-93813334D02*
X113337704Y-93965715D01*
X113337704Y-93965715D02*
X113375800Y-94041905D01*
X113375800Y-94041905D02*
X113413895Y-94080000D01*
X113413895Y-94080000D02*
X113490085Y-94118096D01*
X113490085Y-94118096D02*
X114137704Y-94118096D01*
X113337704Y-94499048D02*
X114137704Y-94499048D01*
X114137704Y-94499048D02*
X114137704Y-94803810D01*
X114137704Y-94803810D02*
X114099609Y-94880000D01*
X114099609Y-94880000D02*
X114061514Y-94918095D01*
X114061514Y-94918095D02*
X113985323Y-94956191D01*
X113985323Y-94956191D02*
X113871038Y-94956191D01*
X113871038Y-94956191D02*
X113794847Y-94918095D01*
X113794847Y-94918095D02*
X113756752Y-94880000D01*
X113756752Y-94880000D02*
X113718657Y-94803810D01*
X113718657Y-94803810D02*
X113718657Y-94499048D01*
X113337704Y-95299048D02*
X114137704Y-95299048D01*
X114137704Y-95299048D02*
X114137704Y-95489524D01*
X114137704Y-95489524D02*
X114099609Y-95603810D01*
X114099609Y-95603810D02*
X114023419Y-95680000D01*
X114023419Y-95680000D02*
X113947228Y-95718095D01*
X113947228Y-95718095D02*
X113794847Y-95756191D01*
X113794847Y-95756191D02*
X113680561Y-95756191D01*
X113680561Y-95756191D02*
X113528180Y-95718095D01*
X113528180Y-95718095D02*
X113451990Y-95680000D01*
X113451990Y-95680000D02*
X113375800Y-95603810D01*
X113375800Y-95603810D02*
X113337704Y-95489524D01*
X113337704Y-95489524D02*
X113337704Y-95299048D01*
X113337704Y-96099048D02*
X114137704Y-96099048D01*
D11*
X138363720Y-74367219D02*
X138488720Y-73367219D01*
X138488720Y-73367219D02*
X138726816Y-73367219D01*
X138726816Y-73367219D02*
X138863720Y-73414838D01*
X138863720Y-73414838D02*
X138947054Y-73510076D01*
X138947054Y-73510076D02*
X138982768Y-73605314D01*
X138982768Y-73605314D02*
X139006578Y-73795790D01*
X139006578Y-73795790D02*
X138988720Y-73938647D01*
X138988720Y-73938647D02*
X138917292Y-74129123D01*
X138917292Y-74129123D02*
X138857768Y-74224361D01*
X138857768Y-74224361D02*
X138750625Y-74319600D01*
X138750625Y-74319600D02*
X138601816Y-74367219D01*
X138601816Y-74367219D02*
X138363720Y-74367219D01*
X139750625Y-74319600D02*
X139649435Y-74367219D01*
X139649435Y-74367219D02*
X139458958Y-74367219D01*
X139458958Y-74367219D02*
X139369673Y-74319600D01*
X139369673Y-74319600D02*
X139333958Y-74224361D01*
X139333958Y-74224361D02*
X139381578Y-73843409D01*
X139381578Y-73843409D02*
X139441101Y-73748171D01*
X139441101Y-73748171D02*
X139542292Y-73700552D01*
X139542292Y-73700552D02*
X139732768Y-73700552D01*
X139732768Y-73700552D02*
X139822054Y-73748171D01*
X139822054Y-73748171D02*
X139857768Y-73843409D01*
X139857768Y-73843409D02*
X139845863Y-73938647D01*
X139845863Y-73938647D02*
X139357768Y-74033885D01*
X140161340Y-73700552D02*
X140542292Y-73700552D01*
X140345863Y-73367219D02*
X140238721Y-74224361D01*
X140238721Y-74224361D02*
X140274435Y-74319600D01*
X140274435Y-74319600D02*
X140363721Y-74367219D01*
X140363721Y-74367219D02*
X140458959Y-74367219D01*
X141179197Y-74319600D02*
X141078007Y-74367219D01*
X141078007Y-74367219D02*
X140887530Y-74367219D01*
X140887530Y-74367219D02*
X140798245Y-74319600D01*
X140798245Y-74319600D02*
X140762530Y-74224361D01*
X140762530Y-74224361D02*
X140810150Y-73843409D01*
X140810150Y-73843409D02*
X140869673Y-73748171D01*
X140869673Y-73748171D02*
X140970864Y-73700552D01*
X140970864Y-73700552D02*
X141161340Y-73700552D01*
X141161340Y-73700552D02*
X141250626Y-73748171D01*
X141250626Y-73748171D02*
X141286340Y-73843409D01*
X141286340Y-73843409D02*
X141274435Y-73938647D01*
X141274435Y-73938647D02*
X140786340Y-74033885D01*
X142083959Y-74319600D02*
X141982769Y-74367219D01*
X141982769Y-74367219D02*
X141792293Y-74367219D01*
X141792293Y-74367219D02*
X141703007Y-74319600D01*
X141703007Y-74319600D02*
X141661340Y-74271980D01*
X141661340Y-74271980D02*
X141625626Y-74176742D01*
X141625626Y-74176742D02*
X141661340Y-73891028D01*
X141661340Y-73891028D02*
X141720864Y-73795790D01*
X141720864Y-73795790D02*
X141774435Y-73748171D01*
X141774435Y-73748171D02*
X141875626Y-73700552D01*
X141875626Y-73700552D02*
X142066102Y-73700552D01*
X142066102Y-73700552D02*
X142155388Y-73748171D01*
X142447055Y-73700552D02*
X142828007Y-73700552D01*
X142631578Y-73367219D02*
X142524436Y-74224361D01*
X142524436Y-74224361D02*
X142560150Y-74319600D01*
X142560150Y-74319600D02*
X142649436Y-74367219D01*
X142649436Y-74367219D02*
X142744674Y-74367219D01*
X143220865Y-74367219D02*
X143131579Y-74319600D01*
X143131579Y-74319600D02*
X143089912Y-74271980D01*
X143089912Y-74271980D02*
X143054198Y-74176742D01*
X143054198Y-74176742D02*
X143089912Y-73891028D01*
X143089912Y-73891028D02*
X143149436Y-73795790D01*
X143149436Y-73795790D02*
X143203007Y-73748171D01*
X143203007Y-73748171D02*
X143304198Y-73700552D01*
X143304198Y-73700552D02*
X143447055Y-73700552D01*
X143447055Y-73700552D02*
X143536341Y-73748171D01*
X143536341Y-73748171D02*
X143578007Y-73795790D01*
X143578007Y-73795790D02*
X143613722Y-73891028D01*
X143613722Y-73891028D02*
X143578007Y-74176742D01*
X143578007Y-74176742D02*
X143518484Y-74271980D01*
X143518484Y-74271980D02*
X143464912Y-74319600D01*
X143464912Y-74319600D02*
X143363722Y-74367219D01*
X143363722Y-74367219D02*
X143220865Y-74367219D01*
X143982769Y-74367219D02*
X144066103Y-73700552D01*
X144042293Y-73891028D02*
X144101817Y-73795790D01*
X144101817Y-73795790D02*
X144155388Y-73748171D01*
X144155388Y-73748171D02*
X144256579Y-73700552D01*
X144256579Y-73700552D02*
X144351817Y-73700552D01*
X145173246Y-74367219D02*
X144899436Y-73891028D01*
X144601817Y-74367219D02*
X144726817Y-73367219D01*
X144726817Y-73367219D02*
X145107770Y-73367219D01*
X145107770Y-73367219D02*
X145197055Y-73414838D01*
X145197055Y-73414838D02*
X145238722Y-73462457D01*
X145238722Y-73462457D02*
X145274436Y-73557695D01*
X145274436Y-73557695D02*
X145256579Y-73700552D01*
X145256579Y-73700552D02*
X145197055Y-73795790D01*
X145197055Y-73795790D02*
X145143484Y-73843409D01*
X145143484Y-73843409D02*
X145042294Y-73891028D01*
X145042294Y-73891028D02*
X144661341Y-73891028D01*
X145988722Y-74319600D02*
X145887532Y-74367219D01*
X145887532Y-74367219D02*
X145697055Y-74367219D01*
X145697055Y-74367219D02*
X145607770Y-74319600D01*
X145607770Y-74319600D02*
X145572055Y-74224361D01*
X145572055Y-74224361D02*
X145619675Y-73843409D01*
X145619675Y-73843409D02*
X145679198Y-73748171D01*
X145679198Y-73748171D02*
X145780389Y-73700552D01*
X145780389Y-73700552D02*
X145970865Y-73700552D01*
X145970865Y-73700552D02*
X146060151Y-73748171D01*
X146060151Y-73748171D02*
X146095865Y-73843409D01*
X146095865Y-73843409D02*
X146083960Y-73938647D01*
X146083960Y-73938647D02*
X145595865Y-74033885D01*
X146887532Y-74367219D02*
X146953008Y-73843409D01*
X146953008Y-73843409D02*
X146917294Y-73748171D01*
X146917294Y-73748171D02*
X146828008Y-73700552D01*
X146828008Y-73700552D02*
X146637532Y-73700552D01*
X146637532Y-73700552D02*
X146536341Y-73748171D01*
X146893484Y-74319600D02*
X146792294Y-74367219D01*
X146792294Y-74367219D02*
X146554198Y-74367219D01*
X146554198Y-74367219D02*
X146464913Y-74319600D01*
X146464913Y-74319600D02*
X146429198Y-74224361D01*
X146429198Y-74224361D02*
X146441103Y-74129123D01*
X146441103Y-74129123D02*
X146500627Y-74033885D01*
X146500627Y-74033885D02*
X146601818Y-73986266D01*
X146601818Y-73986266D02*
X146839913Y-73986266D01*
X146839913Y-73986266D02*
X146941103Y-73938647D01*
X147792294Y-74367219D02*
X147917294Y-73367219D01*
X147798246Y-74319600D02*
X147697056Y-74367219D01*
X147697056Y-74367219D02*
X147506580Y-74367219D01*
X147506580Y-74367219D02*
X147417294Y-74319600D01*
X147417294Y-74319600D02*
X147375627Y-74271980D01*
X147375627Y-74271980D02*
X147339913Y-74176742D01*
X147339913Y-74176742D02*
X147375627Y-73891028D01*
X147375627Y-73891028D02*
X147435151Y-73795790D01*
X147435151Y-73795790D02*
X147488722Y-73748171D01*
X147488722Y-73748171D02*
X147589913Y-73700552D01*
X147589913Y-73700552D02*
X147780389Y-73700552D01*
X147780389Y-73700552D02*
X147869675Y-73748171D01*
X148655389Y-74319600D02*
X148554199Y-74367219D01*
X148554199Y-74367219D02*
X148363722Y-74367219D01*
X148363722Y-74367219D02*
X148274437Y-74319600D01*
X148274437Y-74319600D02*
X148238722Y-74224361D01*
X148238722Y-74224361D02*
X148286342Y-73843409D01*
X148286342Y-73843409D02*
X148345865Y-73748171D01*
X148345865Y-73748171D02*
X148447056Y-73700552D01*
X148447056Y-73700552D02*
X148637532Y-73700552D01*
X148637532Y-73700552D02*
X148726818Y-73748171D01*
X148726818Y-73748171D02*
X148762532Y-73843409D01*
X148762532Y-73843409D02*
X148750627Y-73938647D01*
X148750627Y-73938647D02*
X148262532Y-74033885D01*
X149125627Y-74367219D02*
X149208961Y-73700552D01*
X149185151Y-73891028D02*
X149244675Y-73795790D01*
X149244675Y-73795790D02*
X149298246Y-73748171D01*
X149298246Y-73748171D02*
X149399437Y-73700552D01*
X149399437Y-73700552D02*
X149494675Y-73700552D01*
D10*
X114137704Y-89727619D02*
X114137704Y-89346667D01*
X114137704Y-89346667D02*
X113756752Y-89308571D01*
X113756752Y-89308571D02*
X113794847Y-89346667D01*
X113794847Y-89346667D02*
X113832942Y-89422857D01*
X113832942Y-89422857D02*
X113832942Y-89613333D01*
X113832942Y-89613333D02*
X113794847Y-89689524D01*
X113794847Y-89689524D02*
X113756752Y-89727619D01*
X113756752Y-89727619D02*
X113680561Y-89765714D01*
X113680561Y-89765714D02*
X113490085Y-89765714D01*
X113490085Y-89765714D02*
X113413895Y-89727619D01*
X113413895Y-89727619D02*
X113375800Y-89689524D01*
X113375800Y-89689524D02*
X113337704Y-89613333D01*
X113337704Y-89613333D02*
X113337704Y-89422857D01*
X113337704Y-89422857D02*
X113375800Y-89346667D01*
X113375800Y-89346667D02*
X113413895Y-89308571D01*
X114137704Y-89994286D02*
X113337704Y-90260953D01*
X113337704Y-90260953D02*
X114137704Y-90527619D01*
X113337704Y-84803810D02*
X113718657Y-84537143D01*
X113337704Y-84346667D02*
X114137704Y-84346667D01*
X114137704Y-84346667D02*
X114137704Y-84651429D01*
X114137704Y-84651429D02*
X114099609Y-84727619D01*
X114099609Y-84727619D02*
X114061514Y-84765714D01*
X114061514Y-84765714D02*
X113985323Y-84803810D01*
X113985323Y-84803810D02*
X113871038Y-84803810D01*
X113871038Y-84803810D02*
X113794847Y-84765714D01*
X113794847Y-84765714D02*
X113756752Y-84727619D01*
X113756752Y-84727619D02*
X113718657Y-84651429D01*
X113718657Y-84651429D02*
X113718657Y-84346667D01*
X113337704Y-85070476D02*
X113871038Y-85489524D01*
X113871038Y-85070476D02*
X113337704Y-85489524D01*
D12*
X123142857Y-72572371D02*
X123142857Y-73058085D01*
X123142857Y-73058085D02*
X123171428Y-73115228D01*
X123171428Y-73115228D02*
X123200000Y-73143800D01*
X123200000Y-73143800D02*
X123257142Y-73172371D01*
X123257142Y-73172371D02*
X123371428Y-73172371D01*
X123371428Y-73172371D02*
X123428571Y-73143800D01*
X123428571Y-73143800D02*
X123457142Y-73115228D01*
X123457142Y-73115228D02*
X123485714Y-73058085D01*
X123485714Y-73058085D02*
X123485714Y-72572371D01*
X123714285Y-72572371D02*
X124085713Y-72572371D01*
X124085713Y-72572371D02*
X123885713Y-72800942D01*
X123885713Y-72800942D02*
X123971428Y-72800942D01*
X123971428Y-72800942D02*
X124028571Y-72829514D01*
X124028571Y-72829514D02*
X124057142Y-72858085D01*
X124057142Y-72858085D02*
X124085713Y-72915228D01*
X124085713Y-72915228D02*
X124085713Y-73058085D01*
X124085713Y-73058085D02*
X124057142Y-73115228D01*
X124057142Y-73115228D02*
X124028571Y-73143800D01*
X124028571Y-73143800D02*
X123971428Y-73172371D01*
X123971428Y-73172371D02*
X123799999Y-73172371D01*
X123799999Y-73172371D02*
X123742856Y-73143800D01*
X123742856Y-73143800D02*
X123714285Y-73115228D01*
X134708978Y-73099999D02*
X134737550Y-73128571D01*
X134737550Y-73128571D02*
X134766121Y-73214285D01*
X134766121Y-73214285D02*
X134766121Y-73271428D01*
X134766121Y-73271428D02*
X134737550Y-73357142D01*
X134737550Y-73357142D02*
X134680407Y-73414285D01*
X134680407Y-73414285D02*
X134623264Y-73442856D01*
X134623264Y-73442856D02*
X134508978Y-73471428D01*
X134508978Y-73471428D02*
X134423264Y-73471428D01*
X134423264Y-73471428D02*
X134308978Y-73442856D01*
X134308978Y-73442856D02*
X134251835Y-73414285D01*
X134251835Y-73414285D02*
X134194692Y-73357142D01*
X134194692Y-73357142D02*
X134166121Y-73271428D01*
X134166121Y-73271428D02*
X134166121Y-73214285D01*
X134166121Y-73214285D02*
X134194692Y-73128571D01*
X134194692Y-73128571D02*
X134223264Y-73099999D01*
X134166121Y-72899999D02*
X134166121Y-72499999D01*
X134166121Y-72499999D02*
X134766121Y-72757142D01*
X145900000Y-79172371D02*
X145614286Y-79172371D01*
X145614286Y-79172371D02*
X145614286Y-78572371D01*
X146042857Y-78572371D02*
X146414285Y-78572371D01*
X146414285Y-78572371D02*
X146214285Y-78800942D01*
X146214285Y-78800942D02*
X146300000Y-78800942D01*
X146300000Y-78800942D02*
X146357143Y-78829514D01*
X146357143Y-78829514D02*
X146385714Y-78858085D01*
X146385714Y-78858085D02*
X146414285Y-78915228D01*
X146414285Y-78915228D02*
X146414285Y-79058085D01*
X146414285Y-79058085D02*
X146385714Y-79115228D01*
X146385714Y-79115228D02*
X146357143Y-79143800D01*
X146357143Y-79143800D02*
X146300000Y-79172371D01*
X146300000Y-79172371D02*
X146128571Y-79172371D01*
X146128571Y-79172371D02*
X146071428Y-79143800D01*
X146071428Y-79143800D02*
X146042857Y-79115228D01*
X134300000Y-89772371D02*
X134100000Y-89486657D01*
X133957143Y-89772371D02*
X133957143Y-89172371D01*
X133957143Y-89172371D02*
X134185714Y-89172371D01*
X134185714Y-89172371D02*
X134242857Y-89200942D01*
X134242857Y-89200942D02*
X134271428Y-89229514D01*
X134271428Y-89229514D02*
X134300000Y-89286657D01*
X134300000Y-89286657D02*
X134300000Y-89372371D01*
X134300000Y-89372371D02*
X134271428Y-89429514D01*
X134271428Y-89429514D02*
X134242857Y-89458085D01*
X134242857Y-89458085D02*
X134185714Y-89486657D01*
X134185714Y-89486657D02*
X133957143Y-89486657D01*
X134814286Y-89172371D02*
X134700000Y-89172371D01*
X134700000Y-89172371D02*
X134642857Y-89200942D01*
X134642857Y-89200942D02*
X134614286Y-89229514D01*
X134614286Y-89229514D02*
X134557143Y-89315228D01*
X134557143Y-89315228D02*
X134528571Y-89429514D01*
X134528571Y-89429514D02*
X134528571Y-89658085D01*
X134528571Y-89658085D02*
X134557143Y-89715228D01*
X134557143Y-89715228D02*
X134585714Y-89743800D01*
X134585714Y-89743800D02*
X134642857Y-89772371D01*
X134642857Y-89772371D02*
X134757143Y-89772371D01*
X134757143Y-89772371D02*
X134814286Y-89743800D01*
X134814286Y-89743800D02*
X134842857Y-89715228D01*
X134842857Y-89715228D02*
X134871428Y-89658085D01*
X134871428Y-89658085D02*
X134871428Y-89515228D01*
X134871428Y-89515228D02*
X134842857Y-89458085D01*
X134842857Y-89458085D02*
X134814286Y-89429514D01*
X134814286Y-89429514D02*
X134757143Y-89400942D01*
X134757143Y-89400942D02*
X134642857Y-89400942D01*
X134642857Y-89400942D02*
X134585714Y-89429514D01*
X134585714Y-89429514D02*
X134557143Y-89458085D01*
X134557143Y-89458085D02*
X134528571Y-89515228D01*
D10*
X123952381Y-95986104D02*
X123914285Y-96024200D01*
X123914285Y-96024200D02*
X123800000Y-96062295D01*
X123800000Y-96062295D02*
X123723809Y-96062295D01*
X123723809Y-96062295D02*
X123609523Y-96024200D01*
X123609523Y-96024200D02*
X123533333Y-95948009D01*
X123533333Y-95948009D02*
X123495238Y-95871819D01*
X123495238Y-95871819D02*
X123457142Y-95719438D01*
X123457142Y-95719438D02*
X123457142Y-95605152D01*
X123457142Y-95605152D02*
X123495238Y-95452771D01*
X123495238Y-95452771D02*
X123533333Y-95376580D01*
X123533333Y-95376580D02*
X123609523Y-95300390D01*
X123609523Y-95300390D02*
X123723809Y-95262295D01*
X123723809Y-95262295D02*
X123800000Y-95262295D01*
X123800000Y-95262295D02*
X123914285Y-95300390D01*
X123914285Y-95300390D02*
X123952381Y-95338485D01*
X124295238Y-96062295D02*
X124295238Y-95528961D01*
X124295238Y-95605152D02*
X124333333Y-95567057D01*
X124333333Y-95567057D02*
X124409523Y-95528961D01*
X124409523Y-95528961D02*
X124523809Y-95528961D01*
X124523809Y-95528961D02*
X124600000Y-95567057D01*
X124600000Y-95567057D02*
X124638095Y-95643247D01*
X124638095Y-95643247D02*
X124638095Y-96062295D01*
X124638095Y-95643247D02*
X124676190Y-95567057D01*
X124676190Y-95567057D02*
X124752381Y-95528961D01*
X124752381Y-95528961D02*
X124866666Y-95528961D01*
X124866666Y-95528961D02*
X124942857Y-95567057D01*
X124942857Y-95567057D02*
X124980952Y-95643247D01*
X124980952Y-95643247D02*
X124980952Y-96062295D01*
X125704762Y-96062295D02*
X125704762Y-95262295D01*
X125704762Y-96024200D02*
X125628571Y-96062295D01*
X125628571Y-96062295D02*
X125476190Y-96062295D01*
X125476190Y-96062295D02*
X125400000Y-96024200D01*
X125400000Y-96024200D02*
X125361905Y-95986104D01*
X125361905Y-95986104D02*
X125323809Y-95909914D01*
X125323809Y-95909914D02*
X125323809Y-95681342D01*
X125323809Y-95681342D02*
X125361905Y-95605152D01*
X125361905Y-95605152D02*
X125400000Y-95567057D01*
X125400000Y-95567057D02*
X125476190Y-95528961D01*
X125476190Y-95528961D02*
X125628571Y-95528961D01*
X125628571Y-95528961D02*
X125704762Y-95567057D01*
D12*
X137908978Y-76099999D02*
X137937550Y-76128571D01*
X137937550Y-76128571D02*
X137966121Y-76214285D01*
X137966121Y-76214285D02*
X137966121Y-76271428D01*
X137966121Y-76271428D02*
X137937550Y-76357142D01*
X137937550Y-76357142D02*
X137880407Y-76414285D01*
X137880407Y-76414285D02*
X137823264Y-76442856D01*
X137823264Y-76442856D02*
X137708978Y-76471428D01*
X137708978Y-76471428D02*
X137623264Y-76471428D01*
X137623264Y-76471428D02*
X137508978Y-76442856D01*
X137508978Y-76442856D02*
X137451835Y-76414285D01*
X137451835Y-76414285D02*
X137394692Y-76357142D01*
X137394692Y-76357142D02*
X137366121Y-76271428D01*
X137366121Y-76271428D02*
X137366121Y-76214285D01*
X137366121Y-76214285D02*
X137394692Y-76128571D01*
X137394692Y-76128571D02*
X137423264Y-76099999D01*
X137966121Y-75814285D02*
X137966121Y-75699999D01*
X137966121Y-75699999D02*
X137937550Y-75642856D01*
X137937550Y-75642856D02*
X137908978Y-75614285D01*
X137908978Y-75614285D02*
X137823264Y-75557142D01*
X137823264Y-75557142D02*
X137708978Y-75528571D01*
X137708978Y-75528571D02*
X137480407Y-75528571D01*
X137480407Y-75528571D02*
X137423264Y-75557142D01*
X137423264Y-75557142D02*
X137394692Y-75585714D01*
X137394692Y-75585714D02*
X137366121Y-75642856D01*
X137366121Y-75642856D02*
X137366121Y-75757142D01*
X137366121Y-75757142D02*
X137394692Y-75814285D01*
X137394692Y-75814285D02*
X137423264Y-75842856D01*
X137423264Y-75842856D02*
X137480407Y-75871428D01*
X137480407Y-75871428D02*
X137623264Y-75871428D01*
X137623264Y-75871428D02*
X137680407Y-75842856D01*
X137680407Y-75842856D02*
X137708978Y-75814285D01*
X137708978Y-75814285D02*
X137737550Y-75757142D01*
X137737550Y-75757142D02*
X137737550Y-75642856D01*
X137737550Y-75642856D02*
X137708978Y-75585714D01*
X137708978Y-75585714D02*
X137680407Y-75557142D01*
X137680407Y-75557142D02*
X137623264Y-75528571D01*
X140642857Y-86529514D02*
X140585714Y-86500942D01*
X140585714Y-86500942D02*
X140528571Y-86443800D01*
X140528571Y-86443800D02*
X140442857Y-86358085D01*
X140442857Y-86358085D02*
X140385714Y-86329514D01*
X140385714Y-86329514D02*
X140328571Y-86329514D01*
X140357142Y-86472371D02*
X140300000Y-86443800D01*
X140300000Y-86443800D02*
X140242857Y-86386657D01*
X140242857Y-86386657D02*
X140214285Y-86272371D01*
X140214285Y-86272371D02*
X140214285Y-86072371D01*
X140214285Y-86072371D02*
X140242857Y-85958085D01*
X140242857Y-85958085D02*
X140300000Y-85900942D01*
X140300000Y-85900942D02*
X140357142Y-85872371D01*
X140357142Y-85872371D02*
X140471428Y-85872371D01*
X140471428Y-85872371D02*
X140528571Y-85900942D01*
X140528571Y-85900942D02*
X140585714Y-85958085D01*
X140585714Y-85958085D02*
X140614285Y-86072371D01*
X140614285Y-86072371D02*
X140614285Y-86272371D01*
X140614285Y-86272371D02*
X140585714Y-86386657D01*
X140585714Y-86386657D02*
X140528571Y-86443800D01*
X140528571Y-86443800D02*
X140471428Y-86472371D01*
X140471428Y-86472371D02*
X140357142Y-86472371D01*
X140842856Y-85929514D02*
X140871428Y-85900942D01*
X140871428Y-85900942D02*
X140928571Y-85872371D01*
X140928571Y-85872371D02*
X141071428Y-85872371D01*
X141071428Y-85872371D02*
X141128571Y-85900942D01*
X141128571Y-85900942D02*
X141157142Y-85929514D01*
X141157142Y-85929514D02*
X141185713Y-85986657D01*
X141185713Y-85986657D02*
X141185713Y-86043800D01*
X141185713Y-86043800D02*
X141157142Y-86129514D01*
X141157142Y-86129514D02*
X140814285Y-86472371D01*
X140814285Y-86472371D02*
X141185713Y-86472371D01*
X136515228Y-85285714D02*
X136543800Y-85314286D01*
X136543800Y-85314286D02*
X136572371Y-85400000D01*
X136572371Y-85400000D02*
X136572371Y-85457143D01*
X136572371Y-85457143D02*
X136543800Y-85542857D01*
X136543800Y-85542857D02*
X136486657Y-85600000D01*
X136486657Y-85600000D02*
X136429514Y-85628571D01*
X136429514Y-85628571D02*
X136315228Y-85657143D01*
X136315228Y-85657143D02*
X136229514Y-85657143D01*
X136229514Y-85657143D02*
X136115228Y-85628571D01*
X136115228Y-85628571D02*
X136058085Y-85600000D01*
X136058085Y-85600000D02*
X136000942Y-85542857D01*
X136000942Y-85542857D02*
X135972371Y-85457143D01*
X135972371Y-85457143D02*
X135972371Y-85400000D01*
X135972371Y-85400000D02*
X136000942Y-85314286D01*
X136000942Y-85314286D02*
X136029514Y-85285714D01*
X136572371Y-84714286D02*
X136572371Y-85057143D01*
X136572371Y-84885714D02*
X135972371Y-84885714D01*
X135972371Y-84885714D02*
X136058085Y-84942857D01*
X136058085Y-84942857D02*
X136115228Y-85000000D01*
X136115228Y-85000000D02*
X136143800Y-85057143D01*
X136172371Y-84200000D02*
X136572371Y-84200000D01*
X135943800Y-84342857D02*
X136372371Y-84485714D01*
X136372371Y-84485714D02*
X136372371Y-84114285D01*
X128915228Y-88285714D02*
X128943800Y-88314286D01*
X128943800Y-88314286D02*
X128972371Y-88400000D01*
X128972371Y-88400000D02*
X128972371Y-88457143D01*
X128972371Y-88457143D02*
X128943800Y-88542857D01*
X128943800Y-88542857D02*
X128886657Y-88600000D01*
X128886657Y-88600000D02*
X128829514Y-88628571D01*
X128829514Y-88628571D02*
X128715228Y-88657143D01*
X128715228Y-88657143D02*
X128629514Y-88657143D01*
X128629514Y-88657143D02*
X128515228Y-88628571D01*
X128515228Y-88628571D02*
X128458085Y-88600000D01*
X128458085Y-88600000D02*
X128400942Y-88542857D01*
X128400942Y-88542857D02*
X128372371Y-88457143D01*
X128372371Y-88457143D02*
X128372371Y-88400000D01*
X128372371Y-88400000D02*
X128400942Y-88314286D01*
X128400942Y-88314286D02*
X128429514Y-88285714D01*
X128972371Y-87714286D02*
X128972371Y-88057143D01*
X128972371Y-87885714D02*
X128372371Y-87885714D01*
X128372371Y-87885714D02*
X128458085Y-87942857D01*
X128458085Y-87942857D02*
X128515228Y-88000000D01*
X128515228Y-88000000D02*
X128543800Y-88057143D01*
X128372371Y-87200000D02*
X128372371Y-87314285D01*
X128372371Y-87314285D02*
X128400942Y-87371428D01*
X128400942Y-87371428D02*
X128429514Y-87400000D01*
X128429514Y-87400000D02*
X128515228Y-87457142D01*
X128515228Y-87457142D02*
X128629514Y-87485714D01*
X128629514Y-87485714D02*
X128858085Y-87485714D01*
X128858085Y-87485714D02*
X128915228Y-87457142D01*
X128915228Y-87457142D02*
X128943800Y-87428571D01*
X128943800Y-87428571D02*
X128972371Y-87371428D01*
X128972371Y-87371428D02*
X128972371Y-87257142D01*
X128972371Y-87257142D02*
X128943800Y-87200000D01*
X128943800Y-87200000D02*
X128915228Y-87171428D01*
X128915228Y-87171428D02*
X128858085Y-87142857D01*
X128858085Y-87142857D02*
X128715228Y-87142857D01*
X128715228Y-87142857D02*
X128658085Y-87171428D01*
X128658085Y-87171428D02*
X128629514Y-87200000D01*
X128629514Y-87200000D02*
X128600942Y-87257142D01*
X128600942Y-87257142D02*
X128600942Y-87371428D01*
X128600942Y-87371428D02*
X128629514Y-87428571D01*
X128629514Y-87428571D02*
X128658085Y-87457142D01*
X128658085Y-87457142D02*
X128715228Y-87485714D01*
X125842857Y-81872371D02*
X125842857Y-82358085D01*
X125842857Y-82358085D02*
X125871428Y-82415228D01*
X125871428Y-82415228D02*
X125900000Y-82443800D01*
X125900000Y-82443800D02*
X125957142Y-82472371D01*
X125957142Y-82472371D02*
X126071428Y-82472371D01*
X126071428Y-82472371D02*
X126128571Y-82443800D01*
X126128571Y-82443800D02*
X126157142Y-82415228D01*
X126157142Y-82415228D02*
X126185714Y-82358085D01*
X126185714Y-82358085D02*
X126185714Y-81872371D01*
X126442856Y-81929514D02*
X126471428Y-81900942D01*
X126471428Y-81900942D02*
X126528571Y-81872371D01*
X126528571Y-81872371D02*
X126671428Y-81872371D01*
X126671428Y-81872371D02*
X126728571Y-81900942D01*
X126728571Y-81900942D02*
X126757142Y-81929514D01*
X126757142Y-81929514D02*
X126785713Y-81986657D01*
X126785713Y-81986657D02*
X126785713Y-82043800D01*
X126785713Y-82043800D02*
X126757142Y-82129514D01*
X126757142Y-82129514D02*
X126414285Y-82472371D01*
X126414285Y-82472371D02*
X126785713Y-82472371D01*
X136466121Y-74899999D02*
X136466121Y-75185713D01*
X136466121Y-75185713D02*
X135866121Y-75185713D01*
X136466121Y-74385714D02*
X136466121Y-74728571D01*
X136466121Y-74557142D02*
X135866121Y-74557142D01*
X135866121Y-74557142D02*
X135951835Y-74614285D01*
X135951835Y-74614285D02*
X136008978Y-74671428D01*
X136008978Y-74671428D02*
X136037550Y-74728571D01*
X118815228Y-82299999D02*
X118843800Y-82328571D01*
X118843800Y-82328571D02*
X118872371Y-82414285D01*
X118872371Y-82414285D02*
X118872371Y-82471428D01*
X118872371Y-82471428D02*
X118843800Y-82557142D01*
X118843800Y-82557142D02*
X118786657Y-82614285D01*
X118786657Y-82614285D02*
X118729514Y-82642856D01*
X118729514Y-82642856D02*
X118615228Y-82671428D01*
X118615228Y-82671428D02*
X118529514Y-82671428D01*
X118529514Y-82671428D02*
X118415228Y-82642856D01*
X118415228Y-82642856D02*
X118358085Y-82614285D01*
X118358085Y-82614285D02*
X118300942Y-82557142D01*
X118300942Y-82557142D02*
X118272371Y-82471428D01*
X118272371Y-82471428D02*
X118272371Y-82414285D01*
X118272371Y-82414285D02*
X118300942Y-82328571D01*
X118300942Y-82328571D02*
X118329514Y-82299999D01*
X118272371Y-82099999D02*
X118272371Y-81728571D01*
X118272371Y-81728571D02*
X118500942Y-81928571D01*
X118500942Y-81928571D02*
X118500942Y-81842856D01*
X118500942Y-81842856D02*
X118529514Y-81785714D01*
X118529514Y-81785714D02*
X118558085Y-81757142D01*
X118558085Y-81757142D02*
X118615228Y-81728571D01*
X118615228Y-81728571D02*
X118758085Y-81728571D01*
X118758085Y-81728571D02*
X118815228Y-81757142D01*
X118815228Y-81757142D02*
X118843800Y-81785714D01*
X118843800Y-81785714D02*
X118872371Y-81842856D01*
X118872371Y-81842856D02*
X118872371Y-82014285D01*
X118872371Y-82014285D02*
X118843800Y-82071428D01*
X118843800Y-82071428D02*
X118815228Y-82099999D01*
X115357143Y-93852371D02*
X115357143Y-93252371D01*
X115357143Y-93252371D02*
X115500000Y-93252371D01*
X115500000Y-93252371D02*
X115585714Y-93280942D01*
X115585714Y-93280942D02*
X115642857Y-93338085D01*
X115642857Y-93338085D02*
X115671428Y-93395228D01*
X115671428Y-93395228D02*
X115700000Y-93509514D01*
X115700000Y-93509514D02*
X115700000Y-93595228D01*
X115700000Y-93595228D02*
X115671428Y-93709514D01*
X115671428Y-93709514D02*
X115642857Y-93766657D01*
X115642857Y-93766657D02*
X115585714Y-93823800D01*
X115585714Y-93823800D02*
X115500000Y-93852371D01*
X115500000Y-93852371D02*
X115357143Y-93852371D01*
X116271428Y-93852371D02*
X115928571Y-93852371D01*
X116100000Y-93852371D02*
X116100000Y-93252371D01*
X116100000Y-93252371D02*
X116042857Y-93338085D01*
X116042857Y-93338085D02*
X115985714Y-93395228D01*
X115985714Y-93395228D02*
X115928571Y-93423800D01*
X143114285Y-92515228D02*
X143085713Y-92543800D01*
X143085713Y-92543800D02*
X142999999Y-92572371D01*
X142999999Y-92572371D02*
X142942856Y-92572371D01*
X142942856Y-92572371D02*
X142857142Y-92543800D01*
X142857142Y-92543800D02*
X142799999Y-92486657D01*
X142799999Y-92486657D02*
X142771428Y-92429514D01*
X142771428Y-92429514D02*
X142742856Y-92315228D01*
X142742856Y-92315228D02*
X142742856Y-92229514D01*
X142742856Y-92229514D02*
X142771428Y-92115228D01*
X142771428Y-92115228D02*
X142799999Y-92058085D01*
X142799999Y-92058085D02*
X142857142Y-92000942D01*
X142857142Y-92000942D02*
X142942856Y-91972371D01*
X142942856Y-91972371D02*
X142999999Y-91972371D01*
X142999999Y-91972371D02*
X143085713Y-92000942D01*
X143085713Y-92000942D02*
X143114285Y-92029514D01*
X143685713Y-92572371D02*
X143342856Y-92572371D01*
X143514285Y-92572371D02*
X143514285Y-91972371D01*
X143514285Y-91972371D02*
X143457142Y-92058085D01*
X143457142Y-92058085D02*
X143399999Y-92115228D01*
X143399999Y-92115228D02*
X143342856Y-92143800D01*
X143885714Y-91972371D02*
X144285714Y-91972371D01*
X144285714Y-91972371D02*
X144028571Y-92572371D01*
D10*
X133614285Y-94113723D02*
X133995238Y-94113723D01*
X133538095Y-94342295D02*
X133804762Y-93542295D01*
X133804762Y-93542295D02*
X134071428Y-94342295D01*
X134338095Y-94342295D02*
X134338095Y-93808961D01*
X134338095Y-93885152D02*
X134376190Y-93847057D01*
X134376190Y-93847057D02*
X134452380Y-93808961D01*
X134452380Y-93808961D02*
X134566666Y-93808961D01*
X134566666Y-93808961D02*
X134642857Y-93847057D01*
X134642857Y-93847057D02*
X134680952Y-93923247D01*
X134680952Y-93923247D02*
X134680952Y-94342295D01*
X134680952Y-93923247D02*
X134719047Y-93847057D01*
X134719047Y-93847057D02*
X134795238Y-93808961D01*
X134795238Y-93808961D02*
X134909523Y-93808961D01*
X134909523Y-93808961D02*
X134985714Y-93847057D01*
X134985714Y-93847057D02*
X135023809Y-93923247D01*
X135023809Y-93923247D02*
X135023809Y-94342295D01*
X135404762Y-93808961D02*
X135404762Y-94608961D01*
X135404762Y-93847057D02*
X135480952Y-93808961D01*
X135480952Y-93808961D02*
X135633333Y-93808961D01*
X135633333Y-93808961D02*
X135709524Y-93847057D01*
X135709524Y-93847057D02*
X135747619Y-93885152D01*
X135747619Y-93885152D02*
X135785714Y-93961342D01*
X135785714Y-93961342D02*
X135785714Y-94189914D01*
X135785714Y-94189914D02*
X135747619Y-94266104D01*
X135747619Y-94266104D02*
X135709524Y-94304200D01*
X135709524Y-94304200D02*
X135633333Y-94342295D01*
X135633333Y-94342295D02*
X135480952Y-94342295D01*
X135480952Y-94342295D02*
X135404762Y-94304200D01*
D12*
X120072371Y-77399999D02*
X119786657Y-77599999D01*
X120072371Y-77742856D02*
X119472371Y-77742856D01*
X119472371Y-77742856D02*
X119472371Y-77514285D01*
X119472371Y-77514285D02*
X119500942Y-77457142D01*
X119500942Y-77457142D02*
X119529514Y-77428571D01*
X119529514Y-77428571D02*
X119586657Y-77399999D01*
X119586657Y-77399999D02*
X119672371Y-77399999D01*
X119672371Y-77399999D02*
X119729514Y-77428571D01*
X119729514Y-77428571D02*
X119758085Y-77457142D01*
X119758085Y-77457142D02*
X119786657Y-77514285D01*
X119786657Y-77514285D02*
X119786657Y-77742856D01*
X119472371Y-77199999D02*
X119472371Y-76828571D01*
X119472371Y-76828571D02*
X119700942Y-77028571D01*
X119700942Y-77028571D02*
X119700942Y-76942856D01*
X119700942Y-76942856D02*
X119729514Y-76885714D01*
X119729514Y-76885714D02*
X119758085Y-76857142D01*
X119758085Y-76857142D02*
X119815228Y-76828571D01*
X119815228Y-76828571D02*
X119958085Y-76828571D01*
X119958085Y-76828571D02*
X120015228Y-76857142D01*
X120015228Y-76857142D02*
X120043800Y-76885714D01*
X120043800Y-76885714D02*
X120072371Y-76942856D01*
X120072371Y-76942856D02*
X120072371Y-77114285D01*
X120072371Y-77114285D02*
X120043800Y-77171428D01*
X120043800Y-77171428D02*
X120015228Y-77199999D01*
X129700000Y-94072371D02*
X129500000Y-93786657D01*
X129357143Y-94072371D02*
X129357143Y-93472371D01*
X129357143Y-93472371D02*
X129585714Y-93472371D01*
X129585714Y-93472371D02*
X129642857Y-93500942D01*
X129642857Y-93500942D02*
X129671428Y-93529514D01*
X129671428Y-93529514D02*
X129700000Y-93586657D01*
X129700000Y-93586657D02*
X129700000Y-93672371D01*
X129700000Y-93672371D02*
X129671428Y-93729514D01*
X129671428Y-93729514D02*
X129642857Y-93758085D01*
X129642857Y-93758085D02*
X129585714Y-93786657D01*
X129585714Y-93786657D02*
X129357143Y-93786657D01*
X130242857Y-93472371D02*
X129957143Y-93472371D01*
X129957143Y-93472371D02*
X129928571Y-93758085D01*
X129928571Y-93758085D02*
X129957143Y-93729514D01*
X129957143Y-93729514D02*
X130014286Y-93700942D01*
X130014286Y-93700942D02*
X130157143Y-93700942D01*
X130157143Y-93700942D02*
X130214286Y-93729514D01*
X130214286Y-93729514D02*
X130242857Y-93758085D01*
X130242857Y-93758085D02*
X130271428Y-93815228D01*
X130271428Y-93815228D02*
X130271428Y-93958085D01*
X130271428Y-93958085D02*
X130242857Y-94015228D01*
X130242857Y-94015228D02*
X130214286Y-94043800D01*
X130214286Y-94043800D02*
X130157143Y-94072371D01*
X130157143Y-94072371D02*
X130014286Y-94072371D01*
X130014286Y-94072371D02*
X129957143Y-94043800D01*
X129957143Y-94043800D02*
X129928571Y-94015228D01*
X123100000Y-85215228D02*
X123071428Y-85243800D01*
X123071428Y-85243800D02*
X122985714Y-85272371D01*
X122985714Y-85272371D02*
X122928571Y-85272371D01*
X122928571Y-85272371D02*
X122842857Y-85243800D01*
X122842857Y-85243800D02*
X122785714Y-85186657D01*
X122785714Y-85186657D02*
X122757143Y-85129514D01*
X122757143Y-85129514D02*
X122728571Y-85015228D01*
X122728571Y-85015228D02*
X122728571Y-84929514D01*
X122728571Y-84929514D02*
X122757143Y-84815228D01*
X122757143Y-84815228D02*
X122785714Y-84758085D01*
X122785714Y-84758085D02*
X122842857Y-84700942D01*
X122842857Y-84700942D02*
X122928571Y-84672371D01*
X122928571Y-84672371D02*
X122985714Y-84672371D01*
X122985714Y-84672371D02*
X123071428Y-84700942D01*
X123071428Y-84700942D02*
X123100000Y-84729514D01*
X123671428Y-85272371D02*
X123328571Y-85272371D01*
X123500000Y-85272371D02*
X123500000Y-84672371D01*
X123500000Y-84672371D02*
X123442857Y-84758085D01*
X123442857Y-84758085D02*
X123385714Y-84815228D01*
X123385714Y-84815228D02*
X123328571Y-84843800D01*
X114399999Y-82472371D02*
X114399999Y-82900942D01*
X114399999Y-82900942D02*
X114371428Y-82986657D01*
X114371428Y-82986657D02*
X114314285Y-83043800D01*
X114314285Y-83043800D02*
X114228571Y-83072371D01*
X114228571Y-83072371D02*
X114171428Y-83072371D01*
X114628571Y-82472371D02*
X114999999Y-82472371D01*
X114999999Y-82472371D02*
X114799999Y-82700942D01*
X114799999Y-82700942D02*
X114885714Y-82700942D01*
X114885714Y-82700942D02*
X114942857Y-82729514D01*
X114942857Y-82729514D02*
X114971428Y-82758085D01*
X114971428Y-82758085D02*
X114999999Y-82815228D01*
X114999999Y-82815228D02*
X114999999Y-82958085D01*
X114999999Y-82958085D02*
X114971428Y-83015228D01*
X114971428Y-83015228D02*
X114942857Y-83043800D01*
X114942857Y-83043800D02*
X114885714Y-83072371D01*
X114885714Y-83072371D02*
X114714285Y-83072371D01*
X114714285Y-83072371D02*
X114657142Y-83043800D01*
X114657142Y-83043800D02*
X114628571Y-83015228D01*
X138072371Y-92499999D02*
X137786657Y-92699999D01*
X138072371Y-92842856D02*
X137472371Y-92842856D01*
X137472371Y-92842856D02*
X137472371Y-92614285D01*
X137472371Y-92614285D02*
X137500942Y-92557142D01*
X137500942Y-92557142D02*
X137529514Y-92528571D01*
X137529514Y-92528571D02*
X137586657Y-92499999D01*
X137586657Y-92499999D02*
X137672371Y-92499999D01*
X137672371Y-92499999D02*
X137729514Y-92528571D01*
X137729514Y-92528571D02*
X137758085Y-92557142D01*
X137758085Y-92557142D02*
X137786657Y-92614285D01*
X137786657Y-92614285D02*
X137786657Y-92842856D01*
X138072371Y-92214285D02*
X138072371Y-92099999D01*
X138072371Y-92099999D02*
X138043800Y-92042856D01*
X138043800Y-92042856D02*
X138015228Y-92014285D01*
X138015228Y-92014285D02*
X137929514Y-91957142D01*
X137929514Y-91957142D02*
X137815228Y-91928571D01*
X137815228Y-91928571D02*
X137586657Y-91928571D01*
X137586657Y-91928571D02*
X137529514Y-91957142D01*
X137529514Y-91957142D02*
X137500942Y-91985714D01*
X137500942Y-91985714D02*
X137472371Y-92042856D01*
X137472371Y-92042856D02*
X137472371Y-92157142D01*
X137472371Y-92157142D02*
X137500942Y-92214285D01*
X137500942Y-92214285D02*
X137529514Y-92242856D01*
X137529514Y-92242856D02*
X137586657Y-92271428D01*
X137586657Y-92271428D02*
X137729514Y-92271428D01*
X137729514Y-92271428D02*
X137786657Y-92242856D01*
X137786657Y-92242856D02*
X137815228Y-92214285D01*
X137815228Y-92214285D02*
X137843800Y-92157142D01*
X137843800Y-92157142D02*
X137843800Y-92042856D01*
X137843800Y-92042856D02*
X137815228Y-91985714D01*
X137815228Y-91985714D02*
X137786657Y-91957142D01*
X137786657Y-91957142D02*
X137729514Y-91928571D01*
X143927500Y-76815228D02*
X143898928Y-76843800D01*
X143898928Y-76843800D02*
X143813214Y-76872371D01*
X143813214Y-76872371D02*
X143756071Y-76872371D01*
X143756071Y-76872371D02*
X143670357Y-76843800D01*
X143670357Y-76843800D02*
X143613214Y-76786657D01*
X143613214Y-76786657D02*
X143584643Y-76729514D01*
X143584643Y-76729514D02*
X143556071Y-76615228D01*
X143556071Y-76615228D02*
X143556071Y-76529514D01*
X143556071Y-76529514D02*
X143584643Y-76415228D01*
X143584643Y-76415228D02*
X143613214Y-76358085D01*
X143613214Y-76358085D02*
X143670357Y-76300942D01*
X143670357Y-76300942D02*
X143756071Y-76272371D01*
X143756071Y-76272371D02*
X143813214Y-76272371D01*
X143813214Y-76272371D02*
X143898928Y-76300942D01*
X143898928Y-76300942D02*
X143927500Y-76329514D01*
X144270357Y-76529514D02*
X144213214Y-76500942D01*
X144213214Y-76500942D02*
X144184643Y-76472371D01*
X144184643Y-76472371D02*
X144156071Y-76415228D01*
X144156071Y-76415228D02*
X144156071Y-76386657D01*
X144156071Y-76386657D02*
X144184643Y-76329514D01*
X144184643Y-76329514D02*
X144213214Y-76300942D01*
X144213214Y-76300942D02*
X144270357Y-76272371D01*
X144270357Y-76272371D02*
X144384643Y-76272371D01*
X144384643Y-76272371D02*
X144441786Y-76300942D01*
X144441786Y-76300942D02*
X144470357Y-76329514D01*
X144470357Y-76329514D02*
X144498928Y-76386657D01*
X144498928Y-76386657D02*
X144498928Y-76415228D01*
X144498928Y-76415228D02*
X144470357Y-76472371D01*
X144470357Y-76472371D02*
X144441786Y-76500942D01*
X144441786Y-76500942D02*
X144384643Y-76529514D01*
X144384643Y-76529514D02*
X144270357Y-76529514D01*
X144270357Y-76529514D02*
X144213214Y-76558085D01*
X144213214Y-76558085D02*
X144184643Y-76586657D01*
X144184643Y-76586657D02*
X144156071Y-76643800D01*
X144156071Y-76643800D02*
X144156071Y-76758085D01*
X144156071Y-76758085D02*
X144184643Y-76815228D01*
X144184643Y-76815228D02*
X144213214Y-76843800D01*
X144213214Y-76843800D02*
X144270357Y-76872371D01*
X144270357Y-76872371D02*
X144384643Y-76872371D01*
X144384643Y-76872371D02*
X144441786Y-76843800D01*
X144441786Y-76843800D02*
X144470357Y-76815228D01*
X144470357Y-76815228D02*
X144498928Y-76758085D01*
X144498928Y-76758085D02*
X144498928Y-76643800D01*
X144498928Y-76643800D02*
X144470357Y-76586657D01*
X144470357Y-76586657D02*
X144441786Y-76558085D01*
X144441786Y-76558085D02*
X144384643Y-76529514D01*
X148565228Y-76435714D02*
X148593800Y-76464286D01*
X148593800Y-76464286D02*
X148622371Y-76550000D01*
X148622371Y-76550000D02*
X148622371Y-76607143D01*
X148622371Y-76607143D02*
X148593800Y-76692857D01*
X148593800Y-76692857D02*
X148536657Y-76750000D01*
X148536657Y-76750000D02*
X148479514Y-76778571D01*
X148479514Y-76778571D02*
X148365228Y-76807143D01*
X148365228Y-76807143D02*
X148279514Y-76807143D01*
X148279514Y-76807143D02*
X148165228Y-76778571D01*
X148165228Y-76778571D02*
X148108085Y-76750000D01*
X148108085Y-76750000D02*
X148050942Y-76692857D01*
X148050942Y-76692857D02*
X148022371Y-76607143D01*
X148022371Y-76607143D02*
X148022371Y-76550000D01*
X148022371Y-76550000D02*
X148050942Y-76464286D01*
X148050942Y-76464286D02*
X148079514Y-76435714D01*
X148622371Y-75864286D02*
X148622371Y-76207143D01*
X148622371Y-76035714D02*
X148022371Y-76035714D01*
X148022371Y-76035714D02*
X148108085Y-76092857D01*
X148108085Y-76092857D02*
X148165228Y-76150000D01*
X148165228Y-76150000D02*
X148193800Y-76207143D01*
X148079514Y-75635714D02*
X148050942Y-75607142D01*
X148050942Y-75607142D02*
X148022371Y-75550000D01*
X148022371Y-75550000D02*
X148022371Y-75407142D01*
X148022371Y-75407142D02*
X148050942Y-75350000D01*
X148050942Y-75350000D02*
X148079514Y-75321428D01*
X148079514Y-75321428D02*
X148136657Y-75292857D01*
X148136657Y-75292857D02*
X148193800Y-75292857D01*
X148193800Y-75292857D02*
X148279514Y-75321428D01*
X148279514Y-75321428D02*
X148622371Y-75664285D01*
X148622371Y-75664285D02*
X148622371Y-75292857D01*
X120072371Y-76099999D02*
X119786657Y-76299999D01*
X120072371Y-76442856D02*
X119472371Y-76442856D01*
X119472371Y-76442856D02*
X119472371Y-76214285D01*
X119472371Y-76214285D02*
X119500942Y-76157142D01*
X119500942Y-76157142D02*
X119529514Y-76128571D01*
X119529514Y-76128571D02*
X119586657Y-76099999D01*
X119586657Y-76099999D02*
X119672371Y-76099999D01*
X119672371Y-76099999D02*
X119729514Y-76128571D01*
X119729514Y-76128571D02*
X119758085Y-76157142D01*
X119758085Y-76157142D02*
X119786657Y-76214285D01*
X119786657Y-76214285D02*
X119786657Y-76442856D01*
X119529514Y-75871428D02*
X119500942Y-75842856D01*
X119500942Y-75842856D02*
X119472371Y-75785714D01*
X119472371Y-75785714D02*
X119472371Y-75642856D01*
X119472371Y-75642856D02*
X119500942Y-75585714D01*
X119500942Y-75585714D02*
X119529514Y-75557142D01*
X119529514Y-75557142D02*
X119586657Y-75528571D01*
X119586657Y-75528571D02*
X119643800Y-75528571D01*
X119643800Y-75528571D02*
X119729514Y-75557142D01*
X119729514Y-75557142D02*
X120072371Y-75899999D01*
X120072371Y-75899999D02*
X120072371Y-75528571D01*
D10*
X126698095Y-85922295D02*
X126431428Y-85541342D01*
X126240952Y-85922295D02*
X126240952Y-85122295D01*
X126240952Y-85122295D02*
X126545714Y-85122295D01*
X126545714Y-85122295D02*
X126621904Y-85160390D01*
X126621904Y-85160390D02*
X126659999Y-85198485D01*
X126659999Y-85198485D02*
X126698095Y-85274676D01*
X126698095Y-85274676D02*
X126698095Y-85388961D01*
X126698095Y-85388961D02*
X126659999Y-85465152D01*
X126659999Y-85465152D02*
X126621904Y-85503247D01*
X126621904Y-85503247D02*
X126545714Y-85541342D01*
X126545714Y-85541342D02*
X126240952Y-85541342D01*
X127383809Y-85922295D02*
X127383809Y-85122295D01*
X127383809Y-85884200D02*
X127307618Y-85922295D01*
X127307618Y-85922295D02*
X127155237Y-85922295D01*
X127155237Y-85922295D02*
X127079047Y-85884200D01*
X127079047Y-85884200D02*
X127040952Y-85846104D01*
X127040952Y-85846104D02*
X127002856Y-85769914D01*
X127002856Y-85769914D02*
X127002856Y-85541342D01*
X127002856Y-85541342D02*
X127040952Y-85465152D01*
X127040952Y-85465152D02*
X127079047Y-85427057D01*
X127079047Y-85427057D02*
X127155237Y-85388961D01*
X127155237Y-85388961D02*
X127307618Y-85388961D01*
X127307618Y-85388961D02*
X127383809Y-85427057D01*
X127764762Y-85922295D02*
X127764762Y-85388961D01*
X127764762Y-85541342D02*
X127802857Y-85465152D01*
X127802857Y-85465152D02*
X127840952Y-85427057D01*
X127840952Y-85427057D02*
X127917143Y-85388961D01*
X127917143Y-85388961D02*
X127993333Y-85388961D01*
D12*
X120442857Y-95172371D02*
X120442857Y-95658085D01*
X120442857Y-95658085D02*
X120471428Y-95715228D01*
X120471428Y-95715228D02*
X120500000Y-95743800D01*
X120500000Y-95743800D02*
X120557142Y-95772371D01*
X120557142Y-95772371D02*
X120671428Y-95772371D01*
X120671428Y-95772371D02*
X120728571Y-95743800D01*
X120728571Y-95743800D02*
X120757142Y-95715228D01*
X120757142Y-95715228D02*
X120785714Y-95658085D01*
X120785714Y-95658085D02*
X120785714Y-95172371D01*
X121385713Y-95772371D02*
X121042856Y-95772371D01*
X121214285Y-95772371D02*
X121214285Y-95172371D01*
X121214285Y-95172371D02*
X121157142Y-95258085D01*
X121157142Y-95258085D02*
X121099999Y-95315228D01*
X121099999Y-95315228D02*
X121042856Y-95343800D01*
X140272371Y-82199999D02*
X139986657Y-82399999D01*
X140272371Y-82542856D02*
X139672371Y-82542856D01*
X139672371Y-82542856D02*
X139672371Y-82314285D01*
X139672371Y-82314285D02*
X139700942Y-82257142D01*
X139700942Y-82257142D02*
X139729514Y-82228571D01*
X139729514Y-82228571D02*
X139786657Y-82199999D01*
X139786657Y-82199999D02*
X139872371Y-82199999D01*
X139872371Y-82199999D02*
X139929514Y-82228571D01*
X139929514Y-82228571D02*
X139958085Y-82257142D01*
X139958085Y-82257142D02*
X139986657Y-82314285D01*
X139986657Y-82314285D02*
X139986657Y-82542856D01*
X139872371Y-81685714D02*
X140272371Y-81685714D01*
X139643800Y-81828571D02*
X140072371Y-81971428D01*
X140072371Y-81971428D02*
X140072371Y-81599999D01*
X143615228Y-80285714D02*
X143643800Y-80314286D01*
X143643800Y-80314286D02*
X143672371Y-80400000D01*
X143672371Y-80400000D02*
X143672371Y-80457143D01*
X143672371Y-80457143D02*
X143643800Y-80542857D01*
X143643800Y-80542857D02*
X143586657Y-80600000D01*
X143586657Y-80600000D02*
X143529514Y-80628571D01*
X143529514Y-80628571D02*
X143415228Y-80657143D01*
X143415228Y-80657143D02*
X143329514Y-80657143D01*
X143329514Y-80657143D02*
X143215228Y-80628571D01*
X143215228Y-80628571D02*
X143158085Y-80600000D01*
X143158085Y-80600000D02*
X143100942Y-80542857D01*
X143100942Y-80542857D02*
X143072371Y-80457143D01*
X143072371Y-80457143D02*
X143072371Y-80400000D01*
X143072371Y-80400000D02*
X143100942Y-80314286D01*
X143100942Y-80314286D02*
X143129514Y-80285714D01*
X143672371Y-79714286D02*
X143672371Y-80057143D01*
X143672371Y-79885714D02*
X143072371Y-79885714D01*
X143072371Y-79885714D02*
X143158085Y-79942857D01*
X143158085Y-79942857D02*
X143215228Y-80000000D01*
X143215228Y-80000000D02*
X143243800Y-80057143D01*
X143072371Y-79514285D02*
X143072371Y-79142857D01*
X143072371Y-79142857D02*
X143300942Y-79342857D01*
X143300942Y-79342857D02*
X143300942Y-79257142D01*
X143300942Y-79257142D02*
X143329514Y-79200000D01*
X143329514Y-79200000D02*
X143358085Y-79171428D01*
X143358085Y-79171428D02*
X143415228Y-79142857D01*
X143415228Y-79142857D02*
X143558085Y-79142857D01*
X143558085Y-79142857D02*
X143615228Y-79171428D01*
X143615228Y-79171428D02*
X143643800Y-79200000D01*
X143643800Y-79200000D02*
X143672371Y-79257142D01*
X143672371Y-79257142D02*
X143672371Y-79428571D01*
X143672371Y-79428571D02*
X143643800Y-79485714D01*
X143643800Y-79485714D02*
X143615228Y-79514285D01*
X150899999Y-88772371D02*
X150899999Y-89200942D01*
X150899999Y-89200942D02*
X150871428Y-89286657D01*
X150871428Y-89286657D02*
X150814285Y-89343800D01*
X150814285Y-89343800D02*
X150728571Y-89372371D01*
X150728571Y-89372371D02*
X150671428Y-89372371D01*
X151442857Y-88972371D02*
X151442857Y-89372371D01*
X151299999Y-88743800D02*
X151157142Y-89172371D01*
X151157142Y-89172371D02*
X151528571Y-89172371D01*
X139693750Y-76872371D02*
X139408036Y-76872371D01*
X139408036Y-76872371D02*
X139408036Y-76272371D01*
X139865178Y-76329514D02*
X139893750Y-76300942D01*
X139893750Y-76300942D02*
X139950893Y-76272371D01*
X139950893Y-76272371D02*
X140093750Y-76272371D01*
X140093750Y-76272371D02*
X140150893Y-76300942D01*
X140150893Y-76300942D02*
X140179464Y-76329514D01*
X140179464Y-76329514D02*
X140208035Y-76386657D01*
X140208035Y-76386657D02*
X140208035Y-76443800D01*
X140208035Y-76443800D02*
X140179464Y-76529514D01*
X140179464Y-76529514D02*
X139836607Y-76872371D01*
X139836607Y-76872371D02*
X140208035Y-76872371D01*
X134736607Y-80872371D02*
X134736607Y-81358085D01*
X134736607Y-81358085D02*
X134765178Y-81415228D01*
X134765178Y-81415228D02*
X134793750Y-81443800D01*
X134793750Y-81443800D02*
X134850892Y-81472371D01*
X134850892Y-81472371D02*
X134965178Y-81472371D01*
X134965178Y-81472371D02*
X135022321Y-81443800D01*
X135022321Y-81443800D02*
X135050892Y-81415228D01*
X135050892Y-81415228D02*
X135079464Y-81358085D01*
X135079464Y-81358085D02*
X135079464Y-80872371D01*
X135622321Y-81072371D02*
X135622321Y-81472371D01*
X135479463Y-80843800D02*
X135336606Y-81272371D01*
X135336606Y-81272371D02*
X135708035Y-81272371D01*
X135172371Y-85199999D02*
X134886657Y-85399999D01*
X135172371Y-85542856D02*
X134572371Y-85542856D01*
X134572371Y-85542856D02*
X134572371Y-85314285D01*
X134572371Y-85314285D02*
X134600942Y-85257142D01*
X134600942Y-85257142D02*
X134629514Y-85228571D01*
X134629514Y-85228571D02*
X134686657Y-85199999D01*
X134686657Y-85199999D02*
X134772371Y-85199999D01*
X134772371Y-85199999D02*
X134829514Y-85228571D01*
X134829514Y-85228571D02*
X134858085Y-85257142D01*
X134858085Y-85257142D02*
X134886657Y-85314285D01*
X134886657Y-85314285D02*
X134886657Y-85542856D01*
X134829514Y-84857142D02*
X134800942Y-84914285D01*
X134800942Y-84914285D02*
X134772371Y-84942856D01*
X134772371Y-84942856D02*
X134715228Y-84971428D01*
X134715228Y-84971428D02*
X134686657Y-84971428D01*
X134686657Y-84971428D02*
X134629514Y-84942856D01*
X134629514Y-84942856D02*
X134600942Y-84914285D01*
X134600942Y-84914285D02*
X134572371Y-84857142D01*
X134572371Y-84857142D02*
X134572371Y-84742856D01*
X134572371Y-84742856D02*
X134600942Y-84685714D01*
X134600942Y-84685714D02*
X134629514Y-84657142D01*
X134629514Y-84657142D02*
X134686657Y-84628571D01*
X134686657Y-84628571D02*
X134715228Y-84628571D01*
X134715228Y-84628571D02*
X134772371Y-84657142D01*
X134772371Y-84657142D02*
X134800942Y-84685714D01*
X134800942Y-84685714D02*
X134829514Y-84742856D01*
X134829514Y-84742856D02*
X134829514Y-84857142D01*
X134829514Y-84857142D02*
X134858085Y-84914285D01*
X134858085Y-84914285D02*
X134886657Y-84942856D01*
X134886657Y-84942856D02*
X134943800Y-84971428D01*
X134943800Y-84971428D02*
X135058085Y-84971428D01*
X135058085Y-84971428D02*
X135115228Y-84942856D01*
X135115228Y-84942856D02*
X135143800Y-84914285D01*
X135143800Y-84914285D02*
X135172371Y-84857142D01*
X135172371Y-84857142D02*
X135172371Y-84742856D01*
X135172371Y-84742856D02*
X135143800Y-84685714D01*
X135143800Y-84685714D02*
X135115228Y-84657142D01*
X135115228Y-84657142D02*
X135058085Y-84628571D01*
X135058085Y-84628571D02*
X134943800Y-84628571D01*
X134943800Y-84628571D02*
X134886657Y-84657142D01*
X134886657Y-84657142D02*
X134858085Y-84685714D01*
X134858085Y-84685714D02*
X134829514Y-84742856D01*
X129072371Y-92085714D02*
X128786657Y-92285714D01*
X129072371Y-92428571D02*
X128472371Y-92428571D01*
X128472371Y-92428571D02*
X128472371Y-92200000D01*
X128472371Y-92200000D02*
X128500942Y-92142857D01*
X128500942Y-92142857D02*
X128529514Y-92114286D01*
X128529514Y-92114286D02*
X128586657Y-92085714D01*
X128586657Y-92085714D02*
X128672371Y-92085714D01*
X128672371Y-92085714D02*
X128729514Y-92114286D01*
X128729514Y-92114286D02*
X128758085Y-92142857D01*
X128758085Y-92142857D02*
X128786657Y-92200000D01*
X128786657Y-92200000D02*
X128786657Y-92428571D01*
X129072371Y-91514286D02*
X129072371Y-91857143D01*
X129072371Y-91685714D02*
X128472371Y-91685714D01*
X128472371Y-91685714D02*
X128558085Y-91742857D01*
X128558085Y-91742857D02*
X128615228Y-91800000D01*
X128615228Y-91800000D02*
X128643800Y-91857143D01*
X128472371Y-91142857D02*
X128472371Y-91085714D01*
X128472371Y-91085714D02*
X128500942Y-91028571D01*
X128500942Y-91028571D02*
X128529514Y-91000000D01*
X128529514Y-91000000D02*
X128586657Y-90971428D01*
X128586657Y-90971428D02*
X128700942Y-90942857D01*
X128700942Y-90942857D02*
X128843800Y-90942857D01*
X128843800Y-90942857D02*
X128958085Y-90971428D01*
X128958085Y-90971428D02*
X129015228Y-91000000D01*
X129015228Y-91000000D02*
X129043800Y-91028571D01*
X129043800Y-91028571D02*
X129072371Y-91085714D01*
X129072371Y-91085714D02*
X129072371Y-91142857D01*
X129072371Y-91142857D02*
X129043800Y-91200000D01*
X129043800Y-91200000D02*
X129015228Y-91228571D01*
X129015228Y-91228571D02*
X128958085Y-91257142D01*
X128958085Y-91257142D02*
X128843800Y-91285714D01*
X128843800Y-91285714D02*
X128700942Y-91285714D01*
X128700942Y-91285714D02*
X128586657Y-91257142D01*
X128586657Y-91257142D02*
X128529514Y-91228571D01*
X128529514Y-91228571D02*
X128500942Y-91200000D01*
X128500942Y-91200000D02*
X128472371Y-91142857D01*
D10*
X139419047Y-85044200D02*
X139533333Y-85082295D01*
X139533333Y-85082295D02*
X139723809Y-85082295D01*
X139723809Y-85082295D02*
X139800000Y-85044200D01*
X139800000Y-85044200D02*
X139838095Y-85006104D01*
X139838095Y-85006104D02*
X139876190Y-84929914D01*
X139876190Y-84929914D02*
X139876190Y-84853723D01*
X139876190Y-84853723D02*
X139838095Y-84777533D01*
X139838095Y-84777533D02*
X139800000Y-84739438D01*
X139800000Y-84739438D02*
X139723809Y-84701342D01*
X139723809Y-84701342D02*
X139571428Y-84663247D01*
X139571428Y-84663247D02*
X139495238Y-84625152D01*
X139495238Y-84625152D02*
X139457143Y-84587057D01*
X139457143Y-84587057D02*
X139419047Y-84510866D01*
X139419047Y-84510866D02*
X139419047Y-84434676D01*
X139419047Y-84434676D02*
X139457143Y-84358485D01*
X139457143Y-84358485D02*
X139495238Y-84320390D01*
X139495238Y-84320390D02*
X139571428Y-84282295D01*
X139571428Y-84282295D02*
X139761905Y-84282295D01*
X139761905Y-84282295D02*
X139876190Y-84320390D01*
X140219048Y-85082295D02*
X140219048Y-84548961D01*
X140219048Y-84282295D02*
X140180952Y-84320390D01*
X140180952Y-84320390D02*
X140219048Y-84358485D01*
X140219048Y-84358485D02*
X140257143Y-84320390D01*
X140257143Y-84320390D02*
X140219048Y-84282295D01*
X140219048Y-84282295D02*
X140219048Y-84358485D01*
X140942857Y-84548961D02*
X140942857Y-85196580D01*
X140942857Y-85196580D02*
X140904762Y-85272771D01*
X140904762Y-85272771D02*
X140866666Y-85310866D01*
X140866666Y-85310866D02*
X140790476Y-85348961D01*
X140790476Y-85348961D02*
X140676190Y-85348961D01*
X140676190Y-85348961D02*
X140600000Y-85310866D01*
X140942857Y-85044200D02*
X140866666Y-85082295D01*
X140866666Y-85082295D02*
X140714285Y-85082295D01*
X140714285Y-85082295D02*
X140638095Y-85044200D01*
X140638095Y-85044200D02*
X140600000Y-85006104D01*
X140600000Y-85006104D02*
X140561904Y-84929914D01*
X140561904Y-84929914D02*
X140561904Y-84701342D01*
X140561904Y-84701342D02*
X140600000Y-84625152D01*
X140600000Y-84625152D02*
X140638095Y-84587057D01*
X140638095Y-84587057D02*
X140714285Y-84548961D01*
X140714285Y-84548961D02*
X140866666Y-84548961D01*
X140866666Y-84548961D02*
X140942857Y-84587057D01*
D12*
X131842857Y-85072371D02*
X131842857Y-85558085D01*
X131842857Y-85558085D02*
X131871428Y-85615228D01*
X131871428Y-85615228D02*
X131900000Y-85643800D01*
X131900000Y-85643800D02*
X131957142Y-85672371D01*
X131957142Y-85672371D02*
X132071428Y-85672371D01*
X132071428Y-85672371D02*
X132128571Y-85643800D01*
X132128571Y-85643800D02*
X132157142Y-85615228D01*
X132157142Y-85615228D02*
X132185714Y-85558085D01*
X132185714Y-85558085D02*
X132185714Y-85072371D01*
X132757142Y-85072371D02*
X132471428Y-85072371D01*
X132471428Y-85072371D02*
X132442856Y-85358085D01*
X132442856Y-85358085D02*
X132471428Y-85329514D01*
X132471428Y-85329514D02*
X132528571Y-85300942D01*
X132528571Y-85300942D02*
X132671428Y-85300942D01*
X132671428Y-85300942D02*
X132728571Y-85329514D01*
X132728571Y-85329514D02*
X132757142Y-85358085D01*
X132757142Y-85358085D02*
X132785713Y-85415228D01*
X132785713Y-85415228D02*
X132785713Y-85558085D01*
X132785713Y-85558085D02*
X132757142Y-85615228D01*
X132757142Y-85615228D02*
X132728571Y-85643800D01*
X132728571Y-85643800D02*
X132671428Y-85672371D01*
X132671428Y-85672371D02*
X132528571Y-85672371D01*
X132528571Y-85672371D02*
X132471428Y-85643800D01*
X132471428Y-85643800D02*
X132442856Y-85615228D01*
X140014285Y-92572371D02*
X139814285Y-92286657D01*
X139671428Y-92572371D02*
X139671428Y-91972371D01*
X139671428Y-91972371D02*
X139899999Y-91972371D01*
X139899999Y-91972371D02*
X139957142Y-92000942D01*
X139957142Y-92000942D02*
X139985713Y-92029514D01*
X139985713Y-92029514D02*
X140014285Y-92086657D01*
X140014285Y-92086657D02*
X140014285Y-92172371D01*
X140014285Y-92172371D02*
X139985713Y-92229514D01*
X139985713Y-92229514D02*
X139957142Y-92258085D01*
X139957142Y-92258085D02*
X139899999Y-92286657D01*
X139899999Y-92286657D02*
X139671428Y-92286657D01*
X140585713Y-92572371D02*
X140242856Y-92572371D01*
X140414285Y-92572371D02*
X140414285Y-91972371D01*
X140414285Y-91972371D02*
X140357142Y-92058085D01*
X140357142Y-92058085D02*
X140299999Y-92115228D01*
X140299999Y-92115228D02*
X140242856Y-92143800D01*
X140814285Y-92029514D02*
X140842857Y-92000942D01*
X140842857Y-92000942D02*
X140900000Y-91972371D01*
X140900000Y-91972371D02*
X141042857Y-91972371D01*
X141042857Y-91972371D02*
X141100000Y-92000942D01*
X141100000Y-92000942D02*
X141128571Y-92029514D01*
X141128571Y-92029514D02*
X141157142Y-92086657D01*
X141157142Y-92086657D02*
X141157142Y-92143800D01*
X141157142Y-92143800D02*
X141128571Y-92229514D01*
X141128571Y-92229514D02*
X140785714Y-92572371D01*
X140785714Y-92572371D02*
X141157142Y-92572371D01*
X122815228Y-79699999D02*
X122843800Y-79728571D01*
X122843800Y-79728571D02*
X122872371Y-79814285D01*
X122872371Y-79814285D02*
X122872371Y-79871428D01*
X122872371Y-79871428D02*
X122843800Y-79957142D01*
X122843800Y-79957142D02*
X122786657Y-80014285D01*
X122786657Y-80014285D02*
X122729514Y-80042856D01*
X122729514Y-80042856D02*
X122615228Y-80071428D01*
X122615228Y-80071428D02*
X122529514Y-80071428D01*
X122529514Y-80071428D02*
X122415228Y-80042856D01*
X122415228Y-80042856D02*
X122358085Y-80014285D01*
X122358085Y-80014285D02*
X122300942Y-79957142D01*
X122300942Y-79957142D02*
X122272371Y-79871428D01*
X122272371Y-79871428D02*
X122272371Y-79814285D01*
X122272371Y-79814285D02*
X122300942Y-79728571D01*
X122300942Y-79728571D02*
X122329514Y-79699999D01*
X122272371Y-79157142D02*
X122272371Y-79442856D01*
X122272371Y-79442856D02*
X122558085Y-79471428D01*
X122558085Y-79471428D02*
X122529514Y-79442856D01*
X122529514Y-79442856D02*
X122500942Y-79385714D01*
X122500942Y-79385714D02*
X122500942Y-79242856D01*
X122500942Y-79242856D02*
X122529514Y-79185714D01*
X122529514Y-79185714D02*
X122558085Y-79157142D01*
X122558085Y-79157142D02*
X122615228Y-79128571D01*
X122615228Y-79128571D02*
X122758085Y-79128571D01*
X122758085Y-79128571D02*
X122815228Y-79157142D01*
X122815228Y-79157142D02*
X122843800Y-79185714D01*
X122843800Y-79185714D02*
X122872371Y-79242856D01*
X122872371Y-79242856D02*
X122872371Y-79385714D01*
X122872371Y-79385714D02*
X122843800Y-79442856D01*
X122843800Y-79442856D02*
X122815228Y-79471428D01*
X150799999Y-79572371D02*
X150799999Y-80000942D01*
X150799999Y-80000942D02*
X150771428Y-80086657D01*
X150771428Y-80086657D02*
X150714285Y-80143800D01*
X150714285Y-80143800D02*
X150628571Y-80172371D01*
X150628571Y-80172371D02*
X150571428Y-80172371D01*
X151057142Y-79629514D02*
X151085714Y-79600942D01*
X151085714Y-79600942D02*
X151142857Y-79572371D01*
X151142857Y-79572371D02*
X151285714Y-79572371D01*
X151285714Y-79572371D02*
X151342857Y-79600942D01*
X151342857Y-79600942D02*
X151371428Y-79629514D01*
X151371428Y-79629514D02*
X151399999Y-79686657D01*
X151399999Y-79686657D02*
X151399999Y-79743800D01*
X151399999Y-79743800D02*
X151371428Y-79829514D01*
X151371428Y-79829514D02*
X151028571Y-80172371D01*
X151028571Y-80172371D02*
X151399999Y-80172371D01*
X143642857Y-86529514D02*
X143585714Y-86500942D01*
X143585714Y-86500942D02*
X143528571Y-86443800D01*
X143528571Y-86443800D02*
X143442857Y-86358085D01*
X143442857Y-86358085D02*
X143385714Y-86329514D01*
X143385714Y-86329514D02*
X143328571Y-86329514D01*
X143357142Y-86472371D02*
X143300000Y-86443800D01*
X143300000Y-86443800D02*
X143242857Y-86386657D01*
X143242857Y-86386657D02*
X143214285Y-86272371D01*
X143214285Y-86272371D02*
X143214285Y-86072371D01*
X143214285Y-86072371D02*
X143242857Y-85958085D01*
X143242857Y-85958085D02*
X143300000Y-85900942D01*
X143300000Y-85900942D02*
X143357142Y-85872371D01*
X143357142Y-85872371D02*
X143471428Y-85872371D01*
X143471428Y-85872371D02*
X143528571Y-85900942D01*
X143528571Y-85900942D02*
X143585714Y-85958085D01*
X143585714Y-85958085D02*
X143614285Y-86072371D01*
X143614285Y-86072371D02*
X143614285Y-86272371D01*
X143614285Y-86272371D02*
X143585714Y-86386657D01*
X143585714Y-86386657D02*
X143528571Y-86443800D01*
X143528571Y-86443800D02*
X143471428Y-86472371D01*
X143471428Y-86472371D02*
X143357142Y-86472371D01*
X144185713Y-86472371D02*
X143842856Y-86472371D01*
X144014285Y-86472371D02*
X144014285Y-85872371D01*
X144014285Y-85872371D02*
X143957142Y-85958085D01*
X143957142Y-85958085D02*
X143899999Y-86015228D01*
X143899999Y-86015228D02*
X143842856Y-86043800D01*
X138072371Y-85299999D02*
X137786657Y-85499999D01*
X138072371Y-85642856D02*
X137472371Y-85642856D01*
X137472371Y-85642856D02*
X137472371Y-85414285D01*
X137472371Y-85414285D02*
X137500942Y-85357142D01*
X137500942Y-85357142D02*
X137529514Y-85328571D01*
X137529514Y-85328571D02*
X137586657Y-85299999D01*
X137586657Y-85299999D02*
X137672371Y-85299999D01*
X137672371Y-85299999D02*
X137729514Y-85328571D01*
X137729514Y-85328571D02*
X137758085Y-85357142D01*
X137758085Y-85357142D02*
X137786657Y-85414285D01*
X137786657Y-85414285D02*
X137786657Y-85642856D01*
X137472371Y-85099999D02*
X137472371Y-84699999D01*
X137472371Y-84699999D02*
X138072371Y-84957142D01*
X136615228Y-93085714D02*
X136643800Y-93114286D01*
X136643800Y-93114286D02*
X136672371Y-93200000D01*
X136672371Y-93200000D02*
X136672371Y-93257143D01*
X136672371Y-93257143D02*
X136643800Y-93342857D01*
X136643800Y-93342857D02*
X136586657Y-93400000D01*
X136586657Y-93400000D02*
X136529514Y-93428571D01*
X136529514Y-93428571D02*
X136415228Y-93457143D01*
X136415228Y-93457143D02*
X136329514Y-93457143D01*
X136329514Y-93457143D02*
X136215228Y-93428571D01*
X136215228Y-93428571D02*
X136158085Y-93400000D01*
X136158085Y-93400000D02*
X136100942Y-93342857D01*
X136100942Y-93342857D02*
X136072371Y-93257143D01*
X136072371Y-93257143D02*
X136072371Y-93200000D01*
X136072371Y-93200000D02*
X136100942Y-93114286D01*
X136100942Y-93114286D02*
X136129514Y-93085714D01*
X136672371Y-92514286D02*
X136672371Y-92857143D01*
X136672371Y-92685714D02*
X136072371Y-92685714D01*
X136072371Y-92685714D02*
X136158085Y-92742857D01*
X136158085Y-92742857D02*
X136215228Y-92800000D01*
X136215228Y-92800000D02*
X136243800Y-92857143D01*
X136072371Y-91971428D02*
X136072371Y-92257142D01*
X136072371Y-92257142D02*
X136358085Y-92285714D01*
X136358085Y-92285714D02*
X136329514Y-92257142D01*
X136329514Y-92257142D02*
X136300942Y-92200000D01*
X136300942Y-92200000D02*
X136300942Y-92057142D01*
X136300942Y-92057142D02*
X136329514Y-92000000D01*
X136329514Y-92000000D02*
X136358085Y-91971428D01*
X136358085Y-91971428D02*
X136415228Y-91942857D01*
X136415228Y-91942857D02*
X136558085Y-91942857D01*
X136558085Y-91942857D02*
X136615228Y-91971428D01*
X136615228Y-91971428D02*
X136643800Y-92000000D01*
X136643800Y-92000000D02*
X136672371Y-92057142D01*
X136672371Y-92057142D02*
X136672371Y-92200000D01*
X136672371Y-92200000D02*
X136643800Y-92257142D01*
X136643800Y-92257142D02*
X136615228Y-92285714D01*
X129708035Y-81986657D02*
X129708035Y-82272371D01*
X129508035Y-81672371D02*
X129708035Y-81986657D01*
X129708035Y-81986657D02*
X129908035Y-81672371D01*
X130422321Y-82272371D02*
X130079464Y-82272371D01*
X130250893Y-82272371D02*
X130250893Y-81672371D01*
X130250893Y-81672371D02*
X130193750Y-81758085D01*
X130193750Y-81758085D02*
X130136607Y-81815228D01*
X130136607Y-81815228D02*
X130079464Y-81843800D01*
X132408978Y-73399999D02*
X132437550Y-73428571D01*
X132437550Y-73428571D02*
X132466121Y-73514285D01*
X132466121Y-73514285D02*
X132466121Y-73571428D01*
X132466121Y-73571428D02*
X132437550Y-73657142D01*
X132437550Y-73657142D02*
X132380407Y-73714285D01*
X132380407Y-73714285D02*
X132323264Y-73742856D01*
X132323264Y-73742856D02*
X132208978Y-73771428D01*
X132208978Y-73771428D02*
X132123264Y-73771428D01*
X132123264Y-73771428D02*
X132008978Y-73742856D01*
X132008978Y-73742856D02*
X131951835Y-73714285D01*
X131951835Y-73714285D02*
X131894692Y-73657142D01*
X131894692Y-73657142D02*
X131866121Y-73571428D01*
X131866121Y-73571428D02*
X131866121Y-73514285D01*
X131866121Y-73514285D02*
X131894692Y-73428571D01*
X131894692Y-73428571D02*
X131923264Y-73399999D01*
X131866121Y-72885714D02*
X131866121Y-72999999D01*
X131866121Y-72999999D02*
X131894692Y-73057142D01*
X131894692Y-73057142D02*
X131923264Y-73085714D01*
X131923264Y-73085714D02*
X132008978Y-73142856D01*
X132008978Y-73142856D02*
X132123264Y-73171428D01*
X132123264Y-73171428D02*
X132351835Y-73171428D01*
X132351835Y-73171428D02*
X132408978Y-73142856D01*
X132408978Y-73142856D02*
X132437550Y-73114285D01*
X132437550Y-73114285D02*
X132466121Y-73057142D01*
X132466121Y-73057142D02*
X132466121Y-72942856D01*
X132466121Y-72942856D02*
X132437550Y-72885714D01*
X132437550Y-72885714D02*
X132408978Y-72857142D01*
X132408978Y-72857142D02*
X132351835Y-72828571D01*
X132351835Y-72828571D02*
X132208978Y-72828571D01*
X132208978Y-72828571D02*
X132151835Y-72857142D01*
X132151835Y-72857142D02*
X132123264Y-72885714D01*
X132123264Y-72885714D02*
X132094692Y-72942856D01*
X132094692Y-72942856D02*
X132094692Y-73057142D01*
X132094692Y-73057142D02*
X132123264Y-73114285D01*
X132123264Y-73114285D02*
X132151835Y-73142856D01*
X132151835Y-73142856D02*
X132208978Y-73171428D01*
X147757143Y-82772371D02*
X147757143Y-82172371D01*
X147757143Y-82172371D02*
X147900000Y-82172371D01*
X147900000Y-82172371D02*
X147985714Y-82200942D01*
X147985714Y-82200942D02*
X148042857Y-82258085D01*
X148042857Y-82258085D02*
X148071428Y-82315228D01*
X148071428Y-82315228D02*
X148100000Y-82429514D01*
X148100000Y-82429514D02*
X148100000Y-82515228D01*
X148100000Y-82515228D02*
X148071428Y-82629514D01*
X148071428Y-82629514D02*
X148042857Y-82686657D01*
X148042857Y-82686657D02*
X147985714Y-82743800D01*
X147985714Y-82743800D02*
X147900000Y-82772371D01*
X147900000Y-82772371D02*
X147757143Y-82772371D01*
X148328571Y-82229514D02*
X148357143Y-82200942D01*
X148357143Y-82200942D02*
X148414286Y-82172371D01*
X148414286Y-82172371D02*
X148557143Y-82172371D01*
X148557143Y-82172371D02*
X148614286Y-82200942D01*
X148614286Y-82200942D02*
X148642857Y-82229514D01*
X148642857Y-82229514D02*
X148671428Y-82286657D01*
X148671428Y-82286657D02*
X148671428Y-82343800D01*
X148671428Y-82343800D02*
X148642857Y-82429514D01*
X148642857Y-82429514D02*
X148300000Y-82772371D01*
X148300000Y-82772371D02*
X148671428Y-82772371D01*
X133072371Y-92085714D02*
X132786657Y-92285714D01*
X133072371Y-92428571D02*
X132472371Y-92428571D01*
X132472371Y-92428571D02*
X132472371Y-92200000D01*
X132472371Y-92200000D02*
X132500942Y-92142857D01*
X132500942Y-92142857D02*
X132529514Y-92114286D01*
X132529514Y-92114286D02*
X132586657Y-92085714D01*
X132586657Y-92085714D02*
X132672371Y-92085714D01*
X132672371Y-92085714D02*
X132729514Y-92114286D01*
X132729514Y-92114286D02*
X132758085Y-92142857D01*
X132758085Y-92142857D02*
X132786657Y-92200000D01*
X132786657Y-92200000D02*
X132786657Y-92428571D01*
X133072371Y-91514286D02*
X133072371Y-91857143D01*
X133072371Y-91685714D02*
X132472371Y-91685714D01*
X132472371Y-91685714D02*
X132558085Y-91742857D01*
X132558085Y-91742857D02*
X132615228Y-91800000D01*
X132615228Y-91800000D02*
X132643800Y-91857143D01*
X133072371Y-90942857D02*
X133072371Y-91285714D01*
X133072371Y-91114285D02*
X132472371Y-91114285D01*
X132472371Y-91114285D02*
X132558085Y-91171428D01*
X132558085Y-91171428D02*
X132615228Y-91228571D01*
X132615228Y-91228571D02*
X132643800Y-91285714D01*
X116472371Y-84799999D02*
X116186657Y-84999999D01*
X116472371Y-85142856D02*
X115872371Y-85142856D01*
X115872371Y-85142856D02*
X115872371Y-84914285D01*
X115872371Y-84914285D02*
X115900942Y-84857142D01*
X115900942Y-84857142D02*
X115929514Y-84828571D01*
X115929514Y-84828571D02*
X115986657Y-84799999D01*
X115986657Y-84799999D02*
X116072371Y-84799999D01*
X116072371Y-84799999D02*
X116129514Y-84828571D01*
X116129514Y-84828571D02*
X116158085Y-84857142D01*
X116158085Y-84857142D02*
X116186657Y-84914285D01*
X116186657Y-84914285D02*
X116186657Y-85142856D01*
X116472371Y-84228571D02*
X116472371Y-84571428D01*
X116472371Y-84399999D02*
X115872371Y-84399999D01*
X115872371Y-84399999D02*
X115958085Y-84457142D01*
X115958085Y-84457142D02*
X116015228Y-84514285D01*
X116015228Y-84514285D02*
X116043800Y-84571428D01*
X126837500Y-80102728D02*
X126808928Y-80131300D01*
X126808928Y-80131300D02*
X126723214Y-80159871D01*
X126723214Y-80159871D02*
X126666071Y-80159871D01*
X126666071Y-80159871D02*
X126580357Y-80131300D01*
X126580357Y-80131300D02*
X126523214Y-80074157D01*
X126523214Y-80074157D02*
X126494643Y-80017014D01*
X126494643Y-80017014D02*
X126466071Y-79902728D01*
X126466071Y-79902728D02*
X126466071Y-79817014D01*
X126466071Y-79817014D02*
X126494643Y-79702728D01*
X126494643Y-79702728D02*
X126523214Y-79645585D01*
X126523214Y-79645585D02*
X126580357Y-79588442D01*
X126580357Y-79588442D02*
X126666071Y-79559871D01*
X126666071Y-79559871D02*
X126723214Y-79559871D01*
X126723214Y-79559871D02*
X126808928Y-79588442D01*
X126808928Y-79588442D02*
X126837500Y-79617014D01*
X127351786Y-79759871D02*
X127351786Y-80159871D01*
X127208928Y-79531300D02*
X127066071Y-79959871D01*
X127066071Y-79959871D02*
X127437500Y-79959871D01*
X142108978Y-76385714D02*
X142137550Y-76414286D01*
X142137550Y-76414286D02*
X142166121Y-76500000D01*
X142166121Y-76500000D02*
X142166121Y-76557143D01*
X142166121Y-76557143D02*
X142137550Y-76642857D01*
X142137550Y-76642857D02*
X142080407Y-76700000D01*
X142080407Y-76700000D02*
X142023264Y-76728571D01*
X142023264Y-76728571D02*
X141908978Y-76757143D01*
X141908978Y-76757143D02*
X141823264Y-76757143D01*
X141823264Y-76757143D02*
X141708978Y-76728571D01*
X141708978Y-76728571D02*
X141651835Y-76700000D01*
X141651835Y-76700000D02*
X141594692Y-76642857D01*
X141594692Y-76642857D02*
X141566121Y-76557143D01*
X141566121Y-76557143D02*
X141566121Y-76500000D01*
X141566121Y-76500000D02*
X141594692Y-76414286D01*
X141594692Y-76414286D02*
X141623264Y-76385714D01*
X142166121Y-75814286D02*
X142166121Y-76157143D01*
X142166121Y-75985714D02*
X141566121Y-75985714D01*
X141566121Y-75985714D02*
X141651835Y-76042857D01*
X141651835Y-76042857D02*
X141708978Y-76100000D01*
X141708978Y-76100000D02*
X141737550Y-76157143D01*
X141566121Y-75442857D02*
X141566121Y-75385714D01*
X141566121Y-75385714D02*
X141594692Y-75328571D01*
X141594692Y-75328571D02*
X141623264Y-75300000D01*
X141623264Y-75300000D02*
X141680407Y-75271428D01*
X141680407Y-75271428D02*
X141794692Y-75242857D01*
X141794692Y-75242857D02*
X141937550Y-75242857D01*
X141937550Y-75242857D02*
X142051835Y-75271428D01*
X142051835Y-75271428D02*
X142108978Y-75300000D01*
X142108978Y-75300000D02*
X142137550Y-75328571D01*
X142137550Y-75328571D02*
X142166121Y-75385714D01*
X142166121Y-75385714D02*
X142166121Y-75442857D01*
X142166121Y-75442857D02*
X142137550Y-75500000D01*
X142137550Y-75500000D02*
X142108978Y-75528571D01*
X142108978Y-75528571D02*
X142051835Y-75557142D01*
X142051835Y-75557142D02*
X141937550Y-75585714D01*
X141937550Y-75585714D02*
X141794692Y-75585714D01*
X141794692Y-75585714D02*
X141680407Y-75557142D01*
X141680407Y-75557142D02*
X141623264Y-75528571D01*
X141623264Y-75528571D02*
X141594692Y-75500000D01*
X141594692Y-75500000D02*
X141566121Y-75442857D01*
D10*
X126107618Y-90122295D02*
X126564761Y-90122295D01*
X126336189Y-90922295D02*
X126336189Y-90122295D01*
X127174285Y-90922295D02*
X127174285Y-90503247D01*
X127174285Y-90503247D02*
X127136190Y-90427057D01*
X127136190Y-90427057D02*
X127059999Y-90388961D01*
X127059999Y-90388961D02*
X126907618Y-90388961D01*
X126907618Y-90388961D02*
X126831428Y-90427057D01*
X127174285Y-90884200D02*
X127098094Y-90922295D01*
X127098094Y-90922295D02*
X126907618Y-90922295D01*
X126907618Y-90922295D02*
X126831428Y-90884200D01*
X126831428Y-90884200D02*
X126793332Y-90808009D01*
X126793332Y-90808009D02*
X126793332Y-90731819D01*
X126793332Y-90731819D02*
X126831428Y-90655628D01*
X126831428Y-90655628D02*
X126907618Y-90617533D01*
X126907618Y-90617533D02*
X127098094Y-90617533D01*
X127098094Y-90617533D02*
X127174285Y-90579438D01*
X127898095Y-90388961D02*
X127898095Y-91036580D01*
X127898095Y-91036580D02*
X127860000Y-91112771D01*
X127860000Y-91112771D02*
X127821904Y-91150866D01*
X127821904Y-91150866D02*
X127745714Y-91188961D01*
X127745714Y-91188961D02*
X127631428Y-91188961D01*
X127631428Y-91188961D02*
X127555238Y-91150866D01*
X127898095Y-90884200D02*
X127821904Y-90922295D01*
X127821904Y-90922295D02*
X127669523Y-90922295D01*
X127669523Y-90922295D02*
X127593333Y-90884200D01*
X127593333Y-90884200D02*
X127555238Y-90846104D01*
X127555238Y-90846104D02*
X127517142Y-90769914D01*
X127517142Y-90769914D02*
X127517142Y-90541342D01*
X127517142Y-90541342D02*
X127555238Y-90465152D01*
X127555238Y-90465152D02*
X127593333Y-90427057D01*
X127593333Y-90427057D02*
X127669523Y-90388961D01*
X127669523Y-90388961D02*
X127821904Y-90388961D01*
X127821904Y-90388961D02*
X127898095Y-90427057D01*
D13*
%TO.C,U3*%
X121490000Y-73890000D02*
X121965000Y-73890000D01*
X121490000Y-74365000D02*
X121490000Y-73890000D01*
X125235000Y-73890000D02*
X125470000Y-73890000D01*
X125710000Y-74365000D02*
X125710000Y-74190000D01*
X125710000Y-77635000D02*
X125710000Y-78110000D01*
X125710000Y-78110000D02*
X125235000Y-78110000D01*
X126040000Y-74130000D02*
X125710000Y-73890000D01*
X126040000Y-73650000D01*
X126040000Y-74130000D01*
G36*
X126040000Y-74130000D02*
G01*
X125710000Y-73890000D01*
X126040000Y-73650000D01*
X126040000Y-74130000D01*
G37*
%TO.C,C7*%
X133983750Y-75359420D02*
X133983750Y-75640580D01*
X135003750Y-75359420D02*
X135003750Y-75640580D01*
%TO.C,L3*%
X146162779Y-79490000D02*
X145837221Y-79490000D01*
X146162779Y-80510000D02*
X145837221Y-80510000D01*
%TO.C,R6*%
X132062742Y-88977500D02*
X132537258Y-88977500D01*
X132062742Y-90022500D02*
X132537258Y-90022500D01*
%TO.C,C9*%
X137083750Y-78434420D02*
X137083750Y-78715580D01*
X138103750Y-78434420D02*
X138103750Y-78715580D01*
%TO.C,Q2*%
X140600000Y-86840000D02*
X139950000Y-86840000D01*
X140600000Y-86840000D02*
X141250000Y-86840000D01*
X140600000Y-89960000D02*
X139950000Y-89960000D01*
X140600000Y-89960000D02*
X141250000Y-89960000D01*
X142002500Y-90240000D02*
X141522500Y-90240000D01*
X141762500Y-89910000D01*
X142002500Y-90240000D01*
G36*
X142002500Y-90240000D02*
G01*
X141522500Y-90240000D01*
X141762500Y-89910000D01*
X142002500Y-90240000D01*
G37*
%TO.C,C14*%
X135790000Y-87159420D02*
X135790000Y-87440580D01*
X136810000Y-87159420D02*
X136810000Y-87440580D01*
%TO.C,C16*%
X129490000Y-88040580D02*
X129490000Y-87759420D01*
X130510000Y-88040580D02*
X130510000Y-87759420D01*
%TO.C,U2*%
X123600000Y-80640000D02*
X122800000Y-80640000D01*
X123600000Y-80640000D02*
X124400000Y-80640000D01*
X123600000Y-83760000D02*
X122800000Y-83760000D01*
X123600000Y-83760000D02*
X124400000Y-83760000D01*
X122300000Y-80690000D02*
X122060000Y-80360000D01*
X122540000Y-80360000D01*
X122300000Y-80690000D01*
G36*
X122300000Y-80690000D02*
G01*
X122060000Y-80360000D01*
X122540000Y-80360000D01*
X122300000Y-80690000D01*
G37*
%TO.C,L1*%
X135683750Y-76849721D02*
X135683750Y-77175279D01*
X136703750Y-76849721D02*
X136703750Y-77175279D01*
%TO.C,C3*%
X119290000Y-82303080D02*
X119290000Y-82021920D01*
X120310000Y-82303080D02*
X120310000Y-82021920D01*
%TO.C,D1*%
X114400000Y-93480000D02*
X114120000Y-93200000D01*
X114400000Y-93200000D01*
X114400000Y-93480000D01*
G36*
X114400000Y-93480000D02*
G01*
X114120000Y-93200000D01*
X114400000Y-93200000D01*
X114400000Y-93480000D01*
G37*
%TO.C,J1*%
X110470000Y-93610000D02*
X110470000Y-83390000D01*
X113130000Y-83390000D02*
X110470000Y-83390000D01*
X113130000Y-93610000D02*
X110470000Y-93610000D01*
X113130000Y-93610000D02*
X113130000Y-83390000D01*
X113130000Y-94880000D02*
X113130000Y-96210000D01*
X113130000Y-96210000D02*
X111800000Y-96210000D01*
%TO.C,C17*%
X143640580Y-90490000D02*
X143359420Y-90490000D01*
X143640580Y-91510000D02*
X143359420Y-91510000D01*
%TO.C,R3*%
X119277500Y-79062742D02*
X119277500Y-79537258D01*
X120322500Y-79062742D02*
X120322500Y-79537258D01*
%TO.C,R5*%
X129562742Y-94477500D02*
X130037258Y-94477500D01*
X129562742Y-95522500D02*
X130037258Y-95522500D01*
%TO.C,C1*%
X121240580Y-84490000D02*
X120959420Y-84490000D01*
X121240580Y-85510000D02*
X120959420Y-85510000D01*
%TO.C,J3*%
X113800000Y-72830000D02*
X115500000Y-72830000D01*
X113800000Y-82170000D02*
X115500000Y-82170000D01*
%TO.C,R9*%
X137277500Y-90062742D02*
X137277500Y-90537258D01*
X138322500Y-90062742D02*
X138322500Y-90537258D01*
%TO.C,C8*%
X144134330Y-77290000D02*
X143853170Y-77290000D01*
X144134330Y-78310000D02*
X143853170Y-78310000D01*
%TO.C,C12*%
X147790000Y-78715580D02*
X147790000Y-78434420D01*
X148810000Y-78715580D02*
X148810000Y-78434420D01*
%TO.C,R2*%
X119277500Y-74237258D02*
X119277500Y-73762742D01*
X120322500Y-74237258D02*
X120322500Y-73762742D01*
%TO.C,U1*%
X120900000Y-85965000D02*
X118950000Y-85965000D01*
X120900000Y-85965000D02*
X122850000Y-85965000D01*
X120900000Y-94835000D02*
X118950000Y-94835000D01*
X120900000Y-94835000D02*
X122850000Y-94835000D01*
X118200000Y-86030000D02*
X117960000Y-85700000D01*
X118440000Y-85700000D01*
X118200000Y-86030000D01*
G36*
X118200000Y-86030000D02*
G01*
X117960000Y-85700000D01*
X118440000Y-85700000D01*
X118200000Y-86030000D01*
G37*
%TO.C,R4*%
X140677500Y-81862742D02*
X140677500Y-82337258D01*
X141722500Y-81862742D02*
X141722500Y-82337258D01*
%TO.C,C13*%
X142190000Y-82240580D02*
X142190000Y-81959420D01*
X143210000Y-82240580D02*
X143210000Y-81959420D01*
%TO.C,J4*%
X151240000Y-91750000D02*
X151240000Y-92250000D01*
X151240000Y-92250000D02*
X151740000Y-92000000D01*
X151740000Y-92000000D02*
X151240000Y-91750000D01*
X152290000Y-91160000D02*
X152290000Y-90050000D01*
X152290000Y-93950000D02*
X152290000Y-92840000D01*
X155540000Y-91160000D02*
X155540000Y-90050000D01*
X155540000Y-93950000D02*
X155540000Y-92840000D01*
%TO.C,L2*%
X139630971Y-77290000D02*
X139956529Y-77290000D01*
X139630971Y-78310000D02*
X139956529Y-78310000D01*
%TO.C,U4*%
X132293750Y-77190000D02*
X130793750Y-77190000D01*
X132293750Y-77190000D02*
X133793750Y-77190000D01*
X132293750Y-80410000D02*
X130793750Y-80410000D01*
X132293750Y-80410000D02*
X133793750Y-80410000D01*
X134746250Y-80540000D02*
X134266250Y-80540000D01*
X134506250Y-80210000D01*
X134746250Y-80540000D01*
G36*
X134746250Y-80540000D02*
G01*
X134266250Y-80540000D01*
X134506250Y-80210000D01*
X134746250Y-80540000D01*
G37*
%TO.C,R8*%
X134277500Y-87062742D02*
X134277500Y-87537258D01*
X135322500Y-87062742D02*
X135322500Y-87537258D01*
%TO.C,R10*%
X129477500Y-91937258D02*
X129477500Y-91462742D01*
X130522500Y-91937258D02*
X130522500Y-91462742D01*
%TO.C,U5*%
X131690000Y-86140000D02*
X133100000Y-86140000D01*
X131700000Y-88460000D02*
X133100000Y-88460000D01*
X131320000Y-86190000D02*
X131080000Y-85860000D01*
X131560000Y-85860000D01*
X131320000Y-86190000D01*
G36*
X131320000Y-86190000D02*
G01*
X131080000Y-85860000D01*
X131560000Y-85860000D01*
X131320000Y-86190000D01*
G37*
%TO.C,R12*%
X140162742Y-90477500D02*
X140637258Y-90477500D01*
X140162742Y-91522500D02*
X140637258Y-91522500D01*
%TO.C,C5*%
X120790000Y-79440580D02*
X120790000Y-79159420D01*
X121810000Y-79440580D02*
X121810000Y-79159420D01*
%TO.C,J2*%
X151240000Y-76750000D02*
X151240000Y-77250000D01*
X151240000Y-77250000D02*
X151740000Y-77000000D01*
X151740000Y-77000000D02*
X151240000Y-76750000D01*
X152290000Y-76160000D02*
X152290000Y-75050000D01*
X152290000Y-78950000D02*
X152290000Y-77840000D01*
X155540000Y-76160000D02*
X155540000Y-75050000D01*
X155540000Y-78950000D02*
X155540000Y-77840000D01*
%TO.C,Q1*%
X144700000Y-86840000D02*
X144050000Y-86840000D01*
X144700000Y-86840000D02*
X145350000Y-86840000D01*
X144700000Y-89960000D02*
X144050000Y-89960000D01*
X144700000Y-89960000D02*
X145350000Y-89960000D01*
X146102500Y-90240000D02*
X145622500Y-90240000D01*
X145862500Y-89910000D01*
X146102500Y-90240000D01*
G36*
X146102500Y-90240000D02*
G01*
X145622500Y-90240000D01*
X145862500Y-89910000D01*
X146102500Y-90240000D01*
G37*
%TO.C,R7*%
X137277500Y-87062742D02*
X137277500Y-87537258D01*
X138322500Y-87062742D02*
X138322500Y-87537258D01*
%TO.C,C15*%
X135790000Y-90440580D02*
X135790000Y-90159420D01*
X136810000Y-90440580D02*
X136810000Y-90159420D01*
%TO.C,Y1*%
X133543750Y-80850000D02*
X130843750Y-80850000D01*
X133543750Y-83150000D02*
X133543750Y-80850000D01*
%TO.C,C11*%
X147790000Y-80265580D02*
X147790000Y-79984420D01*
X148810000Y-80265580D02*
X148810000Y-79984420D01*
%TO.C,C6*%
X131683750Y-75640580D02*
X131683750Y-75359420D01*
X132703750Y-75640580D02*
X132703750Y-75359420D01*
%TO.C,D2*%
X145600000Y-80940000D02*
X144950000Y-80940000D01*
X145600000Y-80940000D02*
X146250000Y-80940000D01*
X145600000Y-84060000D02*
X144950000Y-84060000D01*
X145600000Y-84060000D02*
X146250000Y-84060000D01*
X144437500Y-80990000D02*
X144197500Y-80660000D01*
X144677500Y-80660000D01*
X144437500Y-80990000D01*
G36*
X144437500Y-80990000D02*
G01*
X144197500Y-80660000D01*
X144677500Y-80660000D01*
X144437500Y-80990000D01*
G37*
%TO.C,R11*%
X130977500Y-91937258D02*
X130977500Y-91462742D01*
X132022500Y-91937258D02*
X132022500Y-91462742D01*
%TO.C,R1*%
X115677500Y-86662742D02*
X115677500Y-87137258D01*
X116722500Y-86662742D02*
X116722500Y-87137258D01*
%TO.C,C4*%
X124559420Y-79390000D02*
X124840580Y-79390000D01*
X124559420Y-80410000D02*
X124840580Y-80410000D01*
%TO.C,C10*%
X141383750Y-78434420D02*
X141383750Y-78715580D01*
X142403750Y-78434420D02*
X142403750Y-78715580D01*
%TD*%
%LPC*%
D14*
%TO.C,U3*%
X124850000Y-74062500D03*
X124350000Y-74062500D03*
X123850000Y-74062500D03*
X123350000Y-74062500D03*
X122850000Y-74062500D03*
X122350000Y-74062500D03*
D15*
X121662500Y-74750000D03*
X121662500Y-75250000D03*
X121662500Y-75750000D03*
X121662500Y-76250000D03*
X121662500Y-76750000D03*
X121662500Y-77250000D03*
D14*
X122350000Y-77937500D03*
X122850000Y-77937500D03*
X123350000Y-77937500D03*
X123850000Y-77937500D03*
X124350000Y-77937500D03*
X124850000Y-77937500D03*
D15*
X125537500Y-77250000D03*
X125537500Y-76750000D03*
X125537500Y-76250000D03*
X125537500Y-75750000D03*
X125537500Y-75250000D03*
X125537500Y-74750000D03*
D16*
X123600000Y-76000000D03*
%TD*%
D17*
%TO.C,C7*%
X134493750Y-74725000D03*
X134493750Y-76275000D03*
%TD*%
D18*
%TO.C,L3*%
X146787500Y-80000000D03*
X145212500Y-80000000D03*
%TD*%
D19*
%TO.C,R6*%
X131475000Y-89500000D03*
X133125000Y-89500000D03*
%TD*%
D20*
%TO.C,TP2*%
X127040000Y-94860000D03*
%TD*%
D17*
%TO.C,C9*%
X137593750Y-77800000D03*
X137593750Y-79350000D03*
%TD*%
D21*
%TO.C,Q2*%
X141537500Y-89350000D03*
X141537500Y-87450000D03*
X139662500Y-88400000D03*
%TD*%
D17*
%TO.C,C14*%
X136300000Y-86525000D03*
X136300000Y-88075000D03*
%TD*%
D22*
%TO.C,C16*%
X130000000Y-88675000D03*
X130000000Y-87125000D03*
%TD*%
D23*
%TO.C,U2*%
X122462500Y-81250000D03*
X122462500Y-82200000D03*
X122462500Y-83150000D03*
X124737500Y-83150000D03*
X124737500Y-81250000D03*
%TD*%
D24*
%TO.C,L1*%
X136193750Y-76225000D03*
X136193750Y-77800000D03*
%TD*%
D22*
%TO.C,C3*%
X119800000Y-82937500D03*
X119800000Y-81387500D03*
%TD*%
D25*
%TO.C,D1*%
X115050000Y-92200000D03*
X115050000Y-89400000D03*
X116550000Y-92200000D03*
X116550000Y-89400000D03*
%TD*%
D26*
%TO.C,J1*%
X111800000Y-94880000D03*
D27*
X111800000Y-92340000D03*
X111800000Y-89800000D03*
X111800000Y-87260000D03*
X111800000Y-84720000D03*
%TD*%
D28*
%TO.C,C17*%
X144275000Y-91000000D03*
X142725000Y-91000000D03*
%TD*%
D29*
%TO.C,H1*%
X153000000Y-84500000D03*
%TD*%
D20*
%TO.C,TP5*%
X134660000Y-92340000D03*
%TD*%
D30*
%TO.C,R3*%
X119800000Y-78475000D03*
X119800000Y-80125000D03*
%TD*%
D19*
%TO.C,R5*%
X128975000Y-95000000D03*
X130625000Y-95000000D03*
%TD*%
D28*
%TO.C,C1*%
X121875000Y-85000000D03*
X120325000Y-85000000D03*
%TD*%
D31*
%TO.C,J3*%
X116305000Y-74610000D03*
X116305000Y-80390000D03*
D32*
X117380000Y-74300000D03*
X117380000Y-75100000D03*
D33*
X117380000Y-76250000D03*
X117380000Y-77250000D03*
X117380000Y-77750000D03*
X117380000Y-78750000D03*
D32*
X117380000Y-79900000D03*
X117380000Y-80700000D03*
X117380000Y-80700000D03*
X117380000Y-79900000D03*
D33*
X117380000Y-79250000D03*
X117380000Y-78250000D03*
X117380000Y-76750000D03*
X117380000Y-75750000D03*
D32*
X117380000Y-75100000D03*
X117380000Y-74300000D03*
D34*
X116805000Y-73180000D03*
D35*
X112625000Y-73180000D03*
D34*
X116805000Y-81820000D03*
D35*
X112625000Y-81820000D03*
%TD*%
D30*
%TO.C,R9*%
X137800000Y-89475000D03*
X137800000Y-91125000D03*
%TD*%
D28*
%TO.C,C8*%
X144768750Y-77800000D03*
X143218750Y-77800000D03*
%TD*%
D22*
%TO.C,C12*%
X148300000Y-79350000D03*
X148300000Y-77800000D03*
%TD*%
D36*
%TO.C,R2*%
X119800000Y-74825000D03*
X119800000Y-73175000D03*
%TD*%
D20*
%TO.C,TP1*%
X127040000Y-87240000D03*
%TD*%
D37*
%TO.C,U1*%
X118425000Y-86590000D03*
X118425000Y-87860000D03*
X118425000Y-89130000D03*
X118425000Y-90400000D03*
X118425000Y-91670000D03*
X118425000Y-92940000D03*
X118425000Y-94210000D03*
X123375000Y-94210000D03*
X123375000Y-92940000D03*
X123375000Y-91670000D03*
X123375000Y-90400000D03*
X123375000Y-89130000D03*
X123375000Y-87860000D03*
X123375000Y-86590000D03*
%TD*%
D30*
%TO.C,R4*%
X141200000Y-81275000D03*
X141200000Y-82925000D03*
%TD*%
D22*
%TO.C,C13*%
X142700000Y-82875000D03*
X142700000Y-81325000D03*
%TD*%
D38*
%TO.C,J4*%
X154000000Y-92000000D03*
D39*
X153750000Y-89175000D03*
X153750000Y-94825000D03*
%TD*%
D40*
%TO.C,L2*%
X139006250Y-77800000D03*
X140581250Y-77800000D03*
%TD*%
D41*
%TO.C,U4*%
X134493750Y-79800000D03*
X134493750Y-79300000D03*
X134493750Y-78800000D03*
X134493750Y-78300000D03*
X134493750Y-77800000D03*
X130093750Y-77800000D03*
X130093750Y-78300000D03*
X130093750Y-78800000D03*
X130093750Y-79300000D03*
X130093750Y-79800000D03*
%TD*%
D30*
%TO.C,R8*%
X134800000Y-86475000D03*
X134800000Y-88125000D03*
%TD*%
D36*
%TO.C,R10*%
X130000000Y-92525000D03*
X130000000Y-90875000D03*
%TD*%
D20*
%TO.C,TP4*%
X142280000Y-84720000D03*
%TD*%
D42*
%TO.C,U5*%
X131450000Y-86650000D03*
X131450000Y-87300000D03*
X131450000Y-87950000D03*
X133350000Y-87950000D03*
X133350000Y-86650000D03*
%TD*%
D19*
%TO.C,R12*%
X139575000Y-91000000D03*
X141225000Y-91000000D03*
%TD*%
D22*
%TO.C,C5*%
X121300000Y-80075000D03*
X121300000Y-78525000D03*
%TD*%
D38*
%TO.C,J2*%
X154000000Y-77000000D03*
D39*
X153750000Y-74175000D03*
X153750000Y-79825000D03*
%TD*%
D21*
%TO.C,Q1*%
X145637500Y-89350000D03*
X145637500Y-87450000D03*
X143762500Y-88400000D03*
%TD*%
D30*
%TO.C,R7*%
X137800000Y-86475000D03*
X137800000Y-88125000D03*
%TD*%
D22*
%TO.C,C15*%
X136300000Y-91075000D03*
X136300000Y-89525000D03*
%TD*%
D43*
%TO.C,Y1*%
X132893750Y-81450000D03*
X131493750Y-81450000D03*
X131493750Y-82550000D03*
X132893750Y-82550000D03*
%TD*%
D22*
%TO.C,C11*%
X148300000Y-80900000D03*
X148300000Y-79350000D03*
%TD*%
%TO.C,C6*%
X132193750Y-76275000D03*
X132193750Y-74725000D03*
%TD*%
D44*
%TO.C,D2*%
X144662500Y-81550000D03*
X144662500Y-83450000D03*
X146537500Y-82500000D03*
%TD*%
D36*
%TO.C,R11*%
X131500000Y-92525000D03*
X131500000Y-90875000D03*
%TD*%
D30*
%TO.C,R1*%
X116200000Y-86075000D03*
X116200000Y-87725000D03*
%TD*%
D45*
%TO.C,C4*%
X123925000Y-79900000D03*
X125475000Y-79900000D03*
%TD*%
D17*
%TO.C,C10*%
X141893750Y-77800000D03*
X141893750Y-79350000D03*
%TD*%
D20*
%TO.C,TP3*%
X127040000Y-92320000D03*
%TD*%
%LPD*%
M02*
