M48
; DRILL file {KiCad (6.0.0-0)} date 2022 July 29, Friday 21:18:11
; FORMAT={-:-/ absolute / inch / decimal}
; #@! TF.CreationDate,2022-07-29T21:18:11+02:00
; #@! TF.GenerationSoftware,Kicad,Pcbnew,(6.0.0-0)
; #@! TF.FileFunction,Plated,1,2,PTH
FMAT,2
INCH
; #@! TA.AperFunction,Plated,PTH,ViaDrill
T1C0.0157
; #@! TA.AperFunction,Plated,PTH,ComponentDrill
T2C0.0197
; #@! TA.AperFunction,Plated,PTH,ComponentDrill
T3C0.0217
; #@! TA.AperFunction,Plated,PTH,ComponentDrill
T4C0.0394
; #@! TA.AperFunction,Plated,PTH,ViaDrill
T5C0.1181
%
G90
G05
T1
X4.4685Y-3.435
X4.5669Y-3.9665
X4.6161Y-3.1201
X4.6358Y-2.9035
X4.6614Y-3.2717
X4.685Y-3.0217
X4.7047Y-3.435
X4.7146Y-3.7992
X4.7772Y-3.947
X4.8031Y-3.0807
X4.8524Y-3.5433
X4.872Y-3.75
X4.8917Y-2.9429
X4.8917Y-3.0315
X4.9705Y-3.2087
X4.9902Y-3.376
X5.0098Y-3.3268
X5.0197Y-2.9429
X5.0394Y-3.4941
X5.0394Y-3.8878
X5.0886Y-3.2677
X5.1575Y-3.7106
X5.2067Y-3.0118
X5.3008Y-3.1794
X5.3346Y-3.7008
X5.3512Y-3.1068
X5.4004Y-3.2677
X5.4823Y-3.2874
X5.4846Y-2.874
X5.4846Y-2.9331
X5.4846Y-2.9921
X5.5118Y-3.75
X5.5217Y-3.0512
X5.5372Y-3.1594
X5.5906Y-3.0512
X5.5963Y-3.1594
X5.6299Y-3.6811
X5.6594Y-3.1594
X5.6594Y-3.5827
X5.689Y-3.248
X5.7087Y-3.7795
X5.7364Y-3.1594
X5.7382Y-3.0512
X5.7768Y-3.2087
X5.8071Y-3.0512
X5.8071Y-3.5827
X5.8291Y-2.874
X5.8291Y-2.9331
X5.8291Y-2.9921
X5.8465Y-3.2087
X5.9055Y-3.0807
X5.9055Y-3.1496
X5.9055Y-3.2087
X5.9055Y-3.2677
X5.9055Y-3.3366
X5.9112Y-3.7008
X5.9646Y-3.0807
X5.9646Y-3.1496
X5.9646Y-3.2087
X5.9646Y-3.2677
X5.9646Y-3.3366
X5.9801Y-3.6319
X5.9811Y-3.4154
X6.0236Y-3.2087
X6.0236Y-3.8583
X6.0433Y-3.0512
X6.0917Y-3.2087
X6.1081Y-3.4744
X6.1091Y-3.3661
X6.1516Y-3.0118
X6.1516Y-3.0709
X6.1516Y-3.5335
X6.1516Y-3.5925
X6.1583Y-3.2776
X6.1583Y-3.3366
X6.2106Y-3.0118
X6.2106Y-3.5925
X6.2697Y-3.0118
X6.2697Y-3.5925
X6.3256Y-3.5925
X6.3287Y-3.0118
T4
X4.4307Y-3.5346
X4.4307Y-3.6346
X4.4307Y-3.7346
X4.4307Y-3.8346
X4.4307Y-3.9346
X4.9307Y-3.8346
X5.0307Y-3.4346
X5.1307Y-3.4346
X5.1307Y-3.5335
X5.5307Y-3.5346
X5.9307Y-3.8346
T5
X5.315Y-2.9528
X6.2205Y-3.8976
T2
G00X4.4006Y-2.9134
M15
G01X4.375Y-2.9134
M16
G05
G00X4.4006Y-3.189
M15
G01X4.375Y-3.189
M16
G05
T3
G00X4.4941Y-2.9469
M15
G01X4.4941Y-2.9587
M16
G05
G00X4.4941Y-3.1437
M15
G01X4.4941Y-3.1555
M16
G05
T0
M30
