%TF.GenerationSoftware,KiCad,Pcbnew,9.0.0*%
%TF.CreationDate,2025-12-15T21:45:39+01:00*%
%TF.ProjectId,DetectorReader,44657465-6374-46f7-9252-65616465722e,rev?*%
%TF.SameCoordinates,Original*%
%TF.FileFunction,Copper,L2,Bot*%
%TF.FilePolarity,Positive*%
%FSLAX46Y46*%
G04 Gerber Fmt 4.6, Leading zero omitted, Abs format (unit mm)*
G04 Created by KiCad (PCBNEW 9.0.0) date 2025-12-15 21:45:39*
%MOMM*%
%LPD*%
G01*
G04 APERTURE LIST*
G04 Aperture macros list*
%AMRoundRect*
0 Rectangle with rounded corners*
0 $1 Rounding radius*
0 $2 $3 $4 $5 $6 $7 $8 $9 X,Y pos of 4 corners*
0 Add a 4 corners polygon primitive as box body*
4,1,4,$2,$3,$4,$5,$6,$7,$8,$9,$2,$3,0*
0 Add four circle primitives for the rounded corners*
1,1,$1+$1,$2,$3*
1,1,$1+$1,$4,$5*
1,1,$1+$1,$6,$7*
1,1,$1+$1,$8,$9*
0 Add four rect primitives between the rounded corners*
20,1,$1+$1,$2,$3,$4,$5,0*
20,1,$1+$1,$4,$5,$6,$7,0*
20,1,$1+$1,$6,$7,$8,$9,0*
20,1,$1+$1,$8,$9,$2,$3,0*%
G04 Aperture macros list end*
%TA.AperFunction,ComponentPad*%
%ADD10R,1.700000X1.700000*%
%TD*%
%TA.AperFunction,ComponentPad*%
%ADD11O,1.700000X1.700000*%
%TD*%
%TA.AperFunction,ComponentPad*%
%ADD12C,1.700000*%
%TD*%
%TA.AperFunction,HeatsinkPad*%
%ADD13O,2.100000X1.000000*%
%TD*%
%TA.AperFunction,HeatsinkPad*%
%ADD14O,1.800000X1.000000*%
%TD*%
%TA.AperFunction,SMDPad,CuDef*%
%ADD15RoundRect,0.250000X1.600000X-0.425000X1.600000X0.425000X-1.600000X0.425000X-1.600000X-0.425000X0*%
%TD*%
%TA.AperFunction,ViaPad*%
%ADD16C,0.600000*%
%TD*%
%TA.AperFunction,Conductor*%
%ADD17C,0.600000*%
%TD*%
%TA.AperFunction,Conductor*%
%ADD18C,0.300000*%
%TD*%
%TA.AperFunction,Conductor*%
%ADD19C,0.250000*%
%TD*%
G04 APERTURE END LIST*
D10*
%TO.P,J1,1,Pin_1*%
%TO.N,/UPDI*%
X111800000Y-96000000D03*
D11*
%TO.P,J1,2,Pin_2*%
%TO.N,GND*%
X111800000Y-93460000D03*
%TO.P,J1,3,Pin_3*%
%TO.N,/VBUS*%
X111800000Y-90920000D03*
%TO.P,J1,4,Pin_4*%
%TO.N,/uartTx*%
X111800000Y-88380000D03*
%TO.P,J1,5,Pin_5*%
%TO.N,/uartRx*%
X111800000Y-85840000D03*
%TD*%
D12*
%TO.P,TP2,1,1*%
%TO.N,/~{ReaderCmd}*%
X129580000Y-96000000D03*
%TD*%
%TO.P,TP5,1,1*%
%TO.N,/RF_Rx/Amp2*%
X134660000Y-90920000D03*
%TD*%
D13*
%TO.P,J3,S1,SHIELD*%
%TO.N,GND*%
X116805000Y-73180000D03*
D14*
X112625000Y-73180000D03*
D13*
X116805000Y-81820000D03*
D14*
X112625000Y-81820000D03*
%TD*%
D12*
%TO.P,TP1,1,1*%
%TO.N,/SPI.MOSI*%
X129580000Y-88380000D03*
%TD*%
D15*
%TO.P,J4,2,Ext*%
%TO.N,GND*%
X167687500Y-90000000D03*
X167687500Y-95650000D03*
%TD*%
D12*
%TO.P,TP4,1,1*%
%TO.N,/RF_Rx/Signal*%
X154980000Y-88380000D03*
%TD*%
D15*
%TO.P,J2,2,Ext*%
%TO.N,GND*%
X167687500Y-74175000D03*
X167687500Y-79825000D03*
%TD*%
D12*
%TO.P,TP3,1,1*%
%TO.N,/TagPulses*%
X129580000Y-93460000D03*
%TD*%
D16*
%TO.N,/VBUS*%
X114800000Y-87900000D03*
%TO.N,GND*%
X150400000Y-93500000D03*
X165700000Y-94000000D03*
X165700000Y-91700000D03*
X169300000Y-96800000D03*
X167900000Y-94100000D03*
X169300000Y-88800000D03*
X165700000Y-96800000D03*
X167900000Y-91500000D03*
X165700000Y-88800000D03*
X162200000Y-94300000D03*
X164000000Y-94300000D03*
X164000000Y-92000000D03*
X164000000Y-90600000D03*
X160000000Y-90400000D03*
X161700000Y-90600000D03*
X164000000Y-89000000D03*
X163200000Y-87300000D03*
X161700000Y-89000000D03*
X160400000Y-87700000D03*
X159000000Y-86300000D03*
X162000000Y-86100000D03*
X158100000Y-84900000D03*
X160800000Y-84900000D03*
X160700000Y-83400000D03*
X160200000Y-81100000D03*
X165700000Y-81000000D03*
X169300000Y-81000000D03*
X169300000Y-73000000D03*
X165700000Y-73000000D03*
X167900000Y-78300000D03*
X167900000Y-75700000D03*
X157800000Y-83400000D03*
X156300000Y-82900000D03*
X156300000Y-77400000D03*
X165700000Y-75900000D03*
X165700000Y-78100000D03*
X163900000Y-75900000D03*
X163900000Y-78100000D03*
X162100000Y-78100000D03*
X162100000Y-75900000D03*
X160800000Y-78100000D03*
X160200000Y-75900000D03*
X160200000Y-79200000D03*
X157900000Y-76700000D03*
X154700000Y-76700000D03*
X154800000Y-83400000D03*
X151300000Y-83400000D03*
X150600000Y-82000000D03*
X150600000Y-80300000D03*
X152000000Y-76700000D03*
X152000000Y-78900000D03*
X148300000Y-76700000D03*
X148300000Y-78900000D03*
X150200000Y-76700000D03*
X150200000Y-78900000D03*
X146300000Y-76700000D03*
X146300000Y-78900000D03*
X142700000Y-76700000D03*
X144300000Y-76700000D03*
X144300000Y-78900000D03*
X158800000Y-79500000D03*
X157400000Y-80800000D03*
X157400000Y-79500000D03*
X153700000Y-79500000D03*
X153700000Y-80800000D03*
X155200000Y-80800000D03*
X157400000Y-81900000D03*
X155200000Y-81900000D03*
X155200000Y-79500000D03*
X158800000Y-80800000D03*
X157400000Y-78300000D03*
X155200000Y-78300000D03*
X153600000Y-87000000D03*
X115100000Y-91900000D03*
X139600000Y-83100000D03*
X135200000Y-83100000D03*
X134200000Y-75100000D03*
X141000000Y-75200000D03*
X138800000Y-75200000D03*
X136500000Y-75200000D03*
X130200000Y-74900000D03*
X157300000Y-94600000D03*
X159700000Y-94600000D03*
X157700000Y-91800000D03*
X155200000Y-90100000D03*
X156100000Y-96900000D03*
X154600000Y-96900000D03*
X148500000Y-95200000D03*
X141600000Y-95200000D03*
X149200000Y-90100000D03*
X149200000Y-87000000D03*
X149200000Y-85100000D03*
X135400000Y-87600000D03*
X135500000Y-85600000D03*
X136300000Y-97200000D03*
X127500000Y-97100000D03*
X115800000Y-97100000D03*
X122800000Y-95400000D03*
X128100000Y-86000000D03*
X122800000Y-89900000D03*
X124000000Y-86000000D03*
X119100000Y-83600000D03*
X120700000Y-83600000D03*
X123700000Y-83600000D03*
X125300000Y-83600000D03*
X114600000Y-77400000D03*
X123300000Y-79600000D03*
X121200000Y-79600000D03*
X127200000Y-78500000D03*
X127200000Y-80200000D03*
X126900000Y-74200000D03*
X125062500Y-75100000D03*
X125062500Y-76900000D03*
X121900000Y-74300000D03*
X141200000Y-78800000D03*
X138700000Y-79500000D03*
X138700000Y-78100000D03*
%TO.N,+3V0*%
X130000000Y-80600000D03*
X130000000Y-84300000D03*
X133900000Y-81400000D03*
%TO.N,Net-(U4-3V3OUT)*%
X123137500Y-77937500D03*
X128025000Y-75425000D03*
%TO.N,/RF_Rx/3VRx*%
X144900000Y-96400000D03*
X152300000Y-96400000D03*
X136300000Y-94600000D03*
%TO.N,/uartTx*%
X121100000Y-72700000D03*
%TO.N,/uartRx*%
X126562500Y-72700000D03*
%TO.N,/RF_Rx/CM*%
X141600000Y-94200000D03*
X143100000Y-94200000D03*
X144600000Y-94200000D03*
%TD*%
D17*
%TO.N,/VBUS*%
X111800000Y-90900000D02*
X114800000Y-87900000D01*
X111800000Y-90920000D02*
X111800000Y-90900000D01*
%TO.N,+3V0*%
X130000000Y-80600000D02*
X130000000Y-84300000D01*
X130000000Y-80600000D02*
X133100000Y-80600000D01*
X133100000Y-80600000D02*
X133900000Y-81400000D01*
D18*
%TO.N,Net-(U4-3V3OUT)*%
X128025000Y-75925000D02*
X126012500Y-77937500D01*
X126012500Y-77937500D02*
X123137500Y-77937500D01*
X128025000Y-75425000D02*
X128025000Y-75925000D01*
D17*
%TO.N,/RF_Rx/3VRx*%
X138100000Y-96400000D02*
X144900000Y-96400000D01*
X136300000Y-94600000D02*
X138100000Y-96400000D01*
X144900000Y-96400000D02*
X152300000Y-96400000D01*
D19*
%TO.N,/uartTx*%
X119500000Y-72700000D02*
X116800000Y-75400000D01*
X116800000Y-75400000D02*
X111700000Y-75400000D01*
X110500000Y-76600000D02*
X110500000Y-87080000D01*
X121100000Y-72700000D02*
X119500000Y-72700000D01*
X110500000Y-87080000D02*
X111800000Y-88380000D01*
X111700000Y-75400000D02*
X110500000Y-76600000D01*
%TO.N,/uartRx*%
X111100000Y-77000000D02*
X111100000Y-85140000D01*
X122362500Y-73400000D02*
X119700000Y-73400000D01*
X123062500Y-72700000D02*
X122362500Y-73400000D01*
X117100000Y-76000000D02*
X112100000Y-76000000D01*
X126562500Y-72700000D02*
X123062500Y-72700000D01*
X111100000Y-85140000D02*
X111800000Y-85840000D01*
X119700000Y-73400000D02*
X117100000Y-76000000D01*
X112100000Y-76000000D02*
X111100000Y-77000000D01*
D18*
%TO.N,/RF_Rx/CM*%
X143100000Y-94200000D02*
X144600000Y-94200000D01*
X141600000Y-94200000D02*
X143100000Y-94200000D01*
%TD*%
%TA.AperFunction,Conductor*%
%TO.N,GND*%
G36*
X169941621Y-72020502D02*
G01*
X169988114Y-72074158D01*
X169999500Y-72126500D01*
X169999500Y-83530560D01*
X169979498Y-83598681D01*
X169925842Y-83645174D01*
X169855568Y-83655278D01*
X169790988Y-83625784D01*
X169759978Y-83585230D01*
X169733650Y-83530560D01*
X169717906Y-83497867D01*
X169532630Y-83203003D01*
X169532624Y-83202995D01*
X169315510Y-82930740D01*
X169069259Y-82684489D01*
X168797004Y-82467375D01*
X168797000Y-82467372D01*
X168502137Y-82282096D01*
X168502128Y-82282091D01*
X168188388Y-82131002D01*
X168188383Y-82131000D01*
X168188379Y-82130998D01*
X168188373Y-82130995D01*
X168188361Y-82130991D01*
X167859687Y-82015983D01*
X167520174Y-81938491D01*
X167174122Y-81899500D01*
X167174120Y-81899500D01*
X166825880Y-81899500D01*
X166825878Y-81899500D01*
X166479825Y-81938491D01*
X166140312Y-82015983D01*
X165811638Y-82130991D01*
X165811611Y-82131002D01*
X165497871Y-82282091D01*
X165497862Y-82282096D01*
X165202999Y-82467372D01*
X165202995Y-82467375D01*
X164930740Y-82684489D01*
X164684489Y-82930740D01*
X164467375Y-83202995D01*
X164467372Y-83202999D01*
X164282096Y-83497862D01*
X164282091Y-83497871D01*
X164131002Y-83811611D01*
X164130991Y-83811638D01*
X164015983Y-84140312D01*
X163938491Y-84479825D01*
X163899500Y-84825878D01*
X163899500Y-85174121D01*
X163938491Y-85520174D01*
X163949998Y-85570587D01*
X164015982Y-85859681D01*
X164015984Y-85859687D01*
X164015983Y-85859687D01*
X164130991Y-86188361D01*
X164131002Y-86188388D01*
X164282091Y-86502128D01*
X164282096Y-86502137D01*
X164467372Y-86797000D01*
X164467375Y-86797004D01*
X164684489Y-87069259D01*
X164930740Y-87315510D01*
X165202995Y-87532624D01*
X165203003Y-87532630D01*
X165497867Y-87717906D01*
X165811621Y-87869002D01*
X165811637Y-87869007D01*
X165811638Y-87869008D01*
X166140312Y-87984016D01*
X166140315Y-87984016D01*
X166140319Y-87984018D01*
X166479829Y-88061509D01*
X166725210Y-88089157D01*
X166825878Y-88100500D01*
X166825880Y-88100500D01*
X167174122Y-88100500D01*
X167262006Y-88090597D01*
X167520171Y-88061509D01*
X167859681Y-87984018D01*
X168188379Y-87869002D01*
X168502133Y-87717906D01*
X168796997Y-87532630D01*
X168940342Y-87418317D01*
X169069259Y-87315510D01*
X169315510Y-87069259D01*
X169511201Y-86823868D01*
X169532630Y-86796997D01*
X169717906Y-86502133D01*
X169746789Y-86442156D01*
X169759978Y-86414770D01*
X169807556Y-86362074D01*
X169876070Y-86343465D01*
X169943769Y-86364853D01*
X169989157Y-86419445D01*
X169999500Y-86469439D01*
X169999500Y-97873500D01*
X169979498Y-97941621D01*
X169925842Y-97988114D01*
X169873500Y-97999500D01*
X110126500Y-97999500D01*
X110058379Y-97979498D01*
X110011886Y-97925842D01*
X110000500Y-97873500D01*
X110000500Y-95105129D01*
X110649500Y-95105129D01*
X110649500Y-96894859D01*
X110649501Y-96894866D01*
X110652414Y-96919990D01*
X110652416Y-96919994D01*
X110697793Y-97022765D01*
X110777232Y-97102204D01*
X110777234Y-97102205D01*
X110777235Y-97102206D01*
X110880009Y-97147585D01*
X110905135Y-97150500D01*
X112694864Y-97150499D01*
X112719991Y-97147585D01*
X112822765Y-97102206D01*
X112902206Y-97022765D01*
X112947585Y-96919991D01*
X112950500Y-96894865D01*
X112950499Y-95105136D01*
X112947585Y-95080009D01*
X112902206Y-94977235D01*
X112902206Y-94977234D01*
X112822767Y-94897795D01*
X112822765Y-94897794D01*
X112719989Y-94852414D01*
X112719990Y-94852414D01*
X112694868Y-94849500D01*
X110905140Y-94849500D01*
X110905133Y-94849501D01*
X110880009Y-94852414D01*
X110880005Y-94852416D01*
X110777234Y-94897793D01*
X110697795Y-94977232D01*
X110697794Y-94977234D01*
X110652414Y-95080009D01*
X110649500Y-95105129D01*
X110000500Y-95105129D01*
X110000500Y-93369454D01*
X128429500Y-93369454D01*
X128429500Y-93550546D01*
X128457829Y-93729409D01*
X128457830Y-93729412D01*
X128490930Y-93831287D01*
X128513789Y-93901639D01*
X128596004Y-94062994D01*
X128702447Y-94209501D01*
X128702449Y-94209503D01*
X128702451Y-94209506D01*
X128830493Y-94337548D01*
X128830496Y-94337550D01*
X128830499Y-94337553D01*
X128977006Y-94443996D01*
X129138361Y-94526211D01*
X129310591Y-94582171D01*
X129458211Y-94605551D01*
X129522363Y-94635964D01*
X129559890Y-94696232D01*
X129558876Y-94767221D01*
X129519643Y-94826393D01*
X129458211Y-94854448D01*
X129310591Y-94877829D01*
X129310588Y-94877829D01*
X129310587Y-94877830D01*
X129138365Y-94933787D01*
X129138359Y-94933790D01*
X128977002Y-95016006D01*
X128830496Y-95122449D01*
X128830493Y-95122451D01*
X128702451Y-95250493D01*
X128702449Y-95250496D01*
X128596006Y-95397002D01*
X128513790Y-95558359D01*
X128513787Y-95558365D01*
X128457830Y-95730587D01*
X128457829Y-95730591D01*
X128429500Y-95909454D01*
X128429500Y-96090546D01*
X128457829Y-96269409D01*
X128513789Y-96441639D01*
X128596004Y-96602994D01*
X128702447Y-96749501D01*
X128702449Y-96749503D01*
X128702451Y-96749506D01*
X128830493Y-96877548D01*
X128830496Y-96877550D01*
X128830499Y-96877553D01*
X128977006Y-96983996D01*
X129138361Y-97066211D01*
X129310591Y-97122171D01*
X129489454Y-97150500D01*
X129489457Y-97150500D01*
X129670543Y-97150500D01*
X129670546Y-97150500D01*
X129849409Y-97122171D01*
X130021639Y-97066211D01*
X130182994Y-96983996D01*
X130329501Y-96877553D01*
X130457553Y-96749501D01*
X130563996Y-96602994D01*
X130646211Y-96441639D01*
X130702171Y-96269409D01*
X130730500Y-96090546D01*
X130730500Y-95909454D01*
X130702171Y-95730591D01*
X130646211Y-95558361D01*
X130563996Y-95397006D01*
X130457553Y-95250499D01*
X130457550Y-95250496D01*
X130457548Y-95250493D01*
X130329506Y-95122451D01*
X130329503Y-95122449D01*
X130329501Y-95122447D01*
X130182994Y-95016004D01*
X130021639Y-94933789D01*
X130021636Y-94933788D01*
X130021634Y-94933787D01*
X129849412Y-94877830D01*
X129849409Y-94877829D01*
X129701787Y-94854448D01*
X129637636Y-94824037D01*
X129600109Y-94763768D01*
X129601123Y-94692779D01*
X129640356Y-94633607D01*
X129701786Y-94605551D01*
X129849409Y-94582171D01*
X130021639Y-94526211D01*
X130031978Y-94520943D01*
X135699499Y-94520943D01*
X135699499Y-94679057D01*
X135721074Y-94759575D01*
X135740423Y-94831785D01*
X135740425Y-94831790D01*
X135752332Y-94852412D01*
X135752334Y-94852415D01*
X135819477Y-94968712D01*
X135819485Y-94968722D01*
X135938459Y-95087696D01*
X135938473Y-95087708D01*
X137615069Y-96764304D01*
X137615090Y-96764327D01*
X137731277Y-96880514D01*
X137731282Y-96880518D01*
X137731284Y-96880520D01*
X137731285Y-96880521D01*
X137731287Y-96880522D01*
X137756130Y-96894865D01*
X137868216Y-96959577D01*
X137980019Y-96989534D01*
X138020942Y-97000500D01*
X138020943Y-97000500D01*
X152379055Y-97000500D01*
X152379057Y-97000500D01*
X152531784Y-96959577D01*
X152531787Y-96959575D01*
X152531788Y-96959575D01*
X152643861Y-96894870D01*
X152668716Y-96880520D01*
X152780520Y-96768716D01*
X152859577Y-96631784D01*
X152900500Y-96479057D01*
X152900500Y-96320943D01*
X152859577Y-96168216D01*
X152859575Y-96168213D01*
X152859575Y-96168211D01*
X152780522Y-96031287D01*
X152780514Y-96031277D01*
X152668722Y-95919485D01*
X152668712Y-95919477D01*
X152531788Y-95840424D01*
X152513743Y-95835589D01*
X152379057Y-95799500D01*
X152379055Y-95799500D01*
X138400925Y-95799500D01*
X138332804Y-95779498D01*
X138311830Y-95762595D01*
X136787708Y-94238473D01*
X136780521Y-94231286D01*
X136780520Y-94231284D01*
X136751014Y-94201778D01*
X136751012Y-94201775D01*
X136670180Y-94120943D01*
X140999500Y-94120943D01*
X140999500Y-94279057D01*
X141015173Y-94337548D01*
X141040424Y-94431788D01*
X141119477Y-94568712D01*
X141119485Y-94568722D01*
X141231277Y-94680514D01*
X141231282Y-94680518D01*
X141231284Y-94680520D01*
X141231285Y-94680521D01*
X141231287Y-94680522D01*
X141368211Y-94759575D01*
X141368213Y-94759575D01*
X141368216Y-94759577D01*
X141520943Y-94800500D01*
X141520945Y-94800500D01*
X141679055Y-94800500D01*
X141679057Y-94800500D01*
X141831784Y-94759577D01*
X141831787Y-94759575D01*
X141831788Y-94759575D01*
X141889658Y-94726163D01*
X141968716Y-94680520D01*
X141968717Y-94680519D01*
X141973906Y-94676538D01*
X142040126Y-94650937D01*
X142050610Y-94650500D01*
X142649390Y-94650500D01*
X142717511Y-94670502D01*
X142726094Y-94676538D01*
X142731282Y-94680519D01*
X142868211Y-94759575D01*
X142868213Y-94759575D01*
X142868216Y-94759577D01*
X143020943Y-94800500D01*
X143020945Y-94800500D01*
X143179055Y-94800500D01*
X143179057Y-94800500D01*
X143331784Y-94759577D01*
X143331787Y-94759575D01*
X143331788Y-94759575D01*
X143389658Y-94726163D01*
X143468716Y-94680520D01*
X143468717Y-94680519D01*
X143473906Y-94676538D01*
X143540126Y-94650937D01*
X143550610Y-94650500D01*
X144149390Y-94650500D01*
X144217511Y-94670502D01*
X144226094Y-94676538D01*
X144231282Y-94680519D01*
X144368211Y-94759575D01*
X144368213Y-94759575D01*
X144368216Y-94759577D01*
X144520943Y-94800500D01*
X144520945Y-94800500D01*
X144679055Y-94800500D01*
X144679057Y-94800500D01*
X144831784Y-94759577D01*
X144831787Y-94759575D01*
X144831788Y-94759575D01*
X144900250Y-94720048D01*
X144968716Y-94680520D01*
X145080520Y-94568716D01*
X145120048Y-94500250D01*
X145159575Y-94431788D01*
X145159575Y-94431787D01*
X145159577Y-94431784D01*
X145200500Y-94279057D01*
X145200500Y-94120943D01*
X145159577Y-93968216D01*
X145159575Y-93968213D01*
X145159575Y-93968211D01*
X145080522Y-93831287D01*
X145080514Y-93831277D01*
X144968722Y-93719485D01*
X144968712Y-93719477D01*
X144831788Y-93640424D01*
X144813743Y-93635589D01*
X144679057Y-93599500D01*
X144520943Y-93599500D01*
X144427470Y-93624545D01*
X144368211Y-93640424D01*
X144231282Y-93719480D01*
X144226094Y-93723462D01*
X144159874Y-93749063D01*
X144149390Y-93749500D01*
X143550610Y-93749500D01*
X143482489Y-93729498D01*
X143473906Y-93723462D01*
X143468717Y-93719480D01*
X143331788Y-93640424D01*
X143313743Y-93635589D01*
X143179057Y-93599500D01*
X143020943Y-93599500D01*
X142927470Y-93624545D01*
X142868211Y-93640424D01*
X142731282Y-93719480D01*
X142726094Y-93723462D01*
X142659874Y-93749063D01*
X142649390Y-93749500D01*
X142050610Y-93749500D01*
X141982489Y-93729498D01*
X141973906Y-93723462D01*
X141968717Y-93719480D01*
X141831788Y-93640424D01*
X141813743Y-93635589D01*
X141679057Y-93599500D01*
X141520943Y-93599500D01*
X141427470Y-93624545D01*
X141368211Y-93640424D01*
X141231287Y-93719477D01*
X141231277Y-93719485D01*
X141119485Y-93831277D01*
X141119477Y-93831287D01*
X141040424Y-93968211D01*
X141040423Y-93968216D01*
X140999500Y-94120943D01*
X136670180Y-94120943D01*
X136668723Y-94119486D01*
X136668719Y-94119483D01*
X136668716Y-94119480D01*
X136613679Y-94087705D01*
X136581903Y-94069359D01*
X136581903Y-94069358D01*
X136581901Y-94069358D01*
X136567010Y-94060761D01*
X136531788Y-94040424D01*
X136531785Y-94040423D01*
X136379057Y-93999499D01*
X136220943Y-93999499D01*
X136129306Y-94024053D01*
X136068213Y-94040423D01*
X136018095Y-94069360D01*
X135931287Y-94119477D01*
X135931277Y-94119485D01*
X135819485Y-94231277D01*
X135819477Y-94231287D01*
X135769360Y-94318095D01*
X135740423Y-94368213D01*
X135729026Y-94410748D01*
X135699499Y-94520943D01*
X130031978Y-94520943D01*
X130182994Y-94443996D01*
X130329501Y-94337553D01*
X130457553Y-94209501D01*
X130563996Y-94062994D01*
X130646211Y-93901639D01*
X130702171Y-93729409D01*
X130730500Y-93550546D01*
X130730500Y-93369454D01*
X130702171Y-93190591D01*
X130646211Y-93018361D01*
X130563996Y-92857006D01*
X130457553Y-92710499D01*
X130457550Y-92710496D01*
X130457548Y-92710493D01*
X130329506Y-92582451D01*
X130329503Y-92582449D01*
X130329501Y-92582447D01*
X130182994Y-92476004D01*
X130021639Y-92393789D01*
X130021636Y-92393788D01*
X130021634Y-92393787D01*
X129849412Y-92337830D01*
X129849409Y-92337829D01*
X129670546Y-92309500D01*
X129489454Y-92309500D01*
X129310591Y-92337829D01*
X129310588Y-92337829D01*
X129310587Y-92337830D01*
X129138365Y-92393787D01*
X129138359Y-92393790D01*
X128977002Y-92476006D01*
X128830496Y-92582449D01*
X128830493Y-92582451D01*
X128702451Y-92710493D01*
X128702449Y-92710496D01*
X128596006Y-92857002D01*
X128513790Y-93018359D01*
X128513787Y-93018365D01*
X128457830Y-93190587D01*
X128457829Y-93190591D01*
X128429500Y-93369454D01*
X110000500Y-93369454D01*
X110000500Y-87486438D01*
X110020502Y-87418317D01*
X110074158Y-87371824D01*
X110144432Y-87361720D01*
X110209012Y-87391214D01*
X110215595Y-87397343D01*
X110684788Y-87866536D01*
X110718814Y-87928848D01*
X110715526Y-87994566D01*
X110677829Y-88110591D01*
X110649500Y-88289454D01*
X110649500Y-88470546D01*
X110677829Y-88649409D01*
X110677830Y-88649412D01*
X110705926Y-88735886D01*
X110733789Y-88821639D01*
X110816004Y-88982994D01*
X110922447Y-89129501D01*
X110922449Y-89129503D01*
X110922451Y-89129506D01*
X111050493Y-89257548D01*
X111050496Y-89257550D01*
X111050499Y-89257553D01*
X111197006Y-89363996D01*
X111358361Y-89446211D01*
X111530591Y-89502171D01*
X111678211Y-89525551D01*
X111742363Y-89555964D01*
X111779890Y-89616232D01*
X111778876Y-89687221D01*
X111739643Y-89746393D01*
X111678211Y-89774448D01*
X111530591Y-89797829D01*
X111530588Y-89797829D01*
X111530587Y-89797830D01*
X111358365Y-89853787D01*
X111358359Y-89853790D01*
X111197002Y-89936006D01*
X111050496Y-90042449D01*
X111050493Y-90042451D01*
X110922451Y-90170493D01*
X110922449Y-90170496D01*
X110816006Y-90317002D01*
X110733790Y-90478359D01*
X110733787Y-90478365D01*
X110677830Y-90650587D01*
X110677829Y-90650591D01*
X110649500Y-90829454D01*
X110649500Y-91010546D01*
X110677829Y-91189409D01*
X110733789Y-91361639D01*
X110816004Y-91522994D01*
X110922447Y-91669501D01*
X110922449Y-91669503D01*
X110922451Y-91669506D01*
X111050493Y-91797548D01*
X111050496Y-91797550D01*
X111050499Y-91797553D01*
X111197006Y-91903996D01*
X111358361Y-91986211D01*
X111530591Y-92042171D01*
X111709454Y-92070500D01*
X111709457Y-92070500D01*
X111890543Y-92070500D01*
X111890546Y-92070500D01*
X112069409Y-92042171D01*
X112241639Y-91986211D01*
X112402994Y-91903996D01*
X112549501Y-91797553D01*
X112677553Y-91669501D01*
X112783996Y-91522994D01*
X112866211Y-91361639D01*
X112922171Y-91189409D01*
X112950500Y-91010546D01*
X112950500Y-90829454D01*
X133509500Y-90829454D01*
X133509500Y-91010546D01*
X133537829Y-91189409D01*
X133593789Y-91361639D01*
X133676004Y-91522994D01*
X133782447Y-91669501D01*
X133782449Y-91669503D01*
X133782451Y-91669506D01*
X133910493Y-91797548D01*
X133910496Y-91797550D01*
X133910499Y-91797553D01*
X134057006Y-91903996D01*
X134218361Y-91986211D01*
X134390591Y-92042171D01*
X134569454Y-92070500D01*
X134569457Y-92070500D01*
X134750543Y-92070500D01*
X134750546Y-92070500D01*
X134929409Y-92042171D01*
X135101639Y-91986211D01*
X135262994Y-91903996D01*
X135409501Y-91797553D01*
X135537553Y-91669501D01*
X135643996Y-91522994D01*
X135726211Y-91361639D01*
X135782171Y-91189409D01*
X135810500Y-91010546D01*
X135810500Y-90829454D01*
X135782171Y-90650591D01*
X135726211Y-90478361D01*
X135643996Y-90317006D01*
X135537553Y-90170499D01*
X135537550Y-90170496D01*
X135537548Y-90170493D01*
X135409506Y-90042451D01*
X135409503Y-90042449D01*
X135409501Y-90042447D01*
X135262994Y-89936004D01*
X135101639Y-89853789D01*
X135101636Y-89853788D01*
X135101634Y-89853787D01*
X134929412Y-89797830D01*
X134929409Y-89797829D01*
X134750546Y-89769500D01*
X134569454Y-89769500D01*
X134390591Y-89797829D01*
X134390588Y-89797829D01*
X134390587Y-89797830D01*
X134218365Y-89853787D01*
X134218359Y-89853790D01*
X134057002Y-89936006D01*
X133910496Y-90042449D01*
X133910493Y-90042451D01*
X133782451Y-90170493D01*
X133782449Y-90170496D01*
X133676006Y-90317002D01*
X133593790Y-90478359D01*
X133593787Y-90478365D01*
X133537830Y-90650587D01*
X133537829Y-90650591D01*
X133509500Y-90829454D01*
X112950500Y-90829454D01*
X112928913Y-90693159D01*
X112928897Y-90693054D01*
X112933575Y-90658252D01*
X112938095Y-90623278D01*
X112938321Y-90622946D01*
X112938356Y-90622690D01*
X112939075Y-90621844D01*
X112964345Y-90584888D01*
X115259782Y-88289454D01*
X128429500Y-88289454D01*
X128429500Y-88470546D01*
X128457829Y-88649409D01*
X128457830Y-88649412D01*
X128485926Y-88735886D01*
X128513789Y-88821639D01*
X128596004Y-88982994D01*
X128702447Y-89129501D01*
X128702449Y-89129503D01*
X128702451Y-89129506D01*
X128830493Y-89257548D01*
X128830496Y-89257550D01*
X128830499Y-89257553D01*
X128977006Y-89363996D01*
X129138361Y-89446211D01*
X129310591Y-89502171D01*
X129489454Y-89530500D01*
X129489457Y-89530500D01*
X129670543Y-89530500D01*
X129670546Y-89530500D01*
X129849409Y-89502171D01*
X130021639Y-89446211D01*
X130182994Y-89363996D01*
X130329501Y-89257553D01*
X130457553Y-89129501D01*
X130563996Y-88982994D01*
X130646211Y-88821639D01*
X130702171Y-88649409D01*
X130730500Y-88470546D01*
X130730500Y-88289454D01*
X153829500Y-88289454D01*
X153829500Y-88470546D01*
X153857829Y-88649409D01*
X153857830Y-88649412D01*
X153885926Y-88735886D01*
X153913789Y-88821639D01*
X153996004Y-88982994D01*
X154102447Y-89129501D01*
X154102449Y-89129503D01*
X154102451Y-89129506D01*
X154230493Y-89257548D01*
X154230496Y-89257550D01*
X154230499Y-89257553D01*
X154377006Y-89363996D01*
X154538361Y-89446211D01*
X154710591Y-89502171D01*
X154889454Y-89530500D01*
X154889457Y-89530500D01*
X155070543Y-89530500D01*
X155070546Y-89530500D01*
X155249409Y-89502171D01*
X155421639Y-89446211D01*
X155582994Y-89363996D01*
X155729501Y-89257553D01*
X155857553Y-89129501D01*
X155963996Y-88982994D01*
X156046211Y-88821639D01*
X156102171Y-88649409D01*
X156130500Y-88470546D01*
X156130500Y-88289454D01*
X156102171Y-88110591D01*
X156046211Y-87938361D01*
X155963996Y-87777006D01*
X155857553Y-87630499D01*
X155857550Y-87630496D01*
X155857548Y-87630493D01*
X155729506Y-87502451D01*
X155729503Y-87502449D01*
X155729501Y-87502447D01*
X155582994Y-87396004D01*
X155421639Y-87313789D01*
X155421636Y-87313788D01*
X155421634Y-87313787D01*
X155249412Y-87257830D01*
X155249409Y-87257829D01*
X155070546Y-87229500D01*
X154889454Y-87229500D01*
X154710591Y-87257829D01*
X154710588Y-87257829D01*
X154710587Y-87257830D01*
X154538365Y-87313787D01*
X154538359Y-87313790D01*
X154377002Y-87396006D01*
X154230496Y-87502449D01*
X154230493Y-87502451D01*
X154102451Y-87630493D01*
X154102449Y-87630496D01*
X153996006Y-87777002D01*
X153913790Y-87938359D01*
X153913787Y-87938365D01*
X153857830Y-88110587D01*
X153857829Y-88110591D01*
X153829500Y-88289454D01*
X130730500Y-88289454D01*
X130702171Y-88110591D01*
X130646211Y-87938361D01*
X130563996Y-87777006D01*
X130457553Y-87630499D01*
X130457550Y-87630496D01*
X130457548Y-87630493D01*
X130329506Y-87502451D01*
X130329503Y-87502449D01*
X130329501Y-87502447D01*
X130182994Y-87396004D01*
X130021639Y-87313789D01*
X130021636Y-87313788D01*
X130021634Y-87313787D01*
X129849412Y-87257830D01*
X129849409Y-87257829D01*
X129670546Y-87229500D01*
X129489454Y-87229500D01*
X129310591Y-87257829D01*
X129310588Y-87257829D01*
X129310587Y-87257830D01*
X129138365Y-87313787D01*
X129138359Y-87313790D01*
X128977002Y-87396006D01*
X128830496Y-87502449D01*
X128830493Y-87502451D01*
X128702451Y-87630493D01*
X128702449Y-87630496D01*
X128596006Y-87777002D01*
X128513790Y-87938359D01*
X128513787Y-87938365D01*
X128457830Y-88110587D01*
X128457829Y-88110591D01*
X128429500Y-88289454D01*
X115259782Y-88289454D01*
X115280520Y-88268716D01*
X115359577Y-88131784D01*
X115400501Y-87979057D01*
X115400501Y-87820942D01*
X115388727Y-87777002D01*
X115359578Y-87668217D01*
X115280522Y-87531287D01*
X115280514Y-87531277D01*
X115168722Y-87419485D01*
X115168712Y-87419477D01*
X115031782Y-87340421D01*
X114879061Y-87299499D01*
X114879058Y-87299499D01*
X114720943Y-87299499D01*
X114720939Y-87299499D01*
X114568216Y-87340422D01*
X114568213Y-87340423D01*
X114431287Y-87419477D01*
X114431277Y-87419485D01*
X113143837Y-88706925D01*
X113081525Y-88740951D01*
X113010709Y-88735886D01*
X112953874Y-88693339D01*
X112929063Y-88626819D01*
X112930292Y-88598132D01*
X112950500Y-88470546D01*
X112950500Y-88289454D01*
X112922171Y-88110591D01*
X112866211Y-87938361D01*
X112783996Y-87777006D01*
X112677553Y-87630499D01*
X112677550Y-87630496D01*
X112677548Y-87630493D01*
X112549506Y-87502451D01*
X112549503Y-87502449D01*
X112549501Y-87502447D01*
X112402994Y-87396004D01*
X112241639Y-87313789D01*
X112241636Y-87313788D01*
X112241634Y-87313787D01*
X112069412Y-87257830D01*
X112069409Y-87257829D01*
X111921787Y-87234448D01*
X111857636Y-87204037D01*
X111820109Y-87143768D01*
X111821123Y-87072779D01*
X111860356Y-87013607D01*
X111921786Y-86985551D01*
X112069409Y-86962171D01*
X112241639Y-86906211D01*
X112402994Y-86823996D01*
X112549501Y-86717553D01*
X112677553Y-86589501D01*
X112783996Y-86442994D01*
X112866211Y-86281639D01*
X112922171Y-86109409D01*
X112950500Y-85930546D01*
X112950500Y-85749454D01*
X112922171Y-85570591D01*
X112866211Y-85398361D01*
X112783996Y-85237006D01*
X112677553Y-85090499D01*
X112677550Y-85090496D01*
X112677548Y-85090493D01*
X112549506Y-84962451D01*
X112549503Y-84962449D01*
X112549501Y-84962447D01*
X112402994Y-84856004D01*
X112241639Y-84773789D01*
X112241636Y-84773788D01*
X112241634Y-84773787D01*
X112069412Y-84717830D01*
X112069409Y-84717829D01*
X111890546Y-84689500D01*
X111709454Y-84689500D01*
X111698370Y-84691255D01*
X111671209Y-84695557D01*
X111600798Y-84686457D01*
X111546485Y-84640734D01*
X111525513Y-84572906D01*
X111525500Y-84571108D01*
X111525500Y-80330427D01*
X115852500Y-80330427D01*
X115852500Y-80449573D01*
X115860673Y-80480074D01*
X115883336Y-80564656D01*
X115883339Y-80564663D01*
X115942907Y-80667838D01*
X115942915Y-80667848D01*
X116027151Y-80752084D01*
X116027156Y-80752088D01*
X116027158Y-80752090D01*
X116130341Y-80811663D01*
X116245427Y-80842500D01*
X116245429Y-80842500D01*
X116364571Y-80842500D01*
X116364573Y-80842500D01*
X116479659Y-80811663D01*
X116582842Y-80752090D01*
X116667090Y-80667842D01*
X116726663Y-80564659D01*
X116738377Y-80520943D01*
X129399500Y-80520943D01*
X129399500Y-84379057D01*
X129426501Y-84479825D01*
X129440424Y-84531788D01*
X129519477Y-84668712D01*
X129519485Y-84668722D01*
X129631277Y-84780514D01*
X129631282Y-84780518D01*
X129631284Y-84780520D01*
X129631285Y-84780521D01*
X129631287Y-84780522D01*
X129768211Y-84859575D01*
X129768213Y-84859575D01*
X129768216Y-84859577D01*
X129920943Y-84900500D01*
X129920945Y-84900500D01*
X130079055Y-84900500D01*
X130079057Y-84900500D01*
X130231784Y-84859577D01*
X130231787Y-84859575D01*
X130231788Y-84859575D01*
X130300250Y-84820048D01*
X130368716Y-84780520D01*
X130480520Y-84668716D01*
X130520048Y-84600250D01*
X130549060Y-84550000D01*
X134950000Y-84550000D01*
X155500000Y-84550000D01*
X155500000Y-84000000D01*
X134950000Y-84000000D01*
X134950000Y-84550000D01*
X130549060Y-84550000D01*
X130559575Y-84531788D01*
X130559575Y-84531787D01*
X130559577Y-84531784D01*
X130600500Y-84379057D01*
X130600500Y-81326500D01*
X130620502Y-81258379D01*
X130674158Y-81211886D01*
X130726500Y-81200500D01*
X132799075Y-81200500D01*
X132867196Y-81220502D01*
X132888170Y-81237405D01*
X133415069Y-81764304D01*
X133415090Y-81764327D01*
X133531279Y-81880516D01*
X133531282Y-81880518D01*
X133531284Y-81880520D01*
X133618088Y-81930635D01*
X133618095Y-81930639D01*
X133618098Y-81930641D01*
X133668211Y-81959575D01*
X133668212Y-81959575D01*
X133668215Y-81959577D01*
X133820943Y-82000501D01*
X133820946Y-82000501D01*
X133979054Y-82000501D01*
X133979057Y-82000501D01*
X134131785Y-81959577D01*
X134168305Y-81938491D01*
X134181881Y-81930653D01*
X134181891Y-81930645D01*
X134181904Y-81930639D01*
X134268716Y-81880520D01*
X134380520Y-81768716D01*
X134399073Y-81736579D01*
X134433695Y-81676614D01*
X134433695Y-81676613D01*
X134459577Y-81631785D01*
X134500501Y-81479057D01*
X134500501Y-81320943D01*
X134459577Y-81168215D01*
X134408946Y-81080520D01*
X134380520Y-81031284D01*
X134268716Y-80919480D01*
X134268713Y-80919478D01*
X133587708Y-80238473D01*
X133587696Y-80238459D01*
X133468723Y-80119486D01*
X133468719Y-80119483D01*
X133468716Y-80119480D01*
X133413679Y-80087705D01*
X133381903Y-80069359D01*
X133381903Y-80069358D01*
X133381901Y-80069358D01*
X133367010Y-80060761D01*
X133331788Y-80040424D01*
X133331785Y-80040423D01*
X133179057Y-79999499D01*
X133020943Y-79999499D01*
X133013225Y-79999499D01*
X133013209Y-79999500D01*
X130079057Y-79999500D01*
X129920943Y-79999500D01*
X129827470Y-80024545D01*
X129768211Y-80040424D01*
X129631287Y-80119477D01*
X129631277Y-80119485D01*
X129519485Y-80231277D01*
X129519477Y-80231287D01*
X129440424Y-80368211D01*
X129440423Y-80368216D01*
X129399500Y-80520943D01*
X116738377Y-80520943D01*
X116757500Y-80449573D01*
X116757500Y-80330427D01*
X116726663Y-80215341D01*
X116671321Y-80119486D01*
X116667092Y-80112161D01*
X116667084Y-80112151D01*
X116582848Y-80027915D01*
X116582838Y-80027907D01*
X116479663Y-79968339D01*
X116479660Y-79968338D01*
X116479659Y-79968337D01*
X116479657Y-79968336D01*
X116479656Y-79968336D01*
X116448818Y-79960073D01*
X116364573Y-79937500D01*
X116245427Y-79937500D01*
X116183755Y-79954024D01*
X116130343Y-79968336D01*
X116130336Y-79968339D01*
X116027161Y-80027907D01*
X116027151Y-80027915D01*
X115942915Y-80112151D01*
X115942907Y-80112161D01*
X115883339Y-80215336D01*
X115883336Y-80215343D01*
X115877139Y-80238473D01*
X115852500Y-80330427D01*
X111525500Y-80330427D01*
X111525500Y-77858443D01*
X122537000Y-77858443D01*
X122537000Y-78016557D01*
X122573089Y-78151243D01*
X122577924Y-78169288D01*
X122656977Y-78306212D01*
X122656985Y-78306222D01*
X122768777Y-78418014D01*
X122768782Y-78418018D01*
X122768784Y-78418020D01*
X122768785Y-78418021D01*
X122768787Y-78418022D01*
X122905711Y-78497075D01*
X122905713Y-78497075D01*
X122905716Y-78497077D01*
X123058443Y-78538000D01*
X123058445Y-78538000D01*
X123216555Y-78538000D01*
X123216557Y-78538000D01*
X123369284Y-78497077D01*
X123369287Y-78497075D01*
X123369288Y-78497075D01*
X123427158Y-78463663D01*
X123506216Y-78418020D01*
X123506217Y-78418019D01*
X123511406Y-78414038D01*
X123577626Y-78388437D01*
X123588110Y-78388000D01*
X126071809Y-78388000D01*
X126162173Y-78363786D01*
X126186387Y-78357299D01*
X126289114Y-78297989D01*
X128385490Y-76201614D01*
X128444799Y-76098887D01*
X128451286Y-76074673D01*
X128475500Y-75984309D01*
X128475500Y-75867885D01*
X128476443Y-75860222D01*
X128487588Y-75834439D01*
X128495502Y-75807489D01*
X128501538Y-75798906D01*
X128505519Y-75793717D01*
X128514781Y-75777676D01*
X128584577Y-75656784D01*
X128625500Y-75504057D01*
X128625500Y-75345943D01*
X128584577Y-75193216D01*
X128584575Y-75193213D01*
X128584575Y-75193211D01*
X128505522Y-75056287D01*
X128505514Y-75056277D01*
X128393722Y-74944485D01*
X128393712Y-74944477D01*
X128256788Y-74865424D01*
X128215989Y-74854492D01*
X128104057Y-74824500D01*
X127945943Y-74824500D01*
X127852470Y-74849545D01*
X127793211Y-74865424D01*
X127656287Y-74944477D01*
X127656277Y-74944485D01*
X127544485Y-75056277D01*
X127544477Y-75056287D01*
X127465424Y-75193211D01*
X127465423Y-75193216D01*
X127424500Y-75345943D01*
X127424500Y-75504057D01*
X127451782Y-75605875D01*
X127465423Y-75656785D01*
X127486878Y-75693946D01*
X127503615Y-75762942D01*
X127480394Y-75830033D01*
X127466854Y-75846040D01*
X125862802Y-77450095D01*
X125800489Y-77484120D01*
X125773706Y-77487000D01*
X123588110Y-77487000D01*
X123519989Y-77466998D01*
X123511406Y-77460962D01*
X123506217Y-77456980D01*
X123369288Y-77377924D01*
X123351243Y-77373089D01*
X123216557Y-77337000D01*
X123058443Y-77337000D01*
X122964970Y-77362045D01*
X122905711Y-77377924D01*
X122768787Y-77456977D01*
X122768777Y-77456985D01*
X122656985Y-77568777D01*
X122656977Y-77568787D01*
X122577924Y-77705711D01*
X122577923Y-77705716D01*
X122537000Y-77858443D01*
X111525500Y-77858443D01*
X111525500Y-77228438D01*
X111545502Y-77160317D01*
X111562405Y-77139343D01*
X112239343Y-76462405D01*
X112301655Y-76428379D01*
X112328438Y-76425500D01*
X117156016Y-76425500D01*
X117156018Y-76425500D01*
X117264237Y-76396503D01*
X117361263Y-76340485D01*
X119839342Y-73862404D01*
X119901654Y-73828380D01*
X119928437Y-73825500D01*
X122418516Y-73825500D01*
X122418518Y-73825500D01*
X122526737Y-73796503D01*
X122623763Y-73740485D01*
X123201844Y-73162403D01*
X123264155Y-73128380D01*
X123290938Y-73125500D01*
X126086573Y-73125500D01*
X126154694Y-73145502D01*
X126175668Y-73162405D01*
X126193777Y-73180514D01*
X126193782Y-73180518D01*
X126193784Y-73180520D01*
X126193785Y-73180521D01*
X126193787Y-73180522D01*
X126330711Y-73259575D01*
X126330713Y-73259575D01*
X126330716Y-73259577D01*
X126483443Y-73300500D01*
X126483445Y-73300500D01*
X126641555Y-73300500D01*
X126641557Y-73300500D01*
X126794284Y-73259577D01*
X126794287Y-73259575D01*
X126794288Y-73259575D01*
X126862750Y-73220048D01*
X126931216Y-73180520D01*
X127043020Y-73068716D01*
X127122077Y-72931784D01*
X127163000Y-72779057D01*
X127163000Y-72620943D01*
X127122077Y-72468216D01*
X127122075Y-72468213D01*
X127122075Y-72468211D01*
X127043022Y-72331287D01*
X127043014Y-72331277D01*
X126927332Y-72215595D01*
X126893306Y-72153283D01*
X126898371Y-72082468D01*
X126940918Y-72025632D01*
X127007438Y-72000821D01*
X127016427Y-72000500D01*
X169873500Y-72000500D01*
X169941621Y-72020502D01*
G37*
%TD.AperFunction*%
%TA.AperFunction,Conductor*%
G36*
X120714194Y-72020502D02*
G01*
X120760687Y-72074158D01*
X120770791Y-72144432D01*
X120741297Y-72209012D01*
X120735168Y-72215595D01*
X120713168Y-72237595D01*
X120650856Y-72271621D01*
X120624073Y-72274500D01*
X119556019Y-72274500D01*
X119443982Y-72274500D01*
X119385990Y-72290038D01*
X119335765Y-72303496D01*
X119335758Y-72303499D01*
X119238740Y-72359512D01*
X119238730Y-72359520D01*
X116971942Y-74626309D01*
X116909630Y-74660335D01*
X116838815Y-74655270D01*
X116781979Y-74612723D01*
X116759836Y-74558350D01*
X116759637Y-74558404D01*
X116759211Y-74556814D01*
X116757924Y-74553654D01*
X116757500Y-74550432D01*
X116757500Y-74550427D01*
X116726663Y-74435341D01*
X116667090Y-74332158D01*
X116667088Y-74332156D01*
X116667084Y-74332151D01*
X116582848Y-74247915D01*
X116582838Y-74247907D01*
X116479663Y-74188339D01*
X116479660Y-74188338D01*
X116479659Y-74188337D01*
X116479657Y-74188336D01*
X116479656Y-74188336D01*
X116448818Y-74180073D01*
X116364573Y-74157500D01*
X116245427Y-74157500D01*
X116183755Y-74174024D01*
X116130343Y-74188336D01*
X116130336Y-74188339D01*
X116027161Y-74247907D01*
X116027151Y-74247915D01*
X115942915Y-74332151D01*
X115942907Y-74332161D01*
X115883339Y-74435336D01*
X115883337Y-74435341D01*
X115852500Y-74550427D01*
X115852500Y-74669573D01*
X115883337Y-74784659D01*
X115883822Y-74785499D01*
X115884015Y-74786293D01*
X115886498Y-74792288D01*
X115885563Y-74792675D01*
X115900561Y-74854492D01*
X115877342Y-74921585D01*
X115821536Y-74965473D01*
X115774704Y-74974500D01*
X111756018Y-74974500D01*
X111643981Y-74974500D01*
X111585989Y-74990038D01*
X111535765Y-75003496D01*
X111535758Y-75003499D01*
X111438740Y-75059512D01*
X111438735Y-75059516D01*
X111399125Y-75099126D01*
X111359515Y-75138737D01*
X111359513Y-75138739D01*
X110423578Y-76074673D01*
X110221014Y-76277237D01*
X110215595Y-76282656D01*
X110153283Y-76316682D01*
X110082468Y-76311617D01*
X110025632Y-76269070D01*
X110000821Y-76202550D01*
X110000500Y-76193561D01*
X110000500Y-72126500D01*
X110020502Y-72058379D01*
X110074158Y-72011886D01*
X110126500Y-72000500D01*
X120646073Y-72000500D01*
X120714194Y-72020502D01*
G37*
%TD.AperFunction*%
%TD*%
M02*
