%TF.GenerationSoftware,KiCad,Pcbnew,9.0.0*%
%TF.CreationDate,2026-02-18T23:31:25+01:00*%
%TF.ProjectId,DetectorReader,44657465-6374-46f7-9252-65616465722e,rev?*%
%TF.SameCoordinates,Original*%
%TF.FileFunction,Legend,Top*%
%TF.FilePolarity,Positive*%
%FSLAX46Y46*%
G04 Gerber Fmt 4.6, Leading zero omitted, Abs format (unit mm)*
G04 Created by KiCad (PCBNEW 9.0.0) date 2026-02-18 23:31:25*
%MOMM*%
%LPD*%
G01*
G04 APERTURE LIST*
G04 Aperture macros list*
%AMRoundRect*
0 Rectangle with rounded corners*
0 $1 Rounding radius*
0 $2 $3 $4 $5 $6 $7 $8 $9 X,Y pos of 4 corners*
0 Add a 4 corners polygon primitive as box body*
4,1,4,$2,$3,$4,$5,$6,$7,$8,$9,$2,$3,0*
0 Add four circle primitives for the rounded corners*
1,1,$1+$1,$2,$3*
1,1,$1+$1,$4,$5*
1,1,$1+$1,$6,$7*
1,1,$1+$1,$8,$9*
0 Add four rect primitives between the rounded corners*
20,1,$1+$1,$2,$3,$4,$5,0*
20,1,$1+$1,$4,$5,$6,$7,0*
20,1,$1+$1,$6,$7,$8,$9,0*
20,1,$1+$1,$8,$9,$2,$3,0*%
%AMFreePoly0*
4,1,13,1.650000,1.015000,3.020000,1.015000,3.020000,-1.015000,1.650000,-1.015000,1.650000,-2.385000,-1.650000,-2.385000,-1.650000,-1.015000,-3.020000,-1.015000,-3.020000,1.015000,-1.650000,1.015000,-1.650000,2.385000,1.650000,2.385000,1.650000,1.015000,1.650000,1.015000,$1*%
G04 Aperture macros list end*
%ADD10C,0.150000*%
%ADD11C,0.200000*%
%ADD12C,0.100000*%
%ADD13C,0.120000*%
%ADD14RoundRect,0.062500X-0.062500X0.350000X-0.062500X-0.350000X0.062500X-0.350000X0.062500X0.350000X0*%
%ADD15RoundRect,0.062500X-0.350000X0.062500X-0.350000X-0.062500X0.350000X-0.062500X0.350000X0.062500X0*%
%ADD16R,2.600000X2.600000*%
%ADD17RoundRect,0.225000X-0.250000X0.225000X-0.250000X-0.225000X0.250000X-0.225000X0.250000X0.225000X0*%
%ADD18RoundRect,0.225000X0.250000X-0.225000X0.250000X0.225000X-0.250000X0.225000X-0.250000X-0.225000X0*%
%ADD19RoundRect,0.218750X-0.256250X0.218750X-0.256250X-0.218750X0.256250X-0.218750X0.256250X0.218750X0*%
%ADD20RoundRect,0.200000X0.200000X0.275000X-0.200000X0.275000X-0.200000X-0.275000X0.200000X-0.275000X0*%
%ADD21C,1.700000*%
%ADD22RoundRect,0.150000X-0.150000X0.587500X-0.150000X-0.587500X0.150000X-0.587500X0.150000X0.587500X0*%
%ADD23RoundRect,0.150000X-0.512500X-0.150000X0.512500X-0.150000X0.512500X0.150000X-0.512500X0.150000X0*%
%ADD24R,0.800000X1.200000*%
%ADD25R,1.700000X1.700000*%
%ADD26O,1.700000X1.700000*%
%ADD27RoundRect,0.225000X0.225000X0.250000X-0.225000X0.250000X-0.225000X-0.250000X0.225000X-0.250000X0*%
%ADD28C,3.200000*%
%ADD29RoundRect,0.200000X-0.275000X0.200000X-0.275000X-0.200000X0.275000X-0.200000X0.275000X0.200000X0*%
%ADD30RoundRect,0.200000X-0.200000X-0.275000X0.200000X-0.275000X0.200000X0.275000X-0.200000X0.275000X0*%
%ADD31C,0.650000*%
%ADD32RoundRect,0.150000X-0.425000X0.150000X-0.425000X-0.150000X0.425000X-0.150000X0.425000X0.150000X0*%
%ADD33RoundRect,0.075000X-0.500000X0.075000X-0.500000X-0.075000X0.500000X-0.075000X0.500000X0.075000X0*%
%ADD34O,2.100000X1.000000*%
%ADD35O,1.800000X1.000000*%
%ADD36RoundRect,0.200000X0.275000X-0.200000X0.275000X0.200000X-0.275000X0.200000X-0.275000X-0.200000X0*%
%ADD37RoundRect,0.150000X-0.825000X-0.150000X0.825000X-0.150000X0.825000X0.150000X-0.825000X0.150000X0*%
%ADD38RoundRect,0.100000X0.712500X0.100000X-0.712500X0.100000X-0.712500X-0.100000X0.712500X-0.100000X0*%
%ADD39RoundRect,0.250000X1.350000X-0.385000X1.350000X0.385000X-1.350000X0.385000X-1.350000X-0.385000X0*%
%ADD40RoundRect,0.250000X1.600000X-0.425000X1.600000X0.425000X-1.600000X0.425000X-1.600000X-0.425000X0*%
%ADD41RoundRect,0.218750X-0.218750X-0.256250X0.218750X-0.256250X0.218750X0.256250X-0.218750X0.256250X0*%
%ADD42RoundRect,0.075000X0.650000X0.075000X-0.650000X0.075000X-0.650000X-0.075000X0.650000X-0.075000X0*%
%ADD43RoundRect,0.100000X0.225000X0.100000X-0.225000X0.100000X-0.225000X-0.100000X0.225000X-0.100000X0*%
%ADD44RoundRect,0.150000X0.150000X-0.587500X0.150000X0.587500X-0.150000X0.587500X-0.150000X-0.587500X0*%
%ADD45R,1.600000X1.600000*%
%ADD46FreePoly0,0.000000*%
%ADD47R,0.900000X0.800000*%
%ADD48RoundRect,0.225000X-0.225000X-0.250000X0.225000X-0.250000X0.225000X0.250000X-0.225000X0.250000X0*%
G04 APERTURE END LIST*
D10*
X113400000Y-89300000D02*
X113400000Y-90300000D01*
X113400000Y-89800000D02*
X114200000Y-89800000D01*
X114137704Y-86827619D02*
X114137704Y-87284762D01*
X113337704Y-87056190D02*
X114137704Y-87056190D01*
X113337704Y-87475238D02*
X113871038Y-87894286D01*
X113871038Y-87475238D02*
X113337704Y-87894286D01*
X114137704Y-93660953D02*
X113490085Y-93660953D01*
X113490085Y-93660953D02*
X113413895Y-93699048D01*
X113413895Y-93699048D02*
X113375800Y-93737143D01*
X113375800Y-93737143D02*
X113337704Y-93813334D01*
X113337704Y-93813334D02*
X113337704Y-93965715D01*
X113337704Y-93965715D02*
X113375800Y-94041905D01*
X113375800Y-94041905D02*
X113413895Y-94080000D01*
X113413895Y-94080000D02*
X113490085Y-94118096D01*
X113490085Y-94118096D02*
X114137704Y-94118096D01*
X113337704Y-94499048D02*
X114137704Y-94499048D01*
X114137704Y-94499048D02*
X114137704Y-94803810D01*
X114137704Y-94803810D02*
X114099609Y-94880000D01*
X114099609Y-94880000D02*
X114061514Y-94918095D01*
X114061514Y-94918095D02*
X113985323Y-94956191D01*
X113985323Y-94956191D02*
X113871038Y-94956191D01*
X113871038Y-94956191D02*
X113794847Y-94918095D01*
X113794847Y-94918095D02*
X113756752Y-94880000D01*
X113756752Y-94880000D02*
X113718657Y-94803810D01*
X113718657Y-94803810D02*
X113718657Y-94499048D01*
X113337704Y-95299048D02*
X114137704Y-95299048D01*
X114137704Y-95299048D02*
X114137704Y-95489524D01*
X114137704Y-95489524D02*
X114099609Y-95603810D01*
X114099609Y-95603810D02*
X114023419Y-95680000D01*
X114023419Y-95680000D02*
X113947228Y-95718095D01*
X113947228Y-95718095D02*
X113794847Y-95756191D01*
X113794847Y-95756191D02*
X113680561Y-95756191D01*
X113680561Y-95756191D02*
X113528180Y-95718095D01*
X113528180Y-95718095D02*
X113451990Y-95680000D01*
X113451990Y-95680000D02*
X113375800Y-95603810D01*
X113375800Y-95603810D02*
X113337704Y-95489524D01*
X113337704Y-95489524D02*
X113337704Y-95299048D01*
X113337704Y-96099048D02*
X114137704Y-96099048D01*
D11*
X142363720Y-74367219D02*
X142488720Y-73367219D01*
X142488720Y-73367219D02*
X142726816Y-73367219D01*
X142726816Y-73367219D02*
X142863720Y-73414838D01*
X142863720Y-73414838D02*
X142947054Y-73510076D01*
X142947054Y-73510076D02*
X142982768Y-73605314D01*
X142982768Y-73605314D02*
X143006578Y-73795790D01*
X143006578Y-73795790D02*
X142988720Y-73938647D01*
X142988720Y-73938647D02*
X142917292Y-74129123D01*
X142917292Y-74129123D02*
X142857768Y-74224361D01*
X142857768Y-74224361D02*
X142750625Y-74319600D01*
X142750625Y-74319600D02*
X142601816Y-74367219D01*
X142601816Y-74367219D02*
X142363720Y-74367219D01*
X143750625Y-74319600D02*
X143649435Y-74367219D01*
X143649435Y-74367219D02*
X143458958Y-74367219D01*
X143458958Y-74367219D02*
X143369673Y-74319600D01*
X143369673Y-74319600D02*
X143333958Y-74224361D01*
X143333958Y-74224361D02*
X143381578Y-73843409D01*
X143381578Y-73843409D02*
X143441101Y-73748171D01*
X143441101Y-73748171D02*
X143542292Y-73700552D01*
X143542292Y-73700552D02*
X143732768Y-73700552D01*
X143732768Y-73700552D02*
X143822054Y-73748171D01*
X143822054Y-73748171D02*
X143857768Y-73843409D01*
X143857768Y-73843409D02*
X143845863Y-73938647D01*
X143845863Y-73938647D02*
X143357768Y-74033885D01*
X144161340Y-73700552D02*
X144542292Y-73700552D01*
X144345863Y-73367219D02*
X144238721Y-74224361D01*
X144238721Y-74224361D02*
X144274435Y-74319600D01*
X144274435Y-74319600D02*
X144363721Y-74367219D01*
X144363721Y-74367219D02*
X144458959Y-74367219D01*
X145179197Y-74319600D02*
X145078007Y-74367219D01*
X145078007Y-74367219D02*
X144887530Y-74367219D01*
X144887530Y-74367219D02*
X144798245Y-74319600D01*
X144798245Y-74319600D02*
X144762530Y-74224361D01*
X144762530Y-74224361D02*
X144810150Y-73843409D01*
X144810150Y-73843409D02*
X144869673Y-73748171D01*
X144869673Y-73748171D02*
X144970864Y-73700552D01*
X144970864Y-73700552D02*
X145161340Y-73700552D01*
X145161340Y-73700552D02*
X145250626Y-73748171D01*
X145250626Y-73748171D02*
X145286340Y-73843409D01*
X145286340Y-73843409D02*
X145274435Y-73938647D01*
X145274435Y-73938647D02*
X144786340Y-74033885D01*
X146083959Y-74319600D02*
X145982769Y-74367219D01*
X145982769Y-74367219D02*
X145792293Y-74367219D01*
X145792293Y-74367219D02*
X145703007Y-74319600D01*
X145703007Y-74319600D02*
X145661340Y-74271980D01*
X145661340Y-74271980D02*
X145625626Y-74176742D01*
X145625626Y-74176742D02*
X145661340Y-73891028D01*
X145661340Y-73891028D02*
X145720864Y-73795790D01*
X145720864Y-73795790D02*
X145774435Y-73748171D01*
X145774435Y-73748171D02*
X145875626Y-73700552D01*
X145875626Y-73700552D02*
X146066102Y-73700552D01*
X146066102Y-73700552D02*
X146155388Y-73748171D01*
X146447055Y-73700552D02*
X146828007Y-73700552D01*
X146631578Y-73367219D02*
X146524436Y-74224361D01*
X146524436Y-74224361D02*
X146560150Y-74319600D01*
X146560150Y-74319600D02*
X146649436Y-74367219D01*
X146649436Y-74367219D02*
X146744674Y-74367219D01*
X147220865Y-74367219D02*
X147131579Y-74319600D01*
X147131579Y-74319600D02*
X147089912Y-74271980D01*
X147089912Y-74271980D02*
X147054198Y-74176742D01*
X147054198Y-74176742D02*
X147089912Y-73891028D01*
X147089912Y-73891028D02*
X147149436Y-73795790D01*
X147149436Y-73795790D02*
X147203007Y-73748171D01*
X147203007Y-73748171D02*
X147304198Y-73700552D01*
X147304198Y-73700552D02*
X147447055Y-73700552D01*
X147447055Y-73700552D02*
X147536341Y-73748171D01*
X147536341Y-73748171D02*
X147578007Y-73795790D01*
X147578007Y-73795790D02*
X147613722Y-73891028D01*
X147613722Y-73891028D02*
X147578007Y-74176742D01*
X147578007Y-74176742D02*
X147518484Y-74271980D01*
X147518484Y-74271980D02*
X147464912Y-74319600D01*
X147464912Y-74319600D02*
X147363722Y-74367219D01*
X147363722Y-74367219D02*
X147220865Y-74367219D01*
X147982769Y-74367219D02*
X148066103Y-73700552D01*
X148042293Y-73891028D02*
X148101817Y-73795790D01*
X148101817Y-73795790D02*
X148155388Y-73748171D01*
X148155388Y-73748171D02*
X148256579Y-73700552D01*
X148256579Y-73700552D02*
X148351817Y-73700552D01*
X149173246Y-74367219D02*
X148899436Y-73891028D01*
X148601817Y-74367219D02*
X148726817Y-73367219D01*
X148726817Y-73367219D02*
X149107770Y-73367219D01*
X149107770Y-73367219D02*
X149197055Y-73414838D01*
X149197055Y-73414838D02*
X149238722Y-73462457D01*
X149238722Y-73462457D02*
X149274436Y-73557695D01*
X149274436Y-73557695D02*
X149256579Y-73700552D01*
X149256579Y-73700552D02*
X149197055Y-73795790D01*
X149197055Y-73795790D02*
X149143484Y-73843409D01*
X149143484Y-73843409D02*
X149042294Y-73891028D01*
X149042294Y-73891028D02*
X148661341Y-73891028D01*
X149988722Y-74319600D02*
X149887532Y-74367219D01*
X149887532Y-74367219D02*
X149697055Y-74367219D01*
X149697055Y-74367219D02*
X149607770Y-74319600D01*
X149607770Y-74319600D02*
X149572055Y-74224361D01*
X149572055Y-74224361D02*
X149619675Y-73843409D01*
X149619675Y-73843409D02*
X149679198Y-73748171D01*
X149679198Y-73748171D02*
X149780389Y-73700552D01*
X149780389Y-73700552D02*
X149970865Y-73700552D01*
X149970865Y-73700552D02*
X150060151Y-73748171D01*
X150060151Y-73748171D02*
X150095865Y-73843409D01*
X150095865Y-73843409D02*
X150083960Y-73938647D01*
X150083960Y-73938647D02*
X149595865Y-74033885D01*
X150887532Y-74367219D02*
X150953008Y-73843409D01*
X150953008Y-73843409D02*
X150917294Y-73748171D01*
X150917294Y-73748171D02*
X150828008Y-73700552D01*
X150828008Y-73700552D02*
X150637532Y-73700552D01*
X150637532Y-73700552D02*
X150536341Y-73748171D01*
X150893484Y-74319600D02*
X150792294Y-74367219D01*
X150792294Y-74367219D02*
X150554198Y-74367219D01*
X150554198Y-74367219D02*
X150464913Y-74319600D01*
X150464913Y-74319600D02*
X150429198Y-74224361D01*
X150429198Y-74224361D02*
X150441103Y-74129123D01*
X150441103Y-74129123D02*
X150500627Y-74033885D01*
X150500627Y-74033885D02*
X150601818Y-73986266D01*
X150601818Y-73986266D02*
X150839913Y-73986266D01*
X150839913Y-73986266D02*
X150941103Y-73938647D01*
X151792294Y-74367219D02*
X151917294Y-73367219D01*
X151798246Y-74319600D02*
X151697056Y-74367219D01*
X151697056Y-74367219D02*
X151506580Y-74367219D01*
X151506580Y-74367219D02*
X151417294Y-74319600D01*
X151417294Y-74319600D02*
X151375627Y-74271980D01*
X151375627Y-74271980D02*
X151339913Y-74176742D01*
X151339913Y-74176742D02*
X151375627Y-73891028D01*
X151375627Y-73891028D02*
X151435151Y-73795790D01*
X151435151Y-73795790D02*
X151488722Y-73748171D01*
X151488722Y-73748171D02*
X151589913Y-73700552D01*
X151589913Y-73700552D02*
X151780389Y-73700552D01*
X151780389Y-73700552D02*
X151869675Y-73748171D01*
X152655389Y-74319600D02*
X152554199Y-74367219D01*
X152554199Y-74367219D02*
X152363722Y-74367219D01*
X152363722Y-74367219D02*
X152274437Y-74319600D01*
X152274437Y-74319600D02*
X152238722Y-74224361D01*
X152238722Y-74224361D02*
X152286342Y-73843409D01*
X152286342Y-73843409D02*
X152345865Y-73748171D01*
X152345865Y-73748171D02*
X152447056Y-73700552D01*
X152447056Y-73700552D02*
X152637532Y-73700552D01*
X152637532Y-73700552D02*
X152726818Y-73748171D01*
X152726818Y-73748171D02*
X152762532Y-73843409D01*
X152762532Y-73843409D02*
X152750627Y-73938647D01*
X152750627Y-73938647D02*
X152262532Y-74033885D01*
X153125627Y-74367219D02*
X153208961Y-73700552D01*
X153185151Y-73891028D02*
X153244675Y-73795790D01*
X153244675Y-73795790D02*
X153298246Y-73748171D01*
X153298246Y-73748171D02*
X153399437Y-73700552D01*
X153399437Y-73700552D02*
X153494675Y-73700552D01*
D10*
X114137704Y-91947619D02*
X114137704Y-91566667D01*
X114137704Y-91566667D02*
X113756752Y-91528571D01*
X113756752Y-91528571D02*
X113794847Y-91566667D01*
X113794847Y-91566667D02*
X113832942Y-91642857D01*
X113832942Y-91642857D02*
X113832942Y-91833333D01*
X113832942Y-91833333D02*
X113794847Y-91909524D01*
X113794847Y-91909524D02*
X113756752Y-91947619D01*
X113756752Y-91947619D02*
X113680561Y-91985714D01*
X113680561Y-91985714D02*
X113490085Y-91985714D01*
X113490085Y-91985714D02*
X113413895Y-91947619D01*
X113413895Y-91947619D02*
X113375800Y-91909524D01*
X113375800Y-91909524D02*
X113337704Y-91833333D01*
X113337704Y-91833333D02*
X113337704Y-91642857D01*
X113337704Y-91642857D02*
X113375800Y-91566667D01*
X113375800Y-91566667D02*
X113413895Y-91528571D01*
X114137704Y-92214286D02*
X113337704Y-92480953D01*
X113337704Y-92480953D02*
X114137704Y-92747619D01*
X113337704Y-84803810D02*
X113718657Y-84537143D01*
X113337704Y-84346667D02*
X114137704Y-84346667D01*
X114137704Y-84346667D02*
X114137704Y-84651429D01*
X114137704Y-84651429D02*
X114099609Y-84727619D01*
X114099609Y-84727619D02*
X114061514Y-84765714D01*
X114061514Y-84765714D02*
X113985323Y-84803810D01*
X113985323Y-84803810D02*
X113871038Y-84803810D01*
X113871038Y-84803810D02*
X113794847Y-84765714D01*
X113794847Y-84765714D02*
X113756752Y-84727619D01*
X113756752Y-84727619D02*
X113718657Y-84651429D01*
X113718657Y-84651429D02*
X113718657Y-84346667D01*
X113337704Y-85070476D02*
X113871038Y-85489524D01*
X113871038Y-85070476D02*
X113337704Y-85489524D01*
D12*
X123142857Y-72572371D02*
X123142857Y-73058085D01*
X123142857Y-73058085D02*
X123171428Y-73115228D01*
X123171428Y-73115228D02*
X123200000Y-73143800D01*
X123200000Y-73143800D02*
X123257142Y-73172371D01*
X123257142Y-73172371D02*
X123371428Y-73172371D01*
X123371428Y-73172371D02*
X123428571Y-73143800D01*
X123428571Y-73143800D02*
X123457142Y-73115228D01*
X123457142Y-73115228D02*
X123485714Y-73058085D01*
X123485714Y-73058085D02*
X123485714Y-72572371D01*
X124028571Y-72772371D02*
X124028571Y-73172371D01*
X123885713Y-72543800D02*
X123742856Y-72972371D01*
X123742856Y-72972371D02*
X124114285Y-72972371D01*
X136215228Y-73024999D02*
X136243800Y-73053571D01*
X136243800Y-73053571D02*
X136272371Y-73139285D01*
X136272371Y-73139285D02*
X136272371Y-73196428D01*
X136272371Y-73196428D02*
X136243800Y-73282142D01*
X136243800Y-73282142D02*
X136186657Y-73339285D01*
X136186657Y-73339285D02*
X136129514Y-73367856D01*
X136129514Y-73367856D02*
X136015228Y-73396428D01*
X136015228Y-73396428D02*
X135929514Y-73396428D01*
X135929514Y-73396428D02*
X135815228Y-73367856D01*
X135815228Y-73367856D02*
X135758085Y-73339285D01*
X135758085Y-73339285D02*
X135700942Y-73282142D01*
X135700942Y-73282142D02*
X135672371Y-73196428D01*
X135672371Y-73196428D02*
X135672371Y-73139285D01*
X135672371Y-73139285D02*
X135700942Y-73053571D01*
X135700942Y-73053571D02*
X135729514Y-73024999D01*
X135929514Y-72682142D02*
X135900942Y-72739285D01*
X135900942Y-72739285D02*
X135872371Y-72767856D01*
X135872371Y-72767856D02*
X135815228Y-72796428D01*
X135815228Y-72796428D02*
X135786657Y-72796428D01*
X135786657Y-72796428D02*
X135729514Y-72767856D01*
X135729514Y-72767856D02*
X135700942Y-72739285D01*
X135700942Y-72739285D02*
X135672371Y-72682142D01*
X135672371Y-72682142D02*
X135672371Y-72567856D01*
X135672371Y-72567856D02*
X135700942Y-72510714D01*
X135700942Y-72510714D02*
X135729514Y-72482142D01*
X135729514Y-72482142D02*
X135786657Y-72453571D01*
X135786657Y-72453571D02*
X135815228Y-72453571D01*
X135815228Y-72453571D02*
X135872371Y-72482142D01*
X135872371Y-72482142D02*
X135900942Y-72510714D01*
X135900942Y-72510714D02*
X135929514Y-72567856D01*
X135929514Y-72567856D02*
X135929514Y-72682142D01*
X135929514Y-72682142D02*
X135958085Y-72739285D01*
X135958085Y-72739285D02*
X135986657Y-72767856D01*
X135986657Y-72767856D02*
X136043800Y-72796428D01*
X136043800Y-72796428D02*
X136158085Y-72796428D01*
X136158085Y-72796428D02*
X136215228Y-72767856D01*
X136215228Y-72767856D02*
X136243800Y-72739285D01*
X136243800Y-72739285D02*
X136272371Y-72682142D01*
X136272371Y-72682142D02*
X136272371Y-72567856D01*
X136272371Y-72567856D02*
X136243800Y-72510714D01*
X136243800Y-72510714D02*
X136215228Y-72482142D01*
X136215228Y-72482142D02*
X136158085Y-72453571D01*
X136158085Y-72453571D02*
X136043800Y-72453571D01*
X136043800Y-72453571D02*
X135986657Y-72482142D01*
X135986657Y-72482142D02*
X135958085Y-72510714D01*
X135958085Y-72510714D02*
X135929514Y-72567856D01*
X128915228Y-75499999D02*
X128943800Y-75528571D01*
X128943800Y-75528571D02*
X128972371Y-75614285D01*
X128972371Y-75614285D02*
X128972371Y-75671428D01*
X128972371Y-75671428D02*
X128943800Y-75757142D01*
X128943800Y-75757142D02*
X128886657Y-75814285D01*
X128886657Y-75814285D02*
X128829514Y-75842856D01*
X128829514Y-75842856D02*
X128715228Y-75871428D01*
X128715228Y-75871428D02*
X128629514Y-75871428D01*
X128629514Y-75871428D02*
X128515228Y-75842856D01*
X128515228Y-75842856D02*
X128458085Y-75814285D01*
X128458085Y-75814285D02*
X128400942Y-75757142D01*
X128400942Y-75757142D02*
X128372371Y-75671428D01*
X128372371Y-75671428D02*
X128372371Y-75614285D01*
X128372371Y-75614285D02*
X128400942Y-75528571D01*
X128400942Y-75528571D02*
X128429514Y-75499999D01*
X128429514Y-75271428D02*
X128400942Y-75242856D01*
X128400942Y-75242856D02*
X128372371Y-75185714D01*
X128372371Y-75185714D02*
X128372371Y-75042856D01*
X128372371Y-75042856D02*
X128400942Y-74985714D01*
X128400942Y-74985714D02*
X128429514Y-74957142D01*
X128429514Y-74957142D02*
X128486657Y-74928571D01*
X128486657Y-74928571D02*
X128543800Y-74928571D01*
X128543800Y-74928571D02*
X128629514Y-74957142D01*
X128629514Y-74957142D02*
X128972371Y-75299999D01*
X128972371Y-75299999D02*
X128972371Y-74928571D01*
X153972371Y-94299999D02*
X153972371Y-94585713D01*
X153972371Y-94585713D02*
X153372371Y-94585713D01*
X153372371Y-94157142D02*
X153372371Y-93785714D01*
X153372371Y-93785714D02*
X153600942Y-93985714D01*
X153600942Y-93985714D02*
X153600942Y-93899999D01*
X153600942Y-93899999D02*
X153629514Y-93842857D01*
X153629514Y-93842857D02*
X153658085Y-93814285D01*
X153658085Y-93814285D02*
X153715228Y-93785714D01*
X153715228Y-93785714D02*
X153858085Y-93785714D01*
X153858085Y-93785714D02*
X153915228Y-93814285D01*
X153915228Y-93814285D02*
X153943800Y-93842857D01*
X153943800Y-93842857D02*
X153972371Y-93899999D01*
X153972371Y-93899999D02*
X153972371Y-94071428D01*
X153972371Y-94071428D02*
X153943800Y-94128571D01*
X153943800Y-94128571D02*
X153915228Y-94157142D01*
X130800000Y-89672371D02*
X130600000Y-89386657D01*
X130457143Y-89672371D02*
X130457143Y-89072371D01*
X130457143Y-89072371D02*
X130685714Y-89072371D01*
X130685714Y-89072371D02*
X130742857Y-89100942D01*
X130742857Y-89100942D02*
X130771428Y-89129514D01*
X130771428Y-89129514D02*
X130800000Y-89186657D01*
X130800000Y-89186657D02*
X130800000Y-89272371D01*
X130800000Y-89272371D02*
X130771428Y-89329514D01*
X130771428Y-89329514D02*
X130742857Y-89358085D01*
X130742857Y-89358085D02*
X130685714Y-89386657D01*
X130685714Y-89386657D02*
X130457143Y-89386657D01*
X131314286Y-89072371D02*
X131200000Y-89072371D01*
X131200000Y-89072371D02*
X131142857Y-89100942D01*
X131142857Y-89100942D02*
X131114286Y-89129514D01*
X131114286Y-89129514D02*
X131057143Y-89215228D01*
X131057143Y-89215228D02*
X131028571Y-89329514D01*
X131028571Y-89329514D02*
X131028571Y-89558085D01*
X131028571Y-89558085D02*
X131057143Y-89615228D01*
X131057143Y-89615228D02*
X131085714Y-89643800D01*
X131085714Y-89643800D02*
X131142857Y-89672371D01*
X131142857Y-89672371D02*
X131257143Y-89672371D01*
X131257143Y-89672371D02*
X131314286Y-89643800D01*
X131314286Y-89643800D02*
X131342857Y-89615228D01*
X131342857Y-89615228D02*
X131371428Y-89558085D01*
X131371428Y-89558085D02*
X131371428Y-89415228D01*
X131371428Y-89415228D02*
X131342857Y-89358085D01*
X131342857Y-89358085D02*
X131314286Y-89329514D01*
X131314286Y-89329514D02*
X131257143Y-89300942D01*
X131257143Y-89300942D02*
X131142857Y-89300942D01*
X131142857Y-89300942D02*
X131085714Y-89329514D01*
X131085714Y-89329514D02*
X131057143Y-89358085D01*
X131057143Y-89358085D02*
X131028571Y-89415228D01*
D10*
X123952381Y-95986104D02*
X123914285Y-96024200D01*
X123914285Y-96024200D02*
X123800000Y-96062295D01*
X123800000Y-96062295D02*
X123723809Y-96062295D01*
X123723809Y-96062295D02*
X123609523Y-96024200D01*
X123609523Y-96024200D02*
X123533333Y-95948009D01*
X123533333Y-95948009D02*
X123495238Y-95871819D01*
X123495238Y-95871819D02*
X123457142Y-95719438D01*
X123457142Y-95719438D02*
X123457142Y-95605152D01*
X123457142Y-95605152D02*
X123495238Y-95452771D01*
X123495238Y-95452771D02*
X123533333Y-95376580D01*
X123533333Y-95376580D02*
X123609523Y-95300390D01*
X123609523Y-95300390D02*
X123723809Y-95262295D01*
X123723809Y-95262295D02*
X123800000Y-95262295D01*
X123800000Y-95262295D02*
X123914285Y-95300390D01*
X123914285Y-95300390D02*
X123952381Y-95338485D01*
X124295238Y-96062295D02*
X124295238Y-95528961D01*
X124295238Y-95605152D02*
X124333333Y-95567057D01*
X124333333Y-95567057D02*
X124409523Y-95528961D01*
X124409523Y-95528961D02*
X124523809Y-95528961D01*
X124523809Y-95528961D02*
X124600000Y-95567057D01*
X124600000Y-95567057D02*
X124638095Y-95643247D01*
X124638095Y-95643247D02*
X124638095Y-96062295D01*
X124638095Y-95643247D02*
X124676190Y-95567057D01*
X124676190Y-95567057D02*
X124752381Y-95528961D01*
X124752381Y-95528961D02*
X124866666Y-95528961D01*
X124866666Y-95528961D02*
X124942857Y-95567057D01*
X124942857Y-95567057D02*
X124980952Y-95643247D01*
X124980952Y-95643247D02*
X124980952Y-96062295D01*
X125704762Y-96062295D02*
X125704762Y-95262295D01*
X125704762Y-96024200D02*
X125628571Y-96062295D01*
X125628571Y-96062295D02*
X125476190Y-96062295D01*
X125476190Y-96062295D02*
X125400000Y-96024200D01*
X125400000Y-96024200D02*
X125361905Y-95986104D01*
X125361905Y-95986104D02*
X125323809Y-95909914D01*
X125323809Y-95909914D02*
X125323809Y-95681342D01*
X125323809Y-95681342D02*
X125361905Y-95605152D01*
X125361905Y-95605152D02*
X125400000Y-95567057D01*
X125400000Y-95567057D02*
X125476190Y-95528961D01*
X125476190Y-95528961D02*
X125628571Y-95528961D01*
X125628571Y-95528961D02*
X125704762Y-95567057D01*
D12*
X139415228Y-76310714D02*
X139443800Y-76339286D01*
X139443800Y-76339286D02*
X139472371Y-76425000D01*
X139472371Y-76425000D02*
X139472371Y-76482143D01*
X139472371Y-76482143D02*
X139443800Y-76567857D01*
X139443800Y-76567857D02*
X139386657Y-76625000D01*
X139386657Y-76625000D02*
X139329514Y-76653571D01*
X139329514Y-76653571D02*
X139215228Y-76682143D01*
X139215228Y-76682143D02*
X139129514Y-76682143D01*
X139129514Y-76682143D02*
X139015228Y-76653571D01*
X139015228Y-76653571D02*
X138958085Y-76625000D01*
X138958085Y-76625000D02*
X138900942Y-76567857D01*
X138900942Y-76567857D02*
X138872371Y-76482143D01*
X138872371Y-76482143D02*
X138872371Y-76425000D01*
X138872371Y-76425000D02*
X138900942Y-76339286D01*
X138900942Y-76339286D02*
X138929514Y-76310714D01*
X139472371Y-75739286D02*
X139472371Y-76082143D01*
X139472371Y-75910714D02*
X138872371Y-75910714D01*
X138872371Y-75910714D02*
X138958085Y-75967857D01*
X138958085Y-75967857D02*
X139015228Y-76025000D01*
X139015228Y-76025000D02*
X139043800Y-76082143D01*
X138872371Y-75367857D02*
X138872371Y-75310714D01*
X138872371Y-75310714D02*
X138900942Y-75253571D01*
X138900942Y-75253571D02*
X138929514Y-75225000D01*
X138929514Y-75225000D02*
X138986657Y-75196428D01*
X138986657Y-75196428D02*
X139100942Y-75167857D01*
X139100942Y-75167857D02*
X139243800Y-75167857D01*
X139243800Y-75167857D02*
X139358085Y-75196428D01*
X139358085Y-75196428D02*
X139415228Y-75225000D01*
X139415228Y-75225000D02*
X139443800Y-75253571D01*
X139443800Y-75253571D02*
X139472371Y-75310714D01*
X139472371Y-75310714D02*
X139472371Y-75367857D01*
X139472371Y-75367857D02*
X139443800Y-75425000D01*
X139443800Y-75425000D02*
X139415228Y-75453571D01*
X139415228Y-75453571D02*
X139358085Y-75482142D01*
X139358085Y-75482142D02*
X139243800Y-75510714D01*
X139243800Y-75510714D02*
X139100942Y-75510714D01*
X139100942Y-75510714D02*
X138986657Y-75482142D01*
X138986657Y-75482142D02*
X138929514Y-75453571D01*
X138929514Y-75453571D02*
X138900942Y-75425000D01*
X138900942Y-75425000D02*
X138872371Y-75367857D01*
X141342857Y-86429514D02*
X141285714Y-86400942D01*
X141285714Y-86400942D02*
X141228571Y-86343800D01*
X141228571Y-86343800D02*
X141142857Y-86258085D01*
X141142857Y-86258085D02*
X141085714Y-86229514D01*
X141085714Y-86229514D02*
X141028571Y-86229514D01*
X141057142Y-86372371D02*
X141000000Y-86343800D01*
X141000000Y-86343800D02*
X140942857Y-86286657D01*
X140942857Y-86286657D02*
X140914285Y-86172371D01*
X140914285Y-86172371D02*
X140914285Y-85972371D01*
X140914285Y-85972371D02*
X140942857Y-85858085D01*
X140942857Y-85858085D02*
X141000000Y-85800942D01*
X141000000Y-85800942D02*
X141057142Y-85772371D01*
X141057142Y-85772371D02*
X141171428Y-85772371D01*
X141171428Y-85772371D02*
X141228571Y-85800942D01*
X141228571Y-85800942D02*
X141285714Y-85858085D01*
X141285714Y-85858085D02*
X141314285Y-85972371D01*
X141314285Y-85972371D02*
X141314285Y-86172371D01*
X141314285Y-86172371D02*
X141285714Y-86286657D01*
X141285714Y-86286657D02*
X141228571Y-86343800D01*
X141228571Y-86343800D02*
X141171428Y-86372371D01*
X141171428Y-86372371D02*
X141057142Y-86372371D01*
X141542856Y-85829514D02*
X141571428Y-85800942D01*
X141571428Y-85800942D02*
X141628571Y-85772371D01*
X141628571Y-85772371D02*
X141771428Y-85772371D01*
X141771428Y-85772371D02*
X141828571Y-85800942D01*
X141828571Y-85800942D02*
X141857142Y-85829514D01*
X141857142Y-85829514D02*
X141885713Y-85886657D01*
X141885713Y-85886657D02*
X141885713Y-85943800D01*
X141885713Y-85943800D02*
X141857142Y-86029514D01*
X141857142Y-86029514D02*
X141514285Y-86372371D01*
X141514285Y-86372371D02*
X141885713Y-86372371D01*
X137215228Y-94385714D02*
X137243800Y-94414286D01*
X137243800Y-94414286D02*
X137272371Y-94500000D01*
X137272371Y-94500000D02*
X137272371Y-94557143D01*
X137272371Y-94557143D02*
X137243800Y-94642857D01*
X137243800Y-94642857D02*
X137186657Y-94700000D01*
X137186657Y-94700000D02*
X137129514Y-94728571D01*
X137129514Y-94728571D02*
X137015228Y-94757143D01*
X137015228Y-94757143D02*
X136929514Y-94757143D01*
X136929514Y-94757143D02*
X136815228Y-94728571D01*
X136815228Y-94728571D02*
X136758085Y-94700000D01*
X136758085Y-94700000D02*
X136700942Y-94642857D01*
X136700942Y-94642857D02*
X136672371Y-94557143D01*
X136672371Y-94557143D02*
X136672371Y-94500000D01*
X136672371Y-94500000D02*
X136700942Y-94414286D01*
X136700942Y-94414286D02*
X136729514Y-94385714D01*
X137272371Y-93814286D02*
X137272371Y-94157143D01*
X137272371Y-93985714D02*
X136672371Y-93985714D01*
X136672371Y-93985714D02*
X136758085Y-94042857D01*
X136758085Y-94042857D02*
X136815228Y-94100000D01*
X136815228Y-94100000D02*
X136843800Y-94157143D01*
X136672371Y-93614285D02*
X136672371Y-93214285D01*
X136672371Y-93214285D02*
X137272371Y-93471428D01*
X135815228Y-94285714D02*
X135843800Y-94314286D01*
X135843800Y-94314286D02*
X135872371Y-94400000D01*
X135872371Y-94400000D02*
X135872371Y-94457143D01*
X135872371Y-94457143D02*
X135843800Y-94542857D01*
X135843800Y-94542857D02*
X135786657Y-94600000D01*
X135786657Y-94600000D02*
X135729514Y-94628571D01*
X135729514Y-94628571D02*
X135615228Y-94657143D01*
X135615228Y-94657143D02*
X135529514Y-94657143D01*
X135529514Y-94657143D02*
X135415228Y-94628571D01*
X135415228Y-94628571D02*
X135358085Y-94600000D01*
X135358085Y-94600000D02*
X135300942Y-94542857D01*
X135300942Y-94542857D02*
X135272371Y-94457143D01*
X135272371Y-94457143D02*
X135272371Y-94400000D01*
X135272371Y-94400000D02*
X135300942Y-94314286D01*
X135300942Y-94314286D02*
X135329514Y-94285714D01*
X135872371Y-93714286D02*
X135872371Y-94057143D01*
X135872371Y-93885714D02*
X135272371Y-93885714D01*
X135272371Y-93885714D02*
X135358085Y-93942857D01*
X135358085Y-93942857D02*
X135415228Y-94000000D01*
X135415228Y-94000000D02*
X135443800Y-94057143D01*
X135872371Y-93428571D02*
X135872371Y-93314285D01*
X135872371Y-93314285D02*
X135843800Y-93257142D01*
X135843800Y-93257142D02*
X135815228Y-93228571D01*
X135815228Y-93228571D02*
X135729514Y-93171428D01*
X135729514Y-93171428D02*
X135615228Y-93142857D01*
X135615228Y-93142857D02*
X135386657Y-93142857D01*
X135386657Y-93142857D02*
X135329514Y-93171428D01*
X135329514Y-93171428D02*
X135300942Y-93200000D01*
X135300942Y-93200000D02*
X135272371Y-93257142D01*
X135272371Y-93257142D02*
X135272371Y-93371428D01*
X135272371Y-93371428D02*
X135300942Y-93428571D01*
X135300942Y-93428571D02*
X135329514Y-93457142D01*
X135329514Y-93457142D02*
X135386657Y-93485714D01*
X135386657Y-93485714D02*
X135529514Y-93485714D01*
X135529514Y-93485714D02*
X135586657Y-93457142D01*
X135586657Y-93457142D02*
X135615228Y-93428571D01*
X135615228Y-93428571D02*
X135643800Y-93371428D01*
X135643800Y-93371428D02*
X135643800Y-93257142D01*
X135643800Y-93257142D02*
X135615228Y-93200000D01*
X135615228Y-93200000D02*
X135586657Y-93171428D01*
X135586657Y-93171428D02*
X135529514Y-93142857D01*
X127242857Y-82072371D02*
X127242857Y-82558085D01*
X127242857Y-82558085D02*
X127271428Y-82615228D01*
X127271428Y-82615228D02*
X127300000Y-82643800D01*
X127300000Y-82643800D02*
X127357142Y-82672371D01*
X127357142Y-82672371D02*
X127471428Y-82672371D01*
X127471428Y-82672371D02*
X127528571Y-82643800D01*
X127528571Y-82643800D02*
X127557142Y-82615228D01*
X127557142Y-82615228D02*
X127585714Y-82558085D01*
X127585714Y-82558085D02*
X127585714Y-82072371D01*
X127814285Y-82072371D02*
X128185713Y-82072371D01*
X128185713Y-82072371D02*
X127985713Y-82300942D01*
X127985713Y-82300942D02*
X128071428Y-82300942D01*
X128071428Y-82300942D02*
X128128571Y-82329514D01*
X128128571Y-82329514D02*
X128157142Y-82358085D01*
X128157142Y-82358085D02*
X128185713Y-82415228D01*
X128185713Y-82415228D02*
X128185713Y-82558085D01*
X128185713Y-82558085D02*
X128157142Y-82615228D01*
X128157142Y-82615228D02*
X128128571Y-82643800D01*
X128128571Y-82643800D02*
X128071428Y-82672371D01*
X128071428Y-82672371D02*
X127899999Y-82672371D01*
X127899999Y-82672371D02*
X127842856Y-82643800D01*
X127842856Y-82643800D02*
X127814285Y-82615228D01*
X137972371Y-74824999D02*
X137972371Y-75110713D01*
X137972371Y-75110713D02*
X137372371Y-75110713D01*
X137972371Y-74310714D02*
X137972371Y-74653571D01*
X137972371Y-74482142D02*
X137372371Y-74482142D01*
X137372371Y-74482142D02*
X137458085Y-74539285D01*
X137458085Y-74539285D02*
X137515228Y-74596428D01*
X137515228Y-74596428D02*
X137543800Y-74653571D01*
X120700000Y-84277728D02*
X120671428Y-84306300D01*
X120671428Y-84306300D02*
X120585714Y-84334871D01*
X120585714Y-84334871D02*
X120528571Y-84334871D01*
X120528571Y-84334871D02*
X120442857Y-84306300D01*
X120442857Y-84306300D02*
X120385714Y-84249157D01*
X120385714Y-84249157D02*
X120357143Y-84192014D01*
X120357143Y-84192014D02*
X120328571Y-84077728D01*
X120328571Y-84077728D02*
X120328571Y-83992014D01*
X120328571Y-83992014D02*
X120357143Y-83877728D01*
X120357143Y-83877728D02*
X120385714Y-83820585D01*
X120385714Y-83820585D02*
X120442857Y-83763442D01*
X120442857Y-83763442D02*
X120528571Y-83734871D01*
X120528571Y-83734871D02*
X120585714Y-83734871D01*
X120585714Y-83734871D02*
X120671428Y-83763442D01*
X120671428Y-83763442D02*
X120700000Y-83792014D01*
X120900000Y-83734871D02*
X121271428Y-83734871D01*
X121271428Y-83734871D02*
X121071428Y-83963442D01*
X121071428Y-83963442D02*
X121157143Y-83963442D01*
X121157143Y-83963442D02*
X121214286Y-83992014D01*
X121214286Y-83992014D02*
X121242857Y-84020585D01*
X121242857Y-84020585D02*
X121271428Y-84077728D01*
X121271428Y-84077728D02*
X121271428Y-84220585D01*
X121271428Y-84220585D02*
X121242857Y-84277728D01*
X121242857Y-84277728D02*
X121214286Y-84306300D01*
X121214286Y-84306300D02*
X121157143Y-84334871D01*
X121157143Y-84334871D02*
X120985714Y-84334871D01*
X120985714Y-84334871D02*
X120928571Y-84306300D01*
X120928571Y-84306300D02*
X120900000Y-84277728D01*
X115357143Y-93852371D02*
X115357143Y-93252371D01*
X115357143Y-93252371D02*
X115500000Y-93252371D01*
X115500000Y-93252371D02*
X115585714Y-93280942D01*
X115585714Y-93280942D02*
X115642857Y-93338085D01*
X115642857Y-93338085D02*
X115671428Y-93395228D01*
X115671428Y-93395228D02*
X115700000Y-93509514D01*
X115700000Y-93509514D02*
X115700000Y-93595228D01*
X115700000Y-93595228D02*
X115671428Y-93709514D01*
X115671428Y-93709514D02*
X115642857Y-93766657D01*
X115642857Y-93766657D02*
X115585714Y-93823800D01*
X115585714Y-93823800D02*
X115500000Y-93852371D01*
X115500000Y-93852371D02*
X115357143Y-93852371D01*
X116271428Y-93852371D02*
X115928571Y-93852371D01*
X116100000Y-93852371D02*
X116100000Y-93252371D01*
X116100000Y-93252371D02*
X116042857Y-93338085D01*
X116042857Y-93338085D02*
X115985714Y-93395228D01*
X115985714Y-93395228D02*
X115928571Y-93423800D01*
X143214285Y-84815228D02*
X143185713Y-84843800D01*
X143185713Y-84843800D02*
X143099999Y-84872371D01*
X143099999Y-84872371D02*
X143042856Y-84872371D01*
X143042856Y-84872371D02*
X142957142Y-84843800D01*
X142957142Y-84843800D02*
X142899999Y-84786657D01*
X142899999Y-84786657D02*
X142871428Y-84729514D01*
X142871428Y-84729514D02*
X142842856Y-84615228D01*
X142842856Y-84615228D02*
X142842856Y-84529514D01*
X142842856Y-84529514D02*
X142871428Y-84415228D01*
X142871428Y-84415228D02*
X142899999Y-84358085D01*
X142899999Y-84358085D02*
X142957142Y-84300942D01*
X142957142Y-84300942D02*
X143042856Y-84272371D01*
X143042856Y-84272371D02*
X143099999Y-84272371D01*
X143099999Y-84272371D02*
X143185713Y-84300942D01*
X143185713Y-84300942D02*
X143214285Y-84329514D01*
X143442856Y-84329514D02*
X143471428Y-84300942D01*
X143471428Y-84300942D02*
X143528571Y-84272371D01*
X143528571Y-84272371D02*
X143671428Y-84272371D01*
X143671428Y-84272371D02*
X143728571Y-84300942D01*
X143728571Y-84300942D02*
X143757142Y-84329514D01*
X143757142Y-84329514D02*
X143785713Y-84386657D01*
X143785713Y-84386657D02*
X143785713Y-84443800D01*
X143785713Y-84443800D02*
X143757142Y-84529514D01*
X143757142Y-84529514D02*
X143414285Y-84872371D01*
X143414285Y-84872371D02*
X143785713Y-84872371D01*
X144157142Y-84272371D02*
X144214285Y-84272371D01*
X144214285Y-84272371D02*
X144271428Y-84300942D01*
X144271428Y-84300942D02*
X144300000Y-84329514D01*
X144300000Y-84329514D02*
X144328571Y-84386657D01*
X144328571Y-84386657D02*
X144357142Y-84500942D01*
X144357142Y-84500942D02*
X144357142Y-84643800D01*
X144357142Y-84643800D02*
X144328571Y-84758085D01*
X144328571Y-84758085D02*
X144300000Y-84815228D01*
X144300000Y-84815228D02*
X144271428Y-84843800D01*
X144271428Y-84843800D02*
X144214285Y-84872371D01*
X144214285Y-84872371D02*
X144157142Y-84872371D01*
X144157142Y-84872371D02*
X144100000Y-84843800D01*
X144100000Y-84843800D02*
X144071428Y-84815228D01*
X144071428Y-84815228D02*
X144042857Y-84758085D01*
X144042857Y-84758085D02*
X144014285Y-84643800D01*
X144014285Y-84643800D02*
X144014285Y-84500942D01*
X144014285Y-84500942D02*
X144042857Y-84386657D01*
X144042857Y-84386657D02*
X144071428Y-84329514D01*
X144071428Y-84329514D02*
X144100000Y-84300942D01*
X144100000Y-84300942D02*
X144157142Y-84272371D01*
D10*
X138674285Y-83033723D02*
X139055238Y-83033723D01*
X138598095Y-83262295D02*
X138864762Y-82462295D01*
X138864762Y-82462295D02*
X139131428Y-83262295D01*
X139398095Y-83262295D02*
X139398095Y-82728961D01*
X139398095Y-82805152D02*
X139436190Y-82767057D01*
X139436190Y-82767057D02*
X139512380Y-82728961D01*
X139512380Y-82728961D02*
X139626666Y-82728961D01*
X139626666Y-82728961D02*
X139702857Y-82767057D01*
X139702857Y-82767057D02*
X139740952Y-82843247D01*
X139740952Y-82843247D02*
X139740952Y-83262295D01*
X139740952Y-82843247D02*
X139779047Y-82767057D01*
X139779047Y-82767057D02*
X139855238Y-82728961D01*
X139855238Y-82728961D02*
X139969523Y-82728961D01*
X139969523Y-82728961D02*
X140045714Y-82767057D01*
X140045714Y-82767057D02*
X140083809Y-82843247D01*
X140083809Y-82843247D02*
X140083809Y-83262295D01*
X140464762Y-82728961D02*
X140464762Y-83528961D01*
X140464762Y-82767057D02*
X140540952Y-82728961D01*
X140540952Y-82728961D02*
X140693333Y-82728961D01*
X140693333Y-82728961D02*
X140769524Y-82767057D01*
X140769524Y-82767057D02*
X140807619Y-82805152D01*
X140807619Y-82805152D02*
X140845714Y-82881342D01*
X140845714Y-82881342D02*
X140845714Y-83109914D01*
X140845714Y-83109914D02*
X140807619Y-83186104D01*
X140807619Y-83186104D02*
X140769524Y-83224200D01*
X140769524Y-83224200D02*
X140693333Y-83262295D01*
X140693333Y-83262295D02*
X140540952Y-83262295D01*
X140540952Y-83262295D02*
X140464762Y-83224200D01*
D12*
X119872371Y-81599999D02*
X119586657Y-81799999D01*
X119872371Y-81942856D02*
X119272371Y-81942856D01*
X119272371Y-81942856D02*
X119272371Y-81714285D01*
X119272371Y-81714285D02*
X119300942Y-81657142D01*
X119300942Y-81657142D02*
X119329514Y-81628571D01*
X119329514Y-81628571D02*
X119386657Y-81599999D01*
X119386657Y-81599999D02*
X119472371Y-81599999D01*
X119472371Y-81599999D02*
X119529514Y-81628571D01*
X119529514Y-81628571D02*
X119558085Y-81657142D01*
X119558085Y-81657142D02*
X119586657Y-81714285D01*
X119586657Y-81714285D02*
X119586657Y-81942856D01*
X119472371Y-81085714D02*
X119872371Y-81085714D01*
X119243800Y-81228571D02*
X119672371Y-81371428D01*
X119672371Y-81371428D02*
X119672371Y-80999999D01*
X129700000Y-94072371D02*
X129500000Y-93786657D01*
X129357143Y-94072371D02*
X129357143Y-93472371D01*
X129357143Y-93472371D02*
X129585714Y-93472371D01*
X129585714Y-93472371D02*
X129642857Y-93500942D01*
X129642857Y-93500942D02*
X129671428Y-93529514D01*
X129671428Y-93529514D02*
X129700000Y-93586657D01*
X129700000Y-93586657D02*
X129700000Y-93672371D01*
X129700000Y-93672371D02*
X129671428Y-93729514D01*
X129671428Y-93729514D02*
X129642857Y-93758085D01*
X129642857Y-93758085D02*
X129585714Y-93786657D01*
X129585714Y-93786657D02*
X129357143Y-93786657D01*
X130242857Y-93472371D02*
X129957143Y-93472371D01*
X129957143Y-93472371D02*
X129928571Y-93758085D01*
X129928571Y-93758085D02*
X129957143Y-93729514D01*
X129957143Y-93729514D02*
X130014286Y-93700942D01*
X130014286Y-93700942D02*
X130157143Y-93700942D01*
X130157143Y-93700942D02*
X130214286Y-93729514D01*
X130214286Y-93729514D02*
X130242857Y-93758085D01*
X130242857Y-93758085D02*
X130271428Y-93815228D01*
X130271428Y-93815228D02*
X130271428Y-93958085D01*
X130271428Y-93958085D02*
X130242857Y-94015228D01*
X130242857Y-94015228D02*
X130214286Y-94043800D01*
X130214286Y-94043800D02*
X130157143Y-94072371D01*
X130157143Y-94072371D02*
X130014286Y-94072371D01*
X130014286Y-94072371D02*
X129957143Y-94043800D01*
X129957143Y-94043800D02*
X129928571Y-94015228D01*
X126915228Y-85899999D02*
X126943800Y-85928571D01*
X126943800Y-85928571D02*
X126972371Y-86014285D01*
X126972371Y-86014285D02*
X126972371Y-86071428D01*
X126972371Y-86071428D02*
X126943800Y-86157142D01*
X126943800Y-86157142D02*
X126886657Y-86214285D01*
X126886657Y-86214285D02*
X126829514Y-86242856D01*
X126829514Y-86242856D02*
X126715228Y-86271428D01*
X126715228Y-86271428D02*
X126629514Y-86271428D01*
X126629514Y-86271428D02*
X126515228Y-86242856D01*
X126515228Y-86242856D02*
X126458085Y-86214285D01*
X126458085Y-86214285D02*
X126400942Y-86157142D01*
X126400942Y-86157142D02*
X126372371Y-86071428D01*
X126372371Y-86071428D02*
X126372371Y-86014285D01*
X126372371Y-86014285D02*
X126400942Y-85928571D01*
X126400942Y-85928571D02*
X126429514Y-85899999D01*
X126972371Y-85328571D02*
X126972371Y-85671428D01*
X126972371Y-85499999D02*
X126372371Y-85499999D01*
X126372371Y-85499999D02*
X126458085Y-85557142D01*
X126458085Y-85557142D02*
X126515228Y-85614285D01*
X126515228Y-85614285D02*
X126543800Y-85671428D01*
X114399999Y-82472371D02*
X114399999Y-82900942D01*
X114399999Y-82900942D02*
X114371428Y-82986657D01*
X114371428Y-82986657D02*
X114314285Y-83043800D01*
X114314285Y-83043800D02*
X114228571Y-83072371D01*
X114228571Y-83072371D02*
X114171428Y-83072371D01*
X114628571Y-82472371D02*
X114999999Y-82472371D01*
X114999999Y-82472371D02*
X114799999Y-82700942D01*
X114799999Y-82700942D02*
X114885714Y-82700942D01*
X114885714Y-82700942D02*
X114942857Y-82729514D01*
X114942857Y-82729514D02*
X114971428Y-82758085D01*
X114971428Y-82758085D02*
X114999999Y-82815228D01*
X114999999Y-82815228D02*
X114999999Y-82958085D01*
X114999999Y-82958085D02*
X114971428Y-83015228D01*
X114971428Y-83015228D02*
X114942857Y-83043800D01*
X114942857Y-83043800D02*
X114885714Y-83072371D01*
X114885714Y-83072371D02*
X114714285Y-83072371D01*
X114714285Y-83072371D02*
X114657142Y-83043800D01*
X114657142Y-83043800D02*
X114628571Y-83015228D01*
X147015228Y-95785714D02*
X147043800Y-95814286D01*
X147043800Y-95814286D02*
X147072371Y-95900000D01*
X147072371Y-95900000D02*
X147072371Y-95957143D01*
X147072371Y-95957143D02*
X147043800Y-96042857D01*
X147043800Y-96042857D02*
X146986657Y-96100000D01*
X146986657Y-96100000D02*
X146929514Y-96128571D01*
X146929514Y-96128571D02*
X146815228Y-96157143D01*
X146815228Y-96157143D02*
X146729514Y-96157143D01*
X146729514Y-96157143D02*
X146615228Y-96128571D01*
X146615228Y-96128571D02*
X146558085Y-96100000D01*
X146558085Y-96100000D02*
X146500942Y-96042857D01*
X146500942Y-96042857D02*
X146472371Y-95957143D01*
X146472371Y-95957143D02*
X146472371Y-95900000D01*
X146472371Y-95900000D02*
X146500942Y-95814286D01*
X146500942Y-95814286D02*
X146529514Y-95785714D01*
X147072371Y-95214286D02*
X147072371Y-95557143D01*
X147072371Y-95385714D02*
X146472371Y-95385714D01*
X146472371Y-95385714D02*
X146558085Y-95442857D01*
X146558085Y-95442857D02*
X146615228Y-95500000D01*
X146615228Y-95500000D02*
X146643800Y-95557143D01*
X146472371Y-95014285D02*
X146472371Y-94642857D01*
X146472371Y-94642857D02*
X146700942Y-94842857D01*
X146700942Y-94842857D02*
X146700942Y-94757142D01*
X146700942Y-94757142D02*
X146729514Y-94700000D01*
X146729514Y-94700000D02*
X146758085Y-94671428D01*
X146758085Y-94671428D02*
X146815228Y-94642857D01*
X146815228Y-94642857D02*
X146958085Y-94642857D01*
X146958085Y-94642857D02*
X147015228Y-94671428D01*
X147015228Y-94671428D02*
X147043800Y-94700000D01*
X147043800Y-94700000D02*
X147072371Y-94757142D01*
X147072371Y-94757142D02*
X147072371Y-94928571D01*
X147072371Y-94928571D02*
X147043800Y-94985714D01*
X147043800Y-94985714D02*
X147015228Y-95014285D01*
X137272371Y-85199999D02*
X136986657Y-85399999D01*
X137272371Y-85542856D02*
X136672371Y-85542856D01*
X136672371Y-85542856D02*
X136672371Y-85314285D01*
X136672371Y-85314285D02*
X136700942Y-85257142D01*
X136700942Y-85257142D02*
X136729514Y-85228571D01*
X136729514Y-85228571D02*
X136786657Y-85199999D01*
X136786657Y-85199999D02*
X136872371Y-85199999D01*
X136872371Y-85199999D02*
X136929514Y-85228571D01*
X136929514Y-85228571D02*
X136958085Y-85257142D01*
X136958085Y-85257142D02*
X136986657Y-85314285D01*
X136986657Y-85314285D02*
X136986657Y-85542856D01*
X137272371Y-84914285D02*
X137272371Y-84799999D01*
X137272371Y-84799999D02*
X137243800Y-84742856D01*
X137243800Y-84742856D02*
X137215228Y-84714285D01*
X137215228Y-84714285D02*
X137129514Y-84657142D01*
X137129514Y-84657142D02*
X137015228Y-84628571D01*
X137015228Y-84628571D02*
X136786657Y-84628571D01*
X136786657Y-84628571D02*
X136729514Y-84657142D01*
X136729514Y-84657142D02*
X136700942Y-84685714D01*
X136700942Y-84685714D02*
X136672371Y-84742856D01*
X136672371Y-84742856D02*
X136672371Y-84857142D01*
X136672371Y-84857142D02*
X136700942Y-84914285D01*
X136700942Y-84914285D02*
X136729514Y-84942856D01*
X136729514Y-84942856D02*
X136786657Y-84971428D01*
X136786657Y-84971428D02*
X136929514Y-84971428D01*
X136929514Y-84971428D02*
X136986657Y-84942856D01*
X136986657Y-84942856D02*
X137015228Y-84914285D01*
X137015228Y-84914285D02*
X137043800Y-84857142D01*
X137043800Y-84857142D02*
X137043800Y-84742856D01*
X137043800Y-84742856D02*
X137015228Y-84685714D01*
X137015228Y-84685714D02*
X136986657Y-84657142D01*
X136986657Y-84657142D02*
X136929514Y-84628571D01*
X145433750Y-76740228D02*
X145405178Y-76768800D01*
X145405178Y-76768800D02*
X145319464Y-76797371D01*
X145319464Y-76797371D02*
X145262321Y-76797371D01*
X145262321Y-76797371D02*
X145176607Y-76768800D01*
X145176607Y-76768800D02*
X145119464Y-76711657D01*
X145119464Y-76711657D02*
X145090893Y-76654514D01*
X145090893Y-76654514D02*
X145062321Y-76540228D01*
X145062321Y-76540228D02*
X145062321Y-76454514D01*
X145062321Y-76454514D02*
X145090893Y-76340228D01*
X145090893Y-76340228D02*
X145119464Y-76283085D01*
X145119464Y-76283085D02*
X145176607Y-76225942D01*
X145176607Y-76225942D02*
X145262321Y-76197371D01*
X145262321Y-76197371D02*
X145319464Y-76197371D01*
X145319464Y-76197371D02*
X145405178Y-76225942D01*
X145405178Y-76225942D02*
X145433750Y-76254514D01*
X145719464Y-76797371D02*
X145833750Y-76797371D01*
X145833750Y-76797371D02*
X145890893Y-76768800D01*
X145890893Y-76768800D02*
X145919464Y-76740228D01*
X145919464Y-76740228D02*
X145976607Y-76654514D01*
X145976607Y-76654514D02*
X146005178Y-76540228D01*
X146005178Y-76540228D02*
X146005178Y-76311657D01*
X146005178Y-76311657D02*
X145976607Y-76254514D01*
X145976607Y-76254514D02*
X145948036Y-76225942D01*
X145948036Y-76225942D02*
X145890893Y-76197371D01*
X145890893Y-76197371D02*
X145776607Y-76197371D01*
X145776607Y-76197371D02*
X145719464Y-76225942D01*
X145719464Y-76225942D02*
X145690893Y-76254514D01*
X145690893Y-76254514D02*
X145662321Y-76311657D01*
X145662321Y-76311657D02*
X145662321Y-76454514D01*
X145662321Y-76454514D02*
X145690893Y-76511657D01*
X145690893Y-76511657D02*
X145719464Y-76540228D01*
X145719464Y-76540228D02*
X145776607Y-76568800D01*
X145776607Y-76568800D02*
X145890893Y-76568800D01*
X145890893Y-76568800D02*
X145948036Y-76540228D01*
X145948036Y-76540228D02*
X145976607Y-76511657D01*
X145976607Y-76511657D02*
X146005178Y-76454514D01*
X152665228Y-89060714D02*
X152693800Y-89089286D01*
X152693800Y-89089286D02*
X152722371Y-89175000D01*
X152722371Y-89175000D02*
X152722371Y-89232143D01*
X152722371Y-89232143D02*
X152693800Y-89317857D01*
X152693800Y-89317857D02*
X152636657Y-89375000D01*
X152636657Y-89375000D02*
X152579514Y-89403571D01*
X152579514Y-89403571D02*
X152465228Y-89432143D01*
X152465228Y-89432143D02*
X152379514Y-89432143D01*
X152379514Y-89432143D02*
X152265228Y-89403571D01*
X152265228Y-89403571D02*
X152208085Y-89375000D01*
X152208085Y-89375000D02*
X152150942Y-89317857D01*
X152150942Y-89317857D02*
X152122371Y-89232143D01*
X152122371Y-89232143D02*
X152122371Y-89175000D01*
X152122371Y-89175000D02*
X152150942Y-89089286D01*
X152150942Y-89089286D02*
X152179514Y-89060714D01*
X152722371Y-88489286D02*
X152722371Y-88832143D01*
X152722371Y-88660714D02*
X152122371Y-88660714D01*
X152122371Y-88660714D02*
X152208085Y-88717857D01*
X152208085Y-88717857D02*
X152265228Y-88775000D01*
X152265228Y-88775000D02*
X152293800Y-88832143D01*
X152122371Y-87946428D02*
X152122371Y-88232142D01*
X152122371Y-88232142D02*
X152408085Y-88260714D01*
X152408085Y-88260714D02*
X152379514Y-88232142D01*
X152379514Y-88232142D02*
X152350942Y-88175000D01*
X152350942Y-88175000D02*
X152350942Y-88032142D01*
X152350942Y-88032142D02*
X152379514Y-87975000D01*
X152379514Y-87975000D02*
X152408085Y-87946428D01*
X152408085Y-87946428D02*
X152465228Y-87917857D01*
X152465228Y-87917857D02*
X152608085Y-87917857D01*
X152608085Y-87917857D02*
X152665228Y-87946428D01*
X152665228Y-87946428D02*
X152693800Y-87975000D01*
X152693800Y-87975000D02*
X152722371Y-88032142D01*
X152722371Y-88032142D02*
X152722371Y-88175000D01*
X152722371Y-88175000D02*
X152693800Y-88232142D01*
X152693800Y-88232142D02*
X152665228Y-88260714D01*
X120072371Y-76099999D02*
X119786657Y-76299999D01*
X120072371Y-76442856D02*
X119472371Y-76442856D01*
X119472371Y-76442856D02*
X119472371Y-76214285D01*
X119472371Y-76214285D02*
X119500942Y-76157142D01*
X119500942Y-76157142D02*
X119529514Y-76128571D01*
X119529514Y-76128571D02*
X119586657Y-76099999D01*
X119586657Y-76099999D02*
X119672371Y-76099999D01*
X119672371Y-76099999D02*
X119729514Y-76128571D01*
X119729514Y-76128571D02*
X119758085Y-76157142D01*
X119758085Y-76157142D02*
X119786657Y-76214285D01*
X119786657Y-76214285D02*
X119786657Y-76442856D01*
X119472371Y-75899999D02*
X119472371Y-75528571D01*
X119472371Y-75528571D02*
X119700942Y-75728571D01*
X119700942Y-75728571D02*
X119700942Y-75642856D01*
X119700942Y-75642856D02*
X119729514Y-75585714D01*
X119729514Y-75585714D02*
X119758085Y-75557142D01*
X119758085Y-75557142D02*
X119815228Y-75528571D01*
X119815228Y-75528571D02*
X119958085Y-75528571D01*
X119958085Y-75528571D02*
X120015228Y-75557142D01*
X120015228Y-75557142D02*
X120043800Y-75585714D01*
X120043800Y-75585714D02*
X120072371Y-75642856D01*
X120072371Y-75642856D02*
X120072371Y-75814285D01*
X120072371Y-75814285D02*
X120043800Y-75871428D01*
X120043800Y-75871428D02*
X120015228Y-75899999D01*
D10*
X129238095Y-85922295D02*
X128971428Y-85541342D01*
X128780952Y-85922295D02*
X128780952Y-85122295D01*
X128780952Y-85122295D02*
X129085714Y-85122295D01*
X129085714Y-85122295D02*
X129161904Y-85160390D01*
X129161904Y-85160390D02*
X129199999Y-85198485D01*
X129199999Y-85198485D02*
X129238095Y-85274676D01*
X129238095Y-85274676D02*
X129238095Y-85388961D01*
X129238095Y-85388961D02*
X129199999Y-85465152D01*
X129199999Y-85465152D02*
X129161904Y-85503247D01*
X129161904Y-85503247D02*
X129085714Y-85541342D01*
X129085714Y-85541342D02*
X128780952Y-85541342D01*
X129923809Y-85922295D02*
X129923809Y-85122295D01*
X129923809Y-85884200D02*
X129847618Y-85922295D01*
X129847618Y-85922295D02*
X129695237Y-85922295D01*
X129695237Y-85922295D02*
X129619047Y-85884200D01*
X129619047Y-85884200D02*
X129580952Y-85846104D01*
X129580952Y-85846104D02*
X129542856Y-85769914D01*
X129542856Y-85769914D02*
X129542856Y-85541342D01*
X129542856Y-85541342D02*
X129580952Y-85465152D01*
X129580952Y-85465152D02*
X129619047Y-85427057D01*
X129619047Y-85427057D02*
X129695237Y-85388961D01*
X129695237Y-85388961D02*
X129847618Y-85388961D01*
X129847618Y-85388961D02*
X129923809Y-85427057D01*
X130304762Y-85922295D02*
X130304762Y-85388961D01*
X130304762Y-85541342D02*
X130342857Y-85465152D01*
X130342857Y-85465152D02*
X130380952Y-85427057D01*
X130380952Y-85427057D02*
X130457143Y-85388961D01*
X130457143Y-85388961D02*
X130533333Y-85388961D01*
D12*
X120442857Y-95172371D02*
X120442857Y-95658085D01*
X120442857Y-95658085D02*
X120471428Y-95715228D01*
X120471428Y-95715228D02*
X120500000Y-95743800D01*
X120500000Y-95743800D02*
X120557142Y-95772371D01*
X120557142Y-95772371D02*
X120671428Y-95772371D01*
X120671428Y-95772371D02*
X120728571Y-95743800D01*
X120728571Y-95743800D02*
X120757142Y-95715228D01*
X120757142Y-95715228D02*
X120785714Y-95658085D01*
X120785714Y-95658085D02*
X120785714Y-95172371D01*
X121042856Y-95229514D02*
X121071428Y-95200942D01*
X121071428Y-95200942D02*
X121128571Y-95172371D01*
X121128571Y-95172371D02*
X121271428Y-95172371D01*
X121271428Y-95172371D02*
X121328571Y-95200942D01*
X121328571Y-95200942D02*
X121357142Y-95229514D01*
X121357142Y-95229514D02*
X121385713Y-95286657D01*
X121385713Y-95286657D02*
X121385713Y-95343800D01*
X121385713Y-95343800D02*
X121357142Y-95429514D01*
X121357142Y-95429514D02*
X121014285Y-95772371D01*
X121014285Y-95772371D02*
X121385713Y-95772371D01*
X148414285Y-88915228D02*
X148385713Y-88943800D01*
X148385713Y-88943800D02*
X148299999Y-88972371D01*
X148299999Y-88972371D02*
X148242856Y-88972371D01*
X148242856Y-88972371D02*
X148157142Y-88943800D01*
X148157142Y-88943800D02*
X148099999Y-88886657D01*
X148099999Y-88886657D02*
X148071428Y-88829514D01*
X148071428Y-88829514D02*
X148042856Y-88715228D01*
X148042856Y-88715228D02*
X148042856Y-88629514D01*
X148042856Y-88629514D02*
X148071428Y-88515228D01*
X148071428Y-88515228D02*
X148099999Y-88458085D01*
X148099999Y-88458085D02*
X148157142Y-88400942D01*
X148157142Y-88400942D02*
X148242856Y-88372371D01*
X148242856Y-88372371D02*
X148299999Y-88372371D01*
X148299999Y-88372371D02*
X148385713Y-88400942D01*
X148385713Y-88400942D02*
X148414285Y-88429514D01*
X148985713Y-88972371D02*
X148642856Y-88972371D01*
X148814285Y-88972371D02*
X148814285Y-88372371D01*
X148814285Y-88372371D02*
X148757142Y-88458085D01*
X148757142Y-88458085D02*
X148699999Y-88515228D01*
X148699999Y-88515228D02*
X148642856Y-88543800D01*
X149500000Y-88372371D02*
X149385714Y-88372371D01*
X149385714Y-88372371D02*
X149328571Y-88400942D01*
X149328571Y-88400942D02*
X149300000Y-88429514D01*
X149300000Y-88429514D02*
X149242857Y-88515228D01*
X149242857Y-88515228D02*
X149214285Y-88629514D01*
X149214285Y-88629514D02*
X149214285Y-88858085D01*
X149214285Y-88858085D02*
X149242857Y-88915228D01*
X149242857Y-88915228D02*
X149271428Y-88943800D01*
X149271428Y-88943800D02*
X149328571Y-88972371D01*
X149328571Y-88972371D02*
X149442857Y-88972371D01*
X149442857Y-88972371D02*
X149500000Y-88943800D01*
X149500000Y-88943800D02*
X149528571Y-88915228D01*
X149528571Y-88915228D02*
X149557142Y-88858085D01*
X149557142Y-88858085D02*
X149557142Y-88715228D01*
X149557142Y-88715228D02*
X149528571Y-88658085D01*
X149528571Y-88658085D02*
X149500000Y-88629514D01*
X149500000Y-88629514D02*
X149442857Y-88600942D01*
X149442857Y-88600942D02*
X149328571Y-88600942D01*
X149328571Y-88600942D02*
X149271428Y-88629514D01*
X149271428Y-88629514D02*
X149242857Y-88658085D01*
X149242857Y-88658085D02*
X149214285Y-88715228D01*
X147842857Y-94372371D02*
X147842857Y-94858085D01*
X147842857Y-94858085D02*
X147871428Y-94915228D01*
X147871428Y-94915228D02*
X147900000Y-94943800D01*
X147900000Y-94943800D02*
X147957142Y-94972371D01*
X147957142Y-94972371D02*
X148071428Y-94972371D01*
X148071428Y-94972371D02*
X148128571Y-94943800D01*
X148128571Y-94943800D02*
X148157142Y-94915228D01*
X148157142Y-94915228D02*
X148185714Y-94858085D01*
X148185714Y-94858085D02*
X148185714Y-94372371D01*
X148728571Y-94372371D02*
X148614285Y-94372371D01*
X148614285Y-94372371D02*
X148557142Y-94400942D01*
X148557142Y-94400942D02*
X148528571Y-94429514D01*
X148528571Y-94429514D02*
X148471428Y-94515228D01*
X148471428Y-94515228D02*
X148442856Y-94629514D01*
X148442856Y-94629514D02*
X148442856Y-94858085D01*
X148442856Y-94858085D02*
X148471428Y-94915228D01*
X148471428Y-94915228D02*
X148499999Y-94943800D01*
X148499999Y-94943800D02*
X148557142Y-94972371D01*
X148557142Y-94972371D02*
X148671428Y-94972371D01*
X148671428Y-94972371D02*
X148728571Y-94943800D01*
X148728571Y-94943800D02*
X148757142Y-94915228D01*
X148757142Y-94915228D02*
X148785713Y-94858085D01*
X148785713Y-94858085D02*
X148785713Y-94715228D01*
X148785713Y-94715228D02*
X148757142Y-94658085D01*
X148757142Y-94658085D02*
X148728571Y-94629514D01*
X148728571Y-94629514D02*
X148671428Y-94600942D01*
X148671428Y-94600942D02*
X148557142Y-94600942D01*
X148557142Y-94600942D02*
X148499999Y-94629514D01*
X148499999Y-94629514D02*
X148471428Y-94658085D01*
X148471428Y-94658085D02*
X148442856Y-94715228D01*
X154899999Y-88772371D02*
X154899999Y-89200942D01*
X154899999Y-89200942D02*
X154871428Y-89286657D01*
X154871428Y-89286657D02*
X154814285Y-89343800D01*
X154814285Y-89343800D02*
X154728571Y-89372371D01*
X154728571Y-89372371D02*
X154671428Y-89372371D01*
X155442857Y-88972371D02*
X155442857Y-89372371D01*
X155299999Y-88743800D02*
X155157142Y-89172371D01*
X155157142Y-89172371D02*
X155528571Y-89172371D01*
X141200000Y-76797371D02*
X140914286Y-76797371D01*
X140914286Y-76797371D02*
X140914286Y-76197371D01*
X141371428Y-76254514D02*
X141400000Y-76225942D01*
X141400000Y-76225942D02*
X141457143Y-76197371D01*
X141457143Y-76197371D02*
X141600000Y-76197371D01*
X141600000Y-76197371D02*
X141657143Y-76225942D01*
X141657143Y-76225942D02*
X141685714Y-76254514D01*
X141685714Y-76254514D02*
X141714285Y-76311657D01*
X141714285Y-76311657D02*
X141714285Y-76368800D01*
X141714285Y-76368800D02*
X141685714Y-76454514D01*
X141685714Y-76454514D02*
X141342857Y-76797371D01*
X141342857Y-76797371D02*
X141714285Y-76797371D01*
X136242857Y-80797371D02*
X136242857Y-81283085D01*
X136242857Y-81283085D02*
X136271428Y-81340228D01*
X136271428Y-81340228D02*
X136300000Y-81368800D01*
X136300000Y-81368800D02*
X136357142Y-81397371D01*
X136357142Y-81397371D02*
X136471428Y-81397371D01*
X136471428Y-81397371D02*
X136528571Y-81368800D01*
X136528571Y-81368800D02*
X136557142Y-81340228D01*
X136557142Y-81340228D02*
X136585714Y-81283085D01*
X136585714Y-81283085D02*
X136585714Y-80797371D01*
X137157142Y-80797371D02*
X136871428Y-80797371D01*
X136871428Y-80797371D02*
X136842856Y-81083085D01*
X136842856Y-81083085D02*
X136871428Y-81054514D01*
X136871428Y-81054514D02*
X136928571Y-81025942D01*
X136928571Y-81025942D02*
X137071428Y-81025942D01*
X137071428Y-81025942D02*
X137128571Y-81054514D01*
X137128571Y-81054514D02*
X137157142Y-81083085D01*
X137157142Y-81083085D02*
X137185713Y-81140228D01*
X137185713Y-81140228D02*
X137185713Y-81283085D01*
X137185713Y-81283085D02*
X137157142Y-81340228D01*
X137157142Y-81340228D02*
X137128571Y-81368800D01*
X137128571Y-81368800D02*
X137071428Y-81397371D01*
X137071428Y-81397371D02*
X136928571Y-81397371D01*
X136928571Y-81397371D02*
X136871428Y-81368800D01*
X136871428Y-81368800D02*
X136842856Y-81340228D01*
X129872371Y-91699999D02*
X129586657Y-91899999D01*
X129872371Y-92042856D02*
X129272371Y-92042856D01*
X129272371Y-92042856D02*
X129272371Y-91814285D01*
X129272371Y-91814285D02*
X129300942Y-91757142D01*
X129300942Y-91757142D02*
X129329514Y-91728571D01*
X129329514Y-91728571D02*
X129386657Y-91699999D01*
X129386657Y-91699999D02*
X129472371Y-91699999D01*
X129472371Y-91699999D02*
X129529514Y-91728571D01*
X129529514Y-91728571D02*
X129558085Y-91757142D01*
X129558085Y-91757142D02*
X129586657Y-91814285D01*
X129586657Y-91814285D02*
X129586657Y-92042856D01*
X129529514Y-91357142D02*
X129500942Y-91414285D01*
X129500942Y-91414285D02*
X129472371Y-91442856D01*
X129472371Y-91442856D02*
X129415228Y-91471428D01*
X129415228Y-91471428D02*
X129386657Y-91471428D01*
X129386657Y-91471428D02*
X129329514Y-91442856D01*
X129329514Y-91442856D02*
X129300942Y-91414285D01*
X129300942Y-91414285D02*
X129272371Y-91357142D01*
X129272371Y-91357142D02*
X129272371Y-91242856D01*
X129272371Y-91242856D02*
X129300942Y-91185714D01*
X129300942Y-91185714D02*
X129329514Y-91157142D01*
X129329514Y-91157142D02*
X129386657Y-91128571D01*
X129386657Y-91128571D02*
X129415228Y-91128571D01*
X129415228Y-91128571D02*
X129472371Y-91157142D01*
X129472371Y-91157142D02*
X129500942Y-91185714D01*
X129500942Y-91185714D02*
X129529514Y-91242856D01*
X129529514Y-91242856D02*
X129529514Y-91357142D01*
X129529514Y-91357142D02*
X129558085Y-91414285D01*
X129558085Y-91414285D02*
X129586657Y-91442856D01*
X129586657Y-91442856D02*
X129643800Y-91471428D01*
X129643800Y-91471428D02*
X129758085Y-91471428D01*
X129758085Y-91471428D02*
X129815228Y-91442856D01*
X129815228Y-91442856D02*
X129843800Y-91414285D01*
X129843800Y-91414285D02*
X129872371Y-91357142D01*
X129872371Y-91357142D02*
X129872371Y-91242856D01*
X129872371Y-91242856D02*
X129843800Y-91185714D01*
X129843800Y-91185714D02*
X129815228Y-91157142D01*
X129815228Y-91157142D02*
X129758085Y-91128571D01*
X129758085Y-91128571D02*
X129643800Y-91128571D01*
X129643800Y-91128571D02*
X129586657Y-91157142D01*
X129586657Y-91157142D02*
X129558085Y-91185714D01*
X129558085Y-91185714D02*
X129529514Y-91242856D01*
X135772371Y-85185714D02*
X135486657Y-85385714D01*
X135772371Y-85528571D02*
X135172371Y-85528571D01*
X135172371Y-85528571D02*
X135172371Y-85300000D01*
X135172371Y-85300000D02*
X135200942Y-85242857D01*
X135200942Y-85242857D02*
X135229514Y-85214286D01*
X135229514Y-85214286D02*
X135286657Y-85185714D01*
X135286657Y-85185714D02*
X135372371Y-85185714D01*
X135372371Y-85185714D02*
X135429514Y-85214286D01*
X135429514Y-85214286D02*
X135458085Y-85242857D01*
X135458085Y-85242857D02*
X135486657Y-85300000D01*
X135486657Y-85300000D02*
X135486657Y-85528571D01*
X135772371Y-84614286D02*
X135772371Y-84957143D01*
X135772371Y-84785714D02*
X135172371Y-84785714D01*
X135172371Y-84785714D02*
X135258085Y-84842857D01*
X135258085Y-84842857D02*
X135315228Y-84900000D01*
X135315228Y-84900000D02*
X135343800Y-84957143D01*
X135172371Y-84242857D02*
X135172371Y-84185714D01*
X135172371Y-84185714D02*
X135200942Y-84128571D01*
X135200942Y-84128571D02*
X135229514Y-84100000D01*
X135229514Y-84100000D02*
X135286657Y-84071428D01*
X135286657Y-84071428D02*
X135400942Y-84042857D01*
X135400942Y-84042857D02*
X135543800Y-84042857D01*
X135543800Y-84042857D02*
X135658085Y-84071428D01*
X135658085Y-84071428D02*
X135715228Y-84100000D01*
X135715228Y-84100000D02*
X135743800Y-84128571D01*
X135743800Y-84128571D02*
X135772371Y-84185714D01*
X135772371Y-84185714D02*
X135772371Y-84242857D01*
X135772371Y-84242857D02*
X135743800Y-84300000D01*
X135743800Y-84300000D02*
X135715228Y-84328571D01*
X135715228Y-84328571D02*
X135658085Y-84357142D01*
X135658085Y-84357142D02*
X135543800Y-84385714D01*
X135543800Y-84385714D02*
X135400942Y-84385714D01*
X135400942Y-84385714D02*
X135286657Y-84357142D01*
X135286657Y-84357142D02*
X135229514Y-84328571D01*
X135229514Y-84328571D02*
X135200942Y-84300000D01*
X135200942Y-84300000D02*
X135172371Y-84242857D01*
D10*
X148719047Y-85024200D02*
X148833333Y-85062295D01*
X148833333Y-85062295D02*
X149023809Y-85062295D01*
X149023809Y-85062295D02*
X149100000Y-85024200D01*
X149100000Y-85024200D02*
X149138095Y-84986104D01*
X149138095Y-84986104D02*
X149176190Y-84909914D01*
X149176190Y-84909914D02*
X149176190Y-84833723D01*
X149176190Y-84833723D02*
X149138095Y-84757533D01*
X149138095Y-84757533D02*
X149100000Y-84719438D01*
X149100000Y-84719438D02*
X149023809Y-84681342D01*
X149023809Y-84681342D02*
X148871428Y-84643247D01*
X148871428Y-84643247D02*
X148795238Y-84605152D01*
X148795238Y-84605152D02*
X148757143Y-84567057D01*
X148757143Y-84567057D02*
X148719047Y-84490866D01*
X148719047Y-84490866D02*
X148719047Y-84414676D01*
X148719047Y-84414676D02*
X148757143Y-84338485D01*
X148757143Y-84338485D02*
X148795238Y-84300390D01*
X148795238Y-84300390D02*
X148871428Y-84262295D01*
X148871428Y-84262295D02*
X149061905Y-84262295D01*
X149061905Y-84262295D02*
X149176190Y-84300390D01*
X149519048Y-85062295D02*
X149519048Y-84528961D01*
X149519048Y-84262295D02*
X149480952Y-84300390D01*
X149480952Y-84300390D02*
X149519048Y-84338485D01*
X149519048Y-84338485D02*
X149557143Y-84300390D01*
X149557143Y-84300390D02*
X149519048Y-84262295D01*
X149519048Y-84262295D02*
X149519048Y-84338485D01*
X150242857Y-84528961D02*
X150242857Y-85176580D01*
X150242857Y-85176580D02*
X150204762Y-85252771D01*
X150204762Y-85252771D02*
X150166666Y-85290866D01*
X150166666Y-85290866D02*
X150090476Y-85328961D01*
X150090476Y-85328961D02*
X149976190Y-85328961D01*
X149976190Y-85328961D02*
X149900000Y-85290866D01*
X150242857Y-85024200D02*
X150166666Y-85062295D01*
X150166666Y-85062295D02*
X150014285Y-85062295D01*
X150014285Y-85062295D02*
X149938095Y-85024200D01*
X149938095Y-85024200D02*
X149900000Y-84986104D01*
X149900000Y-84986104D02*
X149861904Y-84909914D01*
X149861904Y-84909914D02*
X149861904Y-84681342D01*
X149861904Y-84681342D02*
X149900000Y-84605152D01*
X149900000Y-84605152D02*
X149938095Y-84567057D01*
X149938095Y-84567057D02*
X150014285Y-84528961D01*
X150014285Y-84528961D02*
X150166666Y-84528961D01*
X150166666Y-84528961D02*
X150242857Y-84567057D01*
D12*
X122200000Y-84277728D02*
X122171428Y-84306300D01*
X122171428Y-84306300D02*
X122085714Y-84334871D01*
X122085714Y-84334871D02*
X122028571Y-84334871D01*
X122028571Y-84334871D02*
X121942857Y-84306300D01*
X121942857Y-84306300D02*
X121885714Y-84249157D01*
X121885714Y-84249157D02*
X121857143Y-84192014D01*
X121857143Y-84192014D02*
X121828571Y-84077728D01*
X121828571Y-84077728D02*
X121828571Y-83992014D01*
X121828571Y-83992014D02*
X121857143Y-83877728D01*
X121857143Y-83877728D02*
X121885714Y-83820585D01*
X121885714Y-83820585D02*
X121942857Y-83763442D01*
X121942857Y-83763442D02*
X122028571Y-83734871D01*
X122028571Y-83734871D02*
X122085714Y-83734871D01*
X122085714Y-83734871D02*
X122171428Y-83763442D01*
X122171428Y-83763442D02*
X122200000Y-83792014D01*
X122714286Y-83934871D02*
X122714286Y-84334871D01*
X122571428Y-83706300D02*
X122428571Y-84134871D01*
X122428571Y-84134871D02*
X122800000Y-84134871D01*
X132842857Y-93172371D02*
X132842857Y-93658085D01*
X132842857Y-93658085D02*
X132871428Y-93715228D01*
X132871428Y-93715228D02*
X132900000Y-93743800D01*
X132900000Y-93743800D02*
X132957142Y-93772371D01*
X132957142Y-93772371D02*
X133071428Y-93772371D01*
X133071428Y-93772371D02*
X133128571Y-93743800D01*
X133128571Y-93743800D02*
X133157142Y-93715228D01*
X133157142Y-93715228D02*
X133185714Y-93658085D01*
X133185714Y-93658085D02*
X133185714Y-93172371D01*
X133414285Y-93172371D02*
X133814285Y-93172371D01*
X133814285Y-93172371D02*
X133557142Y-93772371D01*
X140072371Y-94285714D02*
X139786657Y-94485714D01*
X140072371Y-94628571D02*
X139472371Y-94628571D01*
X139472371Y-94628571D02*
X139472371Y-94400000D01*
X139472371Y-94400000D02*
X139500942Y-94342857D01*
X139500942Y-94342857D02*
X139529514Y-94314286D01*
X139529514Y-94314286D02*
X139586657Y-94285714D01*
X139586657Y-94285714D02*
X139672371Y-94285714D01*
X139672371Y-94285714D02*
X139729514Y-94314286D01*
X139729514Y-94314286D02*
X139758085Y-94342857D01*
X139758085Y-94342857D02*
X139786657Y-94400000D01*
X139786657Y-94400000D02*
X139786657Y-94628571D01*
X140072371Y-93714286D02*
X140072371Y-94057143D01*
X140072371Y-93885714D02*
X139472371Y-93885714D01*
X139472371Y-93885714D02*
X139558085Y-93942857D01*
X139558085Y-93942857D02*
X139615228Y-94000000D01*
X139615228Y-94000000D02*
X139643800Y-94057143D01*
X139529514Y-93485714D02*
X139500942Y-93457142D01*
X139500942Y-93457142D02*
X139472371Y-93400000D01*
X139472371Y-93400000D02*
X139472371Y-93257142D01*
X139472371Y-93257142D02*
X139500942Y-93200000D01*
X139500942Y-93200000D02*
X139529514Y-93171428D01*
X139529514Y-93171428D02*
X139586657Y-93142857D01*
X139586657Y-93142857D02*
X139643800Y-93142857D01*
X139643800Y-93142857D02*
X139729514Y-93171428D01*
X139729514Y-93171428D02*
X140072371Y-93514285D01*
X140072371Y-93514285D02*
X140072371Y-93142857D01*
X122815228Y-79699999D02*
X122843800Y-79728571D01*
X122843800Y-79728571D02*
X122872371Y-79814285D01*
X122872371Y-79814285D02*
X122872371Y-79871428D01*
X122872371Y-79871428D02*
X122843800Y-79957142D01*
X122843800Y-79957142D02*
X122786657Y-80014285D01*
X122786657Y-80014285D02*
X122729514Y-80042856D01*
X122729514Y-80042856D02*
X122615228Y-80071428D01*
X122615228Y-80071428D02*
X122529514Y-80071428D01*
X122529514Y-80071428D02*
X122415228Y-80042856D01*
X122415228Y-80042856D02*
X122358085Y-80014285D01*
X122358085Y-80014285D02*
X122300942Y-79957142D01*
X122300942Y-79957142D02*
X122272371Y-79871428D01*
X122272371Y-79871428D02*
X122272371Y-79814285D01*
X122272371Y-79814285D02*
X122300942Y-79728571D01*
X122300942Y-79728571D02*
X122329514Y-79699999D01*
X122272371Y-79185714D02*
X122272371Y-79299999D01*
X122272371Y-79299999D02*
X122300942Y-79357142D01*
X122300942Y-79357142D02*
X122329514Y-79385714D01*
X122329514Y-79385714D02*
X122415228Y-79442856D01*
X122415228Y-79442856D02*
X122529514Y-79471428D01*
X122529514Y-79471428D02*
X122758085Y-79471428D01*
X122758085Y-79471428D02*
X122815228Y-79442856D01*
X122815228Y-79442856D02*
X122843800Y-79414285D01*
X122843800Y-79414285D02*
X122872371Y-79357142D01*
X122872371Y-79357142D02*
X122872371Y-79242856D01*
X122872371Y-79242856D02*
X122843800Y-79185714D01*
X122843800Y-79185714D02*
X122815228Y-79157142D01*
X122815228Y-79157142D02*
X122758085Y-79128571D01*
X122758085Y-79128571D02*
X122615228Y-79128571D01*
X122615228Y-79128571D02*
X122558085Y-79157142D01*
X122558085Y-79157142D02*
X122529514Y-79185714D01*
X122529514Y-79185714D02*
X122500942Y-79242856D01*
X122500942Y-79242856D02*
X122500942Y-79357142D01*
X122500942Y-79357142D02*
X122529514Y-79414285D01*
X122529514Y-79414285D02*
X122558085Y-79442856D01*
X122558085Y-79442856D02*
X122615228Y-79471428D01*
X154799999Y-79572371D02*
X154799999Y-80000942D01*
X154799999Y-80000942D02*
X154771428Y-80086657D01*
X154771428Y-80086657D02*
X154714285Y-80143800D01*
X154714285Y-80143800D02*
X154628571Y-80172371D01*
X154628571Y-80172371D02*
X154571428Y-80172371D01*
X155057142Y-79629514D02*
X155085714Y-79600942D01*
X155085714Y-79600942D02*
X155142857Y-79572371D01*
X155142857Y-79572371D02*
X155285714Y-79572371D01*
X155285714Y-79572371D02*
X155342857Y-79600942D01*
X155342857Y-79600942D02*
X155371428Y-79629514D01*
X155371428Y-79629514D02*
X155399999Y-79686657D01*
X155399999Y-79686657D02*
X155399999Y-79743800D01*
X155399999Y-79743800D02*
X155371428Y-79829514D01*
X155371428Y-79829514D02*
X155028571Y-80172371D01*
X155028571Y-80172371D02*
X155399999Y-80172371D01*
X145842857Y-86429514D02*
X145785714Y-86400942D01*
X145785714Y-86400942D02*
X145728571Y-86343800D01*
X145728571Y-86343800D02*
X145642857Y-86258085D01*
X145642857Y-86258085D02*
X145585714Y-86229514D01*
X145585714Y-86229514D02*
X145528571Y-86229514D01*
X145557142Y-86372371D02*
X145500000Y-86343800D01*
X145500000Y-86343800D02*
X145442857Y-86286657D01*
X145442857Y-86286657D02*
X145414285Y-86172371D01*
X145414285Y-86172371D02*
X145414285Y-85972371D01*
X145414285Y-85972371D02*
X145442857Y-85858085D01*
X145442857Y-85858085D02*
X145500000Y-85800942D01*
X145500000Y-85800942D02*
X145557142Y-85772371D01*
X145557142Y-85772371D02*
X145671428Y-85772371D01*
X145671428Y-85772371D02*
X145728571Y-85800942D01*
X145728571Y-85800942D02*
X145785714Y-85858085D01*
X145785714Y-85858085D02*
X145814285Y-85972371D01*
X145814285Y-85972371D02*
X145814285Y-86172371D01*
X145814285Y-86172371D02*
X145785714Y-86286657D01*
X145785714Y-86286657D02*
X145728571Y-86343800D01*
X145728571Y-86343800D02*
X145671428Y-86372371D01*
X145671428Y-86372371D02*
X145557142Y-86372371D01*
X146385713Y-86372371D02*
X146042856Y-86372371D01*
X146214285Y-86372371D02*
X146214285Y-85772371D01*
X146214285Y-85772371D02*
X146157142Y-85858085D01*
X146157142Y-85858085D02*
X146099999Y-85915228D01*
X146099999Y-85915228D02*
X146042856Y-85943800D01*
X138672371Y-93799999D02*
X138386657Y-93999999D01*
X138672371Y-94142856D02*
X138072371Y-94142856D01*
X138072371Y-94142856D02*
X138072371Y-93914285D01*
X138072371Y-93914285D02*
X138100942Y-93857142D01*
X138100942Y-93857142D02*
X138129514Y-93828571D01*
X138129514Y-93828571D02*
X138186657Y-93799999D01*
X138186657Y-93799999D02*
X138272371Y-93799999D01*
X138272371Y-93799999D02*
X138329514Y-93828571D01*
X138329514Y-93828571D02*
X138358085Y-93857142D01*
X138358085Y-93857142D02*
X138386657Y-93914285D01*
X138386657Y-93914285D02*
X138386657Y-94142856D01*
X138072371Y-93599999D02*
X138072371Y-93199999D01*
X138072371Y-93199999D02*
X138672371Y-93457142D01*
X138515228Y-85185714D02*
X138543800Y-85214286D01*
X138543800Y-85214286D02*
X138572371Y-85300000D01*
X138572371Y-85300000D02*
X138572371Y-85357143D01*
X138572371Y-85357143D02*
X138543800Y-85442857D01*
X138543800Y-85442857D02*
X138486657Y-85500000D01*
X138486657Y-85500000D02*
X138429514Y-85528571D01*
X138429514Y-85528571D02*
X138315228Y-85557143D01*
X138315228Y-85557143D02*
X138229514Y-85557143D01*
X138229514Y-85557143D02*
X138115228Y-85528571D01*
X138115228Y-85528571D02*
X138058085Y-85500000D01*
X138058085Y-85500000D02*
X138000942Y-85442857D01*
X138000942Y-85442857D02*
X137972371Y-85357143D01*
X137972371Y-85357143D02*
X137972371Y-85300000D01*
X137972371Y-85300000D02*
X138000942Y-85214286D01*
X138000942Y-85214286D02*
X138029514Y-85185714D01*
X138572371Y-84614286D02*
X138572371Y-84957143D01*
X138572371Y-84785714D02*
X137972371Y-84785714D01*
X137972371Y-84785714D02*
X138058085Y-84842857D01*
X138058085Y-84842857D02*
X138115228Y-84900000D01*
X138115228Y-84900000D02*
X138143800Y-84957143D01*
X138229514Y-84271428D02*
X138200942Y-84328571D01*
X138200942Y-84328571D02*
X138172371Y-84357142D01*
X138172371Y-84357142D02*
X138115228Y-84385714D01*
X138115228Y-84385714D02*
X138086657Y-84385714D01*
X138086657Y-84385714D02*
X138029514Y-84357142D01*
X138029514Y-84357142D02*
X138000942Y-84328571D01*
X138000942Y-84328571D02*
X137972371Y-84271428D01*
X137972371Y-84271428D02*
X137972371Y-84157142D01*
X137972371Y-84157142D02*
X138000942Y-84100000D01*
X138000942Y-84100000D02*
X138029514Y-84071428D01*
X138029514Y-84071428D02*
X138086657Y-84042857D01*
X138086657Y-84042857D02*
X138115228Y-84042857D01*
X138115228Y-84042857D02*
X138172371Y-84071428D01*
X138172371Y-84071428D02*
X138200942Y-84100000D01*
X138200942Y-84100000D02*
X138229514Y-84157142D01*
X138229514Y-84157142D02*
X138229514Y-84271428D01*
X138229514Y-84271428D02*
X138258085Y-84328571D01*
X138258085Y-84328571D02*
X138286657Y-84357142D01*
X138286657Y-84357142D02*
X138343800Y-84385714D01*
X138343800Y-84385714D02*
X138458085Y-84385714D01*
X138458085Y-84385714D02*
X138515228Y-84357142D01*
X138515228Y-84357142D02*
X138543800Y-84328571D01*
X138543800Y-84328571D02*
X138572371Y-84271428D01*
X138572371Y-84271428D02*
X138572371Y-84157142D01*
X138572371Y-84157142D02*
X138543800Y-84100000D01*
X138543800Y-84100000D02*
X138515228Y-84071428D01*
X138515228Y-84071428D02*
X138458085Y-84042857D01*
X138458085Y-84042857D02*
X138343800Y-84042857D01*
X138343800Y-84042857D02*
X138286657Y-84071428D01*
X138286657Y-84071428D02*
X138258085Y-84100000D01*
X138258085Y-84100000D02*
X138229514Y-84157142D01*
X150302857Y-81972371D02*
X150302857Y-82458085D01*
X150302857Y-82458085D02*
X150331428Y-82515228D01*
X150331428Y-82515228D02*
X150360000Y-82543800D01*
X150360000Y-82543800D02*
X150417142Y-82572371D01*
X150417142Y-82572371D02*
X150531428Y-82572371D01*
X150531428Y-82572371D02*
X150588571Y-82543800D01*
X150588571Y-82543800D02*
X150617142Y-82515228D01*
X150617142Y-82515228D02*
X150645714Y-82458085D01*
X150645714Y-82458085D02*
X150645714Y-81972371D01*
X151245713Y-82572371D02*
X150902856Y-82572371D01*
X151074285Y-82572371D02*
X151074285Y-81972371D01*
X151074285Y-81972371D02*
X151017142Y-82058085D01*
X151017142Y-82058085D02*
X150959999Y-82115228D01*
X150959999Y-82115228D02*
X150902856Y-82143800D01*
X131214285Y-81911657D02*
X131214285Y-82197371D01*
X131014285Y-81597371D02*
X131214285Y-81911657D01*
X131214285Y-81911657D02*
X131414285Y-81597371D01*
X131928571Y-82197371D02*
X131585714Y-82197371D01*
X131757143Y-82197371D02*
X131757143Y-81597371D01*
X131757143Y-81597371D02*
X131700000Y-81683085D01*
X131700000Y-81683085D02*
X131642857Y-81740228D01*
X131642857Y-81740228D02*
X131585714Y-81768800D01*
X143115228Y-95785714D02*
X143143800Y-95814286D01*
X143143800Y-95814286D02*
X143172371Y-95900000D01*
X143172371Y-95900000D02*
X143172371Y-95957143D01*
X143172371Y-95957143D02*
X143143800Y-96042857D01*
X143143800Y-96042857D02*
X143086657Y-96100000D01*
X143086657Y-96100000D02*
X143029514Y-96128571D01*
X143029514Y-96128571D02*
X142915228Y-96157143D01*
X142915228Y-96157143D02*
X142829514Y-96157143D01*
X142829514Y-96157143D02*
X142715228Y-96128571D01*
X142715228Y-96128571D02*
X142658085Y-96100000D01*
X142658085Y-96100000D02*
X142600942Y-96042857D01*
X142600942Y-96042857D02*
X142572371Y-95957143D01*
X142572371Y-95957143D02*
X142572371Y-95900000D01*
X142572371Y-95900000D02*
X142600942Y-95814286D01*
X142600942Y-95814286D02*
X142629514Y-95785714D01*
X143172371Y-95214286D02*
X143172371Y-95557143D01*
X143172371Y-95385714D02*
X142572371Y-95385714D01*
X142572371Y-95385714D02*
X142658085Y-95442857D01*
X142658085Y-95442857D02*
X142715228Y-95500000D01*
X142715228Y-95500000D02*
X142743800Y-95557143D01*
X142629514Y-94985714D02*
X142600942Y-94957142D01*
X142600942Y-94957142D02*
X142572371Y-94900000D01*
X142572371Y-94900000D02*
X142572371Y-94757142D01*
X142572371Y-94757142D02*
X142600942Y-94700000D01*
X142600942Y-94700000D02*
X142629514Y-94671428D01*
X142629514Y-94671428D02*
X142686657Y-94642857D01*
X142686657Y-94642857D02*
X142743800Y-94642857D01*
X142743800Y-94642857D02*
X142829514Y-94671428D01*
X142829514Y-94671428D02*
X143172371Y-95014285D01*
X143172371Y-95014285D02*
X143172371Y-94642857D01*
X145172371Y-80899999D02*
X144886657Y-81099999D01*
X145172371Y-81242856D02*
X144572371Y-81242856D01*
X144572371Y-81242856D02*
X144572371Y-81014285D01*
X144572371Y-81014285D02*
X144600942Y-80957142D01*
X144600942Y-80957142D02*
X144629514Y-80928571D01*
X144629514Y-80928571D02*
X144686657Y-80899999D01*
X144686657Y-80899999D02*
X144772371Y-80899999D01*
X144772371Y-80899999D02*
X144829514Y-80928571D01*
X144829514Y-80928571D02*
X144858085Y-80957142D01*
X144858085Y-80957142D02*
X144886657Y-81014285D01*
X144886657Y-81014285D02*
X144886657Y-81242856D01*
X145172371Y-80328571D02*
X145172371Y-80671428D01*
X145172371Y-80499999D02*
X144572371Y-80499999D01*
X144572371Y-80499999D02*
X144658085Y-80557142D01*
X144658085Y-80557142D02*
X144715228Y-80614285D01*
X144715228Y-80614285D02*
X144743800Y-80671428D01*
X133915228Y-73324999D02*
X133943800Y-73353571D01*
X133943800Y-73353571D02*
X133972371Y-73439285D01*
X133972371Y-73439285D02*
X133972371Y-73496428D01*
X133972371Y-73496428D02*
X133943800Y-73582142D01*
X133943800Y-73582142D02*
X133886657Y-73639285D01*
X133886657Y-73639285D02*
X133829514Y-73667856D01*
X133829514Y-73667856D02*
X133715228Y-73696428D01*
X133715228Y-73696428D02*
X133629514Y-73696428D01*
X133629514Y-73696428D02*
X133515228Y-73667856D01*
X133515228Y-73667856D02*
X133458085Y-73639285D01*
X133458085Y-73639285D02*
X133400942Y-73582142D01*
X133400942Y-73582142D02*
X133372371Y-73496428D01*
X133372371Y-73496428D02*
X133372371Y-73439285D01*
X133372371Y-73439285D02*
X133400942Y-73353571D01*
X133400942Y-73353571D02*
X133429514Y-73324999D01*
X133372371Y-73124999D02*
X133372371Y-72724999D01*
X133372371Y-72724999D02*
X133972371Y-72982142D01*
X134372371Y-85185714D02*
X134086657Y-85385714D01*
X134372371Y-85528571D02*
X133772371Y-85528571D01*
X133772371Y-85528571D02*
X133772371Y-85300000D01*
X133772371Y-85300000D02*
X133800942Y-85242857D01*
X133800942Y-85242857D02*
X133829514Y-85214286D01*
X133829514Y-85214286D02*
X133886657Y-85185714D01*
X133886657Y-85185714D02*
X133972371Y-85185714D01*
X133972371Y-85185714D02*
X134029514Y-85214286D01*
X134029514Y-85214286D02*
X134058085Y-85242857D01*
X134058085Y-85242857D02*
X134086657Y-85300000D01*
X134086657Y-85300000D02*
X134086657Y-85528571D01*
X134372371Y-84614286D02*
X134372371Y-84957143D01*
X134372371Y-84785714D02*
X133772371Y-84785714D01*
X133772371Y-84785714D02*
X133858085Y-84842857D01*
X133858085Y-84842857D02*
X133915228Y-84900000D01*
X133915228Y-84900000D02*
X133943800Y-84957143D01*
X134372371Y-84042857D02*
X134372371Y-84385714D01*
X134372371Y-84214285D02*
X133772371Y-84214285D01*
X133772371Y-84214285D02*
X133858085Y-84271428D01*
X133858085Y-84271428D02*
X133915228Y-84328571D01*
X133915228Y-84328571D02*
X133943800Y-84385714D01*
X116472371Y-84799999D02*
X116186657Y-84999999D01*
X116472371Y-85142856D02*
X115872371Y-85142856D01*
X115872371Y-85142856D02*
X115872371Y-84914285D01*
X115872371Y-84914285D02*
X115900942Y-84857142D01*
X115900942Y-84857142D02*
X115929514Y-84828571D01*
X115929514Y-84828571D02*
X115986657Y-84799999D01*
X115986657Y-84799999D02*
X116072371Y-84799999D01*
X116072371Y-84799999D02*
X116129514Y-84828571D01*
X116129514Y-84828571D02*
X116158085Y-84857142D01*
X116158085Y-84857142D02*
X116186657Y-84914285D01*
X116186657Y-84914285D02*
X116186657Y-85142856D01*
X115929514Y-84571428D02*
X115900942Y-84542856D01*
X115900942Y-84542856D02*
X115872371Y-84485714D01*
X115872371Y-84485714D02*
X115872371Y-84342856D01*
X115872371Y-84342856D02*
X115900942Y-84285714D01*
X115900942Y-84285714D02*
X115929514Y-84257142D01*
X115929514Y-84257142D02*
X115986657Y-84228571D01*
X115986657Y-84228571D02*
X116043800Y-84228571D01*
X116043800Y-84228571D02*
X116129514Y-84257142D01*
X116129514Y-84257142D02*
X116472371Y-84599999D01*
X116472371Y-84599999D02*
X116472371Y-84228571D01*
X127700000Y-80015228D02*
X127671428Y-80043800D01*
X127671428Y-80043800D02*
X127585714Y-80072371D01*
X127585714Y-80072371D02*
X127528571Y-80072371D01*
X127528571Y-80072371D02*
X127442857Y-80043800D01*
X127442857Y-80043800D02*
X127385714Y-79986657D01*
X127385714Y-79986657D02*
X127357143Y-79929514D01*
X127357143Y-79929514D02*
X127328571Y-79815228D01*
X127328571Y-79815228D02*
X127328571Y-79729514D01*
X127328571Y-79729514D02*
X127357143Y-79615228D01*
X127357143Y-79615228D02*
X127385714Y-79558085D01*
X127385714Y-79558085D02*
X127442857Y-79500942D01*
X127442857Y-79500942D02*
X127528571Y-79472371D01*
X127528571Y-79472371D02*
X127585714Y-79472371D01*
X127585714Y-79472371D02*
X127671428Y-79500942D01*
X127671428Y-79500942D02*
X127700000Y-79529514D01*
X128242857Y-79472371D02*
X127957143Y-79472371D01*
X127957143Y-79472371D02*
X127928571Y-79758085D01*
X127928571Y-79758085D02*
X127957143Y-79729514D01*
X127957143Y-79729514D02*
X128014286Y-79700942D01*
X128014286Y-79700942D02*
X128157143Y-79700942D01*
X128157143Y-79700942D02*
X128214286Y-79729514D01*
X128214286Y-79729514D02*
X128242857Y-79758085D01*
X128242857Y-79758085D02*
X128271428Y-79815228D01*
X128271428Y-79815228D02*
X128271428Y-79958085D01*
X128271428Y-79958085D02*
X128242857Y-80015228D01*
X128242857Y-80015228D02*
X128214286Y-80043800D01*
X128214286Y-80043800D02*
X128157143Y-80072371D01*
X128157143Y-80072371D02*
X128014286Y-80072371D01*
X128014286Y-80072371D02*
X127957143Y-80043800D01*
X127957143Y-80043800D02*
X127928571Y-80015228D01*
X143615228Y-76310714D02*
X143643800Y-76339286D01*
X143643800Y-76339286D02*
X143672371Y-76425000D01*
X143672371Y-76425000D02*
X143672371Y-76482143D01*
X143672371Y-76482143D02*
X143643800Y-76567857D01*
X143643800Y-76567857D02*
X143586657Y-76625000D01*
X143586657Y-76625000D02*
X143529514Y-76653571D01*
X143529514Y-76653571D02*
X143415228Y-76682143D01*
X143415228Y-76682143D02*
X143329514Y-76682143D01*
X143329514Y-76682143D02*
X143215228Y-76653571D01*
X143215228Y-76653571D02*
X143158085Y-76625000D01*
X143158085Y-76625000D02*
X143100942Y-76567857D01*
X143100942Y-76567857D02*
X143072371Y-76482143D01*
X143072371Y-76482143D02*
X143072371Y-76425000D01*
X143072371Y-76425000D02*
X143100942Y-76339286D01*
X143100942Y-76339286D02*
X143129514Y-76310714D01*
X143672371Y-75739286D02*
X143672371Y-76082143D01*
X143672371Y-75910714D02*
X143072371Y-75910714D01*
X143072371Y-75910714D02*
X143158085Y-75967857D01*
X143158085Y-75967857D02*
X143215228Y-76025000D01*
X143215228Y-76025000D02*
X143243800Y-76082143D01*
X143672371Y-75167857D02*
X143672371Y-75510714D01*
X143672371Y-75339285D02*
X143072371Y-75339285D01*
X143072371Y-75339285D02*
X143158085Y-75396428D01*
X143158085Y-75396428D02*
X143215228Y-75453571D01*
X143215228Y-75453571D02*
X143243800Y-75510714D01*
D10*
X126107618Y-90122295D02*
X126564761Y-90122295D01*
X126336189Y-90922295D02*
X126336189Y-90122295D01*
X127174285Y-90922295D02*
X127174285Y-90503247D01*
X127174285Y-90503247D02*
X127136190Y-90427057D01*
X127136190Y-90427057D02*
X127059999Y-90388961D01*
X127059999Y-90388961D02*
X126907618Y-90388961D01*
X126907618Y-90388961D02*
X126831428Y-90427057D01*
X127174285Y-90884200D02*
X127098094Y-90922295D01*
X127098094Y-90922295D02*
X126907618Y-90922295D01*
X126907618Y-90922295D02*
X126831428Y-90884200D01*
X126831428Y-90884200D02*
X126793332Y-90808009D01*
X126793332Y-90808009D02*
X126793332Y-90731819D01*
X126793332Y-90731819D02*
X126831428Y-90655628D01*
X126831428Y-90655628D02*
X126907618Y-90617533D01*
X126907618Y-90617533D02*
X127098094Y-90617533D01*
X127098094Y-90617533D02*
X127174285Y-90579438D01*
X127898095Y-90388961D02*
X127898095Y-91036580D01*
X127898095Y-91036580D02*
X127860000Y-91112771D01*
X127860000Y-91112771D02*
X127821904Y-91150866D01*
X127821904Y-91150866D02*
X127745714Y-91188961D01*
X127745714Y-91188961D02*
X127631428Y-91188961D01*
X127631428Y-91188961D02*
X127555238Y-91150866D01*
X127898095Y-90884200D02*
X127821904Y-90922295D01*
X127821904Y-90922295D02*
X127669523Y-90922295D01*
X127669523Y-90922295D02*
X127593333Y-90884200D01*
X127593333Y-90884200D02*
X127555238Y-90846104D01*
X127555238Y-90846104D02*
X127517142Y-90769914D01*
X127517142Y-90769914D02*
X127517142Y-90541342D01*
X127517142Y-90541342D02*
X127555238Y-90465152D01*
X127555238Y-90465152D02*
X127593333Y-90427057D01*
X127593333Y-90427057D02*
X127669523Y-90388961D01*
X127669523Y-90388961D02*
X127821904Y-90388961D01*
X127821904Y-90388961D02*
X127898095Y-90427057D01*
D13*
%TO.C,U4*%
X121490000Y-73890000D02*
X121965000Y-73890000D01*
X121490000Y-74365000D02*
X121490000Y-73890000D01*
X125235000Y-73890000D02*
X125470000Y-73890000D01*
X125710000Y-74365000D02*
X125710000Y-74190000D01*
X125710000Y-77635000D02*
X125710000Y-78110000D01*
X125710000Y-78110000D02*
X125235000Y-78110000D01*
X126040000Y-74130000D02*
X125710000Y-73890000D01*
X126040000Y-73650000D01*
X126040000Y-74130000D01*
G36*
X126040000Y-74130000D02*
G01*
X125710000Y-73890000D01*
X126040000Y-73650000D01*
X126040000Y-74130000D01*
G37*
%TO.C,C8*%
X135490000Y-75284420D02*
X135490000Y-75565580D01*
X136510000Y-75284420D02*
X136510000Y-75565580D01*
%TO.C,C2*%
X126890000Y-75540580D02*
X126890000Y-75259420D01*
X127910000Y-75540580D02*
X127910000Y-75259420D01*
%TO.C,L3*%
X151890000Y-94037221D02*
X151890000Y-94362779D01*
X152910000Y-94037221D02*
X152910000Y-94362779D01*
%TO.C,R6*%
X133537258Y-88877500D02*
X133062742Y-88877500D01*
X133537258Y-89922500D02*
X133062742Y-89922500D01*
%TO.C,C10*%
X138590000Y-78359420D02*
X138590000Y-78640580D01*
X139610000Y-78359420D02*
X139610000Y-78640580D01*
%TO.C,Q2*%
X140140000Y-88500000D02*
X140140000Y-87850000D01*
X140140000Y-88500000D02*
X140140000Y-89150000D01*
X143260000Y-88500000D02*
X143260000Y-87850000D01*
X143260000Y-88500000D02*
X143260000Y-89150000D01*
X143540000Y-87577500D02*
X143210000Y-87337500D01*
X143540000Y-87097500D01*
X143540000Y-87577500D01*
G36*
X143540000Y-87577500D02*
G01*
X143210000Y-87337500D01*
X143540000Y-87097500D01*
X143540000Y-87577500D01*
G37*
%TO.C,C17*%
X136490000Y-91540580D02*
X136490000Y-91259420D01*
X137510000Y-91540580D02*
X137510000Y-91259420D01*
%TO.C,C19*%
X135090000Y-91259420D02*
X135090000Y-91540580D01*
X136110000Y-91259420D02*
X136110000Y-91540580D01*
%TO.C,U3*%
X125162500Y-80852500D02*
X124362500Y-80852500D01*
X125162500Y-80852500D02*
X125962500Y-80852500D01*
X125162500Y-83972500D02*
X124362500Y-83972500D01*
X125162500Y-83972500D02*
X125962500Y-83972500D01*
X123862500Y-80902500D02*
X123622500Y-80572500D01*
X124102500Y-80572500D01*
X123862500Y-80902500D01*
G36*
X123862500Y-80902500D02*
G01*
X123622500Y-80572500D01*
X124102500Y-80572500D01*
X123862500Y-80902500D01*
G37*
%TO.C,L1*%
X137190000Y-76774721D02*
X137190000Y-77100279D01*
X138210000Y-76774721D02*
X138210000Y-77100279D01*
%TO.C,C3*%
X120290000Y-82303080D02*
X120290000Y-82021920D01*
X121310000Y-82303080D02*
X121310000Y-82021920D01*
%TO.C,D1*%
X114400000Y-93480000D02*
X114120000Y-93200000D01*
X114400000Y-93200000D01*
X114400000Y-93480000D01*
G36*
X114400000Y-93480000D02*
G01*
X114120000Y-93200000D01*
X114400000Y-93200000D01*
X114400000Y-93480000D01*
G37*
%TO.C,J1*%
X110470000Y-93610000D02*
X110470000Y-83390000D01*
X113130000Y-83390000D02*
X110470000Y-83390000D01*
X113130000Y-93610000D02*
X110470000Y-93610000D01*
X113130000Y-93610000D02*
X113130000Y-83390000D01*
X113130000Y-94880000D02*
X113130000Y-96210000D01*
X113130000Y-96210000D02*
X111800000Y-96210000D01*
%TO.C,C20*%
X143740580Y-85290000D02*
X143459420Y-85290000D01*
X143740580Y-86310000D02*
X143459420Y-86310000D01*
%TO.C,R4*%
X119277500Y-79062742D02*
X119277500Y-79537258D01*
X120322500Y-79062742D02*
X120322500Y-79537258D01*
%TO.C,R5*%
X129562742Y-94477500D02*
X130037258Y-94477500D01*
X129562742Y-95522500D02*
X130037258Y-95522500D01*
%TO.C,C1*%
X124890000Y-85920580D02*
X124890000Y-85639420D01*
X125910000Y-85920580D02*
X125910000Y-85639420D01*
%TO.C,J3*%
X113800000Y-72830000D02*
X115500000Y-72830000D01*
X113800000Y-82170000D02*
X115500000Y-82170000D01*
%TO.C,C13*%
X144990000Y-95140580D02*
X144990000Y-94859420D01*
X146010000Y-95140580D02*
X146010000Y-94859420D01*
%TO.C,R9*%
X136377500Y-87437258D02*
X136377500Y-86962742D01*
X137422500Y-87437258D02*
X137422500Y-86962742D01*
%TO.C,C9*%
X145640580Y-77215000D02*
X145359420Y-77215000D01*
X145640580Y-78235000D02*
X145359420Y-78235000D01*
%TO.C,C15*%
X151890000Y-91340580D02*
X151890000Y-91059420D01*
X152910000Y-91340580D02*
X152910000Y-91059420D01*
%TO.C,R3*%
X119277500Y-74237258D02*
X119277500Y-73762742D01*
X120322500Y-74237258D02*
X120322500Y-73762742D01*
%TO.C,U2*%
X120900000Y-85965000D02*
X118950000Y-85965000D01*
X120900000Y-85965000D02*
X122850000Y-85965000D01*
X120900000Y-94835000D02*
X118950000Y-94835000D01*
X120900000Y-94835000D02*
X122850000Y-94835000D01*
X118200000Y-86030000D02*
X117960000Y-85700000D01*
X118440000Y-85700000D01*
X118200000Y-86030000D01*
G36*
X118200000Y-86030000D02*
G01*
X117960000Y-85700000D01*
X118440000Y-85700000D01*
X118200000Y-86030000D01*
G37*
%TO.C,C16*%
X148940580Y-89290000D02*
X148659420Y-89290000D01*
X148940580Y-90310000D02*
X148659420Y-90310000D01*
%TO.C,U6*%
X148300000Y-90690000D02*
X146800000Y-90690000D01*
X148300000Y-90690000D02*
X149800000Y-90690000D01*
X148300000Y-93910000D02*
X146800000Y-93910000D01*
X148300000Y-93910000D02*
X149800000Y-93910000D01*
X150752500Y-94065000D02*
X150272500Y-94065000D01*
X150512500Y-93735000D01*
X150752500Y-94065000D01*
G36*
X150752500Y-94065000D02*
G01*
X150272500Y-94065000D01*
X150512500Y-93735000D01*
X150752500Y-94065000D01*
G37*
%TO.C,J4*%
X155240000Y-91750000D02*
X155240000Y-92250000D01*
X155240000Y-92250000D02*
X155740000Y-92000000D01*
X155740000Y-92000000D02*
X155240000Y-91750000D01*
X156290000Y-91160000D02*
X156290000Y-90050000D01*
X156290000Y-93950000D02*
X156290000Y-92840000D01*
X159540000Y-91160000D02*
X159540000Y-90050000D01*
X159540000Y-93950000D02*
X159540000Y-92840000D01*
%TO.C,L2*%
X141137221Y-77215000D02*
X141462779Y-77215000D01*
X141137221Y-78235000D02*
X141462779Y-78235000D01*
%TO.C,U5*%
X133800000Y-77115000D02*
X132300000Y-77115000D01*
X133800000Y-77115000D02*
X135300000Y-77115000D01*
X133800000Y-80335000D02*
X132300000Y-80335000D01*
X133800000Y-80335000D02*
X135300000Y-80335000D01*
X136252500Y-80465000D02*
X135772500Y-80465000D01*
X136012500Y-80135000D01*
X136252500Y-80465000D01*
G36*
X136252500Y-80465000D02*
G01*
X135772500Y-80465000D01*
X136012500Y-80135000D01*
X136252500Y-80465000D01*
G37*
%TO.C,R8*%
X130277500Y-91837258D02*
X130277500Y-91362742D01*
X131322500Y-91837258D02*
X131322500Y-91362742D01*
%TO.C,R10*%
X134977500Y-86962742D02*
X134977500Y-87437258D01*
X136022500Y-86962742D02*
X136022500Y-87437258D01*
%TO.C,C4*%
X121790000Y-82303080D02*
X121790000Y-82021920D01*
X122810000Y-82303080D02*
X122810000Y-82021920D01*
%TO.C,U7*%
X133900000Y-90440000D02*
X132500000Y-90440000D01*
X133910000Y-92760000D02*
X132500000Y-92760000D01*
X134520000Y-93040000D02*
X134040000Y-93040000D01*
X134280000Y-92710000D01*
X134520000Y-93040000D01*
G36*
X134520000Y-93040000D02*
G01*
X134040000Y-93040000D01*
X134280000Y-92710000D01*
X134520000Y-93040000D01*
G37*
%TO.C,R12*%
X139277500Y-91162742D02*
X139277500Y-91637258D01*
X140322500Y-91162742D02*
X140322500Y-91637258D01*
%TO.C,C6*%
X120790000Y-79440580D02*
X120790000Y-79159420D01*
X121810000Y-79440580D02*
X121810000Y-79159420D01*
%TO.C,J2*%
X155240000Y-76750000D02*
X155240000Y-77250000D01*
X155240000Y-77250000D02*
X155740000Y-77000000D01*
X155740000Y-77000000D02*
X155240000Y-76750000D01*
X156290000Y-76160000D02*
X156290000Y-75050000D01*
X156290000Y-78950000D02*
X156290000Y-77840000D01*
X159540000Y-76160000D02*
X159540000Y-75050000D01*
X159540000Y-78950000D02*
X159540000Y-77840000D01*
%TO.C,Q1*%
X143740000Y-88500000D02*
X143740000Y-87850000D01*
X143740000Y-88500000D02*
X143740000Y-89150000D01*
X146860000Y-88500000D02*
X146860000Y-87850000D01*
X146860000Y-88500000D02*
X146860000Y-89150000D01*
X143790000Y-89662500D02*
X143460000Y-89902500D01*
X143460000Y-89422500D01*
X143790000Y-89662500D01*
G36*
X143790000Y-89662500D02*
G01*
X143460000Y-89902500D01*
X143460000Y-89422500D01*
X143790000Y-89662500D01*
G37*
%TO.C,R7*%
X137877500Y-91637258D02*
X137877500Y-91162742D01*
X138922500Y-91637258D02*
X138922500Y-91162742D01*
%TO.C,C18*%
X137790000Y-87059420D02*
X137790000Y-87340580D01*
X138810000Y-87059420D02*
X138810000Y-87340580D01*
%TO.C,Y1*%
X135050000Y-80775000D02*
X132350000Y-80775000D01*
X135050000Y-83075000D02*
X135050000Y-80775000D01*
%TO.C,C12*%
X143590000Y-95140580D02*
X143590000Y-94859420D01*
X144610000Y-95140580D02*
X144610000Y-94859420D01*
%TO.C,R1*%
X145577500Y-81037258D02*
X145577500Y-80562742D01*
X146622500Y-81037258D02*
X146622500Y-80562742D01*
%TO.C,C14*%
X153315580Y-91490000D02*
X153034420Y-91490000D01*
X153315580Y-92510000D02*
X153034420Y-92510000D01*
%TO.C,C7*%
X133190000Y-75565580D02*
X133190000Y-75284420D01*
X134210000Y-75565580D02*
X134210000Y-75284420D01*
%TO.C,R11*%
X133577500Y-86962742D02*
X133577500Y-87437258D01*
X134622500Y-86962742D02*
X134622500Y-87437258D01*
%TO.C,R2*%
X115677500Y-86662742D02*
X115677500Y-87137258D01*
X116722500Y-86662742D02*
X116722500Y-87137258D01*
%TO.C,C5*%
X125421920Y-79302500D02*
X125703080Y-79302500D01*
X125421920Y-80322500D02*
X125703080Y-80322500D01*
%TO.C,C11*%
X142890000Y-78359420D02*
X142890000Y-78640580D01*
X143910000Y-78359420D02*
X143910000Y-78640580D01*
%TD*%
%LPC*%
D14*
%TO.C,U4*%
X124850000Y-74062500D03*
X124350000Y-74062500D03*
X123850000Y-74062500D03*
X123350000Y-74062500D03*
X122850000Y-74062500D03*
X122350000Y-74062500D03*
D15*
X121662500Y-74750000D03*
X121662500Y-75250000D03*
X121662500Y-75750000D03*
X121662500Y-76250000D03*
X121662500Y-76750000D03*
X121662500Y-77250000D03*
D14*
X122350000Y-77937500D03*
X122850000Y-77937500D03*
X123350000Y-77937500D03*
X123850000Y-77937500D03*
X124350000Y-77937500D03*
X124850000Y-77937500D03*
D15*
X125537500Y-77250000D03*
X125537500Y-76750000D03*
X125537500Y-76250000D03*
X125537500Y-75750000D03*
X125537500Y-75250000D03*
X125537500Y-74750000D03*
D16*
X123600000Y-76000000D03*
%TD*%
D17*
%TO.C,C8*%
X136000000Y-74650000D03*
X136000000Y-76200000D03*
%TD*%
D18*
%TO.C,C2*%
X127400000Y-76175000D03*
X127400000Y-74625000D03*
%TD*%
D19*
%TO.C,L3*%
X152400000Y-93412500D03*
X152400000Y-94987500D03*
%TD*%
D20*
%TO.C,R6*%
X134125000Y-89400000D03*
X132475000Y-89400000D03*
%TD*%
D21*
%TO.C,TP2*%
X127040000Y-94860000D03*
%TD*%
D17*
%TO.C,C10*%
X139100000Y-77725000D03*
X139100000Y-79275000D03*
%TD*%
D22*
%TO.C,Q2*%
X142650000Y-87562500D03*
X140750000Y-87562500D03*
X141700000Y-89437500D03*
%TD*%
D18*
%TO.C,C17*%
X137000000Y-92175000D03*
X137000000Y-90625000D03*
%TD*%
D17*
%TO.C,C19*%
X135600000Y-90625000D03*
X135600000Y-92175000D03*
%TD*%
D23*
%TO.C,U3*%
X124025000Y-81462500D03*
X124025000Y-82412500D03*
X124025000Y-83362500D03*
X126300000Y-83362500D03*
X126300000Y-81462500D03*
%TD*%
D19*
%TO.C,L1*%
X137700000Y-76150000D03*
X137700000Y-77725000D03*
%TD*%
D18*
%TO.C,C3*%
X120800000Y-82937500D03*
X120800000Y-81387500D03*
%TD*%
D24*
%TO.C,D1*%
X115050000Y-92200000D03*
X115050000Y-89400000D03*
X116550000Y-92200000D03*
X116550000Y-89400000D03*
%TD*%
D25*
%TO.C,J1*%
X111800000Y-94880000D03*
D26*
X111800000Y-92340000D03*
X111800000Y-89800000D03*
X111800000Y-87260000D03*
X111800000Y-84720000D03*
%TD*%
D27*
%TO.C,C20*%
X144375000Y-85800000D03*
X142825000Y-85800000D03*
%TD*%
D28*
%TO.C,H1*%
X157000000Y-84500000D03*
%TD*%
D21*
%TO.C,TP5*%
X139740000Y-84700000D03*
%TD*%
D29*
%TO.C,R4*%
X119800000Y-78475000D03*
X119800000Y-80125000D03*
%TD*%
D30*
%TO.C,R5*%
X128975000Y-95000000D03*
X130625000Y-95000000D03*
%TD*%
D18*
%TO.C,C1*%
X125400000Y-86555000D03*
X125400000Y-85005000D03*
%TD*%
D31*
%TO.C,J3*%
X116305000Y-74610000D03*
X116305000Y-80390000D03*
D32*
X117380000Y-74300000D03*
X117380000Y-75100000D03*
D33*
X117380000Y-76250000D03*
X117380000Y-77250000D03*
X117380000Y-77750000D03*
X117380000Y-78750000D03*
D32*
X117380000Y-79900000D03*
X117380000Y-80700000D03*
X117380000Y-80700000D03*
X117380000Y-79900000D03*
D33*
X117380000Y-79250000D03*
X117380000Y-78250000D03*
X117380000Y-76750000D03*
X117380000Y-75750000D03*
D32*
X117380000Y-75100000D03*
X117380000Y-74300000D03*
D34*
X116805000Y-73180000D03*
D35*
X112625000Y-73180000D03*
D34*
X116805000Y-81820000D03*
D35*
X112625000Y-81820000D03*
%TD*%
D18*
%TO.C,C13*%
X145500000Y-95775000D03*
X145500000Y-94225000D03*
%TD*%
D36*
%TO.C,R9*%
X136900000Y-88025000D03*
X136900000Y-86375000D03*
%TD*%
D27*
%TO.C,C9*%
X146275000Y-77725000D03*
X144725000Y-77725000D03*
%TD*%
D18*
%TO.C,C15*%
X152400000Y-91975000D03*
X152400000Y-90425000D03*
%TD*%
D36*
%TO.C,R3*%
X119800000Y-74825000D03*
X119800000Y-73175000D03*
%TD*%
D21*
%TO.C,TP1*%
X129580000Y-87240000D03*
%TD*%
D37*
%TO.C,U2*%
X118425000Y-86590000D03*
X118425000Y-87860000D03*
X118425000Y-89130000D03*
X118425000Y-90400000D03*
X118425000Y-91670000D03*
X118425000Y-92940000D03*
X118425000Y-94210000D03*
X123375000Y-94210000D03*
X123375000Y-92940000D03*
X123375000Y-91670000D03*
X123375000Y-90400000D03*
X123375000Y-89130000D03*
X123375000Y-87860000D03*
X123375000Y-86590000D03*
%TD*%
D27*
%TO.C,C16*%
X149575000Y-89800000D03*
X148025000Y-89800000D03*
%TD*%
D38*
%TO.C,U6*%
X150412500Y-93275000D03*
X150412500Y-92625000D03*
X150412500Y-91975000D03*
X150412500Y-91325000D03*
X146187500Y-91325000D03*
X146187500Y-91975000D03*
X146187500Y-92625000D03*
X146187500Y-93275000D03*
%TD*%
D39*
%TO.C,J4*%
X158000000Y-92000000D03*
D40*
X157750000Y-89175000D03*
X157750000Y-94825000D03*
%TD*%
D41*
%TO.C,L2*%
X140512500Y-77725000D03*
X142087500Y-77725000D03*
%TD*%
D42*
%TO.C,U5*%
X136000000Y-79725000D03*
X136000000Y-79225000D03*
X136000000Y-78725000D03*
X136000000Y-78225000D03*
X136000000Y-77725000D03*
X131600000Y-77725000D03*
X131600000Y-78225000D03*
X131600000Y-78725000D03*
X131600000Y-79225000D03*
X131600000Y-79725000D03*
%TD*%
D36*
%TO.C,R8*%
X130800000Y-92425000D03*
X130800000Y-90775000D03*
%TD*%
D29*
%TO.C,R10*%
X135500000Y-86375000D03*
X135500000Y-88025000D03*
%TD*%
D21*
%TO.C,TP4*%
X147360000Y-84700000D03*
%TD*%
D18*
%TO.C,C4*%
X122300000Y-82937500D03*
X122300000Y-81387500D03*
%TD*%
D43*
%TO.C,U7*%
X134150000Y-92250000D03*
X134150000Y-91600000D03*
X134150000Y-90950000D03*
X132250000Y-90950000D03*
X132250000Y-92250000D03*
%TD*%
D29*
%TO.C,R12*%
X139800000Y-90575000D03*
X139800000Y-92225000D03*
%TD*%
D18*
%TO.C,C6*%
X121300000Y-80075000D03*
X121300000Y-78525000D03*
%TD*%
D39*
%TO.C,J2*%
X158000000Y-77000000D03*
D40*
X157750000Y-74175000D03*
X157750000Y-79825000D03*
%TD*%
D44*
%TO.C,Q1*%
X144350000Y-89437500D03*
X146250000Y-89437500D03*
X145300000Y-87562500D03*
%TD*%
D36*
%TO.C,R7*%
X138400000Y-92225000D03*
X138400000Y-90575000D03*
%TD*%
D17*
%TO.C,C18*%
X138300000Y-86425000D03*
X138300000Y-87975000D03*
%TD*%
D45*
%TO.C,U1*%
X147800000Y-77000000D03*
X153720000Y-77000000D03*
X153720000Y-81650000D03*
X147800000Y-81650000D03*
D46*
X150760000Y-79325000D03*
%TD*%
D47*
%TO.C,Y1*%
X134400000Y-81375000D03*
X133000000Y-81375000D03*
X133000000Y-82475000D03*
X134400000Y-82475000D03*
%TD*%
D18*
%TO.C,C12*%
X144100000Y-95775000D03*
X144100000Y-94225000D03*
%TD*%
D36*
%TO.C,R1*%
X146100000Y-81625000D03*
X146100000Y-79975000D03*
%TD*%
D27*
%TO.C,C14*%
X153950000Y-92000000D03*
X152400000Y-92000000D03*
%TD*%
D18*
%TO.C,C7*%
X133700000Y-76200000D03*
X133700000Y-74650000D03*
%TD*%
D29*
%TO.C,R11*%
X134100000Y-86375000D03*
X134100000Y-88025000D03*
%TD*%
%TO.C,R2*%
X116200000Y-86075000D03*
X116200000Y-87725000D03*
%TD*%
D48*
%TO.C,C5*%
X124787500Y-79812500D03*
X126337500Y-79812500D03*
%TD*%
D17*
%TO.C,C11*%
X143400000Y-77725000D03*
X143400000Y-79275000D03*
%TD*%
D21*
%TO.C,TP3*%
X127040000Y-92320000D03*
%TD*%
%LPD*%
M02*
