%TF.GenerationSoftware,KiCad,Pcbnew,9.0.0*%
%TF.CreationDate,2026-02-24T22:35:43+01:00*%
%TF.ProjectId,DetectorReader,44657465-6374-46f7-9252-65616465722e,rev?*%
%TF.SameCoordinates,Original*%
%TF.FileFunction,Soldermask,Top*%
%TF.FilePolarity,Negative*%
%FSLAX46Y46*%
G04 Gerber Fmt 4.6, Leading zero omitted, Abs format (unit mm)*
G04 Created by KiCad (PCBNEW 9.0.0) date 2026-02-24 22:35:43*
%MOMM*%
%LPD*%
G01*
G04 APERTURE LIST*
G04 Aperture macros list*
%AMRoundRect*
0 Rectangle with rounded corners*
0 $1 Rounding radius*
0 $2 $3 $4 $5 $6 $7 $8 $9 X,Y pos of 4 corners*
0 Add a 4 corners polygon primitive as box body*
4,1,4,$2,$3,$4,$5,$6,$7,$8,$9,$2,$3,0*
0 Add four circle primitives for the rounded corners*
1,1,$1+$1,$2,$3*
1,1,$1+$1,$4,$5*
1,1,$1+$1,$6,$7*
1,1,$1+$1,$8,$9*
0 Add four rect primitives between the rounded corners*
20,1,$1+$1,$2,$3,$4,$5,0*
20,1,$1+$1,$4,$5,$6,$7,0*
20,1,$1+$1,$6,$7,$8,$9,0*
20,1,$1+$1,$8,$9,$2,$3,0*%
G04 Aperture macros list end*
%ADD10RoundRect,0.062500X-0.062500X0.350000X-0.062500X-0.350000X0.062500X-0.350000X0.062500X0.350000X0*%
%ADD11RoundRect,0.062500X-0.350000X0.062500X-0.350000X-0.062500X0.350000X-0.062500X0.350000X0.062500X0*%
%ADD12R,2.600000X2.600000*%
%ADD13RoundRect,0.225000X-0.250000X0.225000X-0.250000X-0.225000X0.250000X-0.225000X0.250000X0.225000X0*%
%ADD14RoundRect,0.218750X0.218750X0.256250X-0.218750X0.256250X-0.218750X-0.256250X0.218750X-0.256250X0*%
%ADD15RoundRect,0.200000X-0.200000X-0.275000X0.200000X-0.275000X0.200000X0.275000X-0.200000X0.275000X0*%
%ADD16C,1.700000*%
%ADD17RoundRect,0.150000X0.587500X0.150000X-0.587500X0.150000X-0.587500X-0.150000X0.587500X-0.150000X0*%
%ADD18RoundRect,0.225000X0.250000X-0.225000X0.250000X0.225000X-0.250000X0.225000X-0.250000X-0.225000X0*%
%ADD19RoundRect,0.150000X-0.512500X-0.150000X0.512500X-0.150000X0.512500X0.150000X-0.512500X0.150000X0*%
%ADD20RoundRect,0.218750X-0.256250X0.218750X-0.256250X-0.218750X0.256250X-0.218750X0.256250X0.218750X0*%
%ADD21R,0.800000X1.200000*%
%ADD22R,1.700000X1.700000*%
%ADD23O,1.700000X1.700000*%
%ADD24RoundRect,0.225000X0.225000X0.250000X-0.225000X0.250000X-0.225000X-0.250000X0.225000X-0.250000X0*%
%ADD25RoundRect,0.200000X-0.275000X0.200000X-0.275000X-0.200000X0.275000X-0.200000X0.275000X0.200000X0*%
%ADD26RoundRect,0.150000X-0.425000X0.150000X-0.425000X-0.150000X0.425000X-0.150000X0.425000X0.150000X0*%
%ADD27RoundRect,0.075000X-0.500000X0.075000X-0.500000X-0.075000X0.500000X-0.075000X0.500000X0.075000X0*%
%ADD28O,2.100000X1.000000*%
%ADD29O,1.800000X1.000000*%
%ADD30RoundRect,0.200000X0.275000X-0.200000X0.275000X0.200000X-0.275000X0.200000X-0.275000X-0.200000X0*%
%ADD31RoundRect,0.150000X-0.825000X-0.150000X0.825000X-0.150000X0.825000X0.150000X-0.825000X0.150000X0*%
%ADD32RoundRect,0.250000X1.350000X-0.385000X1.350000X0.385000X-1.350000X0.385000X-1.350000X-0.385000X0*%
%ADD33RoundRect,0.250000X1.600000X-0.425000X1.600000X0.425000X-1.600000X0.425000X-1.600000X-0.425000X0*%
%ADD34RoundRect,0.218750X-0.218750X-0.256250X0.218750X-0.256250X0.218750X0.256250X-0.218750X0.256250X0*%
%ADD35RoundRect,0.075000X0.650000X0.075000X-0.650000X0.075000X-0.650000X-0.075000X0.650000X-0.075000X0*%
%ADD36RoundRect,0.100000X-0.225000X-0.100000X0.225000X-0.100000X0.225000X0.100000X-0.225000X0.100000X0*%
%ADD37R,0.900000X0.800000*%
%ADD38RoundRect,0.150000X-0.587500X-0.150000X0.587500X-0.150000X0.587500X0.150000X-0.587500X0.150000X0*%
%ADD39RoundRect,0.225000X-0.225000X-0.250000X0.225000X-0.250000X0.225000X0.250000X-0.225000X0.250000X0*%
G04 APERTURE END LIST*
D10*
%TO.C,U3*%
X124850000Y-74062500D03*
X124350000Y-74062500D03*
X123850000Y-74062500D03*
X123350000Y-74062500D03*
X122850000Y-74062500D03*
X122350000Y-74062500D03*
D11*
X121662500Y-74750000D03*
X121662500Y-75250000D03*
X121662500Y-75750000D03*
X121662500Y-76250000D03*
X121662500Y-76750000D03*
X121662500Y-77250000D03*
D10*
X122350000Y-77937500D03*
X122850000Y-77937500D03*
X123350000Y-77937500D03*
X123850000Y-77937500D03*
X124350000Y-77937500D03*
X124850000Y-77937500D03*
D11*
X125537500Y-77250000D03*
X125537500Y-76750000D03*
X125537500Y-76250000D03*
X125537500Y-75750000D03*
X125537500Y-75250000D03*
X125537500Y-74750000D03*
D12*
X123600000Y-76000000D03*
%TD*%
D13*
%TO.C,C7*%
X134493750Y-74725000D03*
X134493750Y-76275000D03*
%TD*%
D14*
%TO.C,L3*%
X146787500Y-80000000D03*
X145212500Y-80000000D03*
%TD*%
D15*
%TO.C,R6*%
X131475000Y-89500000D03*
X133125000Y-89500000D03*
%TD*%
D16*
%TO.C,TP2*%
X127040000Y-94860000D03*
%TD*%
D13*
%TO.C,C9*%
X137593750Y-77800000D03*
X137593750Y-79350000D03*
%TD*%
D17*
%TO.C,Q2*%
X141537500Y-89350000D03*
X141537500Y-87450000D03*
X139662500Y-88400000D03*
%TD*%
D13*
%TO.C,C14*%
X136300000Y-86525000D03*
X136300000Y-88075000D03*
%TD*%
D18*
%TO.C,C16*%
X130000000Y-88675000D03*
X130000000Y-87125000D03*
%TD*%
D19*
%TO.C,U2*%
X122462500Y-81250000D03*
X122462500Y-82200000D03*
X122462500Y-83150000D03*
X124737500Y-83150000D03*
X124737500Y-81250000D03*
%TD*%
D20*
%TO.C,L1*%
X136193750Y-76225000D03*
X136193750Y-77800000D03*
%TD*%
D18*
%TO.C,C3*%
X119800000Y-82937500D03*
X119800000Y-81387500D03*
%TD*%
D21*
%TO.C,D1*%
X115050000Y-92200000D03*
X115050000Y-89400000D03*
X116550000Y-92200000D03*
X116550000Y-89400000D03*
%TD*%
D22*
%TO.C,J1*%
X111800000Y-94880000D03*
D23*
X111800000Y-92340000D03*
X111800000Y-89800000D03*
X111800000Y-87260000D03*
X111800000Y-84720000D03*
%TD*%
D24*
%TO.C,C17*%
X144275000Y-91000000D03*
X142725000Y-91000000D03*
%TD*%
D16*
%TO.C,TP5*%
X134660000Y-92340000D03*
%TD*%
D25*
%TO.C,R3*%
X119800000Y-78475000D03*
X119800000Y-80125000D03*
%TD*%
D15*
%TO.C,R5*%
X128975000Y-95000000D03*
X130625000Y-95000000D03*
%TD*%
D24*
%TO.C,C1*%
X121875000Y-85000000D03*
X120325000Y-85000000D03*
%TD*%
D26*
%TO.C,J3*%
X117380000Y-74300000D03*
X117380000Y-75100000D03*
D27*
X117380000Y-76250000D03*
X117380000Y-77250000D03*
X117380000Y-77750000D03*
X117380000Y-78750000D03*
D26*
X117380000Y-79900000D03*
X117380000Y-80700000D03*
X117380000Y-80700000D03*
X117380000Y-79900000D03*
D27*
X117380000Y-79250000D03*
X117380000Y-78250000D03*
X117380000Y-76750000D03*
X117380000Y-75750000D03*
D26*
X117380000Y-75100000D03*
X117380000Y-74300000D03*
D28*
X116805000Y-73180000D03*
D29*
X112625000Y-73180000D03*
D28*
X116805000Y-81820000D03*
D29*
X112625000Y-81820000D03*
%TD*%
D25*
%TO.C,R9*%
X137800000Y-89475000D03*
X137800000Y-91125000D03*
%TD*%
D24*
%TO.C,C8*%
X144768750Y-77800000D03*
X143218750Y-77800000D03*
%TD*%
D18*
%TO.C,C12*%
X148300000Y-79350000D03*
X148300000Y-77800000D03*
%TD*%
D30*
%TO.C,R2*%
X119800000Y-74825000D03*
X119800000Y-73175000D03*
%TD*%
D16*
%TO.C,TP1*%
X127040000Y-87240000D03*
%TD*%
D31*
%TO.C,U1*%
X118425000Y-86590000D03*
X118425000Y-87860000D03*
X118425000Y-89130000D03*
X118425000Y-90400000D03*
X118425000Y-91670000D03*
X118425000Y-92940000D03*
X118425000Y-94210000D03*
X123375000Y-94210000D03*
X123375000Y-92940000D03*
X123375000Y-91670000D03*
X123375000Y-90400000D03*
X123375000Y-89130000D03*
X123375000Y-87860000D03*
X123375000Y-86590000D03*
%TD*%
D25*
%TO.C,R4*%
X141200000Y-81275000D03*
X141200000Y-82925000D03*
%TD*%
D18*
%TO.C,C13*%
X142700000Y-82875000D03*
X142700000Y-81325000D03*
%TD*%
D32*
%TO.C,J4*%
X154000000Y-92000000D03*
D33*
X153750000Y-89175000D03*
X153750000Y-94825000D03*
%TD*%
D34*
%TO.C,L2*%
X139006250Y-77800000D03*
X140581250Y-77800000D03*
%TD*%
D35*
%TO.C,U4*%
X134493750Y-79800000D03*
X134493750Y-79300000D03*
X134493750Y-78800000D03*
X134493750Y-78300000D03*
X134493750Y-77800000D03*
X130093750Y-77800000D03*
X130093750Y-78300000D03*
X130093750Y-78800000D03*
X130093750Y-79300000D03*
X130093750Y-79800000D03*
%TD*%
D25*
%TO.C,R8*%
X134800000Y-86475000D03*
X134800000Y-88125000D03*
%TD*%
D30*
%TO.C,R10*%
X130000000Y-92525000D03*
X130000000Y-90875000D03*
%TD*%
D16*
%TO.C,TP4*%
X142280000Y-84720000D03*
%TD*%
D36*
%TO.C,U5*%
X131450000Y-86650000D03*
X131450000Y-87300000D03*
X131450000Y-87950000D03*
X133350000Y-87950000D03*
X133350000Y-86650000D03*
%TD*%
D15*
%TO.C,R12*%
X139575000Y-91000000D03*
X141225000Y-91000000D03*
%TD*%
D18*
%TO.C,C5*%
X121300000Y-80075000D03*
X121300000Y-78525000D03*
%TD*%
D32*
%TO.C,J2*%
X154000000Y-77000000D03*
D33*
X153750000Y-74175000D03*
X153750000Y-79825000D03*
%TD*%
D17*
%TO.C,Q1*%
X145637500Y-89350000D03*
X145637500Y-87450000D03*
X143762500Y-88400000D03*
%TD*%
D25*
%TO.C,R7*%
X137800000Y-86475000D03*
X137800000Y-88125000D03*
%TD*%
D18*
%TO.C,C15*%
X136300000Y-91075000D03*
X136300000Y-89525000D03*
%TD*%
D37*
%TO.C,Y1*%
X132893750Y-81450000D03*
X131493750Y-81450000D03*
X131493750Y-82550000D03*
X132893750Y-82550000D03*
%TD*%
D18*
%TO.C,C11*%
X148300000Y-80900000D03*
X148300000Y-79350000D03*
%TD*%
%TO.C,C6*%
X132193750Y-76275000D03*
X132193750Y-74725000D03*
%TD*%
D38*
%TO.C,D2*%
X144662500Y-81550000D03*
X144662500Y-83450000D03*
X146537500Y-82500000D03*
%TD*%
D30*
%TO.C,R11*%
X131500000Y-92525000D03*
X131500000Y-90875000D03*
%TD*%
D25*
%TO.C,R1*%
X116200000Y-86075000D03*
X116200000Y-87725000D03*
%TD*%
D39*
%TO.C,C4*%
X123925000Y-79900000D03*
X125475000Y-79900000D03*
%TD*%
D13*
%TO.C,C10*%
X141893750Y-77800000D03*
X141893750Y-79350000D03*
%TD*%
D16*
%TO.C,TP3*%
X127040000Y-92320000D03*
%TD*%
M02*
