%TF.GenerationSoftware,KiCad,Pcbnew,9.0.0*%
%TF.CreationDate,2025-12-15T21:45:39+01:00*%
%TF.ProjectId,DetectorReader,44657465-6374-46f7-9252-65616465722e,rev?*%
%TF.SameCoordinates,Original*%
%TF.FileFunction,Copper,L1,Top*%
%TF.FilePolarity,Positive*%
%FSLAX46Y46*%
G04 Gerber Fmt 4.6, Leading zero omitted, Abs format (unit mm)*
G04 Created by KiCad (PCBNEW 9.0.0) date 2025-12-15 21:45:39*
%MOMM*%
%LPD*%
G01*
G04 APERTURE LIST*
G04 Aperture macros list*
%AMRoundRect*
0 Rectangle with rounded corners*
0 $1 Rounding radius*
0 $2 $3 $4 $5 $6 $7 $8 $9 X,Y pos of 4 corners*
0 Add a 4 corners polygon primitive as box body*
4,1,4,$2,$3,$4,$5,$6,$7,$8,$9,$2,$3,0*
0 Add four circle primitives for the rounded corners*
1,1,$1+$1,$2,$3*
1,1,$1+$1,$4,$5*
1,1,$1+$1,$6,$7*
1,1,$1+$1,$8,$9*
0 Add four rect primitives between the rounded corners*
20,1,$1+$1,$2,$3,$4,$5,0*
20,1,$1+$1,$4,$5,$6,$7,0*
20,1,$1+$1,$6,$7,$8,$9,0*
20,1,$1+$1,$8,$9,$2,$3,0*%
%AMFreePoly0*
4,1,13,1.650000,1.015000,3.020000,1.015000,3.020000,-1.015000,1.650000,-1.015000,1.650000,-2.385000,-1.650000,-2.385000,-1.650000,-1.015000,-3.020000,-1.015000,-3.020000,1.015000,-1.650000,1.015000,-1.650000,2.385000,1.650000,2.385000,1.650000,1.015000,1.650000,1.015000,$1*%
G04 Aperture macros list end*
%TA.AperFunction,ComponentPad*%
%ADD10R,1.700000X1.700000*%
%TD*%
%TA.AperFunction,ComponentPad*%
%ADD11O,1.700000X1.700000*%
%TD*%
%TA.AperFunction,SMDPad,CuDef*%
%ADD12RoundRect,0.112500X-0.237500X0.112500X-0.237500X-0.112500X0.237500X-0.112500X0.237500X0.112500X0*%
%TD*%
%TA.AperFunction,SMDPad,CuDef*%
%ADD13RoundRect,0.225000X-0.250000X0.225000X-0.250000X-0.225000X0.250000X-0.225000X0.250000X0.225000X0*%
%TD*%
%TA.AperFunction,SMDPad,CuDef*%
%ADD14RoundRect,0.225000X0.225000X0.250000X-0.225000X0.250000X-0.225000X-0.250000X0.225000X-0.250000X0*%
%TD*%
%TA.AperFunction,SMDPad,CuDef*%
%ADD15RoundRect,0.200000X0.200000X0.275000X-0.200000X0.275000X-0.200000X-0.275000X0.200000X-0.275000X0*%
%TD*%
%TA.AperFunction,SMDPad,CuDef*%
%ADD16RoundRect,0.100000X0.712500X0.100000X-0.712500X0.100000X-0.712500X-0.100000X0.712500X-0.100000X0*%
%TD*%
%TA.AperFunction,SMDPad,CuDef*%
%ADD17RoundRect,0.218750X-0.256250X0.218750X-0.256250X-0.218750X0.256250X-0.218750X0.256250X0.218750X0*%
%TD*%
%TA.AperFunction,ComponentPad*%
%ADD18C,1.700000*%
%TD*%
%TA.AperFunction,SMDPad,CuDef*%
%ADD19RoundRect,0.225000X0.250000X-0.225000X0.250000X0.225000X-0.250000X0.225000X-0.250000X-0.225000X0*%
%TD*%
%TA.AperFunction,SMDPad,CuDef*%
%ADD20RoundRect,0.200000X-0.275000X0.200000X-0.275000X-0.200000X0.275000X-0.200000X0.275000X0.200000X0*%
%TD*%
%TA.AperFunction,SMDPad,CuDef*%
%ADD21RoundRect,0.225000X-0.225000X-0.250000X0.225000X-0.250000X0.225000X0.250000X-0.225000X0.250000X0*%
%TD*%
%TA.AperFunction,SMDPad,CuDef*%
%ADD22RoundRect,0.150000X-0.512500X-0.150000X0.512500X-0.150000X0.512500X0.150000X-0.512500X0.150000X0*%
%TD*%
%TA.AperFunction,SMDPad,CuDef*%
%ADD23RoundRect,0.100000X0.637500X0.100000X-0.637500X0.100000X-0.637500X-0.100000X0.637500X-0.100000X0*%
%TD*%
%TA.AperFunction,SMDPad,CuDef*%
%ADD24R,0.800000X1.200000*%
%TD*%
%TA.AperFunction,SMDPad,CuDef*%
%ADD25RoundRect,0.200000X-0.200000X-0.275000X0.200000X-0.275000X0.200000X0.275000X-0.200000X0.275000X0*%
%TD*%
%TA.AperFunction,SMDPad,CuDef*%
%ADD26FreePoly0,0.000000*%
%TD*%
%TA.AperFunction,SMDPad,CuDef*%
%ADD27R,1.600000X1.600000*%
%TD*%
%TA.AperFunction,SMDPad,CuDef*%
%ADD28RoundRect,0.150000X-0.425000X0.150000X-0.425000X-0.150000X0.425000X-0.150000X0.425000X0.150000X0*%
%TD*%
%TA.AperFunction,SMDPad,CuDef*%
%ADD29RoundRect,0.075000X-0.500000X0.075000X-0.500000X-0.075000X0.500000X-0.075000X0.500000X0.075000X0*%
%TD*%
%TA.AperFunction,HeatsinkPad*%
%ADD30O,2.100000X1.000000*%
%TD*%
%TA.AperFunction,HeatsinkPad*%
%ADD31O,1.800000X1.000000*%
%TD*%
%TA.AperFunction,SMDPad,CuDef*%
%ADD32RoundRect,0.200000X0.275000X-0.200000X0.275000X0.200000X-0.275000X0.200000X-0.275000X-0.200000X0*%
%TD*%
%TA.AperFunction,SMDPad,CuDef*%
%ADD33RoundRect,0.150000X-0.825000X-0.150000X0.825000X-0.150000X0.825000X0.150000X-0.825000X0.150000X0*%
%TD*%
%TA.AperFunction,SMDPad,CuDef*%
%ADD34RoundRect,0.062500X-0.062500X0.350000X-0.062500X-0.350000X0.062500X-0.350000X0.062500X0.350000X0*%
%TD*%
%TA.AperFunction,SMDPad,CuDef*%
%ADD35RoundRect,0.062500X-0.350000X0.062500X-0.350000X-0.062500X0.350000X-0.062500X0.350000X0.062500X0*%
%TD*%
%TA.AperFunction,HeatsinkPad*%
%ADD36R,2.500000X2.500000*%
%TD*%
%TA.AperFunction,SMDPad,CuDef*%
%ADD37RoundRect,0.250000X1.350000X-0.385000X1.350000X0.385000X-1.350000X0.385000X-1.350000X-0.385000X0*%
%TD*%
%TA.AperFunction,SMDPad,CuDef*%
%ADD38RoundRect,0.250000X1.600000X-0.425000X1.600000X0.425000X-1.600000X0.425000X-1.600000X-0.425000X0*%
%TD*%
%TA.AperFunction,SMDPad,CuDef*%
%ADD39RoundRect,0.218750X-0.218750X-0.256250X0.218750X-0.256250X0.218750X0.256250X-0.218750X0.256250X0*%
%TD*%
%TA.AperFunction,SMDPad,CuDef*%
%ADD40RoundRect,0.075000X0.650000X0.075000X-0.650000X0.075000X-0.650000X-0.075000X0.650000X-0.075000X0*%
%TD*%
%TA.AperFunction,SMDPad,CuDef*%
%ADD41RoundRect,0.150000X0.150000X-0.587500X0.150000X0.587500X-0.150000X0.587500X-0.150000X-0.587500X0*%
%TD*%
%TA.AperFunction,SMDPad,CuDef*%
%ADD42R,0.900000X0.800000*%
%TD*%
%TA.AperFunction,ViaPad*%
%ADD43C,0.600000*%
%TD*%
%TA.AperFunction,Conductor*%
%ADD44C,0.600000*%
%TD*%
%TA.AperFunction,Conductor*%
%ADD45C,0.250000*%
%TD*%
%TA.AperFunction,Conductor*%
%ADD46C,0.300000*%
%TD*%
%TA.AperFunction,Conductor*%
%ADD47C,0.400000*%
%TD*%
%TA.AperFunction,Conductor*%
%ADD48C,1.000000*%
%TD*%
%TA.AperFunction,Conductor*%
%ADD49C,0.500000*%
%TD*%
G04 APERTURE END LIST*
D10*
%TO.P,J1,1,Pin_1*%
%TO.N,/UPDI*%
X111800000Y-96000000D03*
D11*
%TO.P,J1,2,Pin_2*%
%TO.N,GND*%
X111800000Y-93460000D03*
%TO.P,J1,3,Pin_3*%
%TO.N,/VBUS*%
X111800000Y-90920000D03*
%TO.P,J1,4,Pin_4*%
%TO.N,/uartTx*%
X111800000Y-88380000D03*
%TO.P,J1,5,Pin_5*%
%TO.N,/uartRx*%
X111800000Y-85840000D03*
%TD*%
D12*
%TO.P,D3,1,K*%
%TO.N,/RF_Rx/Amp2*%
X138800000Y-85300000D03*
%TO.P,D3,2,A*%
X138800000Y-86600000D03*
%TO.P,D3,3,K*%
%TO.N,Net-(U6C--)*%
X140800000Y-85950000D03*
%TD*%
%TO.P,D2,1,K*%
%TO.N,/RF_Rx/Amp1*%
X146000000Y-85300000D03*
%TO.P,D2,2,A*%
X146000000Y-86600000D03*
%TO.P,D2,3,K*%
%TO.N,Net-(U6B--)*%
X148000000Y-85950000D03*
%TD*%
D13*
%TO.P,C10,2*%
%TO.N,/RF_Tx/3VTx*%
X139900000Y-76275000D03*
%TO.P,C10,1*%
%TO.N,GND*%
X139900000Y-74725000D03*
%TD*%
D14*
%TO.P,C14,1*%
%TO.N,GND*%
X135450000Y-86600000D03*
%TO.P,C14,2*%
%TO.N,/RF_Rx/3VRx*%
X133900000Y-86600000D03*
%TD*%
D15*
%TO.P,R10,1*%
%TO.N,Net-(C23-Pad1)*%
X143925000Y-89450000D03*
%TO.P,R10,2*%
%TO.N,Net-(U6C--)*%
X142275000Y-89450000D03*
%TD*%
D16*
%TO.P,U7,1,RF_IN*%
%TO.N,Net-(U7-RF_IN)*%
X159525000Y-93275000D03*
%TO.P,U7,2,~{SHDN}*%
%TO.N,/RF_Rx/3VRx*%
X159525000Y-92625000D03*
%TO.P,U7,3,GND*%
%TO.N,GND*%
X159525000Y-91975000D03*
%TO.P,U7,4,CLPF*%
%TO.N,Net-(U7-CLPF)*%
X159525000Y-91325000D03*
%TO.P,U7,5,GND*%
%TO.N,GND*%
X155300000Y-91325000D03*
%TO.P,U7,6,NC*%
%TO.N,unconnected-(U7-NC-Pad6)*%
X155300000Y-91975000D03*
%TO.P,U7,7,OUT*%
%TO.N,/RF_Rx/Signal*%
X155300000Y-92625000D03*
%TO.P,U7,8,VCC*%
%TO.N,/RF_Rx/3VRx*%
X155300000Y-93275000D03*
%TD*%
D14*
%TO.P,C2,1*%
%TO.N,GND*%
X125987500Y-79425000D03*
%TO.P,C2,2*%
%TO.N,+5V*%
X124437500Y-79425000D03*
%TD*%
D17*
%TO.P,L5,1,1*%
%TO.N,+3V0*%
X133900000Y-83612500D03*
%TO.P,L5,2,2*%
%TO.N,/RF_Rx/3VRx*%
X133900000Y-85187500D03*
%TD*%
D18*
%TO.P,TP2,1,1*%
%TO.N,/~{ReaderCmd}*%
X129580000Y-96000000D03*
%TD*%
D19*
%TO.P,C17,1*%
%TO.N,GND*%
X155312500Y-96175000D03*
%TO.P,C17,2*%
%TO.N,/RF_Rx/3VRx*%
X155312500Y-94625000D03*
%TD*%
D20*
%TO.P,R7,1*%
%TO.N,Net-(U6D-+)*%
X138400000Y-93925000D03*
%TO.P,R7,2*%
%TO.N,/TagPulses*%
X138400000Y-95575000D03*
%TD*%
D19*
%TO.P,C18,1*%
%TO.N,GND*%
X147700000Y-95825000D03*
%TO.P,C18,2*%
%TO.N,Net-(U6A-+)*%
X147700000Y-94275000D03*
%TD*%
D21*
%TO.P,C16,1*%
%TO.N,GND*%
X142325000Y-96400000D03*
%TO.P,C16,2*%
%TO.N,/RF_Rx/3VRx*%
X143875000Y-96400000D03*
%TD*%
D20*
%TO.P,R5,1*%
%TO.N,/RF_Rx/3VRx*%
X149200000Y-91325000D03*
%TO.P,R5,2*%
%TO.N,Net-(U6A-+)*%
X149200000Y-92975000D03*
%TD*%
D19*
%TO.P,C3,1*%
%TO.N,GND*%
X119900000Y-82875000D03*
%TO.P,C3,2*%
%TO.N,/VBUS*%
X119900000Y-81325000D03*
%TD*%
D13*
%TO.P,C12,2*%
%TO.N,GND*%
X143000000Y-79350000D03*
%TO.P,C12,1*%
%TO.N,/RF_Tx/PAOut*%
X143000000Y-77800000D03*
%TD*%
D22*
%TO.P,U3,1,VIN*%
%TO.N,+5V*%
X127725000Y-81400000D03*
%TO.P,U3,2,GND*%
%TO.N,GND*%
X127725000Y-82350000D03*
%TO.P,U3,3,EN*%
%TO.N,+5V*%
X127725000Y-83300000D03*
%TO.P,U3,4,NC*%
%TO.N,unconnected-(U3-NC-Pad4)*%
X130000000Y-83300000D03*
%TO.P,U3,5,VOUT*%
%TO.N,+3V0*%
X130000000Y-81400000D03*
%TD*%
D23*
%TO.P,U6,1*%
%TO.N,/RF_Rx/CM*%
X145962500Y-94900000D03*
%TO.P,U6,2,-*%
X145962500Y-94250000D03*
%TO.P,U6,3,+*%
%TO.N,Net-(U6A-+)*%
X145962500Y-93600000D03*
%TO.P,U6,4,V+*%
%TO.N,/RF_Rx/3VRx*%
X145962500Y-92950000D03*
%TO.P,U6,5,+*%
%TO.N,/RF_Rx/CM*%
X145962500Y-92300000D03*
%TO.P,U6,6,-*%
%TO.N,Net-(U6B--)*%
X145962500Y-91650000D03*
%TO.P,U6,7*%
%TO.N,/RF_Rx/Amp1*%
X145962500Y-91000000D03*
%TO.P,U6,8*%
%TO.N,/RF_Rx/Amp2*%
X140237500Y-91000000D03*
%TO.P,U6,9,-*%
%TO.N,Net-(U6C--)*%
X140237500Y-91650000D03*
%TO.P,U6,10,+*%
%TO.N,/RF_Rx/CM*%
X140237500Y-92300000D03*
%TO.P,U6,11,V-*%
%TO.N,GND*%
X140237500Y-92950000D03*
%TO.P,U6,12,+*%
%TO.N,Net-(U6D-+)*%
X140237500Y-93600000D03*
%TO.P,U6,13,-*%
%TO.N,/RF_Rx/CM*%
X140237500Y-94250000D03*
%TO.P,U6,14*%
%TO.N,/TagPulses*%
X140237500Y-94900000D03*
%TD*%
D17*
%TO.P,L3,2,2*%
%TO.N,/RF_Tx/PAOut*%
X141600000Y-77800000D03*
%TO.P,L3,1,1*%
%TO.N,/RF_Tx/3VTx*%
X141600000Y-76225000D03*
%TD*%
D19*
%TO.P,C4,1*%
%TO.N,GND*%
X124500000Y-82875000D03*
%TO.P,C4,2*%
%TO.N,+5V*%
X124500000Y-81325000D03*
%TD*%
D24*
%TO.P,D1,1,RK*%
%TO.N,/LEDRed*%
X115950000Y-93320000D03*
%TO.P,D1,2,A*%
%TO.N,Net-(D1-A)*%
X115950000Y-90520000D03*
%TO.P,D1,3,GK*%
%TO.N,/LEDGreen*%
X117450000Y-93320000D03*
%TO.P,D1,4,BK*%
%TO.N,/LEDBlue*%
X117450000Y-90520000D03*
%TD*%
D18*
%TO.P,TP5,1,1*%
%TO.N,/RF_Rx/Amp2*%
X134660000Y-90920000D03*
%TD*%
D20*
%TO.P,R4,1*%
%TO.N,Net-(J3-CC2)*%
X119900000Y-77975000D03*
%TO.P,R4,2*%
%TO.N,GND*%
X119900000Y-79625000D03*
%TD*%
D25*
%TO.P,R13,1*%
%TO.N,/~{ReaderCmd}*%
X132675000Y-96400000D03*
%TO.P,R13,2*%
%TO.N,Net-(Q1-B)*%
X134325000Y-96400000D03*
%TD*%
D14*
%TO.P,C1,1*%
%TO.N,GND*%
X122975000Y-86020000D03*
%TO.P,C1,2*%
%TO.N,+3V0*%
X121425000Y-86020000D03*
%TD*%
D26*
%TO.P,U1,5,GND*%
%TO.N,GND*%
X156300000Y-80150000D03*
D27*
%TO.P,U1,4,CPL*%
%TO.N,Net-(U1-CPL)*%
X153340000Y-82475000D03*
%TO.P,U1,3,ISO*%
%TO.N,/RF_Rx/DetectorIn*%
X159260000Y-82475000D03*
%TO.P,U1,2,OUT*%
%TO.N,Net-(J2-In)*%
X159260000Y-77825000D03*
%TO.P,U1,1,IN*%
%TO.N,/RF_Tx/RfOut*%
X153340000Y-77825000D03*
%TD*%
D15*
%TO.P,R11,1*%
%TO.N,Net-(U6B--)*%
X147525000Y-89450000D03*
%TO.P,R11,2*%
%TO.N,/RF_Rx/Amp1*%
X145875000Y-89450000D03*
%TD*%
D28*
%TO.P,J3,A1,GND*%
%TO.N,GND*%
X117380000Y-74300000D03*
%TO.P,J3,A4,VBUS*%
%TO.N,/VBUS*%
X117380000Y-75100000D03*
D29*
%TO.P,J3,A5,CC1*%
%TO.N,Net-(J3-CC1)*%
X117380000Y-76250000D03*
%TO.P,J3,A6,D+*%
%TO.N,/USB_P*%
X117380000Y-77250000D03*
%TO.P,J3,A7,D-*%
%TO.N,/USB_N*%
X117380000Y-77750000D03*
%TO.P,J3,A8,SBU1*%
%TO.N,unconnected-(J3-SBU1-PadA8)*%
X117380000Y-78750000D03*
D28*
%TO.P,J3,A9,VBUS*%
%TO.N,/VBUS*%
X117380000Y-79900000D03*
%TO.P,J3,A12,GND*%
%TO.N,GND*%
X117380000Y-80700000D03*
%TO.P,J3,B1,GND*%
X117380000Y-80700000D03*
%TO.P,J3,B4,VBUS*%
%TO.N,/VBUS*%
X117380000Y-79900000D03*
D29*
%TO.P,J3,B5,CC2*%
%TO.N,Net-(J3-CC2)*%
X117380000Y-79250000D03*
%TO.P,J3,B6,D+*%
%TO.N,/USB_P*%
X117380000Y-78250000D03*
%TO.P,J3,B7,D-*%
%TO.N,/USB_N*%
X117380000Y-76750000D03*
%TO.P,J3,B8,SBU2*%
%TO.N,unconnected-(J3-SBU2-PadB8)*%
X117380000Y-75750000D03*
D28*
%TO.P,J3,B9,VBUS*%
%TO.N,/VBUS*%
X117380000Y-75100000D03*
%TO.P,J3,B12,GND*%
%TO.N,GND*%
X117380000Y-74300000D03*
D30*
%TO.P,J3,S1,SHIELD*%
X116805000Y-73180000D03*
D31*
X112625000Y-73180000D03*
D30*
X116805000Y-81820000D03*
D31*
X112625000Y-81820000D03*
%TD*%
D14*
%TO.P,C23,1*%
%TO.N,Net-(C23-Pad1)*%
X143875000Y-87950000D03*
%TO.P,C23,2*%
%TO.N,/RF_Rx/Amp1*%
X142325000Y-87950000D03*
%TD*%
D21*
%TO.P,C25,1*%
%TO.N,/RF_Rx/Amp2*%
X138725000Y-87950000D03*
%TO.P,C25,2*%
%TO.N,Net-(U6C--)*%
X140275000Y-87950000D03*
%TD*%
D17*
%TO.P,L6,1,1*%
%TO.N,GND*%
X161412500Y-91625000D03*
%TO.P,L6,2,2*%
%TO.N,Net-(U7-RF_IN)*%
X161412500Y-93200000D03*
%TD*%
D20*
%TO.P,R6,1*%
%TO.N,Net-(U6A-+)*%
X149200000Y-94225000D03*
%TO.P,R6,2*%
%TO.N,GND*%
X149200000Y-95875000D03*
%TD*%
D14*
%TO.P,C11,2*%
%TO.N,/RF_Tx/PAMatched*%
X148625000Y-77800000D03*
%TO.P,C11,1*%
%TO.N,/RF_Tx/RfOut*%
X150175000Y-77800000D03*
%TD*%
D19*
%TO.P,C20,1*%
%TO.N,Net-(U7-RF_IN)*%
X162862500Y-93200000D03*
%TO.P,C20,2*%
%TO.N,/RF_Rx/DetectorIn*%
X162862500Y-91650000D03*
%TD*%
D32*
%TO.P,R3,1*%
%TO.N,Net-(J3-CC1)*%
X119900000Y-74825000D03*
%TO.P,R3,2*%
%TO.N,GND*%
X119900000Y-73175000D03*
%TD*%
D21*
%TO.P,C24,1*%
%TO.N,/RF_Rx/Amp1*%
X145925000Y-87950000D03*
%TO.P,C24,2*%
%TO.N,Net-(U6B--)*%
X147475000Y-87950000D03*
%TD*%
D18*
%TO.P,TP1,1,1*%
%TO.N,/SPI.MOSI*%
X129580000Y-88380000D03*
%TD*%
D33*
%TO.P,U2,1,VCC*%
%TO.N,+3V0*%
X119725000Y-87710000D03*
%TO.P,U2,2,PA4*%
%TO.N,/SPI.~{CS}*%
X119725000Y-88980000D03*
%TO.P,U2,3,PA5*%
%TO.N,/LEDBlue*%
X119725000Y-90250000D03*
%TO.P,U2,4,PA6*%
%TO.N,/LEDRed*%
X119725000Y-91520000D03*
%TO.P,U2,5,PA7*%
%TO.N,/LEDGreen*%
X119725000Y-92790000D03*
%TO.P,U2,6,PB3*%
%TO.N,/uartRx*%
X119725000Y-94060000D03*
%TO.P,U2,7,PB2*%
%TO.N,/uartTx*%
X119725000Y-95330000D03*
%TO.P,U2,8,PB1*%
%TO.N,/~{ReaderCmd}*%
X124675000Y-95330000D03*
%TO.P,U2,9,PB0*%
%TO.N,/TagPulses*%
X124675000Y-94060000D03*
%TO.P,U2,10,~{RESET}/PA0*%
%TO.N,/UPDI*%
X124675000Y-92790000D03*
%TO.P,U2,11,PA1*%
%TO.N,/SPI.MOSI*%
X124675000Y-91520000D03*
%TO.P,U2,12,PA2*%
%TO.N,/SPI.MISO*%
X124675000Y-90250000D03*
%TO.P,U2,13,PA3*%
%TO.N,/SPI.SCK*%
X124675000Y-88980000D03*
%TO.P,U2,14,GND*%
%TO.N,GND*%
X124675000Y-87710000D03*
%TD*%
D34*
%TO.P,U4,1,RXD*%
%TO.N,/uartTx*%
X126062500Y-74062500D03*
%TO.P,U4,2,~{RI}*%
%TO.N,unconnected-(U4-~{RI}-Pad2)*%
X125562500Y-74062500D03*
%TO.P,U4,3,GND*%
%TO.N,GND*%
X125062500Y-74062500D03*
%TO.P,U4,4,~{DSR}*%
%TO.N,unconnected-(U4-~{DSR}-Pad4)*%
X124562500Y-74062500D03*
%TO.P,U4,5,~{DCD}*%
%TO.N,unconnected-(U4-~{DCD}-Pad5)*%
X124062500Y-74062500D03*
D35*
%TO.P,U4,6,~{CTS}*%
%TO.N,unconnected-(U4-~{CTS}-Pad6)*%
X123125000Y-75000000D03*
%TO.P,U4,7,CBUS2*%
%TO.N,unconnected-(U4-CBUS2-Pad7)*%
X123125000Y-75500000D03*
%TO.P,U4,8,USBDP*%
%TO.N,/USB_N*%
X123125000Y-76000000D03*
%TO.P,U4,9,USBDM*%
%TO.N,/USB_P*%
X123125000Y-76500000D03*
%TO.P,U4,10,3V3OUT*%
%TO.N,Net-(U4-3V3OUT)*%
X123125000Y-77000000D03*
D34*
%TO.P,U4,11,~{RESET}*%
X124062500Y-77937500D03*
%TO.P,U4,12,VCC*%
%TO.N,+5V*%
X124562500Y-77937500D03*
%TO.P,U4,13,GND*%
%TO.N,GND*%
X125062500Y-77937500D03*
%TO.P,U4,14,CBUS1*%
%TO.N,unconnected-(U4-CBUS1-Pad14)*%
X125562500Y-77937500D03*
%TO.P,U4,15,CBUS0*%
%TO.N,unconnected-(U4-CBUS0-Pad15)*%
X126062500Y-77937500D03*
D35*
%TO.P,U4,16,CBUS3*%
%TO.N,unconnected-(U4-CBUS3-Pad16)*%
X127000000Y-77000000D03*
%TO.P,U4,17,TXD*%
%TO.N,/uartRx*%
X127000000Y-76500000D03*
%TO.P,U4,18,~{DTR}*%
%TO.N,unconnected-(U4-~{DTR}-Pad18)*%
X127000000Y-76000000D03*
%TO.P,U4,19,~{RTS}*%
%TO.N,unconnected-(U4-~{RTS}-Pad19)*%
X127000000Y-75500000D03*
%TO.P,U4,20,VCCIO*%
%TO.N,Net-(U4-3V3OUT)*%
X127000000Y-75000000D03*
D36*
%TO.P,U4,21,GND*%
%TO.N,GND*%
X125062500Y-76000000D03*
%TD*%
D15*
%TO.P,R12,1*%
%TO.N,Net-(U6C--)*%
X140325000Y-89450000D03*
%TO.P,R12,2*%
%TO.N,/RF_Rx/Amp2*%
X138675000Y-89450000D03*
%TD*%
D14*
%TO.P,C21,1*%
%TO.N,Net-(U7-CLPF)*%
X158187500Y-89600000D03*
%TO.P,C21,2*%
%TO.N,GND*%
X156637500Y-89600000D03*
%TD*%
D32*
%TO.P,R1,2*%
%TO.N,GND*%
X151700000Y-80325000D03*
%TO.P,R1,1*%
%TO.N,Net-(U1-CPL)*%
X151700000Y-81975000D03*
%TD*%
D37*
%TO.P,J4,1,In*%
%TO.N,Net-(J4-In)*%
X167937500Y-92825000D03*
D38*
%TO.P,J4,2,Ext*%
%TO.N,GND*%
X167687500Y-90000000D03*
X167687500Y-95650000D03*
%TD*%
D39*
%TO.P,L4,2,2*%
%TO.N,/RF_Tx/PAMatched*%
X145987500Y-77800000D03*
%TO.P,L4,1,1*%
%TO.N,/RF_Tx/PAOut*%
X144412500Y-77800000D03*
%TD*%
D40*
%TO.P,U5,10,XTAL1*%
%TO.N,Net-(U5-XTAL1)*%
X135500000Y-79800000D03*
%TO.P,U5,9,CSB/PDNB*%
%TO.N,/SPI.~{CS}*%
X135500000Y-79300000D03*
%TO.P,U5,8,SCLK*%
%TO.N,/SPI.SCK*%
X135500000Y-78800000D03*
%TO.P,U5,7,DATA/SDI*%
%TO.N,/SPI.MOSI*%
X135500000Y-78300000D03*
%TO.P,U5,6,CLKOUT/SDO*%
%TO.N,/SPI.MISO*%
X135500000Y-77800000D03*
%TO.P,U5,5,PA*%
%TO.N,/RF_Tx/PAOut*%
X139900000Y-77800000D03*
%TO.P,U5,4,GND_PA*%
%TO.N,GND*%
X139900000Y-78300000D03*
%TO.P,U5,3,VDD*%
%TO.N,/RF_Tx/3VTx*%
X139900000Y-78800000D03*
%TO.P,U5,2,GND*%
%TO.N,GND*%
X139900000Y-79300000D03*
%TO.P,U5,1,XTAL2*%
%TO.N,Net-(U5-XTAL2)*%
X139900000Y-79800000D03*
%TD*%
D18*
%TO.P,TP4,1,1*%
%TO.N,/RF_Rx/Signal*%
X154980000Y-88380000D03*
%TD*%
D19*
%TO.P,C5,1*%
%TO.N,GND*%
X126000000Y-82875000D03*
%TO.P,C5,2*%
%TO.N,+5V*%
X126000000Y-81325000D03*
%TD*%
D37*
%TO.P,J2,1,In*%
%TO.N,Net-(J2-In)*%
X167937500Y-77000000D03*
D38*
%TO.P,J2,2,Ext*%
%TO.N,GND*%
X167687500Y-74175000D03*
X167687500Y-79825000D03*
%TD*%
D13*
%TO.P,C22,1*%
%TO.N,Net-(C22-Pad1)*%
X152312500Y-87325000D03*
%TO.P,C22,2*%
%TO.N,/RF_Rx/TagSignal*%
X152312500Y-88875000D03*
%TD*%
D41*
%TO.P,Q1,1,B*%
%TO.N,Net-(Q1-B)*%
X151562500Y-92637500D03*
%TO.P,Q1,2,E*%
%TO.N,/RF_Rx/Signal*%
X153462500Y-92637500D03*
%TO.P,Q1,3,C*%
%TO.N,/RF_Rx/TagSignal*%
X152512500Y-90762500D03*
%TD*%
D19*
%TO.P,C15,1*%
%TO.N,GND*%
X153812500Y-96175000D03*
%TO.P,C15,2*%
%TO.N,/RF_Rx/3VRx*%
X153812500Y-94625000D03*
%TD*%
%TO.P,C7,1*%
%TO.N,GND*%
X122262500Y-79575000D03*
%TO.P,C7,2*%
%TO.N,Net-(U4-3V3OUT)*%
X122262500Y-78025000D03*
%TD*%
D42*
%TO.P,Y1,4,4*%
%TO.N,GND*%
X138300000Y-82550000D03*
%TO.P,Y1,3,3*%
%TO.N,Net-(U5-XTAL1)*%
X136900000Y-82550000D03*
%TO.P,Y1,2,2*%
%TO.N,GND*%
X136900000Y-81450000D03*
%TO.P,Y1,1,1*%
%TO.N,Net-(U5-XTAL2)*%
X138300000Y-81450000D03*
%TD*%
D14*
%TO.P,C19,1*%
%TO.N,Net-(J4-In)*%
X164412500Y-93200000D03*
%TO.P,C19,2*%
%TO.N,Net-(U7-RF_IN)*%
X162862500Y-93200000D03*
%TD*%
D13*
%TO.P,C8,2*%
%TO.N,/RF_Tx/3VTx*%
X135300000Y-76275000D03*
%TO.P,C8,1*%
%TO.N,GND*%
X135300000Y-74725000D03*
%TD*%
D19*
%TO.P,C9,2*%
%TO.N,GND*%
X137600000Y-74725000D03*
%TO.P,C9,1*%
%TO.N,/RF_Tx/3VTx*%
X137600000Y-76275000D03*
%TD*%
D20*
%TO.P,R8,1*%
%TO.N,/RF_Rx/Amp2*%
X138400000Y-90925000D03*
%TO.P,R8,2*%
%TO.N,Net-(U6D-+)*%
X138400000Y-92575000D03*
%TD*%
D39*
%TO.P,L1,1,1*%
%TO.N,/VBUS*%
X121412500Y-81300000D03*
%TO.P,L1,2,2*%
%TO.N,+5V*%
X122987500Y-81300000D03*
%TD*%
D20*
%TO.P,R2,1*%
%TO.N,+3V0*%
X117500000Y-87195000D03*
%TO.P,R2,2*%
%TO.N,Net-(D1-A)*%
X117500000Y-88845000D03*
%TD*%
D21*
%TO.P,C6,1*%
%TO.N,GND*%
X128487500Y-79750000D03*
%TO.P,C6,2*%
%TO.N,+3V0*%
X130037500Y-79750000D03*
%TD*%
D13*
%TO.P,C13,2*%
%TO.N,GND*%
X147300000Y-79350000D03*
%TO.P,C13,1*%
%TO.N,/RF_Tx/PAMatched*%
X147300000Y-77800000D03*
%TD*%
D15*
%TO.P,R9,1*%
%TO.N,Net-(C22-Pad1)*%
X152312500Y-85800000D03*
%TO.P,R9,2*%
%TO.N,Net-(U6B--)*%
X150662500Y-85800000D03*
%TD*%
D18*
%TO.P,TP3,1,1*%
%TO.N,/TagPulses*%
X129580000Y-93460000D03*
%TD*%
D39*
%TO.P,L2,2,2*%
%TO.N,/RF_Tx/3VTx*%
X133687500Y-76200000D03*
%TO.P,L2,1,1*%
%TO.N,+3V0*%
X132112500Y-76200000D03*
%TD*%
D43*
%TO.N,/VBUS*%
X114800000Y-87900000D03*
%TO.N,GND*%
X150400000Y-93500000D03*
X165700000Y-94000000D03*
X165700000Y-91700000D03*
X169300000Y-96800000D03*
X167900000Y-94100000D03*
X169300000Y-88800000D03*
X165700000Y-96800000D03*
X167900000Y-91500000D03*
X165700000Y-88800000D03*
X162200000Y-94300000D03*
X164000000Y-94300000D03*
X164000000Y-92000000D03*
X164000000Y-90600000D03*
X160000000Y-90400000D03*
X161700000Y-90600000D03*
X164000000Y-89000000D03*
X163200000Y-87300000D03*
X161700000Y-89000000D03*
X160400000Y-87700000D03*
X159000000Y-86300000D03*
X162000000Y-86100000D03*
X158100000Y-84900000D03*
X160800000Y-84900000D03*
X160700000Y-83400000D03*
X160200000Y-81100000D03*
X165700000Y-81000000D03*
X169300000Y-81000000D03*
X169300000Y-73000000D03*
X165700000Y-73000000D03*
X167900000Y-78300000D03*
X167900000Y-75700000D03*
X157800000Y-83400000D03*
X156300000Y-82900000D03*
X156300000Y-77400000D03*
X165700000Y-75900000D03*
X165700000Y-78100000D03*
X163900000Y-75900000D03*
X163900000Y-78100000D03*
X162100000Y-78100000D03*
X162100000Y-75900000D03*
X160800000Y-78100000D03*
X160200000Y-75900000D03*
X160200000Y-79200000D03*
X157900000Y-76700000D03*
X154700000Y-76700000D03*
X154800000Y-83400000D03*
X151300000Y-83400000D03*
X150600000Y-82000000D03*
X150600000Y-80300000D03*
X152000000Y-76700000D03*
X152000000Y-78900000D03*
X148300000Y-76700000D03*
X148300000Y-78900000D03*
X150200000Y-76700000D03*
X150200000Y-78900000D03*
X146300000Y-76700000D03*
X146300000Y-78900000D03*
X142700000Y-76700000D03*
X144300000Y-76700000D03*
X144300000Y-78900000D03*
X158800000Y-79500000D03*
X157400000Y-80800000D03*
X157400000Y-79500000D03*
X153700000Y-79500000D03*
X153700000Y-80800000D03*
X155200000Y-80800000D03*
X157400000Y-81900000D03*
X155200000Y-81900000D03*
X155200000Y-79500000D03*
X158800000Y-80800000D03*
X157400000Y-78300000D03*
X155200000Y-78300000D03*
X153600000Y-87000000D03*
X115100000Y-91900000D03*
X139600000Y-83100000D03*
X135200000Y-83100000D03*
X134200000Y-75100000D03*
X141000000Y-75200000D03*
X138800000Y-75200000D03*
X136500000Y-75200000D03*
X130200000Y-74900000D03*
X157300000Y-94600000D03*
X159700000Y-94600000D03*
X157700000Y-91800000D03*
X155200000Y-90100000D03*
X156100000Y-96900000D03*
X154600000Y-96900000D03*
X148500000Y-95200000D03*
X141600000Y-95200000D03*
X149200000Y-90100000D03*
X149200000Y-87000000D03*
X149200000Y-85100000D03*
X135400000Y-87600000D03*
X135500000Y-85600000D03*
X136300000Y-97200000D03*
X127500000Y-97100000D03*
X115800000Y-97100000D03*
X122800000Y-95400000D03*
X128100000Y-86000000D03*
X122800000Y-89900000D03*
X124000000Y-86000000D03*
X119100000Y-83600000D03*
X120700000Y-83600000D03*
X123700000Y-83600000D03*
X125300000Y-83600000D03*
X114600000Y-77400000D03*
X123300000Y-79600000D03*
X121200000Y-79600000D03*
X127200000Y-78500000D03*
X127200000Y-80200000D03*
X126900000Y-74200000D03*
X125062500Y-75100000D03*
X125062500Y-76900000D03*
X121900000Y-74300000D03*
X141200000Y-78800000D03*
X138700000Y-79500000D03*
X138700000Y-78100000D03*
%TO.N,+3V0*%
X130000000Y-80600000D03*
X130000000Y-84300000D03*
X133900000Y-81400000D03*
%TO.N,Net-(U4-3V3OUT)*%
X123137500Y-77937500D03*
X128025000Y-75425000D03*
%TO.N,/RF_Rx/3VRx*%
X144900000Y-96400000D03*
X152300000Y-96400000D03*
X136300000Y-94600000D03*
%TO.N,/uartTx*%
X121100000Y-72700000D03*
%TO.N,/uartRx*%
X126562500Y-72700000D03*
%TO.N,/RF_Rx/CM*%
X141600000Y-94200000D03*
X143100000Y-94200000D03*
X144600000Y-94200000D03*
%TD*%
D44*
%TO.N,/VBUS*%
X114800000Y-86300000D02*
X118700000Y-82400000D01*
X114800000Y-87900000D02*
X114800000Y-86300000D01*
X118700000Y-82400000D02*
X118700000Y-81300000D01*
D45*
%TO.N,/SPI.SCK*%
X136294178Y-78800000D02*
X136551000Y-78543178D01*
X131200000Y-80100000D02*
X131200000Y-84300000D01*
X136551000Y-78543178D02*
X136551000Y-77556822D01*
X135500000Y-78800000D02*
X136294178Y-78800000D01*
X136551000Y-77556822D02*
X136318178Y-77324000D01*
X136318178Y-77324000D02*
X133976000Y-77324000D01*
X133976000Y-77324000D02*
X131200000Y-80100000D01*
X131200000Y-84300000D02*
X126520000Y-88980000D01*
X126520000Y-88980000D02*
X124675000Y-88980000D01*
%TO.N,/SPI.MISO*%
X135500000Y-77800000D02*
X134300000Y-77800000D01*
X134300000Y-77800000D02*
X131700000Y-80400000D01*
X131700000Y-80400000D02*
X131700000Y-84500000D01*
X125950000Y-90250000D02*
X124675000Y-90250000D01*
X131700000Y-84500000D02*
X125950000Y-90250000D01*
%TO.N,/SPI.MOSI*%
X135500000Y-78300000D02*
X134600000Y-78300000D01*
X134600000Y-78300000D02*
X132200000Y-80700000D01*
X126280000Y-91520000D02*
X124675000Y-91520000D01*
X132200000Y-80700000D02*
X132200000Y-85600000D01*
X132200000Y-85600000D02*
X126280000Y-91520000D01*
%TO.N,/SPI.~{CS}*%
X135500000Y-79300000D02*
X134400000Y-79300000D01*
X134400000Y-79300000D02*
X132700000Y-81000000D01*
X132700000Y-81000000D02*
X132700000Y-87200000D01*
X123648678Y-92146000D02*
X120482678Y-88980000D01*
X132700000Y-87200000D02*
X127754000Y-92146000D01*
X127754000Y-92146000D02*
X123648678Y-92146000D01*
X120482678Y-88980000D02*
X119725000Y-88980000D01*
D46*
%TO.N,/TagPulses*%
X138400000Y-95575000D02*
X138375000Y-95600000D01*
X138375000Y-95600000D02*
X135900000Y-95600000D01*
X135900000Y-95600000D02*
X134360000Y-94060000D01*
X134360000Y-94060000D02*
X124675000Y-94060000D01*
D45*
%TO.N,GND*%
X125062500Y-75100000D02*
X125062500Y-74062500D01*
X125062500Y-76900000D02*
X125062500Y-75100000D01*
D46*
%TO.N,/RF_Rx/Signal*%
X154980000Y-88380000D02*
X153462500Y-89897500D01*
X153462500Y-92637500D02*
X153462500Y-89897500D01*
%TO.N,/RF_Rx/Amp2*%
X140237500Y-91000000D02*
X135200000Y-91000000D01*
D44*
%TO.N,/RF_Rx/3VRx*%
X133900000Y-86600000D02*
X133900000Y-89600000D01*
X133900000Y-89600000D02*
X133300000Y-90200000D01*
X133300000Y-90200000D02*
X133300000Y-91600000D01*
X133300000Y-91600000D02*
X136300000Y-94600000D01*
D47*
%TO.N,GND*%
X161062500Y-91975000D02*
X161412500Y-91625000D01*
D46*
X140800000Y-78300000D02*
X139900000Y-78300000D01*
X141200000Y-78800000D02*
X141200000Y-78700000D01*
D47*
X159525000Y-91975000D02*
X161062500Y-91975000D01*
X156637500Y-90875000D02*
X156637500Y-89600000D01*
D46*
X138900000Y-79300000D02*
X138700000Y-79500000D01*
X140237500Y-92950000D02*
X141550000Y-92950000D01*
X138700000Y-78100000D02*
X138900000Y-78300000D01*
D47*
X156187500Y-91325000D02*
X156637500Y-90875000D01*
D45*
X125062500Y-77937500D02*
X125062500Y-78500000D01*
D46*
X138900000Y-78300000D02*
X139900000Y-78300000D01*
X142325000Y-93725000D02*
X142325000Y-96400000D01*
D45*
X125062500Y-78500000D02*
X125987500Y-79425000D01*
D46*
X139900000Y-79300000D02*
X138900000Y-79300000D01*
D45*
X125062500Y-77937500D02*
X125062500Y-76900000D01*
D47*
X155300000Y-91325000D02*
X156187500Y-91325000D01*
D46*
X141200000Y-78900000D02*
X140800000Y-79300000D01*
X141200000Y-78800000D02*
X141200000Y-78900000D01*
X141550000Y-92950000D02*
X142325000Y-93725000D01*
X141200000Y-78700000D02*
X140800000Y-78300000D01*
X140800000Y-79300000D02*
X139900000Y-79300000D01*
D44*
%TO.N,+5V*%
X127625000Y-81300000D02*
X127725000Y-81400000D01*
D46*
X128412500Y-81400000D02*
X128862500Y-81850000D01*
D44*
X126900000Y-81300000D02*
X127625000Y-81300000D01*
D46*
X128387499Y-83300000D02*
X127725000Y-83300000D01*
D44*
X123600000Y-81300000D02*
X127512500Y-81300000D01*
D46*
X128862500Y-82824999D02*
X128387499Y-83300000D01*
X128862500Y-81850000D02*
X128862500Y-82824999D01*
D44*
X122987500Y-81300000D02*
X123600000Y-81300000D01*
X124437500Y-79425000D02*
X124437500Y-81275000D01*
D45*
X124562500Y-77937500D02*
X124562500Y-79300000D01*
D46*
X127725000Y-81400000D02*
X128412500Y-81400000D01*
D45*
X124562500Y-79300000D02*
X124437500Y-79425000D01*
D44*
X123575000Y-81275000D02*
X123600000Y-81300000D01*
D48*
%TO.N,/RF_Rx/DetectorIn*%
X162862500Y-91650000D02*
X162862500Y-88550000D01*
X159260000Y-84947500D02*
X159260000Y-82475000D01*
X162862500Y-88550000D02*
X159260000Y-84947500D01*
D49*
%TO.N,+3V0*%
X131100000Y-76200000D02*
X132112500Y-76200000D01*
D44*
X130000000Y-80600000D02*
X130000000Y-79787500D01*
X122100000Y-84700000D02*
X121425000Y-85375000D01*
D46*
X118015000Y-87710000D02*
X117500000Y-87195000D01*
D44*
X129600000Y-84700000D02*
X122100000Y-84700000D01*
D49*
X130000000Y-79787500D02*
X130037500Y-79750000D01*
D44*
X133900000Y-81400000D02*
X133900000Y-83612500D01*
D49*
X130037500Y-79750000D02*
X130037500Y-77262500D01*
D44*
X130000000Y-84300000D02*
X129600000Y-84700000D01*
X130000000Y-81400000D02*
X130000000Y-80600000D01*
D46*
X121425000Y-86975000D02*
X120690000Y-87710000D01*
X119725000Y-87710000D02*
X118015000Y-87710000D01*
X120690000Y-87710000D02*
X119725000Y-87710000D01*
D44*
X121425000Y-85375000D02*
X121425000Y-86020000D01*
D46*
X121425000Y-86020000D02*
X121425000Y-86975000D01*
D49*
X130037500Y-77262500D02*
X131100000Y-76200000D01*
D48*
%TO.N,/RF_Tx/PAMatched*%
X145987500Y-77800000D02*
X148625000Y-77800000D01*
D47*
%TO.N,/RF_Rx/Signal*%
X155300000Y-92625000D02*
X153475000Y-92625000D01*
X153475000Y-92625000D02*
X153462500Y-92637500D01*
D46*
%TO.N,/UPDI*%
X123952678Y-92790000D02*
X120742678Y-96000000D01*
X124675000Y-92790000D02*
X123952678Y-92790000D01*
X120742678Y-96000000D02*
X111800000Y-96000000D01*
D45*
%TO.N,Net-(U4-3V3OUT)*%
X123137500Y-77937500D02*
X122350000Y-77937500D01*
X122350000Y-77937500D02*
X122262500Y-78025000D01*
X123137500Y-77937500D02*
X123125000Y-77925000D01*
X124062500Y-77937500D02*
X123137500Y-77937500D01*
X123125000Y-77000000D02*
X123125000Y-77925000D01*
X128025000Y-75425000D02*
X127600000Y-75000000D01*
X127600000Y-75000000D02*
X127000000Y-75000000D01*
D46*
%TO.N,/RF_Tx/3VTx*%
X137600000Y-78200000D02*
X137600000Y-76275000D01*
D44*
X133687500Y-76200000D02*
X141575000Y-76200000D01*
X141575000Y-76200000D02*
X141600000Y-76225000D01*
D46*
X139900000Y-78800000D02*
X138200000Y-78800000D01*
X138200000Y-78800000D02*
X137600000Y-78200000D01*
D48*
%TO.N,Net-(J4-In)*%
X164787500Y-92825000D02*
X168000000Y-92825000D01*
X164787500Y-92825000D02*
X164412500Y-93200000D01*
%TO.N,/RF_Tx/PAOut*%
X141600000Y-77800000D02*
X144412500Y-77800000D01*
D46*
X139900000Y-77800000D02*
X141600000Y-77800000D01*
%TO.N,Net-(Q1-B)*%
X137100000Y-96400000D02*
X138000000Y-97300000D01*
X138000000Y-97300000D02*
X150700000Y-97300000D01*
X150700000Y-97300000D02*
X151562500Y-96437500D01*
X151562500Y-96437500D02*
X151562500Y-92637500D01*
X134325000Y-96400000D02*
X137100000Y-96400000D01*
%TO.N,Net-(C22-Pad1)*%
X152312500Y-87325000D02*
X152312500Y-85800000D01*
%TO.N,/RF_Rx/3VRx*%
X143875000Y-93725000D02*
X143875000Y-96400000D01*
D47*
X155300000Y-93275000D02*
X155300000Y-94612500D01*
D44*
X133900000Y-85187500D02*
X133900000Y-86625000D01*
D46*
X149175000Y-91325000D02*
X149200000Y-91325000D01*
D44*
X153175000Y-94625000D02*
X153812500Y-94625000D01*
X153812500Y-94625000D02*
X155312500Y-94625000D01*
D47*
X155300000Y-94612500D02*
X155312500Y-94625000D01*
D46*
X147550000Y-92950000D02*
X149175000Y-91325000D01*
D47*
X155300000Y-93275000D02*
X156937500Y-93275000D01*
D44*
X144900000Y-96400000D02*
X143875000Y-96400000D01*
X152300000Y-95500000D02*
X153175000Y-94625000D01*
D47*
X156937500Y-93275000D02*
X157587500Y-92625000D01*
D46*
X145962500Y-92950000D02*
X147550000Y-92950000D01*
D44*
X152300000Y-96400000D02*
X152300000Y-95500000D01*
D46*
X144650000Y-92950000D02*
X143875000Y-93725000D01*
D47*
X157587500Y-92625000D02*
X159525000Y-92625000D01*
D46*
X145962500Y-92950000D02*
X144650000Y-92950000D01*
D45*
%TO.N,/uartTx*%
X125562500Y-72700000D02*
X126062500Y-73200000D01*
D46*
X113300000Y-89880000D02*
X111800000Y-88380000D01*
D45*
X121100000Y-72700000D02*
X125562500Y-72700000D01*
D46*
X119725000Y-95330000D02*
X114630000Y-95330000D01*
X113300000Y-94000000D02*
X113300000Y-89880000D01*
X114630000Y-95330000D02*
X113300000Y-94000000D01*
D45*
X126062500Y-73200000D02*
X126062500Y-74062500D01*
%TO.N,/uartRx*%
X128762500Y-75837500D02*
X128100000Y-76500000D01*
X126562500Y-72700000D02*
X127862500Y-72700000D01*
D46*
X114800000Y-94600000D02*
X114100000Y-93900000D01*
X114100000Y-88140000D02*
X111800000Y-85840000D01*
D45*
X128100000Y-76500000D02*
X127000000Y-76500000D01*
D46*
X119725000Y-94060000D02*
X118740000Y-94060000D01*
X118200000Y-94600000D02*
X114800000Y-94600000D01*
X118740000Y-94060000D02*
X118200000Y-94600000D01*
D45*
X127862500Y-72700000D02*
X128762500Y-73600000D01*
D46*
X114100000Y-93900000D02*
X114100000Y-88140000D01*
D45*
X128762500Y-73600000D02*
X128762500Y-75837500D01*
D46*
%TO.N,Net-(D1-A)*%
X116655000Y-88845000D02*
X117500000Y-88845000D01*
X115950000Y-89550000D02*
X116655000Y-88845000D01*
X115950000Y-90520000D02*
X115950000Y-89550000D01*
%TO.N,/TagPulses*%
X140237500Y-94900000D02*
X139075000Y-94900000D01*
X139075000Y-94900000D02*
X138400000Y-95575000D01*
%TO.N,Net-(U6A-+)*%
X147025000Y-93600000D02*
X147700000Y-94275000D01*
X145962500Y-93600000D02*
X147025000Y-93600000D01*
X149200000Y-94225000D02*
X149200000Y-92975000D01*
X149150000Y-94275000D02*
X149200000Y-94225000D01*
X147700000Y-94275000D02*
X149150000Y-94275000D01*
D48*
%TO.N,Net-(J2-In)*%
X168000000Y-77000000D02*
X160085000Y-77000000D01*
X160085000Y-77000000D02*
X159260000Y-77825000D01*
D45*
%TO.N,Net-(J3-CC1)*%
X118150000Y-76250000D02*
X119575000Y-74825000D01*
X117380000Y-76250000D02*
X118150000Y-76250000D01*
X119575000Y-74825000D02*
X119900000Y-74825000D01*
%TO.N,Net-(J3-CC2)*%
X118625000Y-79250000D02*
X119900000Y-77975000D01*
X117380000Y-79250000D02*
X118625000Y-79250000D01*
D47*
%TO.N,Net-(U7-RF_IN)*%
X161337500Y-93275000D02*
X161412500Y-93200000D01*
D48*
X161412500Y-93200000D02*
X162862500Y-93200000D01*
D47*
X159525000Y-93275000D02*
X161337500Y-93275000D01*
D48*
%TO.N,Net-(U1-CPL)*%
X152200000Y-82475000D02*
X151700000Y-81975000D01*
X153340000Y-82475000D02*
X152200000Y-82475000D01*
D47*
%TO.N,Net-(U7-CLPF)*%
X159525000Y-91325000D02*
X158537500Y-91325000D01*
X158537500Y-91325000D02*
X158187500Y-90975000D01*
X158187500Y-90975000D02*
X158187500Y-89600000D01*
D46*
%TO.N,Net-(C23-Pad1)*%
X143875000Y-87950000D02*
X143875000Y-89400000D01*
X143875000Y-89400000D02*
X143925000Y-89450000D01*
%TO.N,/RF_Rx/TagSignal*%
X152512500Y-90762500D02*
X152512500Y-89075000D01*
X152512500Y-89075000D02*
X152312500Y-88875000D01*
%TO.N,/RF_Rx/Amp1*%
X146000000Y-85300000D02*
X146000000Y-90962500D01*
X146000000Y-90962500D02*
X145962500Y-91000000D01*
X142325000Y-87325000D02*
X143050000Y-86600000D01*
X143050000Y-86600000D02*
X146000000Y-86600000D01*
X142325000Y-87950000D02*
X142325000Y-87325000D01*
%TO.N,Net-(U6B--)*%
X145962500Y-91650000D02*
X146750000Y-91650000D01*
X147475000Y-90925000D02*
X147475000Y-87950000D01*
X150512500Y-85950000D02*
X150662500Y-85800000D01*
X147475000Y-86475000D02*
X148000000Y-85950000D01*
X146750000Y-91650000D02*
X147475000Y-90925000D01*
X147475000Y-87950000D02*
X147475000Y-86475000D01*
X148000000Y-85950000D02*
X150512500Y-85950000D01*
%TO.N,Net-(U6C--)*%
X142275000Y-89450000D02*
X142275000Y-90875000D01*
X141500000Y-91650000D02*
X140237500Y-91650000D01*
X140325000Y-86425000D02*
X140325000Y-89450000D01*
X140325000Y-89450000D02*
X142275000Y-89450000D01*
X140800000Y-85950000D02*
X140325000Y-86425000D01*
X142275000Y-90875000D02*
X141500000Y-91650000D01*
%TO.N,/RF_Rx/Amp2*%
X138800000Y-85300000D02*
X138800000Y-89325000D01*
X138800000Y-89325000D02*
X138675000Y-89450000D01*
X138675000Y-89450000D02*
X138675000Y-90650000D01*
X140300000Y-90937500D02*
X140237500Y-91000000D01*
X138675000Y-90650000D02*
X138400000Y-90925000D01*
%TO.N,/LEDRed*%
X115950000Y-92550000D02*
X115950000Y-93320000D01*
X116600000Y-91900000D02*
X115950000Y-92550000D01*
X119725000Y-91520000D02*
X118380000Y-91520000D01*
X118380000Y-91520000D02*
X118000000Y-91900000D01*
X118000000Y-91900000D02*
X116600000Y-91900000D01*
%TO.N,/LEDBlue*%
X119725000Y-90250000D02*
X117720000Y-90250000D01*
X117720000Y-90250000D02*
X117450000Y-90520000D01*
%TO.N,/LEDGreen*%
X119725000Y-92790000D02*
X117980000Y-92790000D01*
X117980000Y-92790000D02*
X117450000Y-93320000D01*
D48*
%TO.N,/RF_Tx/RfOut*%
X153315000Y-77800000D02*
X153340000Y-77825000D01*
X150175000Y-77800000D02*
X153315000Y-77800000D01*
D46*
%TO.N,Net-(U5-XTAL2)*%
X139250000Y-81450000D02*
X138300000Y-81450000D01*
X139900000Y-79800000D02*
X139900000Y-80800000D01*
X139900000Y-80800000D02*
X139250000Y-81450000D01*
%TO.N,Net-(U5-XTAL1)*%
X135500000Y-81800000D02*
X136250000Y-82550000D01*
X135500000Y-79800000D02*
X135500000Y-81800000D01*
X136250000Y-82550000D02*
X136900000Y-82550000D01*
D45*
%TO.N,/USB_N*%
X117380000Y-76750000D02*
X118750000Y-76750000D01*
X116300000Y-77500000D02*
X116550000Y-77750000D01*
X119500000Y-76000000D02*
X123125000Y-76000000D01*
X116300000Y-77000000D02*
X116300000Y-77500000D01*
X117380000Y-76750000D02*
X116550000Y-76750000D01*
X116550000Y-76750000D02*
X116300000Y-77000000D01*
X118750000Y-76750000D02*
X119500000Y-76000000D01*
X116550000Y-77750000D02*
X117380000Y-77750000D01*
%TO.N,/USB_P*%
X118400000Y-78000000D02*
X118400000Y-77250000D01*
X117380000Y-78250000D02*
X118150000Y-78250000D01*
X118950000Y-77250000D02*
X119700000Y-76500000D01*
X118400000Y-77250000D02*
X117380000Y-77250000D01*
X118150000Y-78250000D02*
X118400000Y-78000000D01*
X119700000Y-76500000D02*
X123125000Y-76500000D01*
X118400000Y-77250000D02*
X118950000Y-77250000D01*
D46*
%TO.N,/VBUS*%
X116805001Y-79900000D02*
X117380000Y-79900000D01*
X117380000Y-75100000D02*
X116800000Y-75100000D01*
D44*
X119900000Y-81325000D02*
X121387500Y-81325000D01*
X118725000Y-81325000D02*
X118700000Y-81300000D01*
D46*
X115700000Y-76200000D02*
X115700000Y-78794999D01*
X116800000Y-75100000D02*
X115700000Y-76200000D01*
D44*
X119900000Y-81325000D02*
X118725000Y-81325000D01*
D46*
X115700000Y-78794999D02*
X116805001Y-79900000D01*
D44*
X118300000Y-79900000D02*
X117380000Y-79900000D01*
X118700000Y-81300000D02*
X118700000Y-80300000D01*
X121387500Y-81325000D02*
X121412500Y-81300000D01*
X118700000Y-80300000D02*
X118300000Y-79900000D01*
D46*
%TO.N,Net-(U6D-+)*%
X140237500Y-93600000D02*
X138725000Y-93600000D01*
X138725000Y-93600000D02*
X138400000Y-93925000D01*
X138400000Y-92575000D02*
X138400000Y-93925000D01*
%TO.N,/~{ReaderCmd}*%
X128200000Y-96400000D02*
X132675000Y-96400000D01*
X124675000Y-95330000D02*
X127130000Y-95330000D01*
X127130000Y-95330000D02*
X128200000Y-96400000D01*
%TO.N,/RF_Rx/CM*%
X140237500Y-94250000D02*
X141550000Y-94250000D01*
X140237500Y-92300000D02*
X143100000Y-92300000D01*
X141550000Y-94250000D02*
X141600000Y-94200000D01*
X144650000Y-94250000D02*
X144600000Y-94200000D01*
X145912500Y-94200000D02*
X145962500Y-94250000D01*
X143100000Y-92300000D02*
X145962500Y-92300000D01*
X145962500Y-94900000D02*
X144800000Y-94900000D01*
X144800000Y-94900000D02*
X144600000Y-94700000D01*
X144600000Y-94700000D02*
X144600000Y-94200000D01*
X145962500Y-94250000D02*
X144650000Y-94250000D01*
X143100000Y-94200000D02*
X143100000Y-92300000D01*
%TD*%
%TA.AperFunction,Conductor*%
%TO.N,GND*%
G36*
X120714194Y-72020502D02*
G01*
X120760687Y-72074158D01*
X120770791Y-72144432D01*
X120741297Y-72209012D01*
X120735168Y-72215595D01*
X120619485Y-72331277D01*
X120619477Y-72331287D01*
X120540424Y-72468211D01*
X120540423Y-72468216D01*
X120499500Y-72620943D01*
X120499500Y-72779057D01*
X120535589Y-72913743D01*
X120540424Y-72931788D01*
X120619477Y-73068712D01*
X120619485Y-73068722D01*
X120731277Y-73180514D01*
X120731282Y-73180518D01*
X120731284Y-73180520D01*
X120731285Y-73180521D01*
X120731287Y-73180522D01*
X120868211Y-73259575D01*
X120868213Y-73259575D01*
X120868216Y-73259577D01*
X121020943Y-73300500D01*
X121020945Y-73300500D01*
X121179055Y-73300500D01*
X121179057Y-73300500D01*
X121331784Y-73259577D01*
X121331787Y-73259575D01*
X121331788Y-73259575D01*
X121400250Y-73220048D01*
X121468716Y-73180520D01*
X121468722Y-73180514D01*
X121486832Y-73162405D01*
X121549144Y-73128379D01*
X121575927Y-73125500D01*
X123829594Y-73125500D01*
X123897715Y-73145502D01*
X123944208Y-73199158D01*
X123954312Y-73269432D01*
X123924818Y-73334012D01*
X123884933Y-73364697D01*
X123786153Y-73412987D01*
X123786151Y-73412988D01*
X123700488Y-73498651D01*
X123700487Y-73498653D01*
X123647280Y-73607488D01*
X123647280Y-73607491D01*
X123637000Y-73678047D01*
X123637000Y-74448500D01*
X123616998Y-74516621D01*
X123563342Y-74563114D01*
X123511000Y-74574500D01*
X122740554Y-74574500D01*
X122669988Y-74584780D01*
X122561155Y-74637985D01*
X122561151Y-74637988D01*
X122475488Y-74723651D01*
X122475487Y-74723653D01*
X122422280Y-74832488D01*
X122422280Y-74832491D01*
X122412000Y-74903047D01*
X122412000Y-75096945D01*
X122422280Y-75167511D01*
X122422280Y-75167512D01*
X122435554Y-75194664D01*
X122447502Y-75264648D01*
X122446294Y-75272700D01*
X122443169Y-75289761D01*
X122422280Y-75332491D01*
X122412000Y-75403051D01*
X122412000Y-75459939D01*
X122409938Y-75471200D01*
X122398906Y-75493093D01*
X122391998Y-75516621D01*
X122383217Y-75524229D01*
X122377991Y-75534602D01*
X122356874Y-75547055D01*
X122338342Y-75563114D01*
X122324563Y-75566111D01*
X122316837Y-75570668D01*
X122305598Y-75570236D01*
X122286000Y-75574500D01*
X120640567Y-75574500D01*
X120572446Y-75554498D01*
X120525953Y-75500842D01*
X120515849Y-75430568D01*
X120539699Y-75372991D01*
X120570017Y-75332491D01*
X120618796Y-75267331D01*
X120669091Y-75132483D01*
X120675500Y-75072873D01*
X120675499Y-74577128D01*
X120669091Y-74517517D01*
X120642771Y-74446949D01*
X120618798Y-74382673D01*
X120618796Y-74382670D01*
X120618796Y-74382669D01*
X120575671Y-74325061D01*
X120532546Y-74267453D01*
X120426858Y-74188336D01*
X120417331Y-74181204D01*
X120417329Y-74181203D01*
X120417326Y-74181201D01*
X120282483Y-74130909D01*
X120282486Y-74130909D01*
X120222873Y-74124500D01*
X119577135Y-74124500D01*
X119577114Y-74124502D01*
X119517519Y-74130908D01*
X119517518Y-74130908D01*
X119382673Y-74181201D01*
X119382670Y-74181203D01*
X119267453Y-74267453D01*
X119181203Y-74382670D01*
X119181201Y-74382673D01*
X119130909Y-74517515D01*
X119124500Y-74577121D01*
X119124500Y-74621562D01*
X119104498Y-74689683D01*
X119087595Y-74710657D01*
X118470595Y-75327657D01*
X118408283Y-75361683D01*
X118337468Y-75356618D01*
X118280632Y-75314071D01*
X118255821Y-75247551D01*
X118255500Y-75238562D01*
X118255500Y-74895735D01*
X118255500Y-74895734D01*
X118252646Y-74865301D01*
X118242856Y-74837324D01*
X118207793Y-74737118D01*
X118207791Y-74737114D01*
X118127150Y-74627849D01*
X118017885Y-74547208D01*
X118017881Y-74547206D01*
X117889704Y-74502355D01*
X117889700Y-74502354D01*
X117859266Y-74499500D01*
X116900734Y-74499500D01*
X116900733Y-74499500D01*
X116870293Y-74502354D01*
X116866996Y-74503075D01*
X116864497Y-74502898D01*
X116862668Y-74503070D01*
X116862639Y-74502767D01*
X116796176Y-74498069D01*
X116739305Y-74455569D01*
X116731594Y-74442029D01*
X116730792Y-74442493D01*
X116667092Y-74332161D01*
X116667084Y-74332151D01*
X116582848Y-74247915D01*
X116582838Y-74247907D01*
X116479663Y-74188339D01*
X116479660Y-74188338D01*
X116479659Y-74188337D01*
X116479657Y-74188336D01*
X116479656Y-74188336D01*
X116448818Y-74180073D01*
X116364573Y-74157500D01*
X116245427Y-74157500D01*
X116183755Y-74174024D01*
X116130343Y-74188336D01*
X116130336Y-74188339D01*
X116027161Y-74247907D01*
X116027151Y-74247915D01*
X115942915Y-74332151D01*
X115942907Y-74332161D01*
X115883339Y-74435336D01*
X115883336Y-74435343D01*
X115879811Y-74448500D01*
X115852500Y-74550427D01*
X115852500Y-74669573D01*
X115870599Y-74737118D01*
X115883336Y-74784656D01*
X115883339Y-74784663D01*
X115942907Y-74887838D01*
X115942915Y-74887848D01*
X116027151Y-74972084D01*
X116027156Y-74972088D01*
X116027158Y-74972090D01*
X116052095Y-74986487D01*
X116101089Y-75037869D01*
X116114527Y-75107582D01*
X116088141Y-75173493D01*
X116078193Y-75184702D01*
X115339513Y-75923383D01*
X115339508Y-75923389D01*
X115280200Y-76026113D01*
X115280201Y-76026114D01*
X115252194Y-76130639D01*
X115249500Y-76140692D01*
X115249500Y-78854308D01*
X115265768Y-78915024D01*
X115280198Y-78968878D01*
X115280203Y-78968890D01*
X115339508Y-79071609D01*
X115339516Y-79071619D01*
X116081363Y-79813466D01*
X116115389Y-79875778D01*
X116110324Y-79946593D01*
X116067777Y-80003429D01*
X116055269Y-80011680D01*
X116027159Y-80027909D01*
X116027151Y-80027915D01*
X115942915Y-80112151D01*
X115942907Y-80112161D01*
X115883339Y-80215336D01*
X115883336Y-80215343D01*
X115873222Y-80253091D01*
X115852500Y-80330427D01*
X115852500Y-80449573D01*
X115875073Y-80533818D01*
X115883336Y-80564656D01*
X115883339Y-80564663D01*
X115942907Y-80667838D01*
X115942915Y-80667848D01*
X116027151Y-80752084D01*
X116027156Y-80752088D01*
X116027158Y-80752090D01*
X116027159Y-80752091D01*
X116027161Y-80752092D01*
X116087395Y-80786868D01*
X116130341Y-80811663D01*
X116245427Y-80842500D01*
X116245429Y-80842500D01*
X116364571Y-80842500D01*
X116364573Y-80842500D01*
X116479659Y-80811663D01*
X116582842Y-80752090D01*
X116667090Y-80667842D01*
X116726663Y-80564659D01*
X116726662Y-80564659D01*
X116730793Y-80557506D01*
X116733844Y-80559267D01*
X116768089Y-80516636D01*
X116835417Y-80494110D01*
X116867010Y-80496927D01*
X116870298Y-80497645D01*
X116870301Y-80497646D01*
X116900734Y-80500500D01*
X117300943Y-80500500D01*
X117973500Y-80500500D01*
X118041621Y-80520502D01*
X118088114Y-80574158D01*
X118099500Y-80626500D01*
X118099500Y-81220939D01*
X118099499Y-81220943D01*
X118099499Y-81379057D01*
X118099500Y-81379060D01*
X118099500Y-82099074D01*
X118079498Y-82167195D01*
X118062595Y-82188169D01*
X116250764Y-84000000D01*
X114431286Y-85819478D01*
X114431284Y-85819480D01*
X114396756Y-85854008D01*
X114319483Y-85931280D01*
X114319478Y-85931286D01*
X114274433Y-86009308D01*
X114240425Y-86068209D01*
X114240423Y-86068214D01*
X114229385Y-86109409D01*
X114199499Y-86220943D01*
X114199499Y-86220945D01*
X114199499Y-86389207D01*
X114199500Y-86389220D01*
X114199500Y-87298207D01*
X114179498Y-87366328D01*
X114125842Y-87412821D01*
X114055568Y-87422925D01*
X113990988Y-87393431D01*
X113984405Y-87387302D01*
X112923881Y-86326778D01*
X112889855Y-86264466D01*
X112893142Y-86198749D01*
X112922171Y-86109409D01*
X112950500Y-85930546D01*
X112950500Y-85749454D01*
X112922171Y-85570591D01*
X112866211Y-85398361D01*
X112783996Y-85237006D01*
X112677553Y-85090499D01*
X112677550Y-85090496D01*
X112677548Y-85090493D01*
X112549506Y-84962451D01*
X112549503Y-84962449D01*
X112549501Y-84962447D01*
X112402994Y-84856004D01*
X112241639Y-84773789D01*
X112241636Y-84773788D01*
X112241634Y-84773787D01*
X112069412Y-84717830D01*
X112069409Y-84717829D01*
X111890546Y-84689500D01*
X111709454Y-84689500D01*
X111530591Y-84717829D01*
X111530588Y-84717829D01*
X111530587Y-84717830D01*
X111358365Y-84773787D01*
X111358359Y-84773790D01*
X111197002Y-84856006D01*
X111050496Y-84962449D01*
X111050493Y-84962451D01*
X110922451Y-85090493D01*
X110922449Y-85090496D01*
X110816006Y-85237002D01*
X110733790Y-85398359D01*
X110733787Y-85398365D01*
X110683756Y-85552348D01*
X110677829Y-85570591D01*
X110649500Y-85749454D01*
X110649500Y-85930546D01*
X110677829Y-86109409D01*
X110677830Y-86109412D01*
X110723870Y-86251113D01*
X110733789Y-86281639D01*
X110816004Y-86442994D01*
X110922447Y-86589501D01*
X110922449Y-86589503D01*
X110922451Y-86589506D01*
X111050493Y-86717548D01*
X111050496Y-86717550D01*
X111050499Y-86717553D01*
X111197006Y-86823996D01*
X111358361Y-86906211D01*
X111530591Y-86962171D01*
X111678211Y-86985551D01*
X111742363Y-87015964D01*
X111779890Y-87076232D01*
X111778876Y-87147221D01*
X111739643Y-87206393D01*
X111678211Y-87234448D01*
X111530591Y-87257829D01*
X111530588Y-87257829D01*
X111530587Y-87257830D01*
X111358365Y-87313787D01*
X111358359Y-87313790D01*
X111197002Y-87396006D01*
X111050496Y-87502449D01*
X111050493Y-87502451D01*
X110922451Y-87630493D01*
X110922449Y-87630496D01*
X110816006Y-87777002D01*
X110733790Y-87938359D01*
X110733787Y-87938365D01*
X110677830Y-88110587D01*
X110677829Y-88110591D01*
X110649500Y-88289454D01*
X110649500Y-88470546D01*
X110677829Y-88649409D01*
X110677830Y-88649412D01*
X110732429Y-88817455D01*
X110733789Y-88821639D01*
X110814223Y-88979498D01*
X110816006Y-88982997D01*
X110824021Y-88994028D01*
X110922447Y-89129501D01*
X110922449Y-89129503D01*
X110922451Y-89129506D01*
X111050493Y-89257548D01*
X111050496Y-89257550D01*
X111050499Y-89257553D01*
X111197006Y-89363996D01*
X111358361Y-89446211D01*
X111530591Y-89502171D01*
X111678211Y-89525551D01*
X111742363Y-89555964D01*
X111779890Y-89616232D01*
X111778876Y-89687221D01*
X111739643Y-89746393D01*
X111678211Y-89774448D01*
X111530591Y-89797829D01*
X111530588Y-89797829D01*
X111530587Y-89797830D01*
X111358365Y-89853787D01*
X111358359Y-89853790D01*
X111197002Y-89936006D01*
X111050496Y-90042449D01*
X111050493Y-90042451D01*
X110922451Y-90170493D01*
X110922449Y-90170496D01*
X110816006Y-90317002D01*
X110733790Y-90478359D01*
X110733787Y-90478365D01*
X110679158Y-90646500D01*
X110677829Y-90650591D01*
X110649500Y-90829454D01*
X110649500Y-91010546D01*
X110677829Y-91189409D01*
X110677830Y-91189412D01*
X110708985Y-91285301D01*
X110733789Y-91361639D01*
X110813705Y-91518482D01*
X110816006Y-91522997D01*
X110833408Y-91546949D01*
X110922447Y-91669501D01*
X110922449Y-91669503D01*
X110922451Y-91669506D01*
X111050493Y-91797548D01*
X111050496Y-91797550D01*
X111050499Y-91797553D01*
X111197006Y-91903996D01*
X111358361Y-91986211D01*
X111530591Y-92042171D01*
X111709454Y-92070500D01*
X111709457Y-92070500D01*
X111890543Y-92070500D01*
X111890546Y-92070500D01*
X112069409Y-92042171D01*
X112241639Y-91986211D01*
X112402994Y-91903996D01*
X112549501Y-91797553D01*
X112590800Y-91756254D01*
X112634405Y-91712650D01*
X112696717Y-91678624D01*
X112767532Y-91683689D01*
X112824368Y-91726236D01*
X112849179Y-91792756D01*
X112849500Y-91801745D01*
X112849500Y-94059309D01*
X112865622Y-94119480D01*
X112880198Y-94173879D01*
X112880203Y-94173891D01*
X112939508Y-94276610D01*
X112939516Y-94276620D01*
X113997302Y-95334405D01*
X114031327Y-95396717D01*
X114026263Y-95467532D01*
X113983716Y-95524368D01*
X113917196Y-95549179D01*
X113908207Y-95549500D01*
X113076499Y-95549500D01*
X113008378Y-95529498D01*
X112961885Y-95475842D01*
X112950499Y-95423500D01*
X112950499Y-95105140D01*
X112950499Y-95105136D01*
X112947585Y-95080009D01*
X112923517Y-95025499D01*
X112902206Y-94977234D01*
X112822767Y-94897795D01*
X112822765Y-94897794D01*
X112719989Y-94852414D01*
X112719990Y-94852414D01*
X112694868Y-94849500D01*
X110905140Y-94849500D01*
X110905133Y-94849501D01*
X110880009Y-94852414D01*
X110880005Y-94852416D01*
X110777234Y-94897793D01*
X110697795Y-94977232D01*
X110697794Y-94977234D01*
X110652414Y-95080009D01*
X110649500Y-95105129D01*
X110649500Y-96894859D01*
X110649501Y-96894866D01*
X110652414Y-96919990D01*
X110652416Y-96919994D01*
X110697793Y-97022765D01*
X110777232Y-97102204D01*
X110777234Y-97102205D01*
X110777235Y-97102206D01*
X110880009Y-97147585D01*
X110905135Y-97150500D01*
X112694864Y-97150499D01*
X112719991Y-97147585D01*
X112822765Y-97102206D01*
X112902206Y-97022765D01*
X112947585Y-96919991D01*
X112950500Y-96894865D01*
X112950500Y-96576500D01*
X112970502Y-96508379D01*
X113024158Y-96461886D01*
X113076500Y-96450500D01*
X120801987Y-96450500D01*
X120892351Y-96426286D01*
X120916565Y-96419799D01*
X121019292Y-96360489D01*
X123185633Y-94194147D01*
X123247943Y-94160124D01*
X123318758Y-94165188D01*
X123375594Y-94207735D01*
X123400175Y-94271477D01*
X123402352Y-94294692D01*
X123402355Y-94294704D01*
X123447206Y-94422881D01*
X123447208Y-94422885D01*
X123527848Y-94532148D01*
X123527849Y-94532148D01*
X123527850Y-94532150D01*
X123528303Y-94532484D01*
X123611140Y-94593621D01*
X123654072Y-94650166D01*
X123659618Y-94720946D01*
X123626017Y-94783488D01*
X123611140Y-94796379D01*
X123527848Y-94857851D01*
X123447208Y-94967114D01*
X123447206Y-94967118D01*
X123402355Y-95095295D01*
X123402354Y-95095299D01*
X123399500Y-95125733D01*
X123399500Y-95534266D01*
X123402354Y-95564700D01*
X123402355Y-95564704D01*
X123447206Y-95692881D01*
X123447208Y-95692885D01*
X123527849Y-95802150D01*
X123637114Y-95882791D01*
X123637118Y-95882793D01*
X123657774Y-95890021D01*
X123765301Y-95927646D01*
X123795734Y-95930500D01*
X123795736Y-95930500D01*
X125554264Y-95930500D01*
X125554266Y-95930500D01*
X125584699Y-95927646D01*
X125712882Y-95882793D01*
X125818124Y-95805120D01*
X125884812Y-95780763D01*
X125892946Y-95780500D01*
X126891207Y-95780500D01*
X126959328Y-95800502D01*
X126980297Y-95817400D01*
X127923387Y-96760490D01*
X127988338Y-96797989D01*
X128026114Y-96819799D01*
X128140691Y-96850500D01*
X128752340Y-96850500D01*
X128820461Y-96870502D01*
X128826338Y-96874856D01*
X128826494Y-96874643D01*
X128830498Y-96877552D01*
X128830499Y-96877553D01*
X128977006Y-96983996D01*
X129138361Y-97066211D01*
X129310591Y-97122171D01*
X129489454Y-97150500D01*
X129489457Y-97150500D01*
X129670543Y-97150500D01*
X129670546Y-97150500D01*
X129849409Y-97122171D01*
X130021639Y-97066211D01*
X130182994Y-96983996D01*
X130329501Y-96877553D01*
X130329501Y-96877552D01*
X130333506Y-96874643D01*
X130334892Y-96876551D01*
X130390953Y-96851612D01*
X130407660Y-96850500D01*
X131919952Y-96850500D01*
X131988073Y-96870502D01*
X132025302Y-96910490D01*
X132025803Y-96910116D01*
X132029287Y-96914770D01*
X132030540Y-96916116D01*
X132031201Y-96917327D01*
X132031204Y-96917331D01*
X132117454Y-97032546D01*
X132232669Y-97118796D01*
X132232671Y-97118796D01*
X132232673Y-97118798D01*
X132293030Y-97141309D01*
X132367514Y-97169090D01*
X132367517Y-97169091D01*
X132427127Y-97175500D01*
X132922872Y-97175499D01*
X132982483Y-97169091D01*
X133117331Y-97118796D01*
X133232546Y-97032546D01*
X133318796Y-96917331D01*
X133369091Y-96782483D01*
X133374722Y-96730104D01*
X133401892Y-96664513D01*
X133460210Y-96624023D01*
X133531161Y-96621489D01*
X133592219Y-96657717D01*
X133623998Y-96721204D01*
X133625278Y-96730107D01*
X133630908Y-96782481D01*
X133681201Y-96917326D01*
X133681203Y-96917329D01*
X133681204Y-96917331D01*
X133683198Y-96919994D01*
X133767453Y-97032546D01*
X133812426Y-97066212D01*
X133882669Y-97118796D01*
X133882671Y-97118796D01*
X133882673Y-97118798D01*
X133943030Y-97141309D01*
X134017514Y-97169090D01*
X134017517Y-97169091D01*
X134077127Y-97175500D01*
X134572872Y-97175499D01*
X134632483Y-97169091D01*
X134767331Y-97118796D01*
X134882546Y-97032546D01*
X134968796Y-96917331D01*
X134968796Y-96917328D01*
X134968798Y-96917327D01*
X134969460Y-96916116D01*
X134970436Y-96915139D01*
X134974197Y-96910116D01*
X134974919Y-96910656D01*
X135019661Y-96865913D01*
X135080048Y-96850500D01*
X136861207Y-96850500D01*
X136929328Y-96870502D01*
X136950297Y-96887400D01*
X137723386Y-97660489D01*
X137826113Y-97719799D01*
X137839540Y-97723396D01*
X137850314Y-97726283D01*
X137850318Y-97726284D01*
X137850326Y-97726286D01*
X137914054Y-97743362D01*
X137945519Y-97751794D01*
X138006141Y-97788746D01*
X138037162Y-97852608D01*
X138028732Y-97923102D01*
X137983528Y-97977848D01*
X137915902Y-97999464D01*
X137912906Y-97999500D01*
X110126500Y-97999500D01*
X110058379Y-97979498D01*
X110011886Y-97925842D01*
X110000500Y-97873500D01*
X110000500Y-72126500D01*
X110020502Y-72058379D01*
X110074158Y-72011886D01*
X110126500Y-72000500D01*
X120646073Y-72000500D01*
X120714194Y-72020502D01*
G37*
%TD.AperFunction*%
%TA.AperFunction,Conductor*%
G36*
X158354121Y-93145502D02*
G01*
X158400614Y-93199158D01*
X158412000Y-93251499D01*
X158412000Y-93406516D01*
X158426853Y-93500302D01*
X158484449Y-93613342D01*
X158574157Y-93703050D01*
X158606413Y-93719485D01*
X158687196Y-93760646D01*
X158780981Y-93775500D01*
X159444432Y-93775499D01*
X159444442Y-93775500D01*
X159459108Y-93775500D01*
X160724975Y-93775500D01*
X160793096Y-93795502D01*
X160801095Y-93801092D01*
X160899368Y-93875615D01*
X161032154Y-93927979D01*
X161079795Y-93933699D01*
X161112981Y-93942389D01*
X161179003Y-93969737D01*
X161333658Y-94000500D01*
X161333659Y-94000500D01*
X162941341Y-94000500D01*
X162941342Y-94000500D01*
X163054854Y-93977920D01*
X163079435Y-93975500D01*
X163128641Y-93975500D01*
X163128644Y-93975500D01*
X163213090Y-93965359D01*
X163347475Y-93912364D01*
X163462578Y-93825078D01*
X163462907Y-93824643D01*
X163465989Y-93820741D01*
X163475378Y-93809327D01*
X163487578Y-93800078D01*
X163541651Y-93728771D01*
X163543217Y-93726869D01*
X163570600Y-93708264D01*
X163597221Y-93688593D01*
X163599802Y-93688424D01*
X163601942Y-93686971D01*
X163635026Y-93686124D01*
X163668066Y-93683968D01*
X163670329Y-93685222D01*
X163672916Y-93685156D01*
X163701217Y-93702337D01*
X163730166Y-93718379D01*
X163732970Y-93721615D01*
X163733604Y-93722000D01*
X163733991Y-93722793D01*
X163740917Y-93730786D01*
X163812421Y-93825078D01*
X163927521Y-93912361D01*
X163927525Y-93912364D01*
X164061909Y-93965359D01*
X164061908Y-93965359D01*
X164084957Y-93968126D01*
X164146356Y-93975500D01*
X164195565Y-93975500D01*
X164220145Y-93977920D01*
X164333658Y-94000500D01*
X164333659Y-94000500D01*
X164491341Y-94000500D01*
X164491342Y-94000500D01*
X164604854Y-93977920D01*
X164629435Y-93975500D01*
X164678641Y-93975500D01*
X164678644Y-93975500D01*
X164763090Y-93965359D01*
X164897475Y-93912364D01*
X165012578Y-93825078D01*
X165099864Y-93709975D01*
X165101717Y-93705275D01*
X165145315Y-93649243D01*
X165212286Y-93625675D01*
X165218932Y-93625500D01*
X166181979Y-93625500D01*
X166250100Y-93645502D01*
X166258112Y-93651102D01*
X166315158Y-93694361D01*
X166455935Y-93749877D01*
X166455934Y-93749877D01*
X166483894Y-93753234D01*
X166544398Y-93760500D01*
X166544401Y-93760500D01*
X169330599Y-93760500D01*
X169330602Y-93760500D01*
X169419064Y-93749877D01*
X169559842Y-93694361D01*
X169680422Y-93602922D01*
X169771861Y-93482342D01*
X169771862Y-93482338D01*
X169773102Y-93480704D01*
X169830201Y-93438511D01*
X169901047Y-93433886D01*
X169963147Y-93468297D01*
X169996784Y-93530820D01*
X169999500Y-93556838D01*
X169999500Y-97873500D01*
X169979498Y-97941621D01*
X169925842Y-97988114D01*
X169873500Y-97999500D01*
X150787094Y-97999500D01*
X150768306Y-97993983D01*
X150748730Y-97993518D01*
X150734944Y-97984187D01*
X150718973Y-97979498D01*
X150706149Y-97964698D01*
X150689934Y-97953724D01*
X150683381Y-97938422D01*
X150672480Y-97925842D01*
X150669693Y-97906459D01*
X150661985Y-97888460D01*
X150664745Y-97872045D01*
X150662376Y-97855568D01*
X150670511Y-97837755D01*
X150673758Y-97818446D01*
X150684955Y-97806128D01*
X150691870Y-97790988D01*
X150708341Y-97780402D01*
X150721514Y-97765912D01*
X150749611Y-97753879D01*
X150751596Y-97752604D01*
X150754481Y-97751794D01*
X150849666Y-97726288D01*
X150849667Y-97726287D01*
X150849673Y-97726286D01*
X150873887Y-97719799D01*
X150976614Y-97660489D01*
X151754837Y-96882264D01*
X151817150Y-96848240D01*
X151887965Y-96853304D01*
X151923991Y-96876457D01*
X151924732Y-96875492D01*
X151931287Y-96880522D01*
X152068211Y-96959575D01*
X152068213Y-96959575D01*
X152068216Y-96959577D01*
X152220943Y-97000500D01*
X152220945Y-97000500D01*
X152379055Y-97000500D01*
X152379057Y-97000500D01*
X152531784Y-96959577D01*
X152531787Y-96959575D01*
X152531788Y-96959575D01*
X152643866Y-96894867D01*
X152668716Y-96880520D01*
X152780520Y-96768716D01*
X152840681Y-96664513D01*
X152859575Y-96631788D01*
X152859575Y-96631787D01*
X152859577Y-96631784D01*
X152900500Y-96479057D01*
X152900500Y-96320943D01*
X152900500Y-95800925D01*
X152920502Y-95732804D01*
X152937400Y-95711834D01*
X153268720Y-95380513D01*
X153331031Y-95346490D01*
X153401846Y-95351554D01*
X153403942Y-95352357D01*
X153436910Y-95365359D01*
X153521356Y-95375500D01*
X153521359Y-95375500D01*
X154103641Y-95375500D01*
X154103644Y-95375500D01*
X154188090Y-95365359D01*
X154322475Y-95312364D01*
X154390881Y-95260490D01*
X154403260Y-95251103D01*
X154424648Y-95242973D01*
X154443896Y-95230604D01*
X154465284Y-95227528D01*
X154469625Y-95225879D01*
X154479394Y-95225500D01*
X154645606Y-95225500D01*
X154713727Y-95245502D01*
X154721740Y-95251103D01*
X154802521Y-95312361D01*
X154802525Y-95312364D01*
X154936909Y-95365359D01*
X154936908Y-95365359D01*
X154959957Y-95368126D01*
X155021356Y-95375500D01*
X155021359Y-95375500D01*
X155603641Y-95375500D01*
X155603644Y-95375500D01*
X155688090Y-95365359D01*
X155822475Y-95312364D01*
X155937578Y-95225078D01*
X156024864Y-95109975D01*
X156077859Y-94975590D01*
X156088000Y-94891144D01*
X156088000Y-94358856D01*
X156077859Y-94274410D01*
X156076702Y-94271477D01*
X156024864Y-94140025D01*
X156024861Y-94140021D01*
X155937578Y-94024921D01*
X155907216Y-94001897D01*
X155865023Y-93944798D01*
X155860398Y-93873952D01*
X155894810Y-93811853D01*
X155957332Y-93778215D01*
X155983350Y-93775500D01*
X157003390Y-93775500D01*
X157003392Y-93775500D01*
X157130686Y-93741392D01*
X157244814Y-93675500D01*
X157757910Y-93162403D01*
X157820221Y-93128380D01*
X157847004Y-93125500D01*
X158286000Y-93125500D01*
X158354121Y-93145502D01*
G37*
%TD.AperFunction*%
%TA.AperFunction,Conductor*%
G36*
X139357766Y-92726067D02*
G01*
X139361658Y-92728050D01*
X139474696Y-92785646D01*
X139568481Y-92800500D01*
X140906518Y-92800499D01*
X141000304Y-92785646D01*
X141042329Y-92764232D01*
X141099532Y-92750500D01*
X142523500Y-92750500D01*
X142591621Y-92770502D01*
X142638114Y-92824158D01*
X142649500Y-92876500D01*
X142649500Y-93749389D01*
X142629498Y-93817510D01*
X142623465Y-93826089D01*
X142619482Y-93831280D01*
X142540424Y-93968211D01*
X142525342Y-94024499D01*
X142499500Y-94120943D01*
X142499500Y-94279057D01*
X142523153Y-94367331D01*
X142540424Y-94431788D01*
X142619477Y-94568712D01*
X142619485Y-94568722D01*
X142731277Y-94680514D01*
X142731282Y-94680518D01*
X142731284Y-94680520D01*
X142731285Y-94680521D01*
X142731287Y-94680522D01*
X142868211Y-94759575D01*
X142868213Y-94759575D01*
X142868216Y-94759577D01*
X143020943Y-94800500D01*
X143020945Y-94800500D01*
X143179056Y-94800500D01*
X143179057Y-94800500D01*
X143265890Y-94777233D01*
X143336864Y-94778922D01*
X143395660Y-94818715D01*
X143423609Y-94883979D01*
X143424500Y-94898939D01*
X143424500Y-95598909D01*
X143404498Y-95667030D01*
X143374635Y-95699306D01*
X143274920Y-95774923D01*
X143187638Y-95890021D01*
X143187635Y-95890025D01*
X143134640Y-96024409D01*
X143128310Y-96077127D01*
X143124500Y-96108856D01*
X143124500Y-96691144D01*
X143126232Y-96705568D01*
X143126582Y-96708480D01*
X143114843Y-96778499D01*
X143067112Y-96831057D01*
X143001480Y-96849500D01*
X138238793Y-96849500D01*
X138170672Y-96829498D01*
X138149698Y-96812595D01*
X137771085Y-96433982D01*
X137737059Y-96371670D01*
X137742124Y-96300855D01*
X137784671Y-96244019D01*
X137851191Y-96219208D01*
X137904211Y-96226830D01*
X138017517Y-96269091D01*
X138077127Y-96275500D01*
X138722872Y-96275499D01*
X138782483Y-96269091D01*
X138896646Y-96226510D01*
X138917326Y-96218798D01*
X138917326Y-96218797D01*
X138917331Y-96218796D01*
X139032546Y-96132546D01*
X139118796Y-96017331D01*
X139169091Y-95882483D01*
X139175500Y-95822873D01*
X139175499Y-95488793D01*
X139184284Y-95458872D01*
X139190914Y-95428404D01*
X139194726Y-95423311D01*
X139195501Y-95420674D01*
X139212407Y-95399695D01*
X139224702Y-95387401D01*
X139287016Y-95353378D01*
X139313794Y-95350500D01*
X139375468Y-95350500D01*
X139432670Y-95364232D01*
X139474696Y-95385646D01*
X139568481Y-95400500D01*
X140906518Y-95400499D01*
X141000304Y-95385646D01*
X141113342Y-95328050D01*
X141203050Y-95238342D01*
X141260646Y-95125304D01*
X141275500Y-95031519D01*
X141275499Y-94898938D01*
X141295501Y-94830819D01*
X141349156Y-94784326D01*
X141419430Y-94774221D01*
X141434103Y-94777231D01*
X141520943Y-94800500D01*
X141520944Y-94800500D01*
X141679055Y-94800500D01*
X141679057Y-94800500D01*
X141831784Y-94759577D01*
X141831787Y-94759575D01*
X141831788Y-94759575D01*
X141919243Y-94709083D01*
X141968716Y-94680520D01*
X142080520Y-94568716D01*
X142135852Y-94472878D01*
X142159575Y-94431788D01*
X142159575Y-94431787D01*
X142159577Y-94431784D01*
X142200500Y-94279057D01*
X142200500Y-94120943D01*
X142159577Y-93968216D01*
X142159575Y-93968213D01*
X142159575Y-93968211D01*
X142080522Y-93831287D01*
X142080514Y-93831277D01*
X141968722Y-93719485D01*
X141968712Y-93719477D01*
X141831788Y-93640424D01*
X141813743Y-93635589D01*
X141679057Y-93599500D01*
X141520943Y-93599500D01*
X141434109Y-93622766D01*
X141363133Y-93621077D01*
X141304338Y-93581283D01*
X141276390Y-93516018D01*
X141275499Y-93501060D01*
X141275499Y-93468483D01*
X141274529Y-93462354D01*
X141260646Y-93374696D01*
X141227528Y-93309699D01*
X141203050Y-93261657D01*
X141113342Y-93171949D01*
X141036006Y-93132545D01*
X141000304Y-93114354D01*
X140906519Y-93099500D01*
X140906515Y-93099500D01*
X139568483Y-93099500D01*
X139474697Y-93114353D01*
X139432671Y-93135767D01*
X139419456Y-93138939D01*
X139410966Y-93144396D01*
X139375468Y-93149500D01*
X139250974Y-93149500D01*
X139182853Y-93129498D01*
X139136360Y-93075842D01*
X139126256Y-93005568D01*
X139132918Y-92979469D01*
X139152227Y-92927697D01*
X139169091Y-92882483D01*
X139175286Y-92824862D01*
X139202454Y-92759273D01*
X139260772Y-92718782D01*
X139331723Y-92716248D01*
X139357766Y-92726067D01*
G37*
%TD.AperFunction*%
%TA.AperFunction,Conductor*%
G36*
X151579719Y-86057717D02*
G01*
X151611498Y-86121204D01*
X151612778Y-86130107D01*
X151618408Y-86182481D01*
X151668701Y-86317326D01*
X151668703Y-86317329D01*
X151668704Y-86317331D01*
X151722520Y-86389220D01*
X151754954Y-86432546D01*
X151781116Y-86452131D01*
X151823663Y-86508967D01*
X151828727Y-86579782D01*
X151794702Y-86642095D01*
X151781742Y-86653396D01*
X151687420Y-86724923D01*
X151600138Y-86840021D01*
X151600135Y-86840025D01*
X151547140Y-86974409D01*
X151537000Y-87058853D01*
X151537000Y-87591146D01*
X151547140Y-87675590D01*
X151600135Y-87809974D01*
X151600138Y-87809978D01*
X151687421Y-87925078D01*
X151785696Y-87999603D01*
X151827889Y-88056702D01*
X151832514Y-88127548D01*
X151798102Y-88189647D01*
X151785696Y-88200397D01*
X151687421Y-88274921D01*
X151600138Y-88390021D01*
X151600135Y-88390025D01*
X151547140Y-88524409D01*
X151537000Y-88608853D01*
X151537000Y-89141146D01*
X151547140Y-89225590D01*
X151600135Y-89359974D01*
X151600138Y-89359978D01*
X151687421Y-89475078D01*
X151802521Y-89562361D01*
X151802525Y-89562364D01*
X151936906Y-89615358D01*
X151936908Y-89615358D01*
X151936910Y-89615359D01*
X151951020Y-89617053D01*
X151952419Y-89617653D01*
X151953932Y-89617436D01*
X151984944Y-89631599D01*
X152016269Y-89645031D01*
X152017124Y-89646296D01*
X152018512Y-89646930D01*
X152036930Y-89675589D01*
X152056035Y-89703845D01*
X152056337Y-89705786D01*
X152056896Y-89706656D01*
X152062000Y-89742154D01*
X152062000Y-89782053D01*
X152041998Y-89850174D01*
X152037380Y-89856874D01*
X151959706Y-89962118D01*
X151914855Y-90090295D01*
X151914854Y-90090299D01*
X151912000Y-90120733D01*
X151912000Y-91404266D01*
X151914854Y-91434700D01*
X151916490Y-91442189D01*
X151915056Y-91442502D01*
X151918243Y-91504950D01*
X151882953Y-91566555D01*
X151819959Y-91599301D01*
X151783935Y-91601109D01*
X151766778Y-91599500D01*
X151766766Y-91599500D01*
X151358234Y-91599500D01*
X151358233Y-91599500D01*
X151327799Y-91602354D01*
X151327795Y-91602355D01*
X151199618Y-91647206D01*
X151199614Y-91647208D01*
X151090349Y-91727849D01*
X151009708Y-91837114D01*
X151009706Y-91837118D01*
X150964855Y-91965295D01*
X150964854Y-91965299D01*
X150962000Y-91995733D01*
X150962000Y-93279266D01*
X150964854Y-93309700D01*
X150964855Y-93309704D01*
X151009706Y-93437881D01*
X151009706Y-93437882D01*
X151060871Y-93507207D01*
X151082004Y-93535842D01*
X151087379Y-93543124D01*
X151111737Y-93609812D01*
X151112000Y-93617946D01*
X151112000Y-96198707D01*
X151091998Y-96266828D01*
X151075095Y-96287802D01*
X150550302Y-96812595D01*
X150487990Y-96846621D01*
X150461207Y-96849500D01*
X145552118Y-96849500D01*
X145483997Y-96829498D01*
X145437504Y-96775842D01*
X145427400Y-96705568D01*
X145442998Y-96660501D01*
X145454545Y-96640499D01*
X145459577Y-96631784D01*
X145500500Y-96479057D01*
X145500500Y-96320943D01*
X145459577Y-96168216D01*
X145459575Y-96168213D01*
X145459575Y-96168211D01*
X145380522Y-96031287D01*
X145380514Y-96031277D01*
X145268722Y-95919485D01*
X145268712Y-95919477D01*
X145131788Y-95840424D01*
X145113743Y-95835589D01*
X144979057Y-95799500D01*
X144979055Y-95799500D01*
X144549860Y-95799500D01*
X144527907Y-95793054D01*
X144505094Y-95791280D01*
X144486191Y-95780805D01*
X144481739Y-95779498D01*
X144473742Y-95773908D01*
X144375364Y-95699306D01*
X144333173Y-95642208D01*
X144325500Y-95598910D01*
X144325500Y-95364149D01*
X144345502Y-95296028D01*
X144399158Y-95249535D01*
X144469432Y-95239431D01*
X144514939Y-95258603D01*
X144516234Y-95256361D01*
X144626109Y-95319797D01*
X144626110Y-95319797D01*
X144626113Y-95319799D01*
X144634616Y-95322077D01*
X144650314Y-95326283D01*
X144650318Y-95326284D01*
X144650326Y-95326286D01*
X144740691Y-95350500D01*
X145100468Y-95350500D01*
X145157670Y-95364232D01*
X145199696Y-95385646D01*
X145293481Y-95400500D01*
X146631518Y-95400499D01*
X146725304Y-95385646D01*
X146838342Y-95328050D01*
X146928050Y-95238342D01*
X146985646Y-95125304D01*
X146997723Y-95049050D01*
X147028134Y-94984900D01*
X147088402Y-94947372D01*
X147159392Y-94948386D01*
X147183927Y-94958935D01*
X147190025Y-94962364D01*
X147324409Y-95015359D01*
X147324408Y-95015359D01*
X147341847Y-95017453D01*
X147408856Y-95025500D01*
X147408859Y-95025500D01*
X147991141Y-95025500D01*
X147991144Y-95025500D01*
X148075590Y-95015359D01*
X148209975Y-94962364D01*
X148325078Y-94875078D01*
X148338143Y-94857850D01*
X148382203Y-94799748D01*
X148439301Y-94757555D01*
X148510147Y-94752930D01*
X148558469Y-94779511D01*
X148560241Y-94777145D01*
X148567451Y-94782542D01*
X148567454Y-94782546D01*
X148682669Y-94868796D01*
X148682674Y-94868798D01*
X148682673Y-94868798D01*
X148743030Y-94891309D01*
X148817514Y-94919090D01*
X148817517Y-94919091D01*
X148877127Y-94925500D01*
X149522872Y-94925499D01*
X149582483Y-94919091D01*
X149705317Y-94873277D01*
X149717326Y-94868798D01*
X149717326Y-94868797D01*
X149717331Y-94868796D01*
X149832546Y-94782546D01*
X149918796Y-94667331D01*
X149969091Y-94532483D01*
X149975500Y-94472873D01*
X149975499Y-93977128D01*
X149969091Y-93917517D01*
X149936944Y-93831327D01*
X149918798Y-93782673D01*
X149918796Y-93782670D01*
X149918796Y-93782669D01*
X149838576Y-93675509D01*
X149813765Y-93608989D01*
X149828856Y-93539615D01*
X149838576Y-93524491D01*
X149851515Y-93507207D01*
X149918796Y-93417331D01*
X149969091Y-93282483D01*
X149975500Y-93222873D01*
X149975499Y-92727128D01*
X149969091Y-92667517D01*
X149937526Y-92582886D01*
X149918798Y-92532673D01*
X149918796Y-92532670D01*
X149918796Y-92532669D01*
X149870231Y-92467794D01*
X149832546Y-92417453D01*
X149726182Y-92337830D01*
X149717331Y-92331204D01*
X149717329Y-92331203D01*
X149717326Y-92331201D01*
X149582483Y-92280909D01*
X149582486Y-92280909D01*
X149530103Y-92275277D01*
X149464512Y-92248106D01*
X149424022Y-92189787D01*
X149421490Y-92118836D01*
X149457718Y-92057778D01*
X149521206Y-92026001D01*
X149530109Y-92024721D01*
X149532165Y-92024500D01*
X149582483Y-92019091D01*
X149717331Y-91968796D01*
X149832546Y-91882546D01*
X149918796Y-91767331D01*
X149922928Y-91756254D01*
X149937337Y-91717620D01*
X149969091Y-91632483D01*
X149975500Y-91572873D01*
X149975499Y-91077128D01*
X149969091Y-91017517D01*
X149940998Y-90942196D01*
X149918798Y-90882673D01*
X149918796Y-90882670D01*
X149918796Y-90882669D01*
X149844648Y-90783620D01*
X149832546Y-90767453D01*
X149740435Y-90698500D01*
X149717331Y-90681204D01*
X149717329Y-90681203D01*
X149717326Y-90681201D01*
X149582483Y-90630909D01*
X149582486Y-90630909D01*
X149522873Y-90624500D01*
X148877135Y-90624500D01*
X148877114Y-90624502D01*
X148817519Y-90630908D01*
X148817518Y-90630908D01*
X148682673Y-90681201D01*
X148682670Y-90681203D01*
X148567453Y-90767453D01*
X148481203Y-90882670D01*
X148481201Y-90882673D01*
X148430909Y-91017515D01*
X148424500Y-91077121D01*
X148424500Y-91386206D01*
X148404498Y-91454327D01*
X148387595Y-91475301D01*
X147400302Y-92462595D01*
X147372937Y-92477537D01*
X147346705Y-92494396D01*
X147340403Y-92495302D01*
X147337990Y-92496620D01*
X147311207Y-92499500D01*
X147126500Y-92499500D01*
X147058379Y-92479498D01*
X147011886Y-92425842D01*
X147000500Y-92373501D01*
X147000499Y-92168486D01*
X147000499Y-92168482D01*
X146992510Y-92118040D01*
X147001610Y-92047633D01*
X147027861Y-92009241D01*
X147835490Y-91201614D01*
X147894799Y-91098887D01*
X147907919Y-91049922D01*
X147925500Y-90984309D01*
X147925500Y-90263181D01*
X147945502Y-90195060D01*
X147975991Y-90162313D01*
X148082546Y-90082546D01*
X148100500Y-90058562D01*
X148168796Y-89967331D01*
X148219091Y-89832483D01*
X148225500Y-89772873D01*
X148225499Y-89127128D01*
X148219091Y-89067517D01*
X148191742Y-88994190D01*
X148168798Y-88932673D01*
X148168796Y-88932670D01*
X148168796Y-88932669D01*
X148095412Y-88834641D01*
X148082547Y-88817455D01*
X148075502Y-88812181D01*
X148051819Y-88794451D01*
X148009274Y-88737617D01*
X148004210Y-88666801D01*
X148038235Y-88604489D01*
X148051190Y-88593192D01*
X148075078Y-88575078D01*
X148162364Y-88459975D01*
X148215359Y-88325590D01*
X148225500Y-88241144D01*
X148225500Y-87658856D01*
X148215359Y-87574410D01*
X148186994Y-87502483D01*
X148162364Y-87440025D01*
X148162361Y-87440021D01*
X148075079Y-87324923D01*
X148075076Y-87324921D01*
X148035334Y-87294783D01*
X147975365Y-87249306D01*
X147933173Y-87192207D01*
X147925500Y-87148909D01*
X147925500Y-86713793D01*
X147934283Y-86683877D01*
X147940912Y-86653408D01*
X147944726Y-86648312D01*
X147945502Y-86645672D01*
X147962405Y-86624698D01*
X148074699Y-86512404D01*
X148137011Y-86478378D01*
X148163794Y-86475499D01*
X148270000Y-86475499D01*
X148270002Y-86475499D01*
X148366715Y-86460182D01*
X148456895Y-86414232D01*
X148514098Y-86400500D01*
X150020717Y-86400500D01*
X150088838Y-86420502D01*
X150097492Y-86427476D01*
X150097740Y-86427146D01*
X150131115Y-86452130D01*
X150220169Y-86518796D01*
X150220171Y-86518796D01*
X150220173Y-86518798D01*
X150280530Y-86541309D01*
X150355014Y-86569090D01*
X150355017Y-86569091D01*
X150414627Y-86575500D01*
X150910372Y-86575499D01*
X150969983Y-86569091D01*
X151104831Y-86518796D01*
X151220046Y-86432546D01*
X151306296Y-86317331D01*
X151309672Y-86308281D01*
X151330993Y-86251114D01*
X151356591Y-86182483D01*
X151362222Y-86130104D01*
X151389392Y-86064513D01*
X151447710Y-86024023D01*
X151518661Y-86021489D01*
X151579719Y-86057717D01*
G37*
%TD.AperFunction*%
%TA.AperFunction,Conductor*%
G36*
X122276752Y-81771302D02*
G01*
X122309832Y-81809478D01*
X122311883Y-81813129D01*
X122311885Y-81813132D01*
X122398133Y-81926867D01*
X122511868Y-82013115D01*
X122573636Y-82037473D01*
X122644653Y-82065479D01*
X122644652Y-82065479D01*
X122671028Y-82068646D01*
X122728098Y-82075500D01*
X122728099Y-82075500D01*
X123246901Y-82075500D01*
X123246902Y-82075500D01*
X123330346Y-82065479D01*
X123463132Y-82013115D01*
X123576867Y-81926867D01*
X123576868Y-81926865D01*
X123577875Y-81926102D01*
X123599266Y-81917971D01*
X123618511Y-81905604D01*
X123639899Y-81902528D01*
X123644240Y-81900879D01*
X123654009Y-81900500D01*
X123800140Y-81900500D01*
X123868261Y-81920502D01*
X123876257Y-81926091D01*
X123961374Y-81990637D01*
X123990025Y-82012364D01*
X124124409Y-82065359D01*
X124124408Y-82065359D01*
X124147457Y-82068126D01*
X124208856Y-82075500D01*
X124208859Y-82075500D01*
X124791141Y-82075500D01*
X124791144Y-82075500D01*
X124875590Y-82065359D01*
X125009975Y-82012364D01*
X125123727Y-81926101D01*
X125145116Y-81917972D01*
X125164362Y-81905604D01*
X125185749Y-81902528D01*
X125190090Y-81900879D01*
X125199860Y-81900500D01*
X125300140Y-81900500D01*
X125368261Y-81920502D01*
X125376257Y-81926091D01*
X125461374Y-81990637D01*
X125490025Y-82012364D01*
X125624409Y-82065359D01*
X125624408Y-82065359D01*
X125647457Y-82068126D01*
X125708856Y-82075500D01*
X125708859Y-82075500D01*
X126291141Y-82075500D01*
X126291144Y-82075500D01*
X126375590Y-82065359D01*
X126509975Y-82012364D01*
X126623727Y-81926101D01*
X126645116Y-81917972D01*
X126664362Y-81905604D01*
X126685749Y-81902528D01*
X126690090Y-81900879D01*
X126699860Y-81900500D01*
X126820943Y-81900500D01*
X126887301Y-81900500D01*
X126955422Y-81920502D01*
X126962122Y-81925121D01*
X126999613Y-81952791D01*
X126999618Y-81952793D01*
X127118118Y-81994258D01*
X127127801Y-81997646D01*
X127158234Y-82000500D01*
X127158236Y-82000500D01*
X128286000Y-82000500D01*
X128354121Y-82020502D01*
X128400614Y-82074158D01*
X128412000Y-82126500D01*
X128412000Y-82573500D01*
X128391998Y-82641621D01*
X128338342Y-82688114D01*
X128286000Y-82699500D01*
X127158233Y-82699500D01*
X127127799Y-82702354D01*
X127127795Y-82702355D01*
X126999618Y-82747206D01*
X126999614Y-82747208D01*
X126890349Y-82827849D01*
X126809708Y-82937114D01*
X126809706Y-82937118D01*
X126764855Y-83065295D01*
X126764854Y-83065299D01*
X126762000Y-83095733D01*
X126762000Y-83504266D01*
X126764854Y-83534700D01*
X126764855Y-83534704D01*
X126809706Y-83662881D01*
X126809708Y-83662885D01*
X126890349Y-83772150D01*
X126999614Y-83852791D01*
X126999618Y-83852793D01*
X127004698Y-83854571D01*
X127062390Y-83895949D01*
X127088552Y-83961949D01*
X127074879Y-84031617D01*
X127025712Y-84082833D01*
X126963083Y-84099500D01*
X122179057Y-84099500D01*
X122020943Y-84099500D01*
X121939099Y-84121429D01*
X121868217Y-84140422D01*
X121868210Y-84140425D01*
X121835147Y-84159515D01*
X121731287Y-84219477D01*
X121731282Y-84219481D01*
X121675381Y-84275382D01*
X121619480Y-84331284D01*
X121619478Y-84331286D01*
X121056286Y-84894478D01*
X121056284Y-84894480D01*
X121022670Y-84928094D01*
X120944481Y-85006282D01*
X120944477Y-85006287D01*
X120908435Y-85068716D01*
X120865423Y-85143213D01*
X120844961Y-85219579D01*
X120824499Y-85295943D01*
X120824499Y-85295945D01*
X120824499Y-85353107D01*
X120804497Y-85421228D01*
X120798897Y-85429240D01*
X120737635Y-85510025D01*
X120684640Y-85644409D01*
X120674500Y-85728853D01*
X120674500Y-86311146D01*
X120684640Y-86395590D01*
X120737635Y-86529974D01*
X120737638Y-86529978D01*
X120824921Y-86645078D01*
X120876358Y-86684084D01*
X120918551Y-86741183D01*
X120923176Y-86812029D01*
X120889319Y-86873576D01*
X120690300Y-87072595D01*
X120627988Y-87106621D01*
X120601205Y-87109500D01*
X118845733Y-87109500D01*
X118815299Y-87112354D01*
X118815295Y-87112355D01*
X118687118Y-87157206D01*
X118687117Y-87157206D01*
X118606060Y-87217030D01*
X118582459Y-87234449D01*
X118581876Y-87234879D01*
X118561129Y-87242456D01*
X118542552Y-87254396D01*
X118519281Y-87257741D01*
X118515188Y-87259237D01*
X118507054Y-87259500D01*
X118401500Y-87259500D01*
X118333379Y-87239498D01*
X118286886Y-87185842D01*
X118275500Y-87133501D01*
X118275499Y-86947135D01*
X118275499Y-86947128D01*
X118269091Y-86887517D01*
X118235332Y-86797004D01*
X118218798Y-86752673D01*
X118218796Y-86752670D01*
X118218796Y-86752669D01*
X118167298Y-86683877D01*
X118132546Y-86637453D01*
X118041225Y-86569091D01*
X118017331Y-86551204D01*
X118017329Y-86551203D01*
X118017326Y-86551201D01*
X117882483Y-86500909D01*
X117882486Y-86500909D01*
X117822873Y-86494500D01*
X117177135Y-86494500D01*
X117177114Y-86494502D01*
X117117519Y-86500908D01*
X117117518Y-86500908D01*
X116982673Y-86551201D01*
X116982670Y-86551203D01*
X116867453Y-86637453D01*
X116781203Y-86752670D01*
X116781201Y-86752673D01*
X116730909Y-86887515D01*
X116724500Y-86947121D01*
X116724500Y-87442864D01*
X116724502Y-87442885D01*
X116730908Y-87502480D01*
X116730908Y-87502481D01*
X116781201Y-87637326D01*
X116781203Y-87637329D01*
X116781204Y-87637331D01*
X116797318Y-87658856D01*
X116867453Y-87752546D01*
X116893398Y-87771968D01*
X116982669Y-87838796D01*
X116982671Y-87838796D01*
X116982673Y-87838798D01*
X117043030Y-87861309D01*
X117117517Y-87889091D01*
X117169895Y-87894722D01*
X117235486Y-87921892D01*
X117275976Y-87980210D01*
X117278510Y-88051161D01*
X117242282Y-88112219D01*
X117178795Y-88143998D01*
X117169892Y-88145278D01*
X117117518Y-88150908D01*
X116982674Y-88201201D01*
X116982670Y-88201203D01*
X116982669Y-88201204D01*
X116892490Y-88268712D01*
X116867450Y-88287457D01*
X116825115Y-88344010D01*
X116768279Y-88386556D01*
X116724248Y-88394500D01*
X116595691Y-88394500D01*
X116525567Y-88413289D01*
X116481109Y-88425202D01*
X116378390Y-88484507D01*
X116378380Y-88484515D01*
X115589516Y-89273379D01*
X115589508Y-89273389D01*
X115530200Y-89376113D01*
X115530201Y-89376114D01*
X115499848Y-89489395D01*
X115499500Y-89490692D01*
X115499500Y-89531707D01*
X115479498Y-89599828D01*
X115425842Y-89646321D01*
X115424394Y-89646971D01*
X115377234Y-89667793D01*
X115297795Y-89747232D01*
X115297794Y-89747234D01*
X115252414Y-89850009D01*
X115249500Y-89875129D01*
X115249500Y-91164859D01*
X115249501Y-91164866D01*
X115252414Y-91189990D01*
X115252416Y-91189994D01*
X115297793Y-91292765D01*
X115377232Y-91372204D01*
X115377234Y-91372205D01*
X115377235Y-91372206D01*
X115480009Y-91417585D01*
X115505135Y-91420500D01*
X116138205Y-91420499D01*
X116206326Y-91440501D01*
X116252819Y-91494157D01*
X116262923Y-91564430D01*
X116233430Y-91629011D01*
X116227301Y-91635594D01*
X115589513Y-92273383D01*
X115589510Y-92273387D01*
X115532072Y-92372872D01*
X115480689Y-92421865D01*
X115473848Y-92425135D01*
X115428537Y-92445142D01*
X115385296Y-92464235D01*
X115377233Y-92467795D01*
X115377232Y-92467795D01*
X115297795Y-92547232D01*
X115297794Y-92547234D01*
X115252414Y-92650009D01*
X115249500Y-92675129D01*
X115249500Y-93964859D01*
X115249501Y-93964866D01*
X115252414Y-93989989D01*
X115252532Y-93990420D01*
X115252522Y-93990914D01*
X115253507Y-93999407D01*
X115252350Y-93999541D01*
X115252020Y-94016050D01*
X115255670Y-94041432D01*
X115251324Y-94050946D01*
X115251116Y-94061403D01*
X115236826Y-94082692D01*
X115226176Y-94106012D01*
X115217378Y-94111665D01*
X115211549Y-94120351D01*
X115188018Y-94130534D01*
X115166450Y-94144396D01*
X115150786Y-94146648D01*
X115146392Y-94148550D01*
X115130952Y-94149500D01*
X115038793Y-94149500D01*
X114970672Y-94129498D01*
X114949698Y-94112595D01*
X114587405Y-93750302D01*
X114553379Y-93687990D01*
X114550500Y-93661207D01*
X114550500Y-88619036D01*
X114570502Y-88550915D01*
X114624158Y-88504422D01*
X114694432Y-88494318D01*
X114709113Y-88497330D01*
X114720943Y-88500500D01*
X114720944Y-88500500D01*
X114879055Y-88500500D01*
X114879057Y-88500500D01*
X115031784Y-88459577D01*
X115031787Y-88459575D01*
X115031788Y-88459575D01*
X115100250Y-88420048D01*
X115168716Y-88380520D01*
X115280520Y-88268716D01*
X115328783Y-88185121D01*
X115359575Y-88131788D01*
X115359575Y-88131787D01*
X115359577Y-88131784D01*
X115400500Y-87979057D01*
X115400500Y-86600924D01*
X115420502Y-86532803D01*
X115437400Y-86511834D01*
X119058339Y-82890894D01*
X119058349Y-82890887D01*
X119180514Y-82768722D01*
X119180520Y-82768716D01*
X119232030Y-82679498D01*
X119248417Y-82651114D01*
X119248419Y-82651110D01*
X119259577Y-82631785D01*
X119300501Y-82479057D01*
X119300501Y-82320943D01*
X119300501Y-82313226D01*
X119300500Y-82313208D01*
X119300500Y-82162191D01*
X119320502Y-82094070D01*
X119374158Y-82047577D01*
X119444432Y-82037473D01*
X119472723Y-82044976D01*
X119487265Y-82050710D01*
X119524408Y-82065359D01*
X119547457Y-82068126D01*
X119608856Y-82075500D01*
X119608859Y-82075500D01*
X120191141Y-82075500D01*
X120191144Y-82075500D01*
X120275590Y-82065359D01*
X120409975Y-82012364D01*
X120488534Y-81952791D01*
X120490760Y-81951103D01*
X120512148Y-81942973D01*
X120531396Y-81930604D01*
X120552784Y-81927528D01*
X120557125Y-81925879D01*
X120566894Y-81925500D01*
X120778959Y-81925500D01*
X120847080Y-81945502D01*
X120855075Y-81951089D01*
X120936868Y-82013115D01*
X120998636Y-82037473D01*
X121069653Y-82065479D01*
X121069652Y-82065479D01*
X121096028Y-82068646D01*
X121153098Y-82075500D01*
X121153099Y-82075500D01*
X121671901Y-82075500D01*
X121671902Y-82075500D01*
X121755346Y-82065479D01*
X121888132Y-82013115D01*
X122001867Y-81926867D01*
X122088115Y-81813132D01*
X122088118Y-81813123D01*
X122090168Y-81809478D01*
X122092922Y-81806791D01*
X122093322Y-81806264D01*
X122093401Y-81806323D01*
X122140988Y-81759901D01*
X122210544Y-81745670D01*
X122276752Y-81771302D01*
G37*
%TD.AperFunction*%
%TA.AperFunction,Conductor*%
G36*
X169941621Y-72020502D02*
G01*
X169988114Y-72074158D01*
X169999500Y-72126500D01*
X169999500Y-76268161D01*
X169979498Y-76336282D01*
X169925842Y-76382775D01*
X169855568Y-76392879D01*
X169790988Y-76363385D01*
X169773103Y-76344295D01*
X169680422Y-76222077D01*
X169559845Y-76130641D01*
X169559841Y-76130638D01*
X169419064Y-76075122D01*
X169419065Y-76075122D01*
X169330605Y-76064500D01*
X169330602Y-76064500D01*
X166544398Y-76064500D01*
X166544394Y-76064500D01*
X166455935Y-76075122D01*
X166315158Y-76130638D01*
X166258112Y-76173898D01*
X166191747Y-76199121D01*
X166181979Y-76199500D01*
X160006153Y-76199500D01*
X159892651Y-76222077D01*
X159892651Y-76222078D01*
X159882364Y-76224124D01*
X159851500Y-76230263D01*
X159851499Y-76230264D01*
X159705820Y-76290606D01*
X159594222Y-76365174D01*
X159574711Y-76378210D01*
X159265325Y-76687596D01*
X159203013Y-76721621D01*
X159176230Y-76724500D01*
X158415140Y-76724500D01*
X158415133Y-76724501D01*
X158390009Y-76727414D01*
X158390005Y-76727416D01*
X158287234Y-76772793D01*
X158207795Y-76852232D01*
X158207794Y-76852234D01*
X158162414Y-76955009D01*
X158159500Y-76980129D01*
X158159500Y-78669859D01*
X158159501Y-78669866D01*
X158162414Y-78694990D01*
X158162416Y-78694994D01*
X158207793Y-78797765D01*
X158287232Y-78877204D01*
X158287234Y-78877205D01*
X158287235Y-78877206D01*
X158390009Y-78922585D01*
X158415135Y-78925500D01*
X160104864Y-78925499D01*
X160129991Y-78922585D01*
X160232765Y-78877206D01*
X160312206Y-78797765D01*
X160357585Y-78694991D01*
X160360500Y-78669865D01*
X160360499Y-77926499D01*
X160380501Y-77858379D01*
X160434157Y-77811886D01*
X160486499Y-77800500D01*
X166181979Y-77800500D01*
X166250100Y-77820502D01*
X166258112Y-77826102D01*
X166315158Y-77869361D01*
X166455935Y-77924877D01*
X166455934Y-77924877D01*
X166483894Y-77928234D01*
X166544398Y-77935500D01*
X166544401Y-77935500D01*
X169330599Y-77935500D01*
X169330602Y-77935500D01*
X169419064Y-77924877D01*
X169559842Y-77869361D01*
X169680422Y-77777922D01*
X169771861Y-77657342D01*
X169771862Y-77657338D01*
X169773102Y-77655704D01*
X169830201Y-77613511D01*
X169901047Y-77608886D01*
X169963147Y-77643297D01*
X169996784Y-77705820D01*
X169999500Y-77731838D01*
X169999500Y-83530560D01*
X169979498Y-83598681D01*
X169925842Y-83645174D01*
X169855568Y-83655278D01*
X169790988Y-83625784D01*
X169759978Y-83585230D01*
X169749409Y-83563285D01*
X169717906Y-83497867D01*
X169713800Y-83491333D01*
X169625375Y-83350606D01*
X169532630Y-83203003D01*
X169532624Y-83202995D01*
X169315510Y-82930740D01*
X169069259Y-82684489D01*
X168797004Y-82467375D01*
X168797000Y-82467372D01*
X168502137Y-82282096D01*
X168502128Y-82282091D01*
X168188388Y-82131002D01*
X168188383Y-82131000D01*
X168188379Y-82130998D01*
X168188373Y-82130995D01*
X168188361Y-82130991D01*
X167859687Y-82015983D01*
X167520174Y-81938491D01*
X167174122Y-81899500D01*
X167174120Y-81899500D01*
X166825880Y-81899500D01*
X166825878Y-81899500D01*
X166479825Y-81938491D01*
X166140312Y-82015983D01*
X165811638Y-82130991D01*
X165811611Y-82131002D01*
X165497871Y-82282091D01*
X165497862Y-82282096D01*
X165202999Y-82467372D01*
X165202995Y-82467375D01*
X164930740Y-82684489D01*
X164684489Y-82930740D01*
X164467375Y-83202995D01*
X164467372Y-83202999D01*
X164282096Y-83497862D01*
X164282091Y-83497871D01*
X164131002Y-83811611D01*
X164130991Y-83811638D01*
X164015983Y-84140312D01*
X163938491Y-84479825D01*
X163899500Y-84825878D01*
X163899500Y-85174121D01*
X163938491Y-85520174D01*
X163970014Y-85658281D01*
X164015982Y-85859681D01*
X164015984Y-85859687D01*
X164015983Y-85859687D01*
X164130991Y-86188361D01*
X164131002Y-86188388D01*
X164282091Y-86502128D01*
X164282096Y-86502137D01*
X164467372Y-86797000D01*
X164467375Y-86797004D01*
X164684489Y-87069259D01*
X164930740Y-87315510D01*
X165202995Y-87532624D01*
X165203003Y-87532630D01*
X165497867Y-87717906D01*
X165811621Y-87869002D01*
X165811637Y-87869007D01*
X165811638Y-87869008D01*
X166140312Y-87984016D01*
X166140315Y-87984016D01*
X166140319Y-87984018D01*
X166479829Y-88061509D01*
X166725191Y-88089155D01*
X166825878Y-88100500D01*
X166825880Y-88100500D01*
X167174122Y-88100500D01*
X167262006Y-88090597D01*
X167520171Y-88061509D01*
X167859681Y-87984018D01*
X167873865Y-87979055D01*
X168028122Y-87925078D01*
X168188379Y-87869002D01*
X168502133Y-87717906D01*
X168796997Y-87532630D01*
X168909534Y-87442885D01*
X169069259Y-87315510D01*
X169315510Y-87069259D01*
X169460445Y-86887515D01*
X169532630Y-86796997D01*
X169717906Y-86502133D01*
X169756280Y-86422448D01*
X169759978Y-86414770D01*
X169807556Y-86362074D01*
X169876070Y-86343465D01*
X169943769Y-86364853D01*
X169989157Y-86419445D01*
X169999500Y-86469439D01*
X169999500Y-92093161D01*
X169979498Y-92161282D01*
X169925842Y-92207775D01*
X169855568Y-92217879D01*
X169790988Y-92188385D01*
X169773103Y-92169295D01*
X169680422Y-92047077D01*
X169559845Y-91955641D01*
X169559841Y-91955638D01*
X169419064Y-91900122D01*
X169419065Y-91900122D01*
X169330605Y-91889500D01*
X169330602Y-91889500D01*
X166544398Y-91889500D01*
X166544394Y-91889500D01*
X166455935Y-91900122D01*
X166315158Y-91955638D01*
X166258112Y-91998898D01*
X166191747Y-92024121D01*
X166181979Y-92024500D01*
X164708655Y-92024500D01*
X164554002Y-92055263D01*
X164553997Y-92055265D01*
X164408320Y-92115606D01*
X164277212Y-92203210D01*
X164277210Y-92203211D01*
X164053792Y-92426628D01*
X164010923Y-92454746D01*
X163927527Y-92487634D01*
X163927521Y-92487638D01*
X163812423Y-92574920D01*
X163740917Y-92669214D01*
X163721868Y-92683289D01*
X163705908Y-92700784D01*
X163693852Y-92703991D01*
X163683818Y-92711406D01*
X163660184Y-92712948D01*
X163637298Y-92719038D01*
X163625421Y-92715218D01*
X163612972Y-92716031D01*
X163592254Y-92704550D01*
X163569711Y-92697300D01*
X163556444Y-92684706D01*
X163550872Y-92681619D01*
X163543217Y-92673129D01*
X163541632Y-92671202D01*
X163487578Y-92599922D01*
X163475382Y-92590674D01*
X163465988Y-92579255D01*
X163465377Y-92577822D01*
X163462894Y-92575339D01*
X163462578Y-92574922D01*
X163462575Y-92574919D01*
X163393286Y-92522376D01*
X163351093Y-92465278D01*
X163346468Y-92394432D01*
X163380879Y-92332332D01*
X163393273Y-92321592D01*
X163487578Y-92250078D01*
X163574864Y-92134975D01*
X163627859Y-92000590D01*
X163638000Y-91916144D01*
X163638000Y-91866935D01*
X163640421Y-91842353D01*
X163647704Y-91805740D01*
X163663000Y-91728842D01*
X163663000Y-88471158D01*
X163661656Y-88464397D01*
X163660698Y-88459581D01*
X163645336Y-88382354D01*
X163632237Y-88316502D01*
X163609035Y-88260489D01*
X163571894Y-88170821D01*
X163484289Y-88039711D01*
X163372789Y-87928211D01*
X160097405Y-84652827D01*
X160063379Y-84590515D01*
X160060500Y-84563732D01*
X160060500Y-83685370D01*
X160080502Y-83617249D01*
X160134158Y-83570756D01*
X160135606Y-83570106D01*
X160232765Y-83527206D01*
X160312204Y-83447767D01*
X160312206Y-83447765D01*
X160357585Y-83344991D01*
X160360500Y-83319865D01*
X160360499Y-81630136D01*
X160357585Y-81605009D01*
X160325646Y-81532673D01*
X160312206Y-81502234D01*
X160232767Y-81422795D01*
X160232765Y-81422794D01*
X160129989Y-81377414D01*
X160129990Y-81377414D01*
X160104868Y-81374500D01*
X158415140Y-81374500D01*
X158415133Y-81374501D01*
X158390009Y-81377414D01*
X158390005Y-81377416D01*
X158287234Y-81422793D01*
X158207795Y-81502232D01*
X158207794Y-81502234D01*
X158162414Y-81605009D01*
X158159500Y-81630129D01*
X158159500Y-83319859D01*
X158159501Y-83319866D01*
X158162414Y-83344990D01*
X158162416Y-83344994D01*
X158207793Y-83447765D01*
X158287232Y-83527204D01*
X158287236Y-83527207D01*
X158313522Y-83538813D01*
X158384393Y-83570105D01*
X158438631Y-83615917D01*
X158459490Y-83683780D01*
X158459500Y-83685369D01*
X158459500Y-85026344D01*
X158490263Y-85180997D01*
X158490265Y-85181002D01*
X158515673Y-85242343D01*
X158550606Y-85326679D01*
X158638211Y-85457789D01*
X158638213Y-85457791D01*
X162025095Y-88844673D01*
X162059121Y-88906985D01*
X162062000Y-88933768D01*
X162062000Y-91728845D01*
X162084579Y-91842353D01*
X162087000Y-91866935D01*
X162087000Y-91916146D01*
X162097140Y-92000590D01*
X162150135Y-92134974D01*
X162150138Y-92134978D01*
X162197448Y-92197366D01*
X162222672Y-92263731D01*
X162208011Y-92333198D01*
X162158122Y-92383711D01*
X162097051Y-92399500D01*
X161333655Y-92399500D01*
X161179002Y-92430263D01*
X161178992Y-92430266D01*
X161112985Y-92457607D01*
X161079793Y-92466299D01*
X161032155Y-92472020D01*
X161032151Y-92472021D01*
X160899369Y-92524384D01*
X160899366Y-92524386D01*
X160838059Y-92570877D01*
X160771694Y-92596100D01*
X160702228Y-92581439D01*
X160651715Y-92531549D01*
X160637477Y-92490187D01*
X160626282Y-92419501D01*
X160623146Y-92399696D01*
X160591386Y-92337364D01*
X160565550Y-92286657D01*
X160475842Y-92196949D01*
X160400002Y-92158307D01*
X160362804Y-92139354D01*
X160269019Y-92124500D01*
X159590893Y-92124500D01*
X159590892Y-92124500D01*
X157653393Y-92124500D01*
X157521608Y-92124500D01*
X157466172Y-92139354D01*
X157394316Y-92158607D01*
X157394309Y-92158610D01*
X157280189Y-92224497D01*
X157280183Y-92224502D01*
X157147482Y-92357204D01*
X156767089Y-92737596D01*
X156739723Y-92752539D01*
X156713494Y-92769396D01*
X156707192Y-92770302D01*
X156704779Y-92771620D01*
X156677996Y-92774500D01*
X156539000Y-92774500D01*
X156470879Y-92754498D01*
X156424386Y-92700842D01*
X156413000Y-92648501D01*
X156412999Y-92493483D01*
X156398146Y-92399695D01*
X156376495Y-92357204D01*
X156363390Y-92287427D01*
X156376495Y-92242796D01*
X156385817Y-92224500D01*
X156398146Y-92200304D01*
X156413000Y-92106519D01*
X156412999Y-91843482D01*
X156398146Y-91749696D01*
X156364466Y-91683595D01*
X156340550Y-91636657D01*
X156250842Y-91546949D01*
X156168413Y-91504950D01*
X156137804Y-91489354D01*
X156044019Y-91474500D01*
X156044015Y-91474500D01*
X154555983Y-91474500D01*
X154462197Y-91489353D01*
X154349157Y-91546949D01*
X154259449Y-91636657D01*
X154201852Y-91749698D01*
X154200818Y-91752883D01*
X154198512Y-91756254D01*
X154197352Y-91758532D01*
X154197057Y-91758381D01*
X154193861Y-91763055D01*
X154191160Y-91775080D01*
X154174192Y-91791817D01*
X154160742Y-91811487D01*
X154149391Y-91816283D01*
X154140617Y-91824939D01*
X154117295Y-91829846D01*
X154095345Y-91839122D01*
X154083202Y-91837020D01*
X154071142Y-91839558D01*
X154048868Y-91831077D01*
X154025388Y-91827013D01*
X154014664Y-91818054D01*
X154004792Y-91814295D01*
X153979606Y-91788764D01*
X153974258Y-91781518D01*
X153937620Y-91731874D01*
X153913263Y-91665186D01*
X153913000Y-91657053D01*
X153913000Y-90136293D01*
X153933002Y-90068172D01*
X153949900Y-90047202D01*
X154493222Y-89503879D01*
X154555533Y-89469856D01*
X154621249Y-89473142D01*
X154710591Y-89502171D01*
X154889454Y-89530500D01*
X154889457Y-89530500D01*
X155070543Y-89530500D01*
X155070546Y-89530500D01*
X155249409Y-89502171D01*
X155421639Y-89446211D01*
X155582994Y-89363996D01*
X155658892Y-89308853D01*
X157437000Y-89308853D01*
X157437000Y-89891146D01*
X157447140Y-89975590D01*
X157500135Y-90109974D01*
X157500136Y-90109975D01*
X157587422Y-90225078D01*
X157637135Y-90262776D01*
X157679327Y-90319874D01*
X157687000Y-90363173D01*
X157687000Y-90909108D01*
X157687000Y-91040892D01*
X157702757Y-91099697D01*
X157721107Y-91168183D01*
X157721110Y-91168190D01*
X157786997Y-91282310D01*
X157787005Y-91282320D01*
X158230179Y-91725494D01*
X158230184Y-91725498D01*
X158230186Y-91725500D01*
X158230187Y-91725501D01*
X158230189Y-91725502D01*
X158277904Y-91753050D01*
X158344314Y-91791392D01*
X158471608Y-91825500D01*
X158471610Y-91825500D01*
X159605559Y-91825500D01*
X159605567Y-91825499D01*
X160269016Y-91825499D01*
X160269018Y-91825499D01*
X160362804Y-91810646D01*
X160475842Y-91753050D01*
X160565550Y-91663342D01*
X160623146Y-91550304D01*
X160638000Y-91456519D01*
X160637999Y-91193482D01*
X160623146Y-91099696D01*
X160581274Y-91017517D01*
X160565550Y-90986657D01*
X160475842Y-90896949D01*
X160384679Y-90850500D01*
X160362804Y-90839354D01*
X160269019Y-90824500D01*
X160269016Y-90824500D01*
X158814000Y-90824500D01*
X158745879Y-90804498D01*
X158699386Y-90750842D01*
X158688000Y-90698500D01*
X158688000Y-90363173D01*
X158708002Y-90295052D01*
X158737864Y-90262777D01*
X158787578Y-90225078D01*
X158874864Y-90109975D01*
X158927859Y-89975590D01*
X158938000Y-89891144D01*
X158938000Y-89308856D01*
X158927859Y-89224410D01*
X158924031Y-89214704D01*
X158874864Y-89090025D01*
X158874861Y-89090021D01*
X158787578Y-88974921D01*
X158672478Y-88887638D01*
X158672474Y-88887635D01*
X158538090Y-88834640D01*
X158538091Y-88834640D01*
X158453646Y-88824500D01*
X158453644Y-88824500D01*
X157921356Y-88824500D01*
X157921353Y-88824500D01*
X157836909Y-88834640D01*
X157702525Y-88887635D01*
X157702521Y-88887638D01*
X157587421Y-88974921D01*
X157500138Y-89090021D01*
X157500135Y-89090025D01*
X157447140Y-89224409D01*
X157437000Y-89308853D01*
X155658892Y-89308853D01*
X155729501Y-89257553D01*
X155747666Y-89239388D01*
X155771060Y-89215995D01*
X155857548Y-89129506D01*
X155857553Y-89129501D01*
X155963996Y-88982994D01*
X156046211Y-88821639D01*
X156102171Y-88649409D01*
X156130500Y-88470546D01*
X156130500Y-88289454D01*
X156102171Y-88110591D01*
X156046211Y-87938361D01*
X155963996Y-87777006D01*
X155857553Y-87630499D01*
X155857550Y-87630496D01*
X155857548Y-87630493D01*
X155729506Y-87502451D01*
X155729503Y-87502449D01*
X155729501Y-87502447D01*
X155582994Y-87396004D01*
X155421639Y-87313789D01*
X155421636Y-87313788D01*
X155421634Y-87313787D01*
X155249412Y-87257830D01*
X155249409Y-87257829D01*
X155070546Y-87229500D01*
X154889454Y-87229500D01*
X154710591Y-87257829D01*
X154710588Y-87257829D01*
X154710587Y-87257830D01*
X154538365Y-87313787D01*
X154538359Y-87313790D01*
X154377002Y-87396006D01*
X154230496Y-87502449D01*
X154230493Y-87502451D01*
X154102451Y-87630493D01*
X154102449Y-87630496D01*
X153996006Y-87777002D01*
X153913790Y-87938359D01*
X153913787Y-87938365D01*
X153857830Y-88110587D01*
X153857829Y-88110591D01*
X153829500Y-88289454D01*
X153829500Y-88470546D01*
X153857829Y-88649409D01*
X153884566Y-88731701D01*
X153886856Y-88738747D01*
X153888882Y-88809715D01*
X153856117Y-88866777D01*
X153233499Y-89489395D01*
X153171187Y-89523421D01*
X153100372Y-89518356D01*
X153043536Y-89475809D01*
X153018725Y-89409289D01*
X153027189Y-89354077D01*
X153065015Y-89258161D01*
X153077858Y-89225594D01*
X153077859Y-89225591D01*
X153082675Y-89185487D01*
X153088000Y-89141144D01*
X153088000Y-88608856D01*
X153077859Y-88524410D01*
X153075171Y-88517595D01*
X153024864Y-88390025D01*
X153024861Y-88390021D01*
X152937578Y-88274921D01*
X152839303Y-88200397D01*
X152797110Y-88143298D01*
X152792485Y-88072453D01*
X152826897Y-88010353D01*
X152839303Y-87999603D01*
X152937578Y-87925078D01*
X152960008Y-87895500D01*
X153024864Y-87809975D01*
X153077859Y-87675590D01*
X153088000Y-87591144D01*
X153088000Y-87058856D01*
X153077859Y-86974410D01*
X153076735Y-86971561D01*
X153024864Y-86840025D01*
X153024861Y-86840021D01*
X152937578Y-86724921D01*
X152843258Y-86653396D01*
X152801065Y-86596297D01*
X152796440Y-86525452D01*
X152830852Y-86463352D01*
X152843877Y-86452135D01*
X152870046Y-86432546D01*
X152956296Y-86317331D01*
X152959672Y-86308281D01*
X152980993Y-86251114D01*
X153006591Y-86182483D01*
X153013000Y-86122873D01*
X153012999Y-85477128D01*
X153006591Y-85417517D01*
X152970407Y-85320502D01*
X152956298Y-85282673D01*
X152956296Y-85282670D01*
X152956296Y-85282669D01*
X152900636Y-85208317D01*
X152870046Y-85167453D01*
X152793091Y-85109845D01*
X152754831Y-85081204D01*
X152754829Y-85081203D01*
X152754826Y-85081201D01*
X152619983Y-85030909D01*
X152619986Y-85030909D01*
X152560373Y-85024500D01*
X152064635Y-85024500D01*
X152064614Y-85024502D01*
X152005019Y-85030908D01*
X152005018Y-85030908D01*
X151870173Y-85081201D01*
X151870170Y-85081203D01*
X151754953Y-85167453D01*
X151668703Y-85282670D01*
X151668701Y-85282673D01*
X151618409Y-85417514D01*
X151612777Y-85469896D01*
X151585606Y-85535487D01*
X151527287Y-85575977D01*
X151456336Y-85578509D01*
X151395278Y-85542280D01*
X151363500Y-85478793D01*
X151362221Y-85469890D01*
X151359546Y-85445003D01*
X151356591Y-85417517D01*
X151320407Y-85320502D01*
X151306298Y-85282673D01*
X151306296Y-85282670D01*
X151306296Y-85282669D01*
X151250636Y-85208317D01*
X151220046Y-85167453D01*
X151143091Y-85109845D01*
X151104831Y-85081204D01*
X151104829Y-85081203D01*
X151104826Y-85081201D01*
X150969983Y-85030909D01*
X150969986Y-85030909D01*
X150910373Y-85024500D01*
X150414635Y-85024500D01*
X150414614Y-85024502D01*
X150355019Y-85030908D01*
X150355018Y-85030908D01*
X150220173Y-85081201D01*
X150220170Y-85081203D01*
X150104953Y-85167453D01*
X150018703Y-85282670D01*
X150018701Y-85282673D01*
X149968404Y-85417531D01*
X149925858Y-85474367D01*
X149859338Y-85499179D01*
X149850348Y-85499500D01*
X148514098Y-85499500D01*
X148456895Y-85485767D01*
X148407612Y-85460656D01*
X148366716Y-85439818D01*
X148347372Y-85436754D01*
X148270003Y-85424500D01*
X148269999Y-85424500D01*
X147729999Y-85424500D01*
X147633286Y-85439817D01*
X147516719Y-85499210D01*
X147424210Y-85591719D01*
X147364818Y-85708283D01*
X147364818Y-85708285D01*
X147351583Y-85791849D01*
X147349500Y-85805000D01*
X147349500Y-85911205D01*
X147329498Y-85979326D01*
X147312596Y-86000300D01*
X147114513Y-86198383D01*
X147114508Y-86198389D01*
X147055202Y-86301110D01*
X147055200Y-86301115D01*
X147052689Y-86310488D01*
X147052689Y-86310489D01*
X147028571Y-86400500D01*
X147024500Y-86415692D01*
X147024500Y-87148909D01*
X147004498Y-87217030D01*
X146974635Y-87249306D01*
X146874920Y-87324923D01*
X146800397Y-87423196D01*
X146782821Y-87436183D01*
X146768582Y-87452762D01*
X146754835Y-87456863D01*
X146743298Y-87465389D01*
X146721490Y-87466812D01*
X146700549Y-87473061D01*
X146686767Y-87469079D01*
X146672452Y-87470014D01*
X146653336Y-87459421D01*
X146632342Y-87453356D01*
X146617171Y-87439380D01*
X146610353Y-87435602D01*
X146605136Y-87429989D01*
X146602248Y-87426686D01*
X146525078Y-87324922D01*
X146490106Y-87298402D01*
X146481636Y-87288712D01*
X146471929Y-87267700D01*
X146458172Y-87249082D01*
X146454963Y-87230973D01*
X146451862Y-87224260D01*
X146452703Y-87218220D01*
X146450500Y-87205785D01*
X146450500Y-87135760D01*
X146470502Y-87067639D01*
X146487405Y-87046665D01*
X146520463Y-87013607D01*
X146575789Y-86958281D01*
X146635182Y-86841715D01*
X146650500Y-86745003D01*
X146650499Y-86454998D01*
X146635182Y-86358285D01*
X146575789Y-86241719D01*
X146487404Y-86153334D01*
X146472456Y-86125959D01*
X146455604Y-86099737D01*
X146454698Y-86093438D01*
X146453379Y-86091022D01*
X146450500Y-86064239D01*
X146450500Y-85835760D01*
X146470502Y-85767639D01*
X146487405Y-85746665D01*
X146525787Y-85708283D01*
X146575789Y-85658281D01*
X146635182Y-85541715D01*
X146650500Y-85445003D01*
X146650499Y-85154998D01*
X146635182Y-85058285D01*
X146575789Y-84941719D01*
X146483281Y-84849211D01*
X146483280Y-84849210D01*
X146363671Y-84788267D01*
X146312056Y-84739519D01*
X146294990Y-84670604D01*
X146317891Y-84603402D01*
X146373488Y-84559250D01*
X146420874Y-84550000D01*
X155500000Y-84550000D01*
X155500000Y-84000000D01*
X134950000Y-84000000D01*
X134950000Y-84550000D01*
X138379126Y-84550000D01*
X138447247Y-84570002D01*
X138493740Y-84623658D01*
X138503844Y-84693932D01*
X138474350Y-84758512D01*
X138436329Y-84788267D01*
X138316719Y-84849210D01*
X138224210Y-84941719D01*
X138164818Y-85058283D01*
X138164818Y-85058285D01*
X138151367Y-85143215D01*
X138149500Y-85155000D01*
X138149500Y-85445000D01*
X138164817Y-85541713D01*
X138224210Y-85658280D01*
X138312595Y-85746665D01*
X138327539Y-85774033D01*
X138344396Y-85800262D01*
X138345301Y-85806560D01*
X138346621Y-85808977D01*
X138349500Y-85835760D01*
X138349500Y-86064239D01*
X138329498Y-86132360D01*
X138312596Y-86153334D01*
X138224210Y-86241720D01*
X138164818Y-86358283D01*
X138163645Y-86365691D01*
X138149955Y-86452130D01*
X138149500Y-86455000D01*
X138149500Y-86745000D01*
X138164817Y-86841713D01*
X138224210Y-86958280D01*
X138293194Y-87027264D01*
X138327220Y-87089576D01*
X138322155Y-87160391D01*
X138279608Y-87217227D01*
X138250329Y-87233572D01*
X138240025Y-87237635D01*
X138240021Y-87237638D01*
X138124921Y-87324921D01*
X138037638Y-87440021D01*
X138037635Y-87440025D01*
X137984640Y-87574409D01*
X137974500Y-87658853D01*
X137974500Y-88241146D01*
X137984640Y-88325590D01*
X138037635Y-88459974D01*
X138037638Y-88459978D01*
X138124921Y-88575078D01*
X138148803Y-88593188D01*
X138190996Y-88650286D01*
X138195621Y-88721132D01*
X138161209Y-88783232D01*
X138148180Y-88794452D01*
X138117453Y-88817454D01*
X138031203Y-88932670D01*
X138031201Y-88932673D01*
X137980909Y-89067515D01*
X137974500Y-89127121D01*
X137974500Y-89772864D01*
X137974502Y-89772885D01*
X137980908Y-89832480D01*
X137980908Y-89832481D01*
X138031201Y-89967326D01*
X138031203Y-89967329D01*
X138031204Y-89967331D01*
X138081594Y-90034643D01*
X138106405Y-90101163D01*
X138091314Y-90170537D01*
X138041112Y-90220739D01*
X138024758Y-90228208D01*
X137882671Y-90281202D01*
X137882670Y-90281203D01*
X137767455Y-90367452D01*
X137681201Y-90482672D01*
X137680540Y-90483884D01*
X137679563Y-90484860D01*
X137675803Y-90489884D01*
X137675080Y-90489343D01*
X137630339Y-90534087D01*
X137569952Y-90549500D01*
X135839671Y-90549500D01*
X135771550Y-90529498D01*
X135727404Y-90480703D01*
X135724927Y-90475842D01*
X135643996Y-90317006D01*
X135537553Y-90170499D01*
X135537550Y-90170496D01*
X135537548Y-90170493D01*
X135409506Y-90042451D01*
X135409503Y-90042449D01*
X135409501Y-90042447D01*
X135296696Y-89960490D01*
X135262997Y-89936006D01*
X135262996Y-89936005D01*
X135262994Y-89936004D01*
X135101639Y-89853789D01*
X135101636Y-89853788D01*
X135101634Y-89853787D01*
X134929412Y-89797830D01*
X134929409Y-89797829D01*
X134750546Y-89769500D01*
X134626500Y-89769500D01*
X134558379Y-89749498D01*
X134511886Y-89695842D01*
X134500500Y-89643500D01*
X134500500Y-87266892D01*
X134520502Y-87198771D01*
X134526104Y-87190757D01*
X134527104Y-87189439D01*
X134587364Y-87109975D01*
X134640359Y-86975590D01*
X134650500Y-86891144D01*
X134650500Y-86308856D01*
X134640359Y-86224410D01*
X134630096Y-86198386D01*
X134587364Y-86090025D01*
X134587361Y-86090021D01*
X134526103Y-86009240D01*
X134517973Y-85987851D01*
X134505604Y-85968604D01*
X134502528Y-85947215D01*
X134500879Y-85942875D01*
X134500500Y-85933106D01*
X134500500Y-85854008D01*
X134520502Y-85785887D01*
X134526103Y-85777874D01*
X134529016Y-85774033D01*
X134613115Y-85663132D01*
X134665479Y-85530346D01*
X134675500Y-85446902D01*
X134675500Y-84928098D01*
X134665479Y-84844654D01*
X134658075Y-84825880D01*
X134615466Y-84717830D01*
X134613115Y-84711868D01*
X134526867Y-84598133D01*
X134413132Y-84511885D01*
X134413129Y-84511883D01*
X134409478Y-84509832D01*
X134406791Y-84507077D01*
X134406264Y-84506678D01*
X134406323Y-84506598D01*
X134359901Y-84459012D01*
X134345670Y-84389456D01*
X134371302Y-84323248D01*
X134409478Y-84290168D01*
X134413123Y-84288118D01*
X134413132Y-84288115D01*
X134526867Y-84201867D01*
X134613115Y-84088132D01*
X134665479Y-83955346D01*
X134675500Y-83871902D01*
X134675500Y-83353098D01*
X134665479Y-83269654D01*
X134657925Y-83250499D01*
X134613115Y-83136869D01*
X134613115Y-83136868D01*
X134526867Y-83023133D01*
X134526865Y-83023131D01*
X134526102Y-83022125D01*
X134500879Y-82955760D01*
X134500500Y-82945991D01*
X134500500Y-81320944D01*
X134500500Y-81320943D01*
X134459577Y-81168216D01*
X134459575Y-81168213D01*
X134459575Y-81168211D01*
X134380522Y-81031287D01*
X134380514Y-81031277D01*
X134268722Y-80919485D01*
X134268712Y-80919477D01*
X134131788Y-80840424D01*
X134088111Y-80828721D01*
X133979057Y-80799500D01*
X133820943Y-80799500D01*
X133812685Y-80799500D01*
X133812685Y-80797927D01*
X133751784Y-80788428D01*
X133698687Y-80741298D01*
X133679499Y-80672944D01*
X133700312Y-80605066D01*
X133716390Y-80585357D01*
X134305511Y-79996236D01*
X134367821Y-79962212D01*
X134438636Y-79967277D01*
X134495472Y-80009824D01*
X134507801Y-80029993D01*
X134540174Y-80096212D01*
X134628787Y-80184825D01*
X134628789Y-80184826D01*
X134741375Y-80239866D01*
X134814364Y-80250500D01*
X134923500Y-80250500D01*
X134991621Y-80270502D01*
X135038114Y-80324158D01*
X135049500Y-80376500D01*
X135049500Y-81859310D01*
X135062897Y-81909305D01*
X135062897Y-81909308D01*
X135062898Y-81909308D01*
X135062898Y-81909309D01*
X135080201Y-81973887D01*
X135080202Y-81973889D01*
X135080203Y-81973891D01*
X135139508Y-82076610D01*
X135139516Y-82076620D01*
X135973379Y-82910483D01*
X135973384Y-82910487D01*
X135973386Y-82910489D01*
X136076113Y-82969799D01*
X136079234Y-82970635D01*
X136081570Y-82972058D01*
X136083741Y-82972958D01*
X136083600Y-82973296D01*
X136139857Y-83007586D01*
X136161888Y-83041447D01*
X136197794Y-83122766D01*
X136277232Y-83202204D01*
X136277234Y-83202205D01*
X136277235Y-83202206D01*
X136380009Y-83247585D01*
X136405135Y-83250500D01*
X137394864Y-83250499D01*
X137419991Y-83247585D01*
X137522765Y-83202206D01*
X137602206Y-83122765D01*
X137647585Y-83019991D01*
X137650500Y-82994865D01*
X137650499Y-82274021D01*
X137670501Y-82205901D01*
X137724157Y-82159408D01*
X137791022Y-82148862D01*
X137805135Y-82150500D01*
X138794864Y-82150499D01*
X138819991Y-82147585D01*
X138922765Y-82102206D01*
X139002206Y-82022765D01*
X139006467Y-82013115D01*
X139023029Y-81975606D01*
X139068842Y-81921369D01*
X139136706Y-81900510D01*
X139138293Y-81900500D01*
X139309307Y-81900500D01*
X139309309Y-81900500D01*
X139325514Y-81896158D01*
X150899500Y-81896158D01*
X150899500Y-81901802D01*
X150899500Y-82053847D01*
X150922079Y-82167359D01*
X150924500Y-82191936D01*
X150924500Y-82222875D01*
X150930908Y-82282480D01*
X150930908Y-82282481D01*
X150981201Y-82417326D01*
X150981203Y-82417329D01*
X151067452Y-82532544D01*
X151067453Y-82532544D01*
X151067454Y-82532546D01*
X151182669Y-82618796D01*
X151203315Y-82626496D01*
X151248379Y-82655457D01*
X151689711Y-83096789D01*
X151820821Y-83184394D01*
X151966503Y-83244738D01*
X152099666Y-83271225D01*
X152121152Y-83275499D01*
X152121155Y-83275499D01*
X152121158Y-83275500D01*
X152129630Y-83275500D01*
X152197751Y-83295502D01*
X152244244Y-83349158D01*
X152244894Y-83350606D01*
X152287793Y-83447765D01*
X152367232Y-83527204D01*
X152367234Y-83527205D01*
X152367235Y-83527206D01*
X152470009Y-83572585D01*
X152495135Y-83575500D01*
X154184864Y-83575499D01*
X154209991Y-83572585D01*
X154312765Y-83527206D01*
X154392206Y-83447765D01*
X154437585Y-83344991D01*
X154440500Y-83319865D01*
X154440499Y-81630136D01*
X154437585Y-81605009D01*
X154405646Y-81532673D01*
X154392206Y-81502234D01*
X154312767Y-81422795D01*
X154312765Y-81422794D01*
X154209989Y-81377414D01*
X154209990Y-81377414D01*
X154184868Y-81374500D01*
X152495140Y-81374500D01*
X152495133Y-81374501D01*
X152470009Y-81377414D01*
X152470005Y-81377416D01*
X152417313Y-81400682D01*
X152413077Y-81401236D01*
X152409640Y-81403773D01*
X152378179Y-81405806D01*
X152346917Y-81409900D01*
X152341839Y-81408154D01*
X152338791Y-81408352D01*
X152328163Y-81403454D01*
X152305276Y-81395588D01*
X152297778Y-81391426D01*
X152217331Y-81331204D01*
X152131755Y-81299286D01*
X152123490Y-81294699D01*
X152121755Y-81292940D01*
X152114632Y-81289295D01*
X152079179Y-81265606D01*
X151933497Y-81205263D01*
X151885592Y-81195734D01*
X151778844Y-81174500D01*
X151778842Y-81174500D01*
X151621158Y-81174500D01*
X151621155Y-81174500D01*
X151466502Y-81205263D01*
X151466497Y-81205265D01*
X151415181Y-81226521D01*
X151320821Y-81265606D01*
X151320819Y-81265606D01*
X151320817Y-81265608D01*
X151285364Y-81289296D01*
X151259399Y-81302584D01*
X151182669Y-81331203D01*
X151182669Y-81331204D01*
X151067453Y-81417453D01*
X150981203Y-81532670D01*
X150981201Y-81532673D01*
X150930909Y-81667515D01*
X150924500Y-81727121D01*
X150924500Y-81758064D01*
X150922384Y-81779547D01*
X150922296Y-81781527D01*
X150922186Y-81782105D01*
X150899500Y-81896158D01*
X139325514Y-81896158D01*
X139402610Y-81875500D01*
X139423887Y-81869799D01*
X139526614Y-81810489D01*
X140260490Y-81076614D01*
X140319799Y-80973887D01*
X140319801Y-80973880D01*
X140332134Y-80927851D01*
X140332134Y-80927849D01*
X140350500Y-80859309D01*
X140350500Y-80376500D01*
X140370502Y-80308379D01*
X140424158Y-80261886D01*
X140476500Y-80250500D01*
X140585630Y-80250500D01*
X140585636Y-80250500D01*
X140658625Y-80239866D01*
X140771211Y-80184826D01*
X140859826Y-80096211D01*
X140914866Y-79983625D01*
X140925500Y-79910636D01*
X140925500Y-79689364D01*
X140914866Y-79616375D01*
X140859826Y-79503789D01*
X140859825Y-79503787D01*
X140771212Y-79415174D01*
X140767169Y-79413198D01*
X140714754Y-79365310D01*
X140696551Y-79296687D01*
X140718337Y-79229116D01*
X140767169Y-79186802D01*
X140771211Y-79184826D01*
X140859826Y-79096211D01*
X140914866Y-78983625D01*
X140925500Y-78910636D01*
X140925500Y-78689364D01*
X140924378Y-78681664D01*
X140926938Y-78663615D01*
X140924344Y-78645568D01*
X140931821Y-78629194D01*
X140934350Y-78611374D01*
X140946264Y-78597571D01*
X140953838Y-78580988D01*
X140968978Y-78571257D01*
X140980742Y-78557630D01*
X140998228Y-78552459D01*
X141013564Y-78542604D01*
X141048600Y-78537566D01*
X141048825Y-78537500D01*
X141263612Y-78537500D01*
X141311830Y-78547091D01*
X141366503Y-78569737D01*
X141521158Y-78600500D01*
X141521159Y-78600500D01*
X144491341Y-78600500D01*
X144491342Y-78600500D01*
X144604865Y-78577918D01*
X144608065Y-78577325D01*
X144618669Y-78575500D01*
X144671902Y-78575500D01*
X144755346Y-78565479D01*
X144816087Y-78541524D01*
X144828869Y-78539325D01*
X144836184Y-78540171D01*
X144850239Y-78537500D01*
X145549758Y-78537500D01*
X145595981Y-78546285D01*
X145632680Y-78560757D01*
X145644654Y-78565479D01*
X145728098Y-78575500D01*
X145770565Y-78575500D01*
X145795145Y-78577920D01*
X145908658Y-78600500D01*
X145908659Y-78600500D01*
X148703841Y-78600500D01*
X148703842Y-78600500D01*
X148817363Y-78577919D01*
X148821243Y-78577211D01*
X148831520Y-78575500D01*
X148891144Y-78575500D01*
X148975590Y-78565359D01*
X149036344Y-78541399D01*
X149049484Y-78539212D01*
X149056621Y-78540077D01*
X149070176Y-78537501D01*
X149729821Y-78537501D01*
X149776044Y-78546286D01*
X149801200Y-78556206D01*
X149824410Y-78565359D01*
X149908856Y-78575500D01*
X149958065Y-78575500D01*
X149982645Y-78577920D01*
X150096158Y-78600500D01*
X152120407Y-78600500D01*
X152188528Y-78620502D01*
X152235021Y-78674158D01*
X152241987Y-78693421D01*
X152242413Y-78694988D01*
X152287793Y-78797765D01*
X152367232Y-78877204D01*
X152367234Y-78877205D01*
X152367235Y-78877206D01*
X152470009Y-78922585D01*
X152495135Y-78925500D01*
X154184864Y-78925499D01*
X154209991Y-78922585D01*
X154312765Y-78877206D01*
X154392206Y-78797765D01*
X154437585Y-78694991D01*
X154440500Y-78669865D01*
X154440499Y-76980136D01*
X154437585Y-76955009D01*
X154405555Y-76882467D01*
X154392206Y-76852234D01*
X154312767Y-76772795D01*
X154312765Y-76772794D01*
X154209989Y-76727414D01*
X154209990Y-76727414D01*
X154184868Y-76724500D01*
X152495140Y-76724500D01*
X152495133Y-76724501D01*
X152470009Y-76727414D01*
X152470005Y-76727416D01*
X152367234Y-76772793D01*
X152287795Y-76852232D01*
X152287794Y-76852234D01*
X152255933Y-76924394D01*
X152210120Y-76978631D01*
X152142257Y-76999490D01*
X152140669Y-76999500D01*
X150096155Y-76999500D01*
X150015243Y-77015595D01*
X149982644Y-77022079D01*
X149968229Y-77024089D01*
X149963151Y-77024500D01*
X149908856Y-77024500D01*
X149824410Y-77034641D01*
X149820939Y-77036009D01*
X149807584Y-77037090D01*
X149805015Y-77036556D01*
X149797420Y-77037501D01*
X149002581Y-77037501D01*
X148983664Y-77035146D01*
X148983610Y-77035604D01*
X148891146Y-77024500D01*
X148891144Y-77024500D01*
X148841935Y-77024500D01*
X148817354Y-77022079D01*
X148783268Y-77015299D01*
X148703844Y-76999500D01*
X148703842Y-76999500D01*
X145908658Y-76999500D01*
X145908655Y-76999500D01*
X145827743Y-77015595D01*
X145795144Y-77022079D01*
X145781207Y-77024050D01*
X145775898Y-77024500D01*
X145728098Y-77024500D01*
X145644654Y-77034521D01*
X145641088Y-77035926D01*
X145627835Y-77037050D01*
X145625172Y-77036507D01*
X145617193Y-77037500D01*
X144782808Y-77037500D01*
X144763411Y-77035087D01*
X144763364Y-77035484D01*
X144755346Y-77034521D01*
X144719890Y-77030263D01*
X144671903Y-77024500D01*
X144671902Y-77024500D01*
X144629435Y-77024500D01*
X144604854Y-77022079D01*
X144570768Y-77015299D01*
X144491344Y-76999500D01*
X144491342Y-76999500D01*
X142340157Y-76999500D01*
X142272036Y-76979498D01*
X142225543Y-76925842D01*
X142215439Y-76855568D01*
X142239759Y-76797367D01*
X142272115Y-76754698D01*
X142313115Y-76700632D01*
X142365479Y-76567846D01*
X142375500Y-76484402D01*
X142375500Y-75965598D01*
X142365479Y-75882154D01*
X142345894Y-75832491D01*
X142325779Y-75781482D01*
X142313115Y-75749368D01*
X142226867Y-75635633D01*
X142113132Y-75549385D01*
X142113129Y-75549384D01*
X142113130Y-75549384D01*
X141980346Y-75497020D01*
X141980347Y-75497020D01*
X141896905Y-75487000D01*
X141896902Y-75487000D01*
X141303098Y-75487000D01*
X141303094Y-75487000D01*
X141219653Y-75497020D01*
X141086869Y-75549384D01*
X141086866Y-75549386D01*
X141068763Y-75563114D01*
X141055552Y-75573133D01*
X141054543Y-75573898D01*
X140988178Y-75599121D01*
X140978410Y-75599500D01*
X140464007Y-75599500D01*
X140417783Y-75590715D01*
X140275590Y-75534640D01*
X140275591Y-75534640D01*
X140191146Y-75524500D01*
X140191144Y-75524500D01*
X139608856Y-75524500D01*
X139608853Y-75524500D01*
X139524409Y-75534640D01*
X139382217Y-75590715D01*
X139335993Y-75599500D01*
X138164007Y-75599500D01*
X138117783Y-75590715D01*
X137975590Y-75534640D01*
X137975591Y-75534640D01*
X137891146Y-75524500D01*
X137891144Y-75524500D01*
X137308856Y-75524500D01*
X137308853Y-75524500D01*
X137224409Y-75534640D01*
X137082217Y-75590715D01*
X137035993Y-75599500D01*
X135864007Y-75599500D01*
X135817783Y-75590715D01*
X135675590Y-75534640D01*
X135675591Y-75534640D01*
X135591146Y-75524500D01*
X135591144Y-75524500D01*
X135008856Y-75524500D01*
X135008853Y-75524500D01*
X134924409Y-75534640D01*
X134782217Y-75590715D01*
X134735993Y-75599500D01*
X134354009Y-75599500D01*
X134285888Y-75579498D01*
X134277875Y-75573898D01*
X134276868Y-75573134D01*
X134276867Y-75573133D01*
X134163132Y-75486885D01*
X134163129Y-75486884D01*
X134163130Y-75486884D01*
X134030346Y-75434520D01*
X134030347Y-75434520D01*
X133946905Y-75424500D01*
X133946902Y-75424500D01*
X133428098Y-75424500D01*
X133428094Y-75424500D01*
X133344653Y-75434520D01*
X133211869Y-75486884D01*
X133098133Y-75573133D01*
X133011882Y-75686872D01*
X133009829Y-75690525D01*
X133007077Y-75693208D01*
X133006678Y-75693736D01*
X133006598Y-75693675D01*
X132959008Y-75740100D01*
X132889452Y-75754329D01*
X132823244Y-75728694D01*
X132790171Y-75690525D01*
X132788117Y-75686872D01*
X132788116Y-75686870D01*
X132788115Y-75686868D01*
X132701867Y-75573133D01*
X132588132Y-75486885D01*
X132588129Y-75486884D01*
X132588130Y-75486884D01*
X132455346Y-75434520D01*
X132455347Y-75434520D01*
X132371905Y-75424500D01*
X132371902Y-75424500D01*
X131853098Y-75424500D01*
X131853094Y-75424500D01*
X131769653Y-75434520D01*
X131636869Y-75486884D01*
X131523130Y-75573135D01*
X131503036Y-75599634D01*
X131445937Y-75641827D01*
X131402639Y-75649500D01*
X131027525Y-75649500D01*
X130980087Y-75662211D01*
X130932649Y-75674922D01*
X130932648Y-75674921D01*
X130887512Y-75687016D01*
X130761988Y-75759487D01*
X130761978Y-75759495D01*
X129596995Y-76924478D01*
X129596987Y-76924488D01*
X129531741Y-77037497D01*
X129531742Y-77037498D01*
X129524517Y-77050012D01*
X129524516Y-77050014D01*
X129524516Y-77050015D01*
X129487000Y-77190025D01*
X129487000Y-77190027D01*
X129487000Y-79024743D01*
X129466998Y-79092864D01*
X129443234Y-79118547D01*
X129443515Y-79118828D01*
X129437423Y-79124919D01*
X129350138Y-79240021D01*
X129350135Y-79240025D01*
X129297140Y-79374409D01*
X129287000Y-79458853D01*
X129287000Y-80041146D01*
X129297140Y-80125590D01*
X129350135Y-80259974D01*
X129350138Y-80259979D01*
X129373896Y-80291307D01*
X129399121Y-80357671D01*
X129399500Y-80367442D01*
X129399500Y-80714107D01*
X129379498Y-80782228D01*
X129325842Y-80828721D01*
X129315124Y-80833033D01*
X129294929Y-80840100D01*
X129274614Y-80847208D01*
X129165349Y-80927849D01*
X129084708Y-81037114D01*
X129084707Y-81037117D01*
X129047773Y-81142667D01*
X129006394Y-81200358D01*
X128940394Y-81226521D01*
X128870726Y-81212847D01*
X128839751Y-81190148D01*
X128689114Y-81039511D01*
X128629889Y-81005317D01*
X128591511Y-80971019D01*
X128559650Y-80927850D01*
X128450385Y-80847208D01*
X128450381Y-80847206D01*
X128322204Y-80802355D01*
X128322200Y-80802354D01*
X128291766Y-80799500D01*
X127992870Y-80799500D01*
X127977131Y-80795282D01*
X127963164Y-80795948D01*
X127929870Y-80782619D01*
X127883796Y-80756018D01*
X127883794Y-80756016D01*
X127856790Y-80740425D01*
X127856785Y-80740423D01*
X127704057Y-80699499D01*
X127545943Y-80699499D01*
X127538225Y-80699499D01*
X127538209Y-80699500D01*
X126633926Y-80699500D01*
X126565805Y-80679498D01*
X126557800Y-80673903D01*
X126509975Y-80637636D01*
X126509974Y-80637635D01*
X126375590Y-80584640D01*
X126375591Y-80584640D01*
X126291146Y-80574500D01*
X126291144Y-80574500D01*
X125708856Y-80574500D01*
X125708853Y-80574500D01*
X125624409Y-80584640D01*
X125490025Y-80637635D01*
X125462000Y-80658888D01*
X125442207Y-80673897D01*
X125420817Y-80682027D01*
X125401572Y-80694396D01*
X125380184Y-80697471D01*
X125375844Y-80699121D01*
X125366074Y-80699500D01*
X125164000Y-80699500D01*
X125095879Y-80679498D01*
X125049386Y-80625842D01*
X125038000Y-80573500D01*
X125038000Y-80091892D01*
X125058002Y-80023771D01*
X125063604Y-80015757D01*
X125068104Y-80009824D01*
X125124864Y-79934975D01*
X125177859Y-79800590D01*
X125188000Y-79716144D01*
X125188000Y-79133856D01*
X125177859Y-79049410D01*
X125151917Y-78983627D01*
X125124864Y-78915025D01*
X125124861Y-78915021D01*
X125037576Y-78799919D01*
X125033578Y-78795921D01*
X125031488Y-78794967D01*
X125014431Y-78768427D01*
X124995672Y-78743039D01*
X124994741Y-78737789D01*
X124993104Y-78735241D01*
X124988000Y-78699743D01*
X124988000Y-78593050D01*
X125008002Y-78524929D01*
X125061658Y-78478436D01*
X125131932Y-78468332D01*
X125196512Y-78497826D01*
X125203095Y-78503955D01*
X125286151Y-78587011D01*
X125286153Y-78587012D01*
X125394991Y-78640220D01*
X125465551Y-78650500D01*
X125659448Y-78650499D01*
X125730009Y-78640220D01*
X125757161Y-78626945D01*
X125827144Y-78614997D01*
X125867837Y-78626945D01*
X125894991Y-78640220D01*
X125965551Y-78650500D01*
X126159448Y-78650499D01*
X126230009Y-78640220D01*
X126260980Y-78625079D01*
X126338844Y-78587014D01*
X126338848Y-78587011D01*
X126424511Y-78501348D01*
X126424512Y-78501347D01*
X126477720Y-78392509D01*
X126488000Y-78321949D01*
X126487999Y-77553052D01*
X126487999Y-77553051D01*
X126487999Y-77551499D01*
X126508001Y-77483378D01*
X126561657Y-77436885D01*
X126613999Y-77425499D01*
X126615544Y-77425499D01*
X126615551Y-77425500D01*
X127384448Y-77425499D01*
X127455009Y-77415220D01*
X127459369Y-77413088D01*
X127563844Y-77362014D01*
X127563848Y-77362011D01*
X127649511Y-77276348D01*
X127649512Y-77276347D01*
X127702720Y-77167509D01*
X127713000Y-77096949D01*
X127713000Y-77051500D01*
X127733002Y-76983379D01*
X127786658Y-76936886D01*
X127839000Y-76925500D01*
X128156016Y-76925500D01*
X128156018Y-76925500D01*
X128264237Y-76896503D01*
X128361263Y-76840485D01*
X129102984Y-76098764D01*
X129104033Y-76096948D01*
X129159003Y-76001737D01*
X129174478Y-75943982D01*
X129188000Y-75893519D01*
X129188000Y-75781482D01*
X129188000Y-73543982D01*
X129159003Y-73435763D01*
X129115134Y-73359780D01*
X129102987Y-73338740D01*
X129102979Y-73338730D01*
X129019379Y-73255130D01*
X129019356Y-73255109D01*
X128123765Y-72359517D01*
X128123759Y-72359512D01*
X128026741Y-72303499D01*
X128026738Y-72303498D01*
X128026737Y-72303497D01*
X128026735Y-72303496D01*
X128026734Y-72303496D01*
X127997736Y-72295726D01*
X127918518Y-72274500D01*
X127918516Y-72274500D01*
X127038427Y-72274500D01*
X127008511Y-72265716D01*
X126978042Y-72259088D01*
X126972946Y-72255273D01*
X126970306Y-72254498D01*
X126949332Y-72237595D01*
X126927332Y-72215595D01*
X126893306Y-72153283D01*
X126898371Y-72082468D01*
X126940918Y-72025632D01*
X127007438Y-72000821D01*
X127016427Y-72000500D01*
X169873500Y-72000500D01*
X169941621Y-72020502D01*
G37*
%TD.AperFunction*%
%TA.AperFunction,Conductor*%
G36*
X129361683Y-85320502D02*
G01*
X129408176Y-85374158D01*
X129418280Y-85444432D01*
X129388786Y-85509012D01*
X129382657Y-85515595D01*
X126380657Y-88517595D01*
X126318345Y-88551621D01*
X126291562Y-88554500D01*
X125920186Y-88554500D01*
X125852065Y-88534498D01*
X125829759Y-88513587D01*
X125828823Y-88514524D01*
X125822152Y-88507853D01*
X125822150Y-88507850D01*
X125822145Y-88507846D01*
X125712885Y-88427208D01*
X125712881Y-88427206D01*
X125584704Y-88382355D01*
X125584700Y-88382354D01*
X125554266Y-88379500D01*
X123795734Y-88379500D01*
X123795733Y-88379500D01*
X123765299Y-88382354D01*
X123765295Y-88382355D01*
X123637118Y-88427206D01*
X123637114Y-88427208D01*
X123527849Y-88507849D01*
X123447208Y-88617114D01*
X123447206Y-88617118D01*
X123402355Y-88745295D01*
X123402354Y-88745299D01*
X123399500Y-88775733D01*
X123399500Y-89184266D01*
X123402354Y-89214700D01*
X123402355Y-89214704D01*
X123447206Y-89342881D01*
X123447208Y-89342885D01*
X123527848Y-89452148D01*
X123527849Y-89452148D01*
X123527850Y-89452150D01*
X123551841Y-89469856D01*
X123611140Y-89513621D01*
X123654072Y-89570166D01*
X123659618Y-89640946D01*
X123626017Y-89703488D01*
X123611140Y-89716379D01*
X123527848Y-89777851D01*
X123447208Y-89887114D01*
X123447206Y-89887118D01*
X123402355Y-90015295D01*
X123402354Y-90015299D01*
X123399500Y-90045733D01*
X123399500Y-90454266D01*
X123402354Y-90484700D01*
X123402355Y-90484704D01*
X123447206Y-90612881D01*
X123447208Y-90612885D01*
X123527848Y-90722148D01*
X123527849Y-90722148D01*
X123527850Y-90722150D01*
X123569310Y-90752748D01*
X123611140Y-90783621D01*
X123654072Y-90840166D01*
X123659618Y-90910946D01*
X123626017Y-90973488D01*
X123611140Y-90986379D01*
X123527849Y-91047850D01*
X123455310Y-91146137D01*
X123398764Y-91189069D01*
X123327985Y-91194615D01*
X123265443Y-91161014D01*
X123264836Y-91160410D01*
X121037405Y-88932979D01*
X121003379Y-88870667D01*
X121000500Y-88843884D01*
X121000500Y-88775735D01*
X121000500Y-88775734D01*
X120997646Y-88745301D01*
X120952793Y-88617118D01*
X120952791Y-88617114D01*
X120872152Y-88507851D01*
X120822432Y-88471157D01*
X120788859Y-88446378D01*
X120745928Y-88389835D01*
X120740381Y-88319055D01*
X120773982Y-88256513D01*
X120774929Y-88255563D01*
X120781460Y-88249081D01*
X120872150Y-88182150D01*
X120935747Y-88095976D01*
X120942622Y-88089155D01*
X120952077Y-88084038D01*
X120960690Y-88076342D01*
X120960059Y-88075519D01*
X120966610Y-88070491D01*
X120966614Y-88070489D01*
X121785489Y-87251614D01*
X121844799Y-87148887D01*
X121855225Y-87109975D01*
X121875500Y-87034309D01*
X121875500Y-86821090D01*
X121895502Y-86752969D01*
X121925366Y-86720693D01*
X122025078Y-86645078D01*
X122030721Y-86637636D01*
X122112364Y-86529975D01*
X122165359Y-86395590D01*
X122175500Y-86311144D01*
X122175500Y-85728856D01*
X122165359Y-85644410D01*
X122150274Y-85606160D01*
X122148542Y-85586973D01*
X122141810Y-85568923D01*
X122145415Y-85552348D01*
X122143890Y-85535452D01*
X122152806Y-85518372D01*
X122156902Y-85499549D01*
X122175849Y-85474238D01*
X122176748Y-85472517D01*
X122178329Y-85470904D01*
X122311831Y-85337404D01*
X122374144Y-85303379D01*
X122400926Y-85300500D01*
X129293562Y-85300500D01*
X129361683Y-85320502D01*
G37*
%TD.AperFunction*%
%TA.AperFunction,Conductor*%
G36*
X137123256Y-78367876D02*
G01*
X137126346Y-78367581D01*
X137155338Y-78382528D01*
X137185012Y-78396080D01*
X137187522Y-78399120D01*
X137189450Y-78400114D01*
X137211619Y-78428304D01*
X137239508Y-78476610D01*
X137239516Y-78476620D01*
X137923379Y-79160483D01*
X137923384Y-79160487D01*
X137923386Y-79160489D01*
X137923387Y-79160490D01*
X137923389Y-79160491D01*
X137995595Y-79202179D01*
X138026113Y-79219799D01*
X138047390Y-79225500D01*
X138140691Y-79250500D01*
X138140693Y-79250500D01*
X138889272Y-79250500D01*
X138957393Y-79270502D01*
X139003886Y-79324158D01*
X139013990Y-79394432D01*
X138984496Y-79459012D01*
X138978367Y-79465595D01*
X138940174Y-79503787D01*
X138940173Y-79503789D01*
X138885135Y-79616372D01*
X138885134Y-79616375D01*
X138874500Y-79689360D01*
X138874500Y-79910639D01*
X138885134Y-79983624D01*
X138885135Y-79983627D01*
X138940173Y-80096210D01*
X138940174Y-80096212D01*
X139028787Y-80184825D01*
X139028789Y-80184826D01*
X139141375Y-80239866D01*
X139214364Y-80250500D01*
X139323500Y-80250500D01*
X139332325Y-80253091D01*
X139341432Y-80251782D01*
X139365857Y-80262937D01*
X139391621Y-80270502D01*
X139397645Y-80277455D01*
X139406012Y-80281276D01*
X139420526Y-80303861D01*
X139438114Y-80324158D01*
X139440438Y-80334844D01*
X139444396Y-80341002D01*
X139449500Y-80376500D01*
X139449500Y-80561205D01*
X139429498Y-80629326D01*
X139412595Y-80650301D01*
X139183028Y-80879867D01*
X139120716Y-80913892D01*
X139049900Y-80908827D01*
X139004838Y-80879866D01*
X138922767Y-80797795D01*
X138922765Y-80797794D01*
X138819989Y-80752414D01*
X138819990Y-80752414D01*
X138794868Y-80749500D01*
X137805140Y-80749500D01*
X137805133Y-80749501D01*
X137780009Y-80752414D01*
X137780005Y-80752416D01*
X137677234Y-80797793D01*
X137597795Y-80877232D01*
X137597794Y-80877234D01*
X137552414Y-80980009D01*
X137549500Y-81005129D01*
X137549500Y-81725977D01*
X137529498Y-81794098D01*
X137475842Y-81840591D01*
X137408978Y-81851137D01*
X137394868Y-81849500D01*
X136405140Y-81849500D01*
X136405133Y-81849501D01*
X136380009Y-81852414D01*
X136380005Y-81852416D01*
X136326822Y-81875899D01*
X136256426Y-81885117D01*
X136192222Y-81854812D01*
X136186833Y-81849730D01*
X135987405Y-81650302D01*
X135953379Y-81587990D01*
X135950500Y-81561207D01*
X135950500Y-80376500D01*
X135970502Y-80308379D01*
X136024158Y-80261886D01*
X136076500Y-80250500D01*
X136185630Y-80250500D01*
X136185636Y-80250500D01*
X136258625Y-80239866D01*
X136371211Y-80184826D01*
X136459826Y-80096211D01*
X136514866Y-79983625D01*
X136525500Y-79910636D01*
X136525500Y-79689364D01*
X136514866Y-79616375D01*
X136509470Y-79605339D01*
X136497522Y-79535356D01*
X136509471Y-79494660D01*
X136514866Y-79483625D01*
X136525500Y-79410636D01*
X136525500Y-79222617D01*
X136545502Y-79154496D01*
X136562405Y-79133522D01*
X136891479Y-78804447D01*
X136891485Y-78804441D01*
X136947503Y-78707415D01*
X136976500Y-78599197D01*
X136976500Y-78491304D01*
X136977374Y-78488325D01*
X136976643Y-78485309D01*
X136987311Y-78454484D01*
X136996502Y-78423183D01*
X136998847Y-78421150D01*
X136999863Y-78418217D01*
X137025499Y-78398056D01*
X137050158Y-78376690D01*
X137053231Y-78376248D01*
X137055671Y-78374330D01*
X137088130Y-78371230D01*
X137120432Y-78366586D01*
X137123256Y-78367876D01*
G37*
%TD.AperFunction*%
%TA.AperFunction,Conductor*%
G36*
X122290934Y-76926948D02*
G01*
X122295967Y-76925895D01*
X122324653Y-76936849D01*
X122354122Y-76945502D01*
X122357489Y-76949388D01*
X122362292Y-76951222D01*
X122380500Y-76975945D01*
X122400615Y-76999158D01*
X122401879Y-77004971D01*
X122404395Y-77008387D01*
X122411746Y-77043489D01*
X122412000Y-77047486D01*
X122412001Y-77096948D01*
X122417601Y-77135391D01*
X122417926Y-77140489D01*
X122411190Y-77170333D01*
X122406892Y-77200630D01*
X122403453Y-77204612D01*
X122402296Y-77209743D01*
X122380491Y-77231211D01*
X122360498Y-77254371D01*
X122355454Y-77255862D01*
X122351705Y-77259554D01*
X122293733Y-77274110D01*
X122292415Y-77274500D01*
X122292306Y-77274468D01*
X122292181Y-77274500D01*
X121971353Y-77274500D01*
X121886909Y-77284640D01*
X121752525Y-77337635D01*
X121752521Y-77337638D01*
X121637421Y-77424921D01*
X121550138Y-77540021D01*
X121550135Y-77540025D01*
X121497140Y-77674409D01*
X121487000Y-77758853D01*
X121487000Y-78291146D01*
X121497140Y-78375590D01*
X121550135Y-78509974D01*
X121550138Y-78509978D01*
X121637421Y-78625078D01*
X121752521Y-78712361D01*
X121752525Y-78712364D01*
X121886909Y-78765359D01*
X121886908Y-78765359D01*
X121909957Y-78768126D01*
X121971356Y-78775500D01*
X121971359Y-78775500D01*
X122553641Y-78775500D01*
X122553644Y-78775500D01*
X122638090Y-78765359D01*
X122772475Y-78712364D01*
X122862450Y-78644133D01*
X122887577Y-78625079D01*
X122892340Y-78618798D01*
X122920130Y-78582150D01*
X122977227Y-78539959D01*
X123048073Y-78535333D01*
X123053139Y-78536579D01*
X123056823Y-78537566D01*
X123058443Y-78538000D01*
X123058444Y-78538000D01*
X123216555Y-78538000D01*
X123216557Y-78538000D01*
X123369284Y-78497077D01*
X123506216Y-78418020D01*
X123506219Y-78418016D01*
X123509045Y-78416385D01*
X123578041Y-78399647D01*
X123645133Y-78422867D01*
X123685243Y-78470164D01*
X123700488Y-78501348D01*
X123786150Y-78587010D01*
X123786151Y-78587010D01*
X123786153Y-78587012D01*
X123805044Y-78596247D01*
X123857458Y-78644133D01*
X123875663Y-78712756D01*
X123853878Y-78780328D01*
X123838808Y-78798534D01*
X123837425Y-78799916D01*
X123750138Y-78915021D01*
X123750135Y-78915025D01*
X123697140Y-79049409D01*
X123687000Y-79133853D01*
X123687000Y-79716146D01*
X123697140Y-79800590D01*
X123750135Y-79934974D01*
X123750138Y-79934979D01*
X123787028Y-79983624D01*
X123806896Y-80009824D01*
X123811396Y-80015757D01*
X123836621Y-80082121D01*
X123837000Y-80091892D01*
X123837000Y-80559312D01*
X123816998Y-80627433D01*
X123763342Y-80673926D01*
X123695963Y-80684412D01*
X123687057Y-80683341D01*
X123654057Y-80674499D01*
X123613491Y-80674499D01*
X123606003Y-80673599D01*
X123580030Y-80662457D01*
X123552919Y-80654497D01*
X123544919Y-80648906D01*
X123463132Y-80586885D01*
X123463129Y-80586884D01*
X123463130Y-80586884D01*
X123330346Y-80534520D01*
X123330347Y-80534520D01*
X123246905Y-80524500D01*
X123246902Y-80524500D01*
X122728098Y-80524500D01*
X122728094Y-80524500D01*
X122644653Y-80534520D01*
X122511869Y-80586884D01*
X122405112Y-80667841D01*
X122398133Y-80673133D01*
X122338257Y-80752092D01*
X122311882Y-80786872D01*
X122309829Y-80790525D01*
X122307077Y-80793208D01*
X122306678Y-80793736D01*
X122306598Y-80793675D01*
X122259008Y-80840100D01*
X122189452Y-80854329D01*
X122123244Y-80828694D01*
X122090171Y-80790525D01*
X122088117Y-80786872D01*
X122088116Y-80786870D01*
X122088115Y-80786868D01*
X122001867Y-80673133D01*
X121888132Y-80586885D01*
X121888129Y-80586884D01*
X121888130Y-80586884D01*
X121755346Y-80534520D01*
X121755347Y-80534520D01*
X121671905Y-80524500D01*
X121671902Y-80524500D01*
X121153098Y-80524500D01*
X121153094Y-80524500D01*
X121069653Y-80534520D01*
X120936869Y-80586884D01*
X120823129Y-80673136D01*
X120821992Y-80674636D01*
X120820601Y-80675663D01*
X120818139Y-80678125D01*
X120816821Y-80681012D01*
X120790277Y-80698070D01*
X120764893Y-80716828D01*
X120759643Y-80717758D01*
X120757095Y-80719396D01*
X120721597Y-80724500D01*
X120566894Y-80724500D01*
X120498773Y-80704498D01*
X120490760Y-80698897D01*
X120409978Y-80637638D01*
X120409974Y-80637635D01*
X120275590Y-80584640D01*
X120275591Y-80584640D01*
X120191146Y-80574500D01*
X120191144Y-80574500D01*
X119608856Y-80574500D01*
X119608853Y-80574500D01*
X119524409Y-80584640D01*
X119472724Y-80605023D01*
X119402015Y-80611406D01*
X119339080Y-80578548D01*
X119303900Y-80516880D01*
X119300500Y-80487808D01*
X119300500Y-80220943D01*
X119300499Y-80220941D01*
X119298998Y-80215341D01*
X119290822Y-80184826D01*
X119271351Y-80112158D01*
X119271351Y-80112157D01*
X119271351Y-80112156D01*
X119259577Y-80068217D01*
X119259576Y-80068214D01*
X119180522Y-79931287D01*
X119180514Y-79931277D01*
X119064327Y-79815090D01*
X119064304Y-79815069D01*
X118952086Y-79702851D01*
X118918060Y-79640539D01*
X118923125Y-79569724D01*
X118952084Y-79524663D01*
X119566118Y-78910629D01*
X119764343Y-78712404D01*
X119826655Y-78678378D01*
X119853438Y-78675499D01*
X120222865Y-78675499D01*
X120222872Y-78675499D01*
X120282483Y-78669091D01*
X120417331Y-78618796D01*
X120532546Y-78532546D01*
X120618796Y-78417331D01*
X120669091Y-78282483D01*
X120675500Y-78222873D01*
X120675499Y-77727128D01*
X120669091Y-77667517D01*
X120647223Y-77608886D01*
X120618798Y-77532673D01*
X120618796Y-77532670D01*
X120618796Y-77532669D01*
X120559620Y-77453620D01*
X120532546Y-77417453D01*
X120431521Y-77341827D01*
X120417331Y-77331204D01*
X120417329Y-77331203D01*
X120417326Y-77331201D01*
X120282483Y-77280909D01*
X120282486Y-77280909D01*
X120222878Y-77274500D01*
X119831438Y-77274500D01*
X119763317Y-77254498D01*
X119716824Y-77200842D01*
X119706720Y-77130568D01*
X119736214Y-77065988D01*
X119742334Y-77059413D01*
X119839344Y-76962404D01*
X119901656Y-76928379D01*
X119928439Y-76925500D01*
X122286001Y-76925500D01*
X122290934Y-76926948D01*
G37*
%TD.AperFunction*%
%TA.AperFunction,Conductor*%
G36*
X139223906Y-76820502D02*
G01*
X139256179Y-76850362D01*
X139274922Y-76875078D01*
X139274924Y-76875079D01*
X139274925Y-76875081D01*
X139390021Y-76962361D01*
X139390025Y-76962364D01*
X139524409Y-77015359D01*
X139524408Y-77015359D01*
X139547457Y-77018126D01*
X139608856Y-77025500D01*
X139608859Y-77025500D01*
X140191141Y-77025500D01*
X140191144Y-77025500D01*
X140275590Y-77015359D01*
X140409975Y-76962364D01*
X140525078Y-76875078D01*
X140543820Y-76850363D01*
X140600918Y-76808172D01*
X140644215Y-76800500D01*
X140912475Y-76800500D01*
X140934424Y-76806944D01*
X140957231Y-76808717D01*
X140976142Y-76819194D01*
X140980596Y-76820502D01*
X140988593Y-76826090D01*
X140994480Y-76830555D01*
X141036676Y-76887649D01*
X141041306Y-76958494D01*
X141007448Y-77020051D01*
X140990000Y-77037499D01*
X140990000Y-77146018D01*
X140969998Y-77214139D01*
X140964398Y-77222151D01*
X140905642Y-77299633D01*
X140848543Y-77341827D01*
X140805244Y-77349500D01*
X139214360Y-77349500D01*
X139141375Y-77360134D01*
X139141372Y-77360135D01*
X139028789Y-77415173D01*
X139028787Y-77415174D01*
X138940174Y-77503787D01*
X138940173Y-77503789D01*
X138885135Y-77616372D01*
X138885134Y-77616375D01*
X138874500Y-77689360D01*
X138874500Y-77910639D01*
X138885134Y-77983624D01*
X138885135Y-77983627D01*
X138940173Y-78096210D01*
X138940174Y-78096212D01*
X138978367Y-78134405D01*
X139012393Y-78196717D01*
X139007328Y-78267532D01*
X138964781Y-78324368D01*
X138898261Y-78349179D01*
X138889272Y-78349500D01*
X138438793Y-78349500D01*
X138370672Y-78329498D01*
X138349698Y-78312595D01*
X138087405Y-78050302D01*
X138053379Y-77987990D01*
X138050500Y-77961207D01*
X138050500Y-77069510D01*
X138070502Y-77001389D01*
X138094746Y-76973633D01*
X138106229Y-76963841D01*
X138109975Y-76962364D01*
X138225078Y-76875078D01*
X138252071Y-76839481D01*
X138262461Y-76830623D01*
X138282905Y-76821481D01*
X138300918Y-76808172D01*
X138320391Y-76804721D01*
X138327274Y-76801644D01*
X138332919Y-76802501D01*
X138344215Y-76800500D01*
X139155785Y-76800500D01*
X139223906Y-76820502D01*
G37*
%TD.AperFunction*%
%TA.AperFunction,Conductor*%
G36*
X125133385Y-74526806D02*
G01*
X125175697Y-74575638D01*
X125200485Y-74626344D01*
X125200488Y-74626348D01*
X125286151Y-74712011D01*
X125286153Y-74712012D01*
X125394991Y-74765220D01*
X125465551Y-74775500D01*
X125659448Y-74775499D01*
X125730009Y-74765220D01*
X125757161Y-74751945D01*
X125827144Y-74739997D01*
X125867837Y-74751945D01*
X125894991Y-74765220D01*
X125965551Y-74775500D01*
X126159448Y-74775499D01*
X126160999Y-74775499D01*
X126229120Y-74795501D01*
X126275613Y-74849156D01*
X126287000Y-74901498D01*
X126287000Y-75096945D01*
X126297280Y-75167511D01*
X126297280Y-75167512D01*
X126310554Y-75194664D01*
X126322502Y-75264648D01*
X126310554Y-75305336D01*
X126297280Y-75332489D01*
X126287000Y-75403047D01*
X126287000Y-75596945D01*
X126297280Y-75667511D01*
X126297280Y-75667512D01*
X126310554Y-75694664D01*
X126322502Y-75764648D01*
X126310554Y-75805336D01*
X126297280Y-75832489D01*
X126287000Y-75903047D01*
X126287000Y-76096945D01*
X126297280Y-76167511D01*
X126297280Y-76167512D01*
X126310554Y-76194664D01*
X126322502Y-76264648D01*
X126310554Y-76305336D01*
X126297280Y-76332489D01*
X126287000Y-76403047D01*
X126287000Y-76596945D01*
X126297280Y-76667511D01*
X126297280Y-76667512D01*
X126310554Y-76694664D01*
X126322502Y-76764648D01*
X126310554Y-76805336D01*
X126297280Y-76832489D01*
X126287000Y-76903047D01*
X126287000Y-77098500D01*
X126266998Y-77166621D01*
X126213342Y-77213114D01*
X126161001Y-77224500D01*
X125965554Y-77224500D01*
X125894988Y-77234780D01*
X125894987Y-77234780D01*
X125867836Y-77248054D01*
X125797852Y-77260002D01*
X125757164Y-77248054D01*
X125730010Y-77234780D01*
X125705512Y-77231211D01*
X125659449Y-77224500D01*
X125659447Y-77224500D01*
X125465554Y-77224500D01*
X125394988Y-77234780D01*
X125286155Y-77287985D01*
X125286151Y-77287988D01*
X125200488Y-77373651D01*
X125200486Y-77373654D01*
X125175695Y-77424364D01*
X125127806Y-77476777D01*
X125059183Y-77494979D01*
X124991612Y-77473191D01*
X124949302Y-77424363D01*
X124924512Y-77373653D01*
X124924511Y-77373652D01*
X124924511Y-77373651D01*
X124838848Y-77287988D01*
X124838846Y-77287987D01*
X124730010Y-77234780D01*
X124705512Y-77231211D01*
X124659449Y-77224500D01*
X124659447Y-77224500D01*
X124465554Y-77224500D01*
X124394988Y-77234780D01*
X124394987Y-77234780D01*
X124367836Y-77248054D01*
X124297852Y-77260002D01*
X124257164Y-77248054D01*
X124230010Y-77234780D01*
X124159452Y-77224500D01*
X123963999Y-77224500D01*
X123895878Y-77204498D01*
X123849385Y-77150842D01*
X123837999Y-77098500D01*
X123837999Y-77096955D01*
X123838000Y-77096949D01*
X123837999Y-76903052D01*
X123827720Y-76832491D01*
X123814445Y-76805336D01*
X123802497Y-76735356D01*
X123814446Y-76694660D01*
X123827720Y-76667509D01*
X123838000Y-76596949D01*
X123837999Y-76403052D01*
X123827720Y-76332491D01*
X123814445Y-76305336D01*
X123802497Y-76235356D01*
X123814446Y-76194660D01*
X123827720Y-76167509D01*
X123838000Y-76096949D01*
X123837999Y-76000000D01*
X123837999Y-75903054D01*
X123836610Y-75893517D01*
X123827720Y-75832491D01*
X123814445Y-75805336D01*
X123802497Y-75735356D01*
X123814446Y-75694660D01*
X123815156Y-75693208D01*
X123827720Y-75667509D01*
X123838000Y-75596949D01*
X123837999Y-75403052D01*
X123827720Y-75332491D01*
X123814445Y-75305336D01*
X123802497Y-75235356D01*
X123814446Y-75194660D01*
X123827720Y-75167509D01*
X123838000Y-75096949D01*
X123837999Y-74903052D01*
X123837999Y-74903051D01*
X123837999Y-74901500D01*
X123858001Y-74833379D01*
X123911656Y-74786886D01*
X123963999Y-74775499D01*
X123965544Y-74775499D01*
X123965551Y-74775500D01*
X124159448Y-74775499D01*
X124230009Y-74765220D01*
X124257161Y-74751945D01*
X124327144Y-74739997D01*
X124367837Y-74751945D01*
X124394991Y-74765220D01*
X124465551Y-74775500D01*
X124659448Y-74775499D01*
X124730009Y-74765220D01*
X124757161Y-74751946D01*
X124838844Y-74712014D01*
X124838848Y-74712011D01*
X124924511Y-74626348D01*
X124924514Y-74626344D01*
X124949303Y-74575638D01*
X124997190Y-74523223D01*
X125065814Y-74505020D01*
X125133385Y-74526806D01*
G37*
%TD.AperFunction*%
%TA.AperFunction,Conductor*%
G36*
X127702182Y-73145502D02*
G01*
X127723156Y-73162404D01*
X128300095Y-73739342D01*
X128334120Y-73801655D01*
X128337000Y-73828438D01*
X128337000Y-74722710D01*
X128316998Y-74790831D01*
X128263342Y-74837324D01*
X128193068Y-74847428D01*
X128178390Y-74844417D01*
X128104057Y-74824500D01*
X128078438Y-74824500D01*
X128010317Y-74804498D01*
X127989347Y-74787599D01*
X127861263Y-74659515D01*
X127861260Y-74659513D01*
X127861259Y-74659512D01*
X127764241Y-74603499D01*
X127764238Y-74603498D01*
X127764237Y-74603497D01*
X127764235Y-74603496D01*
X127764234Y-74603496D01*
X127735236Y-74595726D01*
X127656018Y-74574500D01*
X126943982Y-74574500D01*
X126943979Y-74574500D01*
X126614000Y-74574500D01*
X126545879Y-74554498D01*
X126499386Y-74500842D01*
X126488000Y-74448500D01*
X126488000Y-73426500D01*
X126508002Y-73358379D01*
X126561658Y-73311886D01*
X126614000Y-73300500D01*
X126641555Y-73300500D01*
X126641557Y-73300500D01*
X126794284Y-73259577D01*
X126794287Y-73259575D01*
X126794288Y-73259575D01*
X126862750Y-73220048D01*
X126931216Y-73180520D01*
X126931222Y-73180514D01*
X126949332Y-73162405D01*
X127011644Y-73128379D01*
X127038427Y-73125500D01*
X127634061Y-73125500D01*
X127702182Y-73145502D01*
G37*
%TD.AperFunction*%
%TD*%
M02*
