M48
; DRILL file {KiCad 9.0.0} date 2025-12-15T21:45:39+0100
; FORMAT={-:-/ absolute / inch / decimal}
; #@! TF.CreationDate,2025-12-15T21:45:39+01:00
; #@! TF.GenerationSoftware,Kicad,Pcbnew,9.0.0
; #@! TF.FileFunction,Plated,1,2,PTH
FMAT,2
INCH
; #@! TA.AperFunction,Plated,PTH,ViaDrill
T1C0.0118
; #@! TA.AperFunction,Plated,PTH,ComponentDrill
T2C0.0236
; #@! TA.AperFunction,Plated,PTH,ComponentDrill
T3C0.0394
%
G90
G05
T1
X4.5118Y-3.0472
X4.5197Y-3.4606
X4.5315Y-3.6181
X4.5591Y-3.8228
X4.689Y-3.2913
X4.752Y-3.2913
X4.7677Y-2.8622
X4.7717Y-3.1339
X4.7992Y-2.9252
X4.8346Y-3.5394
X4.8346Y-3.7559
X4.8479Y-3.0684
X4.8543Y-3.1339
X4.8701Y-3.2913
X4.8819Y-3.3858
X4.9237Y-2.9567
X4.9237Y-3.0276
X4.9331Y-3.2913
X4.9828Y-2.8622
X4.9961Y-2.9213
X5.0079Y-3.0906
X5.0079Y-3.1575
X5.0197Y-3.8228
X5.0404Y-2.9695
X5.0433Y-3.3858
X5.1181Y-3.1732
X5.1181Y-3.3189
X5.126Y-2.9488
X5.2717Y-3.2047
X5.2835Y-2.9567
X5.3228Y-3.2717
X5.3307Y-3.4488
X5.3346Y-3.3701
X5.3661Y-3.7244
X5.3661Y-3.8268
X5.374Y-2.9606
X5.4606Y-3.0748
X5.4606Y-3.1299
X5.4646Y-2.9606
X5.4961Y-3.2717
X5.5512Y-2.9606
X5.5591Y-3.1024
X5.5748Y-3.7087
X5.5748Y-3.748
X5.6181Y-3.0197
X5.6339Y-3.7087
X5.6811Y-3.0197
X5.6811Y-3.1063
X5.6929Y-3.7087
X5.7047Y-3.7953
X5.7598Y-3.0197
X5.7598Y-3.1063
X5.8386Y-3.0197
X5.8386Y-3.1063
X5.8465Y-3.748
X5.874Y-3.3504
X5.874Y-3.4252
X5.874Y-3.5472
X5.9134Y-3.0197
X5.9134Y-3.1063
X5.9213Y-3.6811
X5.9291Y-3.1614
X5.9291Y-3.2283
X5.9567Y-3.2835
X5.9843Y-3.0197
X5.9843Y-3.1063
X5.9961Y-3.7953
X6.0472Y-3.4252
X6.0512Y-3.1299
X6.0512Y-3.1811
X6.0866Y-3.815
X6.0906Y-3.0197
X6.0945Y-3.2835
X6.1102Y-3.0827
X6.1102Y-3.1299
X6.1102Y-3.1811
X6.1102Y-3.2244
X6.1102Y-3.5472
X6.1457Y-3.815
X6.1535Y-3.0472
X6.1535Y-3.2638
X6.1929Y-3.7244
X6.1969Y-3.0827
X6.1969Y-3.1299
X6.1969Y-3.1811
X6.1969Y-3.2244
X6.2087Y-3.6142
X6.2126Y-3.2835
X6.2165Y-3.0197
X6.2244Y-3.3425
X6.252Y-3.1299
X6.252Y-3.1811
X6.2598Y-3.3976
X6.2874Y-3.7244
X6.2992Y-3.5591
X6.3071Y-2.9882
X6.3071Y-3.1181
X6.3071Y-3.1929
X6.315Y-3.4528
X6.3268Y-3.2835
X6.3307Y-3.0748
X6.3307Y-3.3425
X6.3661Y-3.5039
X6.3661Y-3.5669
X6.378Y-3.3898
X6.3819Y-2.9882
X6.3819Y-3.0748
X6.3858Y-3.7126
X6.4252Y-3.437
X6.4528Y-2.9882
X6.4528Y-3.0748
X6.4567Y-3.5039
X6.4567Y-3.5669
X6.4567Y-3.622
X6.4567Y-3.7126
X6.5236Y-2.874
X6.5236Y-2.9882
X6.5236Y-3.0748
X6.5236Y-3.189
X6.5236Y-3.4961
X6.5236Y-3.6102
X6.5236Y-3.7008
X6.5236Y-3.811
X6.6102Y-2.9803
X6.6102Y-3.0827
X6.6102Y-3.6024
X6.6102Y-3.7047
X6.6654Y-2.874
X6.6654Y-3.189
X6.6654Y-3.4961
X6.6654Y-3.811
T3
X4.4016Y-3.3795
X4.4016Y-3.4795
X4.4016Y-3.5795
X4.4016Y-3.6795
X4.4016Y-3.7795
X5.1016Y-3.4795
X5.1016Y-3.6795
X5.1016Y-3.7795
X5.3016Y-3.5795
X6.1016Y-3.4795
T2
G00X4.4498Y-2.8811
M15
G01X4.4183Y-2.8811
M16
G05
G00X4.4498Y-3.2213
M15
G01X4.4183Y-3.2213
M16
G05
G00X4.6203Y-2.8811
M15
G01X4.577Y-2.8811
M16
G05
G00X4.6203Y-3.2213
M15
G01X4.577Y-3.2213
M16
G05
M30
