M48
; DRILL file KiCad 10.0.1 date 2026-05-24T00:29:44
; FORMAT={-:-/ absolute / inch / decimal}
; #@! TF.CreationDate,2026-05-24T00:29:44+02:00
; #@! TF.GenerationSoftware,Kicad,Pcbnew,10.0.1
; #@! TF.FileFunction,Plated,1,2,PTH
FMAT,2
INCH
; #@! TA.AperFunction,Plated,PTH,ViaDrill
T1C0.0118
; #@! TA.AperFunction,Plated,PTH,ComponentDrill
T2C0.0236
; #@! TA.AperFunction,Plated,PTH,ComponentDrill
T3C0.0394
%
G90
G05
T1
X4.5Y-3.0591
X4.5197Y-3.4449
X4.5236Y-3.7835
X4.5823Y-3.0189
X4.6634Y-3.065
X4.6732Y-3.311
X4.7441Y-3.1339
X4.7559Y-2.9213
X4.7638Y-3.2362
X4.7835Y-3.7118
X4.7953Y-3.3976
X4.8898Y-3.1063
X4.9094Y-2.8652
X4.9409Y-3.1142
X4.9764Y-2.9685
X5.0157Y-2.8701
X5.0866Y-3.2047
X5.0984Y-3.3858
X5.1496Y-3.7874
X5.1612Y-2.9606
X5.2478Y-3.0748
X5.2478Y-3.1299
X5.2517Y-2.9606
X5.2832Y-3.2717
X5.3228Y-3.5197
X5.3383Y-2.9606
X5.3462Y-3.1024
X5.4053Y-3.0197
X5.4683Y-3.0197
X5.4683Y-3.1063
X5.5118Y-3.1969
X5.547Y-3.0197
X5.547Y-3.1063
X5.6257Y-3.0197
X5.6257Y-3.1063
X5.6732Y-3.1575
X5.748Y-3.0197
X5.748Y-3.1063
X5.7953Y-3.2874
X5.7953Y-3.3661
X5.7953Y-3.4449
X5.7953Y-3.5228
X5.8189Y-3.5819
X5.8268Y-3.0118
X5.8661Y-2.9803
X5.8701Y-3.6331
X5.8819Y-3.1299
X5.8819Y-3.2087
X5.8819Y-3.2874
X5.8819Y-3.3661
X5.8819Y-3.4449
X5.8858Y-3.5236
X5.9449Y-2.9803
X5.9449Y-3.0827
X5.9449Y-3.5709
X5.9449Y-3.6732
X5.9843Y-2.874
X5.9843Y-3.189
X5.9843Y-3.4646
X5.9843Y-3.7795
X6.0236Y-2.9803
X6.0236Y-3.0827
X6.0236Y-3.5709
X6.0236Y-3.6732
X6.1024Y-2.874
X6.1024Y-2.9803
X6.1024Y-3.0827
X6.1024Y-3.189
X6.1024Y-3.4646
X6.1024Y-3.5709
X6.1024Y-3.6732
X6.1024Y-3.7795
T3
X4.4016Y-3.3354
X4.4016Y-3.4354
X4.4016Y-3.5354
X4.4016Y-3.6354
X4.4016Y-3.7354
X5.0016Y-3.4346
X5.0016Y-3.6346
X5.0016Y-3.7346
X5.3016Y-3.6354
X5.6016Y-3.3354
T2
G00X4.4498Y-2.8811
M15
G01X4.4183Y-2.8811
M16
G05
G00X4.4498Y-3.2213
M15
G01X4.4183Y-3.2213
M16
G05
G00X4.6203Y-2.8811
M15
G01X4.577Y-2.8811
M16
G05
G00X4.6203Y-3.2213
M15
G01X4.577Y-3.2213
M16
G05
M30
