%TF.GenerationSoftware,KiCad,Pcbnew,9.0.0*%
%TF.CreationDate,2026-02-18T23:31:25+01:00*%
%TF.ProjectId,DetectorReader,44657465-6374-46f7-9252-65616465722e,rev?*%
%TF.SameCoordinates,Original*%
%TF.FileFunction,Copper,L2,Bot*%
%TF.FilePolarity,Positive*%
%FSLAX46Y46*%
G04 Gerber Fmt 4.6, Leading zero omitted, Abs format (unit mm)*
G04 Created by KiCad (PCBNEW 9.0.0) date 2026-02-18 23:31:25*
%MOMM*%
%LPD*%
G01*
G04 APERTURE LIST*
G04 Aperture macros list*
%AMRoundRect*
0 Rectangle with rounded corners*
0 $1 Rounding radius*
0 $2 $3 $4 $5 $6 $7 $8 $9 X,Y pos of 4 corners*
0 Add a 4 corners polygon primitive as box body*
4,1,4,$2,$3,$4,$5,$6,$7,$8,$9,$2,$3,0*
0 Add four circle primitives for the rounded corners*
1,1,$1+$1,$2,$3*
1,1,$1+$1,$4,$5*
1,1,$1+$1,$6,$7*
1,1,$1+$1,$8,$9*
0 Add four rect primitives between the rounded corners*
20,1,$1+$1,$2,$3,$4,$5,0*
20,1,$1+$1,$4,$5,$6,$7,0*
20,1,$1+$1,$6,$7,$8,$9,0*
20,1,$1+$1,$8,$9,$2,$3,0*%
G04 Aperture macros list end*
%TA.AperFunction,ComponentPad*%
%ADD10C,1.700000*%
%TD*%
%TA.AperFunction,ComponentPad*%
%ADD11R,1.700000X1.700000*%
%TD*%
%TA.AperFunction,ComponentPad*%
%ADD12O,1.700000X1.700000*%
%TD*%
%TA.AperFunction,HeatsinkPad*%
%ADD13O,2.100000X1.000000*%
%TD*%
%TA.AperFunction,HeatsinkPad*%
%ADD14O,1.800000X1.000000*%
%TD*%
%TA.AperFunction,SMDPad,CuDef*%
%ADD15RoundRect,0.250000X1.600000X-0.425000X1.600000X0.425000X-1.600000X0.425000X-1.600000X-0.425000X0*%
%TD*%
%TA.AperFunction,ViaPad*%
%ADD16C,0.600000*%
%TD*%
%TA.AperFunction,Conductor*%
%ADD17C,0.600000*%
%TD*%
%TA.AperFunction,Conductor*%
%ADD18C,0.300000*%
%TD*%
%TA.AperFunction,Conductor*%
%ADD19C,0.250000*%
%TD*%
G04 APERTURE END LIST*
D10*
%TO.P,TP2,1,1*%
%TO.N,/~{ReaderCmd}*%
X127040000Y-94860000D03*
%TD*%
D11*
%TO.P,J1,1,Pin_1*%
%TO.N,/UPDI*%
X111800000Y-94880000D03*
D12*
%TO.P,J1,2,Pin_2*%
%TO.N,+5V*%
X111800000Y-92340000D03*
%TO.P,J1,3,Pin_3*%
%TO.N,GND*%
X111800000Y-89800000D03*
%TO.P,J1,4,Pin_4*%
%TO.N,/uartTx*%
X111800000Y-87260000D03*
%TO.P,J1,5,Pin_5*%
%TO.N,/uartRx*%
X111800000Y-84720000D03*
%TD*%
D10*
%TO.P,TP5,1,1*%
%TO.N,/RF_Rx/Amp*%
X139740000Y-84700000D03*
%TD*%
D13*
%TO.P,J3,S1,SHIELD*%
%TO.N,GND*%
X116805000Y-73180000D03*
D14*
X112625000Y-73180000D03*
D13*
X116805000Y-81820000D03*
D14*
X112625000Y-81820000D03*
%TD*%
D10*
%TO.P,TP1,1,1*%
%TO.N,/SPI.MOSI*%
X129580000Y-87240000D03*
%TD*%
D15*
%TO.P,J4,2,Ext*%
%TO.N,GND*%
X157750000Y-89175000D03*
X157750000Y-94825000D03*
%TD*%
D10*
%TO.P,TP4,1,1*%
%TO.N,/RF_Rx/Signal*%
X147360000Y-84700000D03*
%TD*%
D15*
%TO.P,J2,2,Ext*%
%TO.N,GND*%
X157750000Y-74175000D03*
X157750000Y-79825000D03*
%TD*%
D10*
%TO.P,TP3,1,1*%
%TO.N,/TagPulses*%
X127040000Y-92320000D03*
%TD*%
D16*
%TO.N,GND*%
X137300000Y-78725000D03*
X153300000Y-78800000D03*
X157000000Y-93300000D03*
X153500000Y-85400000D03*
X138800000Y-76625000D03*
X153500000Y-89400000D03*
X142400000Y-76625000D03*
X151300000Y-89400000D03*
X151700000Y-79900000D03*
X156000000Y-88000000D03*
X121500000Y-88780000D03*
X121500000Y-94280000D03*
X134800000Y-79425000D03*
X120500000Y-79600000D03*
X120800000Y-74200000D03*
X127400000Y-72900000D03*
X140400000Y-78825000D03*
X141800000Y-84400000D03*
X114900000Y-96100000D03*
X156000000Y-73000000D03*
X159000000Y-90700000D03*
X153500000Y-83400000D03*
X156000000Y-96000000D03*
X159000000Y-93300000D03*
X155000000Y-90700000D03*
X123700000Y-79600000D03*
X140400000Y-76625000D03*
X159000000Y-88000000D03*
X134800000Y-78025000D03*
X145800000Y-83200000D03*
X149800000Y-81200000D03*
X149800000Y-79900000D03*
X134900000Y-93000000D03*
X159000000Y-75700000D03*
X159000000Y-78300000D03*
X153600000Y-95000000D03*
X151200000Y-94400000D03*
X121600000Y-83662500D03*
X159000000Y-81000000D03*
X159000000Y-96000000D03*
X114300000Y-77700000D03*
X139500000Y-88000000D03*
X151300000Y-83400000D03*
X151300000Y-85400000D03*
X126500000Y-86100000D03*
X149800000Y-78800000D03*
X153000000Y-75500000D03*
X157000000Y-75700000D03*
X149800000Y-77400000D03*
X155000000Y-93300000D03*
X137100000Y-75125000D03*
X151700000Y-77400000D03*
X142400000Y-78825000D03*
X135700000Y-83025000D03*
X157000000Y-90700000D03*
X132600000Y-75125000D03*
X143000000Y-95800000D03*
X129800000Y-96100000D03*
X117600000Y-85100000D03*
X153300000Y-79900000D03*
X155000000Y-75700000D03*
X155000000Y-78300000D03*
X151700000Y-78800000D03*
X149000000Y-75500000D03*
X147000000Y-75500000D03*
X148200000Y-79900000D03*
X126700000Y-77100000D03*
X159000000Y-73000000D03*
X144400000Y-76625000D03*
X156000000Y-81000000D03*
X151700000Y-81200000D03*
X148200000Y-78800000D03*
X153500000Y-87400000D03*
X134900000Y-75125000D03*
X144700000Y-81700000D03*
X157000000Y-78300000D03*
X144400000Y-78825000D03*
X151300000Y-87400000D03*
X148000000Y-91400000D03*
X146600000Y-95800000D03*
%TO.N,+5V*%
X125600000Y-78800000D03*
X114800000Y-87500000D03*
X125000000Y-81000000D03*
%TO.N,+3V0*%
X130700000Y-80662500D03*
X129900000Y-90000000D03*
X129900000Y-91500000D03*
X126300000Y-80662500D03*
%TO.N,Net-(Q1-B)*%
X141300000Y-95100000D03*
X141300000Y-93200000D03*
%TO.N,/uartTx*%
X124800000Y-72775000D03*
%TO.N,/uartRx*%
X126400000Y-75400000D03*
%TO.N,/USB_N*%
X118450000Y-77850000D03*
X116391373Y-76681021D03*
%TD*%
D17*
%TO.N,GND*%
X111800000Y-89800000D02*
X111800000Y-89780000D01*
%TO.N,+5V*%
X113160000Y-92340000D02*
X111800000Y-92340000D01*
D18*
X125000000Y-81000000D02*
X125000000Y-80900000D01*
X125000000Y-80900000D02*
X125600000Y-80300000D01*
D17*
X114800000Y-90700000D02*
X113160000Y-92340000D01*
X114800000Y-87500000D02*
X114800000Y-90700000D01*
D18*
X125600000Y-80300000D02*
X125600000Y-78800000D01*
D17*
%TO.N,+3V0*%
X129900000Y-90000000D02*
X129900000Y-91500000D01*
X130700000Y-80662500D02*
X126300000Y-80662500D01*
D18*
%TO.N,Net-(Q1-B)*%
X141300000Y-93200000D02*
X141300000Y-95100000D01*
D19*
%TO.N,/uartTx*%
X119500000Y-72700000D02*
X116800000Y-75400000D01*
X110500000Y-76600000D02*
X110500000Y-85960000D01*
X124725000Y-72700000D02*
X124800000Y-72775000D01*
X110500000Y-85960000D02*
X111800000Y-87260000D01*
X111700000Y-75400000D02*
X110500000Y-76600000D01*
X119500000Y-72700000D02*
X124725000Y-72700000D01*
X116800000Y-75400000D02*
X111700000Y-75400000D01*
%TO.N,/uartRx*%
X112100000Y-76000000D02*
X111100000Y-77000000D01*
X111100000Y-84020000D02*
X111800000Y-84720000D01*
X117100000Y-76000000D02*
X112100000Y-76000000D01*
X126400000Y-74000000D02*
X125800000Y-73400000D01*
X125800000Y-73400000D02*
X119700000Y-73400000D01*
X119700000Y-73400000D02*
X117100000Y-76000000D01*
X111100000Y-77000000D02*
X111100000Y-84020000D01*
X126400000Y-75400000D02*
X126400000Y-74000000D01*
%TO.N,/USB_N*%
X117610352Y-77900000D02*
X116391373Y-76681021D01*
X118400000Y-77900000D02*
X117610352Y-77900000D01*
X118450000Y-77850000D02*
X118400000Y-77900000D01*
%TD*%
%TA.AperFunction,Conductor*%
%TO.N,GND*%
G36*
X159941621Y-72020502D02*
G01*
X159988114Y-72074158D01*
X159999500Y-72126500D01*
X159999500Y-83030560D01*
X159979498Y-83098681D01*
X159925842Y-83145174D01*
X159855568Y-83155278D01*
X159790988Y-83125784D01*
X159759978Y-83085230D01*
X159733650Y-83030560D01*
X159717906Y-82997867D01*
X159532630Y-82703003D01*
X159532624Y-82702995D01*
X159315510Y-82430740D01*
X159069259Y-82184489D01*
X158797004Y-81967375D01*
X158797000Y-81967372D01*
X158502137Y-81782096D01*
X158502128Y-81782091D01*
X158188388Y-81631002D01*
X158188383Y-81631000D01*
X158188379Y-81630998D01*
X158188373Y-81630995D01*
X158188361Y-81630991D01*
X157859687Y-81515983D01*
X157520174Y-81438491D01*
X157174122Y-81399500D01*
X157174120Y-81399500D01*
X156825880Y-81399500D01*
X156825878Y-81399500D01*
X156479825Y-81438491D01*
X156140312Y-81515983D01*
X155811638Y-81630991D01*
X155811611Y-81631002D01*
X155497871Y-81782091D01*
X155497862Y-81782096D01*
X155202999Y-81967372D01*
X155202995Y-81967375D01*
X154930740Y-82184489D01*
X154684489Y-82430740D01*
X154467375Y-82702995D01*
X154467372Y-82702999D01*
X154282096Y-82997862D01*
X154282091Y-82997871D01*
X154131002Y-83311611D01*
X154130991Y-83311638D01*
X154015983Y-83640312D01*
X153938491Y-83979825D01*
X153899500Y-84325878D01*
X153899500Y-84674121D01*
X153938491Y-85020174D01*
X153970779Y-85161634D01*
X154015982Y-85359681D01*
X154015984Y-85359687D01*
X154015983Y-85359687D01*
X154130991Y-85688361D01*
X154131002Y-85688388D01*
X154282091Y-86002128D01*
X154282096Y-86002137D01*
X154407361Y-86201493D01*
X154454180Y-86276006D01*
X154467372Y-86297000D01*
X154467375Y-86297004D01*
X154684489Y-86569259D01*
X154930740Y-86815510D01*
X155202995Y-87032624D01*
X155203003Y-87032630D01*
X155497867Y-87217906D01*
X155811621Y-87369002D01*
X155811637Y-87369007D01*
X155811638Y-87369008D01*
X156140312Y-87484016D01*
X156140315Y-87484016D01*
X156140319Y-87484018D01*
X156479829Y-87561509D01*
X156725210Y-87589157D01*
X156825878Y-87600500D01*
X156825880Y-87600500D01*
X157174122Y-87600500D01*
X157262006Y-87590597D01*
X157520171Y-87561509D01*
X157859681Y-87484018D01*
X158188379Y-87369002D01*
X158502133Y-87217906D01*
X158796997Y-87032630D01*
X158912620Y-86940424D01*
X159069259Y-86815510D01*
X159315510Y-86569259D01*
X159480434Y-86362449D01*
X159532630Y-86296997D01*
X159717906Y-86002133D01*
X159746789Y-85942156D01*
X159759978Y-85914770D01*
X159807556Y-85862074D01*
X159876070Y-85843465D01*
X159943769Y-85864853D01*
X159989157Y-85919445D01*
X159999500Y-85969439D01*
X159999500Y-96873500D01*
X159979498Y-96941621D01*
X159925842Y-96988114D01*
X159873500Y-96999500D01*
X110126500Y-96999500D01*
X110058379Y-96979498D01*
X110011886Y-96925842D01*
X110000500Y-96873500D01*
X110000500Y-92249454D01*
X110649500Y-92249454D01*
X110649500Y-92430546D01*
X110677829Y-92609409D01*
X110677830Y-92609412D01*
X110727290Y-92761639D01*
X110733789Y-92781639D01*
X110816004Y-92942994D01*
X110922447Y-93089501D01*
X110922449Y-93089503D01*
X110922451Y-93089506D01*
X111050493Y-93217548D01*
X111050496Y-93217550D01*
X111050499Y-93217553D01*
X111197006Y-93323996D01*
X111358361Y-93406211D01*
X111530591Y-93462171D01*
X111637175Y-93479052D01*
X111701326Y-93509463D01*
X111738854Y-93569731D01*
X111737840Y-93640721D01*
X111698608Y-93699893D01*
X111633612Y-93728461D01*
X111617463Y-93729500D01*
X110905140Y-93729500D01*
X110905133Y-93729501D01*
X110880009Y-93732414D01*
X110880005Y-93732416D01*
X110777234Y-93777793D01*
X110697795Y-93857232D01*
X110697794Y-93857234D01*
X110652414Y-93960009D01*
X110649500Y-93985129D01*
X110649500Y-95774859D01*
X110649501Y-95774866D01*
X110652414Y-95799990D01*
X110652416Y-95799994D01*
X110697793Y-95902765D01*
X110777232Y-95982204D01*
X110777234Y-95982205D01*
X110777235Y-95982206D01*
X110880009Y-96027585D01*
X110905135Y-96030500D01*
X112694864Y-96030499D01*
X112719991Y-96027585D01*
X112822765Y-95982206D01*
X112902206Y-95902765D01*
X112947585Y-95799991D01*
X112950500Y-95774865D01*
X112950499Y-93985136D01*
X112947585Y-93960009D01*
X112910494Y-93876006D01*
X112902206Y-93857234D01*
X112822767Y-93777795D01*
X112822765Y-93777794D01*
X112719989Y-93732414D01*
X112719990Y-93732414D01*
X112694870Y-93729500D01*
X111982537Y-93729500D01*
X111914416Y-93709498D01*
X111867923Y-93655842D01*
X111857819Y-93585568D01*
X111887313Y-93520988D01*
X111947039Y-93482604D01*
X111962814Y-93479053D01*
X112069409Y-93462171D01*
X112241639Y-93406211D01*
X112402994Y-93323996D01*
X112549501Y-93217553D01*
X112677553Y-93089501D01*
X112714517Y-93038624D01*
X112748073Y-92992439D01*
X112752475Y-92989043D01*
X112754785Y-92983988D01*
X112780285Y-92967599D01*
X112804296Y-92949085D01*
X112811075Y-92947811D01*
X112814511Y-92945604D01*
X112850009Y-92940500D01*
X113073209Y-92940500D01*
X113073225Y-92940501D01*
X113080943Y-92940501D01*
X113239054Y-92940501D01*
X113239057Y-92940501D01*
X113391785Y-92899577D01*
X113416308Y-92885417D01*
X113441881Y-92870653D01*
X113441891Y-92870645D01*
X113441904Y-92870639D01*
X113528716Y-92820520D01*
X113640520Y-92708716D01*
X113640520Y-92708714D01*
X113650890Y-92698345D01*
X113650894Y-92698340D01*
X114119780Y-92229454D01*
X125889500Y-92229454D01*
X125889500Y-92410546D01*
X125917829Y-92589409D01*
X125917830Y-92589412D01*
X125960092Y-92719485D01*
X125973789Y-92761639D01*
X126056004Y-92922994D01*
X126056006Y-92922997D01*
X126074960Y-92949085D01*
X126162447Y-93069501D01*
X126162449Y-93069503D01*
X126162451Y-93069506D01*
X126290493Y-93197548D01*
X126290496Y-93197550D01*
X126290499Y-93197553D01*
X126437006Y-93303996D01*
X126598361Y-93386211D01*
X126770591Y-93442171D01*
X126918211Y-93465551D01*
X126982363Y-93495964D01*
X127019890Y-93556232D01*
X127018876Y-93627221D01*
X126979643Y-93686393D01*
X126918211Y-93714448D01*
X126770591Y-93737829D01*
X126770588Y-93737829D01*
X126770587Y-93737830D01*
X126598365Y-93793787D01*
X126598359Y-93793790D01*
X126437002Y-93876006D01*
X126290496Y-93982449D01*
X126290493Y-93982451D01*
X126162451Y-94110493D01*
X126162449Y-94110496D01*
X126056006Y-94257002D01*
X125973790Y-94418359D01*
X125973787Y-94418365D01*
X125917830Y-94590587D01*
X125917829Y-94590591D01*
X125889500Y-94769454D01*
X125889500Y-94950546D01*
X125917829Y-95129409D01*
X125973789Y-95301639D01*
X125973790Y-95301640D01*
X126056006Y-95462997D01*
X126082321Y-95499216D01*
X126162447Y-95609501D01*
X126162449Y-95609503D01*
X126162451Y-95609506D01*
X126290493Y-95737548D01*
X126290496Y-95737550D01*
X126290499Y-95737553D01*
X126437006Y-95843996D01*
X126598361Y-95926211D01*
X126770591Y-95982171D01*
X126949454Y-96010500D01*
X126949457Y-96010500D01*
X127130543Y-96010500D01*
X127130546Y-96010500D01*
X127309409Y-95982171D01*
X127481639Y-95926211D01*
X127642994Y-95843996D01*
X127789501Y-95737553D01*
X127917553Y-95609501D01*
X128023996Y-95462994D01*
X128106211Y-95301639D01*
X128162171Y-95129409D01*
X128190500Y-94950546D01*
X128190500Y-94769454D01*
X128162171Y-94590591D01*
X128106211Y-94418361D01*
X128023996Y-94257006D01*
X127917553Y-94110499D01*
X127917550Y-94110496D01*
X127917548Y-94110493D01*
X127789506Y-93982451D01*
X127789503Y-93982449D01*
X127789501Y-93982447D01*
X127642994Y-93876004D01*
X127481639Y-93793789D01*
X127481636Y-93793788D01*
X127481634Y-93793787D01*
X127309412Y-93737830D01*
X127309409Y-93737829D01*
X127161787Y-93714448D01*
X127097636Y-93684037D01*
X127060109Y-93623768D01*
X127061123Y-93552779D01*
X127100356Y-93493607D01*
X127161786Y-93465551D01*
X127309409Y-93442171D01*
X127481639Y-93386211D01*
X127642994Y-93303996D01*
X127789501Y-93197553D01*
X127866111Y-93120943D01*
X140699500Y-93120943D01*
X140699500Y-93279057D01*
X140728211Y-93386209D01*
X140740424Y-93431788D01*
X140819480Y-93568717D01*
X140823462Y-93573906D01*
X140849063Y-93640126D01*
X140849500Y-93650610D01*
X140849500Y-94649389D01*
X140829498Y-94717510D01*
X140823465Y-94726089D01*
X140819482Y-94731280D01*
X140740424Y-94868211D01*
X140740423Y-94868216D01*
X140699500Y-95020943D01*
X140699500Y-95179057D01*
X140732344Y-95301634D01*
X140740424Y-95331788D01*
X140819477Y-95468712D01*
X140819485Y-95468722D01*
X140931277Y-95580514D01*
X140931282Y-95580518D01*
X140931284Y-95580520D01*
X140931285Y-95580521D01*
X140931287Y-95580522D01*
X141068211Y-95659575D01*
X141068213Y-95659575D01*
X141068216Y-95659577D01*
X141220943Y-95700500D01*
X141220945Y-95700500D01*
X141379055Y-95700500D01*
X141379057Y-95700500D01*
X141531784Y-95659577D01*
X141531787Y-95659575D01*
X141531788Y-95659575D01*
X141618510Y-95609506D01*
X141668716Y-95580520D01*
X141780520Y-95468716D01*
X141859577Y-95331784D01*
X141900500Y-95179057D01*
X141900500Y-95020943D01*
X141859577Y-94868216D01*
X141859575Y-94868213D01*
X141859575Y-94868211D01*
X141802557Y-94769454D01*
X141780520Y-94731284D01*
X141780518Y-94731282D01*
X141780517Y-94731280D01*
X141776535Y-94726089D01*
X141750936Y-94659868D01*
X141750500Y-94649389D01*
X141750500Y-93650610D01*
X141770502Y-93582489D01*
X141776538Y-93573906D01*
X141780519Y-93568717D01*
X141787728Y-93556232D01*
X141853580Y-93442171D01*
X141859575Y-93431788D01*
X141859575Y-93431787D01*
X141859577Y-93431784D01*
X141900500Y-93279057D01*
X141900500Y-93120943D01*
X141859577Y-92968216D01*
X141859575Y-92968213D01*
X141859575Y-92968211D01*
X141780522Y-92831287D01*
X141780514Y-92831277D01*
X141668722Y-92719485D01*
X141668712Y-92719477D01*
X141531788Y-92640424D01*
X141513743Y-92635589D01*
X141379057Y-92599500D01*
X141220943Y-92599500D01*
X141127470Y-92624545D01*
X141068211Y-92640424D01*
X140931287Y-92719477D01*
X140931277Y-92719485D01*
X140819485Y-92831277D01*
X140819477Y-92831287D01*
X140740424Y-92968211D01*
X140740423Y-92968216D01*
X140699500Y-93120943D01*
X127866111Y-93120943D01*
X127917553Y-93069501D01*
X128023996Y-92922994D01*
X128106211Y-92761639D01*
X128162171Y-92589409D01*
X128190500Y-92410546D01*
X128190500Y-92229454D01*
X128162171Y-92050591D01*
X128106211Y-91878361D01*
X128023996Y-91717006D01*
X127917553Y-91570499D01*
X127917550Y-91570496D01*
X127917548Y-91570493D01*
X127789506Y-91442451D01*
X127789503Y-91442449D01*
X127789501Y-91442447D01*
X127642994Y-91336004D01*
X127481639Y-91253789D01*
X127481636Y-91253788D01*
X127481634Y-91253787D01*
X127309412Y-91197830D01*
X127309409Y-91197829D01*
X127130546Y-91169500D01*
X126949454Y-91169500D01*
X126770591Y-91197829D01*
X126770588Y-91197829D01*
X126770587Y-91197830D01*
X126598365Y-91253787D01*
X126598359Y-91253790D01*
X126437002Y-91336006D01*
X126290496Y-91442449D01*
X126290493Y-91442451D01*
X126162451Y-91570493D01*
X126162449Y-91570496D01*
X126056006Y-91717002D01*
X125973790Y-91878359D01*
X125973787Y-91878365D01*
X125967289Y-91898365D01*
X125917829Y-92050591D01*
X125889500Y-92229454D01*
X114119780Y-92229454D01*
X115158340Y-91190894D01*
X115158345Y-91190890D01*
X115168714Y-91180520D01*
X115168716Y-91180520D01*
X115280520Y-91068716D01*
X115330637Y-90981906D01*
X115330640Y-90981904D01*
X115347756Y-90952258D01*
X115359577Y-90931785D01*
X115400500Y-90779058D01*
X115400500Y-90620943D01*
X115400500Y-89920943D01*
X129299500Y-89920943D01*
X129299500Y-91579057D01*
X129302566Y-91590499D01*
X129340424Y-91731788D01*
X129419477Y-91868712D01*
X129419485Y-91868722D01*
X129531277Y-91980514D01*
X129531282Y-91980518D01*
X129531284Y-91980520D01*
X129531285Y-91980521D01*
X129531287Y-91980522D01*
X129668211Y-92059575D01*
X129668213Y-92059575D01*
X129668216Y-92059577D01*
X129820943Y-92100500D01*
X129820945Y-92100500D01*
X129979055Y-92100500D01*
X129979057Y-92100500D01*
X130131784Y-92059577D01*
X130131787Y-92059575D01*
X130131788Y-92059575D01*
X130200250Y-92020048D01*
X130268716Y-91980520D01*
X130380520Y-91868716D01*
X130456562Y-91737006D01*
X130459575Y-91731788D01*
X130459575Y-91731787D01*
X130459577Y-91731784D01*
X130500500Y-91579057D01*
X130500500Y-89920943D01*
X130459577Y-89768216D01*
X130459575Y-89768213D01*
X130459575Y-89768211D01*
X130380522Y-89631287D01*
X130380514Y-89631277D01*
X130268722Y-89519485D01*
X130268712Y-89519477D01*
X130131788Y-89440424D01*
X130113743Y-89435589D01*
X129979057Y-89399500D01*
X129820943Y-89399500D01*
X129727470Y-89424545D01*
X129668211Y-89440424D01*
X129531287Y-89519477D01*
X129531277Y-89519485D01*
X129419485Y-89631277D01*
X129419477Y-89631287D01*
X129340424Y-89768211D01*
X129340423Y-89768216D01*
X129299500Y-89920943D01*
X115400500Y-89920943D01*
X115400500Y-87420943D01*
X115359577Y-87268216D01*
X115359575Y-87268213D01*
X115359575Y-87268211D01*
X115324525Y-87207503D01*
X115291011Y-87149454D01*
X128429500Y-87149454D01*
X128429500Y-87330546D01*
X128457829Y-87509409D01*
X128513789Y-87681639D01*
X128596004Y-87842994D01*
X128702447Y-87989501D01*
X128702449Y-87989503D01*
X128702451Y-87989506D01*
X128830493Y-88117548D01*
X128830496Y-88117550D01*
X128830499Y-88117553D01*
X128977006Y-88223996D01*
X129138361Y-88306211D01*
X129310591Y-88362171D01*
X129489454Y-88390500D01*
X129489457Y-88390500D01*
X129670543Y-88390500D01*
X129670546Y-88390500D01*
X129849409Y-88362171D01*
X130021639Y-88306211D01*
X130182994Y-88223996D01*
X130329501Y-88117553D01*
X130457553Y-87989501D01*
X130563996Y-87842994D01*
X130646211Y-87681639D01*
X130702171Y-87509409D01*
X130730500Y-87330546D01*
X130730500Y-87149454D01*
X130702171Y-86970591D01*
X130646211Y-86798361D01*
X130563996Y-86637006D01*
X130457553Y-86490499D01*
X130457550Y-86490496D01*
X130457548Y-86490493D01*
X130329506Y-86362451D01*
X130329503Y-86362449D01*
X130329501Y-86362447D01*
X130182994Y-86256004D01*
X130021639Y-86173789D01*
X130021636Y-86173788D01*
X130021634Y-86173787D01*
X129849412Y-86117830D01*
X129849409Y-86117829D01*
X129670546Y-86089500D01*
X129489454Y-86089500D01*
X129310591Y-86117829D01*
X129310588Y-86117829D01*
X129310587Y-86117830D01*
X129138365Y-86173787D01*
X129138359Y-86173790D01*
X128977002Y-86256006D01*
X128830496Y-86362449D01*
X128830493Y-86362451D01*
X128702451Y-86490493D01*
X128702449Y-86490496D01*
X128596006Y-86637002D01*
X128513790Y-86798359D01*
X128513787Y-86798365D01*
X128457830Y-86970587D01*
X128457829Y-86970591D01*
X128429500Y-87149454D01*
X115291011Y-87149454D01*
X115280522Y-87131287D01*
X115280514Y-87131277D01*
X115168722Y-87019485D01*
X115168712Y-87019477D01*
X115031788Y-86940424D01*
X115013743Y-86935589D01*
X114879057Y-86899500D01*
X114720943Y-86899500D01*
X114627470Y-86924545D01*
X114568211Y-86940424D01*
X114431287Y-87019477D01*
X114431277Y-87019485D01*
X114319485Y-87131277D01*
X114319477Y-87131287D01*
X114240424Y-87268211D01*
X114199500Y-87420944D01*
X114199500Y-90399075D01*
X114179498Y-90467196D01*
X114162595Y-90488170D01*
X112948170Y-91702595D01*
X112920801Y-91717539D01*
X112894573Y-91734396D01*
X112888274Y-91735301D01*
X112885858Y-91736621D01*
X112859075Y-91739500D01*
X112850009Y-91739500D01*
X112781888Y-91719498D01*
X112748073Y-91687561D01*
X112677551Y-91590496D01*
X112549506Y-91462451D01*
X112549503Y-91462449D01*
X112549501Y-91462447D01*
X112402994Y-91356004D01*
X112241639Y-91273789D01*
X112241636Y-91273788D01*
X112241634Y-91273787D01*
X112069412Y-91217830D01*
X112069409Y-91217829D01*
X111890546Y-91189500D01*
X111709454Y-91189500D01*
X111530591Y-91217829D01*
X111530588Y-91217829D01*
X111530587Y-91217830D01*
X111358365Y-91273787D01*
X111358359Y-91273790D01*
X111197002Y-91356006D01*
X111050496Y-91462449D01*
X111050493Y-91462451D01*
X110922451Y-91590493D01*
X110922449Y-91590496D01*
X110816006Y-91737002D01*
X110733790Y-91898359D01*
X110733787Y-91898365D01*
X110677830Y-92070587D01*
X110677829Y-92070591D01*
X110649500Y-92249454D01*
X110000500Y-92249454D01*
X110000500Y-86366438D01*
X110020502Y-86298317D01*
X110074158Y-86251824D01*
X110144432Y-86241720D01*
X110209012Y-86271214D01*
X110215595Y-86277343D01*
X110684788Y-86746536D01*
X110718814Y-86808848D01*
X110715526Y-86874566D01*
X110677829Y-86990591D01*
X110649500Y-87169454D01*
X110649500Y-87350546D01*
X110677829Y-87529409D01*
X110677830Y-87529412D01*
X110727290Y-87681639D01*
X110733789Y-87701639D01*
X110816004Y-87862994D01*
X110922447Y-88009501D01*
X110922449Y-88009503D01*
X110922451Y-88009506D01*
X111050493Y-88137548D01*
X111050496Y-88137550D01*
X111050499Y-88137553D01*
X111197006Y-88243996D01*
X111358361Y-88326211D01*
X111530591Y-88382171D01*
X111709454Y-88410500D01*
X111709457Y-88410500D01*
X111890543Y-88410500D01*
X111890546Y-88410500D01*
X112069409Y-88382171D01*
X112241639Y-88326211D01*
X112402994Y-88243996D01*
X112549501Y-88137553D01*
X112677553Y-88009501D01*
X112783996Y-87862994D01*
X112866211Y-87701639D01*
X112922171Y-87529409D01*
X112950500Y-87350546D01*
X112950500Y-87169454D01*
X112922171Y-86990591D01*
X112866211Y-86818361D01*
X112783996Y-86657006D01*
X112677553Y-86510499D01*
X112677550Y-86510496D01*
X112677548Y-86510493D01*
X112549506Y-86382451D01*
X112549503Y-86382449D01*
X112549501Y-86382447D01*
X112402994Y-86276004D01*
X112241639Y-86193789D01*
X112241636Y-86193788D01*
X112241634Y-86193787D01*
X112069412Y-86137830D01*
X112069409Y-86137829D01*
X111921787Y-86114448D01*
X111857636Y-86084037D01*
X111820109Y-86023768D01*
X111821123Y-85952779D01*
X111860356Y-85893607D01*
X111921786Y-85865551D01*
X112069409Y-85842171D01*
X112241639Y-85786211D01*
X112402994Y-85703996D01*
X112549501Y-85597553D01*
X112677553Y-85469501D01*
X112783996Y-85322994D01*
X112866211Y-85161639D01*
X112922171Y-84989409D01*
X112950500Y-84810546D01*
X112950500Y-84629454D01*
X112947332Y-84609454D01*
X138589500Y-84609454D01*
X138589500Y-84790546D01*
X138617829Y-84969409D01*
X138673789Y-85141639D01*
X138756004Y-85302994D01*
X138862447Y-85449501D01*
X138862449Y-85449503D01*
X138862451Y-85449506D01*
X138990493Y-85577548D01*
X138990496Y-85577550D01*
X138990499Y-85577553D01*
X139137006Y-85683996D01*
X139298361Y-85766211D01*
X139470591Y-85822171D01*
X139649454Y-85850500D01*
X139649457Y-85850500D01*
X139830543Y-85850500D01*
X139830546Y-85850500D01*
X140009409Y-85822171D01*
X140181639Y-85766211D01*
X140342994Y-85683996D01*
X140489501Y-85577553D01*
X140617553Y-85449501D01*
X140723996Y-85302994D01*
X140806211Y-85141639D01*
X140862171Y-84969409D01*
X140890500Y-84790546D01*
X140890500Y-84609454D01*
X146209500Y-84609454D01*
X146209500Y-84790546D01*
X146237829Y-84969409D01*
X146293789Y-85141639D01*
X146376004Y-85302994D01*
X146482447Y-85449501D01*
X146482449Y-85449503D01*
X146482451Y-85449506D01*
X146610493Y-85577548D01*
X146610496Y-85577550D01*
X146610499Y-85577553D01*
X146757006Y-85683996D01*
X146918361Y-85766211D01*
X147090591Y-85822171D01*
X147269454Y-85850500D01*
X147269457Y-85850500D01*
X147450543Y-85850500D01*
X147450546Y-85850500D01*
X147629409Y-85822171D01*
X147801639Y-85766211D01*
X147962994Y-85683996D01*
X148109501Y-85577553D01*
X148237553Y-85449501D01*
X148343996Y-85302994D01*
X148426211Y-85141639D01*
X148482171Y-84969409D01*
X148510500Y-84790546D01*
X148510500Y-84609454D01*
X148482171Y-84430591D01*
X148426211Y-84258361D01*
X148343996Y-84097006D01*
X148237553Y-83950499D01*
X148237550Y-83950496D01*
X148237548Y-83950493D01*
X148109506Y-83822451D01*
X148109503Y-83822449D01*
X148109501Y-83822447D01*
X147962994Y-83716004D01*
X147801639Y-83633789D01*
X147801636Y-83633788D01*
X147801634Y-83633787D01*
X147629412Y-83577830D01*
X147629409Y-83577829D01*
X147450546Y-83549500D01*
X147269454Y-83549500D01*
X147090591Y-83577829D01*
X147090588Y-83577829D01*
X147090587Y-83577830D01*
X146918365Y-83633787D01*
X146918359Y-83633790D01*
X146757002Y-83716006D01*
X146610496Y-83822449D01*
X146610493Y-83822451D01*
X146482451Y-83950493D01*
X146482449Y-83950496D01*
X146376006Y-84097002D01*
X146293790Y-84258359D01*
X146293787Y-84258365D01*
X146271851Y-84325880D01*
X146237829Y-84430591D01*
X146209500Y-84609454D01*
X140890500Y-84609454D01*
X140862171Y-84430591D01*
X140806211Y-84258361D01*
X140723996Y-84097006D01*
X140617553Y-83950499D01*
X140617550Y-83950496D01*
X140617548Y-83950493D01*
X140489506Y-83822451D01*
X140489503Y-83822449D01*
X140489501Y-83822447D01*
X140342994Y-83716004D01*
X140181639Y-83633789D01*
X140181636Y-83633788D01*
X140181634Y-83633787D01*
X140009412Y-83577830D01*
X140009409Y-83577829D01*
X139830546Y-83549500D01*
X139649454Y-83549500D01*
X139470591Y-83577829D01*
X139470588Y-83577829D01*
X139470587Y-83577830D01*
X139298365Y-83633787D01*
X139298359Y-83633790D01*
X139137002Y-83716006D01*
X138990496Y-83822449D01*
X138990493Y-83822451D01*
X138862451Y-83950493D01*
X138862449Y-83950496D01*
X138756006Y-84097002D01*
X138673790Y-84258359D01*
X138673787Y-84258365D01*
X138651851Y-84325880D01*
X138617829Y-84430591D01*
X138589500Y-84609454D01*
X112947332Y-84609454D01*
X112922171Y-84450591D01*
X112866211Y-84278361D01*
X112783996Y-84117006D01*
X112677553Y-83970499D01*
X112677550Y-83970496D01*
X112677548Y-83970493D01*
X112549506Y-83842451D01*
X112549503Y-83842449D01*
X112549501Y-83842447D01*
X112402994Y-83736004D01*
X112241639Y-83653789D01*
X112241636Y-83653788D01*
X112241634Y-83653787D01*
X112069412Y-83597830D01*
X112069409Y-83597829D01*
X111890546Y-83569500D01*
X111709454Y-83569500D01*
X111698370Y-83571255D01*
X111671209Y-83575557D01*
X111600798Y-83566457D01*
X111546485Y-83520734D01*
X111525513Y-83452906D01*
X111525500Y-83451108D01*
X111525500Y-80920943D01*
X124399500Y-80920943D01*
X124399500Y-81079057D01*
X124435589Y-81213743D01*
X124440424Y-81231788D01*
X124519477Y-81368712D01*
X124519485Y-81368722D01*
X124631277Y-81480514D01*
X124631282Y-81480518D01*
X124631284Y-81480520D01*
X124631285Y-81480521D01*
X124631287Y-81480522D01*
X124768211Y-81559575D01*
X124768213Y-81559575D01*
X124768216Y-81559577D01*
X124920943Y-81600500D01*
X124920945Y-81600500D01*
X125079055Y-81600500D01*
X125079057Y-81600500D01*
X125231784Y-81559577D01*
X125231787Y-81559575D01*
X125231788Y-81559575D01*
X125307293Y-81515982D01*
X125368716Y-81480520D01*
X125480520Y-81368716D01*
X125559577Y-81231784D01*
X125600500Y-81079057D01*
X125600500Y-81079052D01*
X125600547Y-81078877D01*
X125637498Y-81018254D01*
X125701359Y-80987232D01*
X125771853Y-80995660D01*
X125812097Y-81026919D01*
X125813640Y-81025377D01*
X125931277Y-81143014D01*
X125931282Y-81143018D01*
X125931284Y-81143020D01*
X125931285Y-81143021D01*
X125931287Y-81143022D01*
X126068211Y-81222075D01*
X126068213Y-81222075D01*
X126068216Y-81222077D01*
X126220943Y-81263000D01*
X126220945Y-81263000D01*
X130779055Y-81263000D01*
X130779057Y-81263000D01*
X130931784Y-81222077D01*
X130931787Y-81222075D01*
X130931788Y-81222075D01*
X131000250Y-81182548D01*
X131068716Y-81143020D01*
X131180520Y-81031216D01*
X131259577Y-80894284D01*
X131300500Y-80741557D01*
X131300500Y-80583443D01*
X131259577Y-80430716D01*
X131259575Y-80430713D01*
X131259575Y-80430711D01*
X131180522Y-80293787D01*
X131180514Y-80293777D01*
X131068722Y-80181985D01*
X131068712Y-80181977D01*
X130931788Y-80102924D01*
X130913743Y-80098089D01*
X130779057Y-80062000D01*
X126220943Y-80062000D01*
X126220942Y-80062000D01*
X126209107Y-80065171D01*
X126138130Y-80063479D01*
X126079336Y-80023682D01*
X126051391Y-79958417D01*
X126050500Y-79943463D01*
X126050500Y-79250610D01*
X126070502Y-79182489D01*
X126076538Y-79173906D01*
X126080519Y-79168717D01*
X126159575Y-79031788D01*
X126159575Y-79031787D01*
X126159577Y-79031784D01*
X126200500Y-78879057D01*
X126200500Y-78720943D01*
X126159577Y-78568216D01*
X126159575Y-78568213D01*
X126159575Y-78568211D01*
X126080522Y-78431287D01*
X126080514Y-78431277D01*
X125968722Y-78319485D01*
X125968712Y-78319477D01*
X125831788Y-78240424D01*
X125813743Y-78235589D01*
X125679057Y-78199500D01*
X125520943Y-78199500D01*
X125427470Y-78224545D01*
X125368211Y-78240424D01*
X125231287Y-78319477D01*
X125231277Y-78319485D01*
X125119485Y-78431277D01*
X125119477Y-78431287D01*
X125040424Y-78568211D01*
X125040423Y-78568216D01*
X124999500Y-78720943D01*
X124999500Y-78879057D01*
X125035589Y-79013743D01*
X125040424Y-79031788D01*
X125119480Y-79168717D01*
X125123462Y-79173906D01*
X125149063Y-79240126D01*
X125149500Y-79250610D01*
X125149500Y-80061205D01*
X125129498Y-80129326D01*
X125112595Y-80150301D01*
X124866204Y-80396691D01*
X124809721Y-80429301D01*
X124768216Y-80440422D01*
X124768213Y-80440423D01*
X124631287Y-80519477D01*
X124631277Y-80519485D01*
X124519485Y-80631277D01*
X124519477Y-80631287D01*
X124440424Y-80768211D01*
X124440423Y-80768216D01*
X124399500Y-80920943D01*
X111525500Y-80920943D01*
X111525500Y-80330427D01*
X115852500Y-80330427D01*
X115852500Y-80449573D01*
X115871231Y-80519477D01*
X115883336Y-80564656D01*
X115883339Y-80564663D01*
X115942907Y-80667838D01*
X115942915Y-80667848D01*
X116027151Y-80752084D01*
X116027156Y-80752088D01*
X116027158Y-80752090D01*
X116130341Y-80811663D01*
X116245427Y-80842500D01*
X116245429Y-80842500D01*
X116364571Y-80842500D01*
X116364573Y-80842500D01*
X116479659Y-80811663D01*
X116582842Y-80752090D01*
X116667090Y-80667842D01*
X116726663Y-80564659D01*
X116757500Y-80449573D01*
X116757500Y-80330427D01*
X116726663Y-80215341D01*
X116677002Y-80129326D01*
X116667092Y-80112161D01*
X116667084Y-80112151D01*
X116582848Y-80027915D01*
X116582838Y-80027907D01*
X116479663Y-79968339D01*
X116479660Y-79968338D01*
X116479659Y-79968337D01*
X116479657Y-79968336D01*
X116479656Y-79968336D01*
X116442637Y-79958417D01*
X116364573Y-79937500D01*
X116245427Y-79937500D01*
X116183755Y-79954024D01*
X116130343Y-79968336D01*
X116130336Y-79968339D01*
X116027161Y-80027907D01*
X116027151Y-80027915D01*
X115942915Y-80112151D01*
X115942907Y-80112161D01*
X115883339Y-80215336D01*
X115883337Y-80215341D01*
X115852500Y-80330427D01*
X111525500Y-80330427D01*
X111525500Y-77228438D01*
X111545502Y-77160317D01*
X111562405Y-77139343D01*
X112239343Y-76462405D01*
X112301655Y-76428379D01*
X112328438Y-76425500D01*
X115673950Y-76425500D01*
X115742071Y-76445502D01*
X115788564Y-76499158D01*
X115798668Y-76569432D01*
X115795658Y-76584106D01*
X115790873Y-76601964D01*
X115790873Y-76760078D01*
X115826962Y-76894764D01*
X115831797Y-76912809D01*
X115910850Y-77049733D01*
X115910858Y-77049743D01*
X116022650Y-77161535D01*
X116022655Y-77161539D01*
X116022657Y-77161541D01*
X116022658Y-77161542D01*
X116022660Y-77161543D01*
X116159584Y-77240596D01*
X116159586Y-77240596D01*
X116159589Y-77240598D01*
X116312316Y-77281521D01*
X116337935Y-77281521D01*
X116406056Y-77301523D01*
X116427030Y-77318426D01*
X117269867Y-78161263D01*
X117349089Y-78240485D01*
X117446115Y-78296503D01*
X117554334Y-78325500D01*
X118038828Y-78325500D01*
X118101828Y-78342381D01*
X118218211Y-78409575D01*
X118218213Y-78409575D01*
X118218216Y-78409577D01*
X118370943Y-78450500D01*
X118370945Y-78450500D01*
X118529055Y-78450500D01*
X118529057Y-78450500D01*
X118681784Y-78409577D01*
X118681787Y-78409575D01*
X118681788Y-78409575D01*
X118798172Y-78342381D01*
X118818716Y-78330520D01*
X118930520Y-78218716D01*
X119009577Y-78081784D01*
X119050500Y-77929057D01*
X119050500Y-77770943D01*
X119009577Y-77618216D01*
X119009575Y-77618213D01*
X119009575Y-77618211D01*
X118930522Y-77481287D01*
X118930514Y-77481277D01*
X118818722Y-77369485D01*
X118818712Y-77369477D01*
X118681788Y-77290424D01*
X118648561Y-77281521D01*
X118529057Y-77249500D01*
X118370943Y-77249500D01*
X118277470Y-77274545D01*
X118218211Y-77290424D01*
X118081287Y-77369477D01*
X118081282Y-77369481D01*
X118047226Y-77403538D01*
X118013167Y-77437596D01*
X117985799Y-77452540D01*
X117959572Y-77469396D01*
X117953272Y-77470301D01*
X117950858Y-77471620D01*
X117924074Y-77474500D01*
X117838790Y-77474500D01*
X117770669Y-77454498D01*
X117749695Y-77437595D01*
X117028778Y-76716678D01*
X116994752Y-76654366D01*
X116991873Y-76627583D01*
X116991873Y-76601965D01*
X116987089Y-76584111D01*
X116988779Y-76513134D01*
X117028573Y-76454339D01*
X117093838Y-76426391D01*
X117108796Y-76425500D01*
X117156016Y-76425500D01*
X117156018Y-76425500D01*
X117264237Y-76396503D01*
X117361263Y-76340485D01*
X119839342Y-73862404D01*
X119901654Y-73828380D01*
X119928437Y-73825500D01*
X125571562Y-73825500D01*
X125639683Y-73845502D01*
X125660657Y-73862405D01*
X125937595Y-74139343D01*
X125971621Y-74201655D01*
X125974500Y-74228438D01*
X125974500Y-74924073D01*
X125954498Y-74992194D01*
X125937595Y-75013168D01*
X125919485Y-75031277D01*
X125919477Y-75031287D01*
X125840424Y-75168211D01*
X125840423Y-75168216D01*
X125799500Y-75320943D01*
X125799500Y-75479057D01*
X125835589Y-75613743D01*
X125840424Y-75631788D01*
X125919477Y-75768712D01*
X125919485Y-75768722D01*
X126031277Y-75880514D01*
X126031282Y-75880518D01*
X126031284Y-75880520D01*
X126031285Y-75880521D01*
X126031287Y-75880522D01*
X126168211Y-75959575D01*
X126168213Y-75959575D01*
X126168216Y-75959577D01*
X126320943Y-76000500D01*
X126320945Y-76000500D01*
X126479055Y-76000500D01*
X126479057Y-76000500D01*
X126631784Y-75959577D01*
X126631787Y-75959575D01*
X126631788Y-75959575D01*
X126700250Y-75920048D01*
X126768716Y-75880520D01*
X126880520Y-75768716D01*
X126959577Y-75631784D01*
X127000500Y-75479057D01*
X127000500Y-75320943D01*
X126959577Y-75168216D01*
X126959575Y-75168213D01*
X126959575Y-75168211D01*
X126880522Y-75031287D01*
X126880514Y-75031277D01*
X126862405Y-75013168D01*
X126828379Y-74950856D01*
X126825500Y-74924073D01*
X126825500Y-73943983D01*
X126825500Y-73943982D01*
X126796503Y-73835763D01*
X126740485Y-73738737D01*
X126661263Y-73659515D01*
X126061263Y-73059515D01*
X126061261Y-73059514D01*
X126061259Y-73059512D01*
X125964241Y-73003499D01*
X125964238Y-73003498D01*
X125964237Y-73003497D01*
X125964235Y-73003496D01*
X125964234Y-73003496D01*
X125935236Y-72995726D01*
X125856018Y-72974500D01*
X125856016Y-72974500D01*
X125526500Y-72974500D01*
X125458379Y-72954498D01*
X125411886Y-72900842D01*
X125400500Y-72848500D01*
X125400500Y-72695944D01*
X125400500Y-72695943D01*
X125359577Y-72543216D01*
X125359575Y-72543213D01*
X125359575Y-72543211D01*
X125280522Y-72406287D01*
X125280514Y-72406277D01*
X125168722Y-72294485D01*
X125168712Y-72294477D01*
X125066766Y-72235619D01*
X125017773Y-72184237D01*
X125004337Y-72114523D01*
X125030723Y-72048612D01*
X125088555Y-72007430D01*
X125129766Y-72000500D01*
X159873500Y-72000500D01*
X159941621Y-72020502D01*
G37*
%TD.AperFunction*%
%TA.AperFunction,Conductor*%
G36*
X124538355Y-72020502D02*
G01*
X124584848Y-72074158D01*
X124594952Y-72144432D01*
X124565458Y-72209012D01*
X124533235Y-72235618D01*
X124495131Y-72257618D01*
X124432130Y-72274500D01*
X119556019Y-72274500D01*
X119443982Y-72274500D01*
X119385990Y-72290038D01*
X119335765Y-72303496D01*
X119335758Y-72303499D01*
X119238740Y-72359512D01*
X119238730Y-72359520D01*
X116971942Y-74626309D01*
X116909630Y-74660335D01*
X116838815Y-74655270D01*
X116781979Y-74612723D01*
X116759836Y-74558350D01*
X116759637Y-74558404D01*
X116759211Y-74556814D01*
X116757924Y-74553654D01*
X116757500Y-74550432D01*
X116757500Y-74550427D01*
X116726663Y-74435341D01*
X116667090Y-74332158D01*
X116667088Y-74332156D01*
X116667084Y-74332151D01*
X116582848Y-74247915D01*
X116582838Y-74247907D01*
X116479663Y-74188339D01*
X116479660Y-74188338D01*
X116479659Y-74188337D01*
X116479657Y-74188336D01*
X116479656Y-74188336D01*
X116434542Y-74176248D01*
X116364573Y-74157500D01*
X116245427Y-74157500D01*
X116183755Y-74174024D01*
X116130343Y-74188336D01*
X116130336Y-74188339D01*
X116027161Y-74247907D01*
X116027151Y-74247915D01*
X115942915Y-74332151D01*
X115942907Y-74332161D01*
X115883339Y-74435336D01*
X115883337Y-74435341D01*
X115852500Y-74550427D01*
X115852500Y-74669573D01*
X115883337Y-74784659D01*
X115883822Y-74785499D01*
X115884015Y-74786293D01*
X115886498Y-74792288D01*
X115885563Y-74792675D01*
X115900561Y-74854492D01*
X115877342Y-74921585D01*
X115821536Y-74965473D01*
X115774704Y-74974500D01*
X111756018Y-74974500D01*
X111643981Y-74974500D01*
X111622705Y-74980201D01*
X111622704Y-74980200D01*
X111535770Y-75003494D01*
X111535758Y-75003499D01*
X111438740Y-75059512D01*
X111438735Y-75059516D01*
X111399125Y-75099126D01*
X111359515Y-75138737D01*
X111359513Y-75138739D01*
X110497751Y-76000500D01*
X110221014Y-76277237D01*
X110215595Y-76282656D01*
X110153283Y-76316682D01*
X110082468Y-76311617D01*
X110025632Y-76269070D01*
X110000821Y-76202550D01*
X110000500Y-76193561D01*
X110000500Y-72126500D01*
X110020502Y-72058379D01*
X110074158Y-72011886D01*
X110126500Y-72000500D01*
X124470234Y-72000500D01*
X124538355Y-72020502D01*
G37*
%TD.AperFunction*%
%TD*%
M02*
