%TF.GenerationSoftware,KiCad,Pcbnew,9.0.0*%
%TF.CreationDate,2025-12-16T10:10:06+01:00*%
%TF.ProjectId,DetectorReader,44657465-6374-46f7-9252-65616465722e,rev?*%
%TF.SameCoordinates,Original*%
%TF.FileFunction,Legend,Top*%
%TF.FilePolarity,Positive*%
%FSLAX46Y46*%
G04 Gerber Fmt 4.6, Leading zero omitted, Abs format (unit mm)*
G04 Created by KiCad (PCBNEW 9.0.0) date 2025-12-16 10:10:06*
%MOMM*%
%LPD*%
G01*
G04 APERTURE LIST*
G04 Aperture macros list*
%AMRoundRect*
0 Rectangle with rounded corners*
0 $1 Rounding radius*
0 $2 $3 $4 $5 $6 $7 $8 $9 X,Y pos of 4 corners*
0 Add a 4 corners polygon primitive as box body*
4,1,4,$2,$3,$4,$5,$6,$7,$8,$9,$2,$3,0*
0 Add four circle primitives for the rounded corners*
1,1,$1+$1,$2,$3*
1,1,$1+$1,$4,$5*
1,1,$1+$1,$6,$7*
1,1,$1+$1,$8,$9*
0 Add four rect primitives between the rounded corners*
20,1,$1+$1,$2,$3,$4,$5,0*
20,1,$1+$1,$4,$5,$6,$7,0*
20,1,$1+$1,$6,$7,$8,$9,0*
20,1,$1+$1,$8,$9,$2,$3,0*%
%AMFreePoly0*
4,1,13,1.650000,1.015000,3.020000,1.015000,3.020000,-1.015000,1.650000,-1.015000,1.650000,-2.385000,-1.650000,-2.385000,-1.650000,-1.015000,-3.020000,-1.015000,-3.020000,1.015000,-1.650000,1.015000,-1.650000,2.385000,1.650000,2.385000,1.650000,1.015000,1.650000,1.015000,$1*%
G04 Aperture macros list end*
%ADD10C,0.150000*%
%ADD11C,0.125000*%
%ADD12C,0.200000*%
%ADD13C,0.100000*%
%ADD14C,0.120000*%
%ADD15RoundRect,0.225000X-0.250000X0.225000X-0.250000X-0.225000X0.250000X-0.225000X0.250000X0.225000X0*%
%ADD16RoundRect,0.225000X0.225000X0.250000X-0.225000X0.250000X-0.225000X-0.250000X0.225000X-0.250000X0*%
%ADD17RoundRect,0.200000X0.200000X0.275000X-0.200000X0.275000X-0.200000X-0.275000X0.200000X-0.275000X0*%
%ADD18RoundRect,0.100000X0.712500X0.100000X-0.712500X0.100000X-0.712500X-0.100000X0.712500X-0.100000X0*%
%ADD19RoundRect,0.218750X-0.256250X0.218750X-0.256250X-0.218750X0.256250X-0.218750X0.256250X0.218750X0*%
%ADD20C,1.700000*%
%ADD21RoundRect,0.225000X0.250000X-0.225000X0.250000X0.225000X-0.250000X0.225000X-0.250000X-0.225000X0*%
%ADD22RoundRect,0.200000X-0.275000X0.200000X-0.275000X-0.200000X0.275000X-0.200000X0.275000X0.200000X0*%
%ADD23RoundRect,0.225000X-0.225000X-0.250000X0.225000X-0.250000X0.225000X0.250000X-0.225000X0.250000X0*%
%ADD24RoundRect,0.150000X-0.512500X-0.150000X0.512500X-0.150000X0.512500X0.150000X-0.512500X0.150000X0*%
%ADD25RoundRect,0.100000X0.637500X0.100000X-0.637500X0.100000X-0.637500X-0.100000X0.637500X-0.100000X0*%
%ADD26R,0.800000X1.200000*%
%ADD27R,1.700000X1.700000*%
%ADD28O,1.700000X1.700000*%
%ADD29C,3.200000*%
%ADD30RoundRect,0.200000X-0.200000X-0.275000X0.200000X-0.275000X0.200000X0.275000X-0.200000X0.275000X0*%
%ADD31R,1.600000X1.600000*%
%ADD32FreePoly0,0.000000*%
%ADD33C,0.650000*%
%ADD34RoundRect,0.150000X-0.425000X0.150000X-0.425000X-0.150000X0.425000X-0.150000X0.425000X0.150000X0*%
%ADD35RoundRect,0.075000X-0.500000X0.075000X-0.500000X-0.075000X0.500000X-0.075000X0.500000X0.075000X0*%
%ADD36O,2.100000X1.000000*%
%ADD37O,1.800000X1.000000*%
%ADD38RoundRect,0.200000X0.275000X-0.200000X0.275000X0.200000X-0.275000X0.200000X-0.275000X-0.200000X0*%
%ADD39RoundRect,0.150000X-0.825000X-0.150000X0.825000X-0.150000X0.825000X0.150000X-0.825000X0.150000X0*%
%ADD40RoundRect,0.062500X-0.062500X0.350000X-0.062500X-0.350000X0.062500X-0.350000X0.062500X0.350000X0*%
%ADD41RoundRect,0.062500X-0.350000X0.062500X-0.350000X-0.062500X0.350000X-0.062500X0.350000X0.062500X0*%
%ADD42R,2.500000X2.500000*%
%ADD43RoundRect,0.250000X1.350000X-0.385000X1.350000X0.385000X-1.350000X0.385000X-1.350000X-0.385000X0*%
%ADD44RoundRect,0.250000X1.600000X-0.425000X1.600000X0.425000X-1.600000X0.425000X-1.600000X-0.425000X0*%
%ADD45RoundRect,0.218750X-0.218750X-0.256250X0.218750X-0.256250X0.218750X0.256250X-0.218750X0.256250X0*%
%ADD46RoundRect,0.075000X0.650000X0.075000X-0.650000X0.075000X-0.650000X-0.075000X0.650000X-0.075000X0*%
%ADD47RoundRect,0.112500X-0.237500X0.112500X-0.237500X-0.112500X0.237500X-0.112500X0.237500X0.112500X0*%
%ADD48RoundRect,0.150000X0.150000X-0.587500X0.150000X0.587500X-0.150000X0.587500X-0.150000X-0.587500X0*%
%ADD49R,0.900000X0.800000*%
G04 APERTURE END LIST*
D10*
X113400000Y-93000000D02*
X113400000Y-94000000D01*
X113400000Y-93500000D02*
X114400000Y-93500000D01*
D11*
X159885807Y-74371119D02*
X159611997Y-73894928D01*
X159314378Y-74371119D02*
X159439378Y-73371119D01*
X159439378Y-73371119D02*
X159820331Y-73371119D01*
X159820331Y-73371119D02*
X159909616Y-73418738D01*
X159909616Y-73418738D02*
X159951283Y-73466357D01*
X159951283Y-73466357D02*
X159986997Y-73561595D01*
X159986997Y-73561595D02*
X159969140Y-73704452D01*
X159969140Y-73704452D02*
X159909616Y-73799690D01*
X159909616Y-73799690D02*
X159856045Y-73847309D01*
X159856045Y-73847309D02*
X159754855Y-73894928D01*
X159754855Y-73894928D02*
X159373902Y-73894928D01*
X160701283Y-74323500D02*
X160600093Y-74371119D01*
X160600093Y-74371119D02*
X160409616Y-74371119D01*
X160409616Y-74371119D02*
X160320331Y-74323500D01*
X160320331Y-74323500D02*
X160284616Y-74228261D01*
X160284616Y-74228261D02*
X160332236Y-73847309D01*
X160332236Y-73847309D02*
X160391759Y-73752071D01*
X160391759Y-73752071D02*
X160492950Y-73704452D01*
X160492950Y-73704452D02*
X160683426Y-73704452D01*
X160683426Y-73704452D02*
X160772712Y-73752071D01*
X160772712Y-73752071D02*
X160808426Y-73847309D01*
X160808426Y-73847309D02*
X160796521Y-73942547D01*
X160796521Y-73942547D02*
X160308426Y-74037785D01*
X161159617Y-73704452D02*
X161314379Y-74371119D01*
X161314379Y-74371119D02*
X161635807Y-73704452D01*
X162760808Y-73466357D02*
X162814379Y-73418738D01*
X162814379Y-73418738D02*
X162915569Y-73371119D01*
X162915569Y-73371119D02*
X163153665Y-73371119D01*
X163153665Y-73371119D02*
X163242950Y-73418738D01*
X163242950Y-73418738D02*
X163284617Y-73466357D01*
X163284617Y-73466357D02*
X163320331Y-73561595D01*
X163320331Y-73561595D02*
X163308427Y-73656833D01*
X163308427Y-73656833D02*
X163242950Y-73799690D01*
X163242950Y-73799690D02*
X162600093Y-74371119D01*
X162600093Y-74371119D02*
X163219141Y-74371119D01*
D10*
X114137704Y-87947619D02*
X114137704Y-88404762D01*
X113337704Y-88176190D02*
X114137704Y-88176190D01*
X113337704Y-88595238D02*
X113871038Y-89014286D01*
X113871038Y-88595238D02*
X113337704Y-89014286D01*
X114137704Y-94780953D02*
X113490085Y-94780953D01*
X113490085Y-94780953D02*
X113413895Y-94819048D01*
X113413895Y-94819048D02*
X113375800Y-94857143D01*
X113375800Y-94857143D02*
X113337704Y-94933334D01*
X113337704Y-94933334D02*
X113337704Y-95085715D01*
X113337704Y-95085715D02*
X113375800Y-95161905D01*
X113375800Y-95161905D02*
X113413895Y-95200000D01*
X113413895Y-95200000D02*
X113490085Y-95238096D01*
X113490085Y-95238096D02*
X114137704Y-95238096D01*
X113337704Y-95619048D02*
X114137704Y-95619048D01*
X114137704Y-95619048D02*
X114137704Y-95923810D01*
X114137704Y-95923810D02*
X114099609Y-96000000D01*
X114099609Y-96000000D02*
X114061514Y-96038095D01*
X114061514Y-96038095D02*
X113985323Y-96076191D01*
X113985323Y-96076191D02*
X113871038Y-96076191D01*
X113871038Y-96076191D02*
X113794847Y-96038095D01*
X113794847Y-96038095D02*
X113756752Y-96000000D01*
X113756752Y-96000000D02*
X113718657Y-95923810D01*
X113718657Y-95923810D02*
X113718657Y-95619048D01*
X113337704Y-96419048D02*
X114137704Y-96419048D01*
X114137704Y-96419048D02*
X114137704Y-96609524D01*
X114137704Y-96609524D02*
X114099609Y-96723810D01*
X114099609Y-96723810D02*
X114023419Y-96800000D01*
X114023419Y-96800000D02*
X113947228Y-96838095D01*
X113947228Y-96838095D02*
X113794847Y-96876191D01*
X113794847Y-96876191D02*
X113680561Y-96876191D01*
X113680561Y-96876191D02*
X113528180Y-96838095D01*
X113528180Y-96838095D02*
X113451990Y-96800000D01*
X113451990Y-96800000D02*
X113375800Y-96723810D01*
X113375800Y-96723810D02*
X113337704Y-96609524D01*
X113337704Y-96609524D02*
X113337704Y-96419048D01*
X113337704Y-97219048D02*
X114137704Y-97219048D01*
D12*
X146363720Y-74367219D02*
X146488720Y-73367219D01*
X146488720Y-73367219D02*
X146726816Y-73367219D01*
X146726816Y-73367219D02*
X146863720Y-73414838D01*
X146863720Y-73414838D02*
X146947054Y-73510076D01*
X146947054Y-73510076D02*
X146982768Y-73605314D01*
X146982768Y-73605314D02*
X147006578Y-73795790D01*
X147006578Y-73795790D02*
X146988720Y-73938647D01*
X146988720Y-73938647D02*
X146917292Y-74129123D01*
X146917292Y-74129123D02*
X146857768Y-74224361D01*
X146857768Y-74224361D02*
X146750625Y-74319600D01*
X146750625Y-74319600D02*
X146601816Y-74367219D01*
X146601816Y-74367219D02*
X146363720Y-74367219D01*
X147750625Y-74319600D02*
X147649435Y-74367219D01*
X147649435Y-74367219D02*
X147458958Y-74367219D01*
X147458958Y-74367219D02*
X147369673Y-74319600D01*
X147369673Y-74319600D02*
X147333958Y-74224361D01*
X147333958Y-74224361D02*
X147381578Y-73843409D01*
X147381578Y-73843409D02*
X147441101Y-73748171D01*
X147441101Y-73748171D02*
X147542292Y-73700552D01*
X147542292Y-73700552D02*
X147732768Y-73700552D01*
X147732768Y-73700552D02*
X147822054Y-73748171D01*
X147822054Y-73748171D02*
X147857768Y-73843409D01*
X147857768Y-73843409D02*
X147845863Y-73938647D01*
X147845863Y-73938647D02*
X147357768Y-74033885D01*
X148161340Y-73700552D02*
X148542292Y-73700552D01*
X148345863Y-73367219D02*
X148238721Y-74224361D01*
X148238721Y-74224361D02*
X148274435Y-74319600D01*
X148274435Y-74319600D02*
X148363721Y-74367219D01*
X148363721Y-74367219D02*
X148458959Y-74367219D01*
X149179197Y-74319600D02*
X149078007Y-74367219D01*
X149078007Y-74367219D02*
X148887530Y-74367219D01*
X148887530Y-74367219D02*
X148798245Y-74319600D01*
X148798245Y-74319600D02*
X148762530Y-74224361D01*
X148762530Y-74224361D02*
X148810150Y-73843409D01*
X148810150Y-73843409D02*
X148869673Y-73748171D01*
X148869673Y-73748171D02*
X148970864Y-73700552D01*
X148970864Y-73700552D02*
X149161340Y-73700552D01*
X149161340Y-73700552D02*
X149250626Y-73748171D01*
X149250626Y-73748171D02*
X149286340Y-73843409D01*
X149286340Y-73843409D02*
X149274435Y-73938647D01*
X149274435Y-73938647D02*
X148786340Y-74033885D01*
X150083959Y-74319600D02*
X149982769Y-74367219D01*
X149982769Y-74367219D02*
X149792293Y-74367219D01*
X149792293Y-74367219D02*
X149703007Y-74319600D01*
X149703007Y-74319600D02*
X149661340Y-74271980D01*
X149661340Y-74271980D02*
X149625626Y-74176742D01*
X149625626Y-74176742D02*
X149661340Y-73891028D01*
X149661340Y-73891028D02*
X149720864Y-73795790D01*
X149720864Y-73795790D02*
X149774435Y-73748171D01*
X149774435Y-73748171D02*
X149875626Y-73700552D01*
X149875626Y-73700552D02*
X150066102Y-73700552D01*
X150066102Y-73700552D02*
X150155388Y-73748171D01*
X150447055Y-73700552D02*
X150828007Y-73700552D01*
X150631578Y-73367219D02*
X150524436Y-74224361D01*
X150524436Y-74224361D02*
X150560150Y-74319600D01*
X150560150Y-74319600D02*
X150649436Y-74367219D01*
X150649436Y-74367219D02*
X150744674Y-74367219D01*
X151220865Y-74367219D02*
X151131579Y-74319600D01*
X151131579Y-74319600D02*
X151089912Y-74271980D01*
X151089912Y-74271980D02*
X151054198Y-74176742D01*
X151054198Y-74176742D02*
X151089912Y-73891028D01*
X151089912Y-73891028D02*
X151149436Y-73795790D01*
X151149436Y-73795790D02*
X151203007Y-73748171D01*
X151203007Y-73748171D02*
X151304198Y-73700552D01*
X151304198Y-73700552D02*
X151447055Y-73700552D01*
X151447055Y-73700552D02*
X151536341Y-73748171D01*
X151536341Y-73748171D02*
X151578007Y-73795790D01*
X151578007Y-73795790D02*
X151613722Y-73891028D01*
X151613722Y-73891028D02*
X151578007Y-74176742D01*
X151578007Y-74176742D02*
X151518484Y-74271980D01*
X151518484Y-74271980D02*
X151464912Y-74319600D01*
X151464912Y-74319600D02*
X151363722Y-74367219D01*
X151363722Y-74367219D02*
X151220865Y-74367219D01*
X151982769Y-74367219D02*
X152066103Y-73700552D01*
X152042293Y-73891028D02*
X152101817Y-73795790D01*
X152101817Y-73795790D02*
X152155388Y-73748171D01*
X152155388Y-73748171D02*
X152256579Y-73700552D01*
X152256579Y-73700552D02*
X152351817Y-73700552D01*
X153173246Y-74367219D02*
X152899436Y-73891028D01*
X152601817Y-74367219D02*
X152726817Y-73367219D01*
X152726817Y-73367219D02*
X153107770Y-73367219D01*
X153107770Y-73367219D02*
X153197055Y-73414838D01*
X153197055Y-73414838D02*
X153238722Y-73462457D01*
X153238722Y-73462457D02*
X153274436Y-73557695D01*
X153274436Y-73557695D02*
X153256579Y-73700552D01*
X153256579Y-73700552D02*
X153197055Y-73795790D01*
X153197055Y-73795790D02*
X153143484Y-73843409D01*
X153143484Y-73843409D02*
X153042294Y-73891028D01*
X153042294Y-73891028D02*
X152661341Y-73891028D01*
X153988722Y-74319600D02*
X153887532Y-74367219D01*
X153887532Y-74367219D02*
X153697055Y-74367219D01*
X153697055Y-74367219D02*
X153607770Y-74319600D01*
X153607770Y-74319600D02*
X153572055Y-74224361D01*
X153572055Y-74224361D02*
X153619675Y-73843409D01*
X153619675Y-73843409D02*
X153679198Y-73748171D01*
X153679198Y-73748171D02*
X153780389Y-73700552D01*
X153780389Y-73700552D02*
X153970865Y-73700552D01*
X153970865Y-73700552D02*
X154060151Y-73748171D01*
X154060151Y-73748171D02*
X154095865Y-73843409D01*
X154095865Y-73843409D02*
X154083960Y-73938647D01*
X154083960Y-73938647D02*
X153595865Y-74033885D01*
X154887532Y-74367219D02*
X154953008Y-73843409D01*
X154953008Y-73843409D02*
X154917294Y-73748171D01*
X154917294Y-73748171D02*
X154828008Y-73700552D01*
X154828008Y-73700552D02*
X154637532Y-73700552D01*
X154637532Y-73700552D02*
X154536341Y-73748171D01*
X154893484Y-74319600D02*
X154792294Y-74367219D01*
X154792294Y-74367219D02*
X154554198Y-74367219D01*
X154554198Y-74367219D02*
X154464913Y-74319600D01*
X154464913Y-74319600D02*
X154429198Y-74224361D01*
X154429198Y-74224361D02*
X154441103Y-74129123D01*
X154441103Y-74129123D02*
X154500627Y-74033885D01*
X154500627Y-74033885D02*
X154601818Y-73986266D01*
X154601818Y-73986266D02*
X154839913Y-73986266D01*
X154839913Y-73986266D02*
X154941103Y-73938647D01*
X155792294Y-74367219D02*
X155917294Y-73367219D01*
X155798246Y-74319600D02*
X155697056Y-74367219D01*
X155697056Y-74367219D02*
X155506580Y-74367219D01*
X155506580Y-74367219D02*
X155417294Y-74319600D01*
X155417294Y-74319600D02*
X155375627Y-74271980D01*
X155375627Y-74271980D02*
X155339913Y-74176742D01*
X155339913Y-74176742D02*
X155375627Y-73891028D01*
X155375627Y-73891028D02*
X155435151Y-73795790D01*
X155435151Y-73795790D02*
X155488722Y-73748171D01*
X155488722Y-73748171D02*
X155589913Y-73700552D01*
X155589913Y-73700552D02*
X155780389Y-73700552D01*
X155780389Y-73700552D02*
X155869675Y-73748171D01*
X156655389Y-74319600D02*
X156554199Y-74367219D01*
X156554199Y-74367219D02*
X156363722Y-74367219D01*
X156363722Y-74367219D02*
X156274437Y-74319600D01*
X156274437Y-74319600D02*
X156238722Y-74224361D01*
X156238722Y-74224361D02*
X156286342Y-73843409D01*
X156286342Y-73843409D02*
X156345865Y-73748171D01*
X156345865Y-73748171D02*
X156447056Y-73700552D01*
X156447056Y-73700552D02*
X156637532Y-73700552D01*
X156637532Y-73700552D02*
X156726818Y-73748171D01*
X156726818Y-73748171D02*
X156762532Y-73843409D01*
X156762532Y-73843409D02*
X156750627Y-73938647D01*
X156750627Y-73938647D02*
X156262532Y-74033885D01*
X157125627Y-74367219D02*
X157208961Y-73700552D01*
X157185151Y-73891028D02*
X157244675Y-73795790D01*
X157244675Y-73795790D02*
X157298246Y-73748171D01*
X157298246Y-73748171D02*
X157399437Y-73700552D01*
X157399437Y-73700552D02*
X157494675Y-73700552D01*
D10*
X114137704Y-90847619D02*
X114137704Y-90466667D01*
X114137704Y-90466667D02*
X113756752Y-90428571D01*
X113756752Y-90428571D02*
X113794847Y-90466667D01*
X113794847Y-90466667D02*
X113832942Y-90542857D01*
X113832942Y-90542857D02*
X113832942Y-90733333D01*
X113832942Y-90733333D02*
X113794847Y-90809524D01*
X113794847Y-90809524D02*
X113756752Y-90847619D01*
X113756752Y-90847619D02*
X113680561Y-90885714D01*
X113680561Y-90885714D02*
X113490085Y-90885714D01*
X113490085Y-90885714D02*
X113413895Y-90847619D01*
X113413895Y-90847619D02*
X113375800Y-90809524D01*
X113375800Y-90809524D02*
X113337704Y-90733333D01*
X113337704Y-90733333D02*
X113337704Y-90542857D01*
X113337704Y-90542857D02*
X113375800Y-90466667D01*
X113375800Y-90466667D02*
X113413895Y-90428571D01*
X114137704Y-91114286D02*
X113337704Y-91380953D01*
X113337704Y-91380953D02*
X114137704Y-91647619D01*
X113337704Y-85923810D02*
X113718657Y-85657143D01*
X113337704Y-85466667D02*
X114137704Y-85466667D01*
X114137704Y-85466667D02*
X114137704Y-85771429D01*
X114137704Y-85771429D02*
X114099609Y-85847619D01*
X114099609Y-85847619D02*
X114061514Y-85885714D01*
X114061514Y-85885714D02*
X113985323Y-85923810D01*
X113985323Y-85923810D02*
X113871038Y-85923810D01*
X113871038Y-85923810D02*
X113794847Y-85885714D01*
X113794847Y-85885714D02*
X113756752Y-85847619D01*
X113756752Y-85847619D02*
X113718657Y-85771429D01*
X113718657Y-85771429D02*
X113718657Y-85466667D01*
X113337704Y-86190476D02*
X113871038Y-86609524D01*
X113871038Y-86190476D02*
X113337704Y-86609524D01*
D13*
X140115228Y-73385714D02*
X140143800Y-73414286D01*
X140143800Y-73414286D02*
X140172371Y-73500000D01*
X140172371Y-73500000D02*
X140172371Y-73557143D01*
X140172371Y-73557143D02*
X140143800Y-73642857D01*
X140143800Y-73642857D02*
X140086657Y-73700000D01*
X140086657Y-73700000D02*
X140029514Y-73728571D01*
X140029514Y-73728571D02*
X139915228Y-73757143D01*
X139915228Y-73757143D02*
X139829514Y-73757143D01*
X139829514Y-73757143D02*
X139715228Y-73728571D01*
X139715228Y-73728571D02*
X139658085Y-73700000D01*
X139658085Y-73700000D02*
X139600942Y-73642857D01*
X139600942Y-73642857D02*
X139572371Y-73557143D01*
X139572371Y-73557143D02*
X139572371Y-73500000D01*
X139572371Y-73500000D02*
X139600942Y-73414286D01*
X139600942Y-73414286D02*
X139629514Y-73385714D01*
X140172371Y-72814286D02*
X140172371Y-73157143D01*
X140172371Y-72985714D02*
X139572371Y-72985714D01*
X139572371Y-72985714D02*
X139658085Y-73042857D01*
X139658085Y-73042857D02*
X139715228Y-73100000D01*
X139715228Y-73100000D02*
X139743800Y-73157143D01*
X139572371Y-72442857D02*
X139572371Y-72385714D01*
X139572371Y-72385714D02*
X139600942Y-72328571D01*
X139600942Y-72328571D02*
X139629514Y-72300000D01*
X139629514Y-72300000D02*
X139686657Y-72271428D01*
X139686657Y-72271428D02*
X139800942Y-72242857D01*
X139800942Y-72242857D02*
X139943800Y-72242857D01*
X139943800Y-72242857D02*
X140058085Y-72271428D01*
X140058085Y-72271428D02*
X140115228Y-72300000D01*
X140115228Y-72300000D02*
X140143800Y-72328571D01*
X140143800Y-72328571D02*
X140172371Y-72385714D01*
X140172371Y-72385714D02*
X140172371Y-72442857D01*
X140172371Y-72442857D02*
X140143800Y-72500000D01*
X140143800Y-72500000D02*
X140115228Y-72528571D01*
X140115228Y-72528571D02*
X140058085Y-72557142D01*
X140058085Y-72557142D02*
X139943800Y-72585714D01*
X139943800Y-72585714D02*
X139800942Y-72585714D01*
X139800942Y-72585714D02*
X139686657Y-72557142D01*
X139686657Y-72557142D02*
X139629514Y-72528571D01*
X139629514Y-72528571D02*
X139600942Y-72500000D01*
X139600942Y-72500000D02*
X139572371Y-72442857D01*
X134289285Y-88015228D02*
X134260713Y-88043800D01*
X134260713Y-88043800D02*
X134174999Y-88072371D01*
X134174999Y-88072371D02*
X134117856Y-88072371D01*
X134117856Y-88072371D02*
X134032142Y-88043800D01*
X134032142Y-88043800D02*
X133974999Y-87986657D01*
X133974999Y-87986657D02*
X133946428Y-87929514D01*
X133946428Y-87929514D02*
X133917856Y-87815228D01*
X133917856Y-87815228D02*
X133917856Y-87729514D01*
X133917856Y-87729514D02*
X133946428Y-87615228D01*
X133946428Y-87615228D02*
X133974999Y-87558085D01*
X133974999Y-87558085D02*
X134032142Y-87500942D01*
X134032142Y-87500942D02*
X134117856Y-87472371D01*
X134117856Y-87472371D02*
X134174999Y-87472371D01*
X134174999Y-87472371D02*
X134260713Y-87500942D01*
X134260713Y-87500942D02*
X134289285Y-87529514D01*
X134860713Y-88072371D02*
X134517856Y-88072371D01*
X134689285Y-88072371D02*
X134689285Y-87472371D01*
X134689285Y-87472371D02*
X134632142Y-87558085D01*
X134632142Y-87558085D02*
X134574999Y-87615228D01*
X134574999Y-87615228D02*
X134517856Y-87643800D01*
X135375000Y-87672371D02*
X135375000Y-88072371D01*
X135232142Y-87443800D02*
X135089285Y-87872371D01*
X135089285Y-87872371D02*
X135460714Y-87872371D01*
X142714285Y-87022371D02*
X142514285Y-86736657D01*
X142371428Y-87022371D02*
X142371428Y-86422371D01*
X142371428Y-86422371D02*
X142599999Y-86422371D01*
X142599999Y-86422371D02*
X142657142Y-86450942D01*
X142657142Y-86450942D02*
X142685713Y-86479514D01*
X142685713Y-86479514D02*
X142714285Y-86536657D01*
X142714285Y-86536657D02*
X142714285Y-86622371D01*
X142714285Y-86622371D02*
X142685713Y-86679514D01*
X142685713Y-86679514D02*
X142657142Y-86708085D01*
X142657142Y-86708085D02*
X142599999Y-86736657D01*
X142599999Y-86736657D02*
X142371428Y-86736657D01*
X143285713Y-87022371D02*
X142942856Y-87022371D01*
X143114285Y-87022371D02*
X143114285Y-86422371D01*
X143114285Y-86422371D02*
X143057142Y-86508085D01*
X143057142Y-86508085D02*
X142999999Y-86565228D01*
X142999999Y-86565228D02*
X142942856Y-86593800D01*
X143657142Y-86422371D02*
X143714285Y-86422371D01*
X143714285Y-86422371D02*
X143771428Y-86450942D01*
X143771428Y-86450942D02*
X143800000Y-86479514D01*
X143800000Y-86479514D02*
X143828571Y-86536657D01*
X143828571Y-86536657D02*
X143857142Y-86650942D01*
X143857142Y-86650942D02*
X143857142Y-86793800D01*
X143857142Y-86793800D02*
X143828571Y-86908085D01*
X143828571Y-86908085D02*
X143800000Y-86965228D01*
X143800000Y-86965228D02*
X143771428Y-86993800D01*
X143771428Y-86993800D02*
X143714285Y-87022371D01*
X143714285Y-87022371D02*
X143657142Y-87022371D01*
X143657142Y-87022371D02*
X143600000Y-86993800D01*
X143600000Y-86993800D02*
X143571428Y-86965228D01*
X143571428Y-86965228D02*
X143542857Y-86908085D01*
X143542857Y-86908085D02*
X143514285Y-86793800D01*
X143514285Y-86793800D02*
X143514285Y-86650942D01*
X143514285Y-86650942D02*
X143542857Y-86536657D01*
X143542857Y-86536657D02*
X143571428Y-86479514D01*
X143571428Y-86479514D02*
X143600000Y-86450942D01*
X143600000Y-86450942D02*
X143657142Y-86422371D01*
X157955357Y-94372371D02*
X157955357Y-94858085D01*
X157955357Y-94858085D02*
X157983928Y-94915228D01*
X157983928Y-94915228D02*
X158012500Y-94943800D01*
X158012500Y-94943800D02*
X158069642Y-94972371D01*
X158069642Y-94972371D02*
X158183928Y-94972371D01*
X158183928Y-94972371D02*
X158241071Y-94943800D01*
X158241071Y-94943800D02*
X158269642Y-94915228D01*
X158269642Y-94915228D02*
X158298214Y-94858085D01*
X158298214Y-94858085D02*
X158298214Y-94372371D01*
X158526785Y-94372371D02*
X158926785Y-94372371D01*
X158926785Y-94372371D02*
X158669642Y-94972371D01*
X127262500Y-79715228D02*
X127233928Y-79743800D01*
X127233928Y-79743800D02*
X127148214Y-79772371D01*
X127148214Y-79772371D02*
X127091071Y-79772371D01*
X127091071Y-79772371D02*
X127005357Y-79743800D01*
X127005357Y-79743800D02*
X126948214Y-79686657D01*
X126948214Y-79686657D02*
X126919643Y-79629514D01*
X126919643Y-79629514D02*
X126891071Y-79515228D01*
X126891071Y-79515228D02*
X126891071Y-79429514D01*
X126891071Y-79429514D02*
X126919643Y-79315228D01*
X126919643Y-79315228D02*
X126948214Y-79258085D01*
X126948214Y-79258085D02*
X127005357Y-79200942D01*
X127005357Y-79200942D02*
X127091071Y-79172371D01*
X127091071Y-79172371D02*
X127148214Y-79172371D01*
X127148214Y-79172371D02*
X127233928Y-79200942D01*
X127233928Y-79200942D02*
X127262500Y-79229514D01*
X127491071Y-79229514D02*
X127519643Y-79200942D01*
X127519643Y-79200942D02*
X127576786Y-79172371D01*
X127576786Y-79172371D02*
X127719643Y-79172371D01*
X127719643Y-79172371D02*
X127776786Y-79200942D01*
X127776786Y-79200942D02*
X127805357Y-79229514D01*
X127805357Y-79229514D02*
X127833928Y-79286657D01*
X127833928Y-79286657D02*
X127833928Y-79343800D01*
X127833928Y-79343800D02*
X127805357Y-79429514D01*
X127805357Y-79429514D02*
X127462500Y-79772371D01*
X127462500Y-79772371D02*
X127833928Y-79772371D01*
X132972371Y-84499999D02*
X132972371Y-84785713D01*
X132972371Y-84785713D02*
X132372371Y-84785713D01*
X132372371Y-84014285D02*
X132372371Y-84299999D01*
X132372371Y-84299999D02*
X132658085Y-84328571D01*
X132658085Y-84328571D02*
X132629514Y-84299999D01*
X132629514Y-84299999D02*
X132600942Y-84242857D01*
X132600942Y-84242857D02*
X132600942Y-84099999D01*
X132600942Y-84099999D02*
X132629514Y-84042857D01*
X132629514Y-84042857D02*
X132658085Y-84014285D01*
X132658085Y-84014285D02*
X132715228Y-83985714D01*
X132715228Y-83985714D02*
X132858085Y-83985714D01*
X132858085Y-83985714D02*
X132915228Y-84014285D01*
X132915228Y-84014285D02*
X132943800Y-84042857D01*
X132943800Y-84042857D02*
X132972371Y-84099999D01*
X132972371Y-84099999D02*
X132972371Y-84242857D01*
X132972371Y-84242857D02*
X132943800Y-84299999D01*
X132943800Y-84299999D02*
X132915228Y-84328571D01*
D10*
X126552381Y-96286104D02*
X126514285Y-96324200D01*
X126514285Y-96324200D02*
X126400000Y-96362295D01*
X126400000Y-96362295D02*
X126323809Y-96362295D01*
X126323809Y-96362295D02*
X126209523Y-96324200D01*
X126209523Y-96324200D02*
X126133333Y-96248009D01*
X126133333Y-96248009D02*
X126095238Y-96171819D01*
X126095238Y-96171819D02*
X126057142Y-96019438D01*
X126057142Y-96019438D02*
X126057142Y-95905152D01*
X126057142Y-95905152D02*
X126095238Y-95752771D01*
X126095238Y-95752771D02*
X126133333Y-95676580D01*
X126133333Y-95676580D02*
X126209523Y-95600390D01*
X126209523Y-95600390D02*
X126323809Y-95562295D01*
X126323809Y-95562295D02*
X126400000Y-95562295D01*
X126400000Y-95562295D02*
X126514285Y-95600390D01*
X126514285Y-95600390D02*
X126552381Y-95638485D01*
X126895238Y-96362295D02*
X126895238Y-95828961D01*
X126895238Y-95905152D02*
X126933333Y-95867057D01*
X126933333Y-95867057D02*
X127009523Y-95828961D01*
X127009523Y-95828961D02*
X127123809Y-95828961D01*
X127123809Y-95828961D02*
X127200000Y-95867057D01*
X127200000Y-95867057D02*
X127238095Y-95943247D01*
X127238095Y-95943247D02*
X127238095Y-96362295D01*
X127238095Y-95943247D02*
X127276190Y-95867057D01*
X127276190Y-95867057D02*
X127352381Y-95828961D01*
X127352381Y-95828961D02*
X127466666Y-95828961D01*
X127466666Y-95828961D02*
X127542857Y-95867057D01*
X127542857Y-95867057D02*
X127580952Y-95943247D01*
X127580952Y-95943247D02*
X127580952Y-96362295D01*
X128304762Y-96362295D02*
X128304762Y-95562295D01*
X128304762Y-96324200D02*
X128228571Y-96362295D01*
X128228571Y-96362295D02*
X128076190Y-96362295D01*
X128076190Y-96362295D02*
X128000000Y-96324200D01*
X128000000Y-96324200D02*
X127961905Y-96286104D01*
X127961905Y-96286104D02*
X127923809Y-96209914D01*
X127923809Y-96209914D02*
X127923809Y-95981342D01*
X127923809Y-95981342D02*
X127961905Y-95905152D01*
X127961905Y-95905152D02*
X128000000Y-95867057D01*
X128000000Y-95867057D02*
X128076190Y-95828961D01*
X128076190Y-95828961D02*
X128228571Y-95828961D01*
X128228571Y-95828961D02*
X128304762Y-95867057D01*
D13*
X156827728Y-95785714D02*
X156856300Y-95814286D01*
X156856300Y-95814286D02*
X156884871Y-95900000D01*
X156884871Y-95900000D02*
X156884871Y-95957143D01*
X156884871Y-95957143D02*
X156856300Y-96042857D01*
X156856300Y-96042857D02*
X156799157Y-96100000D01*
X156799157Y-96100000D02*
X156742014Y-96128571D01*
X156742014Y-96128571D02*
X156627728Y-96157143D01*
X156627728Y-96157143D02*
X156542014Y-96157143D01*
X156542014Y-96157143D02*
X156427728Y-96128571D01*
X156427728Y-96128571D02*
X156370585Y-96100000D01*
X156370585Y-96100000D02*
X156313442Y-96042857D01*
X156313442Y-96042857D02*
X156284871Y-95957143D01*
X156284871Y-95957143D02*
X156284871Y-95900000D01*
X156284871Y-95900000D02*
X156313442Y-95814286D01*
X156313442Y-95814286D02*
X156342014Y-95785714D01*
X156884871Y-95214286D02*
X156884871Y-95557143D01*
X156884871Y-95385714D02*
X156284871Y-95385714D01*
X156284871Y-95385714D02*
X156370585Y-95442857D01*
X156370585Y-95442857D02*
X156427728Y-95500000D01*
X156427728Y-95500000D02*
X156456300Y-95557143D01*
X156284871Y-95014285D02*
X156284871Y-94614285D01*
X156284871Y-94614285D02*
X156884871Y-94871428D01*
X137372371Y-94849999D02*
X137086657Y-95049999D01*
X137372371Y-95192856D02*
X136772371Y-95192856D01*
X136772371Y-95192856D02*
X136772371Y-94964285D01*
X136772371Y-94964285D02*
X136800942Y-94907142D01*
X136800942Y-94907142D02*
X136829514Y-94878571D01*
X136829514Y-94878571D02*
X136886657Y-94849999D01*
X136886657Y-94849999D02*
X136972371Y-94849999D01*
X136972371Y-94849999D02*
X137029514Y-94878571D01*
X137029514Y-94878571D02*
X137058085Y-94907142D01*
X137058085Y-94907142D02*
X137086657Y-94964285D01*
X137086657Y-94964285D02*
X137086657Y-95192856D01*
X136772371Y-94649999D02*
X136772371Y-94249999D01*
X136772371Y-94249999D02*
X137372371Y-94507142D01*
X147915228Y-93035714D02*
X147943800Y-93064286D01*
X147943800Y-93064286D02*
X147972371Y-93150000D01*
X147972371Y-93150000D02*
X147972371Y-93207143D01*
X147972371Y-93207143D02*
X147943800Y-93292857D01*
X147943800Y-93292857D02*
X147886657Y-93350000D01*
X147886657Y-93350000D02*
X147829514Y-93378571D01*
X147829514Y-93378571D02*
X147715228Y-93407143D01*
X147715228Y-93407143D02*
X147629514Y-93407143D01*
X147629514Y-93407143D02*
X147515228Y-93378571D01*
X147515228Y-93378571D02*
X147458085Y-93350000D01*
X147458085Y-93350000D02*
X147400942Y-93292857D01*
X147400942Y-93292857D02*
X147372371Y-93207143D01*
X147372371Y-93207143D02*
X147372371Y-93150000D01*
X147372371Y-93150000D02*
X147400942Y-93064286D01*
X147400942Y-93064286D02*
X147429514Y-93035714D01*
X147972371Y-92464286D02*
X147972371Y-92807143D01*
X147972371Y-92635714D02*
X147372371Y-92635714D01*
X147372371Y-92635714D02*
X147458085Y-92692857D01*
X147458085Y-92692857D02*
X147515228Y-92750000D01*
X147515228Y-92750000D02*
X147543800Y-92807143D01*
X147629514Y-92121428D02*
X147600942Y-92178571D01*
X147600942Y-92178571D02*
X147572371Y-92207142D01*
X147572371Y-92207142D02*
X147515228Y-92235714D01*
X147515228Y-92235714D02*
X147486657Y-92235714D01*
X147486657Y-92235714D02*
X147429514Y-92207142D01*
X147429514Y-92207142D02*
X147400942Y-92178571D01*
X147400942Y-92178571D02*
X147372371Y-92121428D01*
X147372371Y-92121428D02*
X147372371Y-92007142D01*
X147372371Y-92007142D02*
X147400942Y-91950000D01*
X147400942Y-91950000D02*
X147429514Y-91921428D01*
X147429514Y-91921428D02*
X147486657Y-91892857D01*
X147486657Y-91892857D02*
X147515228Y-91892857D01*
X147515228Y-91892857D02*
X147572371Y-91921428D01*
X147572371Y-91921428D02*
X147600942Y-91950000D01*
X147600942Y-91950000D02*
X147629514Y-92007142D01*
X147629514Y-92007142D02*
X147629514Y-92121428D01*
X147629514Y-92121428D02*
X147658085Y-92178571D01*
X147658085Y-92178571D02*
X147686657Y-92207142D01*
X147686657Y-92207142D02*
X147743800Y-92235714D01*
X147743800Y-92235714D02*
X147858085Y-92235714D01*
X147858085Y-92235714D02*
X147915228Y-92207142D01*
X147915228Y-92207142D02*
X147943800Y-92178571D01*
X147943800Y-92178571D02*
X147972371Y-92121428D01*
X147972371Y-92121428D02*
X147972371Y-92007142D01*
X147972371Y-92007142D02*
X147943800Y-91950000D01*
X147943800Y-91950000D02*
X147915228Y-91921428D01*
X147915228Y-91921428D02*
X147858085Y-91892857D01*
X147858085Y-91892857D02*
X147743800Y-91892857D01*
X147743800Y-91892857D02*
X147686657Y-91921428D01*
X147686657Y-91921428D02*
X147658085Y-91950000D01*
X147658085Y-91950000D02*
X147629514Y-92007142D01*
X145114285Y-96615228D02*
X145085713Y-96643800D01*
X145085713Y-96643800D02*
X144999999Y-96672371D01*
X144999999Y-96672371D02*
X144942856Y-96672371D01*
X144942856Y-96672371D02*
X144857142Y-96643800D01*
X144857142Y-96643800D02*
X144799999Y-96586657D01*
X144799999Y-96586657D02*
X144771428Y-96529514D01*
X144771428Y-96529514D02*
X144742856Y-96415228D01*
X144742856Y-96415228D02*
X144742856Y-96329514D01*
X144742856Y-96329514D02*
X144771428Y-96215228D01*
X144771428Y-96215228D02*
X144799999Y-96158085D01*
X144799999Y-96158085D02*
X144857142Y-96100942D01*
X144857142Y-96100942D02*
X144942856Y-96072371D01*
X144942856Y-96072371D02*
X144999999Y-96072371D01*
X144999999Y-96072371D02*
X145085713Y-96100942D01*
X145085713Y-96100942D02*
X145114285Y-96129514D01*
X145685713Y-96672371D02*
X145342856Y-96672371D01*
X145514285Y-96672371D02*
X145514285Y-96072371D01*
X145514285Y-96072371D02*
X145457142Y-96158085D01*
X145457142Y-96158085D02*
X145399999Y-96215228D01*
X145399999Y-96215228D02*
X145342856Y-96243800D01*
X146200000Y-96072371D02*
X146085714Y-96072371D01*
X146085714Y-96072371D02*
X146028571Y-96100942D01*
X146028571Y-96100942D02*
X146000000Y-96129514D01*
X146000000Y-96129514D02*
X145942857Y-96215228D01*
X145942857Y-96215228D02*
X145914285Y-96329514D01*
X145914285Y-96329514D02*
X145914285Y-96558085D01*
X145914285Y-96558085D02*
X145942857Y-96615228D01*
X145942857Y-96615228D02*
X145971428Y-96643800D01*
X145971428Y-96643800D02*
X146028571Y-96672371D01*
X146028571Y-96672371D02*
X146142857Y-96672371D01*
X146142857Y-96672371D02*
X146200000Y-96643800D01*
X146200000Y-96643800D02*
X146228571Y-96615228D01*
X146228571Y-96615228D02*
X146257142Y-96558085D01*
X146257142Y-96558085D02*
X146257142Y-96415228D01*
X146257142Y-96415228D02*
X146228571Y-96358085D01*
X146228571Y-96358085D02*
X146200000Y-96329514D01*
X146200000Y-96329514D02*
X146142857Y-96300942D01*
X146142857Y-96300942D02*
X146028571Y-96300942D01*
X146028571Y-96300942D02*
X145971428Y-96329514D01*
X145971428Y-96329514D02*
X145942857Y-96358085D01*
X145942857Y-96358085D02*
X145914285Y-96415228D01*
X148272371Y-91249999D02*
X147986657Y-91449999D01*
X148272371Y-91592856D02*
X147672371Y-91592856D01*
X147672371Y-91592856D02*
X147672371Y-91364285D01*
X147672371Y-91364285D02*
X147700942Y-91307142D01*
X147700942Y-91307142D02*
X147729514Y-91278571D01*
X147729514Y-91278571D02*
X147786657Y-91249999D01*
X147786657Y-91249999D02*
X147872371Y-91249999D01*
X147872371Y-91249999D02*
X147929514Y-91278571D01*
X147929514Y-91278571D02*
X147958085Y-91307142D01*
X147958085Y-91307142D02*
X147986657Y-91364285D01*
X147986657Y-91364285D02*
X147986657Y-91592856D01*
X147672371Y-90707142D02*
X147672371Y-90992856D01*
X147672371Y-90992856D02*
X147958085Y-91021428D01*
X147958085Y-91021428D02*
X147929514Y-90992856D01*
X147929514Y-90992856D02*
X147900942Y-90935714D01*
X147900942Y-90935714D02*
X147900942Y-90792856D01*
X147900942Y-90792856D02*
X147929514Y-90735714D01*
X147929514Y-90735714D02*
X147958085Y-90707142D01*
X147958085Y-90707142D02*
X148015228Y-90678571D01*
X148015228Y-90678571D02*
X148158085Y-90678571D01*
X148158085Y-90678571D02*
X148215228Y-90707142D01*
X148215228Y-90707142D02*
X148243800Y-90735714D01*
X148243800Y-90735714D02*
X148272371Y-90792856D01*
X148272371Y-90792856D02*
X148272371Y-90935714D01*
X148272371Y-90935714D02*
X148243800Y-90992856D01*
X148243800Y-90992856D02*
X148215228Y-91021428D01*
X120115228Y-84299999D02*
X120143800Y-84328571D01*
X120143800Y-84328571D02*
X120172371Y-84414285D01*
X120172371Y-84414285D02*
X120172371Y-84471428D01*
X120172371Y-84471428D02*
X120143800Y-84557142D01*
X120143800Y-84557142D02*
X120086657Y-84614285D01*
X120086657Y-84614285D02*
X120029514Y-84642856D01*
X120029514Y-84642856D02*
X119915228Y-84671428D01*
X119915228Y-84671428D02*
X119829514Y-84671428D01*
X119829514Y-84671428D02*
X119715228Y-84642856D01*
X119715228Y-84642856D02*
X119658085Y-84614285D01*
X119658085Y-84614285D02*
X119600942Y-84557142D01*
X119600942Y-84557142D02*
X119572371Y-84471428D01*
X119572371Y-84471428D02*
X119572371Y-84414285D01*
X119572371Y-84414285D02*
X119600942Y-84328571D01*
X119600942Y-84328571D02*
X119629514Y-84299999D01*
X119572371Y-84099999D02*
X119572371Y-83728571D01*
X119572371Y-83728571D02*
X119800942Y-83928571D01*
X119800942Y-83928571D02*
X119800942Y-83842856D01*
X119800942Y-83842856D02*
X119829514Y-83785714D01*
X119829514Y-83785714D02*
X119858085Y-83757142D01*
X119858085Y-83757142D02*
X119915228Y-83728571D01*
X119915228Y-83728571D02*
X120058085Y-83728571D01*
X120058085Y-83728571D02*
X120115228Y-83757142D01*
X120115228Y-83757142D02*
X120143800Y-83785714D01*
X120143800Y-83785714D02*
X120172371Y-83842856D01*
X120172371Y-83842856D02*
X120172371Y-84014285D01*
X120172371Y-84014285D02*
X120143800Y-84071428D01*
X120143800Y-84071428D02*
X120115228Y-84099999D01*
X143215228Y-81360714D02*
X143243800Y-81389286D01*
X143243800Y-81389286D02*
X143272371Y-81475000D01*
X143272371Y-81475000D02*
X143272371Y-81532143D01*
X143272371Y-81532143D02*
X143243800Y-81617857D01*
X143243800Y-81617857D02*
X143186657Y-81675000D01*
X143186657Y-81675000D02*
X143129514Y-81703571D01*
X143129514Y-81703571D02*
X143015228Y-81732143D01*
X143015228Y-81732143D02*
X142929514Y-81732143D01*
X142929514Y-81732143D02*
X142815228Y-81703571D01*
X142815228Y-81703571D02*
X142758085Y-81675000D01*
X142758085Y-81675000D02*
X142700942Y-81617857D01*
X142700942Y-81617857D02*
X142672371Y-81532143D01*
X142672371Y-81532143D02*
X142672371Y-81475000D01*
X142672371Y-81475000D02*
X142700942Y-81389286D01*
X142700942Y-81389286D02*
X142729514Y-81360714D01*
X143272371Y-80789286D02*
X143272371Y-81132143D01*
X143272371Y-80960714D02*
X142672371Y-80960714D01*
X142672371Y-80960714D02*
X142758085Y-81017857D01*
X142758085Y-81017857D02*
X142815228Y-81075000D01*
X142815228Y-81075000D02*
X142843800Y-81132143D01*
X142729514Y-80560714D02*
X142700942Y-80532142D01*
X142700942Y-80532142D02*
X142672371Y-80475000D01*
X142672371Y-80475000D02*
X142672371Y-80332142D01*
X142672371Y-80332142D02*
X142700942Y-80275000D01*
X142700942Y-80275000D02*
X142729514Y-80246428D01*
X142729514Y-80246428D02*
X142786657Y-80217857D01*
X142786657Y-80217857D02*
X142843800Y-80217857D01*
X142843800Y-80217857D02*
X142929514Y-80246428D01*
X142929514Y-80246428D02*
X143272371Y-80589285D01*
X143272371Y-80589285D02*
X143272371Y-80217857D01*
X128405357Y-84322371D02*
X128405357Y-84808085D01*
X128405357Y-84808085D02*
X128433928Y-84865228D01*
X128433928Y-84865228D02*
X128462500Y-84893800D01*
X128462500Y-84893800D02*
X128519642Y-84922371D01*
X128519642Y-84922371D02*
X128633928Y-84922371D01*
X128633928Y-84922371D02*
X128691071Y-84893800D01*
X128691071Y-84893800D02*
X128719642Y-84865228D01*
X128719642Y-84865228D02*
X128748214Y-84808085D01*
X128748214Y-84808085D02*
X128748214Y-84322371D01*
X128976785Y-84322371D02*
X129348213Y-84322371D01*
X129348213Y-84322371D02*
X129148213Y-84550942D01*
X129148213Y-84550942D02*
X129233928Y-84550942D01*
X129233928Y-84550942D02*
X129291071Y-84579514D01*
X129291071Y-84579514D02*
X129319642Y-84608085D01*
X129319642Y-84608085D02*
X129348213Y-84665228D01*
X129348213Y-84665228D02*
X129348213Y-84808085D01*
X129348213Y-84808085D02*
X129319642Y-84865228D01*
X129319642Y-84865228D02*
X129291071Y-84893800D01*
X129291071Y-84893800D02*
X129233928Y-84922371D01*
X129233928Y-84922371D02*
X129062499Y-84922371D01*
X129062499Y-84922371D02*
X129005356Y-84893800D01*
X129005356Y-84893800D02*
X128976785Y-84865228D01*
X140042857Y-95922371D02*
X140042857Y-96408085D01*
X140042857Y-96408085D02*
X140071428Y-96465228D01*
X140071428Y-96465228D02*
X140100000Y-96493800D01*
X140100000Y-96493800D02*
X140157142Y-96522371D01*
X140157142Y-96522371D02*
X140271428Y-96522371D01*
X140271428Y-96522371D02*
X140328571Y-96493800D01*
X140328571Y-96493800D02*
X140357142Y-96465228D01*
X140357142Y-96465228D02*
X140385714Y-96408085D01*
X140385714Y-96408085D02*
X140385714Y-95922371D01*
X140928571Y-95922371D02*
X140814285Y-95922371D01*
X140814285Y-95922371D02*
X140757142Y-95950942D01*
X140757142Y-95950942D02*
X140728571Y-95979514D01*
X140728571Y-95979514D02*
X140671428Y-96065228D01*
X140671428Y-96065228D02*
X140642856Y-96179514D01*
X140642856Y-96179514D02*
X140642856Y-96408085D01*
X140642856Y-96408085D02*
X140671428Y-96465228D01*
X140671428Y-96465228D02*
X140699999Y-96493800D01*
X140699999Y-96493800D02*
X140757142Y-96522371D01*
X140757142Y-96522371D02*
X140871428Y-96522371D01*
X140871428Y-96522371D02*
X140928571Y-96493800D01*
X140928571Y-96493800D02*
X140957142Y-96465228D01*
X140957142Y-96465228D02*
X140985713Y-96408085D01*
X140985713Y-96408085D02*
X140985713Y-96265228D01*
X140985713Y-96265228D02*
X140957142Y-96208085D01*
X140957142Y-96208085D02*
X140928571Y-96179514D01*
X140928571Y-96179514D02*
X140871428Y-96150942D01*
X140871428Y-96150942D02*
X140757142Y-96150942D01*
X140757142Y-96150942D02*
X140699999Y-96179514D01*
X140699999Y-96179514D02*
X140671428Y-96208085D01*
X140671428Y-96208085D02*
X140642856Y-96265228D01*
X141872371Y-74899999D02*
X141872371Y-75185713D01*
X141872371Y-75185713D02*
X141272371Y-75185713D01*
X141272371Y-74757142D02*
X141272371Y-74385714D01*
X141272371Y-74385714D02*
X141500942Y-74585714D01*
X141500942Y-74585714D02*
X141500942Y-74499999D01*
X141500942Y-74499999D02*
X141529514Y-74442857D01*
X141529514Y-74442857D02*
X141558085Y-74414285D01*
X141558085Y-74414285D02*
X141615228Y-74385714D01*
X141615228Y-74385714D02*
X141758085Y-74385714D01*
X141758085Y-74385714D02*
X141815228Y-74414285D01*
X141815228Y-74414285D02*
X141843800Y-74442857D01*
X141843800Y-74442857D02*
X141872371Y-74499999D01*
X141872371Y-74499999D02*
X141872371Y-74671428D01*
X141872371Y-74671428D02*
X141843800Y-74728571D01*
X141843800Y-74728571D02*
X141815228Y-74757142D01*
X124400000Y-84215228D02*
X124371428Y-84243800D01*
X124371428Y-84243800D02*
X124285714Y-84272371D01*
X124285714Y-84272371D02*
X124228571Y-84272371D01*
X124228571Y-84272371D02*
X124142857Y-84243800D01*
X124142857Y-84243800D02*
X124085714Y-84186657D01*
X124085714Y-84186657D02*
X124057143Y-84129514D01*
X124057143Y-84129514D02*
X124028571Y-84015228D01*
X124028571Y-84015228D02*
X124028571Y-83929514D01*
X124028571Y-83929514D02*
X124057143Y-83815228D01*
X124057143Y-83815228D02*
X124085714Y-83758085D01*
X124085714Y-83758085D02*
X124142857Y-83700942D01*
X124142857Y-83700942D02*
X124228571Y-83672371D01*
X124228571Y-83672371D02*
X124285714Y-83672371D01*
X124285714Y-83672371D02*
X124371428Y-83700942D01*
X124371428Y-83700942D02*
X124400000Y-83729514D01*
X124914286Y-83872371D02*
X124914286Y-84272371D01*
X124771428Y-83643800D02*
X124628571Y-84072371D01*
X124628571Y-84072371D02*
X125000000Y-84072371D01*
X116257143Y-94972371D02*
X116257143Y-94372371D01*
X116257143Y-94372371D02*
X116400000Y-94372371D01*
X116400000Y-94372371D02*
X116485714Y-94400942D01*
X116485714Y-94400942D02*
X116542857Y-94458085D01*
X116542857Y-94458085D02*
X116571428Y-94515228D01*
X116571428Y-94515228D02*
X116600000Y-94629514D01*
X116600000Y-94629514D02*
X116600000Y-94715228D01*
X116600000Y-94715228D02*
X116571428Y-94829514D01*
X116571428Y-94829514D02*
X116542857Y-94886657D01*
X116542857Y-94886657D02*
X116485714Y-94943800D01*
X116485714Y-94943800D02*
X116400000Y-94972371D01*
X116400000Y-94972371D02*
X116257143Y-94972371D01*
X117171428Y-94972371D02*
X116828571Y-94972371D01*
X117000000Y-94972371D02*
X117000000Y-94372371D01*
X117000000Y-94372371D02*
X116942857Y-94458085D01*
X116942857Y-94458085D02*
X116885714Y-94515228D01*
X116885714Y-94515228D02*
X116828571Y-94543800D01*
D10*
X131214285Y-91033723D02*
X131595238Y-91033723D01*
X131138095Y-91262295D02*
X131404762Y-90462295D01*
X131404762Y-90462295D02*
X131671428Y-91262295D01*
X131938095Y-91262295D02*
X131938095Y-90728961D01*
X131938095Y-90805152D02*
X131976190Y-90767057D01*
X131976190Y-90767057D02*
X132052380Y-90728961D01*
X132052380Y-90728961D02*
X132166666Y-90728961D01*
X132166666Y-90728961D02*
X132242857Y-90767057D01*
X132242857Y-90767057D02*
X132280952Y-90843247D01*
X132280952Y-90843247D02*
X132280952Y-91262295D01*
X132280952Y-90843247D02*
X132319047Y-90767057D01*
X132319047Y-90767057D02*
X132395238Y-90728961D01*
X132395238Y-90728961D02*
X132509523Y-90728961D01*
X132509523Y-90728961D02*
X132585714Y-90767057D01*
X132585714Y-90767057D02*
X132623809Y-90843247D01*
X132623809Y-90843247D02*
X132623809Y-91262295D01*
X133004762Y-90728961D02*
X133004762Y-91528961D01*
X133004762Y-90767057D02*
X133080952Y-90728961D01*
X133080952Y-90728961D02*
X133233333Y-90728961D01*
X133233333Y-90728961D02*
X133309524Y-90767057D01*
X133309524Y-90767057D02*
X133347619Y-90805152D01*
X133347619Y-90805152D02*
X133385714Y-90881342D01*
X133385714Y-90881342D02*
X133385714Y-91109914D01*
X133385714Y-91109914D02*
X133347619Y-91186104D01*
X133347619Y-91186104D02*
X133309524Y-91224200D01*
X133309524Y-91224200D02*
X133233333Y-91262295D01*
X133233333Y-91262295D02*
X133080952Y-91262295D01*
X133080952Y-91262295D02*
X133004762Y-91224200D01*
D13*
X120172371Y-76799999D02*
X119886657Y-76999999D01*
X120172371Y-77142856D02*
X119572371Y-77142856D01*
X119572371Y-77142856D02*
X119572371Y-76914285D01*
X119572371Y-76914285D02*
X119600942Y-76857142D01*
X119600942Y-76857142D02*
X119629514Y-76828571D01*
X119629514Y-76828571D02*
X119686657Y-76799999D01*
X119686657Y-76799999D02*
X119772371Y-76799999D01*
X119772371Y-76799999D02*
X119829514Y-76828571D01*
X119829514Y-76828571D02*
X119858085Y-76857142D01*
X119858085Y-76857142D02*
X119886657Y-76914285D01*
X119886657Y-76914285D02*
X119886657Y-77142856D01*
X119772371Y-76285714D02*
X120172371Y-76285714D01*
X119543800Y-76428571D02*
X119972371Y-76571428D01*
X119972371Y-76571428D02*
X119972371Y-76199999D01*
X133114285Y-95472371D02*
X132914285Y-95186657D01*
X132771428Y-95472371D02*
X132771428Y-94872371D01*
X132771428Y-94872371D02*
X132999999Y-94872371D01*
X132999999Y-94872371D02*
X133057142Y-94900942D01*
X133057142Y-94900942D02*
X133085713Y-94929514D01*
X133085713Y-94929514D02*
X133114285Y-94986657D01*
X133114285Y-94986657D02*
X133114285Y-95072371D01*
X133114285Y-95072371D02*
X133085713Y-95129514D01*
X133085713Y-95129514D02*
X133057142Y-95158085D01*
X133057142Y-95158085D02*
X132999999Y-95186657D01*
X132999999Y-95186657D02*
X132771428Y-95186657D01*
X133685713Y-95472371D02*
X133342856Y-95472371D01*
X133514285Y-95472371D02*
X133514285Y-94872371D01*
X133514285Y-94872371D02*
X133457142Y-94958085D01*
X133457142Y-94958085D02*
X133399999Y-95015228D01*
X133399999Y-95015228D02*
X133342856Y-95043800D01*
X133885714Y-94872371D02*
X134257142Y-94872371D01*
X134257142Y-94872371D02*
X134057142Y-95100942D01*
X134057142Y-95100942D02*
X134142857Y-95100942D01*
X134142857Y-95100942D02*
X134200000Y-95129514D01*
X134200000Y-95129514D02*
X134228571Y-95158085D01*
X134228571Y-95158085D02*
X134257142Y-95215228D01*
X134257142Y-95215228D02*
X134257142Y-95358085D01*
X134257142Y-95358085D02*
X134228571Y-95415228D01*
X134228571Y-95415228D02*
X134200000Y-95443800D01*
X134200000Y-95443800D02*
X134142857Y-95472371D01*
X134142857Y-95472371D02*
X133971428Y-95472371D01*
X133971428Y-95472371D02*
X133914285Y-95443800D01*
X133914285Y-95443800D02*
X133885714Y-95415228D01*
X119950000Y-86285228D02*
X119921428Y-86313800D01*
X119921428Y-86313800D02*
X119835714Y-86342371D01*
X119835714Y-86342371D02*
X119778571Y-86342371D01*
X119778571Y-86342371D02*
X119692857Y-86313800D01*
X119692857Y-86313800D02*
X119635714Y-86256657D01*
X119635714Y-86256657D02*
X119607143Y-86199514D01*
X119607143Y-86199514D02*
X119578571Y-86085228D01*
X119578571Y-86085228D02*
X119578571Y-85999514D01*
X119578571Y-85999514D02*
X119607143Y-85885228D01*
X119607143Y-85885228D02*
X119635714Y-85828085D01*
X119635714Y-85828085D02*
X119692857Y-85770942D01*
X119692857Y-85770942D02*
X119778571Y-85742371D01*
X119778571Y-85742371D02*
X119835714Y-85742371D01*
X119835714Y-85742371D02*
X119921428Y-85770942D01*
X119921428Y-85770942D02*
X119950000Y-85799514D01*
X120521428Y-86342371D02*
X120178571Y-86342371D01*
X120350000Y-86342371D02*
X120350000Y-85742371D01*
X120350000Y-85742371D02*
X120292857Y-85828085D01*
X120292857Y-85828085D02*
X120235714Y-85885228D01*
X120235714Y-85885228D02*
X120178571Y-85913800D01*
X155842857Y-76722371D02*
X155842857Y-77208085D01*
X155842857Y-77208085D02*
X155871428Y-77265228D01*
X155871428Y-77265228D02*
X155900000Y-77293800D01*
X155900000Y-77293800D02*
X155957142Y-77322371D01*
X155957142Y-77322371D02*
X156071428Y-77322371D01*
X156071428Y-77322371D02*
X156128571Y-77293800D01*
X156128571Y-77293800D02*
X156157142Y-77265228D01*
X156157142Y-77265228D02*
X156185714Y-77208085D01*
X156185714Y-77208085D02*
X156185714Y-76722371D01*
X156785713Y-77322371D02*
X156442856Y-77322371D01*
X156614285Y-77322371D02*
X156614285Y-76722371D01*
X156614285Y-76722371D02*
X156557142Y-76808085D01*
X156557142Y-76808085D02*
X156499999Y-76865228D01*
X156499999Y-76865228D02*
X156442856Y-76893800D01*
X148814285Y-89722371D02*
X148614285Y-89436657D01*
X148471428Y-89722371D02*
X148471428Y-89122371D01*
X148471428Y-89122371D02*
X148699999Y-89122371D01*
X148699999Y-89122371D02*
X148757142Y-89150942D01*
X148757142Y-89150942D02*
X148785713Y-89179514D01*
X148785713Y-89179514D02*
X148814285Y-89236657D01*
X148814285Y-89236657D02*
X148814285Y-89322371D01*
X148814285Y-89322371D02*
X148785713Y-89379514D01*
X148785713Y-89379514D02*
X148757142Y-89408085D01*
X148757142Y-89408085D02*
X148699999Y-89436657D01*
X148699999Y-89436657D02*
X148471428Y-89436657D01*
X149385713Y-89722371D02*
X149042856Y-89722371D01*
X149214285Y-89722371D02*
X149214285Y-89122371D01*
X149214285Y-89122371D02*
X149157142Y-89208085D01*
X149157142Y-89208085D02*
X149099999Y-89265228D01*
X149099999Y-89265228D02*
X149042856Y-89293800D01*
X149957142Y-89722371D02*
X149614285Y-89722371D01*
X149785714Y-89722371D02*
X149785714Y-89122371D01*
X149785714Y-89122371D02*
X149728571Y-89208085D01*
X149728571Y-89208085D02*
X149671428Y-89265228D01*
X149671428Y-89265228D02*
X149614285Y-89293800D01*
X114399999Y-82472371D02*
X114399999Y-82900942D01*
X114399999Y-82900942D02*
X114371428Y-82986657D01*
X114371428Y-82986657D02*
X114314285Y-83043800D01*
X114314285Y-83043800D02*
X114228571Y-83072371D01*
X114228571Y-83072371D02*
X114171428Y-83072371D01*
X114628571Y-82472371D02*
X114999999Y-82472371D01*
X114999999Y-82472371D02*
X114799999Y-82700942D01*
X114799999Y-82700942D02*
X114885714Y-82700942D01*
X114885714Y-82700942D02*
X114942857Y-82729514D01*
X114942857Y-82729514D02*
X114971428Y-82758085D01*
X114971428Y-82758085D02*
X114999999Y-82815228D01*
X114999999Y-82815228D02*
X114999999Y-82958085D01*
X114999999Y-82958085D02*
X114971428Y-83015228D01*
X114971428Y-83015228D02*
X114942857Y-83043800D01*
X114942857Y-83043800D02*
X114885714Y-83072371D01*
X114885714Y-83072371D02*
X114714285Y-83072371D01*
X114714285Y-83072371D02*
X114657142Y-83043800D01*
X114657142Y-83043800D02*
X114628571Y-83015228D01*
X142714285Y-86165228D02*
X142685713Y-86193800D01*
X142685713Y-86193800D02*
X142599999Y-86222371D01*
X142599999Y-86222371D02*
X142542856Y-86222371D01*
X142542856Y-86222371D02*
X142457142Y-86193800D01*
X142457142Y-86193800D02*
X142399999Y-86136657D01*
X142399999Y-86136657D02*
X142371428Y-86079514D01*
X142371428Y-86079514D02*
X142342856Y-85965228D01*
X142342856Y-85965228D02*
X142342856Y-85879514D01*
X142342856Y-85879514D02*
X142371428Y-85765228D01*
X142371428Y-85765228D02*
X142399999Y-85708085D01*
X142399999Y-85708085D02*
X142457142Y-85650942D01*
X142457142Y-85650942D02*
X142542856Y-85622371D01*
X142542856Y-85622371D02*
X142599999Y-85622371D01*
X142599999Y-85622371D02*
X142685713Y-85650942D01*
X142685713Y-85650942D02*
X142714285Y-85679514D01*
X142942856Y-85679514D02*
X142971428Y-85650942D01*
X142971428Y-85650942D02*
X143028571Y-85622371D01*
X143028571Y-85622371D02*
X143171428Y-85622371D01*
X143171428Y-85622371D02*
X143228571Y-85650942D01*
X143228571Y-85650942D02*
X143257142Y-85679514D01*
X143257142Y-85679514D02*
X143285713Y-85736657D01*
X143285713Y-85736657D02*
X143285713Y-85793800D01*
X143285713Y-85793800D02*
X143257142Y-85879514D01*
X143257142Y-85879514D02*
X142914285Y-86222371D01*
X142914285Y-86222371D02*
X143285713Y-86222371D01*
X143485714Y-85622371D02*
X143857142Y-85622371D01*
X143857142Y-85622371D02*
X143657142Y-85850942D01*
X143657142Y-85850942D02*
X143742857Y-85850942D01*
X143742857Y-85850942D02*
X143800000Y-85879514D01*
X143800000Y-85879514D02*
X143828571Y-85908085D01*
X143828571Y-85908085D02*
X143857142Y-85965228D01*
X143857142Y-85965228D02*
X143857142Y-86108085D01*
X143857142Y-86108085D02*
X143828571Y-86165228D01*
X143828571Y-86165228D02*
X143800000Y-86193800D01*
X143800000Y-86193800D02*
X143742857Y-86222371D01*
X143742857Y-86222371D02*
X143571428Y-86222371D01*
X143571428Y-86222371D02*
X143514285Y-86193800D01*
X143514285Y-86193800D02*
X143485714Y-86165228D01*
X136714285Y-88165228D02*
X136685713Y-88193800D01*
X136685713Y-88193800D02*
X136599999Y-88222371D01*
X136599999Y-88222371D02*
X136542856Y-88222371D01*
X136542856Y-88222371D02*
X136457142Y-88193800D01*
X136457142Y-88193800D02*
X136399999Y-88136657D01*
X136399999Y-88136657D02*
X136371428Y-88079514D01*
X136371428Y-88079514D02*
X136342856Y-87965228D01*
X136342856Y-87965228D02*
X136342856Y-87879514D01*
X136342856Y-87879514D02*
X136371428Y-87765228D01*
X136371428Y-87765228D02*
X136399999Y-87708085D01*
X136399999Y-87708085D02*
X136457142Y-87650942D01*
X136457142Y-87650942D02*
X136542856Y-87622371D01*
X136542856Y-87622371D02*
X136599999Y-87622371D01*
X136599999Y-87622371D02*
X136685713Y-87650942D01*
X136685713Y-87650942D02*
X136714285Y-87679514D01*
X136942856Y-87679514D02*
X136971428Y-87650942D01*
X136971428Y-87650942D02*
X137028571Y-87622371D01*
X137028571Y-87622371D02*
X137171428Y-87622371D01*
X137171428Y-87622371D02*
X137228571Y-87650942D01*
X137228571Y-87650942D02*
X137257142Y-87679514D01*
X137257142Y-87679514D02*
X137285713Y-87736657D01*
X137285713Y-87736657D02*
X137285713Y-87793800D01*
X137285713Y-87793800D02*
X137257142Y-87879514D01*
X137257142Y-87879514D02*
X136914285Y-88222371D01*
X136914285Y-88222371D02*
X137285713Y-88222371D01*
X137828571Y-87622371D02*
X137542857Y-87622371D01*
X137542857Y-87622371D02*
X137514285Y-87908085D01*
X137514285Y-87908085D02*
X137542857Y-87879514D01*
X137542857Y-87879514D02*
X137600000Y-87850942D01*
X137600000Y-87850942D02*
X137742857Y-87850942D01*
X137742857Y-87850942D02*
X137800000Y-87879514D01*
X137800000Y-87879514D02*
X137828571Y-87908085D01*
X137828571Y-87908085D02*
X137857142Y-87965228D01*
X137857142Y-87965228D02*
X137857142Y-88108085D01*
X137857142Y-88108085D02*
X137828571Y-88165228D01*
X137828571Y-88165228D02*
X137800000Y-88193800D01*
X137800000Y-88193800D02*
X137742857Y-88222371D01*
X137742857Y-88222371D02*
X137600000Y-88222371D01*
X137600000Y-88222371D02*
X137542857Y-88193800D01*
X137542857Y-88193800D02*
X137514285Y-88165228D01*
X161684871Y-90399999D02*
X161684871Y-90685713D01*
X161684871Y-90685713D02*
X161084871Y-90685713D01*
X161084871Y-89942857D02*
X161084871Y-90057142D01*
X161084871Y-90057142D02*
X161113442Y-90114285D01*
X161113442Y-90114285D02*
X161142014Y-90142857D01*
X161142014Y-90142857D02*
X161227728Y-90199999D01*
X161227728Y-90199999D02*
X161342014Y-90228571D01*
X161342014Y-90228571D02*
X161570585Y-90228571D01*
X161570585Y-90228571D02*
X161627728Y-90199999D01*
X161627728Y-90199999D02*
X161656300Y-90171428D01*
X161656300Y-90171428D02*
X161684871Y-90114285D01*
X161684871Y-90114285D02*
X161684871Y-89999999D01*
X161684871Y-89999999D02*
X161656300Y-89942857D01*
X161656300Y-89942857D02*
X161627728Y-89914285D01*
X161627728Y-89914285D02*
X161570585Y-89885714D01*
X161570585Y-89885714D02*
X161427728Y-89885714D01*
X161427728Y-89885714D02*
X161370585Y-89914285D01*
X161370585Y-89914285D02*
X161342014Y-89942857D01*
X161342014Y-89942857D02*
X161313442Y-89999999D01*
X161313442Y-89999999D02*
X161313442Y-90114285D01*
X161313442Y-90114285D02*
X161342014Y-90171428D01*
X161342014Y-90171428D02*
X161370585Y-90199999D01*
X161370585Y-90199999D02*
X161427728Y-90228571D01*
X150772371Y-95149999D02*
X150486657Y-95349999D01*
X150772371Y-95492856D02*
X150172371Y-95492856D01*
X150172371Y-95492856D02*
X150172371Y-95264285D01*
X150172371Y-95264285D02*
X150200942Y-95207142D01*
X150200942Y-95207142D02*
X150229514Y-95178571D01*
X150229514Y-95178571D02*
X150286657Y-95149999D01*
X150286657Y-95149999D02*
X150372371Y-95149999D01*
X150372371Y-95149999D02*
X150429514Y-95178571D01*
X150429514Y-95178571D02*
X150458085Y-95207142D01*
X150458085Y-95207142D02*
X150486657Y-95264285D01*
X150486657Y-95264285D02*
X150486657Y-95492856D01*
X150172371Y-94635714D02*
X150172371Y-94749999D01*
X150172371Y-94749999D02*
X150200942Y-94807142D01*
X150200942Y-94807142D02*
X150229514Y-94835714D01*
X150229514Y-94835714D02*
X150315228Y-94892856D01*
X150315228Y-94892856D02*
X150429514Y-94921428D01*
X150429514Y-94921428D02*
X150658085Y-94921428D01*
X150658085Y-94921428D02*
X150715228Y-94892856D01*
X150715228Y-94892856D02*
X150743800Y-94864285D01*
X150743800Y-94864285D02*
X150772371Y-94807142D01*
X150772371Y-94807142D02*
X150772371Y-94692856D01*
X150772371Y-94692856D02*
X150743800Y-94635714D01*
X150743800Y-94635714D02*
X150715228Y-94607142D01*
X150715228Y-94607142D02*
X150658085Y-94578571D01*
X150658085Y-94578571D02*
X150515228Y-94578571D01*
X150515228Y-94578571D02*
X150458085Y-94607142D01*
X150458085Y-94607142D02*
X150429514Y-94635714D01*
X150429514Y-94635714D02*
X150400942Y-94692856D01*
X150400942Y-94692856D02*
X150400942Y-94807142D01*
X150400942Y-94807142D02*
X150429514Y-94864285D01*
X150429514Y-94864285D02*
X150458085Y-94892856D01*
X150458085Y-94892856D02*
X150515228Y-94921428D01*
X149048035Y-76815228D02*
X149019463Y-76843800D01*
X149019463Y-76843800D02*
X148933749Y-76872371D01*
X148933749Y-76872371D02*
X148876606Y-76872371D01*
X148876606Y-76872371D02*
X148790892Y-76843800D01*
X148790892Y-76843800D02*
X148733749Y-76786657D01*
X148733749Y-76786657D02*
X148705178Y-76729514D01*
X148705178Y-76729514D02*
X148676606Y-76615228D01*
X148676606Y-76615228D02*
X148676606Y-76529514D01*
X148676606Y-76529514D02*
X148705178Y-76415228D01*
X148705178Y-76415228D02*
X148733749Y-76358085D01*
X148733749Y-76358085D02*
X148790892Y-76300942D01*
X148790892Y-76300942D02*
X148876606Y-76272371D01*
X148876606Y-76272371D02*
X148933749Y-76272371D01*
X148933749Y-76272371D02*
X149019463Y-76300942D01*
X149019463Y-76300942D02*
X149048035Y-76329514D01*
X149619463Y-76872371D02*
X149276606Y-76872371D01*
X149448035Y-76872371D02*
X149448035Y-76272371D01*
X149448035Y-76272371D02*
X149390892Y-76358085D01*
X149390892Y-76358085D02*
X149333749Y-76415228D01*
X149333749Y-76415228D02*
X149276606Y-76443800D01*
X150190892Y-76872371D02*
X149848035Y-76872371D01*
X150019464Y-76872371D02*
X150019464Y-76272371D01*
X150019464Y-76272371D02*
X149962321Y-76358085D01*
X149962321Y-76358085D02*
X149905178Y-76415228D01*
X149905178Y-76415228D02*
X149848035Y-76443800D01*
X163127728Y-90285714D02*
X163156300Y-90314286D01*
X163156300Y-90314286D02*
X163184871Y-90400000D01*
X163184871Y-90400000D02*
X163184871Y-90457143D01*
X163184871Y-90457143D02*
X163156300Y-90542857D01*
X163156300Y-90542857D02*
X163099157Y-90600000D01*
X163099157Y-90600000D02*
X163042014Y-90628571D01*
X163042014Y-90628571D02*
X162927728Y-90657143D01*
X162927728Y-90657143D02*
X162842014Y-90657143D01*
X162842014Y-90657143D02*
X162727728Y-90628571D01*
X162727728Y-90628571D02*
X162670585Y-90600000D01*
X162670585Y-90600000D02*
X162613442Y-90542857D01*
X162613442Y-90542857D02*
X162584871Y-90457143D01*
X162584871Y-90457143D02*
X162584871Y-90400000D01*
X162584871Y-90400000D02*
X162613442Y-90314286D01*
X162613442Y-90314286D02*
X162642014Y-90285714D01*
X162642014Y-90057143D02*
X162613442Y-90028571D01*
X162613442Y-90028571D02*
X162584871Y-89971429D01*
X162584871Y-89971429D02*
X162584871Y-89828571D01*
X162584871Y-89828571D02*
X162613442Y-89771429D01*
X162613442Y-89771429D02*
X162642014Y-89742857D01*
X162642014Y-89742857D02*
X162699157Y-89714286D01*
X162699157Y-89714286D02*
X162756300Y-89714286D01*
X162756300Y-89714286D02*
X162842014Y-89742857D01*
X162842014Y-89742857D02*
X163184871Y-90085714D01*
X163184871Y-90085714D02*
X163184871Y-89714286D01*
X162584871Y-89342857D02*
X162584871Y-89285714D01*
X162584871Y-89285714D02*
X162613442Y-89228571D01*
X162613442Y-89228571D02*
X162642014Y-89200000D01*
X162642014Y-89200000D02*
X162699157Y-89171428D01*
X162699157Y-89171428D02*
X162813442Y-89142857D01*
X162813442Y-89142857D02*
X162956300Y-89142857D01*
X162956300Y-89142857D02*
X163070585Y-89171428D01*
X163070585Y-89171428D02*
X163127728Y-89200000D01*
X163127728Y-89200000D02*
X163156300Y-89228571D01*
X163156300Y-89228571D02*
X163184871Y-89285714D01*
X163184871Y-89285714D02*
X163184871Y-89342857D01*
X163184871Y-89342857D02*
X163156300Y-89400000D01*
X163156300Y-89400000D02*
X163127728Y-89428571D01*
X163127728Y-89428571D02*
X163070585Y-89457142D01*
X163070585Y-89457142D02*
X162956300Y-89485714D01*
X162956300Y-89485714D02*
X162813442Y-89485714D01*
X162813442Y-89485714D02*
X162699157Y-89457142D01*
X162699157Y-89457142D02*
X162642014Y-89428571D01*
X162642014Y-89428571D02*
X162613442Y-89400000D01*
X162613442Y-89400000D02*
X162584871Y-89342857D01*
X121472371Y-74099999D02*
X121186657Y-74299999D01*
X121472371Y-74442856D02*
X120872371Y-74442856D01*
X120872371Y-74442856D02*
X120872371Y-74214285D01*
X120872371Y-74214285D02*
X120900942Y-74157142D01*
X120900942Y-74157142D02*
X120929514Y-74128571D01*
X120929514Y-74128571D02*
X120986657Y-74099999D01*
X120986657Y-74099999D02*
X121072371Y-74099999D01*
X121072371Y-74099999D02*
X121129514Y-74128571D01*
X121129514Y-74128571D02*
X121158085Y-74157142D01*
X121158085Y-74157142D02*
X121186657Y-74214285D01*
X121186657Y-74214285D02*
X121186657Y-74442856D01*
X120872371Y-73899999D02*
X120872371Y-73528571D01*
X120872371Y-73528571D02*
X121100942Y-73728571D01*
X121100942Y-73728571D02*
X121100942Y-73642856D01*
X121100942Y-73642856D02*
X121129514Y-73585714D01*
X121129514Y-73585714D02*
X121158085Y-73557142D01*
X121158085Y-73557142D02*
X121215228Y-73528571D01*
X121215228Y-73528571D02*
X121358085Y-73528571D01*
X121358085Y-73528571D02*
X121415228Y-73557142D01*
X121415228Y-73557142D02*
X121443800Y-73585714D01*
X121443800Y-73585714D02*
X121472371Y-73642856D01*
X121472371Y-73642856D02*
X121472371Y-73814285D01*
X121472371Y-73814285D02*
X121443800Y-73871428D01*
X121443800Y-73871428D02*
X121415228Y-73899999D01*
X148814285Y-88165228D02*
X148785713Y-88193800D01*
X148785713Y-88193800D02*
X148699999Y-88222371D01*
X148699999Y-88222371D02*
X148642856Y-88222371D01*
X148642856Y-88222371D02*
X148557142Y-88193800D01*
X148557142Y-88193800D02*
X148499999Y-88136657D01*
X148499999Y-88136657D02*
X148471428Y-88079514D01*
X148471428Y-88079514D02*
X148442856Y-87965228D01*
X148442856Y-87965228D02*
X148442856Y-87879514D01*
X148442856Y-87879514D02*
X148471428Y-87765228D01*
X148471428Y-87765228D02*
X148499999Y-87708085D01*
X148499999Y-87708085D02*
X148557142Y-87650942D01*
X148557142Y-87650942D02*
X148642856Y-87622371D01*
X148642856Y-87622371D02*
X148699999Y-87622371D01*
X148699999Y-87622371D02*
X148785713Y-87650942D01*
X148785713Y-87650942D02*
X148814285Y-87679514D01*
X149042856Y-87679514D02*
X149071428Y-87650942D01*
X149071428Y-87650942D02*
X149128571Y-87622371D01*
X149128571Y-87622371D02*
X149271428Y-87622371D01*
X149271428Y-87622371D02*
X149328571Y-87650942D01*
X149328571Y-87650942D02*
X149357142Y-87679514D01*
X149357142Y-87679514D02*
X149385713Y-87736657D01*
X149385713Y-87736657D02*
X149385713Y-87793800D01*
X149385713Y-87793800D02*
X149357142Y-87879514D01*
X149357142Y-87879514D02*
X149014285Y-88222371D01*
X149014285Y-88222371D02*
X149385713Y-88222371D01*
X149900000Y-87822371D02*
X149900000Y-88222371D01*
X149757142Y-87593800D02*
X149614285Y-88022371D01*
X149614285Y-88022371D02*
X149985714Y-88022371D01*
D10*
X126938095Y-88762295D02*
X126671428Y-88381342D01*
X126480952Y-88762295D02*
X126480952Y-87962295D01*
X126480952Y-87962295D02*
X126785714Y-87962295D01*
X126785714Y-87962295D02*
X126861904Y-88000390D01*
X126861904Y-88000390D02*
X126899999Y-88038485D01*
X126899999Y-88038485D02*
X126938095Y-88114676D01*
X126938095Y-88114676D02*
X126938095Y-88228961D01*
X126938095Y-88228961D02*
X126899999Y-88305152D01*
X126899999Y-88305152D02*
X126861904Y-88343247D01*
X126861904Y-88343247D02*
X126785714Y-88381342D01*
X126785714Y-88381342D02*
X126480952Y-88381342D01*
X127623809Y-88762295D02*
X127623809Y-87962295D01*
X127623809Y-88724200D02*
X127547618Y-88762295D01*
X127547618Y-88762295D02*
X127395237Y-88762295D01*
X127395237Y-88762295D02*
X127319047Y-88724200D01*
X127319047Y-88724200D02*
X127280952Y-88686104D01*
X127280952Y-88686104D02*
X127242856Y-88609914D01*
X127242856Y-88609914D02*
X127242856Y-88381342D01*
X127242856Y-88381342D02*
X127280952Y-88305152D01*
X127280952Y-88305152D02*
X127319047Y-88267057D01*
X127319047Y-88267057D02*
X127395237Y-88228961D01*
X127395237Y-88228961D02*
X127547618Y-88228961D01*
X127547618Y-88228961D02*
X127623809Y-88267057D01*
X128004762Y-88762295D02*
X128004762Y-88228961D01*
X128004762Y-88381342D02*
X128042857Y-88305152D01*
X128042857Y-88305152D02*
X128080952Y-88267057D01*
X128080952Y-88267057D02*
X128157143Y-88228961D01*
X128157143Y-88228961D02*
X128233333Y-88228961D01*
D13*
X121742857Y-96292371D02*
X121742857Y-96778085D01*
X121742857Y-96778085D02*
X121771428Y-96835228D01*
X121771428Y-96835228D02*
X121800000Y-96863800D01*
X121800000Y-96863800D02*
X121857142Y-96892371D01*
X121857142Y-96892371D02*
X121971428Y-96892371D01*
X121971428Y-96892371D02*
X122028571Y-96863800D01*
X122028571Y-96863800D02*
X122057142Y-96835228D01*
X122057142Y-96835228D02*
X122085714Y-96778085D01*
X122085714Y-96778085D02*
X122085714Y-96292371D01*
X122342856Y-96349514D02*
X122371428Y-96320942D01*
X122371428Y-96320942D02*
X122428571Y-96292371D01*
X122428571Y-96292371D02*
X122571428Y-96292371D01*
X122571428Y-96292371D02*
X122628571Y-96320942D01*
X122628571Y-96320942D02*
X122657142Y-96349514D01*
X122657142Y-96349514D02*
X122685713Y-96406657D01*
X122685713Y-96406657D02*
X122685713Y-96463800D01*
X122685713Y-96463800D02*
X122657142Y-96549514D01*
X122657142Y-96549514D02*
X122314285Y-96892371D01*
X122314285Y-96892371D02*
X122685713Y-96892371D01*
X127897371Y-76557142D02*
X128383085Y-76557142D01*
X128383085Y-76557142D02*
X128440228Y-76528571D01*
X128440228Y-76528571D02*
X128468800Y-76500000D01*
X128468800Y-76500000D02*
X128497371Y-76442857D01*
X128497371Y-76442857D02*
X128497371Y-76328571D01*
X128497371Y-76328571D02*
X128468800Y-76271428D01*
X128468800Y-76271428D02*
X128440228Y-76242857D01*
X128440228Y-76242857D02*
X128383085Y-76214285D01*
X128383085Y-76214285D02*
X127897371Y-76214285D01*
X128097371Y-75671429D02*
X128497371Y-75671429D01*
X127868800Y-75814286D02*
X128297371Y-75957143D01*
X128297371Y-75957143D02*
X128297371Y-75585714D01*
X136714285Y-89722371D02*
X136514285Y-89436657D01*
X136371428Y-89722371D02*
X136371428Y-89122371D01*
X136371428Y-89122371D02*
X136599999Y-89122371D01*
X136599999Y-89122371D02*
X136657142Y-89150942D01*
X136657142Y-89150942D02*
X136685713Y-89179514D01*
X136685713Y-89179514D02*
X136714285Y-89236657D01*
X136714285Y-89236657D02*
X136714285Y-89322371D01*
X136714285Y-89322371D02*
X136685713Y-89379514D01*
X136685713Y-89379514D02*
X136657142Y-89408085D01*
X136657142Y-89408085D02*
X136599999Y-89436657D01*
X136599999Y-89436657D02*
X136371428Y-89436657D01*
X137285713Y-89722371D02*
X136942856Y-89722371D01*
X137114285Y-89722371D02*
X137114285Y-89122371D01*
X137114285Y-89122371D02*
X137057142Y-89208085D01*
X137057142Y-89208085D02*
X136999999Y-89265228D01*
X136999999Y-89265228D02*
X136942856Y-89293800D01*
X137514285Y-89179514D02*
X137542857Y-89150942D01*
X137542857Y-89150942D02*
X137600000Y-89122371D01*
X137600000Y-89122371D02*
X137742857Y-89122371D01*
X137742857Y-89122371D02*
X137800000Y-89150942D01*
X137800000Y-89150942D02*
X137828571Y-89179514D01*
X137828571Y-89179514D02*
X137857142Y-89236657D01*
X137857142Y-89236657D02*
X137857142Y-89293800D01*
X137857142Y-89293800D02*
X137828571Y-89379514D01*
X137828571Y-89379514D02*
X137485714Y-89722371D01*
X137485714Y-89722371D02*
X137857142Y-89722371D01*
X157026785Y-88615228D02*
X156998213Y-88643800D01*
X156998213Y-88643800D02*
X156912499Y-88672371D01*
X156912499Y-88672371D02*
X156855356Y-88672371D01*
X156855356Y-88672371D02*
X156769642Y-88643800D01*
X156769642Y-88643800D02*
X156712499Y-88586657D01*
X156712499Y-88586657D02*
X156683928Y-88529514D01*
X156683928Y-88529514D02*
X156655356Y-88415228D01*
X156655356Y-88415228D02*
X156655356Y-88329514D01*
X156655356Y-88329514D02*
X156683928Y-88215228D01*
X156683928Y-88215228D02*
X156712499Y-88158085D01*
X156712499Y-88158085D02*
X156769642Y-88100942D01*
X156769642Y-88100942D02*
X156855356Y-88072371D01*
X156855356Y-88072371D02*
X156912499Y-88072371D01*
X156912499Y-88072371D02*
X156998213Y-88100942D01*
X156998213Y-88100942D02*
X157026785Y-88129514D01*
X157255356Y-88129514D02*
X157283928Y-88100942D01*
X157283928Y-88100942D02*
X157341071Y-88072371D01*
X157341071Y-88072371D02*
X157483928Y-88072371D01*
X157483928Y-88072371D02*
X157541071Y-88100942D01*
X157541071Y-88100942D02*
X157569642Y-88129514D01*
X157569642Y-88129514D02*
X157598213Y-88186657D01*
X157598213Y-88186657D02*
X157598213Y-88243800D01*
X157598213Y-88243800D02*
X157569642Y-88329514D01*
X157569642Y-88329514D02*
X157226785Y-88672371D01*
X157226785Y-88672371D02*
X157598213Y-88672371D01*
X158169642Y-88672371D02*
X157826785Y-88672371D01*
X157998214Y-88672371D02*
X157998214Y-88072371D01*
X157998214Y-88072371D02*
X157941071Y-88158085D01*
X157941071Y-88158085D02*
X157883928Y-88215228D01*
X157883928Y-88215228D02*
X157826785Y-88243800D01*
X150672371Y-81249999D02*
X150386657Y-81449999D01*
X150672371Y-81592856D02*
X150072371Y-81592856D01*
X150072371Y-81592856D02*
X150072371Y-81364285D01*
X150072371Y-81364285D02*
X150100942Y-81307142D01*
X150100942Y-81307142D02*
X150129514Y-81278571D01*
X150129514Y-81278571D02*
X150186657Y-81249999D01*
X150186657Y-81249999D02*
X150272371Y-81249999D01*
X150272371Y-81249999D02*
X150329514Y-81278571D01*
X150329514Y-81278571D02*
X150358085Y-81307142D01*
X150358085Y-81307142D02*
X150386657Y-81364285D01*
X150386657Y-81364285D02*
X150386657Y-81592856D01*
X150672371Y-80678571D02*
X150672371Y-81021428D01*
X150672371Y-80849999D02*
X150072371Y-80849999D01*
X150072371Y-80849999D02*
X150158085Y-80907142D01*
X150158085Y-80907142D02*
X150215228Y-80964285D01*
X150215228Y-80964285D02*
X150243800Y-81021428D01*
X165199999Y-91197371D02*
X165199999Y-91625942D01*
X165199999Y-91625942D02*
X165171428Y-91711657D01*
X165171428Y-91711657D02*
X165114285Y-91768800D01*
X165114285Y-91768800D02*
X165028571Y-91797371D01*
X165028571Y-91797371D02*
X164971428Y-91797371D01*
X165742857Y-91397371D02*
X165742857Y-91797371D01*
X165599999Y-91168800D02*
X165457142Y-91597371D01*
X165457142Y-91597371D02*
X165828571Y-91597371D01*
X145100000Y-76872371D02*
X144814286Y-76872371D01*
X144814286Y-76872371D02*
X144814286Y-76272371D01*
X145557143Y-76472371D02*
X145557143Y-76872371D01*
X145414285Y-76243800D02*
X145271428Y-76672371D01*
X145271428Y-76672371D02*
X145642857Y-76672371D01*
X140142857Y-80872371D02*
X140142857Y-81358085D01*
X140142857Y-81358085D02*
X140171428Y-81415228D01*
X140171428Y-81415228D02*
X140200000Y-81443800D01*
X140200000Y-81443800D02*
X140257142Y-81472371D01*
X140257142Y-81472371D02*
X140371428Y-81472371D01*
X140371428Y-81472371D02*
X140428571Y-81443800D01*
X140428571Y-81443800D02*
X140457142Y-81415228D01*
X140457142Y-81415228D02*
X140485714Y-81358085D01*
X140485714Y-81358085D02*
X140485714Y-80872371D01*
X141057142Y-80872371D02*
X140771428Y-80872371D01*
X140771428Y-80872371D02*
X140742856Y-81158085D01*
X140742856Y-81158085D02*
X140771428Y-81129514D01*
X140771428Y-81129514D02*
X140828571Y-81100942D01*
X140828571Y-81100942D02*
X140971428Y-81100942D01*
X140971428Y-81100942D02*
X141028571Y-81129514D01*
X141028571Y-81129514D02*
X141057142Y-81158085D01*
X141057142Y-81158085D02*
X141085713Y-81215228D01*
X141085713Y-81215228D02*
X141085713Y-81358085D01*
X141085713Y-81358085D02*
X141057142Y-81415228D01*
X141057142Y-81415228D02*
X141028571Y-81443800D01*
X141028571Y-81443800D02*
X140971428Y-81472371D01*
X140971428Y-81472371D02*
X140828571Y-81472371D01*
X140828571Y-81472371D02*
X140771428Y-81443800D01*
X140771428Y-81443800D02*
X140742856Y-81415228D01*
D10*
X154199047Y-86904200D02*
X154313333Y-86942295D01*
X154313333Y-86942295D02*
X154503809Y-86942295D01*
X154503809Y-86942295D02*
X154580000Y-86904200D01*
X154580000Y-86904200D02*
X154618095Y-86866104D01*
X154618095Y-86866104D02*
X154656190Y-86789914D01*
X154656190Y-86789914D02*
X154656190Y-86713723D01*
X154656190Y-86713723D02*
X154618095Y-86637533D01*
X154618095Y-86637533D02*
X154580000Y-86599438D01*
X154580000Y-86599438D02*
X154503809Y-86561342D01*
X154503809Y-86561342D02*
X154351428Y-86523247D01*
X154351428Y-86523247D02*
X154275238Y-86485152D01*
X154275238Y-86485152D02*
X154237143Y-86447057D01*
X154237143Y-86447057D02*
X154199047Y-86370866D01*
X154199047Y-86370866D02*
X154199047Y-86294676D01*
X154199047Y-86294676D02*
X154237143Y-86218485D01*
X154237143Y-86218485D02*
X154275238Y-86180390D01*
X154275238Y-86180390D02*
X154351428Y-86142295D01*
X154351428Y-86142295D02*
X154541905Y-86142295D01*
X154541905Y-86142295D02*
X154656190Y-86180390D01*
X154999048Y-86942295D02*
X154999048Y-86408961D01*
X154999048Y-86142295D02*
X154960952Y-86180390D01*
X154960952Y-86180390D02*
X154999048Y-86218485D01*
X154999048Y-86218485D02*
X155037143Y-86180390D01*
X155037143Y-86180390D02*
X154999048Y-86142295D01*
X154999048Y-86142295D02*
X154999048Y-86218485D01*
X155722857Y-86408961D02*
X155722857Y-87056580D01*
X155722857Y-87056580D02*
X155684762Y-87132771D01*
X155684762Y-87132771D02*
X155646666Y-87170866D01*
X155646666Y-87170866D02*
X155570476Y-87208961D01*
X155570476Y-87208961D02*
X155456190Y-87208961D01*
X155456190Y-87208961D02*
X155380000Y-87170866D01*
X155722857Y-86904200D02*
X155646666Y-86942295D01*
X155646666Y-86942295D02*
X155494285Y-86942295D01*
X155494285Y-86942295D02*
X155418095Y-86904200D01*
X155418095Y-86904200D02*
X155380000Y-86866104D01*
X155380000Y-86866104D02*
X155341904Y-86789914D01*
X155341904Y-86789914D02*
X155341904Y-86561342D01*
X155341904Y-86561342D02*
X155380000Y-86485152D01*
X155380000Y-86485152D02*
X155418095Y-86447057D01*
X155418095Y-86447057D02*
X155494285Y-86408961D01*
X155494285Y-86408961D02*
X155646666Y-86408961D01*
X155646666Y-86408961D02*
X155722857Y-86447057D01*
D13*
X125900000Y-84215228D02*
X125871428Y-84243800D01*
X125871428Y-84243800D02*
X125785714Y-84272371D01*
X125785714Y-84272371D02*
X125728571Y-84272371D01*
X125728571Y-84272371D02*
X125642857Y-84243800D01*
X125642857Y-84243800D02*
X125585714Y-84186657D01*
X125585714Y-84186657D02*
X125557143Y-84129514D01*
X125557143Y-84129514D02*
X125528571Y-84015228D01*
X125528571Y-84015228D02*
X125528571Y-83929514D01*
X125528571Y-83929514D02*
X125557143Y-83815228D01*
X125557143Y-83815228D02*
X125585714Y-83758085D01*
X125585714Y-83758085D02*
X125642857Y-83700942D01*
X125642857Y-83700942D02*
X125728571Y-83672371D01*
X125728571Y-83672371D02*
X125785714Y-83672371D01*
X125785714Y-83672371D02*
X125871428Y-83700942D01*
X125871428Y-83700942D02*
X125900000Y-83729514D01*
X126442857Y-83672371D02*
X126157143Y-83672371D01*
X126157143Y-83672371D02*
X126128571Y-83958085D01*
X126128571Y-83958085D02*
X126157143Y-83929514D01*
X126157143Y-83929514D02*
X126214286Y-83900942D01*
X126214286Y-83900942D02*
X126357143Y-83900942D01*
X126357143Y-83900942D02*
X126414286Y-83929514D01*
X126414286Y-83929514D02*
X126442857Y-83958085D01*
X126442857Y-83958085D02*
X126471428Y-84015228D01*
X126471428Y-84015228D02*
X126471428Y-84158085D01*
X126471428Y-84158085D02*
X126442857Y-84215228D01*
X126442857Y-84215228D02*
X126414286Y-84243800D01*
X126414286Y-84243800D02*
X126357143Y-84272371D01*
X126357143Y-84272371D02*
X126214286Y-84272371D01*
X126214286Y-84272371D02*
X126157143Y-84243800D01*
X126157143Y-84243800D02*
X126128571Y-84215228D01*
X136957143Y-86222371D02*
X136957143Y-85622371D01*
X136957143Y-85622371D02*
X137100000Y-85622371D01*
X137100000Y-85622371D02*
X137185714Y-85650942D01*
X137185714Y-85650942D02*
X137242857Y-85708085D01*
X137242857Y-85708085D02*
X137271428Y-85765228D01*
X137271428Y-85765228D02*
X137300000Y-85879514D01*
X137300000Y-85879514D02*
X137300000Y-85965228D01*
X137300000Y-85965228D02*
X137271428Y-86079514D01*
X137271428Y-86079514D02*
X137242857Y-86136657D01*
X137242857Y-86136657D02*
X137185714Y-86193800D01*
X137185714Y-86193800D02*
X137100000Y-86222371D01*
X137100000Y-86222371D02*
X136957143Y-86222371D01*
X137500000Y-85622371D02*
X137871428Y-85622371D01*
X137871428Y-85622371D02*
X137671428Y-85850942D01*
X137671428Y-85850942D02*
X137757143Y-85850942D01*
X137757143Y-85850942D02*
X137814286Y-85879514D01*
X137814286Y-85879514D02*
X137842857Y-85908085D01*
X137842857Y-85908085D02*
X137871428Y-85965228D01*
X137871428Y-85965228D02*
X137871428Y-86108085D01*
X137871428Y-86108085D02*
X137842857Y-86165228D01*
X137842857Y-86165228D02*
X137814286Y-86193800D01*
X137814286Y-86193800D02*
X137757143Y-86222371D01*
X137757143Y-86222371D02*
X137585714Y-86222371D01*
X137585714Y-86222371D02*
X137528571Y-86193800D01*
X137528571Y-86193800D02*
X137500000Y-86165228D01*
X165299999Y-75372371D02*
X165299999Y-75800942D01*
X165299999Y-75800942D02*
X165271428Y-75886657D01*
X165271428Y-75886657D02*
X165214285Y-75943800D01*
X165214285Y-75943800D02*
X165128571Y-75972371D01*
X165128571Y-75972371D02*
X165071428Y-75972371D01*
X165557142Y-75429514D02*
X165585714Y-75400942D01*
X165585714Y-75400942D02*
X165642857Y-75372371D01*
X165642857Y-75372371D02*
X165785714Y-75372371D01*
X165785714Y-75372371D02*
X165842857Y-75400942D01*
X165842857Y-75400942D02*
X165871428Y-75429514D01*
X165871428Y-75429514D02*
X165899999Y-75486657D01*
X165899999Y-75486657D02*
X165899999Y-75543800D01*
X165899999Y-75543800D02*
X165871428Y-75629514D01*
X165871428Y-75629514D02*
X165528571Y-75972371D01*
X165528571Y-75972371D02*
X165899999Y-75972371D01*
X151315228Y-88485714D02*
X151343800Y-88514286D01*
X151343800Y-88514286D02*
X151372371Y-88600000D01*
X151372371Y-88600000D02*
X151372371Y-88657143D01*
X151372371Y-88657143D02*
X151343800Y-88742857D01*
X151343800Y-88742857D02*
X151286657Y-88800000D01*
X151286657Y-88800000D02*
X151229514Y-88828571D01*
X151229514Y-88828571D02*
X151115228Y-88857143D01*
X151115228Y-88857143D02*
X151029514Y-88857143D01*
X151029514Y-88857143D02*
X150915228Y-88828571D01*
X150915228Y-88828571D02*
X150858085Y-88800000D01*
X150858085Y-88800000D02*
X150800942Y-88742857D01*
X150800942Y-88742857D02*
X150772371Y-88657143D01*
X150772371Y-88657143D02*
X150772371Y-88600000D01*
X150772371Y-88600000D02*
X150800942Y-88514286D01*
X150800942Y-88514286D02*
X150829514Y-88485714D01*
X150829514Y-88257143D02*
X150800942Y-88228571D01*
X150800942Y-88228571D02*
X150772371Y-88171429D01*
X150772371Y-88171429D02*
X150772371Y-88028571D01*
X150772371Y-88028571D02*
X150800942Y-87971429D01*
X150800942Y-87971429D02*
X150829514Y-87942857D01*
X150829514Y-87942857D02*
X150886657Y-87914286D01*
X150886657Y-87914286D02*
X150943800Y-87914286D01*
X150943800Y-87914286D02*
X151029514Y-87942857D01*
X151029514Y-87942857D02*
X151372371Y-88285714D01*
X151372371Y-88285714D02*
X151372371Y-87914286D01*
X150829514Y-87685714D02*
X150800942Y-87657142D01*
X150800942Y-87657142D02*
X150772371Y-87600000D01*
X150772371Y-87600000D02*
X150772371Y-87457142D01*
X150772371Y-87457142D02*
X150800942Y-87400000D01*
X150800942Y-87400000D02*
X150829514Y-87371428D01*
X150829514Y-87371428D02*
X150886657Y-87342857D01*
X150886657Y-87342857D02*
X150943800Y-87342857D01*
X150943800Y-87342857D02*
X151029514Y-87371428D01*
X151029514Y-87371428D02*
X151372371Y-87714285D01*
X151372371Y-87714285D02*
X151372371Y-87342857D01*
X151055357Y-90529514D02*
X150998214Y-90500942D01*
X150998214Y-90500942D02*
X150941071Y-90443800D01*
X150941071Y-90443800D02*
X150855357Y-90358085D01*
X150855357Y-90358085D02*
X150798214Y-90329514D01*
X150798214Y-90329514D02*
X150741071Y-90329514D01*
X150769642Y-90472371D02*
X150712500Y-90443800D01*
X150712500Y-90443800D02*
X150655357Y-90386657D01*
X150655357Y-90386657D02*
X150626785Y-90272371D01*
X150626785Y-90272371D02*
X150626785Y-90072371D01*
X150626785Y-90072371D02*
X150655357Y-89958085D01*
X150655357Y-89958085D02*
X150712500Y-89900942D01*
X150712500Y-89900942D02*
X150769642Y-89872371D01*
X150769642Y-89872371D02*
X150883928Y-89872371D01*
X150883928Y-89872371D02*
X150941071Y-89900942D01*
X150941071Y-89900942D02*
X150998214Y-89958085D01*
X150998214Y-89958085D02*
X151026785Y-90072371D01*
X151026785Y-90072371D02*
X151026785Y-90272371D01*
X151026785Y-90272371D02*
X150998214Y-90386657D01*
X150998214Y-90386657D02*
X150941071Y-90443800D01*
X150941071Y-90443800D02*
X150883928Y-90472371D01*
X150883928Y-90472371D02*
X150769642Y-90472371D01*
X151598213Y-90472371D02*
X151255356Y-90472371D01*
X151426785Y-90472371D02*
X151426785Y-89872371D01*
X151426785Y-89872371D02*
X151369642Y-89958085D01*
X151369642Y-89958085D02*
X151312499Y-90015228D01*
X151312499Y-90015228D02*
X151255356Y-90043800D01*
X152827728Y-95785714D02*
X152856300Y-95814286D01*
X152856300Y-95814286D02*
X152884871Y-95900000D01*
X152884871Y-95900000D02*
X152884871Y-95957143D01*
X152884871Y-95957143D02*
X152856300Y-96042857D01*
X152856300Y-96042857D02*
X152799157Y-96100000D01*
X152799157Y-96100000D02*
X152742014Y-96128571D01*
X152742014Y-96128571D02*
X152627728Y-96157143D01*
X152627728Y-96157143D02*
X152542014Y-96157143D01*
X152542014Y-96157143D02*
X152427728Y-96128571D01*
X152427728Y-96128571D02*
X152370585Y-96100000D01*
X152370585Y-96100000D02*
X152313442Y-96042857D01*
X152313442Y-96042857D02*
X152284871Y-95957143D01*
X152284871Y-95957143D02*
X152284871Y-95900000D01*
X152284871Y-95900000D02*
X152313442Y-95814286D01*
X152313442Y-95814286D02*
X152342014Y-95785714D01*
X152884871Y-95214286D02*
X152884871Y-95557143D01*
X152884871Y-95385714D02*
X152284871Y-95385714D01*
X152284871Y-95385714D02*
X152370585Y-95442857D01*
X152370585Y-95442857D02*
X152427728Y-95500000D01*
X152427728Y-95500000D02*
X152456300Y-95557143D01*
X152284871Y-94671428D02*
X152284871Y-94957142D01*
X152284871Y-94957142D02*
X152570585Y-94985714D01*
X152570585Y-94985714D02*
X152542014Y-94957142D01*
X152542014Y-94957142D02*
X152513442Y-94900000D01*
X152513442Y-94900000D02*
X152513442Y-94757142D01*
X152513442Y-94757142D02*
X152542014Y-94700000D01*
X152542014Y-94700000D02*
X152570585Y-94671428D01*
X152570585Y-94671428D02*
X152627728Y-94642857D01*
X152627728Y-94642857D02*
X152770585Y-94642857D01*
X152770585Y-94642857D02*
X152827728Y-94671428D01*
X152827728Y-94671428D02*
X152856300Y-94700000D01*
X152856300Y-94700000D02*
X152884871Y-94757142D01*
X152884871Y-94757142D02*
X152884871Y-94900000D01*
X152884871Y-94900000D02*
X152856300Y-94957142D01*
X152856300Y-94957142D02*
X152827728Y-94985714D01*
X122077728Y-76799999D02*
X122106300Y-76828571D01*
X122106300Y-76828571D02*
X122134871Y-76914285D01*
X122134871Y-76914285D02*
X122134871Y-76971428D01*
X122134871Y-76971428D02*
X122106300Y-77057142D01*
X122106300Y-77057142D02*
X122049157Y-77114285D01*
X122049157Y-77114285D02*
X121992014Y-77142856D01*
X121992014Y-77142856D02*
X121877728Y-77171428D01*
X121877728Y-77171428D02*
X121792014Y-77171428D01*
X121792014Y-77171428D02*
X121677728Y-77142856D01*
X121677728Y-77142856D02*
X121620585Y-77114285D01*
X121620585Y-77114285D02*
X121563442Y-77057142D01*
X121563442Y-77057142D02*
X121534871Y-76971428D01*
X121534871Y-76971428D02*
X121534871Y-76914285D01*
X121534871Y-76914285D02*
X121563442Y-76828571D01*
X121563442Y-76828571D02*
X121592014Y-76799999D01*
X121534871Y-76599999D02*
X121534871Y-76199999D01*
X121534871Y-76199999D02*
X122134871Y-76457142D01*
X148857143Y-86222371D02*
X148857143Y-85622371D01*
X148857143Y-85622371D02*
X149000000Y-85622371D01*
X149000000Y-85622371D02*
X149085714Y-85650942D01*
X149085714Y-85650942D02*
X149142857Y-85708085D01*
X149142857Y-85708085D02*
X149171428Y-85765228D01*
X149171428Y-85765228D02*
X149200000Y-85879514D01*
X149200000Y-85879514D02*
X149200000Y-85965228D01*
X149200000Y-85965228D02*
X149171428Y-86079514D01*
X149171428Y-86079514D02*
X149142857Y-86136657D01*
X149142857Y-86136657D02*
X149085714Y-86193800D01*
X149085714Y-86193800D02*
X149000000Y-86222371D01*
X149000000Y-86222371D02*
X148857143Y-86222371D01*
X149428571Y-85679514D02*
X149457143Y-85650942D01*
X149457143Y-85650942D02*
X149514286Y-85622371D01*
X149514286Y-85622371D02*
X149657143Y-85622371D01*
X149657143Y-85622371D02*
X149714286Y-85650942D01*
X149714286Y-85650942D02*
X149742857Y-85679514D01*
X149742857Y-85679514D02*
X149771428Y-85736657D01*
X149771428Y-85736657D02*
X149771428Y-85793800D01*
X149771428Y-85793800D02*
X149742857Y-85879514D01*
X149742857Y-85879514D02*
X149400000Y-86222371D01*
X149400000Y-86222371D02*
X149771428Y-86222371D01*
X137314285Y-83886657D02*
X137314285Y-84172371D01*
X137114285Y-83572371D02*
X137314285Y-83886657D01*
X137314285Y-83886657D02*
X137514285Y-83572371D01*
X138028571Y-84172371D02*
X137685714Y-84172371D01*
X137857143Y-84172371D02*
X137857143Y-83572371D01*
X137857143Y-83572371D02*
X137800000Y-83658085D01*
X137800000Y-83658085D02*
X137742857Y-83715228D01*
X137742857Y-83715228D02*
X137685714Y-83743800D01*
X163251785Y-94845228D02*
X163223213Y-94873800D01*
X163223213Y-94873800D02*
X163137499Y-94902371D01*
X163137499Y-94902371D02*
X163080356Y-94902371D01*
X163080356Y-94902371D02*
X162994642Y-94873800D01*
X162994642Y-94873800D02*
X162937499Y-94816657D01*
X162937499Y-94816657D02*
X162908928Y-94759514D01*
X162908928Y-94759514D02*
X162880356Y-94645228D01*
X162880356Y-94645228D02*
X162880356Y-94559514D01*
X162880356Y-94559514D02*
X162908928Y-94445228D01*
X162908928Y-94445228D02*
X162937499Y-94388085D01*
X162937499Y-94388085D02*
X162994642Y-94330942D01*
X162994642Y-94330942D02*
X163080356Y-94302371D01*
X163080356Y-94302371D02*
X163137499Y-94302371D01*
X163137499Y-94302371D02*
X163223213Y-94330942D01*
X163223213Y-94330942D02*
X163251785Y-94359514D01*
X163823213Y-94902371D02*
X163480356Y-94902371D01*
X163651785Y-94902371D02*
X163651785Y-94302371D01*
X163651785Y-94302371D02*
X163594642Y-94388085D01*
X163594642Y-94388085D02*
X163537499Y-94445228D01*
X163537499Y-94445228D02*
X163480356Y-94473800D01*
X164108928Y-94902371D02*
X164223214Y-94902371D01*
X164223214Y-94902371D02*
X164280357Y-94873800D01*
X164280357Y-94873800D02*
X164308928Y-94845228D01*
X164308928Y-94845228D02*
X164366071Y-94759514D01*
X164366071Y-94759514D02*
X164394642Y-94645228D01*
X164394642Y-94645228D02*
X164394642Y-94416657D01*
X164394642Y-94416657D02*
X164366071Y-94359514D01*
X164366071Y-94359514D02*
X164337500Y-94330942D01*
X164337500Y-94330942D02*
X164280357Y-94302371D01*
X164280357Y-94302371D02*
X164166071Y-94302371D01*
X164166071Y-94302371D02*
X164108928Y-94330942D01*
X164108928Y-94330942D02*
X164080357Y-94359514D01*
X164080357Y-94359514D02*
X164051785Y-94416657D01*
X164051785Y-94416657D02*
X164051785Y-94559514D01*
X164051785Y-94559514D02*
X164080357Y-94616657D01*
X164080357Y-94616657D02*
X164108928Y-94645228D01*
X164108928Y-94645228D02*
X164166071Y-94673800D01*
X164166071Y-94673800D02*
X164280357Y-94673800D01*
X164280357Y-94673800D02*
X164337500Y-94645228D01*
X164337500Y-94645228D02*
X164366071Y-94616657D01*
X164366071Y-94616657D02*
X164394642Y-94559514D01*
X135515228Y-73399999D02*
X135543800Y-73428571D01*
X135543800Y-73428571D02*
X135572371Y-73514285D01*
X135572371Y-73514285D02*
X135572371Y-73571428D01*
X135572371Y-73571428D02*
X135543800Y-73657142D01*
X135543800Y-73657142D02*
X135486657Y-73714285D01*
X135486657Y-73714285D02*
X135429514Y-73742856D01*
X135429514Y-73742856D02*
X135315228Y-73771428D01*
X135315228Y-73771428D02*
X135229514Y-73771428D01*
X135229514Y-73771428D02*
X135115228Y-73742856D01*
X135115228Y-73742856D02*
X135058085Y-73714285D01*
X135058085Y-73714285D02*
X135000942Y-73657142D01*
X135000942Y-73657142D02*
X134972371Y-73571428D01*
X134972371Y-73571428D02*
X134972371Y-73514285D01*
X134972371Y-73514285D02*
X135000942Y-73428571D01*
X135000942Y-73428571D02*
X135029514Y-73399999D01*
X135229514Y-73057142D02*
X135200942Y-73114285D01*
X135200942Y-73114285D02*
X135172371Y-73142856D01*
X135172371Y-73142856D02*
X135115228Y-73171428D01*
X135115228Y-73171428D02*
X135086657Y-73171428D01*
X135086657Y-73171428D02*
X135029514Y-73142856D01*
X135029514Y-73142856D02*
X135000942Y-73114285D01*
X135000942Y-73114285D02*
X134972371Y-73057142D01*
X134972371Y-73057142D02*
X134972371Y-72942856D01*
X134972371Y-72942856D02*
X135000942Y-72885714D01*
X135000942Y-72885714D02*
X135029514Y-72857142D01*
X135029514Y-72857142D02*
X135086657Y-72828571D01*
X135086657Y-72828571D02*
X135115228Y-72828571D01*
X135115228Y-72828571D02*
X135172371Y-72857142D01*
X135172371Y-72857142D02*
X135200942Y-72885714D01*
X135200942Y-72885714D02*
X135229514Y-72942856D01*
X135229514Y-72942856D02*
X135229514Y-73057142D01*
X135229514Y-73057142D02*
X135258085Y-73114285D01*
X135258085Y-73114285D02*
X135286657Y-73142856D01*
X135286657Y-73142856D02*
X135343800Y-73171428D01*
X135343800Y-73171428D02*
X135458085Y-73171428D01*
X135458085Y-73171428D02*
X135515228Y-73142856D01*
X135515228Y-73142856D02*
X135543800Y-73114285D01*
X135543800Y-73114285D02*
X135572371Y-73057142D01*
X135572371Y-73057142D02*
X135572371Y-72942856D01*
X135572371Y-72942856D02*
X135543800Y-72885714D01*
X135543800Y-72885714D02*
X135515228Y-72857142D01*
X135515228Y-72857142D02*
X135458085Y-72828571D01*
X135458085Y-72828571D02*
X135343800Y-72828571D01*
X135343800Y-72828571D02*
X135286657Y-72857142D01*
X135286657Y-72857142D02*
X135258085Y-72885714D01*
X135258085Y-72885714D02*
X135229514Y-72942856D01*
X137815228Y-73399999D02*
X137843800Y-73428571D01*
X137843800Y-73428571D02*
X137872371Y-73514285D01*
X137872371Y-73514285D02*
X137872371Y-73571428D01*
X137872371Y-73571428D02*
X137843800Y-73657142D01*
X137843800Y-73657142D02*
X137786657Y-73714285D01*
X137786657Y-73714285D02*
X137729514Y-73742856D01*
X137729514Y-73742856D02*
X137615228Y-73771428D01*
X137615228Y-73771428D02*
X137529514Y-73771428D01*
X137529514Y-73771428D02*
X137415228Y-73742856D01*
X137415228Y-73742856D02*
X137358085Y-73714285D01*
X137358085Y-73714285D02*
X137300942Y-73657142D01*
X137300942Y-73657142D02*
X137272371Y-73571428D01*
X137272371Y-73571428D02*
X137272371Y-73514285D01*
X137272371Y-73514285D02*
X137300942Y-73428571D01*
X137300942Y-73428571D02*
X137329514Y-73399999D01*
X137872371Y-73114285D02*
X137872371Y-72999999D01*
X137872371Y-72999999D02*
X137843800Y-72942856D01*
X137843800Y-72942856D02*
X137815228Y-72914285D01*
X137815228Y-72914285D02*
X137729514Y-72857142D01*
X137729514Y-72857142D02*
X137615228Y-72828571D01*
X137615228Y-72828571D02*
X137386657Y-72828571D01*
X137386657Y-72828571D02*
X137329514Y-72857142D01*
X137329514Y-72857142D02*
X137300942Y-72885714D01*
X137300942Y-72885714D02*
X137272371Y-72942856D01*
X137272371Y-72942856D02*
X137272371Y-73057142D01*
X137272371Y-73057142D02*
X137300942Y-73114285D01*
X137300942Y-73114285D02*
X137329514Y-73142856D01*
X137329514Y-73142856D02*
X137386657Y-73171428D01*
X137386657Y-73171428D02*
X137529514Y-73171428D01*
X137529514Y-73171428D02*
X137586657Y-73142856D01*
X137586657Y-73142856D02*
X137615228Y-73114285D01*
X137615228Y-73114285D02*
X137643800Y-73057142D01*
X137643800Y-73057142D02*
X137643800Y-72942856D01*
X137643800Y-72942856D02*
X137615228Y-72885714D01*
X137615228Y-72885714D02*
X137586657Y-72857142D01*
X137586657Y-72857142D02*
X137529514Y-72828571D01*
X137372371Y-91849999D02*
X137086657Y-92049999D01*
X137372371Y-92192856D02*
X136772371Y-92192856D01*
X136772371Y-92192856D02*
X136772371Y-91964285D01*
X136772371Y-91964285D02*
X136800942Y-91907142D01*
X136800942Y-91907142D02*
X136829514Y-91878571D01*
X136829514Y-91878571D02*
X136886657Y-91849999D01*
X136886657Y-91849999D02*
X136972371Y-91849999D01*
X136972371Y-91849999D02*
X137029514Y-91878571D01*
X137029514Y-91878571D02*
X137058085Y-91907142D01*
X137058085Y-91907142D02*
X137086657Y-91964285D01*
X137086657Y-91964285D02*
X137086657Y-92192856D01*
X137029514Y-91507142D02*
X137000942Y-91564285D01*
X137000942Y-91564285D02*
X136972371Y-91592856D01*
X136972371Y-91592856D02*
X136915228Y-91621428D01*
X136915228Y-91621428D02*
X136886657Y-91621428D01*
X136886657Y-91621428D02*
X136829514Y-91592856D01*
X136829514Y-91592856D02*
X136800942Y-91564285D01*
X136800942Y-91564285D02*
X136772371Y-91507142D01*
X136772371Y-91507142D02*
X136772371Y-91392856D01*
X136772371Y-91392856D02*
X136800942Y-91335714D01*
X136800942Y-91335714D02*
X136829514Y-91307142D01*
X136829514Y-91307142D02*
X136886657Y-91278571D01*
X136886657Y-91278571D02*
X136915228Y-91278571D01*
X136915228Y-91278571D02*
X136972371Y-91307142D01*
X136972371Y-91307142D02*
X137000942Y-91335714D01*
X137000942Y-91335714D02*
X137029514Y-91392856D01*
X137029514Y-91392856D02*
X137029514Y-91507142D01*
X137029514Y-91507142D02*
X137058085Y-91564285D01*
X137058085Y-91564285D02*
X137086657Y-91592856D01*
X137086657Y-91592856D02*
X137143800Y-91621428D01*
X137143800Y-91621428D02*
X137258085Y-91621428D01*
X137258085Y-91621428D02*
X137315228Y-91592856D01*
X137315228Y-91592856D02*
X137343800Y-91564285D01*
X137343800Y-91564285D02*
X137372371Y-91507142D01*
X137372371Y-91507142D02*
X137372371Y-91392856D01*
X137372371Y-91392856D02*
X137343800Y-91335714D01*
X137343800Y-91335714D02*
X137315228Y-91307142D01*
X137315228Y-91307142D02*
X137258085Y-91278571D01*
X137258085Y-91278571D02*
X137143800Y-91278571D01*
X137143800Y-91278571D02*
X137086657Y-91307142D01*
X137086657Y-91307142D02*
X137058085Y-91335714D01*
X137058085Y-91335714D02*
X137029514Y-91392856D01*
X122100000Y-82872371D02*
X121814286Y-82872371D01*
X121814286Y-82872371D02*
X121814286Y-82272371D01*
X122614285Y-82872371D02*
X122271428Y-82872371D01*
X122442857Y-82872371D02*
X122442857Y-82272371D01*
X122442857Y-82272371D02*
X122385714Y-82358085D01*
X122385714Y-82358085D02*
X122328571Y-82415228D01*
X122328571Y-82415228D02*
X122271428Y-82443800D01*
X116472371Y-88119999D02*
X116186657Y-88319999D01*
X116472371Y-88462856D02*
X115872371Y-88462856D01*
X115872371Y-88462856D02*
X115872371Y-88234285D01*
X115872371Y-88234285D02*
X115900942Y-88177142D01*
X115900942Y-88177142D02*
X115929514Y-88148571D01*
X115929514Y-88148571D02*
X115986657Y-88119999D01*
X115986657Y-88119999D02*
X116072371Y-88119999D01*
X116072371Y-88119999D02*
X116129514Y-88148571D01*
X116129514Y-88148571D02*
X116158085Y-88177142D01*
X116158085Y-88177142D02*
X116186657Y-88234285D01*
X116186657Y-88234285D02*
X116186657Y-88462856D01*
X115929514Y-87891428D02*
X115900942Y-87862856D01*
X115900942Y-87862856D02*
X115872371Y-87805714D01*
X115872371Y-87805714D02*
X115872371Y-87662856D01*
X115872371Y-87662856D02*
X115900942Y-87605714D01*
X115900942Y-87605714D02*
X115929514Y-87577142D01*
X115929514Y-87577142D02*
X115986657Y-87548571D01*
X115986657Y-87548571D02*
X116043800Y-87548571D01*
X116043800Y-87548571D02*
X116129514Y-87577142D01*
X116129514Y-87577142D02*
X116472371Y-87919999D01*
X116472371Y-87919999D02*
X116472371Y-87548571D01*
X129162500Y-78765228D02*
X129133928Y-78793800D01*
X129133928Y-78793800D02*
X129048214Y-78822371D01*
X129048214Y-78822371D02*
X128991071Y-78822371D01*
X128991071Y-78822371D02*
X128905357Y-78793800D01*
X128905357Y-78793800D02*
X128848214Y-78736657D01*
X128848214Y-78736657D02*
X128819643Y-78679514D01*
X128819643Y-78679514D02*
X128791071Y-78565228D01*
X128791071Y-78565228D02*
X128791071Y-78479514D01*
X128791071Y-78479514D02*
X128819643Y-78365228D01*
X128819643Y-78365228D02*
X128848214Y-78308085D01*
X128848214Y-78308085D02*
X128905357Y-78250942D01*
X128905357Y-78250942D02*
X128991071Y-78222371D01*
X128991071Y-78222371D02*
X129048214Y-78222371D01*
X129048214Y-78222371D02*
X129133928Y-78250942D01*
X129133928Y-78250942D02*
X129162500Y-78279514D01*
X129676786Y-78222371D02*
X129562500Y-78222371D01*
X129562500Y-78222371D02*
X129505357Y-78250942D01*
X129505357Y-78250942D02*
X129476786Y-78279514D01*
X129476786Y-78279514D02*
X129419643Y-78365228D01*
X129419643Y-78365228D02*
X129391071Y-78479514D01*
X129391071Y-78479514D02*
X129391071Y-78708085D01*
X129391071Y-78708085D02*
X129419643Y-78765228D01*
X129419643Y-78765228D02*
X129448214Y-78793800D01*
X129448214Y-78793800D02*
X129505357Y-78822371D01*
X129505357Y-78822371D02*
X129619643Y-78822371D01*
X129619643Y-78822371D02*
X129676786Y-78793800D01*
X129676786Y-78793800D02*
X129705357Y-78765228D01*
X129705357Y-78765228D02*
X129733928Y-78708085D01*
X129733928Y-78708085D02*
X129733928Y-78565228D01*
X129733928Y-78565228D02*
X129705357Y-78508085D01*
X129705357Y-78508085D02*
X129676786Y-78479514D01*
X129676786Y-78479514D02*
X129619643Y-78450942D01*
X129619643Y-78450942D02*
X129505357Y-78450942D01*
X129505357Y-78450942D02*
X129448214Y-78479514D01*
X129448214Y-78479514D02*
X129419643Y-78508085D01*
X129419643Y-78508085D02*
X129391071Y-78565228D01*
X147515228Y-81385714D02*
X147543800Y-81414286D01*
X147543800Y-81414286D02*
X147572371Y-81500000D01*
X147572371Y-81500000D02*
X147572371Y-81557143D01*
X147572371Y-81557143D02*
X147543800Y-81642857D01*
X147543800Y-81642857D02*
X147486657Y-81700000D01*
X147486657Y-81700000D02*
X147429514Y-81728571D01*
X147429514Y-81728571D02*
X147315228Y-81757143D01*
X147315228Y-81757143D02*
X147229514Y-81757143D01*
X147229514Y-81757143D02*
X147115228Y-81728571D01*
X147115228Y-81728571D02*
X147058085Y-81700000D01*
X147058085Y-81700000D02*
X147000942Y-81642857D01*
X147000942Y-81642857D02*
X146972371Y-81557143D01*
X146972371Y-81557143D02*
X146972371Y-81500000D01*
X146972371Y-81500000D02*
X147000942Y-81414286D01*
X147000942Y-81414286D02*
X147029514Y-81385714D01*
X147572371Y-80814286D02*
X147572371Y-81157143D01*
X147572371Y-80985714D02*
X146972371Y-80985714D01*
X146972371Y-80985714D02*
X147058085Y-81042857D01*
X147058085Y-81042857D02*
X147115228Y-81100000D01*
X147115228Y-81100000D02*
X147143800Y-81157143D01*
X146972371Y-80614285D02*
X146972371Y-80242857D01*
X146972371Y-80242857D02*
X147200942Y-80442857D01*
X147200942Y-80442857D02*
X147200942Y-80357142D01*
X147200942Y-80357142D02*
X147229514Y-80300000D01*
X147229514Y-80300000D02*
X147258085Y-80271428D01*
X147258085Y-80271428D02*
X147315228Y-80242857D01*
X147315228Y-80242857D02*
X147458085Y-80242857D01*
X147458085Y-80242857D02*
X147515228Y-80271428D01*
X147515228Y-80271428D02*
X147543800Y-80300000D01*
X147543800Y-80300000D02*
X147572371Y-80357142D01*
X147572371Y-80357142D02*
X147572371Y-80528571D01*
X147572371Y-80528571D02*
X147543800Y-80585714D01*
X147543800Y-80585714D02*
X147515228Y-80614285D01*
X153612500Y-86072371D02*
X153412500Y-85786657D01*
X153269643Y-86072371D02*
X153269643Y-85472371D01*
X153269643Y-85472371D02*
X153498214Y-85472371D01*
X153498214Y-85472371D02*
X153555357Y-85500942D01*
X153555357Y-85500942D02*
X153583928Y-85529514D01*
X153583928Y-85529514D02*
X153612500Y-85586657D01*
X153612500Y-85586657D02*
X153612500Y-85672371D01*
X153612500Y-85672371D02*
X153583928Y-85729514D01*
X153583928Y-85729514D02*
X153555357Y-85758085D01*
X153555357Y-85758085D02*
X153498214Y-85786657D01*
X153498214Y-85786657D02*
X153269643Y-85786657D01*
X153898214Y-86072371D02*
X154012500Y-86072371D01*
X154012500Y-86072371D02*
X154069643Y-86043800D01*
X154069643Y-86043800D02*
X154098214Y-86015228D01*
X154098214Y-86015228D02*
X154155357Y-85929514D01*
X154155357Y-85929514D02*
X154183928Y-85815228D01*
X154183928Y-85815228D02*
X154183928Y-85586657D01*
X154183928Y-85586657D02*
X154155357Y-85529514D01*
X154155357Y-85529514D02*
X154126786Y-85500942D01*
X154126786Y-85500942D02*
X154069643Y-85472371D01*
X154069643Y-85472371D02*
X153955357Y-85472371D01*
X153955357Y-85472371D02*
X153898214Y-85500942D01*
X153898214Y-85500942D02*
X153869643Y-85529514D01*
X153869643Y-85529514D02*
X153841071Y-85586657D01*
X153841071Y-85586657D02*
X153841071Y-85729514D01*
X153841071Y-85729514D02*
X153869643Y-85786657D01*
X153869643Y-85786657D02*
X153898214Y-85815228D01*
X153898214Y-85815228D02*
X153955357Y-85843800D01*
X153955357Y-85843800D02*
X154069643Y-85843800D01*
X154069643Y-85843800D02*
X154126786Y-85815228D01*
X154126786Y-85815228D02*
X154155357Y-85786657D01*
X154155357Y-85786657D02*
X154183928Y-85729514D01*
D10*
X126447618Y-93022295D02*
X126904761Y-93022295D01*
X126676189Y-93822295D02*
X126676189Y-93022295D01*
X127514285Y-93822295D02*
X127514285Y-93403247D01*
X127514285Y-93403247D02*
X127476190Y-93327057D01*
X127476190Y-93327057D02*
X127399999Y-93288961D01*
X127399999Y-93288961D02*
X127247618Y-93288961D01*
X127247618Y-93288961D02*
X127171428Y-93327057D01*
X127514285Y-93784200D02*
X127438094Y-93822295D01*
X127438094Y-93822295D02*
X127247618Y-93822295D01*
X127247618Y-93822295D02*
X127171428Y-93784200D01*
X127171428Y-93784200D02*
X127133332Y-93708009D01*
X127133332Y-93708009D02*
X127133332Y-93631819D01*
X127133332Y-93631819D02*
X127171428Y-93555628D01*
X127171428Y-93555628D02*
X127247618Y-93517533D01*
X127247618Y-93517533D02*
X127438094Y-93517533D01*
X127438094Y-93517533D02*
X127514285Y-93479438D01*
X128238095Y-93288961D02*
X128238095Y-93936580D01*
X128238095Y-93936580D02*
X128200000Y-94012771D01*
X128200000Y-94012771D02*
X128161904Y-94050866D01*
X128161904Y-94050866D02*
X128085714Y-94088961D01*
X128085714Y-94088961D02*
X127971428Y-94088961D01*
X127971428Y-94088961D02*
X127895238Y-94050866D01*
X128238095Y-93784200D02*
X128161904Y-93822295D01*
X128161904Y-93822295D02*
X128009523Y-93822295D01*
X128009523Y-93822295D02*
X127933333Y-93784200D01*
X127933333Y-93784200D02*
X127895238Y-93746104D01*
X127895238Y-93746104D02*
X127857142Y-93669914D01*
X127857142Y-93669914D02*
X127857142Y-93441342D01*
X127857142Y-93441342D02*
X127895238Y-93365152D01*
X127895238Y-93365152D02*
X127933333Y-93327057D01*
X127933333Y-93327057D02*
X128009523Y-93288961D01*
X128009523Y-93288961D02*
X128161904Y-93288961D01*
X128161904Y-93288961D02*
X128238095Y-93327057D01*
D13*
X132800000Y-75042371D02*
X132514286Y-75042371D01*
X132514286Y-75042371D02*
X132514286Y-74442371D01*
X132971428Y-74499514D02*
X133000000Y-74470942D01*
X133000000Y-74470942D02*
X133057143Y-74442371D01*
X133057143Y-74442371D02*
X133200000Y-74442371D01*
X133200000Y-74442371D02*
X133257143Y-74470942D01*
X133257143Y-74470942D02*
X133285714Y-74499514D01*
X133285714Y-74499514D02*
X133314285Y-74556657D01*
X133314285Y-74556657D02*
X133314285Y-74613800D01*
X133314285Y-74613800D02*
X133285714Y-74699514D01*
X133285714Y-74699514D02*
X132942857Y-75042371D01*
X132942857Y-75042371D02*
X133314285Y-75042371D01*
D14*
%TO.C,C10*%
X139390000Y-75359420D02*
X139390000Y-75640580D01*
X140410000Y-75359420D02*
X140410000Y-75640580D01*
%TO.C,C14*%
X134815580Y-86090000D02*
X134534420Y-86090000D01*
X134815580Y-87110000D02*
X134534420Y-87110000D01*
%TO.C,R10*%
X143337258Y-88927500D02*
X142862742Y-88927500D01*
X143337258Y-89972500D02*
X142862742Y-89972500D01*
%TO.C,U7*%
X157412500Y-90690000D02*
X155912500Y-90690000D01*
X157412500Y-90690000D02*
X158912500Y-90690000D01*
X157412500Y-93910000D02*
X155912500Y-93910000D01*
X157412500Y-93910000D02*
X158912500Y-93910000D01*
X159865000Y-94065000D02*
X159385000Y-94065000D01*
X159625000Y-93735000D01*
X159865000Y-94065000D01*
G36*
X159865000Y-94065000D02*
G01*
X159385000Y-94065000D01*
X159625000Y-93735000D01*
X159865000Y-94065000D01*
G37*
%TO.C,C2*%
X125353080Y-78915000D02*
X125071920Y-78915000D01*
X125353080Y-79935000D02*
X125071920Y-79935000D01*
%TO.C,L5*%
X133390000Y-84237221D02*
X133390000Y-84562779D01*
X134410000Y-84237221D02*
X134410000Y-84562779D01*
%TO.C,C17*%
X154802500Y-95540580D02*
X154802500Y-95259420D01*
X155822500Y-95540580D02*
X155822500Y-95259420D01*
%TO.C,R7*%
X137877500Y-94512742D02*
X137877500Y-94987258D01*
X138922500Y-94512742D02*
X138922500Y-94987258D01*
%TO.C,C18*%
X147190000Y-95190580D02*
X147190000Y-94909420D01*
X148210000Y-95190580D02*
X148210000Y-94909420D01*
%TO.C,C16*%
X142959420Y-95890000D02*
X143240580Y-95890000D01*
X142959420Y-96910000D02*
X143240580Y-96910000D01*
%TO.C,R5*%
X148677500Y-91912742D02*
X148677500Y-92387258D01*
X149722500Y-91912742D02*
X149722500Y-92387258D01*
%TO.C,C3*%
X119390000Y-82240580D02*
X119390000Y-81959420D01*
X120410000Y-82240580D02*
X120410000Y-81959420D01*
%TO.C,C12*%
X142490000Y-78434420D02*
X142490000Y-78715580D01*
X143510000Y-78434420D02*
X143510000Y-78715580D01*
%TO.C,U3*%
X128862500Y-80790000D02*
X128062500Y-80790000D01*
X128862500Y-80790000D02*
X129662500Y-80790000D01*
X128862500Y-83910000D02*
X128062500Y-83910000D01*
X128862500Y-83910000D02*
X129662500Y-83910000D01*
X127562500Y-80840000D02*
X127322500Y-80510000D01*
X127802500Y-80510000D01*
X127562500Y-80840000D01*
G36*
X127562500Y-80840000D02*
G01*
X127322500Y-80510000D01*
X127802500Y-80510000D01*
X127562500Y-80840000D01*
G37*
%TO.C,U6*%
X143100000Y-90340000D02*
X140900000Y-90340000D01*
X143100000Y-90340000D02*
X145300000Y-90340000D01*
X143100000Y-95560000D02*
X140900000Y-95560000D01*
X143100000Y-95560000D02*
X145300000Y-95560000D01*
X146240000Y-95690000D02*
X145760000Y-95690000D01*
X146000000Y-95360000D01*
X146240000Y-95690000D01*
G36*
X146240000Y-95690000D02*
G01*
X145760000Y-95690000D01*
X146000000Y-95360000D01*
X146240000Y-95690000D01*
G37*
%TO.C,L3*%
X141090000Y-76849721D02*
X141090000Y-77175279D01*
X142110000Y-76849721D02*
X142110000Y-77175279D01*
%TO.C,C4*%
X123990000Y-82240580D02*
X123990000Y-81959420D01*
X125010000Y-82240580D02*
X125010000Y-81959420D01*
%TO.C,D1*%
X115300000Y-94600000D02*
X115020000Y-94320000D01*
X115300000Y-94320000D01*
X115300000Y-94600000D01*
G36*
X115300000Y-94600000D02*
G01*
X115020000Y-94320000D01*
X115300000Y-94320000D01*
X115300000Y-94600000D01*
G37*
%TO.C,J1*%
X110470000Y-94730000D02*
X110470000Y-84510000D01*
X113130000Y-84510000D02*
X110470000Y-84510000D01*
X113130000Y-94730000D02*
X110470000Y-94730000D01*
X113130000Y-94730000D02*
X113130000Y-84510000D01*
X113130000Y-96000000D02*
X113130000Y-97330000D01*
X113130000Y-97330000D02*
X111800000Y-97330000D01*
%TO.C,R4*%
X119377500Y-78562742D02*
X119377500Y-79037258D01*
X120422500Y-78562742D02*
X120422500Y-79037258D01*
%TO.C,R13*%
X133262742Y-95877500D02*
X133737258Y-95877500D01*
X133262742Y-96922500D02*
X133737258Y-96922500D01*
%TO.C,C1*%
X122340580Y-85510000D02*
X122059420Y-85510000D01*
X122340580Y-86530000D02*
X122059420Y-86530000D01*
%TO.C,R11*%
X146937258Y-88927500D02*
X146462742Y-88927500D01*
X146937258Y-89972500D02*
X146462742Y-89972500D01*
%TO.C,J3*%
X113800000Y-72830000D02*
X115500000Y-72830000D01*
X113800000Y-82170000D02*
X115500000Y-82170000D01*
%TO.C,C23*%
X143240580Y-87440000D02*
X142959420Y-87440000D01*
X143240580Y-88460000D02*
X142959420Y-88460000D01*
%TO.C,C25*%
X139359420Y-87440000D02*
X139640580Y-87440000D01*
X139359420Y-88460000D02*
X139640580Y-88460000D01*
%TO.C,L6*%
X160902500Y-92249721D02*
X160902500Y-92575279D01*
X161922500Y-92249721D02*
X161922500Y-92575279D01*
%TO.C,R6*%
X148677500Y-94812742D02*
X148677500Y-95287258D01*
X149722500Y-94812742D02*
X149722500Y-95287258D01*
%TO.C,C11*%
X149540580Y-77290000D02*
X149259420Y-77290000D01*
X149540580Y-78310000D02*
X149259420Y-78310000D01*
%TO.C,C20*%
X162352500Y-92565580D02*
X162352500Y-92284420D01*
X163372500Y-92565580D02*
X163372500Y-92284420D01*
%TO.C,R3*%
X119377500Y-74237258D02*
X119377500Y-73762742D01*
X120422500Y-74237258D02*
X120422500Y-73762742D01*
%TO.C,C24*%
X146559420Y-87440000D02*
X146840580Y-87440000D01*
X146559420Y-88460000D02*
X146840580Y-88460000D01*
%TO.C,U2*%
X122200000Y-87085000D02*
X120250000Y-87085000D01*
X122200000Y-87085000D02*
X124150000Y-87085000D01*
X122200000Y-95955000D02*
X120250000Y-95955000D01*
X122200000Y-95955000D02*
X124150000Y-95955000D01*
X119500000Y-87150000D02*
X119260000Y-86820000D01*
X119740000Y-86820000D01*
X119500000Y-87150000D01*
G36*
X119500000Y-87150000D02*
G01*
X119260000Y-86820000D01*
X119740000Y-86820000D01*
X119500000Y-87150000D01*
G37*
%TO.C,U4*%
X122952500Y-73890000D02*
X123677500Y-73890000D01*
X122952500Y-74615000D02*
X122952500Y-73890000D01*
X122952500Y-77385000D02*
X122952500Y-78110000D01*
X122952500Y-78110000D02*
X123677500Y-78110000D01*
X126447500Y-73890000D02*
X126932500Y-73890000D01*
X127172500Y-74615000D02*
X127172500Y-74190000D01*
X127172500Y-77385000D02*
X127172500Y-78110000D01*
X127172500Y-78110000D02*
X126447500Y-78110000D01*
X127502500Y-74130000D02*
X127172500Y-73890000D01*
X127502500Y-73650000D01*
X127502500Y-74130000D01*
G36*
X127502500Y-74130000D02*
G01*
X127172500Y-73890000D01*
X127502500Y-73650000D01*
X127502500Y-74130000D01*
G37*
%TO.C,R12*%
X139737258Y-88927500D02*
X139262742Y-88927500D01*
X139737258Y-89972500D02*
X139262742Y-89972500D01*
%TO.C,C21*%
X157553080Y-89090000D02*
X157271920Y-89090000D01*
X157553080Y-90110000D02*
X157271920Y-90110000D01*
%TO.C,R1*%
X151177500Y-81387258D02*
X151177500Y-80912742D01*
X152222500Y-81387258D02*
X152222500Y-80912742D01*
%TO.C,J4*%
X165177500Y-92575000D02*
X165177500Y-93075000D01*
X165177500Y-93075000D02*
X165677500Y-92825000D01*
X165677500Y-92825000D02*
X165177500Y-92575000D01*
X166227500Y-91985000D02*
X166227500Y-90875000D01*
X166227500Y-94775000D02*
X166227500Y-93665000D01*
X169477500Y-91985000D02*
X169477500Y-90875000D01*
X169477500Y-94775000D02*
X169477500Y-93665000D01*
%TO.C,L4*%
X145037221Y-77290000D02*
X145362779Y-77290000D01*
X145037221Y-78310000D02*
X145362779Y-78310000D01*
%TO.C,U5*%
X137700000Y-77190000D02*
X136200000Y-77190000D01*
X137700000Y-77190000D02*
X139200000Y-77190000D01*
X137700000Y-80410000D02*
X136200000Y-80410000D01*
X137700000Y-80410000D02*
X139200000Y-80410000D01*
X140152500Y-80540000D02*
X139672500Y-80540000D01*
X139912500Y-80210000D01*
X140152500Y-80540000D01*
G36*
X140152500Y-80540000D02*
G01*
X139672500Y-80540000D01*
X139912500Y-80210000D01*
X140152500Y-80540000D01*
G37*
%TO.C,C5*%
X125490000Y-82240580D02*
X125490000Y-81959420D01*
X126510000Y-82240580D02*
X126510000Y-81959420D01*
%TO.C,D3*%
X139120000Y-84790000D02*
X140530000Y-84790000D01*
X139120000Y-87110000D02*
X140530000Y-87110000D01*
X140530000Y-84790000D02*
X140530000Y-85450000D01*
X140530000Y-86450000D02*
X140530000Y-87110000D01*
X138750000Y-84810000D02*
X138510000Y-84480000D01*
X138990000Y-84480000D01*
X138750000Y-84810000D01*
G36*
X138750000Y-84810000D02*
G01*
X138510000Y-84480000D01*
X138990000Y-84480000D01*
X138750000Y-84810000D01*
G37*
%TO.C,J2*%
X165177500Y-76750000D02*
X165177500Y-77250000D01*
X165177500Y-77250000D02*
X165677500Y-77000000D01*
X165677500Y-77000000D02*
X165177500Y-76750000D01*
X166227500Y-76160000D02*
X166227500Y-75050000D01*
X166227500Y-78950000D02*
X166227500Y-77840000D01*
X169477500Y-76160000D02*
X169477500Y-75050000D01*
X169477500Y-78950000D02*
X169477500Y-77840000D01*
%TO.C,C22*%
X151802500Y-87959420D02*
X151802500Y-88240580D01*
X152822500Y-87959420D02*
X152822500Y-88240580D01*
%TO.C,Q1*%
X150952500Y-91700000D02*
X150952500Y-91050000D01*
X150952500Y-91700000D02*
X150952500Y-92350000D01*
X154072500Y-91700000D02*
X154072500Y-91050000D01*
X154072500Y-91700000D02*
X154072500Y-92350000D01*
X151002500Y-92862500D02*
X150672500Y-93102500D01*
X150672500Y-92622500D01*
X151002500Y-92862500D01*
G36*
X151002500Y-92862500D02*
G01*
X150672500Y-93102500D01*
X150672500Y-92622500D01*
X151002500Y-92862500D01*
G37*
%TO.C,C15*%
X153302500Y-95540580D02*
X153302500Y-95259420D01*
X154322500Y-95540580D02*
X154322500Y-95259420D01*
%TO.C,C7*%
X121752500Y-78940580D02*
X121752500Y-78659420D01*
X122772500Y-78940580D02*
X122772500Y-78659420D01*
%TO.C,D2*%
X146320000Y-84790000D02*
X147730000Y-84790000D01*
X146320000Y-87110000D02*
X147730000Y-87110000D01*
X147730000Y-84790000D02*
X147730000Y-85450000D01*
X147730000Y-86450000D02*
X147730000Y-87110000D01*
X145950000Y-84810000D02*
X145710000Y-84480000D01*
X146190000Y-84480000D01*
X145950000Y-84810000D01*
G36*
X145950000Y-84810000D02*
G01*
X145710000Y-84480000D01*
X146190000Y-84480000D01*
X145950000Y-84810000D01*
G37*
%TO.C,Y1*%
X138950000Y-80850000D02*
X136250000Y-80850000D01*
X138950000Y-83150000D02*
X138950000Y-80850000D01*
%TO.C,C19*%
X163778080Y-92690000D02*
X163496920Y-92690000D01*
X163778080Y-93710000D02*
X163496920Y-93710000D01*
%TO.C,C8*%
X134790000Y-75359420D02*
X134790000Y-75640580D01*
X135810000Y-75359420D02*
X135810000Y-75640580D01*
%TO.C,C9*%
X137090000Y-75640580D02*
X137090000Y-75359420D01*
X138110000Y-75640580D02*
X138110000Y-75359420D01*
%TO.C,R8*%
X137877500Y-91512742D02*
X137877500Y-91987258D01*
X138922500Y-91512742D02*
X138922500Y-91987258D01*
%TO.C,L1*%
X122037221Y-80790000D02*
X122362779Y-80790000D01*
X122037221Y-81810000D02*
X122362779Y-81810000D01*
%TO.C,R2*%
X116977500Y-87782742D02*
X116977500Y-88257258D01*
X118022500Y-87782742D02*
X118022500Y-88257258D01*
%TO.C,C6*%
X129121920Y-79240000D02*
X129403080Y-79240000D01*
X129121920Y-80260000D02*
X129403080Y-80260000D01*
%TO.C,C13*%
X146790000Y-78434420D02*
X146790000Y-78715580D01*
X147810000Y-78434420D02*
X147810000Y-78715580D01*
%TO.C,R9*%
X151724758Y-85277500D02*
X151250242Y-85277500D01*
X151724758Y-86322500D02*
X151250242Y-86322500D01*
%TO.C,L2*%
X132737221Y-75690000D02*
X133062779Y-75690000D01*
X132737221Y-76710000D02*
X133062779Y-76710000D01*
%TD*%
%LPC*%
D15*
%TO.C,C10*%
X139900000Y-74725000D03*
X139900000Y-76275000D03*
%TD*%
D16*
%TO.C,C14*%
X135450000Y-86600000D03*
X133900000Y-86600000D03*
%TD*%
D17*
%TO.C,R10*%
X143925000Y-89450000D03*
X142275000Y-89450000D03*
%TD*%
D18*
%TO.C,U7*%
X159525000Y-93275000D03*
X159525000Y-92625000D03*
X159525000Y-91975000D03*
X159525000Y-91325000D03*
X155300000Y-91325000D03*
X155300000Y-91975000D03*
X155300000Y-92625000D03*
X155300000Y-93275000D03*
%TD*%
D16*
%TO.C,C2*%
X125987500Y-79425000D03*
X124437500Y-79425000D03*
%TD*%
D19*
%TO.C,L5*%
X133900000Y-83612500D03*
X133900000Y-85187500D03*
%TD*%
D20*
%TO.C,TP2*%
X129580000Y-96000000D03*
%TD*%
D21*
%TO.C,C17*%
X155312500Y-96175000D03*
X155312500Y-94625000D03*
%TD*%
D22*
%TO.C,R7*%
X138400000Y-93925000D03*
X138400000Y-95575000D03*
%TD*%
D21*
%TO.C,C18*%
X147700000Y-95825000D03*
X147700000Y-94275000D03*
%TD*%
D23*
%TO.C,C16*%
X142325000Y-96400000D03*
X143875000Y-96400000D03*
%TD*%
D22*
%TO.C,R5*%
X149200000Y-91325000D03*
X149200000Y-92975000D03*
%TD*%
D21*
%TO.C,C3*%
X119900000Y-82875000D03*
X119900000Y-81325000D03*
%TD*%
D15*
%TO.C,C12*%
X143000000Y-77800000D03*
X143000000Y-79350000D03*
%TD*%
D24*
%TO.C,U3*%
X127725000Y-81400000D03*
X127725000Y-82350000D03*
X127725000Y-83300000D03*
X130000000Y-83300000D03*
X130000000Y-81400000D03*
%TD*%
D25*
%TO.C,U6*%
X145962500Y-94900000D03*
X145962500Y-94250000D03*
X145962500Y-93600000D03*
X145962500Y-92950000D03*
X145962500Y-92300000D03*
X145962500Y-91650000D03*
X145962500Y-91000000D03*
X140237500Y-91000000D03*
X140237500Y-91650000D03*
X140237500Y-92300000D03*
X140237500Y-92950000D03*
X140237500Y-93600000D03*
X140237500Y-94250000D03*
X140237500Y-94900000D03*
%TD*%
D19*
%TO.C,L3*%
X141600000Y-76225000D03*
X141600000Y-77800000D03*
%TD*%
D21*
%TO.C,C4*%
X124500000Y-82875000D03*
X124500000Y-81325000D03*
%TD*%
D26*
%TO.C,D1*%
X115950000Y-93320000D03*
X115950000Y-90520000D03*
X117450000Y-93320000D03*
X117450000Y-90520000D03*
%TD*%
D27*
%TO.C,J1*%
X111800000Y-96000000D03*
D28*
X111800000Y-93460000D03*
X111800000Y-90920000D03*
X111800000Y-88380000D03*
X111800000Y-85840000D03*
%TD*%
D29*
%TO.C,H1*%
X167000000Y-85000000D03*
%TD*%
D20*
%TO.C,TP5*%
X134660000Y-90920000D03*
%TD*%
D22*
%TO.C,R4*%
X119900000Y-77975000D03*
X119900000Y-79625000D03*
%TD*%
D30*
%TO.C,R13*%
X132675000Y-96400000D03*
X134325000Y-96400000D03*
%TD*%
D16*
%TO.C,C1*%
X122975000Y-86020000D03*
X121425000Y-86020000D03*
%TD*%
D31*
%TO.C,U1*%
X153340000Y-77825000D03*
X159260000Y-77825000D03*
X159260000Y-82475000D03*
X153340000Y-82475000D03*
D32*
X156300000Y-80150000D03*
%TD*%
D17*
%TO.C,R11*%
X147525000Y-89450000D03*
X145875000Y-89450000D03*
%TD*%
D33*
%TO.C,J3*%
X116305000Y-74610000D03*
X116305000Y-80390000D03*
D34*
X117380000Y-74300000D03*
X117380000Y-75100000D03*
D35*
X117380000Y-76250000D03*
X117380000Y-77250000D03*
X117380000Y-77750000D03*
X117380000Y-78750000D03*
D34*
X117380000Y-79900000D03*
X117380000Y-80700000D03*
X117380000Y-80700000D03*
X117380000Y-79900000D03*
D35*
X117380000Y-79250000D03*
X117380000Y-78250000D03*
X117380000Y-76750000D03*
X117380000Y-75750000D03*
D34*
X117380000Y-75100000D03*
X117380000Y-74300000D03*
D36*
X116805000Y-73180000D03*
D37*
X112625000Y-73180000D03*
D36*
X116805000Y-81820000D03*
D37*
X112625000Y-81820000D03*
%TD*%
D16*
%TO.C,C23*%
X143875000Y-87950000D03*
X142325000Y-87950000D03*
%TD*%
D23*
%TO.C,C25*%
X138725000Y-87950000D03*
X140275000Y-87950000D03*
%TD*%
D19*
%TO.C,L6*%
X161412500Y-91625000D03*
X161412500Y-93200000D03*
%TD*%
D22*
%TO.C,R6*%
X149200000Y-94225000D03*
X149200000Y-95875000D03*
%TD*%
D16*
%TO.C,C11*%
X150175000Y-77800000D03*
X148625000Y-77800000D03*
%TD*%
D21*
%TO.C,C20*%
X162862500Y-93200000D03*
X162862500Y-91650000D03*
%TD*%
D38*
%TO.C,R3*%
X119900000Y-74825000D03*
X119900000Y-73175000D03*
%TD*%
D23*
%TO.C,C24*%
X145925000Y-87950000D03*
X147475000Y-87950000D03*
%TD*%
D20*
%TO.C,TP1*%
X129580000Y-88380000D03*
%TD*%
D39*
%TO.C,U2*%
X119725000Y-87710000D03*
X119725000Y-88980000D03*
X119725000Y-90250000D03*
X119725000Y-91520000D03*
X119725000Y-92790000D03*
X119725000Y-94060000D03*
X119725000Y-95330000D03*
X124675000Y-95330000D03*
X124675000Y-94060000D03*
X124675000Y-92790000D03*
X124675000Y-91520000D03*
X124675000Y-90250000D03*
X124675000Y-88980000D03*
X124675000Y-87710000D03*
%TD*%
D40*
%TO.C,U4*%
X126062500Y-74062500D03*
X125562500Y-74062500D03*
X125062500Y-74062500D03*
X124562500Y-74062500D03*
X124062500Y-74062500D03*
D41*
X123125000Y-75000000D03*
X123125000Y-75500000D03*
X123125000Y-76000000D03*
X123125000Y-76500000D03*
X123125000Y-77000000D03*
D40*
X124062500Y-77937500D03*
X124562500Y-77937500D03*
X125062500Y-77937500D03*
X125562500Y-77937500D03*
X126062500Y-77937500D03*
D41*
X127000000Y-77000000D03*
X127000000Y-76500000D03*
X127000000Y-76000000D03*
X127000000Y-75500000D03*
X127000000Y-75000000D03*
D42*
X125062500Y-76000000D03*
%TD*%
D17*
%TO.C,R12*%
X140325000Y-89450000D03*
X138675000Y-89450000D03*
%TD*%
D16*
%TO.C,C21*%
X158187500Y-89600000D03*
X156637500Y-89600000D03*
%TD*%
D38*
%TO.C,R1*%
X151700000Y-81975000D03*
X151700000Y-80325000D03*
%TD*%
D43*
%TO.C,J4*%
X167937500Y-92825000D03*
D44*
X167687500Y-90000000D03*
X167687500Y-95650000D03*
%TD*%
D45*
%TO.C,L4*%
X144412500Y-77800000D03*
X145987500Y-77800000D03*
%TD*%
D46*
%TO.C,U5*%
X139900000Y-79800000D03*
X139900000Y-79300000D03*
X139900000Y-78800000D03*
X139900000Y-78300000D03*
X139900000Y-77800000D03*
X135500000Y-77800000D03*
X135500000Y-78300000D03*
X135500000Y-78800000D03*
X135500000Y-79300000D03*
X135500000Y-79800000D03*
%TD*%
D20*
%TO.C,TP4*%
X154980000Y-88380000D03*
%TD*%
D21*
%TO.C,C5*%
X126000000Y-82875000D03*
X126000000Y-81325000D03*
%TD*%
D47*
%TO.C,D3*%
X138800000Y-85300000D03*
X138800000Y-86600000D03*
X140800000Y-85950000D03*
%TD*%
D43*
%TO.C,J2*%
X167937500Y-77000000D03*
D44*
X167687500Y-74175000D03*
X167687500Y-79825000D03*
%TD*%
D15*
%TO.C,C22*%
X152312500Y-87325000D03*
X152312500Y-88875000D03*
%TD*%
D48*
%TO.C,Q1*%
X151562500Y-92637500D03*
X153462500Y-92637500D03*
X152512500Y-90762500D03*
%TD*%
D21*
%TO.C,C15*%
X153812500Y-96175000D03*
X153812500Y-94625000D03*
%TD*%
%TO.C,C7*%
X122262500Y-79575000D03*
X122262500Y-78025000D03*
%TD*%
D47*
%TO.C,D2*%
X146000000Y-85300000D03*
X146000000Y-86600000D03*
X148000000Y-85950000D03*
%TD*%
D49*
%TO.C,Y1*%
X138300000Y-81450000D03*
X136900000Y-81450000D03*
X136900000Y-82550000D03*
X138300000Y-82550000D03*
%TD*%
D16*
%TO.C,C19*%
X164412500Y-93200000D03*
X162862500Y-93200000D03*
%TD*%
D15*
%TO.C,C8*%
X135300000Y-74725000D03*
X135300000Y-76275000D03*
%TD*%
D21*
%TO.C,C9*%
X137600000Y-76275000D03*
X137600000Y-74725000D03*
%TD*%
D22*
%TO.C,R8*%
X138400000Y-90925000D03*
X138400000Y-92575000D03*
%TD*%
D45*
%TO.C,L1*%
X121412500Y-81300000D03*
X122987500Y-81300000D03*
%TD*%
D22*
%TO.C,R2*%
X117500000Y-87195000D03*
X117500000Y-88845000D03*
%TD*%
D23*
%TO.C,C6*%
X128487500Y-79750000D03*
X130037500Y-79750000D03*
%TD*%
D15*
%TO.C,C13*%
X147300000Y-77800000D03*
X147300000Y-79350000D03*
%TD*%
D17*
%TO.C,R9*%
X152312500Y-85800000D03*
X150662500Y-85800000D03*
%TD*%
D20*
%TO.C,TP3*%
X129580000Y-93460000D03*
%TD*%
D45*
%TO.C,L2*%
X132112500Y-76200000D03*
X133687500Y-76200000D03*
%TD*%
%LPD*%
M02*
