M48
; DRILL file {KiCad 9.0.0} date 2026-02-19T21:59:45+0100
; FORMAT={-:-/ absolute / inch / decimal}
; #@! TF.CreationDate,2026-02-19T21:59:45+01:00
; #@! TF.GenerationSoftware,Kicad,Pcbnew,9.0.0
; #@! TF.FileFunction,Plated,1,2,PTH
FMAT,2
INCH
; #@! TA.AperFunction,Plated,PTH,ViaDrill
T1C0.0118
; #@! TA.AperFunction,Plated,PTH,ComponentDrill
T2C0.0236
; #@! TA.AperFunction,Plated,PTH,ComponentDrill
T3C0.0394
%
G90
G05
T1
X4.4291Y-3.1583
X4.4488Y-3.5441
X4.4528Y-3.8827
X4.5115Y-3.1182
X4.5925Y-3.1642
X4.6024Y-3.4102
X4.6732Y-3.2331
X4.685Y-3.0205
X4.6929Y-3.3354
X4.7126Y-3.811
X4.7244Y-3.4969
X4.7943Y-3.298
X4.8189Y-3.2055
X4.8386Y-2.9644
X4.9031Y-3.2414
X4.9055Y-3.0677
X4.9173Y-3.1307
X4.9173Y-3.1661
X4.9449Y-2.9693
X5.0157Y-3.3039
X5.0551Y-3.2803
X5.0787Y-3.8866
X5.1297Y-3.0598
X5.2163Y-3.174
X5.2163Y-3.2291
X5.2202Y-3.0598
X5.2517Y-3.3709
X5.3068Y-3.0598
X5.3147Y-3.2016
X5.3738Y-3.1189
X5.4368Y-3.1189
X5.4368Y-3.2055
X5.4803Y-3.2961
X5.5155Y-3.1189
X5.5155Y-3.2055
X5.5942Y-3.1189
X5.5942Y-3.2055
X5.6417Y-3.2567
X5.7165Y-3.1189
X5.7165Y-3.2055
X5.7638Y-3.3866
X5.7638Y-3.4654
X5.7638Y-3.5441
X5.7638Y-3.622
X5.7874Y-3.6811
X5.7953Y-3.111
X5.8346Y-3.0795
X5.8386Y-3.7323
X5.8504Y-3.2291
X5.8504Y-3.3079
X5.8504Y-3.3866
X5.8504Y-3.4654
X5.8504Y-3.5441
X5.8543Y-3.6228
X5.9134Y-3.0795
X5.9134Y-3.1819
X5.9134Y-3.6701
X5.9134Y-3.7724
X5.9528Y-2.9732
X5.9528Y-3.2882
X5.9528Y-3.5638
X5.9528Y-3.8787
X5.9921Y-3.0795
X5.9921Y-3.1819
X5.9921Y-3.6701
X5.9921Y-3.7724
X6.0709Y-2.9732
X6.0709Y-3.0795
X6.0709Y-3.1819
X6.0709Y-3.2882
X6.0709Y-3.5638
X6.0709Y-3.6701
X6.0709Y-3.7724
X6.0709Y-3.8787
T3
X4.3307Y-3.4346
X4.3307Y-3.5346
X4.3307Y-3.6346
X4.3307Y-3.7346
X4.3307Y-3.8346
X4.9307Y-3.5339
X4.9307Y-3.7339
X4.9307Y-3.8339
X5.2307Y-3.7346
X5.5307Y-3.4346
T2
G00X4.3789Y-2.9803
M15
G01X4.3474Y-2.9803
M16
G05
G00X4.3789Y-3.3205
M15
G01X4.3474Y-3.3205
M16
G05
G00X4.5494Y-2.9803
M15
G01X4.5061Y-2.9803
M16
G05
G00X4.5494Y-3.3205
M15
G01X4.5061Y-3.3205
M16
G05
M30
