%TF.GenerationSoftware,KiCad,Pcbnew,(6.0.1)*%
%TF.CreationDate,2022-08-02T08:39:06+02:00*%
%TF.ProjectId,DetectorReader,44657465-6374-46f7-9252-65616465722e,rev?*%
%TF.SameCoordinates,Original*%
%TF.FileFunction,Copper,L1,Top*%
%TF.FilePolarity,Positive*%
%FSLAX46Y46*%
G04 Gerber Fmt 4.6, Leading zero omitted, Abs format (unit mm)*
G04 Created by KiCad (PCBNEW (6.0.1)) date 2022-08-02 08:39:06*
%MOMM*%
%LPD*%
G01*
G04 APERTURE LIST*
G04 Aperture macros list*
%AMRoundRect*
0 Rectangle with rounded corners*
0 $1 Rounding radius*
0 $2 $3 $4 $5 $6 $7 $8 $9 X,Y pos of 4 corners*
0 Add a 4 corners polygon primitive as box body*
4,1,4,$2,$3,$4,$5,$6,$7,$8,$9,$2,$3,0*
0 Add four circle primitives for the rounded corners*
1,1,$1+$1,$2,$3*
1,1,$1+$1,$4,$5*
1,1,$1+$1,$6,$7*
1,1,$1+$1,$8,$9*
0 Add four rect primitives between the rounded corners*
20,1,$1+$1,$2,$3,$4,$5,0*
20,1,$1+$1,$4,$5,$6,$7,0*
20,1,$1+$1,$6,$7,$8,$9,0*
20,1,$1+$1,$8,$9,$2,$3,0*%
G04 Aperture macros list end*
%TA.AperFunction,SMDPad,CuDef*%
%ADD10R,0.300000X0.500000*%
%TD*%
%TA.AperFunction,SMDPad,CuDef*%
%ADD11RoundRect,0.062500X-0.350000X-0.062500X0.350000X-0.062500X0.350000X0.062500X-0.350000X0.062500X0*%
%TD*%
%TA.AperFunction,SMDPad,CuDef*%
%ADD12RoundRect,0.062500X-0.062500X-0.350000X0.062500X-0.350000X0.062500X0.350000X-0.062500X0.350000X0*%
%TD*%
%TA.AperFunction,SMDPad,CuDef*%
%ADD13R,1.700000X1.700000*%
%TD*%
%TA.AperFunction,SMDPad,CuDef*%
%ADD14RoundRect,0.200000X-0.200000X-0.275000X0.200000X-0.275000X0.200000X0.275000X-0.200000X0.275000X0*%
%TD*%
%TA.AperFunction,SMDPad,CuDef*%
%ADD15RoundRect,0.218750X-0.256250X0.218750X-0.256250X-0.218750X0.256250X-0.218750X0.256250X0.218750X0*%
%TD*%
%TA.AperFunction,SMDPad,CuDef*%
%ADD16RoundRect,0.225000X0.225000X0.250000X-0.225000X0.250000X-0.225000X-0.250000X0.225000X-0.250000X0*%
%TD*%
%TA.AperFunction,SMDPad,CuDef*%
%ADD17RoundRect,0.225000X0.250000X-0.225000X0.250000X0.225000X-0.250000X0.225000X-0.250000X-0.225000X0*%
%TD*%
%TA.AperFunction,SMDPad,CuDef*%
%ADD18RoundRect,0.225000X-0.225000X-0.250000X0.225000X-0.250000X0.225000X0.250000X-0.225000X0.250000X0*%
%TD*%
%TA.AperFunction,SMDPad,CuDef*%
%ADD19RoundRect,0.225000X-0.250000X0.225000X-0.250000X-0.225000X0.250000X-0.225000X0.250000X0.225000X0*%
%TD*%
%TA.AperFunction,SMDPad,CuDef*%
%ADD20R,0.300000X1.000000*%
%TD*%
%TA.AperFunction,SMDPad,CuDef*%
%ADD21RoundRect,0.200000X0.275000X-0.200000X0.275000X0.200000X-0.275000X0.200000X-0.275000X-0.200000X0*%
%TD*%
%TA.AperFunction,ComponentPad*%
%ADD22C,1.700000*%
%TD*%
%TA.AperFunction,SMDPad,CuDef*%
%ADD23RoundRect,0.100000X0.712500X0.100000X-0.712500X0.100000X-0.712500X-0.100000X0.712500X-0.100000X0*%
%TD*%
%TA.AperFunction,SMDPad,CuDef*%
%ADD24RoundRect,0.218750X-0.218750X-0.256250X0.218750X-0.256250X0.218750X0.256250X-0.218750X0.256250X0*%
%TD*%
%TA.AperFunction,SMDPad,CuDef*%
%ADD25RoundRect,0.218750X0.256250X-0.218750X0.256250X0.218750X-0.256250X0.218750X-0.256250X-0.218750X0*%
%TD*%
%TA.AperFunction,SMDPad,CuDef*%
%ADD26R,1.270000X3.600000*%
%TD*%
%TA.AperFunction,SMDPad,CuDef*%
%ADD27R,1.350000X4.200000*%
%TD*%
%TA.AperFunction,SMDPad,CuDef*%
%ADD28RoundRect,0.150000X-0.825000X-0.150000X0.825000X-0.150000X0.825000X0.150000X-0.825000X0.150000X0*%
%TD*%
%TA.AperFunction,SMDPad,CuDef*%
%ADD29R,1.200000X0.900000*%
%TD*%
%TA.AperFunction,SMDPad,CuDef*%
%ADD30RoundRect,0.200000X0.200000X0.275000X-0.200000X0.275000X-0.200000X-0.275000X0.200000X-0.275000X0*%
%TD*%
%TA.AperFunction,SMDPad,CuDef*%
%ADD31RoundRect,0.200000X-0.275000X0.200000X-0.275000X-0.200000X0.275000X-0.200000X0.275000X0.200000X0*%
%TD*%
%TA.AperFunction,SMDPad,CuDef*%
%ADD32RoundRect,0.150000X0.825000X0.150000X-0.825000X0.150000X-0.825000X-0.150000X0.825000X-0.150000X0*%
%TD*%
%TA.AperFunction,SMDPad,CuDef*%
%ADD33RoundRect,0.150000X0.150000X-0.512500X0.150000X0.512500X-0.150000X0.512500X-0.150000X-0.512500X0*%
%TD*%
%TA.AperFunction,ComponentPad*%
%ADD34R,1.700000X1.700000*%
%TD*%
%TA.AperFunction,ComponentPad*%
%ADD35O,1.700000X1.700000*%
%TD*%
%TA.AperFunction,SMDPad,CuDef*%
%ADD36RoundRect,0.150000X0.587500X0.150000X-0.587500X0.150000X-0.587500X-0.150000X0.587500X-0.150000X0*%
%TD*%
%TA.AperFunction,SMDPad,CuDef*%
%ADD37R,3.600000X1.270000*%
%TD*%
%TA.AperFunction,SMDPad,CuDef*%
%ADD38R,4.200000X1.350000*%
%TD*%
%TA.AperFunction,SMDPad,CuDef*%
%ADD39R,1.400000X0.280000*%
%TD*%
%TA.AperFunction,SMDPad,CuDef*%
%ADD40R,0.850000X0.750000*%
%TD*%
%TA.AperFunction,SMDPad,CuDef*%
%ADD41R,1.350000X0.400000*%
%TD*%
%TA.AperFunction,ComponentPad*%
%ADD42O,1.550000X0.890000*%
%TD*%
%TA.AperFunction,SMDPad,CuDef*%
%ADD43R,1.550000X1.200000*%
%TD*%
%TA.AperFunction,ComponentPad*%
%ADD44O,0.950000X1.250000*%
%TD*%
%TA.AperFunction,SMDPad,CuDef*%
%ADD45R,1.550000X1.500000*%
%TD*%
%TA.AperFunction,SMDPad,CuDef*%
%ADD46RoundRect,0.218750X-0.381250X0.218750X-0.381250X-0.218750X0.381250X-0.218750X0.381250X0.218750X0*%
%TD*%
%TA.AperFunction,SMDPad,CuDef*%
%ADD47R,1.200000X0.400000*%
%TD*%
%TA.AperFunction,ViaPad*%
%ADD48C,0.800000*%
%TD*%
%TA.AperFunction,ViaPad*%
%ADD49C,0.700000*%
%TD*%
%TA.AperFunction,ViaPad*%
%ADD50C,5.000000*%
%TD*%
%TA.AperFunction,Conductor*%
%ADD51C,0.300000*%
%TD*%
%TA.AperFunction,Conductor*%
%ADD52C,0.500000*%
%TD*%
%TA.AperFunction,Conductor*%
%ADD53C,1.000000*%
%TD*%
%TA.AperFunction,Conductor*%
%ADD54C,0.250000*%
%TD*%
%TA.AperFunction,Conductor*%
%ADD55C,0.600000*%
%TD*%
G04 APERTURE END LIST*
D10*
%TO.P,U3,1,Output*%
%TO.N,Net-(J3-Pad1)*%
X153050000Y-81000000D03*
%TO.P,U3,2,GND*%
%TO.N,GND*%
X152500000Y-81000000D03*
%TO.P,U3,3,Input*%
%TO.N,/RF_Tx/RfOut*%
X151950000Y-81000000D03*
%TO.P,U3,4,Cpl*%
%TO.N,Net-(R3-Pad1)*%
X151950000Y-82000000D03*
%TO.P,U3,5,GND*%
%TO.N,GND*%
X152500000Y-82000000D03*
%TO.P,U3,6,Term*%
%TO.N,/RF_Rx/DetectorIn*%
X153050000Y-82000000D03*
%TD*%
D11*
%TO.P,U9,1,V_EN*%
%TO.N,Net-(R14-Pad2)*%
X145287500Y-77750000D03*
%TO.P,U9,2,GND*%
%TO.N,GND*%
X145287500Y-78250000D03*
%TO.P,U9,3,RF_IN*%
%TO.N,/RF_Tx/ModMatched*%
X145287500Y-78750000D03*
%TO.P,U9,4,RF_IN*%
X145287500Y-79250000D03*
D12*
%TO.P,U9,5,GND*%
%TO.N,GND*%
X146000000Y-79962500D03*
%TO.P,U9,6,GND*%
X146500000Y-79962500D03*
%TO.P,U9,7,GND*%
X147000000Y-79962500D03*
%TO.P,U9,8,GND*%
X147500000Y-79962500D03*
D11*
%TO.P,U9,9,RF_OUT*%
%TO.N,/RF_Tx/PAOutSelect*%
X148212500Y-79250000D03*
%TO.P,U9,10,RF_OUT*%
X148212500Y-78750000D03*
%TO.P,U9,11,GND*%
%TO.N,GND*%
X148212500Y-78250000D03*
%TO.P,U9,12,GND*%
X148212500Y-77750000D03*
D12*
%TO.P,U9,13,GND*%
X147500000Y-77037500D03*
%TO.P,U9,14,GND*%
X147000000Y-77037500D03*
%TO.P,U9,15,GND*%
X146500000Y-77037500D03*
%TO.P,U9,16,GND*%
X146000000Y-77037500D03*
D13*
%TO.P,U9,17,GND*%
X146750000Y-78500000D03*
%TD*%
D14*
%TO.P,R14,1*%
%TO.N,+5V*%
X142175000Y-76250000D03*
%TO.P,R14,2*%
%TO.N,Net-(R14-Pad2)*%
X143825000Y-76250000D03*
%TD*%
D15*
%TO.P,L5,1,1*%
%TO.N,/RF_Tx/PAOutSelect*%
X149750000Y-80462500D03*
%TO.P,L5,2,2*%
%TO.N,+5V*%
X149750000Y-82037500D03*
%TD*%
D16*
%TO.P,C22,1*%
%TO.N,/RF_Tx/RfOut*%
X151300000Y-79000000D03*
%TO.P,C22,2*%
%TO.N,/RF_Tx/PAOutSelect*%
X149750000Y-79000000D03*
%TD*%
D17*
%TO.P,C21,1*%
%TO.N,/RF_Tx/PAOutSelect*%
X149750000Y-79000000D03*
%TO.P,C21,2*%
%TO.N,Net-(J4-Pad1)*%
X149750000Y-77450000D03*
%TD*%
D18*
%TO.P,C20,1*%
%TO.N,GND*%
X146725000Y-82000000D03*
%TO.P,C20,2*%
%TO.N,+5V*%
X148275000Y-82000000D03*
%TD*%
D16*
%TO.P,C9,1*%
%TO.N,+5V*%
X148275000Y-83500000D03*
%TO.P,C9,2*%
%TO.N,GND*%
X146725000Y-83500000D03*
%TD*%
D17*
%TO.P,C11,2*%
%TO.N,/RF_Rx/DetectorIn*%
X153670000Y-85225000D03*
%TO.P,C11,1*%
%TO.N,Net-(C11-Pad1)*%
X153670000Y-86775000D03*
%TD*%
D16*
%TO.P,C8,1*%
%TO.N,GND*%
X139592500Y-82000000D03*
%TO.P,C8,2*%
%TO.N,+3V0*%
X138042500Y-82000000D03*
%TD*%
D19*
%TO.P,C3,1*%
%TO.N,GND*%
X126850000Y-76225000D03*
%TO.P,C3,2*%
%TO.N,+5V*%
X126850000Y-77775000D03*
%TD*%
D16*
%TO.P,C15,1*%
%TO.N,GND*%
X156550000Y-94500000D03*
%TO.P,C15,2*%
%TO.N,+5V*%
X155000000Y-94500000D03*
%TD*%
D20*
%TO.P,U6,1,RF_IN*%
%TO.N,Net-(C11-Pad1)*%
X153620000Y-90500000D03*
%TO.P,U6,2,~{SHDN}*%
%TO.N,+5V*%
X152970000Y-90500000D03*
%TO.P,U6,3,GND*%
%TO.N,GND*%
X152320000Y-90500000D03*
%TO.P,U6,4,CLPF*%
%TO.N,Net-(C13-Pad1)*%
X151670000Y-90500000D03*
%TO.P,U6,5,GND*%
%TO.N,GND*%
X151670000Y-94500000D03*
%TO.P,U6,6,NC*%
%TO.N,unconnected-(U6-Pad6)*%
X152320000Y-94500000D03*
%TO.P,U6,7,OUT*%
%TO.N,/RF_Rx/Signal*%
X152970000Y-94500000D03*
%TO.P,U6,8,VCC*%
%TO.N,+5V*%
X153620000Y-94500000D03*
%TD*%
D21*
%TO.P,R8,1*%
%TO.N,/RF_Rx/Amp1*%
X141250000Y-90785000D03*
%TO.P,R8,2*%
%TO.N,Net-(C17-Pad2)*%
X141250000Y-89135000D03*
%TD*%
D22*
%TO.P,J6,1,Pin_1*%
%TO.N,/RF_Rx/Signal*%
X148100000Y-94860000D03*
%TD*%
D17*
%TO.P,C17,1*%
%TO.N,/RF_Rx/Amp1*%
X139750000Y-90735000D03*
%TO.P,C17,2*%
%TO.N,Net-(C17-Pad2)*%
X139750000Y-89185000D03*
%TD*%
D23*
%TO.P,U7,1*%
%TO.N,/RF_Rx/Amp1*%
X137512500Y-90755000D03*
%TO.P,U7,2,-*%
%TO.N,Net-(C17-Pad2)*%
X137512500Y-90105000D03*
%TO.P,U7,3,+*%
%TO.N,+3V0*%
X137512500Y-89455000D03*
%TO.P,U7,4,V-*%
%TO.N,GND*%
X137512500Y-88805000D03*
%TO.P,U7,5,+*%
%TO.N,+3V0*%
X133287500Y-88805000D03*
%TO.P,U7,6,-*%
%TO.N,Net-(C19-Pad2)*%
X133287500Y-89455000D03*
%TO.P,U7,7*%
%TO.N,/RF_Rx/Amp2*%
X133287500Y-90105000D03*
%TO.P,U7,8,V+*%
%TO.N,+5V*%
X133287500Y-90755000D03*
%TD*%
D24*
%TO.P,D1,1,K*%
%TO.N,GND*%
X111212500Y-83000000D03*
%TO.P,D1,2,A*%
%TO.N,Net-(D1-Pad2)*%
X112787500Y-83000000D03*
%TD*%
D25*
%TO.P,L2,1,1*%
%TO.N,+3V0*%
X138067500Y-80575000D03*
%TO.P,L2,2,2*%
%TO.N,/RF_Tx/ModOut*%
X138067500Y-79000000D03*
%TD*%
D17*
%TO.P,C2,1*%
%TO.N,GND*%
X116500000Y-81775000D03*
%TO.P,C2,2*%
%TO.N,+5V*%
X116500000Y-80225000D03*
%TD*%
D22*
%TO.P,J8,1,Pin_1*%
%TO.N,/RF_Rx/Amp2*%
X127780000Y-92320000D03*
%TD*%
D18*
%TO.P,C1,1*%
%TO.N,GND*%
X118410000Y-98000000D03*
%TO.P,C1,2*%
%TO.N,+5V*%
X119960000Y-98000000D03*
%TD*%
D26*
%TO.P,J4,1,In*%
%TO.N,Net-(J4-Pad1)*%
X149825000Y-73900000D03*
D27*
%TO.P,J4,2,Ext*%
%TO.N,GND*%
X147000000Y-74100000D03*
X152650000Y-74100000D03*
%TD*%
D28*
%TO.P,U8,1,GND*%
%TO.N,GND*%
X133025000Y-93055000D03*
%TO.P,U8,2,+*%
%TO.N,Net-(R10-Pad1)*%
X133025000Y-94325000D03*
%TO.P,U8,3,-*%
%TO.N,+3V0*%
X133025000Y-95595000D03*
%TO.P,U8,4,V-*%
%TO.N,GND*%
X133025000Y-96865000D03*
%TO.P,U8,5,BAL*%
%TO.N,unconnected-(U8-Pad5)*%
X137975000Y-96865000D03*
%TO.P,U8,6,STRB*%
%TO.N,unconnected-(U8-Pad6)*%
X137975000Y-95595000D03*
%TO.P,U8,7*%
%TO.N,/TagPulses*%
X137975000Y-94325000D03*
%TO.P,U8,8,V+*%
%TO.N,+5V*%
X137975000Y-93055000D03*
%TD*%
D24*
%TO.P,D2,1,K*%
%TO.N,GND*%
X111212500Y-84750000D03*
%TO.P,D2,2,A*%
%TO.N,Net-(D2-Pad2)*%
X112787500Y-84750000D03*
%TD*%
D29*
%TO.P,D3,1,K*%
%TO.N,Net-(C19-Pad2)*%
X127500000Y-87310000D03*
%TO.P,D3,2,A*%
%TO.N,/RF_Rx/Amp2*%
X127500000Y-90610000D03*
%TD*%
D30*
%TO.P,R10,1*%
%TO.N,Net-(R10-Pad1)*%
X131000000Y-93500000D03*
%TO.P,R10,2*%
%TO.N,/RF_Rx/Amp2*%
X129350000Y-93500000D03*
%TD*%
D19*
%TO.P,C16,1*%
%TO.N,Net-(C16-Pad1)*%
X142500000Y-92685000D03*
%TO.P,C16,2*%
%TO.N,Net-(C16-Pad2)*%
X142500000Y-94235000D03*
%TD*%
D21*
%TO.P,R5,1*%
%TO.N,/RF_Tx/ModLow*%
X129737500Y-79250000D03*
%TO.P,R5,2*%
%TO.N,GND*%
X129737500Y-77600000D03*
%TD*%
D30*
%TO.P,R13,1*%
%TO.N,/TagPulses*%
X125825000Y-96500000D03*
%TO.P,R13,2*%
%TO.N,+5V*%
X124175000Y-96500000D03*
%TD*%
D16*
%TO.P,C10,1*%
%TO.N,/RF_Tx/ModMatched*%
X144097500Y-79000000D03*
%TO.P,C10,2*%
%TO.N,Net-(C10-Pad2)*%
X142547500Y-79000000D03*
%TD*%
%TO.P,C12,1*%
%TO.N,Net-(C12-Pad1)*%
X155220000Y-86750000D03*
%TO.P,C12,2*%
%TO.N,Net-(C11-Pad1)*%
X153670000Y-86750000D03*
%TD*%
D31*
%TO.P,R7,1*%
%TO.N,Net-(C17-Pad2)*%
X142750000Y-89135000D03*
%TO.P,R7,2*%
%TO.N,Net-(C16-Pad1)*%
X142750000Y-90785000D03*
%TD*%
D29*
%TO.P,D4,1,K*%
%TO.N,/RF_Rx/Amp2*%
X125250000Y-90610000D03*
%TO.P,D4,2,A*%
%TO.N,Net-(C19-Pad2)*%
X125250000Y-87310000D03*
%TD*%
D22*
%TO.P,J9,1,Pin_1*%
%TO.N,/TagPulses*%
X127780000Y-94860000D03*
%TD*%
D32*
%TO.P,U1,1,VCC*%
%TO.N,+5V*%
X121975000Y-96310000D03*
%TO.P,U1,2,PA4*%
%TO.N,/SeqProg*%
X121975000Y-95040000D03*
%TO.P,U1,3,PA5*%
%TO.N,unconnected-(U1-Pad3)*%
X121975000Y-93770000D03*
%TO.P,U1,4,PA6*%
%TO.N,/TagPulses*%
X121975000Y-92500000D03*
%TO.P,U1,5,PA7*%
%TO.N,/ReaderPulses*%
X121975000Y-91230000D03*
%TO.P,U1,6,PB3*%
%TO.N,/TagEPCDetected*%
X121975000Y-89960000D03*
%TO.P,U1,7,PB2*%
%TO.N,/TagPreambleDetected*%
X121975000Y-88690000D03*
%TO.P,U1,8,PB1*%
%TO.N,unconnected-(U1-Pad8)*%
X117025000Y-88690000D03*
%TO.P,U1,9,PB0*%
%TO.N,unconnected-(U1-Pad9)*%
X117025000Y-89960000D03*
%TO.P,U1,10,~{RESET}/PA0*%
%TO.N,/UPDI*%
X117025000Y-91230000D03*
%TO.P,U1,11,PA1*%
%TO.N,/uartTx*%
X117025000Y-92500000D03*
%TO.P,U1,12,PA2*%
%TO.N,/uartRx*%
X117025000Y-93770000D03*
%TO.P,U1,13,PA3*%
%TO.N,unconnected-(U1-Pad13)*%
X117025000Y-95040000D03*
%TO.P,U1,14,GND*%
%TO.N,GND*%
X117025000Y-96310000D03*
%TD*%
D33*
%TO.P,U4,1,VIN*%
%TO.N,+5V*%
X144300000Y-91000000D03*
%TO.P,U4,2,GND*%
%TO.N,GND*%
X145250000Y-91000000D03*
%TO.P,U4,3,EN*%
%TO.N,+5V*%
X146200000Y-91000000D03*
%TO.P,U4,4,NC*%
%TO.N,unconnected-(U4-Pad4)*%
X146200000Y-88725000D03*
%TO.P,U4,5,VOUT*%
%TO.N,+3V0*%
X144300000Y-88725000D03*
%TD*%
D34*
%TO.P,SW1,1,A*%
%TO.N,/ReaderPulses*%
X125240000Y-84700000D03*
D35*
%TO.P,SW1,2,B*%
%TO.N,/RF_Tx/Mod*%
X127780000Y-84700000D03*
%TD*%
D21*
%TO.P,R12,1*%
%TO.N,/RF_Rx/Amp2*%
X129500000Y-90285000D03*
%TO.P,R12,2*%
%TO.N,Net-(C19-Pad2)*%
X129500000Y-88635000D03*
%TD*%
D19*
%TO.P,C13,1*%
%TO.N,Net-(C13-Pad1)*%
X150145000Y-90725000D03*
%TO.P,C13,2*%
%TO.N,GND*%
X150145000Y-92275000D03*
%TD*%
D31*
%TO.P,R3,1*%
%TO.N,Net-(R3-Pad1)*%
X151000000Y-83250000D03*
%TO.P,R3,2*%
%TO.N,GND*%
X151000000Y-84900000D03*
%TD*%
D36*
%TO.P,Q1,1,B*%
%TO.N,Net-(Q1-Pad1)*%
X145937500Y-96910000D03*
%TO.P,Q1,2,E*%
%TO.N,/RF_Rx/Signal*%
X145937500Y-95010000D03*
%TO.P,Q1,3,C*%
%TO.N,Net-(C16-Pad2)*%
X144062500Y-95960000D03*
%TD*%
D37*
%TO.P,J5,1,In*%
%TO.N,Net-(C12-Pad1)*%
X159820000Y-86700000D03*
D38*
%TO.P,J5,2,Ext*%
%TO.N,GND*%
X159620000Y-89525000D03*
X159620000Y-83875000D03*
%TD*%
D14*
%TO.P,R2,1*%
%TO.N,Net-(D2-Pad2)*%
X114175000Y-84750000D03*
%TO.P,R2,2*%
%TO.N,/TagEPCDetected*%
X115825000Y-84750000D03*
%TD*%
D24*
%TO.P,L3,1,1*%
%TO.N,/RF_Tx/ModOut*%
X139530000Y-79000000D03*
%TO.P,L3,2,2*%
%TO.N,Net-(C10-Pad2)*%
X141105000Y-79000000D03*
%TD*%
D16*
%TO.P,C5,1*%
%TO.N,GND*%
X146025000Y-92750000D03*
%TO.P,C5,2*%
%TO.N,+5V*%
X144475000Y-92750000D03*
%TD*%
D39*
%TO.P,U5,1,XTAL2*%
%TO.N,Net-(U5-Pad1)*%
X136237500Y-80912500D03*
%TO.P,U5,2,GND*%
%TO.N,GND*%
X136237500Y-80412500D03*
%TO.P,U5,3,VDD*%
%TO.N,+3V0*%
X136237500Y-79912500D03*
%TO.P,U5,4,GND_PA*%
%TO.N,GND*%
X136237500Y-79412500D03*
%TO.P,U5,5,PA*%
%TO.N,/RF_Tx/ModOut*%
X136237500Y-78912500D03*
%TO.P,U5,6,CLKOUT/SCL*%
%TO.N,unconnected-(U5-Pad6)*%
X131957500Y-78912500D03*
%TO.P,U5,7,DATA/SDA*%
%TO.N,/RF_Tx/ModLow*%
X131957500Y-79412500D03*
%TO.P,U5,8,SEL0*%
%TO.N,+3V0*%
X131957500Y-79912500D03*
%TO.P,U5,9,SEL1*%
X131957500Y-80412500D03*
%TO.P,U5,10,XTAL1*%
%TO.N,Net-(U5-Pad10)*%
X131957500Y-80912500D03*
%TD*%
D14*
%TO.P,R6,1*%
%TO.N,/SeqProg*%
X141345000Y-97460000D03*
%TO.P,R6,2*%
%TO.N,Net-(Q1-Pad1)*%
X142995000Y-97460000D03*
%TD*%
%TO.P,R9,1*%
%TO.N,Net-(C19-Pad2)*%
X131000000Y-87210000D03*
%TO.P,R9,2*%
%TO.N,Net-(C18-Pad1)*%
X132650000Y-87210000D03*
%TD*%
D17*
%TO.P,C19,1*%
%TO.N,/RF_Rx/Amp2*%
X131000000Y-90235000D03*
%TO.P,C19,2*%
%TO.N,Net-(C19-Pad2)*%
X131000000Y-88685000D03*
%TD*%
D37*
%TO.P,J3,1,In*%
%TO.N,Net-(J3-Pad1)*%
X159820000Y-81000000D03*
D38*
%TO.P,J3,2,Ext*%
%TO.N,GND*%
X159620000Y-78175000D03*
X159620000Y-83825000D03*
%TD*%
D21*
%TO.P,R11,1*%
%TO.N,/TagPulses*%
X131000000Y-96535000D03*
%TO.P,R11,2*%
%TO.N,Net-(R10-Pad1)*%
X131000000Y-94885000D03*
%TD*%
D16*
%TO.P,C14,1*%
%TO.N,GND*%
X156550000Y-96000000D03*
%TO.P,C14,2*%
%TO.N,+5V*%
X155000000Y-96000000D03*
%TD*%
D17*
%TO.P,C4,1*%
%TO.N,GND*%
X126850000Y-80775000D03*
%TO.P,C4,2*%
%TO.N,Net-(C4-Pad2)*%
X126850000Y-79225000D03*
%TD*%
D16*
%TO.P,C6,1*%
%TO.N,GND*%
X146025000Y-87000000D03*
%TO.P,C6,2*%
%TO.N,+3V0*%
X144475000Y-87000000D03*
%TD*%
D40*
%TO.P,Y1,1,1*%
%TO.N,Net-(U5-Pad1)*%
X134087500Y-82412500D03*
%TO.P,Y1,2,2*%
%TO.N,GND*%
X132737500Y-82412500D03*
%TO.P,Y1,3,3*%
%TO.N,Net-(U5-Pad10)*%
X132737500Y-83462500D03*
%TO.P,Y1,4,4*%
%TO.N,GND*%
X134087500Y-83462500D03*
%TD*%
D31*
%TO.P,R4,1*%
%TO.N,/RF_Tx/ModLow*%
X129737500Y-80675000D03*
%TO.P,R4,2*%
%TO.N,/RF_Tx/Mod*%
X129737500Y-82325000D03*
%TD*%
D22*
%TO.P,J7,1,Pin_1*%
%TO.N,/RF_Rx/Amp1*%
X140480000Y-92320000D03*
%TD*%
D41*
%TO.P,J1,1,VBUS*%
%TO.N,/VBUS*%
X114150000Y-76200000D03*
%TO.P,J1,2,D-*%
%TO.N,/USB_N*%
X114150000Y-76850000D03*
%TO.P,J1,3,D+*%
%TO.N,/USB_P*%
X114150000Y-77500000D03*
%TO.P,J1,4,ID*%
%TO.N,GND*%
X114150000Y-78150000D03*
%TO.P,J1,5,GND*%
X114150000Y-78800000D03*
D42*
%TO.P,J1,6,Shield*%
X111450000Y-74000000D03*
D43*
X111450000Y-80400000D03*
D44*
X114150000Y-80000000D03*
D43*
X111450000Y-74600000D03*
D45*
X111450000Y-76500000D03*
D44*
X114150000Y-75000000D03*
D42*
X111450000Y-81000000D03*
D45*
X111450000Y-78500000D03*
%TD*%
D18*
%TO.P,C18,1*%
%TO.N,Net-(C18-Pad1)*%
X134050000Y-87210000D03*
%TO.P,C18,2*%
%TO.N,/RF_Rx/Amp1*%
X135600000Y-87210000D03*
%TD*%
%TO.P,C7,1*%
%TO.N,+3V0*%
X138067500Y-83500000D03*
%TO.P,C7,2*%
%TO.N,GND*%
X139617500Y-83500000D03*
%TD*%
D34*
%TO.P,J2,1,Pin_1*%
%TO.N,/UPDI*%
X112540000Y-97400000D03*
D35*
%TO.P,J2,2,Pin_2*%
%TO.N,GND*%
X112540000Y-94860000D03*
%TO.P,J2,3,Pin_3*%
%TO.N,+5V*%
X112540000Y-92320000D03*
%TO.P,J2,4,Pin_4*%
%TO.N,/uartTx*%
X112540000Y-89780000D03*
%TO.P,J2,5,Pin_5*%
%TO.N,/uartRx*%
X112540000Y-87240000D03*
%TD*%
D24*
%TO.P,L4,1,1*%
%TO.N,GND*%
X152095000Y-88500000D03*
%TO.P,L4,2,2*%
%TO.N,Net-(C11-Pad1)*%
X153670000Y-88500000D03*
%TD*%
D46*
%TO.P,L1,1,1*%
%TO.N,/VBUS*%
X116500000Y-76187500D03*
%TO.P,L1,2,2*%
%TO.N,+5V*%
X116500000Y-78312500D03*
%TD*%
D14*
%TO.P,R1,1*%
%TO.N,Net-(D1-Pad2)*%
X114175000Y-83000000D03*
%TO.P,R1,2*%
%TO.N,/TagPreambleDetected*%
X115825000Y-83000000D03*
%TD*%
D47*
%TO.P,U2,1,~{DTR}*%
%TO.N,unconnected-(U2-Pad1)*%
X120000000Y-74642500D03*
%TO.P,U2,2,~{RTS}*%
%TO.N,unconnected-(U2-Pad2)*%
X120000000Y-75277500D03*
%TO.P,U2,3,VCCIO*%
%TO.N,Net-(C4-Pad2)*%
X120000000Y-75912500D03*
%TO.P,U2,4,RXD*%
%TO.N,/uartTx*%
X120000000Y-76547500D03*
%TO.P,U2,5,~{RI}*%
%TO.N,unconnected-(U2-Pad5)*%
X120000000Y-77182500D03*
%TO.P,U2,6,GND*%
%TO.N,GND*%
X120000000Y-77817500D03*
%TO.P,U2,7,~{DSR}*%
%TO.N,unconnected-(U2-Pad7)*%
X120000000Y-78452500D03*
%TO.P,U2,8,~{DCD}*%
%TO.N,unconnected-(U2-Pad8)*%
X120000000Y-79087500D03*
%TO.P,U2,9,~{CTS}*%
%TO.N,unconnected-(U2-Pad9)*%
X120000000Y-79722500D03*
%TO.P,U2,10,CBUS2*%
%TO.N,unconnected-(U2-Pad10)*%
X120000000Y-80357500D03*
%TO.P,U2,11,USBDP*%
%TO.N,/USB_P*%
X125200000Y-80357500D03*
%TO.P,U2,12,USBDM*%
%TO.N,/USB_N*%
X125200000Y-79722500D03*
%TO.P,U2,13,3V3OUT*%
%TO.N,Net-(C4-Pad2)*%
X125200000Y-79087500D03*
%TO.P,U2,14,~{RESET}*%
X125200000Y-78452500D03*
%TO.P,U2,15,VCC*%
%TO.N,+5V*%
X125200000Y-77817500D03*
%TO.P,U2,16,GND*%
%TO.N,GND*%
X125200000Y-77182500D03*
%TO.P,U2,17,CBUS1*%
%TO.N,unconnected-(U2-Pad17)*%
X125200000Y-76547500D03*
%TO.P,U2,18,CBUS0*%
%TO.N,unconnected-(U2-Pad18)*%
X125200000Y-75912500D03*
%TO.P,U2,19,CBUS3*%
%TO.N,unconnected-(U2-Pad19)*%
X125200000Y-75277500D03*
%TO.P,U2,20,TXD*%
%TO.N,/uartRx*%
X125200000Y-74642500D03*
%TD*%
D48*
%TO.N,GND*%
X151750000Y-93250000D03*
X152250000Y-89500000D03*
X157487060Y-96738791D03*
X157500000Y-93750000D03*
X146000000Y-85750000D03*
X149750000Y-85500000D03*
X142750000Y-83250000D03*
X140500000Y-81250000D03*
X140500000Y-82750000D03*
X137750000Y-76000000D03*
X136750000Y-77750000D03*
X152500000Y-78750000D03*
X148250000Y-77000000D03*
X148250000Y-80750000D03*
X145250000Y-80750000D03*
X147250000Y-80750000D03*
X146250000Y-80750000D03*
X148000000Y-80000000D03*
X145500000Y-80000000D03*
D49*
X146750000Y-78500000D03*
X146250000Y-79000000D03*
X147250000Y-79000000D03*
X147250000Y-78000000D03*
X146250000Y-78000000D03*
D48*
X145750000Y-82750000D03*
X152250000Y-84750000D03*
X154750000Y-82500000D03*
X154716236Y-79486558D03*
X156250000Y-79500000D03*
X152500000Y-80200000D03*
%TO.N,+5V*%
X144000000Y-84500000D03*
X141000000Y-76250000D03*
%TO.N,GND*%
X141000000Y-77750000D03*
X144000000Y-77750000D03*
X139500000Y-77750000D03*
X142500000Y-77750000D03*
X156250000Y-91250000D03*
X151845000Y-77500000D03*
X157750000Y-76500000D03*
X120250000Y-90750000D03*
X155170000Y-85500000D03*
X147242857Y-87008577D03*
X156420000Y-83250000D03*
X142500000Y-80250000D03*
X116000000Y-98210000D03*
X118500000Y-96750000D03*
X135987500Y-83000000D03*
X121750000Y-86750000D03*
X119750000Y-93960000D03*
X157500000Y-95250000D03*
X151920000Y-86750000D03*
X152500000Y-82800000D03*
X123000000Y-84000000D03*
X155145000Y-88250000D03*
X147250000Y-92750000D03*
D50*
X134000000Y-75000000D03*
D48*
X153595000Y-77500000D03*
X117750000Y-73750000D03*
X136250000Y-88250000D03*
X156420000Y-84750000D03*
X150145000Y-94000000D03*
X154155000Y-73000000D03*
X160670000Y-91250000D03*
X159250000Y-91250000D03*
X139462500Y-80250000D03*
X135000000Y-96250000D03*
X145405000Y-76000000D03*
X154155000Y-76000000D03*
X125850000Y-81500000D03*
X134750000Y-93000000D03*
X160750000Y-76500000D03*
X121600000Y-78250000D03*
X134737500Y-78912500D03*
X145405000Y-74500000D03*
X156250000Y-89750000D03*
X157750000Y-91250000D03*
X140962500Y-80250000D03*
X123850000Y-77000000D03*
X145405000Y-73000000D03*
X133458769Y-80756889D03*
X156250000Y-78000000D03*
X152000000Y-91750000D03*
X159250000Y-76500000D03*
X144000000Y-80250000D03*
X127100000Y-74750000D03*
X131000000Y-91710000D03*
X154155000Y-74500000D03*
%TO.N,+5V*%
X133750000Y-91750000D03*
X144000000Y-94000000D03*
X117250000Y-79250000D03*
X138000000Y-91750000D03*
X153000000Y-97500000D03*
X121500000Y-97500000D03*
%TO.N,/RF_Rx/Amp1*%
X137000000Y-87250000D03*
%TO.N,/uartTx*%
X118600000Y-76750000D03*
%TO.N,/uartRx*%
X123850000Y-74749018D03*
%TD*%
D51*
%TO.N,/ReaderPulses*%
X123500000Y-90750000D02*
X123500000Y-85500000D01*
X123500000Y-85500000D02*
X124300000Y-84700000D01*
X123020000Y-91230000D02*
X123500000Y-90750000D01*
X124300000Y-84700000D02*
X125240000Y-84700000D01*
X121975000Y-91230000D02*
X123020000Y-91230000D01*
D52*
%TO.N,/RF_Tx/Mod*%
X129050000Y-84700000D02*
X127780000Y-84700000D01*
X129737500Y-84012500D02*
X129050000Y-84700000D01*
X129737500Y-82325000D02*
X129737500Y-84012500D01*
%TO.N,/RF_Tx/RfOut*%
X151300000Y-79000000D02*
X151300000Y-80500000D01*
X151300000Y-80500000D02*
X151800000Y-81000000D01*
%TO.N,/RF_Rx/DetectorIn*%
X153665000Y-82465000D02*
X153200000Y-82000000D01*
X153665000Y-83000000D02*
X153665000Y-82465000D01*
%TO.N,Net-(R3-Pad1)*%
X151000000Y-83250000D02*
X151000000Y-82800000D01*
X151000000Y-82800000D02*
X151800000Y-82000000D01*
%TO.N,Net-(J3-Pad1)*%
X154000000Y-81000000D02*
X153250000Y-81000000D01*
%TO.N,+5V*%
X147275000Y-84500000D02*
X148275000Y-83500000D01*
X144000000Y-84500000D02*
X147275000Y-84500000D01*
X142175000Y-76250000D02*
X141000000Y-76250000D01*
X148275000Y-83500000D02*
X148275000Y-82000000D01*
X148312500Y-82037500D02*
X148275000Y-82000000D01*
X149750000Y-82037500D02*
X148312500Y-82037500D01*
%TO.N,/RF_Tx/PAOutSelect*%
X149750000Y-80462500D02*
X149750000Y-79000000D01*
X148940648Y-79012011D02*
X148049511Y-79012011D01*
D53*
X149737989Y-79012011D02*
X148940648Y-79012011D01*
D52*
X148049511Y-79012011D02*
X148049511Y-79000000D01*
D53*
X149750000Y-79000000D02*
X149737989Y-79012011D01*
D52*
%TO.N,/RF_Tx/ModMatched*%
X145450489Y-79012011D02*
X145450489Y-79000000D01*
X144559352Y-79012011D02*
X145450489Y-79012011D01*
D53*
X144109511Y-79012011D02*
X144559352Y-79012011D01*
X144097500Y-79000000D02*
X144109511Y-79012011D01*
D51*
%TO.N,Net-(R14-Pad2)*%
X145287500Y-77712500D02*
X143825000Y-76250000D01*
D54*
X145287500Y-77750000D02*
X145287500Y-77712500D01*
D53*
%TO.N,Net-(J4-Pad1)*%
X149825000Y-77375000D02*
X149825000Y-73750000D01*
X149750000Y-77450000D02*
X149825000Y-77375000D01*
D52*
%TO.N,+3V0*%
X138067500Y-85817500D02*
X139250000Y-87000000D01*
X138067500Y-83500000D02*
X138067500Y-85817500D01*
%TO.N,+5V*%
X127850000Y-78512500D02*
X127112500Y-77775000D01*
X127850000Y-81750000D02*
X127850000Y-78512500D01*
X127112500Y-77775000D02*
X126850000Y-77775000D01*
X119000000Y-82750000D02*
X126850000Y-82750000D01*
X116750000Y-80500000D02*
X119000000Y-82750000D01*
X116500000Y-80500000D02*
X116750000Y-80500000D01*
X126850000Y-82750000D02*
X127850000Y-81750000D01*
D51*
%TO.N,/USB_N*%
X115100000Y-76850000D02*
X114150000Y-76850000D01*
X118600000Y-78100000D02*
X117500000Y-77000000D01*
X117500000Y-77000000D02*
X115250000Y-77000000D01*
X119050489Y-80907011D02*
X118600000Y-80456522D01*
X123627500Y-79722500D02*
X122442989Y-80907011D01*
X122442989Y-80907011D02*
X119050489Y-80907011D01*
X118600000Y-80456522D02*
X118600000Y-78100000D01*
X115250000Y-77000000D02*
X115100000Y-76850000D01*
X125200000Y-79722500D02*
X123627500Y-79722500D01*
%TO.N,/USB_P*%
X118099520Y-80662470D02*
X118843580Y-81406530D01*
X118099520Y-78349520D02*
X118099520Y-80662470D01*
X114150000Y-77500000D02*
X117250000Y-77500000D01*
X117250000Y-77500000D02*
X118099520Y-78349520D01*
D53*
%TO.N,/RF_Rx/DetectorIn*%
X153665000Y-85220000D02*
X153670000Y-85225000D01*
X153665000Y-83000000D02*
X153665000Y-85220000D01*
%TO.N,Net-(J3-Pad1)*%
X154000000Y-81000000D02*
X159870000Y-81000000D01*
D55*
%TO.N,GND*%
X145250000Y-91631059D02*
X145250000Y-91940529D01*
D54*
X135237500Y-79412500D02*
X134737500Y-78912500D01*
X136237500Y-80412500D02*
X133803158Y-80412500D01*
X136237500Y-79412500D02*
X135237500Y-79412500D01*
X133803158Y-80412500D02*
X133458769Y-80756889D01*
D55*
X145250000Y-91940529D02*
X146025000Y-92715529D01*
X146025000Y-92715529D02*
X146025000Y-92750000D01*
D51*
%TO.N,+5V*%
X152970000Y-90500000D02*
X152970000Y-92325000D01*
X153620000Y-92975000D02*
X153620000Y-94500000D01*
X138000000Y-93030000D02*
X137975000Y-93055000D01*
D53*
X116500000Y-79250000D02*
X116500000Y-80250000D01*
D55*
X144475000Y-93525000D02*
X144000000Y-94000000D01*
D52*
X120047500Y-98171000D02*
X120784000Y-98171000D01*
D53*
X155000000Y-96000000D02*
X155000000Y-94500000D01*
D52*
X153750000Y-94500000D02*
X155000000Y-94500000D01*
D51*
X125200000Y-77817500D02*
X126807500Y-77817500D01*
D55*
X144475000Y-92750000D02*
X144475000Y-93525000D01*
D53*
X153000000Y-97500000D02*
X153500000Y-97500000D01*
D51*
X144712020Y-89750000D02*
X145700000Y-89750000D01*
D52*
X121725000Y-97230000D02*
X121725000Y-96520000D01*
D55*
X144300000Y-91050000D02*
X144300000Y-92575000D01*
D53*
X153500000Y-97500000D02*
X155000000Y-96000000D01*
D51*
X145700000Y-89750000D02*
X146150000Y-90200000D01*
D52*
X138000000Y-91750000D02*
X138000000Y-93030000D01*
D51*
X152970000Y-92325000D02*
X153620000Y-92975000D01*
X121975000Y-96310000D02*
X123985000Y-96310000D01*
D53*
X116500000Y-78750000D02*
X116500000Y-79250000D01*
D51*
X144250000Y-90212020D02*
X144712020Y-89750000D01*
X133287500Y-91287500D02*
X133750000Y-91750000D01*
X126807500Y-77817500D02*
X126850000Y-77775000D01*
X123985000Y-96310000D02*
X124175000Y-96500000D01*
D53*
X117250000Y-79250000D02*
X116500000Y-79250000D01*
D51*
X133287500Y-90755000D02*
X133287500Y-91287500D01*
D52*
X120784000Y-98171000D02*
X121725000Y-97230000D01*
D51*
X146150000Y-90200000D02*
X146150000Y-91000000D01*
X144250000Y-91000000D02*
X144250000Y-90212020D01*
D55*
X144300000Y-92575000D02*
X144475000Y-92750000D01*
D51*
%TO.N,+3V0*%
X137512500Y-89455000D02*
X136000000Y-89455000D01*
X136000000Y-89500000D02*
X135305000Y-88805000D01*
X134405000Y-95595000D02*
X136000000Y-94000000D01*
X136237500Y-79912500D02*
X137487500Y-79912500D01*
D52*
X138067500Y-83500000D02*
X138067500Y-80575000D01*
D51*
X138750000Y-87500000D02*
X138750000Y-89211695D01*
X139250000Y-87000000D02*
X138750000Y-87500000D01*
X137487500Y-79912500D02*
X138237500Y-80662500D01*
D52*
X144300000Y-88725000D02*
X144300000Y-87175000D01*
D51*
X138750000Y-89211695D02*
X138506695Y-89455000D01*
X131957500Y-79912500D02*
X136237500Y-79912500D01*
X138506695Y-89455000D02*
X137512500Y-89455000D01*
D52*
X144300000Y-87175000D02*
X144475000Y-87000000D01*
D51*
X131957500Y-80412500D02*
X131957500Y-79912500D01*
X136000000Y-94000000D02*
X136000000Y-89500000D01*
X135305000Y-88805000D02*
X133287500Y-88805000D01*
D52*
X139250000Y-87000000D02*
X144475000Y-87000000D01*
X138067500Y-80575000D02*
X138237500Y-80575000D01*
D51*
X133025000Y-95595000D02*
X134405000Y-95595000D01*
D53*
%TO.N,Net-(C10-Pad2)*%
X142547500Y-79000000D02*
X141105000Y-79000000D01*
D51*
%TO.N,/RF_Rx/Signal*%
X152334511Y-96000000D02*
X152970000Y-95364511D01*
X148100000Y-94860000D02*
X149240000Y-96000000D01*
D52*
X148510000Y-95010000D02*
X146607500Y-95010000D01*
D51*
X149240000Y-96000000D02*
X152334511Y-96000000D01*
X152970000Y-95364511D02*
X152970000Y-94500000D01*
%TO.N,/UPDI*%
X115770000Y-91440000D02*
X115250000Y-91960000D01*
X115250000Y-91960000D02*
X115250000Y-96460000D01*
X114310000Y-97400000D02*
X112540000Y-97400000D01*
X116775000Y-91440000D02*
X115770000Y-91440000D01*
X115250000Y-96460000D02*
X114310000Y-97400000D01*
D52*
%TO.N,Net-(D1-Pad2)*%
X112787500Y-83000000D02*
X114175000Y-83000000D01*
D51*
%TO.N,/SeqProg*%
X125000000Y-98000000D02*
X125500000Y-98500000D01*
X125000000Y-95500000D02*
X125000000Y-98000000D01*
X125500000Y-98500000D02*
X140305000Y-98500000D01*
X124540000Y-95040000D02*
X125000000Y-95500000D01*
X121975000Y-95040000D02*
X124540000Y-95040000D01*
X140305000Y-98500000D02*
X141345000Y-97460000D01*
D52*
%TO.N,Net-(D2-Pad2)*%
X112787500Y-84750000D02*
X114175000Y-84750000D01*
D51*
%TO.N,Net-(C4-Pad2)*%
X123701522Y-78750000D02*
X120864022Y-75912500D01*
X120864022Y-75912500D02*
X120000000Y-75912500D01*
X126850000Y-79225000D02*
X126375000Y-78750000D01*
X126375000Y-78750000D02*
X123701522Y-78750000D01*
%TO.N,Net-(C11-Pad1)*%
X153620000Y-88525000D02*
X153620000Y-90500000D01*
D53*
X153670000Y-88500000D02*
X153670000Y-86775000D01*
D51*
X153645000Y-88500000D02*
X153620000Y-88525000D01*
D52*
%TO.N,/RF_Rx/Amp1*%
X140480000Y-92320000D02*
X140480000Y-90770000D01*
X141200000Y-90735000D02*
X141250000Y-90785000D01*
D51*
X139730000Y-90755000D02*
X139750000Y-90735000D01*
X137512500Y-90755000D02*
X139730000Y-90755000D01*
D52*
X139750000Y-90735000D02*
X140515000Y-90735000D01*
X140480000Y-90770000D02*
X140515000Y-90735000D01*
X140515000Y-90735000D02*
X141200000Y-90735000D01*
X135600000Y-87210000D02*
X136960000Y-87210000D01*
X136960000Y-87210000D02*
X137000000Y-87250000D01*
D51*
%TO.N,/uartTx*%
X118802500Y-76547500D02*
X118600000Y-76750000D01*
X120000000Y-76547500D02*
X118802500Y-76547500D01*
X118500000Y-88460000D02*
X117750000Y-87710000D01*
X118000000Y-92500000D02*
X118500000Y-92000000D01*
X118500000Y-92000000D02*
X118500000Y-88460000D01*
X117750000Y-87710000D02*
X114610000Y-87710000D01*
X117025000Y-92500000D02*
X118000000Y-92500000D01*
X114610000Y-87710000D02*
X112540000Y-89780000D01*
%TO.N,/uartRx*%
X123850000Y-74749018D02*
X123956518Y-74642500D01*
X119250000Y-92440000D02*
X119250000Y-88210000D01*
X119250000Y-88210000D02*
X118090000Y-87050000D01*
X123956518Y-74642500D02*
X125200000Y-74642500D01*
X116985000Y-93770000D02*
X117920000Y-93770000D01*
X118090000Y-87050000D02*
X112730000Y-87050000D01*
X112730000Y-87050000D02*
X112540000Y-87240000D01*
X117920000Y-93770000D02*
X119250000Y-92440000D01*
D53*
%TO.N,Net-(C12-Pad1)*%
X155220000Y-86750000D02*
X159770000Y-86750000D01*
D52*
%TO.N,/TagPulses*%
X137175000Y-94325000D02*
X137975000Y-94325000D01*
X135500000Y-97750000D02*
X136250000Y-97000000D01*
X131000000Y-96535000D02*
X129455000Y-96535000D01*
X121975000Y-92500000D02*
X123500000Y-92500000D01*
X131000000Y-97000000D02*
X131750000Y-97750000D01*
X131015000Y-96520000D02*
X131000000Y-96535000D01*
X131750000Y-97750000D02*
X135500000Y-97750000D01*
X125825000Y-94860000D02*
X127780000Y-94860000D01*
X131000000Y-97000000D02*
X131000000Y-96535000D01*
X125825000Y-96500000D02*
X125825000Y-94860000D01*
X125860000Y-94860000D02*
X127780000Y-94860000D01*
X136250000Y-95250000D02*
X137175000Y-94325000D01*
X136250000Y-97000000D02*
X136250000Y-95250000D01*
X123500000Y-92500000D02*
X125860000Y-94860000D01*
X129455000Y-96535000D02*
X127780000Y-94860000D01*
D51*
%TO.N,Net-(C13-Pad1)*%
X150282500Y-90500000D02*
X150145000Y-90637500D01*
X151670000Y-90500000D02*
X150282500Y-90500000D01*
D52*
%TO.N,Net-(C16-Pad1)*%
X142750000Y-92435000D02*
X142750000Y-90785000D01*
X142500000Y-92685000D02*
X142750000Y-92435000D01*
%TO.N,Net-(C16-Pad2)*%
X143210000Y-95960000D02*
X142500000Y-95250000D01*
X144062500Y-95960000D02*
X143210000Y-95960000D01*
X142500000Y-95250000D02*
X142500000Y-94235000D01*
%TO.N,Net-(Q1-Pad1)*%
X142995000Y-97460000D02*
X145387500Y-97460000D01*
X145937500Y-96910000D02*
X146050000Y-96910000D01*
X145387500Y-97460000D02*
X145937500Y-96910000D01*
D51*
%TO.N,Net-(U5-Pad1)*%
X135237500Y-82412500D02*
X136237500Y-81412500D01*
X136237500Y-81412500D02*
X136237500Y-80912500D01*
X134087500Y-82412500D02*
X135237500Y-82412500D01*
%TO.N,Net-(U5-Pad10)*%
X131737500Y-83187500D02*
X131737500Y-80912500D01*
X132012500Y-83462500D02*
X131737500Y-83187500D01*
X132737500Y-83462500D02*
X132012500Y-83462500D01*
%TO.N,Net-(C17-Pad2)*%
X137512500Y-90105000D02*
X138830000Y-90105000D01*
D52*
X139750000Y-89185000D02*
X142700000Y-89185000D01*
X142700000Y-89185000D02*
X142750000Y-89135000D01*
D51*
X138830000Y-90105000D02*
X139750000Y-89185000D01*
D52*
%TO.N,Net-(C18-Pad1)*%
X132650000Y-87210000D02*
X134050000Y-87210000D01*
%TO.N,/RF_Tx/ModLow*%
X129737500Y-80675000D02*
X129737500Y-79250000D01*
D51*
X130000000Y-79412500D02*
X131957500Y-79412500D01*
X129737500Y-79150000D02*
X130000000Y-79412500D01*
%TO.N,/USB_P*%
X118843581Y-81406531D02*
X122693469Y-81406531D01*
X123742500Y-80357500D02*
X125200000Y-80357500D01*
X122693469Y-81406531D02*
X123742500Y-80357500D01*
%TO.N,/VBUS*%
X114150000Y-76200000D02*
X116487500Y-76200000D01*
X116487500Y-76200000D02*
X116500000Y-76187500D01*
%TO.N,/RF_Rx/Amp2*%
X133287500Y-90105000D02*
X131130000Y-90105000D01*
D52*
X127500000Y-92040000D02*
X127780000Y-92320000D01*
X128170000Y-92320000D02*
X129350000Y-93500000D01*
X127500000Y-90610000D02*
X127500000Y-92040000D01*
X125250000Y-90610000D02*
X129175000Y-90610000D01*
X129175000Y-90610000D02*
X129500000Y-90285000D01*
X127780000Y-92320000D02*
X128170000Y-92320000D01*
X131000000Y-90235000D02*
X129550000Y-90235000D01*
D51*
X131130000Y-90105000D02*
X131000000Y-90235000D01*
D52*
X129550000Y-90235000D02*
X129500000Y-90285000D01*
%TO.N,Net-(C19-Pad2)*%
X128350000Y-87310000D02*
X129500000Y-88460000D01*
X129500000Y-88460000D02*
X129500000Y-88635000D01*
X131000000Y-87210000D02*
X131000000Y-88685000D01*
X125250000Y-87310000D02*
X128350000Y-87310000D01*
D51*
X133287500Y-89455000D02*
X131770000Y-89455000D01*
X131770000Y-89455000D02*
X131000000Y-88685000D01*
D52*
X129500000Y-88635000D02*
X130950000Y-88635000D01*
X130950000Y-88635000D02*
X131000000Y-88685000D01*
D53*
%TO.N,/RF_Tx/ModOut*%
X139530000Y-79000000D02*
X138067500Y-79000000D01*
D51*
X138237500Y-78912500D02*
X136237500Y-78912500D01*
%TO.N,/TagPreambleDetected*%
X121975000Y-88690000D02*
X121515000Y-88690000D01*
X121515000Y-88690000D02*
X115825000Y-83000000D01*
%TO.N,/TagEPCDetected*%
X120710000Y-89960000D02*
X121975000Y-89960000D01*
X120000000Y-88000000D02*
X120000000Y-89250000D01*
X116750000Y-84750000D02*
X120000000Y-88000000D01*
X115825000Y-84750000D02*
X116750000Y-84750000D01*
X120000000Y-89250000D02*
X120710000Y-89960000D01*
D52*
%TO.N,Net-(R10-Pad1)*%
X131000000Y-93500000D02*
X131000000Y-94250000D01*
X133025000Y-94325000D02*
X131075000Y-94325000D01*
X131075000Y-94325000D02*
X131000000Y-94250000D01*
X131000000Y-94250000D02*
X131000000Y-94885000D01*
%TD*%
%TA.AperFunction,Conductor*%
%TO.N,GND*%
G36*
X148881621Y-72270002D02*
G01*
X148928114Y-72323658D01*
X148939500Y-72376000D01*
X148939500Y-75724674D01*
X148954034Y-75797740D01*
X149009399Y-75880601D01*
X149019714Y-75887493D01*
X149028493Y-75896272D01*
X149027416Y-75897349D01*
X149064031Y-75941163D01*
X149074500Y-75991449D01*
X149074500Y-76982475D01*
X149066482Y-77026704D01*
X149033590Y-77114442D01*
X149033589Y-77114446D01*
X149030816Y-77121843D01*
X149029963Y-77129696D01*
X149029962Y-77129700D01*
X149024869Y-77176586D01*
X149024500Y-77179985D01*
X149024500Y-77239491D01*
X149021860Y-77265150D01*
X148997382Y-77382831D01*
X149002116Y-77557772D01*
X149003992Y-77564847D01*
X149020293Y-77626328D01*
X149024501Y-77658620D01*
X149024501Y-77720014D01*
X149030816Y-77778157D01*
X149078628Y-77905695D01*
X149160313Y-78014687D01*
X149186998Y-78034686D01*
X149229511Y-78091545D01*
X149234536Y-78162363D01*
X149200476Y-78224656D01*
X149138145Y-78258647D01*
X149111431Y-78261511D01*
X148896826Y-78261511D01*
X148813961Y-78271172D01*
X148774092Y-78275820D01*
X148774090Y-78275820D01*
X148766820Y-78276668D01*
X148759943Y-78279164D01*
X148759940Y-78279165D01*
X148632357Y-78325476D01*
X148602317Y-78336380D01*
X148596197Y-78340393D01*
X148596192Y-78340395D01*
X148575636Y-78353872D01*
X148506552Y-78374500D01*
X147896771Y-78374501D01*
X147825822Y-78374501D01*
X147821739Y-78375039D01*
X147821731Y-78375039D01*
X147800689Y-78377809D01*
X147780240Y-78380501D01*
X147771504Y-78384575D01*
X147771503Y-78384575D01*
X147717061Y-78409962D01*
X147680201Y-78427150D01*
X147602150Y-78505201D01*
X147597491Y-78515193D01*
X147597490Y-78515194D01*
X147569293Y-78575664D01*
X147555501Y-78605240D01*
X147554243Y-78614793D01*
X147554243Y-78614794D01*
X147553378Y-78621368D01*
X147549500Y-78650821D01*
X147549501Y-78849178D01*
X147550039Y-78853263D01*
X147550039Y-78853267D01*
X147554010Y-78883430D01*
X147551125Y-78919468D01*
X147553316Y-78919795D01*
X147551989Y-78928675D01*
X147549418Y-78937272D01*
X147549296Y-78957384D01*
X147549291Y-78958139D01*
X147549230Y-78959606D01*
X147549011Y-78961009D01*
X147549011Y-79003437D01*
X147549009Y-79004207D01*
X147548542Y-79080635D01*
X147551008Y-79089265D01*
X147552075Y-79097053D01*
X147552162Y-79130595D01*
X147550038Y-79146728D01*
X147550038Y-79146731D01*
X147549500Y-79150821D01*
X147549501Y-79349178D01*
X147555501Y-79394760D01*
X147559575Y-79403496D01*
X147559575Y-79403497D01*
X147575824Y-79438342D01*
X147602150Y-79494799D01*
X147680201Y-79572850D01*
X147690193Y-79577509D01*
X147690194Y-79577510D01*
X147771507Y-79615427D01*
X147771509Y-79615427D01*
X147780240Y-79619499D01*
X147789793Y-79620757D01*
X147789794Y-79620757D01*
X147813643Y-79623897D01*
X147825821Y-79625500D01*
X147887034Y-79625500D01*
X148462061Y-79625499D01*
X148520153Y-79643092D01*
X148521403Y-79640643D01*
X148599840Y-79680695D01*
X148677264Y-79720230D01*
X148684369Y-79721969D01*
X148684373Y-79721970D01*
X148755144Y-79739287D01*
X148847254Y-79761826D01*
X148852854Y-79762173D01*
X148852858Y-79762174D01*
X148856357Y-79762391D01*
X148856366Y-79762391D01*
X148858296Y-79762511D01*
X149016070Y-79762511D01*
X149084191Y-79782513D01*
X149130684Y-79836169D01*
X149140788Y-79906443D01*
X149116897Y-79964075D01*
X149083302Y-80008901D01*
X149083300Y-80008905D01*
X149077917Y-80016088D01*
X149074765Y-80024496D01*
X149035576Y-80129034D01*
X149030734Y-80141949D01*
X149029881Y-80149797D01*
X149029881Y-80149799D01*
X149025831Y-80187082D01*
X149024500Y-80199335D01*
X149024501Y-80725664D01*
X149030734Y-80783051D01*
X149033508Y-80790450D01*
X149033508Y-80790451D01*
X149045486Y-80822402D01*
X149077917Y-80908912D01*
X149083299Y-80916093D01*
X149083300Y-80916095D01*
X149121913Y-80967616D01*
X149158528Y-81016472D01*
X149266088Y-81097083D01*
X149274496Y-81100235D01*
X149359277Y-81132018D01*
X149416042Y-81174659D01*
X149440742Y-81241221D01*
X149425535Y-81310570D01*
X149375249Y-81360688D01*
X149359277Y-81367982D01*
X149311281Y-81385975D01*
X149266088Y-81402917D01*
X149258907Y-81408299D01*
X149258905Y-81408300D01*
X149195275Y-81455988D01*
X149158528Y-81483528D01*
X149153145Y-81490711D01*
X149146799Y-81497057D01*
X149144840Y-81495098D01*
X149099395Y-81529079D01*
X149055426Y-81537000D01*
X148997661Y-81537000D01*
X148929540Y-81516998D01*
X148896835Y-81486565D01*
X148845069Y-81417494D01*
X148845068Y-81417493D01*
X148839687Y-81410313D01*
X148730695Y-81328628D01*
X148603157Y-81280816D01*
X148595304Y-81279963D01*
X148595300Y-81279962D01*
X148548414Y-81274869D01*
X148548410Y-81274869D01*
X148545015Y-81274500D01*
X148275040Y-81274500D01*
X148004986Y-81274501D01*
X147946843Y-81280816D01*
X147819305Y-81328628D01*
X147710313Y-81410313D01*
X147628628Y-81519305D01*
X147580816Y-81646843D01*
X147579963Y-81654696D01*
X147579962Y-81654700D01*
X147577211Y-81680026D01*
X147574500Y-81704985D01*
X147574501Y-82295014D01*
X147580816Y-82353157D01*
X147628628Y-82480695D01*
X147646276Y-82504243D01*
X147704929Y-82582504D01*
X147704932Y-82582507D01*
X147710313Y-82589687D01*
X147717493Y-82595068D01*
X147717496Y-82595071D01*
X147724064Y-82599993D01*
X147766580Y-82656851D01*
X147774500Y-82700820D01*
X147774500Y-82799180D01*
X147754498Y-82867301D01*
X147724064Y-82900007D01*
X147717496Y-82904929D01*
X147717494Y-82904931D01*
X147710313Y-82910313D01*
X147704932Y-82917493D01*
X147704929Y-82917496D01*
X147678668Y-82952537D01*
X147628628Y-83019305D01*
X147580816Y-83146843D01*
X147579963Y-83154696D01*
X147579962Y-83154700D01*
X147575426Y-83196460D01*
X147574500Y-83204985D01*
X147574500Y-83440496D01*
X147554498Y-83508617D01*
X147537595Y-83529591D01*
X147104591Y-83962595D01*
X147042279Y-83996621D01*
X147015496Y-83999500D01*
X144464144Y-83999500D01*
X144396023Y-83979498D01*
X144380331Y-83967581D01*
X144373976Y-83961919D01*
X144323589Y-83935240D01*
X144300602Y-83923069D01*
X144234831Y-83888245D01*
X144169030Y-83871717D01*
X144089498Y-83851740D01*
X144089496Y-83851740D01*
X144082128Y-83849889D01*
X144074530Y-83849849D01*
X144074528Y-83849849D01*
X144007319Y-83849497D01*
X143924684Y-83849065D01*
X143917305Y-83850837D01*
X143917301Y-83850837D01*
X143778967Y-83884048D01*
X143778963Y-83884049D01*
X143771588Y-83885820D01*
X143743146Y-83900500D01*
X143665099Y-83940783D01*
X143631679Y-83958032D01*
X143625957Y-83963024D01*
X143625955Y-83963025D01*
X143518759Y-84056538D01*
X143518756Y-84056541D01*
X143513034Y-84061533D01*
X143486004Y-84099993D01*
X143435838Y-84171372D01*
X143422501Y-84190348D01*
X143365309Y-84337039D01*
X143363313Y-84352203D01*
X143347021Y-84475950D01*
X143344758Y-84493138D01*
X143362035Y-84649633D01*
X143416143Y-84797490D01*
X143420383Y-84803800D01*
X143423828Y-84810561D01*
X143422678Y-84811147D01*
X143441725Y-84871422D01*
X143423120Y-84939938D01*
X143370427Y-84987519D01*
X143315751Y-85000000D01*
X138694000Y-85000000D01*
X138625879Y-84979998D01*
X138579386Y-84926342D01*
X138568000Y-84874000D01*
X138568000Y-84200820D01*
X138588002Y-84132699D01*
X138618436Y-84099993D01*
X138625004Y-84095071D01*
X138625007Y-84095068D01*
X138632187Y-84089687D01*
X138637568Y-84082507D01*
X138637571Y-84082504D01*
X138708486Y-83987881D01*
X138713872Y-83980695D01*
X138761684Y-83853157D01*
X138762537Y-83845304D01*
X138762538Y-83845300D01*
X138767631Y-83798414D01*
X138767631Y-83798410D01*
X138768000Y-83795015D01*
X138767999Y-83204986D01*
X138761684Y-83146843D01*
X138713872Y-83019305D01*
X138663832Y-82952537D01*
X138637571Y-82917496D01*
X138637568Y-82917493D01*
X138632187Y-82910313D01*
X138625006Y-82904931D01*
X138625004Y-82904929D01*
X138618436Y-82900007D01*
X138575920Y-82843149D01*
X138568000Y-82799180D01*
X138568000Y-82679265D01*
X138588002Y-82611144D01*
X138602407Y-82593269D01*
X138607187Y-82589687D01*
X138688872Y-82480695D01*
X138736684Y-82353157D01*
X138737537Y-82345304D01*
X138737538Y-82345300D01*
X138742631Y-82298414D01*
X138742631Y-82298410D01*
X138743000Y-82295015D01*
X138742999Y-81704986D01*
X138736684Y-81646843D01*
X138688872Y-81519305D01*
X138607187Y-81410313D01*
X138603771Y-81407753D01*
X138570879Y-81347518D01*
X138568000Y-81320735D01*
X138568000Y-81260179D01*
X138588002Y-81192058D01*
X138618436Y-81159352D01*
X138651793Y-81134353D01*
X138651796Y-81134350D01*
X138658972Y-81128972D01*
X138725406Y-81040329D01*
X138734200Y-81028595D01*
X138734201Y-81028593D01*
X138739583Y-81021412D01*
X138777357Y-80920649D01*
X138783994Y-80902946D01*
X138783994Y-80902944D01*
X138786766Y-80895551D01*
X138789082Y-80874237D01*
X138792631Y-80841562D01*
X138793000Y-80838165D01*
X138792999Y-80311836D01*
X138786766Y-80254449D01*
X138751519Y-80160426D01*
X138742735Y-80136996D01*
X138739583Y-80128588D01*
X138731434Y-80117714D01*
X138664350Y-80028204D01*
X138658972Y-80021028D01*
X138651796Y-80015650D01*
X138651793Y-80015647D01*
X138600662Y-79977327D01*
X138558146Y-79920468D01*
X138553120Y-79849649D01*
X138587179Y-79787356D01*
X138649510Y-79753365D01*
X138676226Y-79750500D01*
X139573822Y-79750500D01*
X139588260Y-79748817D01*
X139625900Y-79744429D01*
X139667271Y-79746460D01*
X139670000Y-79747054D01*
X139670000Y-79750000D01*
X141010686Y-79750000D01*
X141018491Y-79750242D01*
X141020714Y-79750380D01*
X141020715Y-79750380D01*
X141022648Y-79750500D01*
X142591322Y-79750500D01*
X142594173Y-79750168D01*
X142599921Y-79750001D01*
X143952600Y-79750001D01*
X143982547Y-79753612D01*
X144010660Y-79760491D01*
X144010663Y-79760491D01*
X144016117Y-79761826D01*
X144021717Y-79762173D01*
X144021721Y-79762174D01*
X144027159Y-79762511D01*
X144027157Y-79762543D01*
X144031286Y-79762790D01*
X144035166Y-79763136D01*
X144042341Y-79764629D01*
X144049662Y-79764431D01*
X144049663Y-79764431D01*
X144118910Y-79762557D01*
X144122318Y-79762511D01*
X144603174Y-79762511D01*
X144703203Y-79750849D01*
X144717793Y-79750001D01*
X144920001Y-79750001D01*
X144920001Y-79736454D01*
X144922554Y-79724717D01*
X144956579Y-79662405D01*
X145018891Y-79628380D01*
X145045675Y-79625500D01*
X145625154Y-79625499D01*
X145674178Y-79625499D01*
X145678261Y-79624961D01*
X145678269Y-79624961D01*
X145699311Y-79622191D01*
X145719760Y-79619499D01*
X145819799Y-79572850D01*
X145897850Y-79494799D01*
X145911895Y-79464680D01*
X145940427Y-79403493D01*
X145940427Y-79403491D01*
X145944499Y-79394760D01*
X145945758Y-79385201D01*
X145949320Y-79358140D01*
X145950500Y-79349179D01*
X145950499Y-79150822D01*
X145947762Y-79130030D01*
X145948066Y-79095162D01*
X145950582Y-79086750D01*
X145950790Y-79052829D01*
X145950821Y-79052086D01*
X145950989Y-79051002D01*
X145950989Y-79020585D01*
X145950991Y-79019815D01*
X145951117Y-78999129D01*
X145951458Y-78943387D01*
X145948992Y-78934757D01*
X145947773Y-78925862D01*
X145948701Y-78925735D01*
X145945724Y-78885454D01*
X145945991Y-78883430D01*
X145950500Y-78849179D01*
X145950499Y-78650822D01*
X145944499Y-78605240D01*
X145932294Y-78579066D01*
X145902510Y-78515194D01*
X145902509Y-78515193D01*
X145897850Y-78505201D01*
X145819799Y-78427150D01*
X145783692Y-78410313D01*
X145728493Y-78384573D01*
X145728491Y-78384573D01*
X145719760Y-78380501D01*
X145710209Y-78379244D01*
X145710207Y-78379243D01*
X145677378Y-78374921D01*
X145612452Y-78346198D01*
X145573360Y-78286932D01*
X145572516Y-78215941D01*
X145610187Y-78155762D01*
X145677383Y-78125077D01*
X145719760Y-78119499D01*
X145728497Y-78115425D01*
X145809806Y-78077510D01*
X145809807Y-78077509D01*
X145819799Y-78072850D01*
X145897850Y-77994799D01*
X145920483Y-77946262D01*
X145940427Y-77903493D01*
X145940427Y-77903491D01*
X145944499Y-77894760D01*
X145945758Y-77885201D01*
X145949962Y-77853264D01*
X145950500Y-77849179D01*
X145950499Y-77650822D01*
X145944499Y-77605240D01*
X145928063Y-77569993D01*
X145902510Y-77515194D01*
X145902509Y-77515193D01*
X145897850Y-77505201D01*
X145819799Y-77427150D01*
X145809806Y-77422490D01*
X145728493Y-77384573D01*
X145728491Y-77384573D01*
X145719760Y-77380501D01*
X145710207Y-77379243D01*
X145710206Y-77379243D01*
X145686357Y-77376103D01*
X145674179Y-77374500D01*
X145568082Y-77374500D01*
X145499961Y-77354498D01*
X145478991Y-77337599D01*
X144512403Y-76371010D01*
X144478379Y-76308700D01*
X144475500Y-76281917D01*
X144475500Y-75921166D01*
X144472519Y-75889631D01*
X144427634Y-75761816D01*
X144422042Y-75754246D01*
X144422041Y-75754243D01*
X144352742Y-75660421D01*
X144347150Y-75652850D01*
X144277953Y-75601740D01*
X144245757Y-75577959D01*
X144245754Y-75577958D01*
X144238184Y-75572366D01*
X144110369Y-75527481D01*
X144102723Y-75526758D01*
X144102722Y-75526758D01*
X144096752Y-75526194D01*
X144078834Y-75524500D01*
X143571166Y-75524500D01*
X143553248Y-75526194D01*
X143547278Y-75526758D01*
X143547277Y-75526758D01*
X143539631Y-75527481D01*
X143411816Y-75572366D01*
X143404246Y-75577958D01*
X143404243Y-75577959D01*
X143372047Y-75601740D01*
X143302850Y-75652850D01*
X143297258Y-75660421D01*
X143227959Y-75754243D01*
X143227958Y-75754246D01*
X143222366Y-75761816D01*
X143177481Y-75889631D01*
X143174500Y-75921166D01*
X143174500Y-76578834D01*
X143174779Y-76581782D01*
X143176454Y-76599500D01*
X143177481Y-76610369D01*
X143222366Y-76738184D01*
X143227958Y-76745754D01*
X143227959Y-76745757D01*
X143290335Y-76830206D01*
X143302850Y-76847150D01*
X143314340Y-76855637D01*
X143404243Y-76922041D01*
X143404246Y-76922042D01*
X143411816Y-76927634D01*
X143539631Y-76972519D01*
X143547277Y-76973242D01*
X143547278Y-76973242D01*
X143553248Y-76973806D01*
X143571166Y-76975500D01*
X143931916Y-76975500D01*
X144000037Y-76995502D01*
X144021011Y-77012404D01*
X144306167Y-77297559D01*
X144587595Y-77578987D01*
X144621620Y-77641300D01*
X144624500Y-77668082D01*
X144624501Y-77766570D01*
X144624501Y-77849178D01*
X144630501Y-77894760D01*
X144634575Y-77903496D01*
X144634575Y-77903497D01*
X144650845Y-77938387D01*
X144677150Y-77994799D01*
X144717257Y-78034906D01*
X144751283Y-78097218D01*
X144746218Y-78168033D01*
X144703671Y-78224869D01*
X144637151Y-78249680D01*
X144628162Y-78250001D01*
X144190084Y-78250001D01*
X144178881Y-78249502D01*
X144171838Y-78248873D01*
X144164669Y-78247382D01*
X144157351Y-78247580D01*
X144157350Y-78247580D01*
X144076834Y-78249759D01*
X144070701Y-78249925D01*
X144069592Y-78249955D01*
X144066183Y-78250001D01*
X142641831Y-78250001D01*
X142634025Y-78249759D01*
X142629852Y-78249500D01*
X141061178Y-78249500D01*
X141058319Y-78249833D01*
X141052569Y-78250000D01*
X139670000Y-78250000D01*
X139670000Y-78249666D01*
X139634678Y-78250472D01*
X139634390Y-78252363D01*
X139628851Y-78251520D01*
X139623394Y-78250185D01*
X139617789Y-78249837D01*
X139617787Y-78249837D01*
X139614291Y-78249620D01*
X139614282Y-78249620D01*
X139612352Y-78249500D01*
X138023678Y-78249500D01*
X137954408Y-78257576D01*
X137900942Y-78263809D01*
X137900939Y-78263810D01*
X137893672Y-78264657D01*
X137886797Y-78267153D01*
X137886795Y-78267153D01*
X137775987Y-78307375D01*
X137746601Y-78314199D01*
X137709449Y-78318234D01*
X137583588Y-78365417D01*
X137576407Y-78370799D01*
X137576405Y-78370800D01*
X137501217Y-78427150D01*
X137476028Y-78446028D01*
X137464384Y-78461565D01*
X137407526Y-78504080D01*
X137363558Y-78512000D01*
X136205981Y-78512000D01*
X136159859Y-78519305D01*
X136152636Y-78520449D01*
X136132925Y-78522000D01*
X135512826Y-78522000D01*
X135439760Y-78536534D01*
X135429443Y-78543428D01*
X135429442Y-78543428D01*
X135424988Y-78546404D01*
X135356899Y-78591899D01*
X135301534Y-78674760D01*
X135287000Y-78747826D01*
X135287000Y-79077174D01*
X135301534Y-79150240D01*
X135356899Y-79233101D01*
X135367214Y-79239993D01*
X135367215Y-79239994D01*
X135428936Y-79281234D01*
X135474464Y-79335711D01*
X135483313Y-79406154D01*
X135452672Y-79470198D01*
X135392270Y-79507510D01*
X135358935Y-79512000D01*
X133034000Y-79512000D01*
X132965879Y-79491998D01*
X132919386Y-79438342D01*
X132908000Y-79386000D01*
X132908000Y-79247826D01*
X132895917Y-79187082D01*
X132895917Y-79137918D01*
X132899251Y-79121158D01*
X132908000Y-79077174D01*
X132908000Y-78747826D01*
X132893466Y-78674760D01*
X132838101Y-78591899D01*
X132770012Y-78546404D01*
X132765558Y-78543428D01*
X132765557Y-78543428D01*
X132755240Y-78536534D01*
X132682174Y-78522000D01*
X131232826Y-78522000D01*
X131159760Y-78536534D01*
X131149443Y-78543428D01*
X131149442Y-78543428D01*
X131144988Y-78546404D01*
X131076899Y-78591899D01*
X131021534Y-78674760D01*
X131007000Y-78747826D01*
X131007000Y-78886000D01*
X130986998Y-78954121D01*
X130933342Y-79000614D01*
X130881000Y-79012000D01*
X130565950Y-79012000D01*
X130497829Y-78991998D01*
X130451336Y-78938342D01*
X130447067Y-78927749D01*
X130442355Y-78914332D01*
X130415134Y-78836816D01*
X130409542Y-78829246D01*
X130409541Y-78829243D01*
X130340242Y-78735421D01*
X130334650Y-78727850D01*
X130303695Y-78704986D01*
X130233257Y-78652959D01*
X130233254Y-78652958D01*
X130225684Y-78647366D01*
X130097869Y-78602481D01*
X130090223Y-78601758D01*
X130090222Y-78601758D01*
X130084252Y-78601194D01*
X130066334Y-78599500D01*
X129408666Y-78599500D01*
X129390748Y-78601194D01*
X129384778Y-78601758D01*
X129384777Y-78601758D01*
X129377131Y-78602481D01*
X129249316Y-78647366D01*
X129241746Y-78652958D01*
X129241743Y-78652959D01*
X129171305Y-78704986D01*
X129140350Y-78727850D01*
X129134758Y-78735421D01*
X129065459Y-78829243D01*
X129065458Y-78829246D01*
X129059866Y-78836816D01*
X129014981Y-78964631D01*
X129012000Y-78996166D01*
X129012000Y-79503834D01*
X129014981Y-79535369D01*
X129059866Y-79663184D01*
X129065458Y-79670754D01*
X129065459Y-79670757D01*
X129134754Y-79764574D01*
X129140350Y-79772150D01*
X129171379Y-79795068D01*
X129185860Y-79805764D01*
X129228771Y-79862326D01*
X129237000Y-79907115D01*
X129237000Y-80017885D01*
X129216998Y-80086006D01*
X129185861Y-80119235D01*
X129140350Y-80152850D01*
X129134755Y-80160425D01*
X129134754Y-80160426D01*
X129065459Y-80254243D01*
X129065458Y-80254246D01*
X129059866Y-80261816D01*
X129014981Y-80389631D01*
X129012000Y-80421166D01*
X129012000Y-80928834D01*
X129014981Y-80960369D01*
X129059866Y-81088184D01*
X129065458Y-81095754D01*
X129065459Y-81095757D01*
X129123738Y-81174659D01*
X129140350Y-81197150D01*
X129147921Y-81202742D01*
X129241743Y-81272041D01*
X129241746Y-81272042D01*
X129249316Y-81277634D01*
X129377131Y-81322519D01*
X129384777Y-81323242D01*
X129384778Y-81323242D01*
X129390748Y-81323806D01*
X129408666Y-81325500D01*
X130066334Y-81325500D01*
X130084252Y-81323806D01*
X130090222Y-81323242D01*
X130090223Y-81323242D01*
X130097869Y-81322519D01*
X130225684Y-81277634D01*
X130233254Y-81272042D01*
X130233257Y-81272041D01*
X130327079Y-81202742D01*
X130334650Y-81197150D01*
X130351262Y-81174659D01*
X130409541Y-81095757D01*
X130409542Y-81095754D01*
X130415134Y-81088184D01*
X130460019Y-80960369D01*
X130463000Y-80928834D01*
X130463000Y-80421166D01*
X130460019Y-80389631D01*
X130415134Y-80261816D01*
X130409542Y-80254246D01*
X130409541Y-80254243D01*
X130340246Y-80160426D01*
X130340245Y-80160425D01*
X130334650Y-80152850D01*
X130289139Y-80119235D01*
X130246229Y-80062674D01*
X130238000Y-80017885D01*
X130238000Y-79939000D01*
X130258002Y-79870879D01*
X130311658Y-79824386D01*
X130364000Y-79813000D01*
X130881000Y-79813000D01*
X130949121Y-79833002D01*
X130995614Y-79886658D01*
X131007000Y-79939000D01*
X131007000Y-80077174D01*
X131008207Y-80083241D01*
X131019083Y-80137918D01*
X131019083Y-80187082D01*
X131007000Y-80247826D01*
X131007000Y-80577174D01*
X131011981Y-80602214D01*
X131019083Y-80637918D01*
X131019083Y-80687082D01*
X131007000Y-80747826D01*
X131007000Y-81077174D01*
X131021534Y-81150240D01*
X131076899Y-81233101D01*
X131087214Y-81239993D01*
X131148199Y-81280741D01*
X131159760Y-81288466D01*
X131171931Y-81290887D01*
X131232826Y-81303000D01*
X131232405Y-81305118D01*
X131289167Y-81328027D01*
X131330186Y-81385975D01*
X131337000Y-81426850D01*
X131337000Y-83250933D01*
X131340064Y-83260364D01*
X131340065Y-83260368D01*
X131343797Y-83271853D01*
X131348413Y-83291078D01*
X131351854Y-83312804D01*
X131356355Y-83321637D01*
X131356356Y-83321641D01*
X131361841Y-83332406D01*
X131369405Y-83350666D01*
X131376204Y-83371590D01*
X131389139Y-83389393D01*
X131399465Y-83406245D01*
X131409450Y-83425842D01*
X131432013Y-83448405D01*
X131432016Y-83448409D01*
X131751591Y-83767984D01*
X131751595Y-83767987D01*
X131774158Y-83790550D01*
X131782997Y-83795054D01*
X131782999Y-83795055D01*
X131793758Y-83800537D01*
X131810614Y-83810865D01*
X131828411Y-83823796D01*
X131849332Y-83830594D01*
X131867592Y-83838158D01*
X131878359Y-83843644D01*
X131878363Y-83843645D01*
X131887196Y-83848146D01*
X131896987Y-83849697D01*
X131896988Y-83849697D01*
X131908922Y-83851587D01*
X131928147Y-83856203D01*
X131939632Y-83859935D01*
X131939636Y-83859936D01*
X131949067Y-83863000D01*
X131965041Y-83863000D01*
X132033162Y-83883002D01*
X132076445Y-83934795D01*
X132076534Y-83935240D01*
X132083426Y-83945555D01*
X132083427Y-83945557D01*
X132111156Y-83987056D01*
X132131899Y-84018101D01*
X132154955Y-84033506D01*
X132181872Y-84051491D01*
X132214760Y-84073466D01*
X132287826Y-84088000D01*
X133187174Y-84088000D01*
X133260240Y-84073466D01*
X133293129Y-84051491D01*
X133320045Y-84033506D01*
X133343101Y-84018101D01*
X133398466Y-83935240D01*
X133413000Y-83862174D01*
X133413000Y-83146557D01*
X133433002Y-83078436D01*
X133486658Y-83031943D01*
X133556932Y-83021839D01*
X133564662Y-83023960D01*
X133564760Y-83023466D01*
X133637826Y-83038000D01*
X134537174Y-83038000D01*
X134610240Y-83023466D01*
X134693101Y-82968101D01*
X134713664Y-82937326D01*
X134741573Y-82895557D01*
X134741574Y-82895555D01*
X134748466Y-82885240D01*
X134748613Y-82884500D01*
X134788097Y-82835502D01*
X134859959Y-82813000D01*
X135300933Y-82813000D01*
X135310364Y-82809936D01*
X135310368Y-82809935D01*
X135321853Y-82806203D01*
X135341078Y-82801587D01*
X135353012Y-82799697D01*
X135353013Y-82799697D01*
X135362804Y-82798146D01*
X135371637Y-82793645D01*
X135371641Y-82793644D01*
X135382406Y-82788159D01*
X135400666Y-82780595D01*
X135421590Y-82773796D01*
X135439393Y-82760861D01*
X135456245Y-82750535D01*
X135467002Y-82745054D01*
X135475842Y-82740550D01*
X135498405Y-82717987D01*
X135498409Y-82717984D01*
X136542984Y-81673409D01*
X136542987Y-81673405D01*
X136565550Y-81650842D01*
X136571358Y-81639444D01*
X136575537Y-81631243D01*
X136585866Y-81614387D01*
X136592967Y-81604613D01*
X136598797Y-81596589D01*
X136605596Y-81575664D01*
X136613160Y-81557403D01*
X136618644Y-81546640D01*
X136618644Y-81546639D01*
X136623146Y-81537804D01*
X136626587Y-81516078D01*
X136631203Y-81496852D01*
X136634935Y-81485367D01*
X136634935Y-81485365D01*
X136638000Y-81475933D01*
X136638000Y-81429000D01*
X136658002Y-81360879D01*
X136711658Y-81314386D01*
X136764000Y-81303000D01*
X136962174Y-81303000D01*
X137035240Y-81288466D01*
X137046802Y-81280741D01*
X137107786Y-81239993D01*
X137118101Y-81233101D01*
X137173466Y-81150240D01*
X137185188Y-81091311D01*
X137218096Y-81028402D01*
X137279791Y-80993270D01*
X137350686Y-80997070D01*
X137409594Y-81040329D01*
X137470647Y-81121793D01*
X137470650Y-81121796D01*
X137476028Y-81128972D01*
X137483204Y-81134350D01*
X137483207Y-81134353D01*
X137516564Y-81159352D01*
X137559080Y-81216211D01*
X137567000Y-81260179D01*
X137567000Y-81280444D01*
X137546998Y-81348565D01*
X137516565Y-81381270D01*
X137477813Y-81410313D01*
X137396128Y-81519305D01*
X137348316Y-81646843D01*
X137347463Y-81654696D01*
X137347462Y-81654700D01*
X137344711Y-81680026D01*
X137342000Y-81704985D01*
X137342001Y-82295014D01*
X137348316Y-82353157D01*
X137396128Y-82480695D01*
X137477813Y-82589687D01*
X137484993Y-82595068D01*
X137516565Y-82618730D01*
X137559080Y-82675589D01*
X137567000Y-82719556D01*
X137567000Y-82799180D01*
X137546998Y-82867301D01*
X137516564Y-82900007D01*
X137509996Y-82904929D01*
X137509994Y-82904931D01*
X137502813Y-82910313D01*
X137497432Y-82917493D01*
X137497429Y-82917496D01*
X137471168Y-82952537D01*
X137421128Y-83019305D01*
X137373316Y-83146843D01*
X137372463Y-83154696D01*
X137372462Y-83154700D01*
X137367926Y-83196460D01*
X137367000Y-83204985D01*
X137367001Y-83795014D01*
X137373316Y-83853157D01*
X137421128Y-83980695D01*
X137426514Y-83987881D01*
X137497429Y-84082504D01*
X137497432Y-84082507D01*
X137502813Y-84089687D01*
X137509993Y-84095068D01*
X137509996Y-84095071D01*
X137516564Y-84099993D01*
X137559080Y-84156851D01*
X137567000Y-84200820D01*
X137567000Y-84874000D01*
X137546998Y-84942121D01*
X137493342Y-84988614D01*
X137441000Y-85000000D01*
X129762005Y-85000000D01*
X129693884Y-84979998D01*
X129647391Y-84926342D01*
X129637287Y-84856068D01*
X129666781Y-84791488D01*
X129672909Y-84784905D01*
X130041779Y-84416034D01*
X130051123Y-84408567D01*
X130050792Y-84408178D01*
X130057628Y-84402360D01*
X130065220Y-84397570D01*
X130072232Y-84389631D01*
X130100263Y-84357891D01*
X130105610Y-84352203D01*
X130116820Y-84340993D01*
X130119510Y-84337404D01*
X130122944Y-84332823D01*
X130129327Y-84324982D01*
X130154179Y-84296842D01*
X130160123Y-84290112D01*
X130163938Y-84281987D01*
X130166020Y-84278817D01*
X130173823Y-84265830D01*
X130175643Y-84262506D01*
X130181026Y-84255324D01*
X130197357Y-84211761D01*
X130201283Y-84202447D01*
X130217237Y-84168466D01*
X130217238Y-84168463D01*
X130221053Y-84160337D01*
X130222435Y-84151463D01*
X130223539Y-84147850D01*
X130227385Y-84133193D01*
X130228199Y-84129490D01*
X130231352Y-84121080D01*
X130234802Y-84074657D01*
X130235953Y-84064639D01*
X130238000Y-84051491D01*
X130238000Y-84036296D01*
X130238346Y-84026959D01*
X130241311Y-83987056D01*
X130241976Y-83978108D01*
X130240103Y-83969332D01*
X130239492Y-83960375D01*
X130239498Y-83960375D01*
X130238000Y-83946182D01*
X130238000Y-82982115D01*
X130258002Y-82913994D01*
X130289140Y-82880764D01*
X130314265Y-82862207D01*
X130334650Y-82847150D01*
X130340862Y-82838740D01*
X130409541Y-82745757D01*
X130409542Y-82745754D01*
X130415134Y-82738184D01*
X130460019Y-82610369D01*
X130463000Y-82578834D01*
X130463000Y-82071166D01*
X130460019Y-82039631D01*
X130415134Y-81911816D01*
X130409542Y-81904246D01*
X130409541Y-81904243D01*
X130344068Y-81815601D01*
X130334650Y-81802850D01*
X130296435Y-81774624D01*
X130233257Y-81727959D01*
X130233254Y-81727958D01*
X130225684Y-81722366D01*
X130097869Y-81677481D01*
X130090223Y-81676758D01*
X130090222Y-81676758D01*
X130084252Y-81676194D01*
X130066334Y-81674500D01*
X129408666Y-81674500D01*
X129390748Y-81676194D01*
X129384778Y-81676758D01*
X129384777Y-81676758D01*
X129377131Y-81677481D01*
X129249316Y-81722366D01*
X129241746Y-81727958D01*
X129241743Y-81727959D01*
X129178565Y-81774624D01*
X129140350Y-81802850D01*
X129130932Y-81815601D01*
X129065459Y-81904243D01*
X129065458Y-81904246D01*
X129059866Y-81911816D01*
X129014981Y-82039631D01*
X129012000Y-82071166D01*
X129012000Y-82578834D01*
X129014981Y-82610369D01*
X129059866Y-82738184D01*
X129065458Y-82745754D01*
X129065459Y-82745757D01*
X129134138Y-82838740D01*
X129140350Y-82847150D01*
X129160736Y-82862207D01*
X129185860Y-82880764D01*
X129228771Y-82937326D01*
X129237000Y-82982115D01*
X129237000Y-83752996D01*
X129216998Y-83821117D01*
X129200095Y-83842091D01*
X128909646Y-84132540D01*
X128847334Y-84166566D01*
X128776519Y-84161501D01*
X128719593Y-84118834D01*
X128701849Y-84095071D01*
X128601335Y-83960467D01*
X128585207Y-83945558D01*
X128457053Y-83827094D01*
X128457051Y-83827092D01*
X128452812Y-83823174D01*
X128446607Y-83819259D01*
X128286637Y-83718325D01*
X128281757Y-83715246D01*
X128093898Y-83640298D01*
X127895526Y-83600839D01*
X127889752Y-83600763D01*
X127889748Y-83600763D01*
X127787257Y-83599422D01*
X127693286Y-83598192D01*
X127687589Y-83599171D01*
X127687588Y-83599171D01*
X127499646Y-83631465D01*
X127499645Y-83631465D01*
X127493949Y-83632444D01*
X127304193Y-83702449D01*
X127299232Y-83705401D01*
X127299231Y-83705401D01*
X127139322Y-83800537D01*
X127130371Y-83805862D01*
X126978305Y-83939220D01*
X126853089Y-84098057D01*
X126758914Y-84277053D01*
X126698937Y-84470213D01*
X126675164Y-84671069D01*
X126675542Y-84676836D01*
X126687924Y-84865760D01*
X126672420Y-84935043D01*
X126621920Y-84984945D01*
X126562194Y-85000000D01*
X126466500Y-85000000D01*
X126398379Y-84979998D01*
X126351886Y-84926342D01*
X126340500Y-84874000D01*
X126340500Y-83825326D01*
X126325966Y-83752260D01*
X126303921Y-83719266D01*
X126277493Y-83679714D01*
X126270601Y-83669399D01*
X126187740Y-83614034D01*
X126114674Y-83599500D01*
X124365326Y-83599500D01*
X124292260Y-83614034D01*
X124209399Y-83669399D01*
X124202507Y-83679714D01*
X124176080Y-83719266D01*
X124154034Y-83752260D01*
X124139500Y-83825326D01*
X124139500Y-84255075D01*
X124119498Y-84323196D01*
X124077927Y-84360806D01*
X124078518Y-84361619D01*
X124070951Y-84367117D01*
X124070702Y-84367342D01*
X124061658Y-84371950D01*
X124039095Y-84394513D01*
X124039091Y-84394516D01*
X123194516Y-85239091D01*
X123194513Y-85239095D01*
X123171950Y-85261658D01*
X123167446Y-85270498D01*
X123161965Y-85281255D01*
X123151639Y-85298107D01*
X123138704Y-85315910D01*
X123132731Y-85334293D01*
X123131907Y-85336830D01*
X123124341Y-85355094D01*
X123118856Y-85365859D01*
X123118855Y-85365863D01*
X123114354Y-85374696D01*
X123112803Y-85384487D01*
X123112803Y-85384488D01*
X123110913Y-85396422D01*
X123106297Y-85415647D01*
X123102565Y-85427132D01*
X123102564Y-85427136D01*
X123099500Y-85436567D01*
X123099500Y-88039160D01*
X123079498Y-88107281D01*
X123025842Y-88153774D01*
X122955568Y-88163878D01*
X122934565Y-88158994D01*
X122934139Y-88158855D01*
X122925304Y-88154354D01*
X122831519Y-88139500D01*
X122718784Y-88139500D01*
X121583083Y-88139501D01*
X121514962Y-88119499D01*
X121493988Y-88102596D01*
X116512405Y-83121012D01*
X116478379Y-83058700D01*
X116475500Y-83031917D01*
X116475500Y-82671166D01*
X116472519Y-82639631D01*
X116427634Y-82511816D01*
X116422042Y-82504246D01*
X116422041Y-82504243D01*
X116356070Y-82414927D01*
X116347150Y-82402850D01*
X116304596Y-82371419D01*
X116245757Y-82327959D01*
X116245754Y-82327958D01*
X116238184Y-82322366D01*
X116110369Y-82277481D01*
X116102723Y-82276758D01*
X116102722Y-82276758D01*
X116096024Y-82276125D01*
X116078834Y-82274500D01*
X115571166Y-82274500D01*
X115553976Y-82276125D01*
X115547278Y-82276758D01*
X115547277Y-82276758D01*
X115539631Y-82277481D01*
X115411816Y-82322366D01*
X115404246Y-82327958D01*
X115404243Y-82327959D01*
X115345404Y-82371419D01*
X115302850Y-82402850D01*
X115293930Y-82414927D01*
X115227959Y-82504243D01*
X115227958Y-82504246D01*
X115222366Y-82511816D01*
X115177481Y-82639631D01*
X115174500Y-82671166D01*
X115174500Y-83328834D01*
X115177481Y-83360369D01*
X115222366Y-83488184D01*
X115227958Y-83495754D01*
X115227959Y-83495757D01*
X115290335Y-83580206D01*
X115302850Y-83597150D01*
X115310421Y-83602742D01*
X115404243Y-83672041D01*
X115404246Y-83672042D01*
X115411816Y-83677634D01*
X115539631Y-83722519D01*
X115547277Y-83723242D01*
X115547278Y-83723242D01*
X115553248Y-83723806D01*
X115571166Y-83725500D01*
X115931917Y-83725500D01*
X116000038Y-83745502D01*
X116021012Y-83762405D01*
X116068012Y-83809405D01*
X116102038Y-83871717D01*
X116096973Y-83942532D01*
X116054426Y-83999368D01*
X115987906Y-84024179D01*
X115978917Y-84024500D01*
X115571166Y-84024500D01*
X115553248Y-84026194D01*
X115547278Y-84026758D01*
X115547277Y-84026758D01*
X115539631Y-84027481D01*
X115411816Y-84072366D01*
X115404246Y-84077958D01*
X115404243Y-84077959D01*
X115345863Y-84121080D01*
X115302850Y-84152850D01*
X115297258Y-84160421D01*
X115227959Y-84254243D01*
X115227958Y-84254246D01*
X115222366Y-84261816D01*
X115177481Y-84389631D01*
X115176758Y-84397277D01*
X115176758Y-84397278D01*
X115176520Y-84399799D01*
X115174500Y-84421166D01*
X115174500Y-85078834D01*
X115177481Y-85110369D01*
X115222366Y-85238184D01*
X115227958Y-85245754D01*
X115227959Y-85245757D01*
X115273853Y-85307891D01*
X115302850Y-85347150D01*
X115310421Y-85352742D01*
X115404243Y-85422041D01*
X115404246Y-85422042D01*
X115411816Y-85427634D01*
X115539631Y-85472519D01*
X115547277Y-85473242D01*
X115547278Y-85473242D01*
X115553248Y-85473806D01*
X115571166Y-85475500D01*
X116078834Y-85475500D01*
X116096752Y-85473806D01*
X116102722Y-85473242D01*
X116102723Y-85473242D01*
X116110369Y-85472519D01*
X116238184Y-85427634D01*
X116245754Y-85422042D01*
X116245757Y-85422041D01*
X116339579Y-85352742D01*
X116347150Y-85347150D01*
X116427634Y-85238184D01*
X116430754Y-85229300D01*
X116431297Y-85228274D01*
X116480850Y-85177431D01*
X116550025Y-85161450D01*
X116616858Y-85185404D01*
X116631746Y-85198139D01*
X117868012Y-86434405D01*
X117902038Y-86496717D01*
X117896973Y-86567532D01*
X117854426Y-86624368D01*
X117787906Y-86649179D01*
X117778917Y-86649500D01*
X113535788Y-86649500D01*
X113467667Y-86629498D01*
X113434830Y-86598889D01*
X113364788Y-86505091D01*
X113364787Y-86505090D01*
X113361335Y-86500467D01*
X113338350Y-86479220D01*
X113217053Y-86367094D01*
X113217051Y-86367092D01*
X113212812Y-86363174D01*
X113185374Y-86345862D01*
X113046637Y-86258325D01*
X113041757Y-86255246D01*
X112853898Y-86180298D01*
X112655526Y-86140839D01*
X112649752Y-86140763D01*
X112649748Y-86140763D01*
X112547257Y-86139422D01*
X112453286Y-86138192D01*
X112447589Y-86139171D01*
X112447588Y-86139171D01*
X112259646Y-86171465D01*
X112259645Y-86171465D01*
X112253949Y-86172444D01*
X112064193Y-86242449D01*
X112059232Y-86245401D01*
X112059231Y-86245401D01*
X111960315Y-86304250D01*
X111890371Y-86345862D01*
X111738305Y-86479220D01*
X111613089Y-86638057D01*
X111518914Y-86817053D01*
X111458937Y-87010213D01*
X111435164Y-87211069D01*
X111448392Y-87412894D01*
X111470641Y-87500500D01*
X111494497Y-87594432D01*
X111498178Y-87608928D01*
X111582856Y-87792607D01*
X111586189Y-87797323D01*
X111658199Y-87899215D01*
X111699588Y-87957780D01*
X111703730Y-87961815D01*
X111716401Y-87974158D01*
X111844466Y-88098913D01*
X111849270Y-88102123D01*
X111861807Y-88110500D01*
X112012637Y-88211282D01*
X112017940Y-88213560D01*
X112017943Y-88213562D01*
X112193163Y-88288842D01*
X112198470Y-88291122D01*
X112395740Y-88335760D01*
X112401509Y-88335987D01*
X112401512Y-88335987D01*
X112477683Y-88338979D01*
X112597842Y-88343700D01*
X112684132Y-88331189D01*
X112792286Y-88315508D01*
X112792291Y-88315507D01*
X112798007Y-88314678D01*
X112803479Y-88312820D01*
X112803481Y-88312820D01*
X112984067Y-88251519D01*
X112984069Y-88251518D01*
X112989531Y-88249664D01*
X113120912Y-88176088D01*
X113160964Y-88153658D01*
X113160965Y-88153657D01*
X113166001Y-88150837D01*
X113228433Y-88098913D01*
X113317073Y-88025191D01*
X113321505Y-88021505D01*
X113450837Y-87866001D01*
X113549664Y-87689531D01*
X113555828Y-87671372D01*
X113601782Y-87535998D01*
X113642619Y-87477922D01*
X113708372Y-87451144D01*
X113721095Y-87450500D01*
X113998917Y-87450500D01*
X114067038Y-87470502D01*
X114113531Y-87524158D01*
X114123635Y-87594432D01*
X114094141Y-87659012D01*
X114088012Y-87665595D01*
X113040836Y-88712771D01*
X112978524Y-88746797D01*
X112905051Y-88740706D01*
X112859267Y-88722440D01*
X112853898Y-88720298D01*
X112655526Y-88680839D01*
X112649752Y-88680763D01*
X112649748Y-88680763D01*
X112547257Y-88679422D01*
X112453286Y-88678192D01*
X112447589Y-88679171D01*
X112447588Y-88679171D01*
X112259646Y-88711465D01*
X112259645Y-88711465D01*
X112253949Y-88712444D01*
X112064193Y-88782449D01*
X112059232Y-88785401D01*
X112059231Y-88785401D01*
X111924686Y-88865447D01*
X111890371Y-88885862D01*
X111738305Y-89019220D01*
X111613089Y-89178057D01*
X111518914Y-89357053D01*
X111458937Y-89550213D01*
X111435164Y-89751069D01*
X111448392Y-89952894D01*
X111457839Y-89990092D01*
X111495039Y-90136567D01*
X111498178Y-90148928D01*
X111582856Y-90332607D01*
X111586189Y-90337323D01*
X111685803Y-90478274D01*
X111699588Y-90497780D01*
X111703730Y-90501815D01*
X111724169Y-90521726D01*
X111844466Y-90638913D01*
X112012637Y-90751282D01*
X112017940Y-90753560D01*
X112017943Y-90753562D01*
X112155689Y-90812742D01*
X112198470Y-90831122D01*
X112395740Y-90875760D01*
X112401509Y-90875987D01*
X112401512Y-90875987D01*
X112477683Y-90878979D01*
X112597842Y-90883700D01*
X112684132Y-90871189D01*
X112792286Y-90855508D01*
X112792291Y-90855507D01*
X112798007Y-90854678D01*
X112803479Y-90852820D01*
X112803481Y-90852820D01*
X112984067Y-90791519D01*
X112984069Y-90791518D01*
X112989531Y-90789664D01*
X113166001Y-90690837D01*
X113228433Y-90638913D01*
X113317073Y-90565191D01*
X113321505Y-90561505D01*
X113407121Y-90458564D01*
X113447146Y-90410439D01*
X113450837Y-90406001D01*
X113549664Y-90229531D01*
X113571073Y-90166464D01*
X113612820Y-90043481D01*
X113612820Y-90043479D01*
X113614678Y-90038007D01*
X113615507Y-90032291D01*
X113615508Y-90032286D01*
X113641140Y-89855500D01*
X113643700Y-89837842D01*
X113645215Y-89780000D01*
X113626708Y-89578591D01*
X113623030Y-89565550D01*
X113576599Y-89400916D01*
X113577359Y-89329924D01*
X113608773Y-89277620D01*
X114738988Y-88147405D01*
X114801300Y-88113379D01*
X114828083Y-88110500D01*
X115765463Y-88110500D01*
X115833584Y-88130502D01*
X115880077Y-88184158D01*
X115890181Y-88254432D01*
X115871173Y-88301262D01*
X115871950Y-88301658D01*
X115814354Y-88414696D01*
X115812804Y-88424485D01*
X115812803Y-88424487D01*
X115810836Y-88436907D01*
X115799500Y-88508481D01*
X115799501Y-88871518D01*
X115814354Y-88965304D01*
X115871950Y-89078342D01*
X115961658Y-89168050D01*
X116049353Y-89212733D01*
X116100968Y-89261481D01*
X116118034Y-89330396D01*
X116095133Y-89397598D01*
X116049353Y-89437267D01*
X115961658Y-89481950D01*
X115871950Y-89571658D01*
X115814354Y-89684696D01*
X115799500Y-89778481D01*
X115799501Y-90141518D01*
X115800276Y-90146411D01*
X115800276Y-90146412D01*
X115808469Y-90198142D01*
X115814354Y-90235304D01*
X115818857Y-90244141D01*
X115818857Y-90244142D01*
X115825914Y-90257991D01*
X115871950Y-90348342D01*
X115961658Y-90438050D01*
X116001603Y-90458403D01*
X116049353Y-90482733D01*
X116100968Y-90531481D01*
X116118034Y-90600396D01*
X116095133Y-90667598D01*
X116049353Y-90707267D01*
X115961658Y-90751950D01*
X115871950Y-90841658D01*
X115831777Y-90920502D01*
X115826951Y-90929974D01*
X115814354Y-90954696D01*
X115813932Y-90957361D01*
X115776122Y-91012657D01*
X115716216Y-91039500D01*
X115706567Y-91039500D01*
X115697134Y-91042565D01*
X115685647Y-91046297D01*
X115666422Y-91050913D01*
X115654488Y-91052803D01*
X115654487Y-91052803D01*
X115644696Y-91054354D01*
X115635863Y-91058855D01*
X115635859Y-91058856D01*
X115625094Y-91064341D01*
X115606834Y-91071905D01*
X115585910Y-91078704D01*
X115568107Y-91091639D01*
X115551254Y-91101965D01*
X115531658Y-91111950D01*
X115509095Y-91134513D01*
X115509091Y-91134516D01*
X114944516Y-91699091D01*
X114944513Y-91699095D01*
X114921950Y-91721658D01*
X114917446Y-91730498D01*
X114911965Y-91741255D01*
X114901639Y-91758107D01*
X114888704Y-91775910D01*
X114881907Y-91796830D01*
X114874341Y-91815094D01*
X114868856Y-91825859D01*
X114868855Y-91825863D01*
X114864354Y-91834696D01*
X114862803Y-91844487D01*
X114862803Y-91844488D01*
X114860913Y-91856422D01*
X114856297Y-91875647D01*
X114852565Y-91887132D01*
X114852564Y-91887136D01*
X114849500Y-91896567D01*
X114849500Y-96241917D01*
X114829498Y-96310038D01*
X114812595Y-96331012D01*
X114181012Y-96962595D01*
X114118700Y-96996621D01*
X114091917Y-96999500D01*
X113766500Y-96999500D01*
X113698379Y-96979498D01*
X113651886Y-96925842D01*
X113640500Y-96873500D01*
X113640500Y-96525326D01*
X113625966Y-96452260D01*
X113570601Y-96369399D01*
X113513150Y-96331012D01*
X113498058Y-96320928D01*
X113498057Y-96320928D01*
X113487740Y-96314034D01*
X113414674Y-96299500D01*
X111665326Y-96299500D01*
X111592260Y-96314034D01*
X111581943Y-96320928D01*
X111581942Y-96320928D01*
X111566850Y-96331012D01*
X111509399Y-96369399D01*
X111454034Y-96452260D01*
X111439500Y-96525326D01*
X111439500Y-98274674D01*
X111454034Y-98347740D01*
X111509399Y-98430601D01*
X111519714Y-98437493D01*
X111571788Y-98472287D01*
X111592260Y-98485966D01*
X111665326Y-98500500D01*
X113414674Y-98500500D01*
X113487740Y-98485966D01*
X113508213Y-98472287D01*
X113560286Y-98437493D01*
X113570601Y-98430601D01*
X113625966Y-98347740D01*
X113640500Y-98274674D01*
X113640500Y-97926500D01*
X113660502Y-97858379D01*
X113714158Y-97811886D01*
X113766500Y-97800500D01*
X114373433Y-97800500D01*
X114382864Y-97797436D01*
X114382868Y-97797435D01*
X114394353Y-97793703D01*
X114413578Y-97789087D01*
X114425512Y-97787197D01*
X114425513Y-97787197D01*
X114435304Y-97785646D01*
X114444137Y-97781145D01*
X114444141Y-97781144D01*
X114454906Y-97775659D01*
X114473166Y-97768095D01*
X114494090Y-97761296D01*
X114511893Y-97748361D01*
X114528745Y-97738035D01*
X114539502Y-97732554D01*
X114548342Y-97728050D01*
X114570905Y-97705487D01*
X114570909Y-97705484D01*
X115555484Y-96720909D01*
X115555487Y-96720905D01*
X115578050Y-96698342D01*
X115582555Y-96689501D01*
X115588037Y-96678742D01*
X115598365Y-96661887D01*
X115605467Y-96652112D01*
X115611296Y-96644089D01*
X115618094Y-96623168D01*
X115625658Y-96604908D01*
X115631144Y-96594141D01*
X115631145Y-96594137D01*
X115635646Y-96585304D01*
X115639087Y-96563578D01*
X115643703Y-96544353D01*
X115647435Y-96532868D01*
X115647436Y-96532864D01*
X115650500Y-96523433D01*
X115650500Y-95508691D01*
X115670502Y-95440570D01*
X115724158Y-95394077D01*
X115794432Y-95383973D01*
X115859012Y-95413467D01*
X115871058Y-95426591D01*
X115871950Y-95428342D01*
X115961658Y-95518050D01*
X116074696Y-95575646D01*
X116084485Y-95577196D01*
X116084487Y-95577197D01*
X116111849Y-95581530D01*
X116168481Y-95590500D01*
X117024827Y-95590500D01*
X117881518Y-95590499D01*
X117886412Y-95589724D01*
X117965506Y-95577198D01*
X117965508Y-95577197D01*
X117975304Y-95575646D01*
X118088342Y-95518050D01*
X118178050Y-95428342D01*
X118235646Y-95315304D01*
X118237301Y-95304858D01*
X118242742Y-95270502D01*
X118250500Y-95221519D01*
X118250499Y-94858482D01*
X118235646Y-94764696D01*
X118178050Y-94651658D01*
X118088342Y-94561950D01*
X118000647Y-94517267D01*
X117949032Y-94468519D01*
X117931966Y-94399604D01*
X117954867Y-94332402D01*
X118000647Y-94292733D01*
X118088342Y-94248050D01*
X118178050Y-94158342D01*
X118235646Y-94045304D01*
X118236735Y-94038425D01*
X118266440Y-93989953D01*
X119555484Y-92700909D01*
X119555487Y-92700905D01*
X119578050Y-92678342D01*
X119588035Y-92658745D01*
X119598361Y-92641893D01*
X119611296Y-92624090D01*
X119618095Y-92603166D01*
X119625659Y-92584906D01*
X119631144Y-92574141D01*
X119631145Y-92574137D01*
X119635646Y-92565304D01*
X119639061Y-92543745D01*
X119639087Y-92543578D01*
X119643703Y-92524353D01*
X119647435Y-92512868D01*
X119647436Y-92512864D01*
X119650500Y-92503433D01*
X119650500Y-89771083D01*
X119670502Y-89702962D01*
X119724158Y-89656469D01*
X119794432Y-89646365D01*
X119859012Y-89675859D01*
X119865595Y-89681988D01*
X120449091Y-90265484D01*
X120449095Y-90265487D01*
X120471658Y-90288050D01*
X120480497Y-90292554D01*
X120480499Y-90292555D01*
X120491258Y-90298037D01*
X120508114Y-90308365D01*
X120525911Y-90321296D01*
X120546832Y-90328094D01*
X120565092Y-90335658D01*
X120575859Y-90341144D01*
X120575863Y-90341145D01*
X120584696Y-90345646D01*
X120594487Y-90347197D01*
X120594488Y-90347197D01*
X120606422Y-90349087D01*
X120625647Y-90353703D01*
X120637132Y-90357435D01*
X120637136Y-90357436D01*
X120646567Y-90360500D01*
X120781918Y-90360500D01*
X120850039Y-90380502D01*
X120871013Y-90397405D01*
X120911658Y-90438050D01*
X120951603Y-90458403D01*
X120999353Y-90482733D01*
X121050968Y-90531481D01*
X121068034Y-90600396D01*
X121045133Y-90667598D01*
X120999353Y-90707267D01*
X120911658Y-90751950D01*
X120821950Y-90841658D01*
X120764354Y-90954696D01*
X120762804Y-90964485D01*
X120762803Y-90964487D01*
X120760754Y-90977423D01*
X120749500Y-91048481D01*
X120749501Y-91411518D01*
X120750276Y-91416410D01*
X120750276Y-91416412D01*
X120760285Y-91479609D01*
X120764354Y-91505304D01*
X120768857Y-91514141D01*
X120768857Y-91514142D01*
X120777009Y-91530141D01*
X120821950Y-91618342D01*
X120911658Y-91708050D01*
X120965751Y-91735612D01*
X120999353Y-91752733D01*
X121050968Y-91801481D01*
X121068034Y-91870396D01*
X121045133Y-91937598D01*
X120999353Y-91977267D01*
X120911658Y-92021950D01*
X120821950Y-92111658D01*
X120764354Y-92224696D01*
X120762804Y-92234485D01*
X120762803Y-92234487D01*
X120758619Y-92260905D01*
X120749500Y-92318481D01*
X120749501Y-92681518D01*
X120750276Y-92686411D01*
X120750276Y-92686412D01*
X120761338Y-92756258D01*
X120764354Y-92775304D01*
X120768857Y-92784141D01*
X120768857Y-92784142D01*
X120779732Y-92805484D01*
X120821950Y-92888342D01*
X120911658Y-92978050D01*
X120977927Y-93011816D01*
X120999353Y-93022733D01*
X121050968Y-93071481D01*
X121068034Y-93140396D01*
X121045133Y-93207598D01*
X120999353Y-93247267D01*
X120911658Y-93291950D01*
X120821950Y-93381658D01*
X120764354Y-93494696D01*
X120749500Y-93588481D01*
X120749501Y-93951518D01*
X120750276Y-93956409D01*
X120750276Y-93956412D01*
X120760237Y-94019305D01*
X120764354Y-94045304D01*
X120821950Y-94158342D01*
X120911658Y-94248050D01*
X120999353Y-94292733D01*
X121050968Y-94341481D01*
X121068034Y-94410396D01*
X121045133Y-94477598D01*
X120999353Y-94517267D01*
X120911658Y-94561950D01*
X120821950Y-94651658D01*
X120764354Y-94764696D01*
X120749500Y-94858481D01*
X120749501Y-95221518D01*
X120750276Y-95226409D01*
X120750276Y-95226412D01*
X120762700Y-95304858D01*
X120764354Y-95315304D01*
X120821950Y-95428342D01*
X120911658Y-95518050D01*
X120999082Y-95562595D01*
X120999353Y-95562733D01*
X121050968Y-95611481D01*
X121068034Y-95680396D01*
X121045133Y-95747598D01*
X120999353Y-95787267D01*
X120911658Y-95831950D01*
X120821950Y-95921658D01*
X120764354Y-96034696D01*
X120749500Y-96128481D01*
X120749501Y-96491518D01*
X120750276Y-96496411D01*
X120750276Y-96496412D01*
X120757869Y-96544353D01*
X120764354Y-96585304D01*
X120821950Y-96698342D01*
X120911658Y-96788050D01*
X121007433Y-96836850D01*
X121059047Y-96885597D01*
X121076113Y-96954512D01*
X121053212Y-97021714D01*
X121033058Y-97044064D01*
X121013034Y-97061533D01*
X120988523Y-97096409D01*
X120929245Y-97180753D01*
X120922501Y-97190348D01*
X120865309Y-97337039D01*
X120864094Y-97346270D01*
X120863586Y-97347417D01*
X120862428Y-97351928D01*
X120861676Y-97351735D01*
X120835374Y-97411195D01*
X120828267Y-97418919D01*
X120761189Y-97485997D01*
X120698877Y-97520023D01*
X120628062Y-97514958D01*
X120571270Y-97472468D01*
X120524687Y-97410313D01*
X120415695Y-97328628D01*
X120288157Y-97280816D01*
X120280304Y-97279963D01*
X120280300Y-97279962D01*
X120233414Y-97274869D01*
X120233410Y-97274869D01*
X120230015Y-97274500D01*
X119960040Y-97274500D01*
X119689986Y-97274501D01*
X119631843Y-97280816D01*
X119624446Y-97283589D01*
X119601522Y-97292183D01*
X119504305Y-97328628D01*
X119395313Y-97410313D01*
X119313628Y-97519305D01*
X119265816Y-97646843D01*
X119264963Y-97654696D01*
X119264962Y-97654700D01*
X119259869Y-97701586D01*
X119259500Y-97704985D01*
X119259501Y-98295014D01*
X119265816Y-98353157D01*
X119313628Y-98480695D01*
X119395313Y-98589687D01*
X119504305Y-98671372D01*
X119631843Y-98719184D01*
X119639696Y-98720037D01*
X119639700Y-98720038D01*
X119686586Y-98725131D01*
X119686590Y-98725131D01*
X119689985Y-98725500D01*
X119959960Y-98725500D01*
X120230014Y-98725499D01*
X120288157Y-98719184D01*
X120393966Y-98679518D01*
X120438195Y-98671500D01*
X120713819Y-98671500D01*
X120725704Y-98672828D01*
X120725745Y-98672318D01*
X120734691Y-98673038D01*
X120743447Y-98675019D01*
X120796263Y-98671742D01*
X120804067Y-98671500D01*
X120819940Y-98671500D01*
X120830052Y-98670052D01*
X120840106Y-98669022D01*
X120868097Y-98667285D01*
X120886538Y-98666141D01*
X120894982Y-98663093D01*
X120898694Y-98662324D01*
X120913399Y-98658657D01*
X120917027Y-98657596D01*
X120925918Y-98656323D01*
X120968282Y-98637061D01*
X120977637Y-98633254D01*
X121012943Y-98620509D01*
X121012947Y-98620507D01*
X121021387Y-98617460D01*
X121028635Y-98612165D01*
X121031975Y-98610389D01*
X121045089Y-98602726D01*
X121048261Y-98600697D01*
X121056428Y-98596984D01*
X121063223Y-98591129D01*
X121063226Y-98591127D01*
X121091675Y-98566613D01*
X121099596Y-98560324D01*
X121106402Y-98555352D01*
X121110336Y-98552478D01*
X121121079Y-98541735D01*
X121127926Y-98535377D01*
X121158237Y-98509259D01*
X121165037Y-98503400D01*
X121169920Y-98495866D01*
X121175819Y-98489104D01*
X121175824Y-98489108D01*
X121184800Y-98478014D01*
X121474286Y-98188528D01*
X121536598Y-98154502D01*
X121553397Y-98152829D01*
X121553348Y-98152362D01*
X121560897Y-98151569D01*
X121568495Y-98151688D01*
X121721968Y-98116538D01*
X121862625Y-98045795D01*
X121898302Y-98015324D01*
X121976574Y-97948474D01*
X121976576Y-97948471D01*
X121982348Y-97943542D01*
X122074224Y-97815683D01*
X122081229Y-97798259D01*
X122094856Y-97764359D01*
X122132950Y-97669598D01*
X122155134Y-97513723D01*
X122156042Y-97513852D01*
X122168010Y-97473512D01*
X122168526Y-97472824D01*
X122184857Y-97429261D01*
X122188783Y-97419947D01*
X122204737Y-97385966D01*
X122204738Y-97385963D01*
X122208553Y-97377837D01*
X122209935Y-97368963D01*
X122211039Y-97365350D01*
X122214885Y-97350693D01*
X122215699Y-97346990D01*
X122218852Y-97338580D01*
X122222302Y-97292157D01*
X122223453Y-97282139D01*
X122223792Y-97279962D01*
X122225500Y-97268991D01*
X122225500Y-97253796D01*
X122225846Y-97244459D01*
X122227255Y-97225500D01*
X122229476Y-97195608D01*
X122227603Y-97186832D01*
X122226992Y-97177875D01*
X122226998Y-97177875D01*
X122225500Y-97163682D01*
X122225500Y-96986499D01*
X122245502Y-96918378D01*
X122299158Y-96871885D01*
X122351500Y-96860499D01*
X122831518Y-96860499D01*
X122836412Y-96859724D01*
X122915506Y-96847198D01*
X122915508Y-96847197D01*
X122925304Y-96845646D01*
X123038342Y-96788050D01*
X123078987Y-96747405D01*
X123141299Y-96713379D01*
X123168082Y-96710500D01*
X123374000Y-96710500D01*
X123442121Y-96730502D01*
X123488614Y-96784158D01*
X123500000Y-96836500D01*
X123500000Y-97000000D01*
X123517515Y-97000000D01*
X123585636Y-97020002D01*
X123618866Y-97051140D01*
X123652850Y-97097150D01*
X123660421Y-97102742D01*
X123754243Y-97172041D01*
X123754246Y-97172042D01*
X123761816Y-97177634D01*
X123889631Y-97222519D01*
X123897277Y-97223242D01*
X123897278Y-97223242D01*
X123901796Y-97223669D01*
X123921166Y-97225500D01*
X124428834Y-97225500D01*
X124460369Y-97222519D01*
X124460659Y-97225591D01*
X124517349Y-97229557D01*
X124574251Y-97272015D01*
X124599165Y-97338497D01*
X124599500Y-97347681D01*
X124599500Y-98063433D01*
X124602564Y-98072864D01*
X124602565Y-98072868D01*
X124606297Y-98084353D01*
X124610913Y-98103578D01*
X124614354Y-98125304D01*
X124618855Y-98134137D01*
X124618856Y-98134141D01*
X124624341Y-98144906D01*
X124631905Y-98163166D01*
X124638704Y-98184090D01*
X124651639Y-98201893D01*
X124661965Y-98218745D01*
X124671950Y-98238342D01*
X124694513Y-98260905D01*
X124694516Y-98260909D01*
X125239091Y-98805484D01*
X125239095Y-98805487D01*
X125261658Y-98828050D01*
X125270497Y-98832554D01*
X125270499Y-98832555D01*
X125281258Y-98838037D01*
X125298113Y-98848365D01*
X125307888Y-98855467D01*
X125315911Y-98861296D01*
X125336830Y-98868093D01*
X125355092Y-98875658D01*
X125365859Y-98881144D01*
X125365863Y-98881145D01*
X125374696Y-98885646D01*
X125384487Y-98887197D01*
X125384488Y-98887197D01*
X125396422Y-98889087D01*
X125415647Y-98893703D01*
X125427132Y-98897435D01*
X125427136Y-98897436D01*
X125436567Y-98900500D01*
X140368433Y-98900500D01*
X140377864Y-98897436D01*
X140377868Y-98897435D01*
X140389353Y-98893703D01*
X140408578Y-98889087D01*
X140420512Y-98887197D01*
X140420513Y-98887197D01*
X140430304Y-98885646D01*
X140439137Y-98881145D01*
X140439141Y-98881144D01*
X140449906Y-98875659D01*
X140468166Y-98868095D01*
X140489090Y-98861296D01*
X140506893Y-98848361D01*
X140523745Y-98838035D01*
X140534502Y-98832554D01*
X140543342Y-98828050D01*
X140565901Y-98805491D01*
X140565910Y-98805483D01*
X140836016Y-98535377D01*
X141148987Y-98222405D01*
X141211300Y-98188380D01*
X141238083Y-98185500D01*
X141598834Y-98185500D01*
X141616752Y-98183806D01*
X141622722Y-98183242D01*
X141622723Y-98183242D01*
X141630369Y-98182519D01*
X141758184Y-98137634D01*
X141765754Y-98132042D01*
X141765757Y-98132041D01*
X141857555Y-98064237D01*
X141867150Y-98057150D01*
X141894541Y-98020066D01*
X141942041Y-97955757D01*
X141942042Y-97955754D01*
X141947634Y-97948184D01*
X141987644Y-97834251D01*
X142029088Y-97776606D01*
X142095117Y-97750518D01*
X142106527Y-97750000D01*
X142233473Y-97750000D01*
X142301594Y-97770002D01*
X142348087Y-97823658D01*
X142352356Y-97834250D01*
X142392366Y-97948184D01*
X142397958Y-97955754D01*
X142397959Y-97955757D01*
X142445459Y-98020066D01*
X142472850Y-98057150D01*
X142482445Y-98064237D01*
X142574243Y-98132041D01*
X142574246Y-98132042D01*
X142581816Y-98137634D01*
X142709631Y-98182519D01*
X142717277Y-98183242D01*
X142717278Y-98183242D01*
X142723248Y-98183806D01*
X142741166Y-98185500D01*
X143248834Y-98185500D01*
X143266752Y-98183806D01*
X143272722Y-98183242D01*
X143272723Y-98183242D01*
X143280369Y-98182519D01*
X143408184Y-98137634D01*
X143415754Y-98132042D01*
X143415757Y-98132041D01*
X143509574Y-98062746D01*
X143509575Y-98062745D01*
X143517150Y-98057150D01*
X143550765Y-98011639D01*
X143607326Y-97968729D01*
X143652115Y-97960500D01*
X145317319Y-97960500D01*
X145329204Y-97961828D01*
X145329245Y-97961318D01*
X145338191Y-97962038D01*
X145346947Y-97964019D01*
X145399763Y-97960742D01*
X145407567Y-97960500D01*
X145423440Y-97960500D01*
X145433552Y-97959052D01*
X145443606Y-97958022D01*
X145471597Y-97956285D01*
X145490038Y-97955141D01*
X145498482Y-97952093D01*
X145502194Y-97951324D01*
X145516899Y-97947657D01*
X145520527Y-97946596D01*
X145529418Y-97945323D01*
X145571782Y-97926061D01*
X145581137Y-97922254D01*
X145616443Y-97909509D01*
X145616447Y-97909507D01*
X145624887Y-97906460D01*
X145632135Y-97901165D01*
X145635475Y-97899389D01*
X145648589Y-97891726D01*
X145651761Y-97889697D01*
X145659928Y-97885984D01*
X145666723Y-97880129D01*
X145666726Y-97880127D01*
X145695175Y-97855613D01*
X145703096Y-97849324D01*
X145709902Y-97844352D01*
X145713836Y-97841478D01*
X145724579Y-97830735D01*
X145731426Y-97824377D01*
X145734360Y-97821849D01*
X145768537Y-97792400D01*
X145773420Y-97784866D01*
X145779319Y-97778104D01*
X145779324Y-97778108D01*
X145788300Y-97767014D01*
X146057910Y-97497404D01*
X146120222Y-97463378D01*
X146147005Y-97460499D01*
X146556518Y-97460499D01*
X146561412Y-97459724D01*
X146640506Y-97447198D01*
X146640508Y-97447197D01*
X146650304Y-97445646D01*
X146763342Y-97388050D01*
X146853050Y-97298342D01*
X146910646Y-97185304D01*
X146925500Y-97091519D01*
X146925499Y-96728482D01*
X146922983Y-96712595D01*
X146912198Y-96644494D01*
X146912197Y-96644490D01*
X146910646Y-96634696D01*
X146853050Y-96521658D01*
X146763342Y-96431950D01*
X146650304Y-96374354D01*
X146640515Y-96372804D01*
X146640513Y-96372803D01*
X146610754Y-96368090D01*
X146556519Y-96359500D01*
X145937625Y-96359500D01*
X145318482Y-96359501D01*
X145313589Y-96360276D01*
X145313588Y-96360276D01*
X145234494Y-96372802D01*
X145234492Y-96372803D01*
X145224696Y-96374354D01*
X145215859Y-96378857D01*
X145215858Y-96378857D01*
X145213071Y-96380277D01*
X145209321Y-96380981D01*
X145206428Y-96381921D01*
X145206306Y-96381547D01*
X145143293Y-96393377D01*
X145077510Y-96366674D01*
X145036606Y-96308645D01*
X145033635Y-96239251D01*
X145035646Y-96235304D01*
X145050500Y-96141519D01*
X145050499Y-95778482D01*
X145035646Y-95684696D01*
X145035860Y-95684662D01*
X145034013Y-95619958D01*
X145070677Y-95559161D01*
X145134390Y-95527837D01*
X145204924Y-95535932D01*
X145213071Y-95539723D01*
X145224696Y-95545646D01*
X145234485Y-95547196D01*
X145234487Y-95547197D01*
X145261849Y-95551530D01*
X145318481Y-95560500D01*
X145937375Y-95560500D01*
X146556518Y-95560499D01*
X146564967Y-95559161D01*
X146640506Y-95547198D01*
X146640508Y-95547197D01*
X146650304Y-95545646D01*
X146692330Y-95524233D01*
X146749532Y-95510500D01*
X147146797Y-95510500D01*
X147214918Y-95530502D01*
X147249693Y-95563779D01*
X147259588Y-95577780D01*
X147263730Y-95581815D01*
X147276255Y-95594016D01*
X147404466Y-95718913D01*
X147572637Y-95831282D01*
X147577940Y-95833560D01*
X147577943Y-95833562D01*
X147753163Y-95908842D01*
X147758470Y-95911122D01*
X147955740Y-95955760D01*
X147961509Y-95955987D01*
X147961512Y-95955987D01*
X148037683Y-95958979D01*
X148157842Y-95963700D01*
X148249096Y-95950469D01*
X148352286Y-95935508D01*
X148352291Y-95935507D01*
X148358007Y-95934678D01*
X148363479Y-95932820D01*
X148363485Y-95932819D01*
X148470666Y-95896436D01*
X148541601Y-95893480D01*
X148600262Y-95926654D01*
X149001658Y-96328050D01*
X149010492Y-96332551D01*
X149010493Y-96332552D01*
X149021259Y-96338038D01*
X149038116Y-96348368D01*
X149055910Y-96361296D01*
X149076830Y-96368093D01*
X149095093Y-96375658D01*
X149105861Y-96381145D01*
X149105865Y-96381146D01*
X149114696Y-96385646D01*
X149124485Y-96387197D01*
X149124493Y-96387199D01*
X149136427Y-96389089D01*
X149155647Y-96393703D01*
X149167133Y-96397435D01*
X149167140Y-96397436D01*
X149176567Y-96400499D01*
X149208477Y-96400499D01*
X149208481Y-96400500D01*
X152397944Y-96400500D01*
X152407375Y-96397436D01*
X152407379Y-96397435D01*
X152418864Y-96393703D01*
X152438089Y-96389087D01*
X152450023Y-96387197D01*
X152450024Y-96387197D01*
X152459815Y-96385646D01*
X152468648Y-96381145D01*
X152468652Y-96381144D01*
X152479417Y-96375659D01*
X152497677Y-96368095D01*
X152518601Y-96361296D01*
X152536404Y-96348361D01*
X152553256Y-96338035D01*
X152564013Y-96332554D01*
X152572853Y-96328050D01*
X152595406Y-96305497D01*
X152595421Y-96305483D01*
X153275483Y-95625420D01*
X153298050Y-95602853D01*
X153302553Y-95594016D01*
X153308038Y-95583252D01*
X153318368Y-95566395D01*
X153325466Y-95556626D01*
X153325467Y-95556623D01*
X153331296Y-95548601D01*
X153338095Y-95527677D01*
X153345659Y-95509417D01*
X153351144Y-95498652D01*
X153351145Y-95498648D01*
X153355646Y-95489815D01*
X153357612Y-95477405D01*
X153359087Y-95468089D01*
X153363703Y-95448864D01*
X153367435Y-95437379D01*
X153367436Y-95437375D01*
X153370500Y-95427944D01*
X153370500Y-95376500D01*
X153390502Y-95308379D01*
X153444158Y-95261886D01*
X153496500Y-95250500D01*
X153794674Y-95250500D01*
X153867740Y-95235966D01*
X153882044Y-95226409D01*
X153940286Y-95187493D01*
X153950601Y-95180601D01*
X154005966Y-95097740D01*
X154007985Y-95087588D01*
X154051639Y-95033417D01*
X154119002Y-95010996D01*
X154187794Y-95028554D01*
X154236172Y-95080516D01*
X154249500Y-95136916D01*
X154249500Y-95636943D01*
X154229498Y-95705064D01*
X154212595Y-95726038D01*
X153226038Y-96712595D01*
X153163726Y-96746621D01*
X153136943Y-96749500D01*
X152956178Y-96749500D01*
X152864631Y-96760173D01*
X152833444Y-96763809D01*
X152833442Y-96763809D01*
X152826172Y-96764657D01*
X152819295Y-96767153D01*
X152819292Y-96767154D01*
X152705065Y-96808617D01*
X152661669Y-96824369D01*
X152515315Y-96920323D01*
X152394960Y-97047372D01*
X152307061Y-97198702D01*
X152256333Y-97366193D01*
X152245497Y-97540862D01*
X152246737Y-97548078D01*
X152246737Y-97548080D01*
X152273785Y-97705491D01*
X152275134Y-97713340D01*
X152306560Y-97787197D01*
X152336849Y-97858379D01*
X152343654Y-97874373D01*
X152447383Y-98015324D01*
X152452961Y-98020063D01*
X152452964Y-98020066D01*
X152575176Y-98123893D01*
X152575180Y-98123896D01*
X152580755Y-98128632D01*
X152612626Y-98144906D01*
X152724212Y-98201885D01*
X152736616Y-98208219D01*
X152743721Y-98209958D01*
X152743725Y-98209959D01*
X152823593Y-98229502D01*
X152906606Y-98249815D01*
X152912206Y-98250162D01*
X152912210Y-98250163D01*
X152915709Y-98250380D01*
X152915718Y-98250380D01*
X152917648Y-98250500D01*
X153433546Y-98250500D01*
X153452496Y-98251933D01*
X153466396Y-98254048D01*
X153466400Y-98254048D01*
X153473630Y-98255148D01*
X153480922Y-98254555D01*
X153480925Y-98254555D01*
X153525675Y-98250915D01*
X153535889Y-98250500D01*
X153543822Y-98250500D01*
X153553118Y-98249416D01*
X153571736Y-98247246D01*
X153576111Y-98246813D01*
X153606274Y-98244360D01*
X153648059Y-98240961D01*
X153655021Y-98238706D01*
X153660816Y-98237548D01*
X153666558Y-98236191D01*
X153673828Y-98235343D01*
X153741736Y-98210694D01*
X153745864Y-98209277D01*
X153807583Y-98189283D01*
X153807585Y-98189282D01*
X153814546Y-98187027D01*
X153820800Y-98183232D01*
X153826179Y-98180769D01*
X153831455Y-98178127D01*
X153838331Y-98175631D01*
X153898709Y-98136046D01*
X153902419Y-98133705D01*
X153959361Y-98099152D01*
X153959368Y-98099147D01*
X153964160Y-98096239D01*
X153972452Y-98088915D01*
X153972474Y-98088940D01*
X153975569Y-98086194D01*
X153978563Y-98083691D01*
X153984685Y-98079677D01*
X154037384Y-98024047D01*
X154039761Y-98021606D01*
X155331289Y-96730078D01*
X155376154Y-96701191D01*
X155447287Y-96674524D01*
X155455695Y-96671372D01*
X155564687Y-96589687D01*
X155646372Y-96480695D01*
X155694184Y-96353157D01*
X155695827Y-96338038D01*
X155700500Y-96295015D01*
X155700945Y-96295063D01*
X155707062Y-96265651D01*
X155708219Y-96263384D01*
X155709958Y-96256277D01*
X155712013Y-96250752D01*
X155713883Y-96245132D01*
X155716979Y-96238507D01*
X155719683Y-96225510D01*
X155731683Y-96167816D01*
X155732654Y-96163527D01*
X155739251Y-96136566D01*
X155749815Y-96093394D01*
X155750500Y-96082352D01*
X155750531Y-96082354D01*
X155750780Y-96078230D01*
X155751128Y-96074328D01*
X155752617Y-96067170D01*
X155750546Y-95990622D01*
X155750500Y-95987214D01*
X155750500Y-94456178D01*
X155735343Y-94326172D01*
X155727893Y-94305646D01*
X155708060Y-94251009D01*
X155701160Y-94211776D01*
X155700683Y-94211802D01*
X155700499Y-94208408D01*
X155700499Y-94204986D01*
X155694184Y-94146843D01*
X155646372Y-94019305D01*
X155564687Y-93910313D01*
X155455695Y-93828628D01*
X155328157Y-93780816D01*
X155320304Y-93779963D01*
X155320300Y-93779962D01*
X155273414Y-93774869D01*
X155273410Y-93774869D01*
X155270015Y-93774500D01*
X155212451Y-93774500D01*
X155175933Y-93769092D01*
X155133807Y-93756333D01*
X154959138Y-93745497D01*
X154951922Y-93746737D01*
X154951920Y-93746737D01*
X154800937Y-93772681D01*
X154779599Y-93774501D01*
X154729986Y-93774501D01*
X154671843Y-93780816D01*
X154544305Y-93828628D01*
X154435313Y-93910313D01*
X154429932Y-93917493D01*
X154406270Y-93949065D01*
X154349411Y-93991580D01*
X154305444Y-93999500D01*
X154146500Y-93999500D01*
X154078379Y-93979498D01*
X154031886Y-93925842D01*
X154020500Y-93873500D01*
X154020500Y-92911567D01*
X154017436Y-92902136D01*
X154017435Y-92902132D01*
X154013703Y-92890647D01*
X154009087Y-92871422D01*
X154007197Y-92859488D01*
X154007197Y-92859487D01*
X154005646Y-92849696D01*
X154001145Y-92840863D01*
X154001144Y-92840859D01*
X153995658Y-92830092D01*
X153988092Y-92811828D01*
X153984360Y-92800342D01*
X153981296Y-92790911D01*
X153973148Y-92779696D01*
X153968365Y-92773113D01*
X153958037Y-92756258D01*
X153952555Y-92745499D01*
X153952554Y-92745497D01*
X153948050Y-92736658D01*
X153925487Y-92714095D01*
X153925484Y-92714091D01*
X153407405Y-92196012D01*
X153373379Y-92133700D01*
X153370500Y-92106917D01*
X153370500Y-91376500D01*
X153390502Y-91308379D01*
X153444158Y-91261886D01*
X153496500Y-91250500D01*
X153794674Y-91250500D01*
X153867740Y-91235966D01*
X153903730Y-91211919D01*
X153914324Y-91204840D01*
X153950601Y-91180601D01*
X153981388Y-91134524D01*
X153999072Y-91108058D01*
X153999072Y-91108057D01*
X154005966Y-91097740D01*
X154020500Y-91024674D01*
X154020500Y-89295367D01*
X154040502Y-89227246D01*
X154094158Y-89180753D01*
X154102268Y-89177386D01*
X154108007Y-89175235D01*
X154108013Y-89175232D01*
X154116412Y-89172083D01*
X154136682Y-89156892D01*
X154170935Y-89131221D01*
X154223972Y-89091472D01*
X154251681Y-89054500D01*
X154299200Y-88991095D01*
X154299201Y-88991093D01*
X154304583Y-88983912D01*
X154351766Y-88858051D01*
X154355177Y-88826652D01*
X154368222Y-88782962D01*
X154378219Y-88763384D01*
X154419815Y-88593394D01*
X154420500Y-88582352D01*
X154420500Y-87404595D01*
X154440502Y-87336474D01*
X154494158Y-87289981D01*
X154564432Y-87279877D01*
X154629012Y-87309371D01*
X154647326Y-87329030D01*
X154655313Y-87339687D01*
X154764305Y-87421372D01*
X154891843Y-87469184D01*
X154899696Y-87470037D01*
X154899700Y-87470038D01*
X154946586Y-87475131D01*
X154946590Y-87475131D01*
X154949985Y-87475500D01*
X155012047Y-87475500D01*
X155041995Y-87479111D01*
X155126606Y-87499815D01*
X155132206Y-87500162D01*
X155132210Y-87500163D01*
X155135709Y-87500380D01*
X155135718Y-87500380D01*
X155137648Y-87500500D01*
X157778577Y-87500500D01*
X157848578Y-87521734D01*
X157922260Y-87570966D01*
X157995326Y-87585500D01*
X161374000Y-87585500D01*
X161442121Y-87605502D01*
X161488614Y-87659158D01*
X161500000Y-87711500D01*
X161500000Y-99124000D01*
X161479998Y-99192121D01*
X161426342Y-99238614D01*
X161374000Y-99250000D01*
X110376000Y-99250000D01*
X110307879Y-99229998D01*
X110261386Y-99176342D01*
X110250000Y-99124000D01*
X110250000Y-92291069D01*
X111435164Y-92291069D01*
X111448392Y-92492894D01*
X111468555Y-92572286D01*
X111495490Y-92678342D01*
X111498178Y-92688928D01*
X111582856Y-92872607D01*
X111602618Y-92900570D01*
X111681239Y-93011816D01*
X111699588Y-93037780D01*
X111703730Y-93041815D01*
X111724863Y-93062402D01*
X111844466Y-93178913D01*
X112012637Y-93291282D01*
X112017940Y-93293560D01*
X112017943Y-93293562D01*
X112150052Y-93350320D01*
X112198470Y-93371122D01*
X112395740Y-93415760D01*
X112401509Y-93415987D01*
X112401512Y-93415987D01*
X112477683Y-93418979D01*
X112597842Y-93423700D01*
X112684132Y-93411189D01*
X112792286Y-93395508D01*
X112792291Y-93395507D01*
X112798007Y-93394678D01*
X112803479Y-93392820D01*
X112803481Y-93392820D01*
X112984067Y-93331519D01*
X112984069Y-93331518D01*
X112989531Y-93329664D01*
X113166001Y-93230837D01*
X113228433Y-93178913D01*
X113317073Y-93105191D01*
X113321505Y-93101505D01*
X113450837Y-92946001D01*
X113464567Y-92921485D01*
X113502316Y-92854077D01*
X113549664Y-92769531D01*
X113568484Y-92714091D01*
X113612820Y-92583481D01*
X113612820Y-92583479D01*
X113614678Y-92578007D01*
X113615507Y-92572291D01*
X113615508Y-92572286D01*
X113639806Y-92404698D01*
X113643700Y-92377842D01*
X113645215Y-92320000D01*
X113626708Y-92118591D01*
X113622776Y-92104647D01*
X113593121Y-91999500D01*
X113571807Y-91923926D01*
X113482351Y-91742527D01*
X113466768Y-91721658D01*
X113364788Y-91585091D01*
X113364787Y-91585090D01*
X113361335Y-91580467D01*
X113357099Y-91576551D01*
X113217053Y-91447094D01*
X113217051Y-91447092D01*
X113212812Y-91443174D01*
X113185374Y-91425862D01*
X113046637Y-91338325D01*
X113041757Y-91335246D01*
X112853898Y-91260298D01*
X112655526Y-91220839D01*
X112649752Y-91220763D01*
X112649748Y-91220763D01*
X112547257Y-91219422D01*
X112453286Y-91218192D01*
X112447589Y-91219171D01*
X112447588Y-91219171D01*
X112259646Y-91251465D01*
X112259645Y-91251465D01*
X112253949Y-91252444D01*
X112064193Y-91322449D01*
X112059232Y-91325401D01*
X112059231Y-91325401D01*
X111901596Y-91419184D01*
X111890371Y-91425862D01*
X111738305Y-91559220D01*
X111613089Y-91718057D01*
X111518914Y-91897053D01*
X111458937Y-92090213D01*
X111435164Y-92291069D01*
X110250000Y-92291069D01*
X110250000Y-84449335D01*
X112099500Y-84449335D01*
X112099501Y-85050664D01*
X112105734Y-85108051D01*
X112152917Y-85233912D01*
X112158299Y-85241093D01*
X112158300Y-85241095D01*
X112171422Y-85258604D01*
X112233528Y-85341472D01*
X112240704Y-85346850D01*
X112330159Y-85413892D01*
X112341088Y-85422083D01*
X112349496Y-85425235D01*
X112459554Y-85466494D01*
X112459556Y-85466494D01*
X112466949Y-85469266D01*
X112474797Y-85470119D01*
X112474799Y-85470119D01*
X112520920Y-85475129D01*
X112524335Y-85475500D01*
X112787384Y-85475500D01*
X113050664Y-85475499D01*
X113108051Y-85469266D01*
X113158745Y-85450262D01*
X113225504Y-85425235D01*
X113233912Y-85422083D01*
X113244842Y-85413892D01*
X113334296Y-85346850D01*
X113341472Y-85341472D01*
X113346850Y-85334296D01*
X113346853Y-85334293D01*
X113371852Y-85300936D01*
X113428711Y-85258420D01*
X113472679Y-85250500D01*
X113517885Y-85250500D01*
X113586006Y-85270502D01*
X113619235Y-85301639D01*
X113652850Y-85347150D01*
X113660425Y-85352745D01*
X113660426Y-85352746D01*
X113754243Y-85422041D01*
X113754246Y-85422042D01*
X113761816Y-85427634D01*
X113889631Y-85472519D01*
X113897277Y-85473242D01*
X113897278Y-85473242D01*
X113903248Y-85473806D01*
X113921166Y-85475500D01*
X114428834Y-85475500D01*
X114446752Y-85473806D01*
X114452722Y-85473242D01*
X114452723Y-85473242D01*
X114460369Y-85472519D01*
X114588184Y-85427634D01*
X114595754Y-85422042D01*
X114595757Y-85422041D01*
X114689579Y-85352742D01*
X114697150Y-85347150D01*
X114726147Y-85307891D01*
X114772041Y-85245757D01*
X114772042Y-85245754D01*
X114777634Y-85238184D01*
X114822519Y-85110369D01*
X114825500Y-85078834D01*
X114825500Y-84421166D01*
X114823480Y-84399799D01*
X114823242Y-84397278D01*
X114823242Y-84397277D01*
X114822519Y-84389631D01*
X114777634Y-84261816D01*
X114772042Y-84254246D01*
X114772041Y-84254243D01*
X114702742Y-84160421D01*
X114697150Y-84152850D01*
X114654137Y-84121080D01*
X114595757Y-84077959D01*
X114595754Y-84077958D01*
X114588184Y-84072366D01*
X114460369Y-84027481D01*
X114452723Y-84026758D01*
X114452722Y-84026758D01*
X114446752Y-84026194D01*
X114428834Y-84024500D01*
X113921166Y-84024500D01*
X113903248Y-84026194D01*
X113897278Y-84026758D01*
X113897277Y-84026758D01*
X113889631Y-84027481D01*
X113761816Y-84072366D01*
X113754246Y-84077958D01*
X113754243Y-84077959D01*
X113680347Y-84132540D01*
X113652850Y-84152850D01*
X113625154Y-84190348D01*
X113619236Y-84198360D01*
X113562674Y-84241271D01*
X113517885Y-84249500D01*
X113472679Y-84249500D01*
X113404558Y-84229498D01*
X113371852Y-84199064D01*
X113346853Y-84165707D01*
X113346850Y-84165704D01*
X113341472Y-84158528D01*
X113279559Y-84112127D01*
X113241095Y-84083300D01*
X113241093Y-84083299D01*
X113233912Y-84077917D01*
X113210785Y-84069247D01*
X113115446Y-84033506D01*
X113115444Y-84033506D01*
X113108051Y-84030734D01*
X113100203Y-84029881D01*
X113100201Y-84029881D01*
X113054062Y-84024869D01*
X113050665Y-84024500D01*
X112787616Y-84024500D01*
X112524336Y-84024501D01*
X112466949Y-84030734D01*
X112459550Y-84033508D01*
X112459549Y-84033508D01*
X112398754Y-84056299D01*
X112341088Y-84077917D01*
X112333907Y-84083299D01*
X112333905Y-84083300D01*
X112295441Y-84112127D01*
X112233528Y-84158528D01*
X112228150Y-84165704D01*
X112161171Y-84255075D01*
X112152917Y-84266088D01*
X112149765Y-84274496D01*
X112109320Y-84382384D01*
X112105734Y-84391949D01*
X112104881Y-84399797D01*
X112104881Y-84399799D01*
X112102880Y-84418218D01*
X112099500Y-84449335D01*
X110250000Y-84449335D01*
X110250000Y-82699335D01*
X112099500Y-82699335D01*
X112099501Y-83300664D01*
X112105734Y-83358051D01*
X112108508Y-83365450D01*
X112108508Y-83365451D01*
X112120489Y-83397409D01*
X112152917Y-83483912D01*
X112158299Y-83491093D01*
X112158300Y-83491095D01*
X112196913Y-83542616D01*
X112233528Y-83591472D01*
X112247530Y-83601966D01*
X112328311Y-83662507D01*
X112341088Y-83672083D01*
X112349496Y-83675235D01*
X112459554Y-83716494D01*
X112459556Y-83716494D01*
X112466949Y-83719266D01*
X112474797Y-83720119D01*
X112474799Y-83720119D01*
X112520920Y-83725129D01*
X112524335Y-83725500D01*
X112787384Y-83725500D01*
X113050664Y-83725499D01*
X113108051Y-83719266D01*
X113118775Y-83715246D01*
X113225504Y-83675235D01*
X113233912Y-83672083D01*
X113246690Y-83662507D01*
X113327470Y-83601966D01*
X113341472Y-83591472D01*
X113346850Y-83584296D01*
X113346853Y-83584293D01*
X113371852Y-83550936D01*
X113428711Y-83508420D01*
X113472679Y-83500500D01*
X113517885Y-83500500D01*
X113586006Y-83520502D01*
X113619235Y-83551639D01*
X113652850Y-83597150D01*
X113660425Y-83602745D01*
X113660426Y-83602746D01*
X113754243Y-83672041D01*
X113754246Y-83672042D01*
X113761816Y-83677634D01*
X113889631Y-83722519D01*
X113897277Y-83723242D01*
X113897278Y-83723242D01*
X113903248Y-83723806D01*
X113921166Y-83725500D01*
X114428834Y-83725500D01*
X114446752Y-83723806D01*
X114452722Y-83723242D01*
X114452723Y-83723242D01*
X114460369Y-83722519D01*
X114588184Y-83677634D01*
X114595754Y-83672042D01*
X114595757Y-83672041D01*
X114689579Y-83602742D01*
X114697150Y-83597150D01*
X114709665Y-83580206D01*
X114772041Y-83495757D01*
X114772042Y-83495754D01*
X114777634Y-83488184D01*
X114822519Y-83360369D01*
X114825500Y-83328834D01*
X114825500Y-82671166D01*
X114822519Y-82639631D01*
X114777634Y-82511816D01*
X114772042Y-82504246D01*
X114772041Y-82504243D01*
X114706070Y-82414927D01*
X114697150Y-82402850D01*
X114654596Y-82371419D01*
X114595757Y-82327959D01*
X114595754Y-82327958D01*
X114588184Y-82322366D01*
X114460369Y-82277481D01*
X114452723Y-82276758D01*
X114452722Y-82276758D01*
X114446024Y-82276125D01*
X114428834Y-82274500D01*
X113921166Y-82274500D01*
X113903976Y-82276125D01*
X113897278Y-82276758D01*
X113897277Y-82276758D01*
X113889631Y-82277481D01*
X113761816Y-82322366D01*
X113754246Y-82327958D01*
X113754243Y-82327959D01*
X113685040Y-82379074D01*
X113652850Y-82402850D01*
X113647255Y-82410425D01*
X113619236Y-82448360D01*
X113562674Y-82491271D01*
X113517885Y-82499500D01*
X113472679Y-82499500D01*
X113404558Y-82479498D01*
X113371852Y-82449064D01*
X113346853Y-82415707D01*
X113346850Y-82415704D01*
X113341472Y-82408528D01*
X113277460Y-82360554D01*
X113241095Y-82333300D01*
X113241093Y-82333299D01*
X113233912Y-82327917D01*
X113199221Y-82314912D01*
X113115446Y-82283506D01*
X113115444Y-82283506D01*
X113108051Y-82280734D01*
X113100203Y-82279881D01*
X113100201Y-82279881D01*
X113054062Y-82274869D01*
X113050665Y-82274500D01*
X112787616Y-82274500D01*
X112524336Y-82274501D01*
X112466949Y-82280734D01*
X112459550Y-82283508D01*
X112459549Y-82283508D01*
X112375779Y-82314912D01*
X112341088Y-82327917D01*
X112333907Y-82333299D01*
X112333905Y-82333300D01*
X112297540Y-82360554D01*
X112233528Y-82408528D01*
X112228150Y-82415704D01*
X112173678Y-82488387D01*
X112152917Y-82516088D01*
X112149765Y-82524496D01*
X112109202Y-82632699D01*
X112105734Y-82641949D01*
X112104881Y-82649797D01*
X112104881Y-82649799D01*
X112101680Y-82679265D01*
X112099500Y-82699335D01*
X110250000Y-82699335D01*
X110250000Y-77724674D01*
X113224500Y-77724674D01*
X113239034Y-77797740D01*
X113294399Y-77880601D01*
X113328660Y-77903493D01*
X113347244Y-77915910D01*
X113377260Y-77935966D01*
X113450326Y-77950500D01*
X114849674Y-77950500D01*
X114922740Y-77935966D01*
X114944040Y-77921734D01*
X115014041Y-77900500D01*
X115525239Y-77900500D01*
X115593360Y-77920502D01*
X115639853Y-77974158D01*
X115650503Y-78040103D01*
X115649500Y-78049335D01*
X115649501Y-78575664D01*
X115655734Y-78633051D01*
X115658508Y-78640450D01*
X115658508Y-78640451D01*
X115663942Y-78654946D01*
X115702917Y-78758912D01*
X115708297Y-78766091D01*
X115708299Y-78766094D01*
X115724326Y-78787478D01*
X115749174Y-78853984D01*
X115749500Y-78863043D01*
X115749500Y-79222435D01*
X115749258Y-79230237D01*
X115745497Y-79290862D01*
X115746737Y-79298078D01*
X115746737Y-79298079D01*
X115747680Y-79303565D01*
X115749500Y-79324904D01*
X115749500Y-80293822D01*
X115758484Y-80370879D01*
X115763781Y-80416311D01*
X115764657Y-80423828D01*
X115767155Y-80430709D01*
X115768839Y-80437833D01*
X115768319Y-80437956D01*
X115774501Y-80473107D01*
X115774501Y-80495014D01*
X115780816Y-80553157D01*
X115828628Y-80680695D01*
X115910313Y-80789687D01*
X116019305Y-80871372D01*
X116027713Y-80874524D01*
X116139445Y-80916411D01*
X116139448Y-80916412D01*
X116146843Y-80919184D01*
X116148962Y-80919414D01*
X116178507Y-80931210D01*
X116192369Y-80939261D01*
X116192372Y-80939262D01*
X116198702Y-80942939D01*
X116366193Y-80993667D01*
X116373502Y-80994120D01*
X116373505Y-80994121D01*
X116445035Y-80998558D01*
X116455560Y-80999701D01*
X116456193Y-80999750D01*
X116461009Y-81000500D01*
X116472435Y-81000500D01*
X116480235Y-81000742D01*
X116486286Y-81001117D01*
X116499495Y-81001937D01*
X116566246Y-81026120D01*
X116580786Y-81038600D01*
X118596466Y-83054280D01*
X118603932Y-83063624D01*
X118604322Y-83063292D01*
X118610140Y-83070128D01*
X118614930Y-83077720D01*
X118621658Y-83083662D01*
X118621659Y-83083663D01*
X118654600Y-83112755D01*
X118660288Y-83118102D01*
X118671507Y-83129321D01*
X118675095Y-83132010D01*
X118675096Y-83132011D01*
X118679684Y-83135450D01*
X118687523Y-83141832D01*
X118702094Y-83154700D01*
X118722388Y-83172623D01*
X118730506Y-83176434D01*
X118733659Y-83178506D01*
X118746680Y-83186329D01*
X118749989Y-83188141D01*
X118757176Y-83193527D01*
X118765581Y-83196678D01*
X118765583Y-83196679D01*
X118800737Y-83209857D01*
X118810057Y-83213784D01*
X118852163Y-83233553D01*
X118861035Y-83234934D01*
X118864658Y-83236042D01*
X118879317Y-83239888D01*
X118883014Y-83240701D01*
X118891420Y-83243852D01*
X118937843Y-83247302D01*
X118947856Y-83248452D01*
X118961009Y-83250500D01*
X118976204Y-83250500D01*
X118985542Y-83250846D01*
X119034392Y-83254476D01*
X119043168Y-83252603D01*
X119052125Y-83251992D01*
X119052125Y-83251998D01*
X119066318Y-83250500D01*
X126779819Y-83250500D01*
X126791704Y-83251828D01*
X126791745Y-83251318D01*
X126800691Y-83252038D01*
X126809447Y-83254019D01*
X126859185Y-83250933D01*
X126862264Y-83250742D01*
X126870067Y-83250500D01*
X126885940Y-83250500D01*
X126896052Y-83249052D01*
X126906106Y-83248022D01*
X126934097Y-83246285D01*
X126952538Y-83245141D01*
X126960982Y-83242093D01*
X126964694Y-83241324D01*
X126979399Y-83237657D01*
X126983027Y-83236596D01*
X126991918Y-83235323D01*
X127034282Y-83216061D01*
X127043637Y-83212254D01*
X127078943Y-83199509D01*
X127078947Y-83199507D01*
X127087387Y-83196460D01*
X127094635Y-83191165D01*
X127097975Y-83189389D01*
X127111089Y-83181726D01*
X127114261Y-83179697D01*
X127122428Y-83175984D01*
X127129223Y-83170129D01*
X127129226Y-83170127D01*
X127157675Y-83145613D01*
X127165596Y-83139324D01*
X127172402Y-83134352D01*
X127176336Y-83131478D01*
X127187079Y-83120735D01*
X127193926Y-83114377D01*
X127224237Y-83088259D01*
X127231037Y-83082400D01*
X127235920Y-83074866D01*
X127241819Y-83068104D01*
X127241824Y-83068108D01*
X127250800Y-83057014D01*
X128154280Y-82153534D01*
X128163624Y-82146068D01*
X128163292Y-82145678D01*
X128170128Y-82139860D01*
X128177720Y-82135070D01*
X128212756Y-82095399D01*
X128218102Y-82089712D01*
X128229321Y-82078493D01*
X128235450Y-82070316D01*
X128241832Y-82062477D01*
X128266684Y-82034337D01*
X128266685Y-82034336D01*
X128272623Y-82027612D01*
X128276434Y-82019494D01*
X128278506Y-82016341D01*
X128286329Y-82003320D01*
X128288141Y-82000011D01*
X128293527Y-81992824D01*
X128303735Y-81965595D01*
X128309857Y-81949263D01*
X128313784Y-81939943D01*
X128329737Y-81905964D01*
X128333553Y-81897837D01*
X128334934Y-81888965D01*
X128336042Y-81885342D01*
X128339888Y-81870683D01*
X128340701Y-81866986D01*
X128343852Y-81858580D01*
X128347302Y-81812157D01*
X128348453Y-81802139D01*
X128348547Y-81801534D01*
X128350500Y-81788991D01*
X128350500Y-81773796D01*
X128350846Y-81764459D01*
X128353558Y-81727959D01*
X128354476Y-81715608D01*
X128352603Y-81706832D01*
X128351992Y-81697875D01*
X128351998Y-81697875D01*
X128350500Y-81683682D01*
X128350500Y-78582681D01*
X128351828Y-78570796D01*
X128351318Y-78570755D01*
X128352038Y-78561809D01*
X128354019Y-78553053D01*
X128350742Y-78500236D01*
X128350500Y-78492433D01*
X128350500Y-78476560D01*
X128349052Y-78466448D01*
X128348022Y-78456394D01*
X128345697Y-78418920D01*
X128345697Y-78418918D01*
X128345141Y-78409962D01*
X128342093Y-78401519D01*
X128341329Y-78397829D01*
X128337651Y-78383078D01*
X128336596Y-78379468D01*
X128335323Y-78370582D01*
X128331610Y-78362415D01*
X128331608Y-78362409D01*
X128316071Y-78328237D01*
X128312258Y-78318871D01*
X128299508Y-78283553D01*
X128299508Y-78283552D01*
X128296461Y-78275113D01*
X128291166Y-78267865D01*
X128289388Y-78264522D01*
X128281756Y-78251461D01*
X128279701Y-78248248D01*
X128275984Y-78240072D01*
X128245619Y-78204832D01*
X128239328Y-78196910D01*
X128234355Y-78190102D01*
X128234353Y-78190100D01*
X128231478Y-78186164D01*
X128220735Y-78175421D01*
X128214377Y-78168574D01*
X128198803Y-78150500D01*
X128182400Y-78131463D01*
X128174866Y-78126580D01*
X128168104Y-78120681D01*
X128168108Y-78120676D01*
X128157014Y-78111700D01*
X127609946Y-77564632D01*
X127575920Y-77502320D01*
X127573778Y-77489142D01*
X127570326Y-77457354D01*
X127569184Y-77446843D01*
X127521372Y-77319305D01*
X127439687Y-77210313D01*
X127330695Y-77128628D01*
X127203157Y-77080816D01*
X127195304Y-77079963D01*
X127195300Y-77079962D01*
X127148414Y-77074869D01*
X127148410Y-77074869D01*
X127145015Y-77074500D01*
X126850044Y-77074500D01*
X126554986Y-77074501D01*
X126496843Y-77080816D01*
X126369305Y-77128628D01*
X126260313Y-77210313D01*
X126254932Y-77217493D01*
X126184010Y-77312123D01*
X126184008Y-77312126D01*
X126178628Y-77319305D01*
X126175479Y-77327706D01*
X126175477Y-77327709D01*
X126172657Y-77335232D01*
X126130015Y-77391996D01*
X126063452Y-77416694D01*
X126054676Y-77417000D01*
X125989041Y-77417000D01*
X125919040Y-77395766D01*
X125908058Y-77388428D01*
X125897740Y-77381534D01*
X125824674Y-77367000D01*
X124575326Y-77367000D01*
X124502260Y-77381534D01*
X124491943Y-77388428D01*
X124491942Y-77388428D01*
X124486602Y-77391996D01*
X124419399Y-77436899D01*
X124399305Y-77466972D01*
X124373906Y-77504986D01*
X124364034Y-77519760D01*
X124349500Y-77592826D01*
X124349500Y-78042174D01*
X124359321Y-78091545D01*
X124363075Y-78110418D01*
X124363075Y-78159581D01*
X124349500Y-78227826D01*
X124349500Y-78234012D01*
X124349319Y-78235850D01*
X124322737Y-78301682D01*
X124264782Y-78342692D01*
X124223926Y-78349500D01*
X123919605Y-78349500D01*
X123851484Y-78329498D01*
X123830510Y-78312595D01*
X121124931Y-75607016D01*
X121124927Y-75607013D01*
X121102364Y-75584450D01*
X121082768Y-75574465D01*
X121065915Y-75564139D01*
X121048112Y-75551204D01*
X121027188Y-75544405D01*
X121008928Y-75536841D01*
X120998163Y-75531356D01*
X120998159Y-75531355D01*
X120989326Y-75526854D01*
X120979535Y-75525303D01*
X120979534Y-75525303D01*
X120967600Y-75523413D01*
X120948372Y-75518796D01*
X120937561Y-75515283D01*
X120878956Y-75475208D01*
X120851321Y-75409811D01*
X120850500Y-75395451D01*
X120850500Y-75052826D01*
X120836925Y-74984581D01*
X120836925Y-74935418D01*
X120849293Y-74873241D01*
X120850500Y-74867174D01*
X120850500Y-74742156D01*
X123194758Y-74742156D01*
X123212035Y-74898651D01*
X123266143Y-75046508D01*
X123270380Y-75052814D01*
X123270382Y-75052817D01*
X123274546Y-75059013D01*
X123353958Y-75177190D01*
X123470410Y-75283153D01*
X123530369Y-75315708D01*
X123602099Y-75354655D01*
X123602101Y-75354656D01*
X123608776Y-75358280D01*
X123616125Y-75360208D01*
X123753719Y-75396305D01*
X123753721Y-75396305D01*
X123761069Y-75398233D01*
X123844380Y-75399542D01*
X123910898Y-75400587D01*
X123910901Y-75400587D01*
X123918495Y-75400706D01*
X124071968Y-75365556D01*
X124166887Y-75317817D01*
X124236730Y-75305079D01*
X124302374Y-75332123D01*
X124342976Y-75390363D01*
X124349500Y-75430382D01*
X124349500Y-75502174D01*
X124361825Y-75564134D01*
X124363075Y-75570418D01*
X124363075Y-75619581D01*
X124349500Y-75687826D01*
X124349500Y-76137174D01*
X124350707Y-76143241D01*
X124363075Y-76205418D01*
X124363075Y-76254581D01*
X124349500Y-76322826D01*
X124349500Y-76772174D01*
X124364034Y-76845240D01*
X124419399Y-76928101D01*
X124502260Y-76983466D01*
X124575326Y-76998000D01*
X125824674Y-76998000D01*
X125897740Y-76983466D01*
X125980601Y-76928101D01*
X126035966Y-76845240D01*
X126050500Y-76772174D01*
X126050500Y-76322826D01*
X126036925Y-76254581D01*
X126036925Y-76243138D01*
X140344758Y-76243138D01*
X140362035Y-76399633D01*
X140416143Y-76547490D01*
X140420380Y-76553796D01*
X140420382Y-76553799D01*
X140455660Y-76606297D01*
X140503958Y-76678172D01*
X140509574Y-76683282D01*
X140613933Y-76778241D01*
X140620410Y-76784135D01*
X140627085Y-76787759D01*
X140752099Y-76855637D01*
X140752101Y-76855638D01*
X140758776Y-76859262D01*
X140766125Y-76861190D01*
X140903719Y-76897287D01*
X140903721Y-76897287D01*
X140911069Y-76899215D01*
X140994380Y-76900524D01*
X141060898Y-76901569D01*
X141060901Y-76901569D01*
X141068495Y-76901688D01*
X141221968Y-76866538D01*
X141362625Y-76795795D01*
X141380312Y-76780689D01*
X141445102Y-76751658D01*
X141462142Y-76750500D01*
X141517885Y-76750500D01*
X141586006Y-76770502D01*
X141619235Y-76801639D01*
X141652850Y-76847150D01*
X141660425Y-76852745D01*
X141660426Y-76852746D01*
X141754243Y-76922041D01*
X141754246Y-76922042D01*
X141761816Y-76927634D01*
X141889631Y-76972519D01*
X141897277Y-76973242D01*
X141897278Y-76973242D01*
X141903248Y-76973806D01*
X141921166Y-76975500D01*
X142428834Y-76975500D01*
X142446752Y-76973806D01*
X142452722Y-76973242D01*
X142452723Y-76973242D01*
X142460369Y-76972519D01*
X142588184Y-76927634D01*
X142595754Y-76922042D01*
X142595757Y-76922041D01*
X142685660Y-76855637D01*
X142697150Y-76847150D01*
X142709665Y-76830206D01*
X142772041Y-76745757D01*
X142772042Y-76745754D01*
X142777634Y-76738184D01*
X142822519Y-76610369D01*
X142823547Y-76599500D01*
X142825221Y-76581782D01*
X142825500Y-76578834D01*
X142825500Y-75921166D01*
X142822519Y-75889631D01*
X142777634Y-75761816D01*
X142772042Y-75754246D01*
X142772041Y-75754243D01*
X142702742Y-75660421D01*
X142697150Y-75652850D01*
X142627953Y-75601740D01*
X142595757Y-75577959D01*
X142595754Y-75577958D01*
X142588184Y-75572366D01*
X142460369Y-75527481D01*
X142452723Y-75526758D01*
X142452722Y-75526758D01*
X142446752Y-75526194D01*
X142428834Y-75524500D01*
X141921166Y-75524500D01*
X141903248Y-75526194D01*
X141897278Y-75526758D01*
X141897277Y-75526758D01*
X141889631Y-75527481D01*
X141761816Y-75572366D01*
X141754246Y-75577958D01*
X141754243Y-75577959D01*
X141660426Y-75647254D01*
X141652850Y-75652850D01*
X141622447Y-75694013D01*
X141619236Y-75698360D01*
X141562674Y-75741271D01*
X141517885Y-75749500D01*
X141464144Y-75749500D01*
X141396023Y-75729498D01*
X141380331Y-75717581D01*
X141373976Y-75711919D01*
X141234831Y-75638245D01*
X141160530Y-75619582D01*
X141089498Y-75601740D01*
X141089496Y-75601740D01*
X141082128Y-75599889D01*
X141074530Y-75599849D01*
X141074528Y-75599849D01*
X141007319Y-75599497D01*
X140924684Y-75599065D01*
X140917305Y-75600837D01*
X140917301Y-75600837D01*
X140778967Y-75634048D01*
X140778963Y-75634049D01*
X140771588Y-75635820D01*
X140631679Y-75708032D01*
X140625957Y-75713024D01*
X140625955Y-75713025D01*
X140518759Y-75806538D01*
X140518756Y-75806541D01*
X140513034Y-75811533D01*
X140508667Y-75817747D01*
X140431352Y-75927755D01*
X140422501Y-75940348D01*
X140365309Y-76087039D01*
X140363374Y-76101740D01*
X140346488Y-76230000D01*
X140344758Y-76243138D01*
X126036925Y-76243138D01*
X126036925Y-76205418D01*
X126049293Y-76143241D01*
X126050500Y-76137174D01*
X126050500Y-75687826D01*
X126036925Y-75619581D01*
X126036925Y-75570418D01*
X126038175Y-75564134D01*
X126050500Y-75502174D01*
X126050500Y-75052826D01*
X126036925Y-74984581D01*
X126036925Y-74935418D01*
X126049293Y-74873241D01*
X126050500Y-74867174D01*
X126050500Y-74417826D01*
X126035966Y-74344760D01*
X125980601Y-74261899D01*
X125897740Y-74206534D01*
X125824674Y-74192000D01*
X124575326Y-74192000D01*
X124502260Y-74206534D01*
X124491942Y-74213428D01*
X124480960Y-74220766D01*
X124410959Y-74242000D01*
X124306556Y-74242000D01*
X124234646Y-74219465D01*
X124229651Y-74215994D01*
X124223976Y-74210937D01*
X124084831Y-74137263D01*
X124068122Y-74133066D01*
X123939498Y-74100758D01*
X123939496Y-74100758D01*
X123932128Y-74098907D01*
X123924530Y-74098867D01*
X123924528Y-74098867D01*
X123857319Y-74098515D01*
X123774684Y-74098083D01*
X123767305Y-74099855D01*
X123767301Y-74099855D01*
X123628967Y-74133066D01*
X123628963Y-74133067D01*
X123621588Y-74134838D01*
X123481679Y-74207050D01*
X123475957Y-74212042D01*
X123475955Y-74212043D01*
X123368759Y-74305556D01*
X123368756Y-74305559D01*
X123363034Y-74310551D01*
X123324269Y-74365707D01*
X123287640Y-74417826D01*
X123272501Y-74439366D01*
X123215309Y-74586057D01*
X123194758Y-74742156D01*
X120850500Y-74742156D01*
X120850500Y-74417826D01*
X120835966Y-74344760D01*
X120780601Y-74261899D01*
X120697740Y-74206534D01*
X120624674Y-74192000D01*
X119375326Y-74192000D01*
X119302260Y-74206534D01*
X119219399Y-74261899D01*
X119164034Y-74344760D01*
X119149500Y-74417826D01*
X119149500Y-74867174D01*
X119150707Y-74873241D01*
X119163075Y-74935418D01*
X119163075Y-74984581D01*
X119149500Y-75052826D01*
X119149500Y-75502174D01*
X119161825Y-75564134D01*
X119163075Y-75570418D01*
X119163075Y-75619581D01*
X119149500Y-75687826D01*
X119149500Y-76021000D01*
X119129498Y-76089121D01*
X119075842Y-76135614D01*
X119023500Y-76147000D01*
X118878445Y-76147000D01*
X118836784Y-76139279D01*
X118834831Y-76138245D01*
X118758480Y-76119067D01*
X118689498Y-76101740D01*
X118689496Y-76101740D01*
X118682128Y-76099889D01*
X118674530Y-76099849D01*
X118674528Y-76099849D01*
X118607319Y-76099497D01*
X118524684Y-76099065D01*
X118517305Y-76100837D01*
X118517301Y-76100837D01*
X118378967Y-76134048D01*
X118378963Y-76134049D01*
X118371588Y-76135820D01*
X118231679Y-76208032D01*
X118225957Y-76213024D01*
X118225955Y-76213025D01*
X118118759Y-76306538D01*
X118118756Y-76306541D01*
X118113034Y-76311533D01*
X118108667Y-76317747D01*
X118046104Y-76406765D01*
X118022501Y-76440348D01*
X117965309Y-76587039D01*
X117963265Y-76602565D01*
X117962376Y-76609318D01*
X117933654Y-76674245D01*
X117874389Y-76713337D01*
X117803397Y-76714182D01*
X117748359Y-76681967D01*
X117738342Y-76671950D01*
X117718746Y-76661965D01*
X117701893Y-76651639D01*
X117684090Y-76638704D01*
X117663166Y-76631905D01*
X117644906Y-76624341D01*
X117634141Y-76618856D01*
X117634137Y-76618855D01*
X117625304Y-76614354D01*
X117615513Y-76612803D01*
X117615512Y-76612803D01*
X117603578Y-76610913D01*
X117584353Y-76606297D01*
X117572868Y-76602565D01*
X117572864Y-76602564D01*
X117563433Y-76599500D01*
X117474761Y-76599500D01*
X117406640Y-76579498D01*
X117360147Y-76525842D01*
X117349497Y-76459897D01*
X117350500Y-76450665D01*
X117350499Y-75924336D01*
X117344266Y-75866949D01*
X117297083Y-75741088D01*
X117289329Y-75730741D01*
X117221850Y-75640704D01*
X117216472Y-75633528D01*
X117191430Y-75614760D01*
X117116095Y-75558300D01*
X117116093Y-75558299D01*
X117108912Y-75552917D01*
X117047850Y-75530026D01*
X116990446Y-75508506D01*
X116990444Y-75508506D01*
X116983051Y-75505734D01*
X116975203Y-75504881D01*
X116975201Y-75504881D01*
X116929062Y-75499869D01*
X116925665Y-75499500D01*
X116500125Y-75499500D01*
X116074336Y-75499501D01*
X116016949Y-75505734D01*
X116009550Y-75508508D01*
X116009549Y-75508508D01*
X115960867Y-75526758D01*
X115891088Y-75552917D01*
X115883907Y-75558299D01*
X115883905Y-75558300D01*
X115808570Y-75614760D01*
X115783528Y-75633528D01*
X115702917Y-75741088D01*
X115701906Y-75740330D01*
X115657988Y-75784153D01*
X115597723Y-75799500D01*
X115014041Y-75799500D01*
X114944040Y-75778266D01*
X114933058Y-75770928D01*
X114922740Y-75764034D01*
X114849674Y-75749500D01*
X113450326Y-75749500D01*
X113377260Y-75764034D01*
X113294399Y-75819399D01*
X113239034Y-75902260D01*
X113224500Y-75975326D01*
X113224500Y-76424674D01*
X113232595Y-76465371D01*
X113239034Y-76497740D01*
X113235307Y-76498481D01*
X113240560Y-76547382D01*
X113239201Y-76552010D01*
X113239034Y-76552260D01*
X113224500Y-76625326D01*
X113224500Y-77074674D01*
X113233883Y-77121843D01*
X113239034Y-77147740D01*
X113235307Y-77148481D01*
X113240560Y-77197382D01*
X113239201Y-77202010D01*
X113239034Y-77202260D01*
X113224500Y-77275326D01*
X113224500Y-77724674D01*
X110250000Y-77724674D01*
X110250000Y-72376000D01*
X110270002Y-72307879D01*
X110323658Y-72261386D01*
X110376000Y-72250000D01*
X148813500Y-72250000D01*
X148881621Y-72270002D01*
G37*
%TD.AperFunction*%
%TA.AperFunction,Conductor*%
G36*
X126257975Y-79786567D02*
G01*
X126260313Y-79789687D01*
X126369305Y-79871372D01*
X126496843Y-79919184D01*
X126504696Y-79920037D01*
X126504700Y-79920038D01*
X126551586Y-79925131D01*
X126551590Y-79925131D01*
X126554985Y-79925500D01*
X126849956Y-79925500D01*
X127145014Y-79925499D01*
X127203157Y-79919184D01*
X127203325Y-79920730D01*
X127265255Y-79923965D01*
X127322898Y-79965411D01*
X127348983Y-80031442D01*
X127349500Y-80042845D01*
X127349500Y-81490496D01*
X127329498Y-81558617D01*
X127312595Y-81579591D01*
X126679591Y-82212595D01*
X126617279Y-82246621D01*
X126590496Y-82249500D01*
X119259504Y-82249500D01*
X119191383Y-82229498D01*
X119170409Y-82212595D01*
X118979940Y-82022126D01*
X118945914Y-81959814D01*
X118950979Y-81888999D01*
X118993526Y-81832163D01*
X119060046Y-81807352D01*
X119069035Y-81807031D01*
X122756902Y-81807031D01*
X122766333Y-81803967D01*
X122766337Y-81803966D01*
X122777822Y-81800234D01*
X122797047Y-81795618D01*
X122808981Y-81793728D01*
X122808982Y-81793728D01*
X122818773Y-81792177D01*
X122827606Y-81787676D01*
X122827610Y-81787675D01*
X122838375Y-81782190D01*
X122856635Y-81774626D01*
X122877559Y-81767827D01*
X122895362Y-81754892D01*
X122912214Y-81744566D01*
X122922971Y-81739085D01*
X122931811Y-81734581D01*
X122954374Y-81712018D01*
X122954378Y-81712015D01*
X123871488Y-80794905D01*
X123933800Y-80760879D01*
X123960583Y-80758000D01*
X124410959Y-80758000D01*
X124480960Y-80779234D01*
X124502260Y-80793466D01*
X124575326Y-80808000D01*
X125824674Y-80808000D01*
X125897740Y-80793466D01*
X125913328Y-80783051D01*
X125946511Y-80760879D01*
X125980601Y-80738101D01*
X126014791Y-80686931D01*
X126029072Y-80665558D01*
X126029072Y-80665557D01*
X126035966Y-80655240D01*
X126050500Y-80582174D01*
X126050500Y-80132826D01*
X126036925Y-80064581D01*
X126036925Y-80015418D01*
X126038221Y-80008905D01*
X126050500Y-79947174D01*
X126050500Y-79882265D01*
X126070502Y-79814144D01*
X126124158Y-79767651D01*
X126194432Y-79757547D01*
X126257975Y-79786567D01*
G37*
%TD.AperFunction*%
%TA.AperFunction,Conductor*%
G36*
X121059012Y-76674337D02*
G01*
X121065595Y-76680466D01*
X123440613Y-79055484D01*
X123440617Y-79055487D01*
X123463180Y-79078050D01*
X123472020Y-79082554D01*
X123482777Y-79088035D01*
X123499629Y-79098361D01*
X123517432Y-79111296D01*
X123518405Y-79111612D01*
X123566429Y-79156967D01*
X123583495Y-79225882D01*
X123560595Y-79293084D01*
X123506298Y-79336204D01*
X123502196Y-79336854D01*
X123493359Y-79341357D01*
X123493358Y-79341357D01*
X123482597Y-79346840D01*
X123464336Y-79354404D01*
X123443411Y-79361203D01*
X123435387Y-79367033D01*
X123425613Y-79374134D01*
X123408757Y-79384463D01*
X123397993Y-79389948D01*
X123397992Y-79389949D01*
X123389158Y-79394450D01*
X123366595Y-79417013D01*
X123366591Y-79417016D01*
X122314001Y-80469606D01*
X122251689Y-80503632D01*
X122224906Y-80506511D01*
X120976500Y-80506511D01*
X120908379Y-80486509D01*
X120861886Y-80432853D01*
X120850500Y-80380511D01*
X120850500Y-80132826D01*
X120836925Y-80064581D01*
X120836925Y-80015418D01*
X120838221Y-80008905D01*
X120850500Y-79947174D01*
X120850500Y-79497826D01*
X120836925Y-79429581D01*
X120836925Y-79380418D01*
X120838175Y-79374134D01*
X120850500Y-79312174D01*
X120850500Y-78862826D01*
X120836925Y-78794581D01*
X120836925Y-78745418D01*
X120841532Y-78722258D01*
X120850500Y-78677174D01*
X120850500Y-78227826D01*
X120835966Y-78154760D01*
X120828900Y-78144184D01*
X120787493Y-78082214D01*
X120780601Y-78071899D01*
X120697740Y-78016534D01*
X120624674Y-78002000D01*
X119375326Y-78002000D01*
X119302260Y-78016534D01*
X119219399Y-78071899D01*
X119212507Y-78082214D01*
X119209077Y-78085644D01*
X119146765Y-78119670D01*
X119075950Y-78114605D01*
X119019114Y-78072058D01*
X119000149Y-78035486D01*
X118993703Y-78015648D01*
X118989087Y-77996422D01*
X118987197Y-77984488D01*
X118987197Y-77984487D01*
X118985646Y-77974696D01*
X118981145Y-77965863D01*
X118981144Y-77965859D01*
X118975659Y-77955094D01*
X118968093Y-77936830D01*
X118961296Y-77915910D01*
X118948361Y-77898107D01*
X118938035Y-77881255D01*
X118932554Y-77870498D01*
X118928050Y-77861658D01*
X118905487Y-77839095D01*
X118905484Y-77839091D01*
X118666492Y-77600099D01*
X118632466Y-77537787D01*
X118637531Y-77466972D01*
X118680078Y-77410136D01*
X118727457Y-77388184D01*
X118814565Y-77368234D01*
X118814569Y-77368233D01*
X118821968Y-77366538D01*
X118962625Y-77295795D01*
X118963512Y-77297559D01*
X119021581Y-77279544D01*
X119089998Y-77298506D01*
X119137303Y-77351447D01*
X119147125Y-77394998D01*
X119148893Y-77394824D01*
X119149500Y-77400987D01*
X119149500Y-77407174D01*
X119164034Y-77480240D01*
X119219399Y-77563101D01*
X119254806Y-77586759D01*
X119282466Y-77605240D01*
X119302260Y-77618466D01*
X119375326Y-77633000D01*
X120624674Y-77633000D01*
X120697740Y-77618466D01*
X120717535Y-77605240D01*
X120745194Y-77586759D01*
X120780601Y-77563101D01*
X120835966Y-77480240D01*
X120850500Y-77407174D01*
X120850500Y-76957826D01*
X120836925Y-76889581D01*
X120836925Y-76840418D01*
X120844639Y-76801640D01*
X120850500Y-76772174D01*
X120850500Y-76765987D01*
X120851107Y-76759824D01*
X120853296Y-76760040D01*
X120870502Y-76701440D01*
X120924158Y-76654947D01*
X120994432Y-76644843D01*
X121059012Y-76674337D01*
G37*
%TD.AperFunction*%
%TA.AperFunction,Conductor*%
G36*
X135155037Y-89225502D02*
G01*
X135176011Y-89242404D01*
X135562595Y-89628987D01*
X135596620Y-89691300D01*
X135599500Y-89718083D01*
X135599500Y-93781917D01*
X135579498Y-93850038D01*
X135562595Y-93871012D01*
X134291593Y-95142014D01*
X134229283Y-95176038D01*
X134158468Y-95170974D01*
X134113405Y-95142013D01*
X134088342Y-95116950D01*
X134000647Y-95072267D01*
X133949032Y-95023519D01*
X133931966Y-94954604D01*
X133954867Y-94887402D01*
X134000647Y-94847733D01*
X134038431Y-94828481D01*
X134088342Y-94803050D01*
X134178050Y-94713342D01*
X134235646Y-94600304D01*
X134250500Y-94506519D01*
X134250499Y-94143482D01*
X134247620Y-94125304D01*
X134237198Y-94059494D01*
X134237197Y-94059492D01*
X134235646Y-94049696D01*
X134228420Y-94035513D01*
X134208454Y-93996329D01*
X134178050Y-93936658D01*
X134088342Y-93846950D01*
X133975304Y-93789354D01*
X133965515Y-93787804D01*
X133965513Y-93787803D01*
X133928348Y-93781917D01*
X133881519Y-93774500D01*
X133025173Y-93774500D01*
X132168482Y-93774501D01*
X132163589Y-93775276D01*
X132163588Y-93775276D01*
X132084494Y-93787802D01*
X132084492Y-93787803D01*
X132074696Y-93789354D01*
X132065859Y-93793857D01*
X132065858Y-93793857D01*
X132032671Y-93810767D01*
X131975468Y-93824500D01*
X131776500Y-93824500D01*
X131708379Y-93804498D01*
X131661886Y-93750842D01*
X131650500Y-93698500D01*
X131650500Y-93171166D01*
X131647519Y-93139631D01*
X131602634Y-93011816D01*
X131597042Y-93004246D01*
X131597041Y-93004243D01*
X131534665Y-92919794D01*
X131522150Y-92902850D01*
X131489094Y-92878434D01*
X131420757Y-92827959D01*
X131420754Y-92827958D01*
X131413184Y-92822366D01*
X131285369Y-92777481D01*
X131277723Y-92776758D01*
X131277722Y-92776758D01*
X131271752Y-92776194D01*
X131253834Y-92774500D01*
X130746166Y-92774500D01*
X130728248Y-92776194D01*
X130722278Y-92776758D01*
X130722277Y-92776758D01*
X130714631Y-92777481D01*
X130586816Y-92822366D01*
X130579246Y-92827958D01*
X130579243Y-92827959D01*
X130510906Y-92878434D01*
X130477850Y-92902850D01*
X130465335Y-92919794D01*
X130402959Y-93004243D01*
X130402958Y-93004246D01*
X130397366Y-93011816D01*
X130352481Y-93139631D01*
X130349500Y-93171166D01*
X130349500Y-93828834D01*
X130350288Y-93837172D01*
X130351213Y-93846950D01*
X130352481Y-93860369D01*
X130397366Y-93988184D01*
X130402957Y-93995754D01*
X130402961Y-93995761D01*
X130474851Y-94093091D01*
X130499234Y-94159769D01*
X130499500Y-94167950D01*
X130499500Y-94179819D01*
X130498172Y-94191704D01*
X130498682Y-94191745D01*
X130497962Y-94200692D01*
X130495981Y-94209447D01*
X130496755Y-94221929D01*
X130495979Y-94225345D01*
X130495817Y-94227355D01*
X130495527Y-94227332D01*
X130481013Y-94291156D01*
X130445861Y-94331082D01*
X130402850Y-94362850D01*
X130397255Y-94370425D01*
X130397254Y-94370426D01*
X130327959Y-94464243D01*
X130327958Y-94464246D01*
X130322366Y-94471816D01*
X130277481Y-94599631D01*
X130274500Y-94631166D01*
X130274500Y-95138834D01*
X130277481Y-95170369D01*
X130322366Y-95298184D01*
X130327958Y-95305754D01*
X130327959Y-95305757D01*
X130360669Y-95350042D01*
X130402850Y-95407150D01*
X130417575Y-95418026D01*
X130504243Y-95482041D01*
X130504246Y-95482042D01*
X130511816Y-95487634D01*
X130639631Y-95532519D01*
X130647277Y-95533242D01*
X130647278Y-95533242D01*
X130653248Y-95533806D01*
X130671166Y-95535500D01*
X131328834Y-95535500D01*
X131346752Y-95533806D01*
X131352722Y-95533242D01*
X131352723Y-95533242D01*
X131360369Y-95532519D01*
X131488184Y-95487634D01*
X131495754Y-95482042D01*
X131495757Y-95482041D01*
X131597150Y-95407150D01*
X131599153Y-95409862D01*
X131646717Y-95383890D01*
X131717532Y-95388955D01*
X131774368Y-95431502D01*
X131799179Y-95498022D01*
X131799500Y-95507011D01*
X131799501Y-95659091D01*
X131799501Y-95776518D01*
X131800276Y-95781411D01*
X131800276Y-95781412D01*
X131807666Y-95828072D01*
X131814354Y-95870304D01*
X131818857Y-95879141D01*
X131818857Y-95879142D01*
X131839551Y-95919756D01*
X131849862Y-95974660D01*
X131888876Y-96000268D01*
X131961658Y-96073050D01*
X132074696Y-96130646D01*
X132084485Y-96132196D01*
X132084487Y-96132197D01*
X132111849Y-96136530D01*
X132168481Y-96145500D01*
X133024827Y-96145500D01*
X133881518Y-96145499D01*
X133886412Y-96144724D01*
X133965506Y-96132198D01*
X133965508Y-96132197D01*
X133975304Y-96130646D01*
X134088342Y-96073050D01*
X134128987Y-96032405D01*
X134191299Y-95998379D01*
X134218082Y-95995500D01*
X134468433Y-95995500D01*
X134477864Y-95992436D01*
X134477868Y-95992435D01*
X134489353Y-95988703D01*
X134508578Y-95984087D01*
X134520512Y-95982197D01*
X134520513Y-95982197D01*
X134530304Y-95980646D01*
X134539137Y-95976145D01*
X134539141Y-95976144D01*
X134549906Y-95970659D01*
X134568166Y-95963095D01*
X134589090Y-95956296D01*
X134606893Y-95943361D01*
X134623745Y-95933035D01*
X134634502Y-95927554D01*
X134643342Y-95923050D01*
X134665905Y-95900487D01*
X134665909Y-95900484D01*
X135546471Y-95019922D01*
X135608783Y-94985896D01*
X135679598Y-94990961D01*
X135736434Y-95033508D01*
X135761245Y-95100028D01*
X135758741Y-95134504D01*
X135756148Y-95141420D01*
X135752698Y-95187843D01*
X135751548Y-95197856D01*
X135749500Y-95211009D01*
X135749500Y-95226204D01*
X135749154Y-95235541D01*
X135745524Y-95284392D01*
X135747397Y-95293168D01*
X135748008Y-95302125D01*
X135748002Y-95302125D01*
X135749500Y-95316318D01*
X135749500Y-96740496D01*
X135729498Y-96808617D01*
X135712595Y-96829591D01*
X135329591Y-97212595D01*
X135267279Y-97246621D01*
X135240496Y-97249500D01*
X132009504Y-97249500D01*
X131941383Y-97229498D01*
X131920409Y-97212595D01*
X131728063Y-97020249D01*
X131694037Y-96957937D01*
X131698275Y-96889406D01*
X131719974Y-96827616D01*
X131722519Y-96820369D01*
X131725500Y-96788834D01*
X131725500Y-96281166D01*
X131722519Y-96249631D01*
X131680898Y-96131111D01*
X131678679Y-96088572D01*
X131635681Y-96063474D01*
X131625933Y-96051818D01*
X131602745Y-96020424D01*
X131602742Y-96020421D01*
X131597150Y-96012850D01*
X131577558Y-95998379D01*
X131495757Y-95937959D01*
X131495754Y-95937958D01*
X131488184Y-95932366D01*
X131360369Y-95887481D01*
X131352723Y-95886758D01*
X131352722Y-95886758D01*
X131346752Y-95886194D01*
X131328834Y-95884500D01*
X130671166Y-95884500D01*
X130653248Y-95886194D01*
X130647278Y-95886758D01*
X130647277Y-95886758D01*
X130639631Y-95887481D01*
X130511816Y-95932366D01*
X130504246Y-95937957D01*
X130504239Y-95937961D01*
X130406909Y-96009851D01*
X130340231Y-96034234D01*
X130332050Y-96034500D01*
X129714504Y-96034500D01*
X129646383Y-96014498D01*
X129625409Y-95997595D01*
X129286905Y-95659091D01*
X129252879Y-95596779D01*
X129250000Y-95569996D01*
X129250000Y-94351500D01*
X129270002Y-94283379D01*
X129323658Y-94236886D01*
X129376000Y-94225500D01*
X129603834Y-94225500D01*
X129621752Y-94223806D01*
X129627722Y-94223242D01*
X129627723Y-94223242D01*
X129635369Y-94222519D01*
X129763184Y-94177634D01*
X129770754Y-94172042D01*
X129770757Y-94172041D01*
X129864579Y-94102742D01*
X129872150Y-94097150D01*
X129899963Y-94059494D01*
X129947041Y-93995757D01*
X129947042Y-93995754D01*
X129952634Y-93988184D01*
X129997519Y-93860369D01*
X129998788Y-93846950D01*
X129999712Y-93837172D01*
X130000500Y-93828834D01*
X130000500Y-93171166D01*
X129997519Y-93139631D01*
X129952634Y-93011816D01*
X129947042Y-93004246D01*
X129947041Y-93004243D01*
X129884665Y-92919794D01*
X129872150Y-92902850D01*
X129839094Y-92878434D01*
X129770757Y-92827959D01*
X129770754Y-92827958D01*
X129763184Y-92822366D01*
X129635369Y-92777481D01*
X129627723Y-92776758D01*
X129627722Y-92776758D01*
X129621752Y-92776194D01*
X129603834Y-92774500D01*
X129384504Y-92774500D01*
X129316383Y-92754498D01*
X129295409Y-92737595D01*
X129286905Y-92729091D01*
X129252879Y-92666779D01*
X129250000Y-92639996D01*
X129250000Y-91206873D01*
X129270002Y-91138752D01*
X129323847Y-91092173D01*
X129359267Y-91076068D01*
X129368637Y-91072254D01*
X129403943Y-91059509D01*
X129403947Y-91059507D01*
X129412387Y-91056460D01*
X129419635Y-91051165D01*
X129422975Y-91049389D01*
X129436089Y-91041726D01*
X129439261Y-91039697D01*
X129447428Y-91035984D01*
X129454223Y-91030129D01*
X129454226Y-91030127D01*
X129482675Y-91005613D01*
X129490596Y-90999324D01*
X129497402Y-90994352D01*
X129501336Y-90991478D01*
X129512079Y-90980735D01*
X129518924Y-90974379D01*
X129528591Y-90966049D01*
X129593253Y-90936734D01*
X129610841Y-90935500D01*
X129828834Y-90935500D01*
X129846752Y-90933806D01*
X129852722Y-90933242D01*
X129852723Y-90933242D01*
X129860369Y-90932519D01*
X129988184Y-90887634D01*
X129995754Y-90882042D01*
X129995757Y-90882041D01*
X130089579Y-90812742D01*
X130097150Y-90807150D01*
X130102742Y-90799579D01*
X130109406Y-90792915D01*
X130110711Y-90794220D01*
X130158149Y-90758230D01*
X130202940Y-90750000D01*
X130310234Y-90750000D01*
X130378355Y-90770002D01*
X130399328Y-90786903D01*
X130404932Y-90792507D01*
X130410313Y-90799687D01*
X130417493Y-90805068D01*
X130417496Y-90805071D01*
X130453958Y-90832397D01*
X130519305Y-90881372D01*
X130646843Y-90929184D01*
X130654696Y-90930037D01*
X130654700Y-90930038D01*
X130701586Y-90935131D01*
X130701590Y-90935131D01*
X130704985Y-90935500D01*
X130999956Y-90935500D01*
X131295014Y-90935499D01*
X131353157Y-90929184D01*
X131480695Y-90881372D01*
X131546042Y-90832397D01*
X131582504Y-90805071D01*
X131582507Y-90805068D01*
X131589687Y-90799687D01*
X131595068Y-90792507D01*
X131600672Y-90786903D01*
X131662985Y-90752879D01*
X131689766Y-90750000D01*
X132098500Y-90750000D01*
X132166621Y-90770002D01*
X132213114Y-90823658D01*
X132224500Y-90876000D01*
X132224500Y-90888218D01*
X132225170Y-90892768D01*
X132225170Y-90892771D01*
X132233202Y-90947330D01*
X132234642Y-90957112D01*
X132251515Y-90991478D01*
X132280696Y-91050913D01*
X132286068Y-91061855D01*
X132315899Y-91091634D01*
X132336251Y-91111950D01*
X132368650Y-91144293D01*
X132473482Y-91195536D01*
X132503973Y-91199984D01*
X132537256Y-91204840D01*
X132537260Y-91204840D01*
X132541782Y-91205500D01*
X132761000Y-91205500D01*
X132829121Y-91225502D01*
X132875614Y-91279158D01*
X132887000Y-91331500D01*
X132887000Y-91350933D01*
X132890064Y-91360364D01*
X132890065Y-91360368D01*
X132893797Y-91371853D01*
X132898413Y-91391078D01*
X132901854Y-91412804D01*
X132906355Y-91421637D01*
X132906356Y-91421641D01*
X132911841Y-91432406D01*
X132919405Y-91450666D01*
X132926204Y-91471590D01*
X132939139Y-91489393D01*
X132949465Y-91506245D01*
X132959450Y-91525842D01*
X132982013Y-91548405D01*
X132982016Y-91548409D01*
X133060359Y-91626752D01*
X133094385Y-91689064D01*
X133096186Y-91732292D01*
X133094758Y-91743138D01*
X133112035Y-91899633D01*
X133166143Y-92047490D01*
X133170380Y-92053796D01*
X133170382Y-92053799D01*
X133182631Y-92072027D01*
X133253958Y-92178172D01*
X133273564Y-92196012D01*
X133344881Y-92260905D01*
X133370410Y-92284135D01*
X133398171Y-92299208D01*
X133502099Y-92355637D01*
X133502101Y-92355638D01*
X133508776Y-92359262D01*
X133516125Y-92361190D01*
X133653719Y-92397287D01*
X133653721Y-92397287D01*
X133661069Y-92399215D01*
X133744380Y-92400524D01*
X133810898Y-92401569D01*
X133810901Y-92401569D01*
X133818495Y-92401688D01*
X133971968Y-92366538D01*
X134112625Y-92295795D01*
X134184408Y-92234487D01*
X134226574Y-92198474D01*
X134226576Y-92198471D01*
X134232348Y-92193542D01*
X134324224Y-92065683D01*
X134382950Y-91919598D01*
X134400422Y-91796830D01*
X134404553Y-91767807D01*
X134404553Y-91767804D01*
X134405134Y-91763723D01*
X134405278Y-91750000D01*
X134401413Y-91718057D01*
X134400746Y-91712550D01*
X134386363Y-91593694D01*
X134379885Y-91576551D01*
X134333394Y-91453514D01*
X134333393Y-91453511D01*
X134330710Y-91446412D01*
X134241531Y-91316657D01*
X134231491Y-91307711D01*
X134193935Y-91247463D01*
X134194914Y-91176473D01*
X134226136Y-91124617D01*
X134281935Y-91068721D01*
X134281935Y-91068720D01*
X134289293Y-91061350D01*
X134297138Y-91045302D01*
X134336240Y-90965306D01*
X134340536Y-90956518D01*
X134350500Y-90888218D01*
X134350500Y-90621782D01*
X134340358Y-90552888D01*
X134307304Y-90485564D01*
X134295236Y-90415601D01*
X134307206Y-90374705D01*
X134340536Y-90306518D01*
X134346522Y-90265484D01*
X134349840Y-90242744D01*
X134349840Y-90242740D01*
X134350500Y-90238218D01*
X134350500Y-89971782D01*
X134347720Y-89952894D01*
X134341784Y-89912574D01*
X134341784Y-89912573D01*
X134340358Y-89902888D01*
X134307304Y-89835564D01*
X134295236Y-89765601D01*
X134307206Y-89724705D01*
X134340536Y-89656518D01*
X134350500Y-89588218D01*
X134350500Y-89331500D01*
X134370502Y-89263379D01*
X134424158Y-89216886D01*
X134476500Y-89205500D01*
X135086916Y-89205500D01*
X135155037Y-89225502D01*
G37*
%TD.AperFunction*%
%TA.AperFunction,Conductor*%
G36*
X161442121Y-72270002D02*
G01*
X161488614Y-72323658D01*
X161500000Y-72376000D01*
X161500000Y-79988500D01*
X161479998Y-80056621D01*
X161426342Y-80103114D01*
X161374000Y-80114500D01*
X157995326Y-80114500D01*
X157922260Y-80129034D01*
X157839399Y-80184399D01*
X157832507Y-80194714D01*
X157823728Y-80203493D01*
X157822651Y-80202416D01*
X157778837Y-80239031D01*
X157728551Y-80249500D01*
X153956178Y-80249500D01*
X153864631Y-80260173D01*
X153833444Y-80263809D01*
X153833442Y-80263809D01*
X153826172Y-80264657D01*
X153819295Y-80267153D01*
X153819292Y-80267154D01*
X153680620Y-80317490D01*
X153661669Y-80324369D01*
X153515315Y-80420323D01*
X153510283Y-80425635D01*
X153477584Y-80460153D01*
X153416215Y-80495851D01*
X153386111Y-80499500D01*
X152875326Y-80499500D01*
X152802260Y-80514034D01*
X152719399Y-80569399D01*
X152664034Y-80652260D01*
X152649500Y-80725326D01*
X152649500Y-81274674D01*
X152664034Y-81347740D01*
X152710642Y-81417494D01*
X152718997Y-81429999D01*
X152740211Y-81497752D01*
X152718997Y-81570000D01*
X152664034Y-81652260D01*
X152649500Y-81725326D01*
X152649500Y-82274674D01*
X152664034Y-82347740D01*
X152670928Y-82358057D01*
X152670928Y-82358058D01*
X152684970Y-82379074D01*
X152719399Y-82430601D01*
X152729714Y-82437493D01*
X152781788Y-82472287D01*
X152802260Y-82485966D01*
X152875326Y-82500500D01*
X152881514Y-82500500D01*
X152884062Y-82500751D01*
X152949895Y-82527332D01*
X152990905Y-82585286D01*
X152994074Y-82656212D01*
X152983931Y-82683444D01*
X152960110Y-82730095D01*
X152960108Y-82730101D01*
X152956781Y-82736616D01*
X152955042Y-82743721D01*
X152955041Y-82743725D01*
X152942826Y-82793644D01*
X152915185Y-82906606D01*
X152914838Y-82912206D01*
X152914837Y-82912210D01*
X152914620Y-82915709D01*
X152914500Y-82917648D01*
X152914500Y-85153546D01*
X152913067Y-85172496D01*
X152909852Y-85193630D01*
X152910445Y-85200922D01*
X152910445Y-85200925D01*
X152914085Y-85245675D01*
X152914500Y-85255889D01*
X152914500Y-85263822D01*
X152914925Y-85267466D01*
X152917754Y-85291736D01*
X152918187Y-85296111D01*
X152920564Y-85325339D01*
X152924039Y-85368059D01*
X152926295Y-85375024D01*
X152927454Y-85380823D01*
X152928809Y-85386555D01*
X152929657Y-85393828D01*
X152932154Y-85400706D01*
X152936940Y-85413892D01*
X152944501Y-85456884D01*
X152944501Y-85495014D01*
X152950816Y-85553157D01*
X152998628Y-85680695D01*
X153080313Y-85789687D01*
X153189305Y-85871372D01*
X153194309Y-85873248D01*
X153243162Y-85922212D01*
X153258176Y-85991603D01*
X153233290Y-86058095D01*
X153208072Y-86083299D01*
X153112494Y-86154931D01*
X153105313Y-86160313D01*
X153099932Y-86167493D01*
X153029010Y-86262123D01*
X153029008Y-86262126D01*
X153023628Y-86269305D01*
X153017478Y-86285711D01*
X153007556Y-86303831D01*
X153008322Y-86304250D01*
X153004014Y-86312119D01*
X152998628Y-86319305D01*
X152950816Y-86446843D01*
X152949963Y-86454696D01*
X152949962Y-86454700D01*
X152947902Y-86473666D01*
X152944500Y-86504985D01*
X152944500Y-86567047D01*
X152940889Y-86596995D01*
X152920185Y-86681606D01*
X152919500Y-86692648D01*
X152919500Y-88543822D01*
X152934657Y-88673828D01*
X152937153Y-88680703D01*
X152937153Y-88680705D01*
X152977375Y-88791513D01*
X152984199Y-88820899D01*
X152988234Y-88858051D01*
X152991007Y-88865447D01*
X152991008Y-88865451D01*
X152995117Y-88876412D01*
X153035417Y-88983912D01*
X153040799Y-88991093D01*
X153040800Y-88991095D01*
X153088319Y-89054500D01*
X153116028Y-89091472D01*
X153123208Y-89096853D01*
X153123212Y-89096857D01*
X153169065Y-89131221D01*
X153211580Y-89188080D01*
X153219500Y-89232047D01*
X153219500Y-89623500D01*
X153199498Y-89691621D01*
X153145842Y-89738114D01*
X153093500Y-89749500D01*
X152795326Y-89749500D01*
X152722260Y-89764034D01*
X152711943Y-89770928D01*
X152711942Y-89770928D01*
X152703895Y-89776305D01*
X152639399Y-89819399D01*
X152584034Y-89902260D01*
X152569500Y-89975326D01*
X152569500Y-92388433D01*
X152572564Y-92397864D01*
X152572565Y-92397868D01*
X152576297Y-92409353D01*
X152580913Y-92428578D01*
X152584354Y-92450304D01*
X152588855Y-92459137D01*
X152588856Y-92459141D01*
X152594341Y-92469906D01*
X152601905Y-92488166D01*
X152608704Y-92509090D01*
X152621639Y-92526893D01*
X152631965Y-92543745D01*
X152641950Y-92563342D01*
X152664513Y-92585905D01*
X152664516Y-92585909D01*
X153182595Y-93103988D01*
X153216621Y-93166300D01*
X153219500Y-93193083D01*
X153219500Y-93623500D01*
X153199498Y-93691621D01*
X153145842Y-93738114D01*
X153093500Y-93749500D01*
X152795326Y-93749500D01*
X152722260Y-93764034D01*
X152711940Y-93770929D01*
X152700479Y-93775677D01*
X152699656Y-93773690D01*
X152647245Y-93790099D01*
X152590454Y-93773424D01*
X152589521Y-93775677D01*
X152578060Y-93770929D01*
X152567740Y-93764034D01*
X152494674Y-93749500D01*
X152145326Y-93749500D01*
X152072260Y-93764034D01*
X152061943Y-93770928D01*
X152061942Y-93770928D01*
X152045496Y-93781917D01*
X151989399Y-93819399D01*
X151979634Y-93834014D01*
X151945557Y-93885015D01*
X151934034Y-93902260D01*
X151919500Y-93975326D01*
X151919500Y-95024674D01*
X151934034Y-95097740D01*
X151989399Y-95180601D01*
X151999714Y-95187493D01*
X152057957Y-95226409D01*
X152072260Y-95235966D01*
X152145326Y-95250500D01*
X152213427Y-95250500D01*
X152281548Y-95270502D01*
X152328041Y-95324158D01*
X152338145Y-95394432D01*
X152308651Y-95459012D01*
X152302522Y-95465595D01*
X152205522Y-95562595D01*
X152143210Y-95596621D01*
X152116427Y-95599500D01*
X149458082Y-95599500D01*
X149389961Y-95579498D01*
X149368987Y-95562595D01*
X149166654Y-95360262D01*
X149132628Y-95297950D01*
X149136436Y-95230666D01*
X149172819Y-95123485D01*
X149172820Y-95123479D01*
X149174678Y-95118007D01*
X149175507Y-95112291D01*
X149175508Y-95112286D01*
X149198820Y-94951500D01*
X149203700Y-94917842D01*
X149205215Y-94860000D01*
X149186708Y-94658591D01*
X149182776Y-94644647D01*
X149150992Y-94531950D01*
X149131807Y-94463926D01*
X149042351Y-94282527D01*
X149024079Y-94258057D01*
X148924788Y-94125091D01*
X148924787Y-94125090D01*
X148921335Y-94120467D01*
X148917099Y-94116551D01*
X148777053Y-93987094D01*
X148777051Y-93987092D01*
X148772812Y-93983174D01*
X148745374Y-93965862D01*
X148606637Y-93878325D01*
X148601757Y-93875246D01*
X148413898Y-93800298D01*
X148215526Y-93760839D01*
X148209752Y-93760763D01*
X148209748Y-93760763D01*
X148107257Y-93759422D01*
X148013286Y-93758192D01*
X148007589Y-93759171D01*
X148007588Y-93759171D01*
X147819646Y-93791465D01*
X147819645Y-93791465D01*
X147813949Y-93792444D01*
X147624193Y-93862449D01*
X147619232Y-93865401D01*
X147619231Y-93865401D01*
X147484612Y-93945491D01*
X147450371Y-93965862D01*
X147298305Y-94099220D01*
X147173089Y-94258057D01*
X147078914Y-94437053D01*
X147077850Y-94436493D01*
X147037143Y-94487003D01*
X146965287Y-94509500D01*
X146749532Y-94509500D01*
X146692329Y-94495767D01*
X146650304Y-94474354D01*
X146640515Y-94472804D01*
X146640513Y-94472803D01*
X146613151Y-94468470D01*
X146556519Y-94459500D01*
X145937625Y-94459500D01*
X145318482Y-94459501D01*
X145313589Y-94460276D01*
X145313588Y-94460276D01*
X145234494Y-94472802D01*
X145234492Y-94472803D01*
X145224696Y-94474354D01*
X145111658Y-94531950D01*
X145021950Y-94621658D01*
X144964354Y-94734696D01*
X144949500Y-94828481D01*
X144949501Y-95191518D01*
X144950276Y-95196411D01*
X144950276Y-95196412D01*
X144950506Y-95197861D01*
X144964092Y-95283647D01*
X144964354Y-95285304D01*
X144964140Y-95285338D01*
X144965987Y-95350042D01*
X144929323Y-95410839D01*
X144865610Y-95442163D01*
X144795076Y-95434068D01*
X144786929Y-95430277D01*
X144775304Y-95424354D01*
X144765515Y-95422804D01*
X144765513Y-95422803D01*
X144735350Y-95418026D01*
X144681519Y-95409500D01*
X144376000Y-95409500D01*
X144307879Y-95389498D01*
X144261386Y-95335842D01*
X144250000Y-95283500D01*
X144250000Y-94680107D01*
X144270002Y-94611986D01*
X144319386Y-94567542D01*
X144339451Y-94557450D01*
X144362625Y-94545795D01*
X144414411Y-94501566D01*
X144476574Y-94448474D01*
X144476576Y-94448471D01*
X144482348Y-94443542D01*
X144574224Y-94315683D01*
X144632950Y-94169598D01*
X144633149Y-94168197D01*
X144664326Y-94114199D01*
X144853655Y-93924870D01*
X144857464Y-93921217D01*
X144875174Y-93904932D01*
X144903156Y-93879201D01*
X144926095Y-93842203D01*
X144932797Y-93832452D01*
X144959112Y-93797784D01*
X144964646Y-93783807D01*
X144974709Y-93763798D01*
X144978111Y-93758312D01*
X144978113Y-93758308D01*
X144982635Y-93751014D01*
X144985029Y-93742772D01*
X144985031Y-93742769D01*
X144994779Y-93709216D01*
X144998618Y-93698003D01*
X145014635Y-93657547D01*
X145016206Y-93642598D01*
X145020519Y-93620615D01*
X145022873Y-93612514D01*
X145024715Y-93606175D01*
X145025500Y-93595485D01*
X145025500Y-93560781D01*
X145026190Y-93547610D01*
X145029503Y-93516088D01*
X145030401Y-93507546D01*
X145028969Y-93499081D01*
X145028969Y-93499072D01*
X145027265Y-93489000D01*
X145025500Y-93467987D01*
X145025500Y-93400592D01*
X145045502Y-93332471D01*
X145050674Y-93325027D01*
X145075464Y-93291950D01*
X145121372Y-93230695D01*
X145169184Y-93103157D01*
X145173612Y-93062402D01*
X145175131Y-93048414D01*
X145175131Y-93048410D01*
X145175500Y-93045015D01*
X145175499Y-92454986D01*
X145169184Y-92396843D01*
X145121372Y-92269305D01*
X145039687Y-92160313D01*
X144930695Y-92078628D01*
X144922291Y-92075478D01*
X144915989Y-92072027D01*
X144865844Y-92021768D01*
X144850500Y-91961508D01*
X144850500Y-91012211D01*
X144850499Y-90460937D01*
X144850499Y-90455982D01*
X144843286Y-90410439D01*
X144837198Y-90371994D01*
X144837197Y-90371992D01*
X144835646Y-90362196D01*
X144821128Y-90333703D01*
X144808024Y-90263926D01*
X144834724Y-90198142D01*
X144892751Y-90157235D01*
X144933395Y-90150500D01*
X145481916Y-90150500D01*
X145550037Y-90170502D01*
X145571011Y-90187405D01*
X145630961Y-90247355D01*
X145664987Y-90309667D01*
X145662374Y-90361882D01*
X145664354Y-90362196D01*
X145649500Y-90455981D01*
X145649501Y-91544018D01*
X145650276Y-91548909D01*
X145650276Y-91548912D01*
X145662604Y-91626752D01*
X145664354Y-91637804D01*
X145721950Y-91750842D01*
X145811658Y-91840550D01*
X145924696Y-91898146D01*
X145934485Y-91899696D01*
X145934487Y-91899697D01*
X145961849Y-91904030D01*
X146018481Y-91913000D01*
X146199963Y-91913000D01*
X146381518Y-91912999D01*
X146386412Y-91912224D01*
X146465506Y-91899698D01*
X146465508Y-91899697D01*
X146475304Y-91898146D01*
X146487202Y-91892084D01*
X146506895Y-91882049D01*
X146588342Y-91840550D01*
X146678050Y-91750842D01*
X146735646Y-91637804D01*
X146737397Y-91626752D01*
X146748092Y-91559220D01*
X146750500Y-91544019D01*
X146750499Y-90455982D01*
X146750341Y-90454985D01*
X149419500Y-90454985D01*
X149419501Y-90995014D01*
X149425816Y-91053157D01*
X149473628Y-91180695D01*
X149555313Y-91289687D01*
X149664305Y-91371372D01*
X149791843Y-91419184D01*
X149799696Y-91420037D01*
X149799700Y-91420038D01*
X149846586Y-91425131D01*
X149846590Y-91425131D01*
X149849985Y-91425500D01*
X150144956Y-91425500D01*
X150440014Y-91425499D01*
X150498157Y-91419184D01*
X150625695Y-91371372D01*
X150734687Y-91289687D01*
X150816372Y-91180695D01*
X150864184Y-91053157D01*
X150868558Y-91012892D01*
X150895800Y-90947330D01*
X150954163Y-90906904D01*
X150993821Y-90900500D01*
X151143680Y-90900500D01*
X151211801Y-90920502D01*
X151258294Y-90974158D01*
X151269073Y-91014151D01*
X151269500Y-91018486D01*
X151269500Y-91024674D01*
X151284034Y-91097740D01*
X151290928Y-91108057D01*
X151290928Y-91108058D01*
X151308612Y-91134524D01*
X151339399Y-91180601D01*
X151375676Y-91204840D01*
X151386271Y-91211919D01*
X151422260Y-91235966D01*
X151495326Y-91250500D01*
X151844674Y-91250500D01*
X151917740Y-91235966D01*
X151953730Y-91211919D01*
X151964324Y-91204840D01*
X152000601Y-91180601D01*
X152031388Y-91134524D01*
X152049072Y-91108058D01*
X152049072Y-91108057D01*
X152055966Y-91097740D01*
X152070500Y-91024674D01*
X152070500Y-90541436D01*
X152072051Y-90521726D01*
X152073941Y-90509793D01*
X152075492Y-90500000D01*
X152072051Y-90478274D01*
X152070500Y-90458564D01*
X152070500Y-89975326D01*
X152055966Y-89902260D01*
X152000601Y-89819399D01*
X151936105Y-89776305D01*
X151928058Y-89770928D01*
X151928057Y-89770928D01*
X151917740Y-89764034D01*
X151844674Y-89749500D01*
X151495326Y-89749500D01*
X151422260Y-89764034D01*
X151411943Y-89770928D01*
X151411942Y-89770928D01*
X151403895Y-89776305D01*
X151339399Y-89819399D01*
X151284034Y-89902260D01*
X151269500Y-89975326D01*
X151269500Y-89981513D01*
X151269073Y-89985849D01*
X151242491Y-90051681D01*
X151184538Y-90092692D01*
X151143680Y-90099500D01*
X150693403Y-90099500D01*
X150632894Y-90084020D01*
X150632877Y-90084011D01*
X150625695Y-90078628D01*
X150617294Y-90075478D01*
X150617291Y-90075477D01*
X150531941Y-90043481D01*
X150498157Y-90030816D01*
X150490304Y-90029963D01*
X150490300Y-90029962D01*
X150443414Y-90024869D01*
X150443410Y-90024869D01*
X150440015Y-90024500D01*
X150145044Y-90024500D01*
X149849986Y-90024501D01*
X149791843Y-90030816D01*
X149664305Y-90078628D01*
X149555313Y-90160313D01*
X149473628Y-90269305D01*
X149425816Y-90396843D01*
X149424963Y-90404696D01*
X149424962Y-90404700D01*
X149420851Y-90442550D01*
X149419500Y-90454985D01*
X146750341Y-90454985D01*
X146743286Y-90410439D01*
X146737198Y-90371994D01*
X146737197Y-90371992D01*
X146735646Y-90362196D01*
X146724920Y-90341144D01*
X146717898Y-90327364D01*
X146678050Y-90249158D01*
X146588342Y-90159450D01*
X146584592Y-90157539D01*
X146543175Y-90103826D01*
X146540477Y-90093852D01*
X146540262Y-90093922D01*
X146537197Y-90084488D01*
X146535646Y-90074696D01*
X146531145Y-90065863D01*
X146531144Y-90065859D01*
X146525659Y-90055094D01*
X146518093Y-90036830D01*
X146517041Y-90033590D01*
X146511296Y-90015910D01*
X146505467Y-90007888D01*
X146505466Y-90007885D01*
X146498368Y-89998116D01*
X146488038Y-89981259D01*
X146482552Y-89970493D01*
X146482551Y-89970492D01*
X146478050Y-89961658D01*
X146360306Y-89843914D01*
X146326280Y-89781602D01*
X146331345Y-89710787D01*
X146373892Y-89653951D01*
X146429691Y-89630370D01*
X146465507Y-89624698D01*
X146465510Y-89624697D01*
X146475304Y-89623146D01*
X146588342Y-89565550D01*
X146678050Y-89475842D01*
X146735646Y-89362804D01*
X146739557Y-89338114D01*
X146746920Y-89291621D01*
X146750500Y-89269019D01*
X146750499Y-88180982D01*
X146745725Y-88150837D01*
X146737198Y-88096994D01*
X146737197Y-88096992D01*
X146735646Y-88087196D01*
X146678050Y-87974158D01*
X146588342Y-87884450D01*
X146475304Y-87826854D01*
X146465515Y-87825304D01*
X146465513Y-87825303D01*
X146438151Y-87820970D01*
X146381519Y-87812000D01*
X146200037Y-87812000D01*
X146018482Y-87812001D01*
X146013589Y-87812776D01*
X146013588Y-87812776D01*
X145934494Y-87825302D01*
X145934492Y-87825303D01*
X145924696Y-87826854D01*
X145811658Y-87884450D01*
X145721950Y-87974158D01*
X145664354Y-88087196D01*
X145649500Y-88180981D01*
X145649501Y-88722440D01*
X145649501Y-89223500D01*
X145629499Y-89291621D01*
X145575843Y-89338114D01*
X145523501Y-89349500D01*
X144976500Y-89349500D01*
X144908379Y-89329498D01*
X144861886Y-89275842D01*
X144850500Y-89223500D01*
X144850499Y-88185937D01*
X144850499Y-88180982D01*
X144845725Y-88150837D01*
X144837198Y-88096994D01*
X144837197Y-88096992D01*
X144835646Y-88087196D01*
X144814233Y-88045170D01*
X144800500Y-87987968D01*
X144800500Y-87807508D01*
X144820502Y-87739387D01*
X144874158Y-87692894D01*
X144882270Y-87689526D01*
X144922287Y-87674524D01*
X144930695Y-87671372D01*
X145039687Y-87589687D01*
X145121372Y-87480695D01*
X145169184Y-87353157D01*
X145170648Y-87339687D01*
X145175131Y-87298414D01*
X145175131Y-87298410D01*
X145175500Y-87295015D01*
X145175499Y-86704986D01*
X145169184Y-86646843D01*
X145121372Y-86519305D01*
X145039687Y-86410313D01*
X144930695Y-86328628D01*
X144803157Y-86280816D01*
X144795304Y-86279963D01*
X144795300Y-86279962D01*
X144748414Y-86274869D01*
X144748410Y-86274869D01*
X144745015Y-86274500D01*
X144731941Y-86274500D01*
X144375999Y-86274501D01*
X144307880Y-86254499D01*
X144261387Y-86200844D01*
X144250000Y-86148501D01*
X144250000Y-85180107D01*
X144270002Y-85111986D01*
X144319386Y-85067542D01*
X144331264Y-85061568D01*
X144362625Y-85045795D01*
X144380312Y-85030689D01*
X144445102Y-85001658D01*
X144462142Y-85000500D01*
X147204819Y-85000500D01*
X147216704Y-85001828D01*
X147216745Y-85001318D01*
X147225691Y-85002038D01*
X147234447Y-85004019D01*
X147287263Y-85000742D01*
X147295067Y-85000500D01*
X147310940Y-85000500D01*
X147321052Y-84999052D01*
X147331106Y-84998022D01*
X147359097Y-84996285D01*
X147377538Y-84995141D01*
X147385982Y-84992093D01*
X147389694Y-84991324D01*
X147404399Y-84987657D01*
X147408027Y-84986596D01*
X147416918Y-84985323D01*
X147459282Y-84966061D01*
X147468637Y-84962254D01*
X147503943Y-84949509D01*
X147503947Y-84949507D01*
X147512387Y-84946460D01*
X147519635Y-84941165D01*
X147522975Y-84939389D01*
X147536089Y-84931726D01*
X147539261Y-84929697D01*
X147547428Y-84925984D01*
X147554223Y-84920129D01*
X147554226Y-84920127D01*
X147582675Y-84895613D01*
X147590596Y-84889324D01*
X147597402Y-84884352D01*
X147601336Y-84881478D01*
X147612079Y-84870735D01*
X147618926Y-84864377D01*
X147649237Y-84838259D01*
X147656037Y-84832400D01*
X147660920Y-84824866D01*
X147666819Y-84818104D01*
X147666824Y-84818108D01*
X147675800Y-84807014D01*
X148220409Y-84262405D01*
X148282721Y-84228379D01*
X148309503Y-84225500D01*
X148527320Y-84225499D01*
X148545014Y-84225499D01*
X148603157Y-84219184D01*
X148730695Y-84171372D01*
X148839687Y-84089687D01*
X148921372Y-83980695D01*
X148969184Y-83853157D01*
X148970037Y-83845304D01*
X148970038Y-83845300D01*
X148975131Y-83798414D01*
X148975131Y-83798410D01*
X148975500Y-83795015D01*
X148975499Y-83204986D01*
X148969184Y-83146843D01*
X148921372Y-83019305D01*
X148871332Y-82952537D01*
X148845071Y-82917496D01*
X148845068Y-82917493D01*
X148839687Y-82910313D01*
X148832506Y-82904931D01*
X148832504Y-82904929D01*
X148825936Y-82900007D01*
X148783420Y-82843149D01*
X148775500Y-82799180D01*
X148775500Y-82700820D01*
X148795502Y-82632699D01*
X148825936Y-82599993D01*
X148832504Y-82595071D01*
X148832507Y-82595068D01*
X148839687Y-82589687D01*
X148845070Y-82582504D01*
X148851416Y-82576158D01*
X148853826Y-82578568D01*
X148897465Y-82545927D01*
X148941451Y-82538000D01*
X149055426Y-82538000D01*
X149123547Y-82558002D01*
X149145921Y-82578821D01*
X149146799Y-82577943D01*
X149153145Y-82584289D01*
X149158528Y-82591472D01*
X149165708Y-82596853D01*
X149165709Y-82596854D01*
X149252193Y-82661669D01*
X149266088Y-82672083D01*
X149274496Y-82675235D01*
X149384554Y-82716494D01*
X149384556Y-82716494D01*
X149391949Y-82719266D01*
X149399797Y-82720119D01*
X149399799Y-82720119D01*
X149445920Y-82725129D01*
X149449335Y-82725500D01*
X149749912Y-82725500D01*
X150050664Y-82725499D01*
X150108051Y-82719266D01*
X150149960Y-82703555D01*
X150220767Y-82698373D01*
X150283136Y-82732295D01*
X150317264Y-82794551D01*
X150313070Y-82863287D01*
X150287070Y-82937326D01*
X150277481Y-82964631D01*
X150274500Y-82996166D01*
X150274500Y-83503834D01*
X150277481Y-83535369D01*
X150322366Y-83663184D01*
X150327958Y-83670754D01*
X150327959Y-83670757D01*
X150380538Y-83741942D01*
X150402850Y-83772150D01*
X150410421Y-83777742D01*
X150504243Y-83847041D01*
X150504246Y-83847042D01*
X150511816Y-83852634D01*
X150639631Y-83897519D01*
X150647277Y-83898242D01*
X150647278Y-83898242D01*
X150653248Y-83898806D01*
X150671166Y-83900500D01*
X151328834Y-83900500D01*
X151346752Y-83898806D01*
X151352722Y-83898242D01*
X151352723Y-83898242D01*
X151360369Y-83897519D01*
X151488184Y-83852634D01*
X151495754Y-83847042D01*
X151495757Y-83847041D01*
X151589579Y-83777742D01*
X151597150Y-83772150D01*
X151619462Y-83741942D01*
X151672041Y-83670757D01*
X151672042Y-83670754D01*
X151677634Y-83663184D01*
X151722519Y-83535369D01*
X151725500Y-83503834D01*
X151725500Y-82996166D01*
X151722519Y-82964631D01*
X151702174Y-82906696D01*
X151698476Y-82835796D01*
X151731961Y-82775853D01*
X151970408Y-82537405D01*
X152032721Y-82503380D01*
X152059504Y-82500500D01*
X152124674Y-82500500D01*
X152197740Y-82485966D01*
X152218213Y-82472287D01*
X152270286Y-82437493D01*
X152280601Y-82430601D01*
X152315030Y-82379074D01*
X152329072Y-82358058D01*
X152329072Y-82358057D01*
X152335966Y-82347740D01*
X152350500Y-82274674D01*
X152350500Y-81725326D01*
X152335966Y-81652260D01*
X152281003Y-81570000D01*
X152259789Y-81502248D01*
X152281003Y-81429999D01*
X152289359Y-81417494D01*
X152335966Y-81347740D01*
X152350500Y-81274674D01*
X152350500Y-80725326D01*
X152335966Y-80652260D01*
X152280601Y-80569399D01*
X152197740Y-80514034D01*
X152124674Y-80499500D01*
X152059504Y-80499500D01*
X151991383Y-80479498D01*
X151970409Y-80462595D01*
X151837405Y-80329591D01*
X151803379Y-80267279D01*
X151800500Y-80240496D01*
X151800500Y-79700820D01*
X151820502Y-79632699D01*
X151850936Y-79599993D01*
X151857504Y-79595071D01*
X151857506Y-79595069D01*
X151864687Y-79589687D01*
X151870068Y-79582507D01*
X151870071Y-79582504D01*
X151933533Y-79497826D01*
X151946372Y-79480695D01*
X151994184Y-79353157D01*
X151995065Y-79345054D01*
X152000131Y-79298414D01*
X152000131Y-79298410D01*
X152000500Y-79295015D01*
X152000499Y-78704986D01*
X151994184Y-78646843D01*
X151946372Y-78519305D01*
X151864687Y-78410313D01*
X151755695Y-78328628D01*
X151628157Y-78280816D01*
X151620304Y-78279963D01*
X151620300Y-78279962D01*
X151573414Y-78274869D01*
X151573410Y-78274869D01*
X151570015Y-78274500D01*
X151300040Y-78274500D01*
X151029986Y-78274501D01*
X150971843Y-78280816D01*
X150844305Y-78328628D01*
X150735313Y-78410313D01*
X150653628Y-78519305D01*
X150650477Y-78527711D01*
X150649572Y-78530125D01*
X150648036Y-78532170D01*
X150646166Y-78535585D01*
X150645673Y-78535315D01*
X150606929Y-78586889D01*
X150540368Y-78611588D01*
X150471019Y-78596380D01*
X150422812Y-78548146D01*
X150421372Y-78544305D01*
X150339687Y-78435313D01*
X150332506Y-78429931D01*
X150320068Y-78417493D01*
X150314687Y-78410313D01*
X150205695Y-78328628D01*
X150201862Y-78327191D01*
X150153450Y-78278670D01*
X150138437Y-78209279D01*
X150163323Y-78142787D01*
X150214680Y-78104319D01*
X150214415Y-78103834D01*
X150217808Y-78101977D01*
X150219874Y-78100428D01*
X150230695Y-78096372D01*
X150339687Y-78014687D01*
X150421372Y-77905695D01*
X150437881Y-77861658D01*
X150466412Y-77785553D01*
X150466413Y-77785548D01*
X150469184Y-77778157D01*
X150469701Y-77773396D01*
X150476879Y-77752801D01*
X150498456Y-77706634D01*
X150500387Y-77702682D01*
X150529890Y-77644903D01*
X150533219Y-77638384D01*
X150534958Y-77631275D01*
X150537017Y-77625740D01*
X150538883Y-77620132D01*
X150541979Y-77613507D01*
X150549160Y-77578987D01*
X150556685Y-77542807D01*
X150557656Y-77538518D01*
X150566513Y-77502320D01*
X150574815Y-77468394D01*
X150575500Y-77457352D01*
X150575532Y-77457354D01*
X150575779Y-77453224D01*
X150576125Y-77449344D01*
X150577618Y-77442169D01*
X150577086Y-77422490D01*
X150575546Y-77365600D01*
X150575500Y-77362192D01*
X150575500Y-75991449D01*
X150595502Y-75923328D01*
X150621795Y-75896560D01*
X150621507Y-75896272D01*
X150630286Y-75887493D01*
X150640601Y-75880601D01*
X150695966Y-75797740D01*
X150710500Y-75724674D01*
X150710500Y-72376000D01*
X150730502Y-72307879D01*
X150784158Y-72261386D01*
X150836500Y-72250000D01*
X161374000Y-72250000D01*
X161442121Y-72270002D01*
G37*
%TD.AperFunction*%
%TA.AperFunction,Conductor*%
G36*
X133453355Y-87770002D02*
G01*
X133474328Y-87786903D01*
X133479932Y-87792507D01*
X133485313Y-87799687D01*
X133492493Y-87805068D01*
X133492496Y-87805071D01*
X133527567Y-87831355D01*
X133594305Y-87881372D01*
X133721843Y-87929184D01*
X133729696Y-87930037D01*
X133729700Y-87930038D01*
X133776586Y-87935131D01*
X133776590Y-87935131D01*
X133779985Y-87935500D01*
X134049960Y-87935500D01*
X134320014Y-87935499D01*
X134378157Y-87929184D01*
X134505695Y-87881372D01*
X134572433Y-87831355D01*
X134607504Y-87805071D01*
X134607507Y-87805068D01*
X134614687Y-87799687D01*
X134620068Y-87792507D01*
X134625672Y-87786903D01*
X134687985Y-87752879D01*
X134714766Y-87750000D01*
X134935234Y-87750000D01*
X135003355Y-87770002D01*
X135024328Y-87786903D01*
X135029932Y-87792507D01*
X135035313Y-87799687D01*
X135042493Y-87805068D01*
X135042496Y-87805071D01*
X135077567Y-87831355D01*
X135144305Y-87881372D01*
X135271843Y-87929184D01*
X135279696Y-87930037D01*
X135279700Y-87930038D01*
X135326586Y-87935131D01*
X135326590Y-87935131D01*
X135329985Y-87935500D01*
X135599960Y-87935500D01*
X135870014Y-87935499D01*
X135928157Y-87929184D01*
X136055695Y-87881372D01*
X136122433Y-87831355D01*
X136157504Y-87805071D01*
X136157507Y-87805068D01*
X136164687Y-87799687D01*
X136170068Y-87792507D01*
X136175672Y-87786903D01*
X136237985Y-87752879D01*
X136264766Y-87750000D01*
X136534150Y-87750000D01*
X136602271Y-87770002D01*
X136608491Y-87774777D01*
X136608600Y-87774623D01*
X136614794Y-87779025D01*
X136620410Y-87784135D01*
X136664141Y-87807879D01*
X136752099Y-87855637D01*
X136752101Y-87855638D01*
X136758776Y-87859262D01*
X136766125Y-87861190D01*
X136903719Y-87897287D01*
X136903721Y-87897287D01*
X136911069Y-87899215D01*
X136994380Y-87900524D01*
X137060898Y-87901569D01*
X137060901Y-87901569D01*
X137068495Y-87901688D01*
X137221968Y-87866538D01*
X137362625Y-87795795D01*
X137380898Y-87780189D01*
X137445686Y-87751158D01*
X137462728Y-87750000D01*
X138223500Y-87750000D01*
X138291621Y-87770002D01*
X138338114Y-87823658D01*
X138349500Y-87876000D01*
X138349500Y-88878500D01*
X138329498Y-88946621D01*
X138275842Y-88993114D01*
X138223500Y-89004500D01*
X136766782Y-89004500D01*
X136762232Y-89005170D01*
X136762229Y-89005170D01*
X136738575Y-89008652D01*
X136697888Y-89014642D01*
X136689097Y-89018958D01*
X136689094Y-89018959D01*
X136642974Y-89041603D01*
X136587444Y-89054500D01*
X136173083Y-89054500D01*
X136104962Y-89034498D01*
X136083987Y-89017595D01*
X135837856Y-88771463D01*
X135565909Y-88499516D01*
X135565895Y-88499503D01*
X135543342Y-88476950D01*
X135523746Y-88466965D01*
X135506893Y-88456639D01*
X135489090Y-88443704D01*
X135468166Y-88436905D01*
X135449906Y-88429341D01*
X135439141Y-88423856D01*
X135439137Y-88423855D01*
X135430304Y-88419354D01*
X135420513Y-88417803D01*
X135420512Y-88417803D01*
X135408578Y-88415913D01*
X135389353Y-88411297D01*
X135377868Y-88407565D01*
X135377864Y-88407564D01*
X135368433Y-88404500D01*
X134212570Y-88404500D01*
X134157237Y-88391700D01*
X134129130Y-88377961D01*
X134101518Y-88364464D01*
X134071027Y-88360016D01*
X134037744Y-88355160D01*
X134037740Y-88355160D01*
X134033218Y-88354500D01*
X133376000Y-88354500D01*
X133307879Y-88334498D01*
X133261386Y-88280842D01*
X133250000Y-88228500D01*
X133250000Y-87876000D01*
X133270002Y-87807879D01*
X133323658Y-87761386D01*
X133376000Y-87750000D01*
X133385234Y-87750000D01*
X133453355Y-87770002D01*
G37*
%TD.AperFunction*%
%TA.AperFunction,Conductor*%
G36*
X157796672Y-81770502D02*
G01*
X157823440Y-81796795D01*
X157823728Y-81796507D01*
X157832507Y-81805286D01*
X157839399Y-81815601D01*
X157922260Y-81870966D01*
X157995326Y-81885500D01*
X161374000Y-81885500D01*
X161442121Y-81905502D01*
X161488614Y-81959158D01*
X161500000Y-82011500D01*
X161500000Y-85688500D01*
X161479998Y-85756621D01*
X161426342Y-85803114D01*
X161374000Y-85814500D01*
X157995326Y-85814500D01*
X157922260Y-85829034D01*
X157839399Y-85884399D01*
X157832507Y-85894714D01*
X157799909Y-85943501D01*
X157745432Y-85989029D01*
X157695143Y-85999500D01*
X155176178Y-85999500D01*
X155097386Y-86008686D01*
X155053443Y-86013809D01*
X155053441Y-86013810D01*
X155046172Y-86014657D01*
X155039291Y-86017155D01*
X155032167Y-86018839D01*
X155032044Y-86018319D01*
X154996893Y-86024501D01*
X154949986Y-86024501D01*
X154891843Y-86030816D01*
X154764305Y-86078628D01*
X154655313Y-86160313D01*
X154573628Y-86269305D01*
X154570476Y-86277714D01*
X154570475Y-86277715D01*
X154564009Y-86294963D01*
X154521368Y-86351728D01*
X154454807Y-86376428D01*
X154385458Y-86361221D01*
X154342630Y-86318370D01*
X154341376Y-86319310D01*
X154339682Y-86317050D01*
X154337710Y-86313448D01*
X154335509Y-86311246D01*
X154331679Y-86304251D01*
X154332444Y-86303832D01*
X154322522Y-86285711D01*
X154316372Y-86269305D01*
X154310992Y-86262126D01*
X154310990Y-86262123D01*
X154240068Y-86167493D01*
X154234687Y-86160313D01*
X154227506Y-86154931D01*
X154131928Y-86083299D01*
X154089413Y-86026440D01*
X154084387Y-85955621D01*
X154118447Y-85893328D01*
X154144817Y-85873576D01*
X154150695Y-85871372D01*
X154259687Y-85789687D01*
X154341372Y-85680695D01*
X154389184Y-85553157D01*
X154390037Y-85545304D01*
X154390038Y-85545300D01*
X154395131Y-85498414D01*
X154395131Y-85498410D01*
X154395500Y-85495015D01*
X154395500Y-85450262D01*
X154398973Y-85424407D01*
X154398828Y-85424385D01*
X154424048Y-85258604D01*
X154424048Y-85258600D01*
X154425148Y-85251370D01*
X154424313Y-85241095D01*
X154415915Y-85137850D01*
X154415500Y-85127636D01*
X154415500Y-82956178D01*
X154402312Y-82843057D01*
X154401191Y-82833444D01*
X154401191Y-82833442D01*
X154400343Y-82826172D01*
X154394450Y-82809935D01*
X154343128Y-82668548D01*
X154340631Y-82661669D01*
X154244677Y-82515315D01*
X154200970Y-82473911D01*
X154165272Y-82412542D01*
X154161865Y-82390243D01*
X154160697Y-82371419D01*
X154160697Y-82371417D01*
X154160141Y-82362462D01*
X154157095Y-82354025D01*
X154156329Y-82350325D01*
X154152657Y-82335601D01*
X154151596Y-82331973D01*
X154150323Y-82323082D01*
X154131061Y-82280718D01*
X154127254Y-82271363D01*
X154114509Y-82236057D01*
X154114507Y-82236053D01*
X154111460Y-82227613D01*
X154106165Y-82220365D01*
X154104389Y-82217025D01*
X154096726Y-82203911D01*
X154094697Y-82200739D01*
X154090984Y-82192572D01*
X154085129Y-82185777D01*
X154085127Y-82185774D01*
X154060613Y-82157325D01*
X154054324Y-82149404D01*
X154049352Y-82142598D01*
X154046478Y-82138664D01*
X154035735Y-82127921D01*
X154029377Y-82121074D01*
X154007255Y-82095400D01*
X153997400Y-82083963D01*
X153989866Y-82079080D01*
X153983104Y-82073181D01*
X153983108Y-82073176D01*
X153972014Y-82064200D01*
X153873409Y-81965595D01*
X153839383Y-81903283D01*
X153844448Y-81832468D01*
X153886995Y-81775632D01*
X153953515Y-81750821D01*
X153962504Y-81750500D01*
X157728551Y-81750500D01*
X157796672Y-81770502D01*
G37*
%TD.AperFunction*%
%TA.AperFunction,Conductor*%
G36*
X135427056Y-80333002D02*
G01*
X135473549Y-80386658D01*
X135483653Y-80456932D01*
X135454159Y-80521512D01*
X135428936Y-80543766D01*
X135369990Y-80583152D01*
X135356899Y-80591899D01*
X135301534Y-80674760D01*
X135287000Y-80747826D01*
X135287000Y-81077174D01*
X135301534Y-81150240D01*
X135356899Y-81233101D01*
X135367214Y-81239993D01*
X135428199Y-81280741D01*
X135439760Y-81288466D01*
X135504981Y-81301439D01*
X135567890Y-81334346D01*
X135603022Y-81396041D01*
X135599222Y-81466936D01*
X135569494Y-81514113D01*
X135108512Y-81975095D01*
X135046200Y-82009121D01*
X135019417Y-82012000D01*
X134859959Y-82012000D01*
X134791838Y-81991998D01*
X134748555Y-81940205D01*
X134748466Y-81939760D01*
X134720455Y-81897837D01*
X134709597Y-81881587D01*
X134693101Y-81856899D01*
X134610240Y-81801534D01*
X134537174Y-81787000D01*
X133637826Y-81787000D01*
X133564760Y-81801534D01*
X133481899Y-81856899D01*
X133426534Y-81939760D01*
X133412000Y-82012826D01*
X133412000Y-82728443D01*
X133391998Y-82796564D01*
X133338342Y-82843057D01*
X133268068Y-82853161D01*
X133260338Y-82851040D01*
X133260240Y-82851534D01*
X133187174Y-82837000D01*
X132287826Y-82837000D01*
X132281753Y-82838208D01*
X132276352Y-82838740D01*
X132206598Y-82825512D01*
X132155070Y-82776673D01*
X132138000Y-82713347D01*
X132138000Y-81429000D01*
X132158002Y-81360879D01*
X132211658Y-81314386D01*
X132264000Y-81303000D01*
X132682174Y-81303000D01*
X132755240Y-81288466D01*
X132766802Y-81280741D01*
X132827786Y-81239993D01*
X132838101Y-81233101D01*
X132893466Y-81150240D01*
X132908000Y-81077174D01*
X132908000Y-80747826D01*
X132895917Y-80687082D01*
X132895917Y-80637918D01*
X132903019Y-80602214D01*
X132908000Y-80577174D01*
X132908000Y-80439000D01*
X132928002Y-80370879D01*
X132981658Y-80324386D01*
X133034000Y-80313000D01*
X135358935Y-80313000D01*
X135427056Y-80333002D01*
G37*
%TD.AperFunction*%
%TD*%
M02*
