%TF.GenerationSoftware,KiCad,Pcbnew,(6.0.1)*%
%TF.CreationDate,2022-08-02T08:39:06+02:00*%
%TF.ProjectId,DetectorReader,44657465-6374-46f7-9252-65616465722e,rev?*%
%TF.SameCoordinates,Original*%
%TF.FileFunction,Copper,L2,Bot*%
%TF.FilePolarity,Positive*%
%FSLAX46Y46*%
G04 Gerber Fmt 4.6, Leading zero omitted, Abs format (unit mm)*
G04 Created by KiCad (PCBNEW (6.0.1)) date 2022-08-02 08:39:06*
%MOMM*%
%LPD*%
G01*
G04 APERTURE LIST*
%TA.AperFunction,ComponentPad*%
%ADD10C,1.700000*%
%TD*%
%TA.AperFunction,SMDPad,CuDef*%
%ADD11R,1.350000X4.200000*%
%TD*%
%TA.AperFunction,ComponentPad*%
%ADD12R,1.700000X1.700000*%
%TD*%
%TA.AperFunction,ComponentPad*%
%ADD13O,1.700000X1.700000*%
%TD*%
%TA.AperFunction,SMDPad,CuDef*%
%ADD14R,4.200000X1.350000*%
%TD*%
%TA.AperFunction,ComponentPad*%
%ADD15O,1.550000X0.890000*%
%TD*%
%TA.AperFunction,ComponentPad*%
%ADD16O,0.950000X1.250000*%
%TD*%
%TA.AperFunction,ViaPad*%
%ADD17C,0.800000*%
%TD*%
%TA.AperFunction,ViaPad*%
%ADD18C,0.700000*%
%TD*%
%TA.AperFunction,ViaPad*%
%ADD19C,5.000000*%
%TD*%
%TA.AperFunction,Conductor*%
%ADD20C,0.500000*%
%TD*%
%TA.AperFunction,Conductor*%
%ADD21C,0.300000*%
%TD*%
%TA.AperFunction,Conductor*%
%ADD22C,1.000000*%
%TD*%
G04 APERTURE END LIST*
D10*
%TO.P,J6,1,Pin_1*%
%TO.N,/RF_Rx/Signal*%
X148100000Y-94860000D03*
%TD*%
%TO.P,J8,1,Pin_1*%
%TO.N,/RF_Rx/Amp2*%
X127780000Y-92320000D03*
%TD*%
D11*
%TO.P,J4,2,Ext*%
%TO.N,GND*%
X147000000Y-74100000D03*
X152650000Y-74100000D03*
%TD*%
D10*
%TO.P,J9,1,Pin_1*%
%TO.N,/TagPulses*%
X127780000Y-94860000D03*
%TD*%
D12*
%TO.P,SW1,1,A*%
%TO.N,/ReaderPulses*%
X125240000Y-84700000D03*
D13*
%TO.P,SW1,2,B*%
%TO.N,/RF_Tx/Mod*%
X127780000Y-84700000D03*
%TD*%
D14*
%TO.P,J5,2,Ext*%
%TO.N,GND*%
X159620000Y-89525000D03*
X159620000Y-83875000D03*
%TD*%
%TO.P,J3,2,Ext*%
%TO.N,GND*%
X159620000Y-83825000D03*
X159620000Y-78175000D03*
%TD*%
D10*
%TO.P,J7,1,Pin_1*%
%TO.N,/RF_Rx/Amp1*%
X140480000Y-92320000D03*
%TD*%
D15*
%TO.P,J1,6,Shield*%
%TO.N,GND*%
X111450000Y-74000000D03*
D16*
X114150000Y-80000000D03*
X114150000Y-75000000D03*
D15*
X111450000Y-81000000D03*
%TD*%
D12*
%TO.P,J2,1,Pin_1*%
%TO.N,/UPDI*%
X112540000Y-97400000D03*
D13*
%TO.P,J2,2,Pin_2*%
%TO.N,GND*%
X112540000Y-94860000D03*
%TO.P,J2,3,Pin_3*%
%TO.N,+5V*%
X112540000Y-92320000D03*
%TO.P,J2,4,Pin_4*%
%TO.N,/uartTx*%
X112540000Y-89780000D03*
%TO.P,J2,5,Pin_5*%
%TO.N,/uartRx*%
X112540000Y-87240000D03*
%TD*%
D17*
%TO.N,GND*%
X151750000Y-93250000D03*
X152250000Y-89500000D03*
X157487060Y-96738791D03*
X157500000Y-93750000D03*
X146000000Y-85750000D03*
X149750000Y-85500000D03*
X142750000Y-83250000D03*
X140500000Y-81250000D03*
X140500000Y-82750000D03*
X137750000Y-76000000D03*
X136750000Y-77750000D03*
X152500000Y-78750000D03*
X148250000Y-77000000D03*
X148250000Y-80750000D03*
X145250000Y-80750000D03*
X147250000Y-80750000D03*
X146250000Y-80750000D03*
X148000000Y-80000000D03*
X145500000Y-80000000D03*
D18*
X146750000Y-78500000D03*
X146250000Y-79000000D03*
X147250000Y-79000000D03*
X147250000Y-78000000D03*
X146250000Y-78000000D03*
D17*
X145750000Y-82750000D03*
X152250000Y-84750000D03*
X154750000Y-82500000D03*
X154716236Y-79486558D03*
X156250000Y-79500000D03*
X152500000Y-80200000D03*
%TO.N,+5V*%
X144000000Y-84500000D03*
X141000000Y-76250000D03*
%TO.N,GND*%
X141000000Y-77750000D03*
X144000000Y-77750000D03*
X139500000Y-77750000D03*
X142500000Y-77750000D03*
X156250000Y-91250000D03*
X151845000Y-77500000D03*
X157750000Y-76500000D03*
X120250000Y-90750000D03*
X155170000Y-85500000D03*
X147242857Y-87008577D03*
X156420000Y-83250000D03*
X142500000Y-80250000D03*
X116000000Y-98210000D03*
X118500000Y-96750000D03*
X135987500Y-83000000D03*
X121750000Y-86750000D03*
X119750000Y-93960000D03*
X157500000Y-95250000D03*
X151920000Y-86750000D03*
X152500000Y-82800000D03*
X123000000Y-84000000D03*
X155145000Y-88250000D03*
X147250000Y-92750000D03*
D19*
X134000000Y-75000000D03*
D17*
X153595000Y-77500000D03*
X117750000Y-73750000D03*
X136250000Y-88250000D03*
X156420000Y-84750000D03*
X150145000Y-94000000D03*
X154155000Y-73000000D03*
X160670000Y-91250000D03*
X159250000Y-91250000D03*
X139462500Y-80250000D03*
X135000000Y-96250000D03*
X145405000Y-76000000D03*
X154155000Y-76000000D03*
X125850000Y-81500000D03*
X134750000Y-93000000D03*
X160750000Y-76500000D03*
X121600000Y-78250000D03*
X134737500Y-78912500D03*
X145405000Y-74500000D03*
X156250000Y-89750000D03*
X157750000Y-91250000D03*
X140962500Y-80250000D03*
X123850000Y-77000000D03*
X145405000Y-73000000D03*
X133458769Y-80756889D03*
X156250000Y-78000000D03*
X152000000Y-91750000D03*
X159250000Y-76500000D03*
X144000000Y-80250000D03*
X127100000Y-74750000D03*
X131000000Y-91710000D03*
X154155000Y-74500000D03*
%TO.N,+5V*%
X133750000Y-91750000D03*
X144000000Y-94000000D03*
X117250000Y-79250000D03*
X138000000Y-91750000D03*
X153000000Y-97500000D03*
X121500000Y-97500000D03*
%TO.N,/RF_Rx/Amp1*%
X137000000Y-87250000D03*
%TO.N,/uartTx*%
X118600000Y-76750000D03*
%TO.N,/uartRx*%
X123850000Y-74749018D03*
%TD*%
D20*
%TO.N,+5V*%
X138250000Y-83250000D02*
X139500000Y-84500000D01*
X138250000Y-77250000D02*
X138250000Y-83250000D01*
X139250000Y-76250000D02*
X138250000Y-77250000D01*
X141000000Y-76250000D02*
X139250000Y-76250000D01*
X139500000Y-84500000D02*
X144000000Y-84500000D01*
X144000000Y-84500000D02*
X144000000Y-94000000D01*
D21*
%TO.N,/uartRx*%
X118750982Y-74749018D02*
X123850000Y-74749018D01*
%TO.N,/uartTx*%
X118000000Y-76750000D02*
X118600000Y-76750000D01*
X116000000Y-86210000D02*
X116000000Y-78750000D01*
X112540000Y-89780000D02*
X112540000Y-89670000D01*
X112540000Y-89670000D02*
X116000000Y-86210000D01*
X116000000Y-78750000D02*
X118000000Y-76750000D01*
D22*
%TO.N,+5V*%
X144000000Y-94000000D02*
X144000000Y-97500000D01*
X115430000Y-92320000D02*
X112540000Y-92320000D01*
X115860000Y-92320000D02*
X112540000Y-92320000D01*
X117250000Y-79250000D02*
X117250000Y-90500000D01*
D20*
X138000000Y-91750000D02*
X140250000Y-94000000D01*
D22*
X144000000Y-97500000D02*
X153000000Y-97500000D01*
X121040000Y-97500000D02*
X115860000Y-92320000D01*
D20*
X140250000Y-94000000D02*
X144000000Y-94000000D01*
D22*
X121500000Y-97500000D02*
X121040000Y-97500000D01*
X117250000Y-90500000D02*
X115430000Y-92320000D01*
X121500000Y-97500000D02*
X144000000Y-97500000D01*
D20*
X133750000Y-91750000D02*
X138000000Y-91750000D01*
%TO.N,/RF_Rx/Amp1*%
X137000000Y-87250000D02*
X140480000Y-90730000D01*
X140480000Y-90730000D02*
X140480000Y-92320000D01*
D21*
%TO.N,/uartTx*%
X116000000Y-85000000D02*
X116000000Y-85210000D01*
%TO.N,/uartRx*%
X115250000Y-85500000D02*
X113510000Y-87240000D01*
X115250000Y-78250000D02*
X115250000Y-85500000D01*
X118750982Y-74749018D02*
X115250000Y-78250000D01*
X113510000Y-87240000D02*
X112540000Y-87240000D01*
%TD*%
%TA.AperFunction,Conductor*%
%TO.N,GND*%
G36*
X161442121Y-72270002D02*
G01*
X161488614Y-72323658D01*
X161500000Y-72376000D01*
X161500000Y-99124000D01*
X161479998Y-99192121D01*
X161426342Y-99238614D01*
X161374000Y-99250000D01*
X110376000Y-99250000D01*
X110307879Y-99229998D01*
X110261386Y-99176342D01*
X110250000Y-99124000D01*
X110250000Y-98274674D01*
X111439500Y-98274674D01*
X111454034Y-98347740D01*
X111509399Y-98430601D01*
X111592260Y-98485966D01*
X111665326Y-98500500D01*
X113414674Y-98500500D01*
X113487740Y-98485966D01*
X113570601Y-98430601D01*
X113625966Y-98347740D01*
X113640500Y-98274674D01*
X113640500Y-96525326D01*
X113625966Y-96452260D01*
X113570601Y-96369399D01*
X113487740Y-96314034D01*
X113414674Y-96299500D01*
X111665326Y-96299500D01*
X111592260Y-96314034D01*
X111509399Y-96369399D01*
X111454034Y-96452260D01*
X111439500Y-96525326D01*
X111439500Y-98274674D01*
X110250000Y-98274674D01*
X110250000Y-92291069D01*
X111435164Y-92291069D01*
X111448392Y-92492894D01*
X111498178Y-92688928D01*
X111582856Y-92872607D01*
X111699588Y-93037780D01*
X111703730Y-93041815D01*
X111813965Y-93149201D01*
X111844466Y-93178913D01*
X112012637Y-93291282D01*
X112017940Y-93293560D01*
X112017943Y-93293562D01*
X112106291Y-93331519D01*
X112198470Y-93371122D01*
X112395740Y-93415760D01*
X112401509Y-93415987D01*
X112401512Y-93415987D01*
X112477683Y-93418979D01*
X112597842Y-93423700D01*
X112684132Y-93411189D01*
X112792286Y-93395508D01*
X112792291Y-93395507D01*
X112798007Y-93394678D01*
X112803479Y-93392820D01*
X112803481Y-93392820D01*
X112984067Y-93331519D01*
X112984069Y-93331518D01*
X112989531Y-93329664D01*
X113166001Y-93230837D01*
X113228433Y-93178913D01*
X113321505Y-93101505D01*
X113322804Y-93103067D01*
X113377171Y-93073379D01*
X113403954Y-93070500D01*
X115363546Y-93070500D01*
X115382496Y-93071933D01*
X115396396Y-93074048D01*
X115396400Y-93074048D01*
X115403630Y-93075148D01*
X115410922Y-93074555D01*
X115410925Y-93074555D01*
X115455675Y-93070915D01*
X115465889Y-93070500D01*
X115496943Y-93070500D01*
X115565064Y-93090502D01*
X115586038Y-93107405D01*
X120462322Y-97983689D01*
X120474709Y-97998102D01*
X120483041Y-98009425D01*
X120483045Y-98009429D01*
X120487383Y-98015324D01*
X120527200Y-98049151D01*
X120534704Y-98056071D01*
X120540303Y-98061670D01*
X120562351Y-98079114D01*
X120565727Y-98081883D01*
X120615175Y-98123892D01*
X120615178Y-98123894D01*
X120620755Y-98128632D01*
X120627274Y-98131960D01*
X120632184Y-98135235D01*
X120637204Y-98138336D01*
X120642949Y-98142881D01*
X120649587Y-98145983D01*
X120649588Y-98145984D01*
X120708343Y-98173444D01*
X120712289Y-98175372D01*
X120776616Y-98208219D01*
X120783725Y-98209958D01*
X120789260Y-98212017D01*
X120794868Y-98213883D01*
X120801493Y-98216979D01*
X120808653Y-98218468D01*
X120808655Y-98218469D01*
X120872184Y-98231683D01*
X120876468Y-98232653D01*
X120946606Y-98249815D01*
X120952206Y-98250162D01*
X120952210Y-98250163D01*
X120957648Y-98250500D01*
X120957646Y-98250531D01*
X120961770Y-98250780D01*
X120965672Y-98251128D01*
X120972830Y-98252617D01*
X121049378Y-98250546D01*
X121052786Y-98250500D01*
X143972435Y-98250500D01*
X143980237Y-98250742D01*
X144040862Y-98254503D01*
X144048078Y-98253263D01*
X144048079Y-98253263D01*
X144049947Y-98252942D01*
X144053568Y-98252320D01*
X144074904Y-98250500D01*
X153043822Y-98250500D01*
X153135369Y-98239827D01*
X153166556Y-98236191D01*
X153166558Y-98236191D01*
X153173828Y-98235343D01*
X153180705Y-98232847D01*
X153180708Y-98232846D01*
X153331452Y-98178128D01*
X153338331Y-98175631D01*
X153484685Y-98079677D01*
X153605040Y-97952628D01*
X153692939Y-97801298D01*
X153743667Y-97633807D01*
X153754503Y-97459138D01*
X153724866Y-97286660D01*
X153656346Y-97125627D01*
X153552617Y-96984676D01*
X153547039Y-96979937D01*
X153547036Y-96979934D01*
X153424824Y-96876107D01*
X153424820Y-96876104D01*
X153419245Y-96871368D01*
X153263384Y-96791781D01*
X153256279Y-96790042D01*
X153256275Y-96790041D01*
X153175142Y-96770189D01*
X153093394Y-96750185D01*
X153087794Y-96749838D01*
X153087790Y-96749837D01*
X153084291Y-96749620D01*
X153084282Y-96749620D01*
X153082352Y-96749500D01*
X144876500Y-96749500D01*
X144808379Y-96729498D01*
X144761886Y-96675842D01*
X144750500Y-96623500D01*
X144750500Y-94831069D01*
X146995164Y-94831069D01*
X147008392Y-95032894D01*
X147058178Y-95228928D01*
X147142856Y-95412607D01*
X147259588Y-95577780D01*
X147404466Y-95718913D01*
X147572637Y-95831282D01*
X147577940Y-95833560D01*
X147577943Y-95833562D01*
X147666291Y-95871519D01*
X147758470Y-95911122D01*
X147955740Y-95955760D01*
X147961509Y-95955987D01*
X147961512Y-95955987D01*
X148037683Y-95958979D01*
X148157842Y-95963700D01*
X148244132Y-95951189D01*
X148352286Y-95935508D01*
X148352291Y-95935507D01*
X148358007Y-95934678D01*
X148363479Y-95932820D01*
X148363481Y-95932820D01*
X148544067Y-95871519D01*
X148544069Y-95871518D01*
X148549531Y-95869664D01*
X148726001Y-95770837D01*
X148788433Y-95718913D01*
X148877073Y-95645191D01*
X148881505Y-95641505D01*
X149010837Y-95486001D01*
X149109664Y-95309531D01*
X149174678Y-95118007D01*
X149175507Y-95112291D01*
X149175508Y-95112286D01*
X149203167Y-94921516D01*
X149203700Y-94917842D01*
X149205215Y-94860000D01*
X149186708Y-94658591D01*
X149177658Y-94626500D01*
X149141911Y-94499751D01*
X149131807Y-94463926D01*
X149042351Y-94282527D01*
X149024079Y-94258057D01*
X148924788Y-94125091D01*
X148924787Y-94125090D01*
X148921335Y-94120467D01*
X148898350Y-94099220D01*
X148777053Y-93987094D01*
X148777051Y-93987092D01*
X148772812Y-93983174D01*
X148745374Y-93965862D01*
X148606637Y-93878325D01*
X148601757Y-93875246D01*
X148413898Y-93800298D01*
X148215526Y-93760839D01*
X148209752Y-93760763D01*
X148209748Y-93760763D01*
X148107257Y-93759422D01*
X148013286Y-93758192D01*
X148007589Y-93759171D01*
X148007588Y-93759171D01*
X147819646Y-93791465D01*
X147819645Y-93791465D01*
X147813949Y-93792444D01*
X147624193Y-93862449D01*
X147450371Y-93965862D01*
X147298305Y-94099220D01*
X147173089Y-94258057D01*
X147078914Y-94437053D01*
X147018937Y-94630213D01*
X146995164Y-94831069D01*
X144750500Y-94831069D01*
X144750500Y-93956178D01*
X144739572Y-93862449D01*
X144736191Y-93833444D01*
X144736191Y-93833442D01*
X144735343Y-93826172D01*
X144723101Y-93792444D01*
X144678128Y-93668548D01*
X144675631Y-93661669D01*
X144579677Y-93515315D01*
X144539847Y-93477583D01*
X144504149Y-93416215D01*
X144500500Y-93386111D01*
X144500500Y-84958857D01*
X144524177Y-84885331D01*
X144533114Y-84872894D01*
X144574224Y-84815683D01*
X144632950Y-84669598D01*
X144655134Y-84513723D01*
X144655202Y-84507254D01*
X144655235Y-84504134D01*
X144655235Y-84504128D01*
X144655278Y-84500000D01*
X144636363Y-84343694D01*
X144632289Y-84332911D01*
X144583394Y-84203514D01*
X144583393Y-84203511D01*
X144580710Y-84196412D01*
X144491531Y-84066657D01*
X144414649Y-83998157D01*
X144379648Y-83966972D01*
X144379645Y-83966970D01*
X144373976Y-83961919D01*
X144234831Y-83888245D01*
X144218122Y-83884048D01*
X144089498Y-83851740D01*
X144089496Y-83851740D01*
X144082128Y-83849889D01*
X144074530Y-83849849D01*
X144074528Y-83849849D01*
X144007319Y-83849497D01*
X143924684Y-83849065D01*
X143917305Y-83850837D01*
X143917301Y-83850837D01*
X143778967Y-83884048D01*
X143778963Y-83884049D01*
X143771588Y-83885820D01*
X143631679Y-83958032D01*
X143619737Y-83968450D01*
X143555257Y-83998157D01*
X143536909Y-83999500D01*
X139759504Y-83999500D01*
X139691383Y-83979498D01*
X139670409Y-83962595D01*
X138787405Y-83079591D01*
X138753379Y-83017279D01*
X138750500Y-82990496D01*
X138750500Y-77509504D01*
X138770502Y-77441383D01*
X138787405Y-77420409D01*
X139420409Y-76787405D01*
X139482721Y-76753379D01*
X139509504Y-76750500D01*
X140534700Y-76750500D01*
X140602821Y-76770502D01*
X140608454Y-76774827D01*
X140608600Y-76774622D01*
X140614790Y-76779021D01*
X140620410Y-76784135D01*
X140627087Y-76787760D01*
X140627088Y-76787761D01*
X140752099Y-76855637D01*
X140752101Y-76855638D01*
X140758776Y-76859262D01*
X140766125Y-76861190D01*
X140903719Y-76897287D01*
X140903721Y-76897287D01*
X140911069Y-76899215D01*
X140994380Y-76900524D01*
X141060898Y-76901569D01*
X141060901Y-76901569D01*
X141068495Y-76901688D01*
X141221968Y-76866538D01*
X141362625Y-76795795D01*
X141421054Y-76745892D01*
X141476574Y-76698474D01*
X141476576Y-76698471D01*
X141482348Y-76693542D01*
X141574224Y-76565683D01*
X141632950Y-76419598D01*
X141646710Y-76322917D01*
X141654553Y-76267807D01*
X141654553Y-76267804D01*
X141655134Y-76263723D01*
X141655278Y-76250000D01*
X141636363Y-76093694D01*
X141580710Y-75946412D01*
X141491531Y-75816657D01*
X141433190Y-75764677D01*
X141379648Y-75716972D01*
X141379645Y-75716970D01*
X141373976Y-75711919D01*
X141234831Y-75638245D01*
X141218122Y-75634048D01*
X141089498Y-75601740D01*
X141089496Y-75601740D01*
X141082128Y-75599889D01*
X141074530Y-75599849D01*
X141074528Y-75599849D01*
X141007319Y-75599497D01*
X140924684Y-75599065D01*
X140917305Y-75600837D01*
X140917301Y-75600837D01*
X140778967Y-75634048D01*
X140778963Y-75634049D01*
X140771588Y-75635820D01*
X140631679Y-75708032D01*
X140619737Y-75718450D01*
X140555257Y-75748157D01*
X140536909Y-75749500D01*
X139320181Y-75749500D01*
X139308296Y-75748172D01*
X139308255Y-75748682D01*
X139299309Y-75747962D01*
X139290553Y-75745981D01*
X139255482Y-75748157D01*
X139237736Y-75749258D01*
X139229933Y-75749500D01*
X139214060Y-75749500D01*
X139203948Y-75750948D01*
X139193894Y-75751978D01*
X139165903Y-75753715D01*
X139147462Y-75754859D01*
X139139018Y-75757907D01*
X139135306Y-75758676D01*
X139120601Y-75762343D01*
X139116973Y-75763404D01*
X139108082Y-75764677D01*
X139065718Y-75783939D01*
X139056363Y-75787746D01*
X139021057Y-75800491D01*
X139021053Y-75800493D01*
X139012613Y-75803540D01*
X139005365Y-75808835D01*
X139002025Y-75810611D01*
X138988911Y-75818274D01*
X138985739Y-75820303D01*
X138977572Y-75824016D01*
X138970777Y-75829871D01*
X138970774Y-75829873D01*
X138942325Y-75854387D01*
X138934405Y-75860675D01*
X138923664Y-75868522D01*
X138912921Y-75879265D01*
X138906075Y-75885623D01*
X138868963Y-75917600D01*
X138864080Y-75925134D01*
X138858181Y-75931896D01*
X138858176Y-75931892D01*
X138849200Y-75942986D01*
X137945720Y-76846466D01*
X137936376Y-76853932D01*
X137936708Y-76854322D01*
X137929872Y-76860140D01*
X137922280Y-76864930D01*
X137916338Y-76871658D01*
X137916337Y-76871659D01*
X137887245Y-76904600D01*
X137881898Y-76910288D01*
X137870680Y-76921506D01*
X137867991Y-76925094D01*
X137867990Y-76925095D01*
X137864550Y-76929684D01*
X137858168Y-76937523D01*
X137827377Y-76972388D01*
X137823563Y-76980511D01*
X137821492Y-76983664D01*
X137813673Y-76996676D01*
X137811856Y-76999995D01*
X137806474Y-77007176D01*
X137803325Y-77015577D01*
X137803324Y-77015578D01*
X137790144Y-77050736D01*
X137786217Y-77060053D01*
X137770263Y-77094034D01*
X137770262Y-77094037D01*
X137766447Y-77102163D01*
X137765065Y-77111037D01*
X137763961Y-77114650D01*
X137760115Y-77129307D01*
X137759301Y-77133010D01*
X137756148Y-77141420D01*
X137752698Y-77187843D01*
X137751548Y-77197856D01*
X137749500Y-77211009D01*
X137749500Y-77226204D01*
X137749154Y-77235541D01*
X137745524Y-77284392D01*
X137747397Y-77293168D01*
X137748008Y-77302125D01*
X137748002Y-77302125D01*
X137749500Y-77316318D01*
X137749500Y-83179819D01*
X137748172Y-83191704D01*
X137748682Y-83191745D01*
X137747962Y-83200691D01*
X137745981Y-83209447D01*
X137746537Y-83218407D01*
X137749258Y-83262264D01*
X137749500Y-83270067D01*
X137749500Y-83285940D01*
X137750135Y-83290374D01*
X137750948Y-83296050D01*
X137751978Y-83306106D01*
X137754859Y-83352538D01*
X137757907Y-83360982D01*
X137758676Y-83364694D01*
X137762343Y-83379399D01*
X137763404Y-83383027D01*
X137764677Y-83391918D01*
X137783939Y-83434282D01*
X137787746Y-83443637D01*
X137800491Y-83478943D01*
X137800493Y-83478947D01*
X137803540Y-83487387D01*
X137808835Y-83494635D01*
X137810611Y-83497975D01*
X137818274Y-83511089D01*
X137820303Y-83514261D01*
X137824016Y-83522428D01*
X137829871Y-83529223D01*
X137829873Y-83529226D01*
X137854387Y-83557675D01*
X137860675Y-83565595D01*
X137868522Y-83576336D01*
X137879265Y-83587079D01*
X137885623Y-83593925D01*
X137917600Y-83631037D01*
X137925134Y-83635920D01*
X137931896Y-83641819D01*
X137931892Y-83641824D01*
X137942986Y-83650800D01*
X139077092Y-84784905D01*
X139111117Y-84847217D01*
X139106053Y-84918032D01*
X139063506Y-84974868D01*
X138996986Y-84999679D01*
X138987997Y-85000000D01*
X131750000Y-85000000D01*
X131750000Y-86250000D01*
X143373500Y-86250000D01*
X143441621Y-86270002D01*
X143488114Y-86323658D01*
X143499500Y-86376000D01*
X143499500Y-93373500D01*
X143479498Y-93441621D01*
X143425842Y-93488114D01*
X143373500Y-93499500D01*
X141109126Y-93499500D01*
X141041005Y-93479498D01*
X140994512Y-93425842D01*
X140984408Y-93355568D01*
X141013902Y-93290988D01*
X141047560Y-93263565D01*
X141100964Y-93233658D01*
X141100965Y-93233657D01*
X141106001Y-93230837D01*
X141168433Y-93178913D01*
X141257073Y-93105191D01*
X141261505Y-93101505D01*
X141390837Y-92946001D01*
X141489664Y-92769531D01*
X141554678Y-92578007D01*
X141555507Y-92572291D01*
X141555508Y-92572286D01*
X141576678Y-92426271D01*
X141583700Y-92377842D01*
X141585215Y-92320000D01*
X141566708Y-92118591D01*
X141511807Y-91923926D01*
X141422351Y-91742527D01*
X141404079Y-91718057D01*
X141304788Y-91585091D01*
X141304787Y-91585090D01*
X141301335Y-91580467D01*
X141289471Y-91569500D01*
X141157053Y-91447094D01*
X141157051Y-91447092D01*
X141152812Y-91443174D01*
X141147934Y-91440096D01*
X141147922Y-91440087D01*
X141039264Y-91371529D01*
X140992326Y-91318263D01*
X140980500Y-91264968D01*
X140980500Y-90800180D01*
X140981828Y-90788295D01*
X140981318Y-90788254D01*
X140982038Y-90779308D01*
X140984019Y-90770552D01*
X140980742Y-90717735D01*
X140980500Y-90709932D01*
X140980500Y-90694060D01*
X140979052Y-90683948D01*
X140978022Y-90673894D01*
X140975697Y-90636425D01*
X140975141Y-90627462D01*
X140972093Y-90619018D01*
X140971324Y-90615306D01*
X140967657Y-90600601D01*
X140966596Y-90596973D01*
X140965323Y-90588082D01*
X140946061Y-90545718D01*
X140942254Y-90536363D01*
X140929509Y-90501057D01*
X140929507Y-90501053D01*
X140926460Y-90492613D01*
X140921165Y-90485365D01*
X140919389Y-90482025D01*
X140911726Y-90468911D01*
X140909697Y-90465739D01*
X140905984Y-90457572D01*
X140900129Y-90450777D01*
X140900127Y-90450774D01*
X140875613Y-90422325D01*
X140869324Y-90414404D01*
X140864352Y-90407598D01*
X140861478Y-90403664D01*
X140850735Y-90392921D01*
X140844377Y-90386074D01*
X140818259Y-90355763D01*
X140812400Y-90348963D01*
X140804866Y-90344080D01*
X140798104Y-90338181D01*
X140798108Y-90338176D01*
X140787014Y-90329200D01*
X137678810Y-87220996D01*
X137644784Y-87158684D01*
X137642821Y-87147059D01*
X137636363Y-87093694D01*
X137606986Y-87015950D01*
X137583394Y-86953514D01*
X137583393Y-86953511D01*
X137580710Y-86946412D01*
X137491531Y-86816657D01*
X137444971Y-86775174D01*
X137379648Y-86716972D01*
X137379645Y-86716970D01*
X137373976Y-86711919D01*
X137234831Y-86638245D01*
X137216024Y-86633521D01*
X137089498Y-86601740D01*
X137089496Y-86601740D01*
X137082128Y-86599889D01*
X137074530Y-86599849D01*
X137074528Y-86599849D01*
X137007319Y-86599497D01*
X136924684Y-86599065D01*
X136917305Y-86600837D01*
X136917301Y-86600837D01*
X136778967Y-86634048D01*
X136778963Y-86634049D01*
X136771588Y-86635820D01*
X136631679Y-86708032D01*
X136625957Y-86713024D01*
X136625955Y-86713025D01*
X136518759Y-86806538D01*
X136518756Y-86806541D01*
X136513034Y-86811533D01*
X136422501Y-86940348D01*
X136365309Y-87087039D01*
X136364318Y-87094568D01*
X136348221Y-87216835D01*
X136344758Y-87243138D01*
X136362035Y-87399633D01*
X136416143Y-87547490D01*
X136420380Y-87553796D01*
X136420382Y-87553799D01*
X136456867Y-87608093D01*
X136503958Y-87678172D01*
X136620410Y-87784135D01*
X136644699Y-87797323D01*
X136752099Y-87855637D01*
X136752101Y-87855638D01*
X136758776Y-87859262D01*
X136766125Y-87861190D01*
X136911069Y-87899215D01*
X136910705Y-87900603D01*
X136967915Y-87926271D01*
X136975133Y-87932947D01*
X139942595Y-90900409D01*
X139976621Y-90962721D01*
X139979500Y-90989504D01*
X139979500Y-91265489D01*
X139959498Y-91333610D01*
X139917923Y-91373774D01*
X139830371Y-91425862D01*
X139678305Y-91559220D01*
X139553089Y-91718057D01*
X139458914Y-91897053D01*
X139398937Y-92090213D01*
X139398258Y-92095950D01*
X139398258Y-92095951D01*
X139392333Y-92146011D01*
X139364463Y-92211309D01*
X139305715Y-92251173D01*
X139234740Y-92252948D01*
X139178111Y-92220297D01*
X138678810Y-91720996D01*
X138644784Y-91658684D01*
X138642821Y-91647059D01*
X138636363Y-91593694D01*
X138580710Y-91446412D01*
X138491531Y-91316657D01*
X138444971Y-91275174D01*
X138379648Y-91216972D01*
X138379644Y-91216969D01*
X138373976Y-91211919D01*
X138234831Y-91138245D01*
X138218122Y-91134048D01*
X138089498Y-91101740D01*
X138089496Y-91101740D01*
X138082128Y-91099889D01*
X138074530Y-91099849D01*
X138074528Y-91099849D01*
X138007319Y-91099497D01*
X137924684Y-91099065D01*
X137917305Y-91100837D01*
X137917301Y-91100837D01*
X137778967Y-91134048D01*
X137778963Y-91134049D01*
X137771588Y-91135820D01*
X137631679Y-91208032D01*
X137619737Y-91218450D01*
X137555257Y-91248157D01*
X137536909Y-91249500D01*
X134214144Y-91249500D01*
X134146023Y-91229498D01*
X134130331Y-91217581D01*
X134123976Y-91211919D01*
X133984831Y-91138245D01*
X133968122Y-91134048D01*
X133839498Y-91101740D01*
X133839496Y-91101740D01*
X133832128Y-91099889D01*
X133824530Y-91099849D01*
X133824528Y-91099849D01*
X133757319Y-91099497D01*
X133674684Y-91099065D01*
X133667305Y-91100837D01*
X133667301Y-91100837D01*
X133528967Y-91134048D01*
X133528963Y-91134049D01*
X133521588Y-91135820D01*
X133381679Y-91208032D01*
X133375957Y-91213024D01*
X133375955Y-91213025D01*
X133268759Y-91306538D01*
X133268756Y-91306541D01*
X133263034Y-91311533D01*
X133172501Y-91440348D01*
X133115309Y-91587039D01*
X133094758Y-91743138D01*
X133112035Y-91899633D01*
X133166143Y-92047490D01*
X133170380Y-92053796D01*
X133170382Y-92053799D01*
X133204788Y-92105000D01*
X133253958Y-92178172D01*
X133259574Y-92183282D01*
X133360181Y-92274827D01*
X133370410Y-92284135D01*
X133398171Y-92299208D01*
X133502099Y-92355637D01*
X133502101Y-92355638D01*
X133508776Y-92359262D01*
X133516125Y-92361190D01*
X133653719Y-92397287D01*
X133653721Y-92397287D01*
X133661069Y-92399215D01*
X133744380Y-92400524D01*
X133810898Y-92401569D01*
X133810901Y-92401569D01*
X133818495Y-92401688D01*
X133971968Y-92366538D01*
X134112625Y-92295795D01*
X134130312Y-92280689D01*
X134195102Y-92251658D01*
X134212142Y-92250500D01*
X137534700Y-92250500D01*
X137602821Y-92270502D01*
X137608454Y-92274827D01*
X137608600Y-92274622D01*
X137614790Y-92279021D01*
X137620410Y-92284135D01*
X137627085Y-92287759D01*
X137627088Y-92287761D01*
X137752099Y-92355637D01*
X137752101Y-92355638D01*
X137758776Y-92359262D01*
X137766125Y-92361190D01*
X137911069Y-92399215D01*
X137910705Y-92400603D01*
X137967915Y-92426271D01*
X137975133Y-92432947D01*
X139846466Y-94304280D01*
X139853932Y-94313624D01*
X139854322Y-94313292D01*
X139860140Y-94320128D01*
X139864930Y-94327720D01*
X139871658Y-94333662D01*
X139871659Y-94333663D01*
X139904600Y-94362755D01*
X139910288Y-94368102D01*
X139921507Y-94379321D01*
X139925095Y-94382010D01*
X139925096Y-94382011D01*
X139929684Y-94385450D01*
X139937523Y-94391832D01*
X139972388Y-94422623D01*
X139980506Y-94426434D01*
X139983659Y-94428506D01*
X139996680Y-94436329D01*
X139999989Y-94438141D01*
X140007176Y-94443527D01*
X140015581Y-94446678D01*
X140015583Y-94446679D01*
X140050737Y-94459857D01*
X140060057Y-94463784D01*
X140065931Y-94466542D01*
X140102163Y-94483553D01*
X140111035Y-94484934D01*
X140114658Y-94486042D01*
X140129317Y-94489888D01*
X140133014Y-94490701D01*
X140141420Y-94493852D01*
X140187843Y-94497302D01*
X140197856Y-94498452D01*
X140211009Y-94500500D01*
X140226204Y-94500500D01*
X140235542Y-94500846D01*
X140284392Y-94504476D01*
X140293168Y-94502603D01*
X140302125Y-94501992D01*
X140302125Y-94501998D01*
X140316318Y-94500500D01*
X143123500Y-94500500D01*
X143191621Y-94520502D01*
X143238114Y-94574158D01*
X143249500Y-94626500D01*
X143249500Y-96623500D01*
X143229498Y-96691621D01*
X143175842Y-96738114D01*
X143123500Y-96749500D01*
X121403057Y-96749500D01*
X121334936Y-96729498D01*
X121313962Y-96712595D01*
X119432436Y-94831069D01*
X126675164Y-94831069D01*
X126688392Y-95032894D01*
X126738178Y-95228928D01*
X126822856Y-95412607D01*
X126939588Y-95577780D01*
X127084466Y-95718913D01*
X127252637Y-95831282D01*
X127257940Y-95833560D01*
X127257943Y-95833562D01*
X127346291Y-95871519D01*
X127438470Y-95911122D01*
X127635740Y-95955760D01*
X127641509Y-95955987D01*
X127641512Y-95955987D01*
X127717683Y-95958979D01*
X127837842Y-95963700D01*
X127924132Y-95951189D01*
X128032286Y-95935508D01*
X128032291Y-95935507D01*
X128038007Y-95934678D01*
X128043479Y-95932820D01*
X128043481Y-95932820D01*
X128224067Y-95871519D01*
X128224069Y-95871518D01*
X128229531Y-95869664D01*
X128406001Y-95770837D01*
X128468433Y-95718913D01*
X128557073Y-95645191D01*
X128561505Y-95641505D01*
X128690837Y-95486001D01*
X128789664Y-95309531D01*
X128854678Y-95118007D01*
X128855507Y-95112291D01*
X128855508Y-95112286D01*
X128883167Y-94921516D01*
X128883700Y-94917842D01*
X128885215Y-94860000D01*
X128866708Y-94658591D01*
X128857658Y-94626500D01*
X128821911Y-94499751D01*
X128811807Y-94463926D01*
X128722351Y-94282527D01*
X128704079Y-94258057D01*
X128604788Y-94125091D01*
X128604787Y-94125090D01*
X128601335Y-94120467D01*
X128578350Y-94099220D01*
X128457053Y-93987094D01*
X128457051Y-93987092D01*
X128452812Y-93983174D01*
X128425374Y-93965862D01*
X128286637Y-93878325D01*
X128281757Y-93875246D01*
X128093898Y-93800298D01*
X127895526Y-93760839D01*
X127889752Y-93760763D01*
X127889748Y-93760763D01*
X127787257Y-93759422D01*
X127693286Y-93758192D01*
X127687589Y-93759171D01*
X127687588Y-93759171D01*
X127499646Y-93791465D01*
X127499645Y-93791465D01*
X127493949Y-93792444D01*
X127304193Y-93862449D01*
X127130371Y-93965862D01*
X126978305Y-94099220D01*
X126853089Y-94258057D01*
X126758914Y-94437053D01*
X126698937Y-94630213D01*
X126675164Y-94831069D01*
X119432436Y-94831069D01*
X116892436Y-92291069D01*
X126675164Y-92291069D01*
X126688392Y-92492894D01*
X126738178Y-92688928D01*
X126822856Y-92872607D01*
X126939588Y-93037780D01*
X126943730Y-93041815D01*
X127053965Y-93149201D01*
X127084466Y-93178913D01*
X127252637Y-93291282D01*
X127257940Y-93293560D01*
X127257943Y-93293562D01*
X127346291Y-93331519D01*
X127438470Y-93371122D01*
X127635740Y-93415760D01*
X127641509Y-93415987D01*
X127641512Y-93415987D01*
X127717683Y-93418979D01*
X127837842Y-93423700D01*
X127924132Y-93411189D01*
X128032286Y-93395508D01*
X128032291Y-93395507D01*
X128038007Y-93394678D01*
X128043479Y-93392820D01*
X128043481Y-93392820D01*
X128224067Y-93331519D01*
X128224069Y-93331518D01*
X128229531Y-93329664D01*
X128406001Y-93230837D01*
X128468433Y-93178913D01*
X128557073Y-93105191D01*
X128561505Y-93101505D01*
X128690837Y-92946001D01*
X128789664Y-92769531D01*
X128854678Y-92578007D01*
X128855507Y-92572291D01*
X128855508Y-92572286D01*
X128876678Y-92426271D01*
X128883700Y-92377842D01*
X128885215Y-92320000D01*
X128866708Y-92118591D01*
X128811807Y-91923926D01*
X128722351Y-91742527D01*
X128704079Y-91718057D01*
X128604788Y-91585091D01*
X128604787Y-91585090D01*
X128601335Y-91580467D01*
X128589471Y-91569500D01*
X128457053Y-91447094D01*
X128457051Y-91447092D01*
X128452812Y-91443174D01*
X128425374Y-91425862D01*
X128286637Y-91338325D01*
X128281757Y-91335246D01*
X128093898Y-91260298D01*
X127895526Y-91220839D01*
X127889752Y-91220763D01*
X127889748Y-91220763D01*
X127787257Y-91219422D01*
X127693286Y-91218192D01*
X127687589Y-91219171D01*
X127687588Y-91219171D01*
X127499646Y-91251465D01*
X127499645Y-91251465D01*
X127493949Y-91252444D01*
X127304193Y-91322449D01*
X127299232Y-91325401D01*
X127299231Y-91325401D01*
X127279500Y-91337140D01*
X127130371Y-91425862D01*
X126978305Y-91559220D01*
X126853089Y-91718057D01*
X126758914Y-91897053D01*
X126698937Y-92090213D01*
X126675164Y-92291069D01*
X116892436Y-92291069D01*
X116795462Y-92194095D01*
X116761436Y-92131783D01*
X116766501Y-92060968D01*
X116795460Y-92015907D01*
X117733700Y-91077668D01*
X117748105Y-91065289D01*
X117759429Y-91056956D01*
X117759433Y-91056953D01*
X117765324Y-91052617D01*
X117799135Y-91012819D01*
X117806065Y-91005303D01*
X117811671Y-90999697D01*
X117813934Y-90996836D01*
X117813939Y-90996831D01*
X117829117Y-90977646D01*
X117831906Y-90974245D01*
X117873891Y-90924826D01*
X117873893Y-90924824D01*
X117878632Y-90919245D01*
X117881963Y-90912722D01*
X117885256Y-90907784D01*
X117888340Y-90902790D01*
X117892881Y-90897051D01*
X117895978Y-90890424D01*
X117895982Y-90890418D01*
X117923454Y-90831637D01*
X117925385Y-90827685D01*
X117943853Y-90791519D01*
X117958219Y-90763384D01*
X117959959Y-90756273D01*
X117962020Y-90750731D01*
X117963881Y-90745138D01*
X117966980Y-90738507D01*
X117981690Y-90667786D01*
X117982660Y-90663502D01*
X117988677Y-90638913D01*
X117999815Y-90593394D01*
X118000500Y-90582352D01*
X118000532Y-90582354D01*
X118000779Y-90578241D01*
X118001128Y-90574334D01*
X118002618Y-90567169D01*
X118000546Y-90490600D01*
X118000500Y-90487192D01*
X118000500Y-85574674D01*
X124139500Y-85574674D01*
X124154034Y-85647740D01*
X124209399Y-85730601D01*
X124292260Y-85785966D01*
X124365326Y-85800500D01*
X126114674Y-85800500D01*
X126187740Y-85785966D01*
X126270601Y-85730601D01*
X126325966Y-85647740D01*
X126340500Y-85574674D01*
X126340500Y-84671069D01*
X126675164Y-84671069D01*
X126688392Y-84872894D01*
X126738178Y-85068928D01*
X126822856Y-85252607D01*
X126939588Y-85417780D01*
X127084466Y-85558913D01*
X127252637Y-85671282D01*
X127257940Y-85673560D01*
X127257943Y-85673562D01*
X127433163Y-85748842D01*
X127438470Y-85751122D01*
X127635740Y-85795760D01*
X127641509Y-85795987D01*
X127641512Y-85795987D01*
X127717683Y-85798979D01*
X127837842Y-85803700D01*
X127924132Y-85791189D01*
X128032286Y-85775508D01*
X128032291Y-85775507D01*
X128038007Y-85774678D01*
X128043479Y-85772820D01*
X128043481Y-85772820D01*
X128224067Y-85711519D01*
X128224069Y-85711518D01*
X128229531Y-85709664D01*
X128406001Y-85610837D01*
X128468433Y-85558913D01*
X128557073Y-85485191D01*
X128561505Y-85481505D01*
X128690837Y-85326001D01*
X128789664Y-85149531D01*
X128841213Y-84997675D01*
X128852820Y-84963481D01*
X128852820Y-84963479D01*
X128854678Y-84958007D01*
X128855507Y-84952291D01*
X128855508Y-84952286D01*
X128883167Y-84761516D01*
X128883700Y-84757842D01*
X128885215Y-84700000D01*
X128866708Y-84498591D01*
X128811807Y-84303926D01*
X128722351Y-84122527D01*
X128704079Y-84098057D01*
X128604788Y-83965091D01*
X128604787Y-83965090D01*
X128601335Y-83960467D01*
X128578350Y-83939220D01*
X128457053Y-83827094D01*
X128457051Y-83827092D01*
X128452812Y-83823174D01*
X128425374Y-83805862D01*
X128286637Y-83718325D01*
X128281757Y-83715246D01*
X128093898Y-83640298D01*
X127895526Y-83600839D01*
X127889752Y-83600763D01*
X127889748Y-83600763D01*
X127787257Y-83599422D01*
X127693286Y-83598192D01*
X127687589Y-83599171D01*
X127687588Y-83599171D01*
X127499646Y-83631465D01*
X127499645Y-83631465D01*
X127493949Y-83632444D01*
X127304193Y-83702449D01*
X127130371Y-83805862D01*
X126978305Y-83939220D01*
X126853089Y-84098057D01*
X126758914Y-84277053D01*
X126698937Y-84470213D01*
X126675164Y-84671069D01*
X126340500Y-84671069D01*
X126340500Y-83825326D01*
X126325966Y-83752260D01*
X126270601Y-83669399D01*
X126187740Y-83614034D01*
X126114674Y-83599500D01*
X124365326Y-83599500D01*
X124292260Y-83614034D01*
X124209399Y-83669399D01*
X124154034Y-83752260D01*
X124139500Y-83825326D01*
X124139500Y-85574674D01*
X118000500Y-85574674D01*
X118000500Y-79206178D01*
X117985343Y-79076172D01*
X117925631Y-78911669D01*
X117829677Y-78765315D01*
X117702628Y-78644960D01*
X117551298Y-78557061D01*
X117383807Y-78506333D01*
X117209138Y-78495497D01*
X117201922Y-78496737D01*
X117201920Y-78496737D01*
X117166449Y-78502832D01*
X117131213Y-78508887D01*
X117060690Y-78500710D01*
X117005782Y-78455703D01*
X116983923Y-78388156D01*
X117002053Y-78319513D01*
X117020781Y-78295612D01*
X118036904Y-77279488D01*
X118099216Y-77245463D01*
X118170031Y-77250527D01*
X118210797Y-77275388D01*
X118214789Y-77279021D01*
X118214793Y-77279024D01*
X118220410Y-77284135D01*
X118227087Y-77287760D01*
X118227088Y-77287761D01*
X118352099Y-77355637D01*
X118352101Y-77355638D01*
X118358776Y-77359262D01*
X118366125Y-77361190D01*
X118503719Y-77397287D01*
X118503721Y-77397287D01*
X118511069Y-77399215D01*
X118594380Y-77400524D01*
X118660898Y-77401569D01*
X118660901Y-77401569D01*
X118668495Y-77401688D01*
X118821968Y-77366538D01*
X118962625Y-77295795D01*
X119021556Y-77245463D01*
X119076574Y-77198474D01*
X119076576Y-77198471D01*
X119082348Y-77193542D01*
X119174224Y-77065683D01*
X119178329Y-77055473D01*
X119204306Y-76990852D01*
X119232950Y-76919598D01*
X119255134Y-76763723D01*
X119255278Y-76750000D01*
X119236363Y-76593694D01*
X119232289Y-76582911D01*
X119183394Y-76453514D01*
X119183393Y-76453511D01*
X119180710Y-76446412D01*
X119091531Y-76316657D01*
X119016717Y-76250000D01*
X118979648Y-76216972D01*
X118979645Y-76216970D01*
X118973976Y-76211919D01*
X118834831Y-76138245D01*
X118818122Y-76134048D01*
X118689498Y-76101740D01*
X118689496Y-76101740D01*
X118682128Y-76099889D01*
X118674530Y-76099849D01*
X118674528Y-76099849D01*
X118607319Y-76099497D01*
X118524684Y-76099065D01*
X118517305Y-76100837D01*
X118517301Y-76100837D01*
X118378967Y-76134048D01*
X118378963Y-76134049D01*
X118371588Y-76135820D01*
X118231679Y-76208032D01*
X118225957Y-76213024D01*
X118225955Y-76213025D01*
X118188279Y-76245892D01*
X118113034Y-76311533D01*
X118112523Y-76310947D01*
X118057170Y-76345050D01*
X118023978Y-76349500D01*
X118021082Y-76349500D01*
X117952961Y-76329498D01*
X117906468Y-76275842D01*
X117896364Y-76205568D01*
X117925858Y-76140988D01*
X117931987Y-76134405D01*
X118879969Y-75186423D01*
X118942281Y-75152397D01*
X118969064Y-75149518D01*
X123274800Y-75149518D01*
X123342921Y-75169520D01*
X123359599Y-75182324D01*
X123464789Y-75278039D01*
X123464793Y-75278042D01*
X123470410Y-75283153D01*
X123477085Y-75286777D01*
X123602099Y-75354655D01*
X123602101Y-75354656D01*
X123608776Y-75358280D01*
X123616125Y-75360208D01*
X123753719Y-75396305D01*
X123753721Y-75396305D01*
X123761069Y-75398233D01*
X123844380Y-75399542D01*
X123910898Y-75400587D01*
X123910901Y-75400587D01*
X123918495Y-75400706D01*
X124071968Y-75365556D01*
X124212625Y-75294813D01*
X124238869Y-75272399D01*
X124326574Y-75197492D01*
X124326576Y-75197489D01*
X124332348Y-75192560D01*
X124424224Y-75064701D01*
X124482950Y-74918616D01*
X124505134Y-74762741D01*
X124505278Y-74749018D01*
X124486363Y-74592712D01*
X124430710Y-74445430D01*
X124341531Y-74315675D01*
X124294971Y-74274192D01*
X124229648Y-74215990D01*
X124229645Y-74215988D01*
X124223976Y-74210937D01*
X124084831Y-74137263D01*
X124068122Y-74133066D01*
X123939498Y-74100758D01*
X123939496Y-74100758D01*
X123932128Y-74098907D01*
X123924530Y-74098867D01*
X123924528Y-74098867D01*
X123857319Y-74098515D01*
X123774684Y-74098083D01*
X123767305Y-74099855D01*
X123767301Y-74099855D01*
X123628967Y-74133066D01*
X123628963Y-74133067D01*
X123621588Y-74134838D01*
X123481679Y-74207050D01*
X123475957Y-74212042D01*
X123475955Y-74212043D01*
X123368762Y-74305554D01*
X123363034Y-74310551D01*
X123362523Y-74309965D01*
X123307170Y-74344068D01*
X123273978Y-74348518D01*
X118719463Y-74348518D01*
X118719459Y-74348519D01*
X118687549Y-74348519D01*
X118678122Y-74351582D01*
X118678115Y-74351583D01*
X118666629Y-74355315D01*
X118647409Y-74359929D01*
X118635475Y-74361819D01*
X118635467Y-74361821D01*
X118625678Y-74363372D01*
X118616847Y-74367872D01*
X118616843Y-74367873D01*
X118606075Y-74373360D01*
X118587814Y-74380924D01*
X118566892Y-74387722D01*
X118551900Y-74398615D01*
X118549098Y-74400650D01*
X118532241Y-74410980D01*
X118521475Y-74416466D01*
X118521474Y-74416467D01*
X118512640Y-74420968D01*
X118490073Y-74443535D01*
X114944516Y-77989091D01*
X114944513Y-77989095D01*
X114921950Y-78011658D01*
X114917446Y-78020498D01*
X114911965Y-78031255D01*
X114901639Y-78048107D01*
X114888704Y-78065910D01*
X114881907Y-78086830D01*
X114874341Y-78105094D01*
X114868856Y-78115859D01*
X114868855Y-78115863D01*
X114864354Y-78124696D01*
X114862803Y-78134487D01*
X114862803Y-78134488D01*
X114860913Y-78146422D01*
X114856297Y-78165647D01*
X114852565Y-78177132D01*
X114852564Y-78177136D01*
X114849500Y-78186567D01*
X114849500Y-85281917D01*
X114829498Y-85350038D01*
X114812595Y-85371012D01*
X113601853Y-86581754D01*
X113539541Y-86615780D01*
X113468726Y-86610715D01*
X113411800Y-86568048D01*
X113364788Y-86505091D01*
X113364787Y-86505090D01*
X113361335Y-86500467D01*
X113357099Y-86496551D01*
X113217053Y-86367094D01*
X113217051Y-86367092D01*
X113212812Y-86363174D01*
X113185374Y-86345862D01*
X113046637Y-86258325D01*
X113041757Y-86255246D01*
X112853898Y-86180298D01*
X112655526Y-86140839D01*
X112649752Y-86140763D01*
X112649748Y-86140763D01*
X112547257Y-86139422D01*
X112453286Y-86138192D01*
X112447589Y-86139171D01*
X112447588Y-86139171D01*
X112259646Y-86171465D01*
X112259645Y-86171465D01*
X112253949Y-86172444D01*
X112064193Y-86242449D01*
X112059232Y-86245401D01*
X112059231Y-86245401D01*
X111927693Y-86323658D01*
X111890371Y-86345862D01*
X111738305Y-86479220D01*
X111613089Y-86638057D01*
X111518914Y-86817053D01*
X111458937Y-87010213D01*
X111435164Y-87211069D01*
X111448392Y-87412894D01*
X111449815Y-87418496D01*
X111496240Y-87601296D01*
X111498178Y-87608928D01*
X111582856Y-87792607D01*
X111586189Y-87797323D01*
X111659180Y-87900603D01*
X111699588Y-87957780D01*
X111703730Y-87961815D01*
X111741481Y-87998590D01*
X111844466Y-88098913D01*
X112012637Y-88211282D01*
X112017940Y-88213560D01*
X112017943Y-88213562D01*
X112106291Y-88251519D01*
X112198470Y-88291122D01*
X112395740Y-88335760D01*
X112401509Y-88335987D01*
X112401512Y-88335987D01*
X112477683Y-88338979D01*
X112597842Y-88343700D01*
X112684132Y-88331189D01*
X112792286Y-88315508D01*
X112792291Y-88315507D01*
X112798007Y-88314678D01*
X112803479Y-88312820D01*
X112803481Y-88312820D01*
X112984067Y-88251519D01*
X112984069Y-88251518D01*
X112989531Y-88249664D01*
X113113903Y-88180013D01*
X113183112Y-88164180D01*
X113249894Y-88188277D01*
X113293047Y-88244654D01*
X113298869Y-88315412D01*
X113264564Y-88379043D01*
X112959416Y-88684191D01*
X112897104Y-88718217D01*
X112845739Y-88718675D01*
X112661192Y-88681966D01*
X112661191Y-88681966D01*
X112655526Y-88680839D01*
X112649752Y-88680763D01*
X112649748Y-88680763D01*
X112547257Y-88679422D01*
X112453286Y-88678192D01*
X112447589Y-88679171D01*
X112447588Y-88679171D01*
X112259646Y-88711465D01*
X112259645Y-88711465D01*
X112253949Y-88712444D01*
X112064193Y-88782449D01*
X111890371Y-88885862D01*
X111738305Y-89019220D01*
X111613089Y-89178057D01*
X111518914Y-89357053D01*
X111458937Y-89550213D01*
X111435164Y-89751069D01*
X111448392Y-89952894D01*
X111498178Y-90148928D01*
X111582856Y-90332607D01*
X111586189Y-90337323D01*
X111694514Y-90490600D01*
X111699588Y-90497780D01*
X111844466Y-90638913D01*
X112012637Y-90751282D01*
X112017940Y-90753560D01*
X112017943Y-90753562D01*
X112106291Y-90791519D01*
X112198470Y-90831122D01*
X112395740Y-90875760D01*
X112401509Y-90875987D01*
X112401512Y-90875987D01*
X112477683Y-90878979D01*
X112597842Y-90883700D01*
X112684132Y-90871189D01*
X112792286Y-90855508D01*
X112792291Y-90855507D01*
X112798007Y-90854678D01*
X112803479Y-90852820D01*
X112803481Y-90852820D01*
X112984067Y-90791519D01*
X112984069Y-90791518D01*
X112989531Y-90789664D01*
X113131904Y-90709932D01*
X113160964Y-90693658D01*
X113160965Y-90693657D01*
X113166001Y-90690837D01*
X113228433Y-90638913D01*
X113317073Y-90565191D01*
X113321505Y-90561505D01*
X113407946Y-90457572D01*
X113447146Y-90410439D01*
X113450837Y-90406001D01*
X113549664Y-90229531D01*
X113614678Y-90038007D01*
X113615507Y-90032291D01*
X113615508Y-90032286D01*
X113643167Y-89841516D01*
X113643700Y-89837842D01*
X113645215Y-89780000D01*
X113626708Y-89578591D01*
X113571807Y-89383926D01*
X113552510Y-89344795D01*
X113540320Y-89274852D01*
X113567880Y-89209423D01*
X113576421Y-89199972D01*
X116284405Y-86491988D01*
X116346717Y-86457962D01*
X116417532Y-86463027D01*
X116474368Y-86505574D01*
X116499179Y-86572094D01*
X116499500Y-86581083D01*
X116499500Y-90136942D01*
X116479498Y-90205063D01*
X116462595Y-90226037D01*
X115156038Y-91532595D01*
X115093726Y-91566620D01*
X115066943Y-91569500D01*
X113398787Y-91569500D01*
X113330666Y-91549498D01*
X113313258Y-91536025D01*
X113217053Y-91447094D01*
X113217051Y-91447092D01*
X113212812Y-91443174D01*
X113185374Y-91425862D01*
X113046637Y-91338325D01*
X113041757Y-91335246D01*
X112853898Y-91260298D01*
X112655526Y-91220839D01*
X112649752Y-91220763D01*
X112649748Y-91220763D01*
X112547257Y-91219422D01*
X112453286Y-91218192D01*
X112447589Y-91219171D01*
X112447588Y-91219171D01*
X112259646Y-91251465D01*
X112259645Y-91251465D01*
X112253949Y-91252444D01*
X112064193Y-91322449D01*
X112059232Y-91325401D01*
X112059231Y-91325401D01*
X112039500Y-91337140D01*
X111890371Y-91425862D01*
X111738305Y-91559220D01*
X111613089Y-91718057D01*
X111518914Y-91897053D01*
X111458937Y-92090213D01*
X111435164Y-92291069D01*
X110250000Y-92291069D01*
X110250000Y-72376000D01*
X110270002Y-72307879D01*
X110323658Y-72261386D01*
X110376000Y-72250000D01*
X161374000Y-72250000D01*
X161442121Y-72270002D01*
G37*
%TD.AperFunction*%
%TD*%
M02*
