M48
; DRILL file {KiCad 9.0.0} date 2026-02-18T23:31:25+0100
; FORMAT={-:-/ absolute / inch / decimal}
; #@! TF.CreationDate,2026-02-18T23:31:25+01:00
; #@! TF.GenerationSoftware,Kicad,Pcbnew,9.0.0
; #@! TF.FileFunction,Plated,1,2,PTH
FMAT,2
INCH
; #@! TA.AperFunction,Plated,PTH,ViaDrill
T1C0.0118
; #@! TA.AperFunction,Plated,PTH,ComponentDrill
T2C0.0236
; #@! TA.AperFunction,Plated,PTH,ComponentDrill
T3C0.0394
%
G90
G05
T1
X4.5Y-3.0591
X4.5197Y-3.4449
X4.5236Y-3.7835
X4.5823Y-3.0189
X4.6299Y-3.3504
X4.6634Y-3.065
X4.7441Y-3.1339
X4.7559Y-2.9213
X4.7835Y-3.4953
X4.7835Y-3.7118
X4.7874Y-3.2938
X4.8701Y-3.1339
X4.9134Y-2.8652
X4.9213Y-3.189
X4.9449Y-3.1024
X4.9724Y-3.1757
X4.9764Y-2.9685
X4.9803Y-3.3898
X4.9882Y-3.0354
X5.0157Y-2.8701
X5.1102Y-3.7835
X5.1142Y-3.5433
X5.1142Y-3.6024
X5.1457Y-3.1757
X5.2205Y-2.9577
X5.3071Y-3.0719
X5.3071Y-3.127
X5.311Y-2.9577
X5.311Y-3.6614
X5.3425Y-3.2687
X5.3976Y-2.9577
X5.4055Y-3.0994
X5.4646Y-3.0167
X5.4921Y-3.4646
X5.5276Y-3.0167
X5.5276Y-3.1033
X5.563Y-3.6693
X5.563Y-3.7441
X5.5827Y-3.3228
X5.6063Y-3.0167
X5.6063Y-3.1033
X5.6299Y-3.7717
X5.685Y-3.0167
X5.685Y-3.1033
X5.6969Y-3.2165
X5.7402Y-3.2756
X5.7717Y-3.7717
X5.7874Y-2.9724
X5.8268Y-3.5984
X5.8346Y-3.1024
X5.8346Y-3.1457
X5.8661Y-2.9724
X5.8976Y-3.0472
X5.8976Y-3.1024
X5.8976Y-3.1457
X5.8976Y-3.1969
X5.9528Y-3.7165
X5.9567Y-3.2835
X5.9567Y-3.3622
X5.9567Y-3.4409
X5.9567Y-3.5197
X5.9724Y-3.0472
X5.9724Y-3.1024
X5.9724Y-3.1457
X5.9724Y-3.1969
X6.0236Y-2.9724
X6.0354Y-3.1024
X6.0354Y-3.1457
X6.0433Y-3.2835
X6.0433Y-3.3622
X6.0433Y-3.4409
X6.0433Y-3.5197
X6.0472Y-3.7402
X6.1024Y-2.9803
X6.1024Y-3.0827
X6.1024Y-3.5709
X6.1024Y-3.6732
X6.1417Y-2.874
X6.1417Y-3.189
X6.1417Y-3.4646
X6.1417Y-3.7795
X6.1811Y-2.9803
X6.1811Y-3.0827
X6.1811Y-3.5709
X6.1811Y-3.6732
X6.2598Y-2.874
X6.2598Y-2.9803
X6.2598Y-3.0827
X6.2598Y-3.189
X6.2598Y-3.4646
X6.2598Y-3.5709
X6.2598Y-3.6732
X6.2598Y-3.7795
T3
X4.4016Y-3.3354
X4.4016Y-3.4354
X4.4016Y-3.5354
X4.4016Y-3.6354
X4.4016Y-3.7354
X5.0016Y-3.6346
X5.0016Y-3.7346
X5.1016Y-3.4346
X5.5016Y-3.3346
X5.8016Y-3.3346
T2
G00X4.4498Y-2.8811
M15
G01X4.4183Y-2.8811
M16
G05
G00X4.4498Y-3.2213
M15
G01X4.4183Y-3.2213
M16
G05
G00X4.6203Y-2.8811
M15
G01X4.577Y-2.8811
M16
G05
G00X4.6203Y-3.2213
M15
G01X4.577Y-3.2213
M16
G05
M30
