M48
; DRILL file {KiCad (6.0.1)} date Tue Aug  2 08:39:06 2022
; FORMAT={-:-/ absolute / inch / decimal}
; #@! TF.CreationDate,2022-08-02T08:39:06+02:00
; #@! TF.GenerationSoftware,Kicad,Pcbnew,(6.0.1)
; #@! TF.FileFunction,Plated,1,2,PTH
FMAT,2
INCH
; #@! TA.AperFunction,Plated,PTH,ViaDrill
T1C0.0157
; #@! TA.AperFunction,Plated,PTH,ComponentDrill
T2C0.0197
; #@! TA.AperFunction,Plated,PTH,ComponentDrill
T3C0.0217
; #@! TA.AperFunction,Plated,PTH,ComponentDrill
T4C0.0394
; #@! TA.AperFunction,Plated,PTH,ViaDrill
T5C0.1181
%
G90
G05
T1
X4.5669Y-3.8665
X4.6161Y-3.1201
X4.6358Y-2.9035
X4.6654Y-3.8091
X4.6693Y-3.0217
X4.7146Y-3.6992
X4.7343Y-3.5728
X4.7835Y-3.8386
X4.7874Y-3.0807
X4.7933Y-3.4154
X4.8425Y-3.3071
X4.876Y-2.9429
X4.876Y-3.0315
X4.9547Y-3.2087
X5.0039Y-2.9429
X5.1575Y-3.6106
X5.2543Y-3.1794
X5.2657Y-3.6122
X5.3046Y-3.1068
X5.3051Y-3.6614
X5.315Y-3.7894
X5.3538Y-3.2677
X5.3642Y-3.4744
X5.3839Y-3.061
X5.3937Y-3.435
X5.4232Y-2.9921
X5.4331Y-3.6122
X5.4906Y-3.1594
X5.4921Y-3.061
X5.5315Y-3.1988
X5.5315Y-3.2579
X5.5497Y-3.1594
X5.5512Y-3.002
X5.5512Y-3.061
X5.6102Y-3.061
X5.6102Y-3.1594
X5.6201Y-3.2776
X5.6693Y-3.061
X5.6693Y-3.1594
X5.6693Y-3.3268
X5.6693Y-3.7008
X5.7185Y-3.1791
X5.7246Y-2.874
X5.7246Y-2.9331
X5.7246Y-2.9921
X5.7283Y-3.1496
X5.7382Y-3.2579
X5.748Y-3.376
X5.7579Y-3.0709
X5.7579Y-3.1102
X5.7579Y-3.1791
X5.7776Y-3.0906
X5.797Y-3.4255
X5.7972Y-3.0709
X5.7972Y-3.1102
X5.7972Y-3.1791
X5.7972Y-3.6516
X5.8268Y-3.1496
X5.8366Y-3.0315
X5.8366Y-3.1791
X5.8957Y-3.3661
X5.9112Y-3.7008
X5.9744Y-3.6713
X5.9781Y-3.0512
X5.9811Y-3.4154
X5.9843Y-3.6122
X5.9941Y-3.3366
X5.9941Y-3.5236
X6.0039Y-3.1004
X6.0039Y-3.1575
X6.0039Y-3.2598
X6.0236Y-3.8386
X6.047Y-3.0512
X6.0691Y-2.874
X6.0691Y-2.9331
X6.0691Y-2.9921
X6.0912Y-3.1294
X6.0925Y-3.248
X6.1081Y-3.4744
X6.1091Y-3.3661
X6.1516Y-3.0709
X6.1516Y-3.1299
X6.1516Y-3.5335
X6.1516Y-3.5925
X6.1583Y-3.2776
X6.1583Y-3.3366
X6.2003Y-3.8086
X6.2008Y-3.6909
X6.2008Y-3.75
X6.2106Y-3.0118
X6.2106Y-3.5925
X6.2697Y-3.0118
X6.2697Y-3.5925
X6.3256Y-3.5925
X6.3287Y-3.0118
T4
X4.4307Y-3.4346
X4.4307Y-3.5346
X4.4307Y-3.6346
X4.4307Y-3.7346
X4.4307Y-3.8346
X4.9307Y-3.3346
X5.0307Y-3.3346
X5.0307Y-3.6346
X5.0307Y-3.7346
X5.5307Y-3.6346
X5.8307Y-3.7346
T5
X5.2756Y-2.9528
T2
G00X4.4006Y-2.9134
M15
G01X4.375Y-2.9134
M16
G05
G00X4.4006Y-3.189
M15
G01X4.375Y-3.189
M16
G05
T3
G00X4.4941Y-2.9469
M15
G01X4.4941Y-2.9587
M16
G05
G00X4.4941Y-3.1437
M15
G01X4.4941Y-3.1555
M16
G05
T0
M30
