%TF.GenerationSoftware,KiCad,Pcbnew,(6.0.1)*%
%TF.CreationDate,2022-08-01T14:37:07+02:00*%
%TF.ProjectId,DetectorReader,44657465-6374-46f7-9252-65616465722e,rev?*%
%TF.SameCoordinates,Original*%
%TF.FileFunction,Soldermask,Top*%
%TF.FilePolarity,Negative*%
%FSLAX46Y46*%
G04 Gerber Fmt 4.6, Leading zero omitted, Abs format (unit mm)*
G04 Created by KiCad (PCBNEW (6.0.1)) date 2022-08-01 14:37:07*
%MOMM*%
%LPD*%
G01*
G04 APERTURE LIST*
G04 Aperture macros list*
%AMRoundRect*
0 Rectangle with rounded corners*
0 $1 Rounding radius*
0 $2 $3 $4 $5 $6 $7 $8 $9 X,Y pos of 4 corners*
0 Add a 4 corners polygon primitive as box body*
4,1,4,$2,$3,$4,$5,$6,$7,$8,$9,$2,$3,0*
0 Add four circle primitives for the rounded corners*
1,1,$1+$1,$2,$3*
1,1,$1+$1,$4,$5*
1,1,$1+$1,$6,$7*
1,1,$1+$1,$8,$9*
0 Add four rect primitives between the rounded corners*
20,1,$1+$1,$2,$3,$4,$5,0*
20,1,$1+$1,$4,$5,$6,$7,0*
20,1,$1+$1,$6,$7,$8,$9,0*
20,1,$1+$1,$8,$9,$2,$3,0*%
%AMFreePoly0*
4,1,13,1.650000,1.015000,3.020000,1.015000,3.020000,-1.015000,1.650000,-1.015000,1.650000,-2.385000,-1.650000,-2.385000,-1.650000,-1.015000,-3.020000,-1.015000,-3.020000,1.015000,-1.650000,1.015000,-1.650000,2.385000,1.650000,2.385000,1.650000,1.015000,1.650000,1.015000,$1*%
G04 Aperture macros list end*
%ADD10C,2.562214*%
%ADD11RoundRect,0.225000X0.250000X-0.225000X0.250000X0.225000X-0.250000X0.225000X-0.250000X-0.225000X0*%
%ADD12RoundRect,0.225000X0.225000X0.250000X-0.225000X0.250000X-0.225000X-0.250000X0.225000X-0.250000X0*%
%ADD13RoundRect,0.225000X-0.250000X0.225000X-0.250000X-0.225000X0.250000X-0.225000X0.250000X0.225000X0*%
%ADD14R,0.300000X1.000000*%
%ADD15RoundRect,0.200000X0.275000X-0.200000X0.275000X0.200000X-0.275000X0.200000X-0.275000X-0.200000X0*%
%ADD16C,1.700000*%
%ADD17RoundRect,0.100000X0.712500X0.100000X-0.712500X0.100000X-0.712500X-0.100000X0.712500X-0.100000X0*%
%ADD18RoundRect,0.218750X-0.218750X-0.256250X0.218750X-0.256250X0.218750X0.256250X-0.218750X0.256250X0*%
%ADD19RoundRect,0.218750X0.256250X-0.218750X0.256250X0.218750X-0.256250X0.218750X-0.256250X-0.218750X0*%
%ADD20RoundRect,0.225000X-0.225000X-0.250000X0.225000X-0.250000X0.225000X0.250000X-0.225000X0.250000X0*%
%ADD21R,1.600000X1.600000*%
%ADD22FreePoly0,0.000000*%
%ADD23R,1.270000X3.600000*%
%ADD24R,1.350000X4.200000*%
%ADD25RoundRect,0.150000X-0.825000X-0.150000X0.825000X-0.150000X0.825000X0.150000X-0.825000X0.150000X0*%
%ADD26R,1.200000X0.900000*%
%ADD27RoundRect,0.200000X0.200000X0.275000X-0.200000X0.275000X-0.200000X-0.275000X0.200000X-0.275000X0*%
%ADD28RoundRect,0.200000X-0.275000X0.200000X-0.275000X-0.200000X0.275000X-0.200000X0.275000X0.200000X0*%
%ADD29RoundRect,0.150000X0.825000X0.150000X-0.825000X0.150000X-0.825000X-0.150000X0.825000X-0.150000X0*%
%ADD30RoundRect,0.150000X0.150000X-0.512500X0.150000X0.512500X-0.150000X0.512500X-0.150000X-0.512500X0*%
%ADD31R,1.700000X1.700000*%
%ADD32O,1.700000X1.700000*%
%ADD33RoundRect,0.150000X0.587500X0.150000X-0.587500X0.150000X-0.587500X-0.150000X0.587500X-0.150000X0*%
%ADD34R,3.600000X1.270000*%
%ADD35R,4.200000X1.350000*%
%ADD36RoundRect,0.200000X-0.200000X-0.275000X0.200000X-0.275000X0.200000X0.275000X-0.200000X0.275000X0*%
%ADD37R,1.400000X0.280000*%
%ADD38R,0.850000X0.750000*%
%ADD39R,1.350000X0.400000*%
%ADD40O,1.550000X0.890000*%
%ADD41R,1.550000X1.200000*%
%ADD42O,0.950000X1.250000*%
%ADD43R,1.550000X1.500000*%
%ADD44RoundRect,0.218750X-0.381250X0.218750X-0.381250X-0.218750X0.381250X-0.218750X0.381250X0.218750X0*%
%ADD45R,1.200000X0.400000*%
%ADD46C,0.800000*%
%ADD47C,5.000000*%
G04 APERTURE END LIST*
D10*
X155281107Y-75000000D02*
G75*
G03*
X155281107Y-75000000I-1281107J0D01*
G01*
X135281107Y-75000000D02*
G75*
G03*
X135281107Y-75000000I-1281107J0D01*
G01*
D11*
%TO.C,C11*%
X153670000Y-86775000D03*
X153670000Y-85225000D03*
%TD*%
D12*
%TO.C,C8*%
X140775000Y-82000000D03*
X139225000Y-82000000D03*
%TD*%
D13*
%TO.C,C3*%
X127250000Y-76225000D03*
X127250000Y-77775000D03*
%TD*%
D12*
%TO.C,C15*%
X156550000Y-94500000D03*
X155000000Y-94500000D03*
%TD*%
D14*
%TO.C,U6*%
X153620000Y-90500000D03*
X152970000Y-90500000D03*
X152320000Y-90500000D03*
X151670000Y-90500000D03*
X151670000Y-94500000D03*
X152320000Y-94500000D03*
X152970000Y-94500000D03*
X153620000Y-94500000D03*
%TD*%
D11*
%TO.C,C9*%
X143730000Y-79000000D03*
X143730000Y-77450000D03*
%TD*%
D15*
%TO.C,R8*%
X141250000Y-90785000D03*
X141250000Y-89135000D03*
%TD*%
D16*
%TO.C,J6*%
X148100000Y-94860000D03*
%TD*%
D11*
%TO.C,C17*%
X139750000Y-90735000D03*
X139750000Y-89185000D03*
%TD*%
D17*
%TO.C,U7*%
X137512500Y-90755000D03*
X137512500Y-90105000D03*
X137512500Y-89455000D03*
X137512500Y-88805000D03*
X133287500Y-88805000D03*
X133287500Y-89455000D03*
X133287500Y-90105000D03*
X133287500Y-90755000D03*
%TD*%
D18*
%TO.C,D1*%
X111212500Y-83000000D03*
X112787500Y-83000000D03*
%TD*%
D19*
%TO.C,L2*%
X139250000Y-80575000D03*
X139250000Y-79000000D03*
%TD*%
D11*
%TO.C,C2*%
X116500000Y-81775000D03*
X116500000Y-80225000D03*
%TD*%
D16*
%TO.C,J8*%
X127780000Y-92320000D03*
%TD*%
D20*
%TO.C,C1*%
X118410000Y-98000000D03*
X119960000Y-98000000D03*
%TD*%
D21*
%TO.C,U3*%
X147745000Y-79175000D03*
X153665000Y-79175000D03*
X153665000Y-83825000D03*
X147745000Y-83825000D03*
D22*
X150705000Y-81500000D03*
%TD*%
D23*
%TO.C,J4*%
X143730000Y-73900000D03*
D24*
X140905000Y-74100000D03*
X146555000Y-74100000D03*
%TD*%
D25*
%TO.C,U8*%
X133025000Y-93055000D03*
X133025000Y-94325000D03*
X133025000Y-95595000D03*
X133025000Y-96865000D03*
X137975000Y-96865000D03*
X137975000Y-95595000D03*
X137975000Y-94325000D03*
X137975000Y-93055000D03*
%TD*%
D18*
%TO.C,D2*%
X111212500Y-84750000D03*
X112787500Y-84750000D03*
%TD*%
D26*
%TO.C,D3*%
X127500000Y-87310000D03*
X127500000Y-90610000D03*
%TD*%
D27*
%TO.C,R10*%
X131000000Y-93500000D03*
X129350000Y-93500000D03*
%TD*%
D13*
%TO.C,C16*%
X142500000Y-92685000D03*
X142500000Y-94235000D03*
%TD*%
D15*
%TO.C,R5*%
X130920000Y-79250000D03*
X130920000Y-77600000D03*
%TD*%
D27*
%TO.C,R13*%
X125825000Y-96500000D03*
X124175000Y-96500000D03*
%TD*%
D12*
%TO.C,C10*%
X145280000Y-79000000D03*
X143730000Y-79000000D03*
%TD*%
%TO.C,C12*%
X155220000Y-86750000D03*
X153670000Y-86750000D03*
%TD*%
D28*
%TO.C,R7*%
X142750000Y-89135000D03*
X142750000Y-90785000D03*
%TD*%
D26*
%TO.C,D4*%
X125250000Y-90610000D03*
X125250000Y-87310000D03*
%TD*%
D16*
%TO.C,J9*%
X127780000Y-94860000D03*
%TD*%
D29*
%TO.C,U1*%
X121975000Y-96310000D03*
X121975000Y-95040000D03*
X121975000Y-93770000D03*
X121975000Y-92500000D03*
X121975000Y-91230000D03*
X121975000Y-89960000D03*
X121975000Y-88690000D03*
X117025000Y-88690000D03*
X117025000Y-89960000D03*
X117025000Y-91230000D03*
X117025000Y-92500000D03*
X117025000Y-93770000D03*
X117025000Y-95040000D03*
X117025000Y-96310000D03*
%TD*%
D30*
%TO.C,U4*%
X144300000Y-91000000D03*
X145250000Y-91000000D03*
X146200000Y-91000000D03*
X146200000Y-88725000D03*
X144300000Y-88725000D03*
%TD*%
D31*
%TO.C,SW1*%
X127780000Y-84700000D03*
D32*
X130320000Y-84700000D03*
%TD*%
D15*
%TO.C,R12*%
X129500000Y-90285000D03*
X129500000Y-88635000D03*
%TD*%
D13*
%TO.C,C13*%
X150145000Y-90725000D03*
X150145000Y-92275000D03*
%TD*%
D27*
%TO.C,R3*%
X146075000Y-84000000D03*
X144425000Y-84000000D03*
%TD*%
D33*
%TO.C,Q1*%
X145937500Y-96910000D03*
X145937500Y-95010000D03*
X144062500Y-95960000D03*
%TD*%
D34*
%TO.C,J5*%
X159820000Y-86700000D03*
D35*
X159620000Y-89525000D03*
X159620000Y-83875000D03*
%TD*%
D36*
%TO.C,R2*%
X114175000Y-84750000D03*
X115825000Y-84750000D03*
%TD*%
D18*
%TO.C,L3*%
X140712500Y-79000000D03*
X142287500Y-79000000D03*
%TD*%
D12*
%TO.C,C5*%
X146025000Y-92750000D03*
X144475000Y-92750000D03*
%TD*%
D37*
%TO.C,U5*%
X137420000Y-80912500D03*
X137420000Y-80412500D03*
X137420000Y-79912500D03*
X137420000Y-79412500D03*
X137420000Y-78912500D03*
X133140000Y-78912500D03*
X133140000Y-79412500D03*
X133140000Y-79912500D03*
X133140000Y-80412500D03*
X133140000Y-80912500D03*
%TD*%
D36*
%TO.C,R6*%
X141345000Y-97460000D03*
X142995000Y-97460000D03*
%TD*%
%TO.C,R9*%
X131000000Y-87210000D03*
X132650000Y-87210000D03*
%TD*%
D11*
%TO.C,C19*%
X131000000Y-90235000D03*
X131000000Y-88685000D03*
%TD*%
D34*
%TO.C,J3*%
X159820000Y-81000000D03*
D35*
X159620000Y-78175000D03*
X159620000Y-83825000D03*
%TD*%
D15*
%TO.C,R11*%
X131000000Y-96535000D03*
X131000000Y-94885000D03*
%TD*%
D12*
%TO.C,C14*%
X156550000Y-96000000D03*
X155000000Y-96000000D03*
%TD*%
D11*
%TO.C,C4*%
X127250000Y-80775000D03*
X127250000Y-79225000D03*
%TD*%
D12*
%TO.C,C6*%
X146025000Y-87000000D03*
X144475000Y-87000000D03*
%TD*%
D38*
%TO.C,Y1*%
X135270000Y-82412500D03*
X133920000Y-82412500D03*
X133920000Y-83462500D03*
X135270000Y-83462500D03*
%TD*%
D28*
%TO.C,R4*%
X130920000Y-80675000D03*
X130920000Y-82325000D03*
%TD*%
D16*
%TO.C,J7*%
X140480000Y-92320000D03*
%TD*%
D39*
%TO.C,J1*%
X114150000Y-76200000D03*
X114150000Y-76850000D03*
X114150000Y-77500000D03*
X114150000Y-78150000D03*
X114150000Y-78800000D03*
D40*
X111450000Y-74000000D03*
D41*
X111450000Y-80400000D03*
D42*
X114150000Y-80000000D03*
D41*
X111450000Y-74600000D03*
D43*
X111450000Y-76500000D03*
D42*
X114150000Y-75000000D03*
D40*
X111450000Y-81000000D03*
D43*
X111450000Y-78500000D03*
%TD*%
D20*
%TO.C,C18*%
X134050000Y-87210000D03*
X135600000Y-87210000D03*
%TD*%
%TO.C,C7*%
X139250000Y-83500000D03*
X140800000Y-83500000D03*
%TD*%
D31*
%TO.C,J2*%
X112540000Y-97400000D03*
D32*
X112540000Y-94860000D03*
X112540000Y-92320000D03*
X112540000Y-89780000D03*
X112540000Y-87240000D03*
%TD*%
D18*
%TO.C,L4*%
X152095000Y-88500000D03*
X153670000Y-88500000D03*
%TD*%
D44*
%TO.C,L1*%
X116500000Y-76187500D03*
X116500000Y-78312500D03*
%TD*%
D36*
%TO.C,R1*%
X114175000Y-83000000D03*
X115825000Y-83000000D03*
%TD*%
D45*
%TO.C,U2*%
X120400000Y-74642500D03*
X120400000Y-75277500D03*
X120400000Y-75912500D03*
X120400000Y-76547500D03*
X120400000Y-77182500D03*
X120400000Y-77817500D03*
X120400000Y-78452500D03*
X120400000Y-79087500D03*
X120400000Y-79722500D03*
X120400000Y-80357500D03*
X125600000Y-80357500D03*
X125600000Y-79722500D03*
X125600000Y-79087500D03*
X125600000Y-78452500D03*
X125600000Y-77817500D03*
X125600000Y-77182500D03*
X125600000Y-76547500D03*
X125600000Y-75912500D03*
X125600000Y-75277500D03*
X125600000Y-74642500D03*
%TD*%
D46*
X156250000Y-91250000D03*
X145750000Y-77500000D03*
X157750000Y-76500000D03*
X120250000Y-90750000D03*
X151500000Y-80000000D03*
X155170000Y-85500000D03*
X147242857Y-87008577D03*
X156420000Y-83250000D03*
X143750000Y-80250000D03*
X116000000Y-98210000D03*
X118500000Y-96750000D03*
X137170000Y-83000000D03*
X150000000Y-83000000D03*
X121750000Y-86750000D03*
X119750000Y-93960000D03*
X157500000Y-95250000D03*
X151920000Y-86750000D03*
X150000000Y-81500000D03*
X150000000Y-84750000D03*
X142000000Y-77500000D03*
X129250000Y-83000000D03*
X151500000Y-81500000D03*
X150000000Y-80000000D03*
X155145000Y-88250000D03*
X151500000Y-78250000D03*
X147250000Y-92750000D03*
D47*
X134000000Y-75000000D03*
D46*
X147500000Y-77500000D03*
X154730000Y-81500000D03*
X117750000Y-73750000D03*
X151500000Y-83000000D03*
X136250000Y-88250000D03*
X156420000Y-84750000D03*
X150145000Y-94000000D03*
X148060000Y-73000000D03*
X160670000Y-91250000D03*
X140250000Y-77500000D03*
X159250000Y-91250000D03*
X150000000Y-78250000D03*
X140645000Y-80250000D03*
X135000000Y-96250000D03*
X139310000Y-76000000D03*
X148060000Y-76000000D03*
X146730000Y-81500000D03*
X126250000Y-81500000D03*
X134750000Y-93000000D03*
X160750000Y-76500000D03*
X122000000Y-78250000D03*
X135920000Y-78912500D03*
X151500000Y-84750000D03*
X139310000Y-74500000D03*
X156250000Y-89750000D03*
X144500000Y-82500000D03*
X157750000Y-91250000D03*
X142145000Y-80250000D03*
X124250000Y-77000000D03*
X139310000Y-73000000D03*
D47*
X154000000Y-75000000D03*
D46*
X134641269Y-80756889D03*
X156250000Y-78000000D03*
X151895000Y-92250000D03*
X159250000Y-76500000D03*
X145705000Y-80250000D03*
X127500000Y-74750000D03*
X131000000Y-91710000D03*
X148060000Y-74500000D03*
X153000000Y-81500000D03*
X148500000Y-81500000D03*
X133750000Y-91750000D03*
X144000000Y-94000000D03*
X117250000Y-79250000D03*
X138000000Y-91750000D03*
X153000000Y-97500000D03*
X121500000Y-97500000D03*
X137000000Y-87250000D03*
X119000000Y-76750000D03*
X124250000Y-74749018D03*
M02*
