%TF.GenerationSoftware,KiCad,Pcbnew,(6.0.1)*%
%TF.CreationDate,2022-08-01T14:37:07+02:00*%
%TF.ProjectId,DetectorReader,44657465-6374-46f7-9252-65616465722e,rev?*%
%TF.SameCoordinates,Original*%
%TF.FileFunction,Other,Comment*%
%FSLAX46Y46*%
G04 Gerber Fmt 4.6, Leading zero omitted, Abs format (unit mm)*
G04 Created by KiCad (PCBNEW (6.0.1)) date 2022-08-01 14:37:07*
%MOMM*%
%LPD*%
G01*
G04 APERTURE LIST*
%ADD10C,0.150000*%
G04 APERTURE END LIST*
D10*
%TO.C,J4*%
X134539523Y-79478571D02*
X134682380Y-79526190D01*
X134730000Y-79573809D01*
X134777619Y-79669047D01*
X134777619Y-79811904D01*
X134730000Y-79907142D01*
X134682380Y-79954761D01*
X134587142Y-80002380D01*
X134206190Y-80002380D01*
X134206190Y-79002380D01*
X134539523Y-79002380D01*
X134634761Y-79050000D01*
X134682380Y-79097619D01*
X134730000Y-79192857D01*
X134730000Y-79288095D01*
X134682380Y-79383333D01*
X134634761Y-79430952D01*
X134539523Y-79478571D01*
X134206190Y-79478571D01*
X135349047Y-80002380D02*
X135253809Y-79954761D01*
X135206190Y-79907142D01*
X135158571Y-79811904D01*
X135158571Y-79526190D01*
X135206190Y-79430952D01*
X135253809Y-79383333D01*
X135349047Y-79335714D01*
X135491904Y-79335714D01*
X135587142Y-79383333D01*
X135634761Y-79430952D01*
X135682380Y-79526190D01*
X135682380Y-79811904D01*
X135634761Y-79907142D01*
X135587142Y-79954761D01*
X135491904Y-80002380D01*
X135349047Y-80002380D01*
X136539523Y-80002380D02*
X136539523Y-79478571D01*
X136491904Y-79383333D01*
X136396666Y-79335714D01*
X136206190Y-79335714D01*
X136110952Y-79383333D01*
X136539523Y-79954761D02*
X136444285Y-80002380D01*
X136206190Y-80002380D01*
X136110952Y-79954761D01*
X136063333Y-79859523D01*
X136063333Y-79764285D01*
X136110952Y-79669047D01*
X136206190Y-79621428D01*
X136444285Y-79621428D01*
X136539523Y-79573809D01*
X137015714Y-80002380D02*
X137015714Y-79335714D01*
X137015714Y-79526190D02*
X137063333Y-79430952D01*
X137110952Y-79383333D01*
X137206190Y-79335714D01*
X137301428Y-79335714D01*
X138063333Y-80002380D02*
X138063333Y-79002380D01*
X138063333Y-79954761D02*
X137968095Y-80002380D01*
X137777619Y-80002380D01*
X137682380Y-79954761D01*
X137634761Y-79907142D01*
X137587142Y-79811904D01*
X137587142Y-79526190D01*
X137634761Y-79430952D01*
X137682380Y-79383333D01*
X137777619Y-79335714D01*
X137968095Y-79335714D01*
X138063333Y-79383333D01*
X139158571Y-79002380D02*
X139730000Y-79002380D01*
X139444285Y-80002380D02*
X139444285Y-79002380D01*
X140063333Y-80002380D02*
X140063333Y-79002380D01*
X140491904Y-80002380D02*
X140491904Y-79478571D01*
X140444285Y-79383333D01*
X140349047Y-79335714D01*
X140206190Y-79335714D01*
X140110952Y-79383333D01*
X140063333Y-79430952D01*
X140968095Y-80002380D02*
X140968095Y-79335714D01*
X140968095Y-79002380D02*
X140920476Y-79050000D01*
X140968095Y-79097619D01*
X141015714Y-79050000D01*
X140968095Y-79002380D01*
X140968095Y-79097619D01*
X141872857Y-79954761D02*
X141777619Y-80002380D01*
X141587142Y-80002380D01*
X141491904Y-79954761D01*
X141444285Y-79907142D01*
X141396666Y-79811904D01*
X141396666Y-79526190D01*
X141444285Y-79430952D01*
X141491904Y-79383333D01*
X141587142Y-79335714D01*
X141777619Y-79335714D01*
X141872857Y-79383333D01*
X142301428Y-80002380D02*
X142301428Y-79002380D01*
X142396666Y-79621428D02*
X142682380Y-80002380D01*
X142682380Y-79335714D02*
X142301428Y-79716666D01*
X143110952Y-79335714D02*
X143110952Y-80002380D01*
X143110952Y-79430952D02*
X143158571Y-79383333D01*
X143253809Y-79335714D01*
X143396666Y-79335714D01*
X143491904Y-79383333D01*
X143539523Y-79478571D01*
X143539523Y-80002380D01*
X144396666Y-79954761D02*
X144301428Y-80002380D01*
X144110952Y-80002380D01*
X144015714Y-79954761D01*
X143968095Y-79859523D01*
X143968095Y-79478571D01*
X144015714Y-79383333D01*
X144110952Y-79335714D01*
X144301428Y-79335714D01*
X144396666Y-79383333D01*
X144444285Y-79478571D01*
X144444285Y-79573809D01*
X143968095Y-79669047D01*
X144825238Y-79954761D02*
X144920476Y-80002380D01*
X145110952Y-80002380D01*
X145206190Y-79954761D01*
X145253809Y-79859523D01*
X145253809Y-79811904D01*
X145206190Y-79716666D01*
X145110952Y-79669047D01*
X144968095Y-79669047D01*
X144872857Y-79621428D01*
X144825238Y-79526190D01*
X144825238Y-79478571D01*
X144872857Y-79383333D01*
X144968095Y-79335714D01*
X145110952Y-79335714D01*
X145206190Y-79383333D01*
X145634761Y-79954761D02*
X145730000Y-80002380D01*
X145920476Y-80002380D01*
X146015714Y-79954761D01*
X146063333Y-79859523D01*
X146063333Y-79811904D01*
X146015714Y-79716666D01*
X145920476Y-79669047D01*
X145777619Y-79669047D01*
X145682380Y-79621428D01*
X145634761Y-79526190D01*
X145634761Y-79478571D01*
X145682380Y-79383333D01*
X145777619Y-79335714D01*
X145920476Y-79335714D01*
X146015714Y-79383333D01*
X146491904Y-79907142D02*
X146539523Y-79954761D01*
X146491904Y-80002380D01*
X146444285Y-79954761D01*
X146491904Y-79907142D01*
X146491904Y-80002380D01*
X146491904Y-79383333D02*
X146539523Y-79430952D01*
X146491904Y-79478571D01*
X146444285Y-79430952D01*
X146491904Y-79383333D01*
X146491904Y-79478571D01*
X148253809Y-80002380D02*
X147682380Y-80002380D01*
X147968095Y-80002380D02*
X147968095Y-79002380D01*
X147872857Y-79145238D01*
X147777619Y-79240476D01*
X147682380Y-79288095D01*
X148682380Y-79907142D02*
X148730000Y-79954761D01*
X148682380Y-80002380D01*
X148634761Y-79954761D01*
X148682380Y-79907142D01*
X148682380Y-80002380D01*
X149634761Y-79002380D02*
X149158571Y-79002380D01*
X149110952Y-79478571D01*
X149158571Y-79430952D01*
X149253809Y-79383333D01*
X149491904Y-79383333D01*
X149587142Y-79430952D01*
X149634761Y-79478571D01*
X149682380Y-79573809D01*
X149682380Y-79811904D01*
X149634761Y-79907142D01*
X149587142Y-79954761D01*
X149491904Y-80002380D01*
X149253809Y-80002380D01*
X149158571Y-79954761D01*
X149110952Y-79907142D01*
X150015714Y-79002380D02*
X150682380Y-79002380D01*
X150253809Y-80002380D01*
X151063333Y-80002380D02*
X151063333Y-79335714D01*
X151063333Y-79430952D02*
X151110952Y-79383333D01*
X151206190Y-79335714D01*
X151349047Y-79335714D01*
X151444285Y-79383333D01*
X151491904Y-79478571D01*
X151491904Y-80002380D01*
X151491904Y-79478571D02*
X151539523Y-79383333D01*
X151634761Y-79335714D01*
X151777619Y-79335714D01*
X151872857Y-79383333D01*
X151920476Y-79478571D01*
X151920476Y-80002380D01*
X152396666Y-80002380D02*
X152396666Y-79335714D01*
X152396666Y-79430952D02*
X152444285Y-79383333D01*
X152539523Y-79335714D01*
X152682380Y-79335714D01*
X152777619Y-79383333D01*
X152825238Y-79478571D01*
X152825238Y-80002380D01*
X152825238Y-79478571D02*
X152872857Y-79383333D01*
X152968095Y-79335714D01*
X153110952Y-79335714D01*
X153206190Y-79383333D01*
X153253809Y-79478571D01*
X153253809Y-80002380D01*
%TO.C,J5*%
X154098571Y-95890476D02*
X154146190Y-95747619D01*
X154193809Y-95700000D01*
X154289047Y-95652380D01*
X154431904Y-95652380D01*
X154527142Y-95700000D01*
X154574761Y-95747619D01*
X154622380Y-95842857D01*
X154622380Y-96223809D01*
X153622380Y-96223809D01*
X153622380Y-95890476D01*
X153670000Y-95795238D01*
X153717619Y-95747619D01*
X153812857Y-95700000D01*
X153908095Y-95700000D01*
X154003333Y-95747619D01*
X154050952Y-95795238D01*
X154098571Y-95890476D01*
X154098571Y-96223809D01*
X154622380Y-95080952D02*
X154574761Y-95176190D01*
X154527142Y-95223809D01*
X154431904Y-95271428D01*
X154146190Y-95271428D01*
X154050952Y-95223809D01*
X154003333Y-95176190D01*
X153955714Y-95080952D01*
X153955714Y-94938095D01*
X154003333Y-94842857D01*
X154050952Y-94795238D01*
X154146190Y-94747619D01*
X154431904Y-94747619D01*
X154527142Y-94795238D01*
X154574761Y-94842857D01*
X154622380Y-94938095D01*
X154622380Y-95080952D01*
X154622380Y-93890476D02*
X154098571Y-93890476D01*
X154003333Y-93938095D01*
X153955714Y-94033333D01*
X153955714Y-94223809D01*
X154003333Y-94319047D01*
X154574761Y-93890476D02*
X154622380Y-93985714D01*
X154622380Y-94223809D01*
X154574761Y-94319047D01*
X154479523Y-94366666D01*
X154384285Y-94366666D01*
X154289047Y-94319047D01*
X154241428Y-94223809D01*
X154241428Y-93985714D01*
X154193809Y-93890476D01*
X154622380Y-93414285D02*
X153955714Y-93414285D01*
X154146190Y-93414285D02*
X154050952Y-93366666D01*
X154003333Y-93319047D01*
X153955714Y-93223809D01*
X153955714Y-93128571D01*
X154622380Y-92366666D02*
X153622380Y-92366666D01*
X154574761Y-92366666D02*
X154622380Y-92461904D01*
X154622380Y-92652380D01*
X154574761Y-92747619D01*
X154527142Y-92795238D01*
X154431904Y-92842857D01*
X154146190Y-92842857D01*
X154050952Y-92795238D01*
X154003333Y-92747619D01*
X153955714Y-92652380D01*
X153955714Y-92461904D01*
X154003333Y-92366666D01*
X153622380Y-91271428D02*
X153622380Y-90700000D01*
X154622380Y-90985714D02*
X153622380Y-90985714D01*
X154622380Y-90366666D02*
X153622380Y-90366666D01*
X154622380Y-89938095D02*
X154098571Y-89938095D01*
X154003333Y-89985714D01*
X153955714Y-90080952D01*
X153955714Y-90223809D01*
X154003333Y-90319047D01*
X154050952Y-90366666D01*
X154622380Y-89461904D02*
X153955714Y-89461904D01*
X153622380Y-89461904D02*
X153670000Y-89509523D01*
X153717619Y-89461904D01*
X153670000Y-89414285D01*
X153622380Y-89461904D01*
X153717619Y-89461904D01*
X154574761Y-88557142D02*
X154622380Y-88652380D01*
X154622380Y-88842857D01*
X154574761Y-88938095D01*
X154527142Y-88985714D01*
X154431904Y-89033333D01*
X154146190Y-89033333D01*
X154050952Y-88985714D01*
X154003333Y-88938095D01*
X153955714Y-88842857D01*
X153955714Y-88652380D01*
X154003333Y-88557142D01*
X154622380Y-88128571D02*
X153622380Y-88128571D01*
X154241428Y-88033333D02*
X154622380Y-87747619D01*
X153955714Y-87747619D02*
X154336666Y-88128571D01*
X153955714Y-87319047D02*
X154622380Y-87319047D01*
X154050952Y-87319047D02*
X154003333Y-87271428D01*
X153955714Y-87176190D01*
X153955714Y-87033333D01*
X154003333Y-86938095D01*
X154098571Y-86890476D01*
X154622380Y-86890476D01*
X154574761Y-86033333D02*
X154622380Y-86128571D01*
X154622380Y-86319047D01*
X154574761Y-86414285D01*
X154479523Y-86461904D01*
X154098571Y-86461904D01*
X154003333Y-86414285D01*
X153955714Y-86319047D01*
X153955714Y-86128571D01*
X154003333Y-86033333D01*
X154098571Y-85985714D01*
X154193809Y-85985714D01*
X154289047Y-86461904D01*
X154574761Y-85604761D02*
X154622380Y-85509523D01*
X154622380Y-85319047D01*
X154574761Y-85223809D01*
X154479523Y-85176190D01*
X154431904Y-85176190D01*
X154336666Y-85223809D01*
X154289047Y-85319047D01*
X154289047Y-85461904D01*
X154241428Y-85557142D01*
X154146190Y-85604761D01*
X154098571Y-85604761D01*
X154003333Y-85557142D01*
X153955714Y-85461904D01*
X153955714Y-85319047D01*
X154003333Y-85223809D01*
X154574761Y-84795238D02*
X154622380Y-84700000D01*
X154622380Y-84509523D01*
X154574761Y-84414285D01*
X154479523Y-84366666D01*
X154431904Y-84366666D01*
X154336666Y-84414285D01*
X154289047Y-84509523D01*
X154289047Y-84652380D01*
X154241428Y-84747619D01*
X154146190Y-84795238D01*
X154098571Y-84795238D01*
X154003333Y-84747619D01*
X153955714Y-84652380D01*
X153955714Y-84509523D01*
X154003333Y-84414285D01*
X154527142Y-83938095D02*
X154574761Y-83890476D01*
X154622380Y-83938095D01*
X154574761Y-83985714D01*
X154527142Y-83938095D01*
X154622380Y-83938095D01*
X154003333Y-83938095D02*
X154050952Y-83890476D01*
X154098571Y-83938095D01*
X154050952Y-83985714D01*
X154003333Y-83938095D01*
X154098571Y-83938095D01*
X154622380Y-82176190D02*
X154622380Y-82747619D01*
X154622380Y-82461904D02*
X153622380Y-82461904D01*
X153765238Y-82557142D01*
X153860476Y-82652380D01*
X153908095Y-82747619D01*
X154527142Y-81747619D02*
X154574761Y-81700000D01*
X154622380Y-81747619D01*
X154574761Y-81795238D01*
X154527142Y-81747619D01*
X154622380Y-81747619D01*
X153622380Y-80795238D02*
X153622380Y-81271428D01*
X154098571Y-81319047D01*
X154050952Y-81271428D01*
X154003333Y-81176190D01*
X154003333Y-80938095D01*
X154050952Y-80842857D01*
X154098571Y-80795238D01*
X154193809Y-80747619D01*
X154431904Y-80747619D01*
X154527142Y-80795238D01*
X154574761Y-80842857D01*
X154622380Y-80938095D01*
X154622380Y-81176190D01*
X154574761Y-81271428D01*
X154527142Y-81319047D01*
X153622380Y-80414285D02*
X153622380Y-79747619D01*
X154622380Y-80176190D01*
X154622380Y-79366666D02*
X153955714Y-79366666D01*
X154050952Y-79366666D02*
X154003333Y-79319047D01*
X153955714Y-79223809D01*
X153955714Y-79080952D01*
X154003333Y-78985714D01*
X154098571Y-78938095D01*
X154622380Y-78938095D01*
X154098571Y-78938095D02*
X154003333Y-78890476D01*
X153955714Y-78795238D01*
X153955714Y-78652380D01*
X154003333Y-78557142D01*
X154098571Y-78509523D01*
X154622380Y-78509523D01*
X154622380Y-78033333D02*
X153955714Y-78033333D01*
X154050952Y-78033333D02*
X154003333Y-77985714D01*
X153955714Y-77890476D01*
X153955714Y-77747619D01*
X154003333Y-77652380D01*
X154098571Y-77604761D01*
X154622380Y-77604761D01*
X154098571Y-77604761D02*
X154003333Y-77557142D01*
X153955714Y-77461904D01*
X153955714Y-77319047D01*
X154003333Y-77223809D01*
X154098571Y-77176190D01*
X154622380Y-77176190D01*
%TO.C,J3*%
X154098571Y-90190476D02*
X154146190Y-90047619D01*
X154193809Y-90000000D01*
X154289047Y-89952380D01*
X154431904Y-89952380D01*
X154527142Y-90000000D01*
X154574761Y-90047619D01*
X154622380Y-90142857D01*
X154622380Y-90523809D01*
X153622380Y-90523809D01*
X153622380Y-90190476D01*
X153670000Y-90095238D01*
X153717619Y-90047619D01*
X153812857Y-90000000D01*
X153908095Y-90000000D01*
X154003333Y-90047619D01*
X154050952Y-90095238D01*
X154098571Y-90190476D01*
X154098571Y-90523809D01*
X154622380Y-89380952D02*
X154574761Y-89476190D01*
X154527142Y-89523809D01*
X154431904Y-89571428D01*
X154146190Y-89571428D01*
X154050952Y-89523809D01*
X154003333Y-89476190D01*
X153955714Y-89380952D01*
X153955714Y-89238095D01*
X154003333Y-89142857D01*
X154050952Y-89095238D01*
X154146190Y-89047619D01*
X154431904Y-89047619D01*
X154527142Y-89095238D01*
X154574761Y-89142857D01*
X154622380Y-89238095D01*
X154622380Y-89380952D01*
X154622380Y-88190476D02*
X154098571Y-88190476D01*
X154003333Y-88238095D01*
X153955714Y-88333333D01*
X153955714Y-88523809D01*
X154003333Y-88619047D01*
X154574761Y-88190476D02*
X154622380Y-88285714D01*
X154622380Y-88523809D01*
X154574761Y-88619047D01*
X154479523Y-88666666D01*
X154384285Y-88666666D01*
X154289047Y-88619047D01*
X154241428Y-88523809D01*
X154241428Y-88285714D01*
X154193809Y-88190476D01*
X154622380Y-87714285D02*
X153955714Y-87714285D01*
X154146190Y-87714285D02*
X154050952Y-87666666D01*
X154003333Y-87619047D01*
X153955714Y-87523809D01*
X153955714Y-87428571D01*
X154622380Y-86666666D02*
X153622380Y-86666666D01*
X154574761Y-86666666D02*
X154622380Y-86761904D01*
X154622380Y-86952380D01*
X154574761Y-87047619D01*
X154527142Y-87095238D01*
X154431904Y-87142857D01*
X154146190Y-87142857D01*
X154050952Y-87095238D01*
X154003333Y-87047619D01*
X153955714Y-86952380D01*
X153955714Y-86761904D01*
X154003333Y-86666666D01*
X153622380Y-85571428D02*
X153622380Y-85000000D01*
X154622380Y-85285714D02*
X153622380Y-85285714D01*
X154622380Y-84666666D02*
X153622380Y-84666666D01*
X154622380Y-84238095D02*
X154098571Y-84238095D01*
X154003333Y-84285714D01*
X153955714Y-84380952D01*
X153955714Y-84523809D01*
X154003333Y-84619047D01*
X154050952Y-84666666D01*
X154622380Y-83761904D02*
X153955714Y-83761904D01*
X153622380Y-83761904D02*
X153670000Y-83809523D01*
X153717619Y-83761904D01*
X153670000Y-83714285D01*
X153622380Y-83761904D01*
X153717619Y-83761904D01*
X154574761Y-82857142D02*
X154622380Y-82952380D01*
X154622380Y-83142857D01*
X154574761Y-83238095D01*
X154527142Y-83285714D01*
X154431904Y-83333333D01*
X154146190Y-83333333D01*
X154050952Y-83285714D01*
X154003333Y-83238095D01*
X153955714Y-83142857D01*
X153955714Y-82952380D01*
X154003333Y-82857142D01*
X154622380Y-82428571D02*
X153622380Y-82428571D01*
X154241428Y-82333333D02*
X154622380Y-82047619D01*
X153955714Y-82047619D02*
X154336666Y-82428571D01*
X153955714Y-81619047D02*
X154622380Y-81619047D01*
X154050952Y-81619047D02*
X154003333Y-81571428D01*
X153955714Y-81476190D01*
X153955714Y-81333333D01*
X154003333Y-81238095D01*
X154098571Y-81190476D01*
X154622380Y-81190476D01*
X154574761Y-80333333D02*
X154622380Y-80428571D01*
X154622380Y-80619047D01*
X154574761Y-80714285D01*
X154479523Y-80761904D01*
X154098571Y-80761904D01*
X154003333Y-80714285D01*
X153955714Y-80619047D01*
X153955714Y-80428571D01*
X154003333Y-80333333D01*
X154098571Y-80285714D01*
X154193809Y-80285714D01*
X154289047Y-80761904D01*
X154574761Y-79904761D02*
X154622380Y-79809523D01*
X154622380Y-79619047D01*
X154574761Y-79523809D01*
X154479523Y-79476190D01*
X154431904Y-79476190D01*
X154336666Y-79523809D01*
X154289047Y-79619047D01*
X154289047Y-79761904D01*
X154241428Y-79857142D01*
X154146190Y-79904761D01*
X154098571Y-79904761D01*
X154003333Y-79857142D01*
X153955714Y-79761904D01*
X153955714Y-79619047D01*
X154003333Y-79523809D01*
X154574761Y-79095238D02*
X154622380Y-79000000D01*
X154622380Y-78809523D01*
X154574761Y-78714285D01*
X154479523Y-78666666D01*
X154431904Y-78666666D01*
X154336666Y-78714285D01*
X154289047Y-78809523D01*
X154289047Y-78952380D01*
X154241428Y-79047619D01*
X154146190Y-79095238D01*
X154098571Y-79095238D01*
X154003333Y-79047619D01*
X153955714Y-78952380D01*
X153955714Y-78809523D01*
X154003333Y-78714285D01*
X154527142Y-78238095D02*
X154574761Y-78190476D01*
X154622380Y-78238095D01*
X154574761Y-78285714D01*
X154527142Y-78238095D01*
X154622380Y-78238095D01*
X154003333Y-78238095D02*
X154050952Y-78190476D01*
X154098571Y-78238095D01*
X154050952Y-78285714D01*
X154003333Y-78238095D01*
X154098571Y-78238095D01*
X154622380Y-76476190D02*
X154622380Y-77047619D01*
X154622380Y-76761904D02*
X153622380Y-76761904D01*
X153765238Y-76857142D01*
X153860476Y-76952380D01*
X153908095Y-77047619D01*
X154527142Y-76047619D02*
X154574761Y-76000000D01*
X154622380Y-76047619D01*
X154574761Y-76095238D01*
X154527142Y-76047619D01*
X154622380Y-76047619D01*
X153622380Y-75095238D02*
X153622380Y-75571428D01*
X154098571Y-75619047D01*
X154050952Y-75571428D01*
X154003333Y-75476190D01*
X154003333Y-75238095D01*
X154050952Y-75142857D01*
X154098571Y-75095238D01*
X154193809Y-75047619D01*
X154431904Y-75047619D01*
X154527142Y-75095238D01*
X154574761Y-75142857D01*
X154622380Y-75238095D01*
X154622380Y-75476190D01*
X154574761Y-75571428D01*
X154527142Y-75619047D01*
X153622380Y-74714285D02*
X153622380Y-74047619D01*
X154622380Y-74476190D01*
X154622380Y-73666666D02*
X153955714Y-73666666D01*
X154050952Y-73666666D02*
X154003333Y-73619047D01*
X153955714Y-73523809D01*
X153955714Y-73380952D01*
X154003333Y-73285714D01*
X154098571Y-73238095D01*
X154622380Y-73238095D01*
X154098571Y-73238095D02*
X154003333Y-73190476D01*
X153955714Y-73095238D01*
X153955714Y-72952380D01*
X154003333Y-72857142D01*
X154098571Y-72809523D01*
X154622380Y-72809523D01*
X154622380Y-72333333D02*
X153955714Y-72333333D01*
X154050952Y-72333333D02*
X154003333Y-72285714D01*
X153955714Y-72190476D01*
X153955714Y-72047619D01*
X154003333Y-71952380D01*
X154098571Y-71904761D01*
X154622380Y-71904761D01*
X154098571Y-71904761D02*
X154003333Y-71857142D01*
X153955714Y-71761904D01*
X153955714Y-71619047D01*
X154003333Y-71523809D01*
X154098571Y-71476190D01*
X154622380Y-71476190D01*
%TD*%
M02*
