%TF.GenerationSoftware,KiCad,Pcbnew,(6.0.1)*%
%TF.CreationDate,2022-08-01T14:37:07+02:00*%
%TF.ProjectId,DetectorReader,44657465-6374-46f7-9252-65616465722e,rev?*%
%TF.SameCoordinates,Original*%
%TF.FileFunction,Legend,Top*%
%TF.FilePolarity,Positive*%
%FSLAX46Y46*%
G04 Gerber Fmt 4.6, Leading zero omitted, Abs format (unit mm)*
G04 Created by KiCad (PCBNEW (6.0.1)) date 2022-08-01 14:37:07*
%MOMM*%
%LPD*%
G01*
G04 APERTURE LIST*
G04 Aperture macros list*
%AMRoundRect*
0 Rectangle with rounded corners*
0 $1 Rounding radius*
0 $2 $3 $4 $5 $6 $7 $8 $9 X,Y pos of 4 corners*
0 Add a 4 corners polygon primitive as box body*
4,1,4,$2,$3,$4,$5,$6,$7,$8,$9,$2,$3,0*
0 Add four circle primitives for the rounded corners*
1,1,$1+$1,$2,$3*
1,1,$1+$1,$4,$5*
1,1,$1+$1,$6,$7*
1,1,$1+$1,$8,$9*
0 Add four rect primitives between the rounded corners*
20,1,$1+$1,$2,$3,$4,$5,0*
20,1,$1+$1,$4,$5,$6,$7,0*
20,1,$1+$1,$6,$7,$8,$9,0*
20,1,$1+$1,$8,$9,$2,$3,0*%
%AMFreePoly0*
4,1,13,1.650000,1.015000,3.020000,1.015000,3.020000,-1.015000,1.650000,-1.015000,1.650000,-2.385000,-1.650000,-2.385000,-1.650000,-1.015000,-3.020000,-1.015000,-3.020000,1.015000,-1.650000,1.015000,-1.650000,2.385000,1.650000,2.385000,1.650000,1.015000,1.650000,1.015000,$1*%
G04 Aperture macros list end*
%ADD10C,0.200000*%
%ADD11C,0.150000*%
%ADD12C,0.120000*%
%ADD13C,2.562214*%
%ADD14RoundRect,0.225000X0.250000X-0.225000X0.250000X0.225000X-0.250000X0.225000X-0.250000X-0.225000X0*%
%ADD15RoundRect,0.225000X0.225000X0.250000X-0.225000X0.250000X-0.225000X-0.250000X0.225000X-0.250000X0*%
%ADD16RoundRect,0.225000X-0.250000X0.225000X-0.250000X-0.225000X0.250000X-0.225000X0.250000X0.225000X0*%
%ADD17R,0.300000X1.000000*%
%ADD18RoundRect,0.200000X0.275000X-0.200000X0.275000X0.200000X-0.275000X0.200000X-0.275000X-0.200000X0*%
%ADD19C,1.700000*%
%ADD20RoundRect,0.100000X0.712500X0.100000X-0.712500X0.100000X-0.712500X-0.100000X0.712500X-0.100000X0*%
%ADD21RoundRect,0.218750X-0.218750X-0.256250X0.218750X-0.256250X0.218750X0.256250X-0.218750X0.256250X0*%
%ADD22RoundRect,0.218750X0.256250X-0.218750X0.256250X0.218750X-0.256250X0.218750X-0.256250X-0.218750X0*%
%ADD23RoundRect,0.225000X-0.225000X-0.250000X0.225000X-0.250000X0.225000X0.250000X-0.225000X0.250000X0*%
%ADD24R,1.600000X1.600000*%
%ADD25FreePoly0,0.000000*%
%ADD26R,1.270000X3.600000*%
%ADD27R,1.350000X4.200000*%
%ADD28RoundRect,0.150000X-0.825000X-0.150000X0.825000X-0.150000X0.825000X0.150000X-0.825000X0.150000X0*%
%ADD29R,1.200000X0.900000*%
%ADD30RoundRect,0.200000X0.200000X0.275000X-0.200000X0.275000X-0.200000X-0.275000X0.200000X-0.275000X0*%
%ADD31RoundRect,0.200000X-0.275000X0.200000X-0.275000X-0.200000X0.275000X-0.200000X0.275000X0.200000X0*%
%ADD32RoundRect,0.150000X0.825000X0.150000X-0.825000X0.150000X-0.825000X-0.150000X0.825000X-0.150000X0*%
%ADD33RoundRect,0.150000X0.150000X-0.512500X0.150000X0.512500X-0.150000X0.512500X-0.150000X-0.512500X0*%
%ADD34R,1.700000X1.700000*%
%ADD35O,1.700000X1.700000*%
%ADD36RoundRect,0.150000X0.587500X0.150000X-0.587500X0.150000X-0.587500X-0.150000X0.587500X-0.150000X0*%
%ADD37R,3.600000X1.270000*%
%ADD38R,4.200000X1.350000*%
%ADD39RoundRect,0.200000X-0.200000X-0.275000X0.200000X-0.275000X0.200000X0.275000X-0.200000X0.275000X0*%
%ADD40R,1.400000X0.280000*%
%ADD41R,0.850000X0.750000*%
%ADD42R,1.350000X0.400000*%
%ADD43O,1.550000X0.890000*%
%ADD44R,1.550000X1.200000*%
%ADD45O,0.950000X1.250000*%
%ADD46R,1.550000X1.500000*%
%ADD47RoundRect,0.218750X-0.381250X0.218750X-0.381250X-0.218750X0.381250X-0.218750X0.381250X0.218750X0*%
%ADD48R,1.200000X0.400000*%
%ADD49C,0.800000*%
%ADD50C,5.000000*%
G04 APERTURE END LIST*
D10*
X115500000Y-75250000D02*
G75*
G03*
X115500000Y-75250000I-100000J0D01*
G01*
D11*
X115250000Y-94960000D02*
X115250000Y-93960000D01*
X115250000Y-94460000D02*
X114250000Y-94460000D01*
D10*
X148330000Y-77500000D02*
G75*
G03*
X148330000Y-77500000I-100000J0D01*
G01*
X120250000Y-73500000D02*
G75*
G03*
X120250000Y-73500000I-100000J0D01*
G01*
D11*
X114202380Y-90150476D02*
X114202380Y-89579047D01*
X115202380Y-89864761D02*
X114202380Y-89864761D01*
X115202380Y-89340952D02*
X114535714Y-88817142D01*
X114535714Y-89340952D02*
X115202380Y-88817142D01*
X114202380Y-98983809D02*
X115011904Y-98983809D01*
X115107142Y-98936190D01*
X115154761Y-98888571D01*
X115202380Y-98793333D01*
X115202380Y-98602857D01*
X115154761Y-98507619D01*
X115107142Y-98460000D01*
X115011904Y-98412380D01*
X114202380Y-98412380D01*
X115202380Y-97936190D02*
X114202380Y-97936190D01*
X114202380Y-97555238D01*
X114250000Y-97460000D01*
X114297619Y-97412380D01*
X114392857Y-97364761D01*
X114535714Y-97364761D01*
X114630952Y-97412380D01*
X114678571Y-97460000D01*
X114726190Y-97555238D01*
X114726190Y-97936190D01*
X115202380Y-96936190D02*
X114202380Y-96936190D01*
X114202380Y-96698095D01*
X114250000Y-96555238D01*
X114345238Y-96460000D01*
X114440476Y-96412380D01*
X114630952Y-96364761D01*
X114773809Y-96364761D01*
X114964285Y-96412380D01*
X115059523Y-96460000D01*
X115154761Y-96555238D01*
X115202380Y-96698095D01*
X115202380Y-96936190D01*
X115202380Y-95936190D02*
X114202380Y-95936190D01*
X123335595Y-85452380D02*
X123335595Y-84452380D01*
X123668928Y-85166666D01*
X124002261Y-84452380D01*
X124002261Y-85452380D01*
X124621309Y-85452380D02*
X124526071Y-85404761D01*
X124478452Y-85357142D01*
X124430833Y-85261904D01*
X124430833Y-84976190D01*
X124478452Y-84880952D01*
X124526071Y-84833333D01*
X124621309Y-84785714D01*
X124764166Y-84785714D01*
X124859404Y-84833333D01*
X124907023Y-84880952D01*
X124954642Y-84976190D01*
X124954642Y-85261904D01*
X124907023Y-85357142D01*
X124859404Y-85404761D01*
X124764166Y-85452380D01*
X124621309Y-85452380D01*
X125811785Y-85452380D02*
X125811785Y-84452380D01*
X125811785Y-85404761D02*
X125716547Y-85452380D01*
X125526071Y-85452380D01*
X125430833Y-85404761D01*
X125383214Y-85357142D01*
X125335595Y-85261904D01*
X125335595Y-84976190D01*
X125383214Y-84880952D01*
X125430833Y-84833333D01*
X125526071Y-84785714D01*
X125716547Y-84785714D01*
X125811785Y-84833333D01*
X114202380Y-92150476D02*
X114202380Y-92626666D01*
X114678571Y-92674285D01*
X114630952Y-92626666D01*
X114583333Y-92531428D01*
X114583333Y-92293333D01*
X114630952Y-92198095D01*
X114678571Y-92150476D01*
X114773809Y-92102857D01*
X115011904Y-92102857D01*
X115107142Y-92150476D01*
X115154761Y-92198095D01*
X115202380Y-92293333D01*
X115202380Y-92531428D01*
X115154761Y-92626666D01*
X115107142Y-92674285D01*
X114202380Y-91817142D02*
X115202380Y-91483809D01*
X114202380Y-91150476D01*
X115202380Y-87055238D02*
X114726190Y-87388571D01*
X115202380Y-87626666D02*
X114202380Y-87626666D01*
X114202380Y-87245714D01*
X114250000Y-87150476D01*
X114297619Y-87102857D01*
X114392857Y-87055238D01*
X114535714Y-87055238D01*
X114630952Y-87102857D01*
X114678571Y-87150476D01*
X114726190Y-87245714D01*
X114726190Y-87626666D01*
X115202380Y-86721904D02*
X114535714Y-86198095D01*
X114535714Y-86721904D02*
X115202380Y-86198095D01*
%TO.C,C11*%
X152527142Y-86892857D02*
X152574761Y-86940476D01*
X152622380Y-87083333D01*
X152622380Y-87178571D01*
X152574761Y-87321428D01*
X152479523Y-87416666D01*
X152384285Y-87464285D01*
X152193809Y-87511904D01*
X152050952Y-87511904D01*
X151860476Y-87464285D01*
X151765238Y-87416666D01*
X151670000Y-87321428D01*
X151622380Y-87178571D01*
X151622380Y-87083333D01*
X151670000Y-86940476D01*
X151717619Y-86892857D01*
X152622380Y-85940476D02*
X152622380Y-86511904D01*
X152622380Y-86226190D02*
X151622380Y-86226190D01*
X151765238Y-86321428D01*
X151860476Y-86416666D01*
X151908095Y-86511904D01*
X152622380Y-84988095D02*
X152622380Y-85559523D01*
X152622380Y-85273809D02*
X151622380Y-85273809D01*
X151765238Y-85369047D01*
X151860476Y-85464285D01*
X151908095Y-85559523D01*
%TO.C,C8*%
X142333333Y-82357142D02*
X142285714Y-82404761D01*
X142142857Y-82452380D01*
X142047619Y-82452380D01*
X141904761Y-82404761D01*
X141809523Y-82309523D01*
X141761904Y-82214285D01*
X141714285Y-82023809D01*
X141714285Y-81880952D01*
X141761904Y-81690476D01*
X141809523Y-81595238D01*
X141904761Y-81500000D01*
X142047619Y-81452380D01*
X142142857Y-81452380D01*
X142285714Y-81500000D01*
X142333333Y-81547619D01*
X142904761Y-81880952D02*
X142809523Y-81833333D01*
X142761904Y-81785714D01*
X142714285Y-81690476D01*
X142714285Y-81642857D01*
X142761904Y-81547619D01*
X142809523Y-81500000D01*
X142904761Y-81452380D01*
X143095238Y-81452380D01*
X143190476Y-81500000D01*
X143238095Y-81547619D01*
X143285714Y-81642857D01*
X143285714Y-81690476D01*
X143238095Y-81785714D01*
X143190476Y-81833333D01*
X143095238Y-81880952D01*
X142904761Y-81880952D01*
X142809523Y-81928571D01*
X142761904Y-81976190D01*
X142714285Y-82071428D01*
X142714285Y-82261904D01*
X142761904Y-82357142D01*
X142809523Y-82404761D01*
X142904761Y-82452380D01*
X143095238Y-82452380D01*
X143190476Y-82404761D01*
X143238095Y-82357142D01*
X143285714Y-82261904D01*
X143285714Y-82071428D01*
X143238095Y-81976190D01*
X143190476Y-81928571D01*
X143095238Y-81880952D01*
%TO.C,C3*%
X129037142Y-77166666D02*
X129084761Y-77214285D01*
X129132380Y-77357142D01*
X129132380Y-77452380D01*
X129084761Y-77595238D01*
X128989523Y-77690476D01*
X128894285Y-77738095D01*
X128703809Y-77785714D01*
X128560952Y-77785714D01*
X128370476Y-77738095D01*
X128275238Y-77690476D01*
X128180000Y-77595238D01*
X128132380Y-77452380D01*
X128132380Y-77357142D01*
X128180000Y-77214285D01*
X128227619Y-77166666D01*
X128132380Y-76833333D02*
X128132380Y-76214285D01*
X128513333Y-76547619D01*
X128513333Y-76404761D01*
X128560952Y-76309523D01*
X128608571Y-76261904D01*
X128703809Y-76214285D01*
X128941904Y-76214285D01*
X129037142Y-76261904D01*
X129084761Y-76309523D01*
X129132380Y-76404761D01*
X129132380Y-76690476D01*
X129084761Y-76785714D01*
X129037142Y-76833333D01*
%TO.C,C15*%
X158107142Y-94857142D02*
X158059523Y-94904761D01*
X157916666Y-94952380D01*
X157821428Y-94952380D01*
X157678571Y-94904761D01*
X157583333Y-94809523D01*
X157535714Y-94714285D01*
X157488095Y-94523809D01*
X157488095Y-94380952D01*
X157535714Y-94190476D01*
X157583333Y-94095238D01*
X157678571Y-94000000D01*
X157821428Y-93952380D01*
X157916666Y-93952380D01*
X158059523Y-94000000D01*
X158107142Y-94047619D01*
X159059523Y-94952380D02*
X158488095Y-94952380D01*
X158773809Y-94952380D02*
X158773809Y-93952380D01*
X158678571Y-94095238D01*
X158583333Y-94190476D01*
X158488095Y-94238095D01*
X159964285Y-93952380D02*
X159488095Y-93952380D01*
X159440476Y-94428571D01*
X159488095Y-94380952D01*
X159583333Y-94333333D01*
X159821428Y-94333333D01*
X159916666Y-94380952D01*
X159964285Y-94428571D01*
X160011904Y-94523809D01*
X160011904Y-94761904D01*
X159964285Y-94857142D01*
X159916666Y-94904761D01*
X159821428Y-94952380D01*
X159583333Y-94952380D01*
X159488095Y-94904761D01*
X159440476Y-94857142D01*
%TO.C,U6*%
X154722380Y-93261904D02*
X155531904Y-93261904D01*
X155627142Y-93214285D01*
X155674761Y-93166666D01*
X155722380Y-93071428D01*
X155722380Y-92880952D01*
X155674761Y-92785714D01*
X155627142Y-92738095D01*
X155531904Y-92690476D01*
X154722380Y-92690476D01*
X154722380Y-91785714D02*
X154722380Y-91976190D01*
X154770000Y-92071428D01*
X154817619Y-92119047D01*
X154960476Y-92214285D01*
X155150952Y-92261904D01*
X155531904Y-92261904D01*
X155627142Y-92214285D01*
X155674761Y-92166666D01*
X155722380Y-92071428D01*
X155722380Y-91880952D01*
X155674761Y-91785714D01*
X155627142Y-91738095D01*
X155531904Y-91690476D01*
X155293809Y-91690476D01*
X155198571Y-91738095D01*
X155150952Y-91785714D01*
X155103333Y-91880952D01*
X155103333Y-92071428D01*
X155150952Y-92166666D01*
X155198571Y-92214285D01*
X155293809Y-92261904D01*
%TO.C,R8*%
X141702380Y-87666666D02*
X141226190Y-88000000D01*
X141702380Y-88238095D02*
X140702380Y-88238095D01*
X140702380Y-87857142D01*
X140750000Y-87761904D01*
X140797619Y-87714285D01*
X140892857Y-87666666D01*
X141035714Y-87666666D01*
X141130952Y-87714285D01*
X141178571Y-87761904D01*
X141226190Y-87857142D01*
X141226190Y-88238095D01*
X141130952Y-87095238D02*
X141083333Y-87190476D01*
X141035714Y-87238095D01*
X140940476Y-87285714D01*
X140892857Y-87285714D01*
X140797619Y-87238095D01*
X140750000Y-87190476D01*
X140702380Y-87095238D01*
X140702380Y-86904761D01*
X140750000Y-86809523D01*
X140797619Y-86761904D01*
X140892857Y-86714285D01*
X140940476Y-86714285D01*
X141035714Y-86761904D01*
X141083333Y-86809523D01*
X141130952Y-86904761D01*
X141130952Y-87095238D01*
X141178571Y-87190476D01*
X141226190Y-87238095D01*
X141321428Y-87285714D01*
X141511904Y-87285714D01*
X141607142Y-87238095D01*
X141654761Y-87190476D01*
X141702380Y-87095238D01*
X141702380Y-86904761D01*
X141654761Y-86809523D01*
X141607142Y-86761904D01*
X141511904Y-86714285D01*
X141321428Y-86714285D01*
X141226190Y-86761904D01*
X141178571Y-86809523D01*
X141130952Y-86904761D01*
%TO.C,C17*%
X140107142Y-87602857D02*
X140154761Y-87650476D01*
X140202380Y-87793333D01*
X140202380Y-87888571D01*
X140154761Y-88031428D01*
X140059523Y-88126666D01*
X139964285Y-88174285D01*
X139773809Y-88221904D01*
X139630952Y-88221904D01*
X139440476Y-88174285D01*
X139345238Y-88126666D01*
X139250000Y-88031428D01*
X139202380Y-87888571D01*
X139202380Y-87793333D01*
X139250000Y-87650476D01*
X139297619Y-87602857D01*
X140202380Y-86650476D02*
X140202380Y-87221904D01*
X140202380Y-86936190D02*
X139202380Y-86936190D01*
X139345238Y-87031428D01*
X139440476Y-87126666D01*
X139488095Y-87221904D01*
X139202380Y-86317142D02*
X139202380Y-85650476D01*
X140202380Y-86079047D01*
%TO.C,U7*%
X134638095Y-97912380D02*
X134638095Y-98721904D01*
X134685714Y-98817142D01*
X134733333Y-98864761D01*
X134828571Y-98912380D01*
X135019047Y-98912380D01*
X135114285Y-98864761D01*
X135161904Y-98817142D01*
X135209523Y-98721904D01*
X135209523Y-97912380D01*
X135590476Y-97912380D02*
X136257142Y-97912380D01*
X135828571Y-98912380D01*
%TO.C,D1*%
X116761904Y-83452380D02*
X116761904Y-82452380D01*
X117000000Y-82452380D01*
X117142857Y-82500000D01*
X117238095Y-82595238D01*
X117285714Y-82690476D01*
X117333333Y-82880952D01*
X117333333Y-83023809D01*
X117285714Y-83214285D01*
X117238095Y-83309523D01*
X117142857Y-83404761D01*
X117000000Y-83452380D01*
X116761904Y-83452380D01*
X118285714Y-83452380D02*
X117714285Y-83452380D01*
X118000000Y-83452380D02*
X118000000Y-82452380D01*
X117904761Y-82595238D01*
X117809523Y-82690476D01*
X117714285Y-82738095D01*
%TO.C,L2*%
X139702380Y-77666666D02*
X139702380Y-78142857D01*
X138702380Y-78142857D01*
X138797619Y-77380952D02*
X138750000Y-77333333D01*
X138702380Y-77238095D01*
X138702380Y-77000000D01*
X138750000Y-76904761D01*
X138797619Y-76857142D01*
X138892857Y-76809523D01*
X138988095Y-76809523D01*
X139130952Y-76857142D01*
X139702380Y-77428571D01*
X139702380Y-76809523D01*
%TO.C,C2*%
X118357142Y-81307246D02*
X118404761Y-81354865D01*
X118452380Y-81497722D01*
X118452380Y-81592960D01*
X118404761Y-81735818D01*
X118309523Y-81831056D01*
X118214285Y-81878675D01*
X118023809Y-81926294D01*
X117880952Y-81926294D01*
X117690476Y-81878675D01*
X117595238Y-81831056D01*
X117500000Y-81735818D01*
X117452380Y-81592960D01*
X117452380Y-81497722D01*
X117500000Y-81354865D01*
X117547619Y-81307246D01*
X117547619Y-80926294D02*
X117500000Y-80878675D01*
X117452380Y-80783437D01*
X117452380Y-80545341D01*
X117500000Y-80450103D01*
X117547619Y-80402484D01*
X117642857Y-80354865D01*
X117738095Y-80354865D01*
X117880952Y-80402484D01*
X118452380Y-80973913D01*
X118452380Y-80354865D01*
%TO.C,C1*%
X116583333Y-98396142D02*
X116535714Y-98443761D01*
X116392857Y-98491380D01*
X116297619Y-98491380D01*
X116154761Y-98443761D01*
X116059523Y-98348523D01*
X116011904Y-98253285D01*
X115964285Y-98062809D01*
X115964285Y-97919952D01*
X116011904Y-97729476D01*
X116059523Y-97634238D01*
X116154761Y-97539000D01*
X116297619Y-97491380D01*
X116392857Y-97491380D01*
X116535714Y-97539000D01*
X116583333Y-97586619D01*
X117535714Y-98491380D02*
X116964285Y-98491380D01*
X117250000Y-98491380D02*
X117250000Y-97491380D01*
X117154761Y-97634238D01*
X117059523Y-97729476D01*
X116964285Y-97777095D01*
%TO.C,U3*%
X149988095Y-76702380D02*
X149988095Y-77511904D01*
X150035714Y-77607142D01*
X150083333Y-77654761D01*
X150178571Y-77702380D01*
X150369047Y-77702380D01*
X150464285Y-77654761D01*
X150511904Y-77607142D01*
X150559523Y-77511904D01*
X150559523Y-76702380D01*
X150940476Y-76702380D02*
X151559523Y-76702380D01*
X151226190Y-77083333D01*
X151369047Y-77083333D01*
X151464285Y-77130952D01*
X151511904Y-77178571D01*
X151559523Y-77273809D01*
X151559523Y-77511904D01*
X151511904Y-77607142D01*
X151464285Y-77654761D01*
X151369047Y-77702380D01*
X151083333Y-77702380D01*
X150988095Y-77654761D01*
X150940476Y-77607142D01*
%TO.C,J4*%
X148396666Y-73702380D02*
X148396666Y-74416666D01*
X148349047Y-74559523D01*
X148253809Y-74654761D01*
X148110952Y-74702380D01*
X148015714Y-74702380D01*
X149301428Y-74035714D02*
X149301428Y-74702380D01*
X149063333Y-73654761D02*
X148825238Y-74369047D01*
X149444285Y-74369047D01*
%TO.C,U8*%
X136738095Y-86702380D02*
X136738095Y-87511904D01*
X136785714Y-87607142D01*
X136833333Y-87654761D01*
X136928571Y-87702380D01*
X137119047Y-87702380D01*
X137214285Y-87654761D01*
X137261904Y-87607142D01*
X137309523Y-87511904D01*
X137309523Y-86702380D01*
X137928571Y-87130952D02*
X137833333Y-87083333D01*
X137785714Y-87035714D01*
X137738095Y-86940476D01*
X137738095Y-86892857D01*
X137785714Y-86797619D01*
X137833333Y-86750000D01*
X137928571Y-86702380D01*
X138119047Y-86702380D01*
X138214285Y-86750000D01*
X138261904Y-86797619D01*
X138309523Y-86892857D01*
X138309523Y-86940476D01*
X138261904Y-87035714D01*
X138214285Y-87083333D01*
X138119047Y-87130952D01*
X137928571Y-87130952D01*
X137833333Y-87178571D01*
X137785714Y-87226190D01*
X137738095Y-87321428D01*
X137738095Y-87511904D01*
X137785714Y-87607142D01*
X137833333Y-87654761D01*
X137928571Y-87702380D01*
X138119047Y-87702380D01*
X138214285Y-87654761D01*
X138261904Y-87607142D01*
X138309523Y-87511904D01*
X138309523Y-87321428D01*
X138261904Y-87226190D01*
X138214285Y-87178571D01*
X138119047Y-87130952D01*
%TO.C,D2*%
X116761904Y-85202380D02*
X116761904Y-84202380D01*
X117000000Y-84202380D01*
X117142857Y-84250000D01*
X117238095Y-84345238D01*
X117285714Y-84440476D01*
X117333333Y-84630952D01*
X117333333Y-84773809D01*
X117285714Y-84964285D01*
X117238095Y-85059523D01*
X117142857Y-85154761D01*
X117000000Y-85202380D01*
X116761904Y-85202380D01*
X117714285Y-84297619D02*
X117761904Y-84250000D01*
X117857142Y-84202380D01*
X118095238Y-84202380D01*
X118190476Y-84250000D01*
X118238095Y-84297619D01*
X118285714Y-84392857D01*
X118285714Y-84488095D01*
X118238095Y-84630952D01*
X117666666Y-85202380D01*
X118285714Y-85202380D01*
%TO.C,D3*%
X126761904Y-89412380D02*
X126761904Y-88412380D01*
X127000000Y-88412380D01*
X127142857Y-88460000D01*
X127238095Y-88555238D01*
X127285714Y-88650476D01*
X127333333Y-88840952D01*
X127333333Y-88983809D01*
X127285714Y-89174285D01*
X127238095Y-89269523D01*
X127142857Y-89364761D01*
X127000000Y-89412380D01*
X126761904Y-89412380D01*
X127666666Y-88412380D02*
X128285714Y-88412380D01*
X127952380Y-88793333D01*
X128095238Y-88793333D01*
X128190476Y-88840952D01*
X128238095Y-88888571D01*
X128285714Y-88983809D01*
X128285714Y-89221904D01*
X128238095Y-89317142D01*
X128190476Y-89364761D01*
X128095238Y-89412380D01*
X127809523Y-89412380D01*
X127714285Y-89364761D01*
X127666666Y-89317142D01*
%TO.C,R10*%
X124857142Y-93952380D02*
X124523809Y-93476190D01*
X124285714Y-93952380D02*
X124285714Y-92952380D01*
X124666666Y-92952380D01*
X124761904Y-93000000D01*
X124809523Y-93047619D01*
X124857142Y-93142857D01*
X124857142Y-93285714D01*
X124809523Y-93380952D01*
X124761904Y-93428571D01*
X124666666Y-93476190D01*
X124285714Y-93476190D01*
X125809523Y-93952380D02*
X125238095Y-93952380D01*
X125523809Y-93952380D02*
X125523809Y-92952380D01*
X125428571Y-93095238D01*
X125333333Y-93190476D01*
X125238095Y-93238095D01*
X126428571Y-92952380D02*
X126523809Y-92952380D01*
X126619047Y-93000000D01*
X126666666Y-93047619D01*
X126714285Y-93142857D01*
X126761904Y-93333333D01*
X126761904Y-93571428D01*
X126714285Y-93761904D01*
X126666666Y-93857142D01*
X126619047Y-93904761D01*
X126523809Y-93952380D01*
X126428571Y-93952380D01*
X126333333Y-93904761D01*
X126285714Y-93857142D01*
X126238095Y-93761904D01*
X126190476Y-93571428D01*
X126190476Y-93333333D01*
X126238095Y-93142857D01*
X126285714Y-93047619D01*
X126333333Y-93000000D01*
X126428571Y-92952380D01*
%TO.C,C16*%
X141357142Y-95602857D02*
X141404761Y-95650476D01*
X141452380Y-95793333D01*
X141452380Y-95888571D01*
X141404761Y-96031428D01*
X141309523Y-96126666D01*
X141214285Y-96174285D01*
X141023809Y-96221904D01*
X140880952Y-96221904D01*
X140690476Y-96174285D01*
X140595238Y-96126666D01*
X140500000Y-96031428D01*
X140452380Y-95888571D01*
X140452380Y-95793333D01*
X140500000Y-95650476D01*
X140547619Y-95602857D01*
X141452380Y-94650476D02*
X141452380Y-95221904D01*
X141452380Y-94936190D02*
X140452380Y-94936190D01*
X140595238Y-95031428D01*
X140690476Y-95126666D01*
X140738095Y-95221904D01*
X140452380Y-93793333D02*
X140452380Y-93983809D01*
X140500000Y-94079047D01*
X140547619Y-94126666D01*
X140690476Y-94221904D01*
X140880952Y-94269523D01*
X141261904Y-94269523D01*
X141357142Y-94221904D01*
X141404761Y-94174285D01*
X141452380Y-94079047D01*
X141452380Y-93888571D01*
X141404761Y-93793333D01*
X141357142Y-93745714D01*
X141261904Y-93698095D01*
X141023809Y-93698095D01*
X140928571Y-93745714D01*
X140880952Y-93793333D01*
X140833333Y-93888571D01*
X140833333Y-94079047D01*
X140880952Y-94174285D01*
X140928571Y-94221904D01*
X141023809Y-94269523D01*
%TO.C,R5*%
X131372380Y-76179166D02*
X130896190Y-76512500D01*
X131372380Y-76750595D02*
X130372380Y-76750595D01*
X130372380Y-76369642D01*
X130420000Y-76274404D01*
X130467619Y-76226785D01*
X130562857Y-76179166D01*
X130705714Y-76179166D01*
X130800952Y-76226785D01*
X130848571Y-76274404D01*
X130896190Y-76369642D01*
X130896190Y-76750595D01*
X130372380Y-75274404D02*
X130372380Y-75750595D01*
X130848571Y-75798214D01*
X130800952Y-75750595D01*
X130753333Y-75655357D01*
X130753333Y-75417261D01*
X130800952Y-75322023D01*
X130848571Y-75274404D01*
X130943809Y-75226785D01*
X131181904Y-75226785D01*
X131277142Y-75274404D01*
X131324761Y-75322023D01*
X131372380Y-75417261D01*
X131372380Y-75655357D01*
X131324761Y-75750595D01*
X131277142Y-75798214D01*
%TO.C,R13*%
X124357142Y-98382380D02*
X124023809Y-97906190D01*
X123785714Y-98382380D02*
X123785714Y-97382380D01*
X124166666Y-97382380D01*
X124261904Y-97430000D01*
X124309523Y-97477619D01*
X124357142Y-97572857D01*
X124357142Y-97715714D01*
X124309523Y-97810952D01*
X124261904Y-97858571D01*
X124166666Y-97906190D01*
X123785714Y-97906190D01*
X125309523Y-98382380D02*
X124738095Y-98382380D01*
X125023809Y-98382380D02*
X125023809Y-97382380D01*
X124928571Y-97525238D01*
X124833333Y-97620476D01*
X124738095Y-97668095D01*
X125642857Y-97382380D02*
X126261904Y-97382380D01*
X125928571Y-97763333D01*
X126071428Y-97763333D01*
X126166666Y-97810952D01*
X126214285Y-97858571D01*
X126261904Y-97953809D01*
X126261904Y-98191904D01*
X126214285Y-98287142D01*
X126166666Y-98334761D01*
X126071428Y-98382380D01*
X125785714Y-98382380D01*
X125690476Y-98334761D01*
X125642857Y-98287142D01*
%TO.C,C10*%
X143862142Y-80787142D02*
X143814523Y-80834761D01*
X143671666Y-80882380D01*
X143576428Y-80882380D01*
X143433571Y-80834761D01*
X143338333Y-80739523D01*
X143290714Y-80644285D01*
X143243095Y-80453809D01*
X143243095Y-80310952D01*
X143290714Y-80120476D01*
X143338333Y-80025238D01*
X143433571Y-79930000D01*
X143576428Y-79882380D01*
X143671666Y-79882380D01*
X143814523Y-79930000D01*
X143862142Y-79977619D01*
X144814523Y-80882380D02*
X144243095Y-80882380D01*
X144528809Y-80882380D02*
X144528809Y-79882380D01*
X144433571Y-80025238D01*
X144338333Y-80120476D01*
X144243095Y-80168095D01*
X145433571Y-79882380D02*
X145528809Y-79882380D01*
X145624047Y-79930000D01*
X145671666Y-79977619D01*
X145719285Y-80072857D01*
X145766904Y-80263333D01*
X145766904Y-80501428D01*
X145719285Y-80691904D01*
X145671666Y-80787142D01*
X145624047Y-80834761D01*
X145528809Y-80882380D01*
X145433571Y-80882380D01*
X145338333Y-80834761D01*
X145290714Y-80787142D01*
X145243095Y-80691904D01*
X145195476Y-80501428D01*
X145195476Y-80263333D01*
X145243095Y-80072857D01*
X145290714Y-79977619D01*
X145338333Y-79930000D01*
X145433571Y-79882380D01*
%TO.C,R7*%
X143202380Y-87626666D02*
X142726190Y-87960000D01*
X143202380Y-88198095D02*
X142202380Y-88198095D01*
X142202380Y-87817142D01*
X142250000Y-87721904D01*
X142297619Y-87674285D01*
X142392857Y-87626666D01*
X142535714Y-87626666D01*
X142630952Y-87674285D01*
X142678571Y-87721904D01*
X142726190Y-87817142D01*
X142726190Y-88198095D01*
X142202380Y-87293333D02*
X142202380Y-86626666D01*
X143202380Y-87055238D01*
%TO.C,D4*%
X124511904Y-89412380D02*
X124511904Y-88412380D01*
X124750000Y-88412380D01*
X124892857Y-88460000D01*
X124988095Y-88555238D01*
X125035714Y-88650476D01*
X125083333Y-88840952D01*
X125083333Y-88983809D01*
X125035714Y-89174285D01*
X124988095Y-89269523D01*
X124892857Y-89364761D01*
X124750000Y-89412380D01*
X124511904Y-89412380D01*
X125940476Y-88745714D02*
X125940476Y-89412380D01*
X125702380Y-88364761D02*
X125464285Y-89079047D01*
X126083333Y-89079047D01*
%TO.C,U1*%
X118738095Y-86491380D02*
X118738095Y-87300904D01*
X118785714Y-87396142D01*
X118833333Y-87443761D01*
X118928571Y-87491380D01*
X119119047Y-87491380D01*
X119214285Y-87443761D01*
X119261904Y-87396142D01*
X119309523Y-87300904D01*
X119309523Y-86491380D01*
X120309523Y-87491380D02*
X119738095Y-87491380D01*
X120023809Y-87491380D02*
X120023809Y-86491380D01*
X119928571Y-86634238D01*
X119833333Y-86729476D01*
X119738095Y-86777095D01*
%TO.C,U4*%
X147202380Y-90624404D02*
X148011904Y-90624404D01*
X148107142Y-90576785D01*
X148154761Y-90529166D01*
X148202380Y-90433928D01*
X148202380Y-90243452D01*
X148154761Y-90148214D01*
X148107142Y-90100595D01*
X148011904Y-90052976D01*
X147202380Y-90052976D01*
X147535714Y-89148214D02*
X148202380Y-89148214D01*
X147154761Y-89386309D02*
X147869047Y-89624404D01*
X147869047Y-89005357D01*
%TO.C,R12*%
X129771428Y-92135714D02*
X129485714Y-92335714D01*
X129771428Y-92478571D02*
X129171428Y-92478571D01*
X129171428Y-92250000D01*
X129200000Y-92192857D01*
X129228571Y-92164285D01*
X129285714Y-92135714D01*
X129371428Y-92135714D01*
X129428571Y-92164285D01*
X129457142Y-92192857D01*
X129485714Y-92250000D01*
X129485714Y-92478571D01*
X129771428Y-91564285D02*
X129771428Y-91907142D01*
X129771428Y-91735714D02*
X129171428Y-91735714D01*
X129257142Y-91792857D01*
X129314285Y-91850000D01*
X129342857Y-91907142D01*
X129228571Y-91335714D02*
X129200000Y-91307142D01*
X129171428Y-91250000D01*
X129171428Y-91107142D01*
X129200000Y-91050000D01*
X129228571Y-91021428D01*
X129285714Y-90992857D01*
X129342857Y-90992857D01*
X129428571Y-91021428D01*
X129771428Y-91364285D01*
X129771428Y-90992857D01*
%TO.C,C13*%
X150357142Y-95142857D02*
X150404761Y-95190476D01*
X150452380Y-95333333D01*
X150452380Y-95428571D01*
X150404761Y-95571428D01*
X150309523Y-95666666D01*
X150214285Y-95714285D01*
X150023809Y-95761904D01*
X149880952Y-95761904D01*
X149690476Y-95714285D01*
X149595238Y-95666666D01*
X149500000Y-95571428D01*
X149452380Y-95428571D01*
X149452380Y-95333333D01*
X149500000Y-95190476D01*
X149547619Y-95142857D01*
X150452380Y-94190476D02*
X150452380Y-94761904D01*
X150452380Y-94476190D02*
X149452380Y-94476190D01*
X149595238Y-94571428D01*
X149690476Y-94666666D01*
X149738095Y-94761904D01*
X149452380Y-93857142D02*
X149452380Y-93238095D01*
X149833333Y-93571428D01*
X149833333Y-93428571D01*
X149880952Y-93333333D01*
X149928571Y-93285714D01*
X150023809Y-93238095D01*
X150261904Y-93238095D01*
X150357142Y-93285714D01*
X150404761Y-93333333D01*
X150452380Y-93428571D01*
X150452380Y-93714285D01*
X150404761Y-93809523D01*
X150357142Y-93857142D01*
%TO.C,R3*%
X144908333Y-82952380D02*
X144575000Y-82476190D01*
X144336904Y-82952380D02*
X144336904Y-81952380D01*
X144717857Y-81952380D01*
X144813095Y-82000000D01*
X144860714Y-82047619D01*
X144908333Y-82142857D01*
X144908333Y-82285714D01*
X144860714Y-82380952D01*
X144813095Y-82428571D01*
X144717857Y-82476190D01*
X144336904Y-82476190D01*
X145241666Y-81952380D02*
X145860714Y-81952380D01*
X145527380Y-82333333D01*
X145670238Y-82333333D01*
X145765476Y-82380952D01*
X145813095Y-82428571D01*
X145860714Y-82523809D01*
X145860714Y-82761904D01*
X145813095Y-82857142D01*
X145765476Y-82904761D01*
X145670238Y-82952380D01*
X145384523Y-82952380D01*
X145289285Y-82904761D01*
X145241666Y-82857142D01*
%TO.C,Q1*%
X144904761Y-98907619D02*
X144809523Y-98860000D01*
X144714285Y-98764761D01*
X144571428Y-98621904D01*
X144476190Y-98574285D01*
X144380952Y-98574285D01*
X144428571Y-98812380D02*
X144333333Y-98764761D01*
X144238095Y-98669523D01*
X144190476Y-98479047D01*
X144190476Y-98145714D01*
X144238095Y-97955238D01*
X144333333Y-97860000D01*
X144428571Y-97812380D01*
X144619047Y-97812380D01*
X144714285Y-97860000D01*
X144809523Y-97955238D01*
X144857142Y-98145714D01*
X144857142Y-98479047D01*
X144809523Y-98669523D01*
X144714285Y-98764761D01*
X144619047Y-98812380D01*
X144428571Y-98812380D01*
X145809523Y-98812380D02*
X145238095Y-98812380D01*
X145523809Y-98812380D02*
X145523809Y-97812380D01*
X145428571Y-97955238D01*
X145333333Y-98050476D01*
X145238095Y-98098095D01*
%TO.C,J5*%
X156086666Y-87702380D02*
X156086666Y-88416666D01*
X156039047Y-88559523D01*
X155943809Y-88654761D01*
X155800952Y-88702380D01*
X155705714Y-88702380D01*
X157039047Y-87702380D02*
X156562857Y-87702380D01*
X156515238Y-88178571D01*
X156562857Y-88130952D01*
X156658095Y-88083333D01*
X156896190Y-88083333D01*
X156991428Y-88130952D01*
X157039047Y-88178571D01*
X157086666Y-88273809D01*
X157086666Y-88511904D01*
X157039047Y-88607142D01*
X156991428Y-88654761D01*
X156896190Y-88702380D01*
X156658095Y-88702380D01*
X156562857Y-88654761D01*
X156515238Y-88607142D01*
%TO.C,R2*%
X119333333Y-85202380D02*
X119000000Y-84726190D01*
X118761904Y-85202380D02*
X118761904Y-84202380D01*
X119142857Y-84202380D01*
X119238095Y-84250000D01*
X119285714Y-84297619D01*
X119333333Y-84392857D01*
X119333333Y-84535714D01*
X119285714Y-84630952D01*
X119238095Y-84678571D01*
X119142857Y-84726190D01*
X118761904Y-84726190D01*
X119714285Y-84297619D02*
X119761904Y-84250000D01*
X119857142Y-84202380D01*
X120095238Y-84202380D01*
X120190476Y-84250000D01*
X120238095Y-84297619D01*
X120285714Y-84392857D01*
X120285714Y-84488095D01*
X120238095Y-84630952D01*
X119666666Y-85202380D01*
X120285714Y-85202380D01*
%TO.C,L3*%
X141333333Y-78022380D02*
X140857142Y-78022380D01*
X140857142Y-77022380D01*
X141571428Y-77022380D02*
X142190476Y-77022380D01*
X141857142Y-77403333D01*
X142000000Y-77403333D01*
X142095238Y-77450952D01*
X142142857Y-77498571D01*
X142190476Y-77593809D01*
X142190476Y-77831904D01*
X142142857Y-77927142D01*
X142095238Y-77974761D01*
X142000000Y-78022380D01*
X141714285Y-78022380D01*
X141619047Y-77974761D01*
X141571428Y-77927142D01*
%TO.C,C5*%
X147470833Y-93132142D02*
X147423214Y-93179761D01*
X147280357Y-93227380D01*
X147185119Y-93227380D01*
X147042261Y-93179761D01*
X146947023Y-93084523D01*
X146899404Y-92989285D01*
X146851785Y-92798809D01*
X146851785Y-92655952D01*
X146899404Y-92465476D01*
X146947023Y-92370238D01*
X147042261Y-92275000D01*
X147185119Y-92227380D01*
X147280357Y-92227380D01*
X147423214Y-92275000D01*
X147470833Y-92322619D01*
X148375595Y-92227380D02*
X147899404Y-92227380D01*
X147851785Y-92703571D01*
X147899404Y-92655952D01*
X147994642Y-92608333D01*
X148232738Y-92608333D01*
X148327976Y-92655952D01*
X148375595Y-92703571D01*
X148423214Y-92798809D01*
X148423214Y-93036904D01*
X148375595Y-93132142D01*
X148327976Y-93179761D01*
X148232738Y-93227380D01*
X147994642Y-93227380D01*
X147899404Y-93179761D01*
X147851785Y-93132142D01*
%TO.C,U5*%
X135988095Y-76952380D02*
X135988095Y-77761904D01*
X136035714Y-77857142D01*
X136083333Y-77904761D01*
X136178571Y-77952380D01*
X136369047Y-77952380D01*
X136464285Y-77904761D01*
X136511904Y-77857142D01*
X136559523Y-77761904D01*
X136559523Y-76952380D01*
X137511904Y-76952380D02*
X137035714Y-76952380D01*
X136988095Y-77428571D01*
X137035714Y-77380952D01*
X137130952Y-77333333D01*
X137369047Y-77333333D01*
X137464285Y-77380952D01*
X137511904Y-77428571D01*
X137559523Y-77523809D01*
X137559523Y-77761904D01*
X137511904Y-77857142D01*
X137464285Y-77904761D01*
X137369047Y-77952380D01*
X137130952Y-77952380D01*
X137035714Y-77904761D01*
X136988095Y-77857142D01*
%TO.C,R6*%
X140452380Y-98126666D02*
X139976190Y-98460000D01*
X140452380Y-98698095D02*
X139452380Y-98698095D01*
X139452380Y-98317142D01*
X139500000Y-98221904D01*
X139547619Y-98174285D01*
X139642857Y-98126666D01*
X139785714Y-98126666D01*
X139880952Y-98174285D01*
X139928571Y-98221904D01*
X139976190Y-98317142D01*
X139976190Y-98698095D01*
X139452380Y-97269523D02*
X139452380Y-97460000D01*
X139500000Y-97555238D01*
X139547619Y-97602857D01*
X139690476Y-97698095D01*
X139880952Y-97745714D01*
X140261904Y-97745714D01*
X140357142Y-97698095D01*
X140404761Y-97650476D01*
X140452380Y-97555238D01*
X140452380Y-97364761D01*
X140404761Y-97269523D01*
X140357142Y-97221904D01*
X140261904Y-97174285D01*
X140023809Y-97174285D01*
X139928571Y-97221904D01*
X139880952Y-97269523D01*
X139833333Y-97364761D01*
X139833333Y-97555238D01*
X139880952Y-97650476D01*
X139928571Y-97698095D01*
X140023809Y-97745714D01*
%TO.C,R9*%
X132333333Y-86202380D02*
X132000000Y-85726190D01*
X131761904Y-86202380D02*
X131761904Y-85202380D01*
X132142857Y-85202380D01*
X132238095Y-85250000D01*
X132285714Y-85297619D01*
X132333333Y-85392857D01*
X132333333Y-85535714D01*
X132285714Y-85630952D01*
X132238095Y-85678571D01*
X132142857Y-85726190D01*
X131761904Y-85726190D01*
X132809523Y-86202380D02*
X133000000Y-86202380D01*
X133095238Y-86154761D01*
X133142857Y-86107142D01*
X133238095Y-85964285D01*
X133285714Y-85773809D01*
X133285714Y-85392857D01*
X133238095Y-85297619D01*
X133190476Y-85250000D01*
X133095238Y-85202380D01*
X132904761Y-85202380D01*
X132809523Y-85250000D01*
X132761904Y-85297619D01*
X132714285Y-85392857D01*
X132714285Y-85630952D01*
X132761904Y-85726190D01*
X132809523Y-85773809D01*
X132904761Y-85821428D01*
X133095238Y-85821428D01*
X133190476Y-85773809D01*
X133238095Y-85726190D01*
X133285714Y-85630952D01*
%TO.C,C19*%
X131214285Y-92135714D02*
X131242857Y-92164285D01*
X131271428Y-92250000D01*
X131271428Y-92307142D01*
X131242857Y-92392857D01*
X131185714Y-92450000D01*
X131128571Y-92478571D01*
X131014285Y-92507142D01*
X130928571Y-92507142D01*
X130814285Y-92478571D01*
X130757142Y-92450000D01*
X130700000Y-92392857D01*
X130671428Y-92307142D01*
X130671428Y-92250000D01*
X130700000Y-92164285D01*
X130728571Y-92135714D01*
X131271428Y-91564285D02*
X131271428Y-91907142D01*
X131271428Y-91735714D02*
X130671428Y-91735714D01*
X130757142Y-91792857D01*
X130814285Y-91850000D01*
X130842857Y-91907142D01*
X131271428Y-91278571D02*
X131271428Y-91164285D01*
X131242857Y-91107142D01*
X131214285Y-91078571D01*
X131128571Y-91021428D01*
X131014285Y-90992857D01*
X130785714Y-90992857D01*
X130728571Y-91021428D01*
X130700000Y-91050000D01*
X130671428Y-91107142D01*
X130671428Y-91221428D01*
X130700000Y-91278571D01*
X130728571Y-91307142D01*
X130785714Y-91335714D01*
X130928571Y-91335714D01*
X130985714Y-91307142D01*
X131014285Y-91278571D01*
X131042857Y-91221428D01*
X131042857Y-91107142D01*
X131014285Y-91050000D01*
X130985714Y-91021428D01*
X130928571Y-90992857D01*
%TO.C,J3*%
X155536666Y-79452380D02*
X155536666Y-80166666D01*
X155489047Y-80309523D01*
X155393809Y-80404761D01*
X155250952Y-80452380D01*
X155155714Y-80452380D01*
X155917619Y-79452380D02*
X156536666Y-79452380D01*
X156203333Y-79833333D01*
X156346190Y-79833333D01*
X156441428Y-79880952D01*
X156489047Y-79928571D01*
X156536666Y-80023809D01*
X156536666Y-80261904D01*
X156489047Y-80357142D01*
X156441428Y-80404761D01*
X156346190Y-80452380D01*
X156060476Y-80452380D01*
X155965238Y-80404761D01*
X155917619Y-80357142D01*
%TO.C,R11*%
X130022380Y-96352857D02*
X129546190Y-96686190D01*
X130022380Y-96924285D02*
X129022380Y-96924285D01*
X129022380Y-96543333D01*
X129070000Y-96448095D01*
X129117619Y-96400476D01*
X129212857Y-96352857D01*
X129355714Y-96352857D01*
X129450952Y-96400476D01*
X129498571Y-96448095D01*
X129546190Y-96543333D01*
X129546190Y-96924285D01*
X130022380Y-95400476D02*
X130022380Y-95971904D01*
X130022380Y-95686190D02*
X129022380Y-95686190D01*
X129165238Y-95781428D01*
X129260476Y-95876666D01*
X129308095Y-95971904D01*
X130022380Y-94448095D02*
X130022380Y-95019523D01*
X130022380Y-94733809D02*
X129022380Y-94733809D01*
X129165238Y-94829047D01*
X129260476Y-94924285D01*
X129308095Y-95019523D01*
%TO.C,C14*%
X158107142Y-96107142D02*
X158059523Y-96154761D01*
X157916666Y-96202380D01*
X157821428Y-96202380D01*
X157678571Y-96154761D01*
X157583333Y-96059523D01*
X157535714Y-95964285D01*
X157488095Y-95773809D01*
X157488095Y-95630952D01*
X157535714Y-95440476D01*
X157583333Y-95345238D01*
X157678571Y-95250000D01*
X157821428Y-95202380D01*
X157916666Y-95202380D01*
X158059523Y-95250000D01*
X158107142Y-95297619D01*
X159059523Y-96202380D02*
X158488095Y-96202380D01*
X158773809Y-96202380D02*
X158773809Y-95202380D01*
X158678571Y-95345238D01*
X158583333Y-95440476D01*
X158488095Y-95488095D01*
X159916666Y-95535714D02*
X159916666Y-96202380D01*
X159678571Y-95154761D02*
X159440476Y-95869047D01*
X160059523Y-95869047D01*
%TO.C,C4*%
X129107142Y-80026086D02*
X129154761Y-80073705D01*
X129202380Y-80216562D01*
X129202380Y-80311800D01*
X129154761Y-80454658D01*
X129059523Y-80549896D01*
X128964285Y-80597515D01*
X128773809Y-80645134D01*
X128630952Y-80645134D01*
X128440476Y-80597515D01*
X128345238Y-80549896D01*
X128250000Y-80454658D01*
X128202380Y-80311800D01*
X128202380Y-80216562D01*
X128250000Y-80073705D01*
X128297619Y-80026086D01*
X128535714Y-79168943D02*
X129202380Y-79168943D01*
X128154761Y-79407039D02*
X128869047Y-79645134D01*
X128869047Y-79026086D01*
%TO.C,C6*%
X147520833Y-87357142D02*
X147473214Y-87404761D01*
X147330357Y-87452380D01*
X147235119Y-87452380D01*
X147092261Y-87404761D01*
X146997023Y-87309523D01*
X146949404Y-87214285D01*
X146901785Y-87023809D01*
X146901785Y-86880952D01*
X146949404Y-86690476D01*
X146997023Y-86595238D01*
X147092261Y-86500000D01*
X147235119Y-86452380D01*
X147330357Y-86452380D01*
X147473214Y-86500000D01*
X147520833Y-86547619D01*
X148377976Y-86452380D02*
X148187500Y-86452380D01*
X148092261Y-86500000D01*
X148044642Y-86547619D01*
X147949404Y-86690476D01*
X147901785Y-86880952D01*
X147901785Y-87261904D01*
X147949404Y-87357142D01*
X147997023Y-87404761D01*
X148092261Y-87452380D01*
X148282738Y-87452380D01*
X148377976Y-87404761D01*
X148425595Y-87357142D01*
X148473214Y-87261904D01*
X148473214Y-87023809D01*
X148425595Y-86928571D01*
X148377976Y-86880952D01*
X148282738Y-86833333D01*
X148092261Y-86833333D01*
X147997023Y-86880952D01*
X147949404Y-86928571D01*
X147901785Y-87023809D01*
%TO.C,Y1*%
X136943809Y-82976190D02*
X136943809Y-83452380D01*
X136610476Y-82452380D02*
X136943809Y-82976190D01*
X137277142Y-82452380D01*
X138134285Y-83452380D02*
X137562857Y-83452380D01*
X137848571Y-83452380D02*
X137848571Y-82452380D01*
X137753333Y-82595238D01*
X137658095Y-82690476D01*
X137562857Y-82738095D01*
%TO.C,R4*%
X129952380Y-81666666D02*
X129476190Y-82000000D01*
X129952380Y-82238095D02*
X128952380Y-82238095D01*
X128952380Y-81857142D01*
X129000000Y-81761904D01*
X129047619Y-81714285D01*
X129142857Y-81666666D01*
X129285714Y-81666666D01*
X129380952Y-81714285D01*
X129428571Y-81761904D01*
X129476190Y-81857142D01*
X129476190Y-82238095D01*
X129285714Y-80809523D02*
X129952380Y-80809523D01*
X128904761Y-81047619D02*
X129619047Y-81285714D01*
X129619047Y-80666666D01*
%TO.C,J1*%
X115702380Y-74583333D02*
X116416666Y-74583333D01*
X116559523Y-74630952D01*
X116654761Y-74726190D01*
X116702380Y-74869047D01*
X116702380Y-74964285D01*
X116702380Y-73583333D02*
X116702380Y-74154761D01*
X116702380Y-73869047D02*
X115702380Y-73869047D01*
X115845238Y-73964285D01*
X115940476Y-74059523D01*
X115988095Y-74154761D01*
%TO.C,C18*%
X134607142Y-86137142D02*
X134559523Y-86184761D01*
X134416666Y-86232380D01*
X134321428Y-86232380D01*
X134178571Y-86184761D01*
X134083333Y-86089523D01*
X134035714Y-85994285D01*
X133988095Y-85803809D01*
X133988095Y-85660952D01*
X134035714Y-85470476D01*
X134083333Y-85375238D01*
X134178571Y-85280000D01*
X134321428Y-85232380D01*
X134416666Y-85232380D01*
X134559523Y-85280000D01*
X134607142Y-85327619D01*
X135559523Y-86232380D02*
X134988095Y-86232380D01*
X135273809Y-86232380D02*
X135273809Y-85232380D01*
X135178571Y-85375238D01*
X135083333Y-85470476D01*
X134988095Y-85518095D01*
X136130952Y-85660952D02*
X136035714Y-85613333D01*
X135988095Y-85565714D01*
X135940476Y-85470476D01*
X135940476Y-85422857D01*
X135988095Y-85327619D01*
X136035714Y-85280000D01*
X136130952Y-85232380D01*
X136321428Y-85232380D01*
X136416666Y-85280000D01*
X136464285Y-85327619D01*
X136511904Y-85422857D01*
X136511904Y-85470476D01*
X136464285Y-85565714D01*
X136416666Y-85613333D01*
X136321428Y-85660952D01*
X136130952Y-85660952D01*
X136035714Y-85708571D01*
X135988095Y-85756190D01*
X135940476Y-85851428D01*
X135940476Y-86041904D01*
X135988095Y-86137142D01*
X136035714Y-86184761D01*
X136130952Y-86232380D01*
X136321428Y-86232380D01*
X136416666Y-86184761D01*
X136464285Y-86137142D01*
X136511904Y-86041904D01*
X136511904Y-85851428D01*
X136464285Y-85756190D01*
X136416666Y-85708571D01*
X136321428Y-85660952D01*
%TO.C,C7*%
X142333333Y-83857142D02*
X142285714Y-83904761D01*
X142142857Y-83952380D01*
X142047619Y-83952380D01*
X141904761Y-83904761D01*
X141809523Y-83809523D01*
X141761904Y-83714285D01*
X141714285Y-83523809D01*
X141714285Y-83380952D01*
X141761904Y-83190476D01*
X141809523Y-83095238D01*
X141904761Y-83000000D01*
X142047619Y-82952380D01*
X142142857Y-82952380D01*
X142285714Y-83000000D01*
X142333333Y-83047619D01*
X142666666Y-82952380D02*
X143333333Y-82952380D01*
X142904761Y-83952380D01*
%TO.C,L4*%
X150365833Y-88952380D02*
X149889642Y-88952380D01*
X149889642Y-87952380D01*
X151127738Y-88285714D02*
X151127738Y-88952380D01*
X150889642Y-87904761D02*
X150651547Y-88619047D01*
X151270595Y-88619047D01*
%TO.C,L1*%
X118083333Y-77702380D02*
X117607142Y-77702380D01*
X117607142Y-76702380D01*
X118940476Y-77702380D02*
X118369047Y-77702380D01*
X118654761Y-77702380D02*
X118654761Y-76702380D01*
X118559523Y-76845238D01*
X118464285Y-76940476D01*
X118369047Y-76988095D01*
%TO.C,R1*%
X119333333Y-83452380D02*
X119000000Y-82976190D01*
X118761904Y-83452380D02*
X118761904Y-82452380D01*
X119142857Y-82452380D01*
X119238095Y-82500000D01*
X119285714Y-82547619D01*
X119333333Y-82642857D01*
X119333333Y-82785714D01*
X119285714Y-82880952D01*
X119238095Y-82928571D01*
X119142857Y-82976190D01*
X118761904Y-82976190D01*
X120285714Y-83452380D02*
X119714285Y-83452380D01*
X120000000Y-83452380D02*
X120000000Y-82452380D01*
X119904761Y-82595238D01*
X119809523Y-82690476D01*
X119714285Y-82738095D01*
%TO.C,U2*%
X126738095Y-72952380D02*
X126738095Y-73761904D01*
X126785714Y-73857142D01*
X126833333Y-73904761D01*
X126928571Y-73952380D01*
X127119047Y-73952380D01*
X127214285Y-73904761D01*
X127261904Y-73857142D01*
X127309523Y-73761904D01*
X127309523Y-72952380D01*
X127738095Y-73047619D02*
X127785714Y-73000000D01*
X127880952Y-72952380D01*
X128119047Y-72952380D01*
X128214285Y-73000000D01*
X128261904Y-73047619D01*
X128309523Y-73142857D01*
X128309523Y-73238095D01*
X128261904Y-73380952D01*
X127690476Y-73952380D01*
X128309523Y-73952380D01*
D12*
%TO.C,C11*%
X153160000Y-86140580D02*
X153160000Y-85859420D01*
X154180000Y-86140580D02*
X154180000Y-85859420D01*
%TO.C,C8*%
X140140580Y-82510000D02*
X139859420Y-82510000D01*
X140140580Y-81490000D02*
X139859420Y-81490000D01*
%TO.C,C3*%
X126740000Y-76859420D02*
X126740000Y-77140580D01*
X127760000Y-76859420D02*
X127760000Y-77140580D01*
%TO.C,C15*%
X155915580Y-95010000D02*
X155634420Y-95010000D01*
X155915580Y-93990000D02*
X155634420Y-93990000D01*
%TO.C,U6*%
X154270000Y-95500000D02*
X151020000Y-95500000D01*
X151020000Y-89500000D02*
X153470000Y-89500000D01*
X151020000Y-95500000D02*
X151020000Y-89500000D01*
X154270000Y-90300000D02*
X154270000Y-95500000D01*
X153470000Y-89500000D02*
X154270000Y-90300000D01*
%TO.C,C9*%
X144240000Y-78365580D02*
X144240000Y-78084420D01*
X143220000Y-78365580D02*
X143220000Y-78084420D01*
%TO.C,R8*%
X140727500Y-90197258D02*
X140727500Y-89722742D01*
X141772500Y-90197258D02*
X141772500Y-89722742D01*
%TO.C,C17*%
X139240000Y-90100580D02*
X139240000Y-89819420D01*
X140260000Y-90100580D02*
X140260000Y-89819420D01*
%TO.C,U7*%
X135400000Y-91390000D02*
X133900000Y-91390000D01*
X135400000Y-88170000D02*
X133900000Y-88170000D01*
X135400000Y-88170000D02*
X136900000Y-88170000D01*
X135400000Y-91390000D02*
X138325000Y-91390000D01*
%TO.C,D1*%
X110515000Y-83735000D02*
X112800000Y-83735000D01*
X110515000Y-82265000D02*
X110515000Y-83735000D01*
X112800000Y-82265000D02*
X110515000Y-82265000D01*
%TO.C,L2*%
X138740000Y-79950279D02*
X138740000Y-79624721D01*
X139760000Y-79950279D02*
X139760000Y-79624721D01*
%TO.C,C2*%
X115990000Y-81140580D02*
X115990000Y-80859420D01*
X117010000Y-81140580D02*
X117010000Y-80859420D01*
%TO.C,C1*%
X119044420Y-97490000D02*
X119325580Y-97490000D01*
X119044420Y-98510000D02*
X119325580Y-98510000D01*
%TO.C,J4*%
X145680000Y-72100000D02*
X144570000Y-72100000D01*
X145680000Y-75810000D02*
X144570000Y-75810000D01*
X143980000Y-76860000D02*
X143730000Y-76360000D01*
X142890000Y-75810000D02*
X141780000Y-75810000D01*
X143480000Y-76860000D02*
X143980000Y-76860000D01*
X143730000Y-76360000D02*
X143480000Y-76860000D01*
X142890000Y-72100000D02*
X141780000Y-72100000D01*
%TO.C,U8*%
X135500000Y-97520000D02*
X133550000Y-97520000D01*
X135500000Y-92400000D02*
X132050000Y-92400000D01*
X135500000Y-97520000D02*
X137450000Y-97520000D01*
X135500000Y-92400000D02*
X137450000Y-92400000D01*
%TO.C,D2*%
X112800000Y-84015000D02*
X110515000Y-84015000D01*
X110515000Y-84015000D02*
X110515000Y-85485000D01*
X110515000Y-85485000D02*
X112800000Y-85485000D01*
%TO.C,D3*%
X126500000Y-86710000D02*
X126500000Y-90610000D01*
X128500000Y-86710000D02*
X128500000Y-90610000D01*
X128500000Y-86710000D02*
X126500000Y-86710000D01*
%TO.C,R10*%
X130412258Y-92977500D02*
X129937742Y-92977500D01*
X130412258Y-94022500D02*
X129937742Y-94022500D01*
%TO.C,C16*%
X141990000Y-93319420D02*
X141990000Y-93600580D01*
X143010000Y-93319420D02*
X143010000Y-93600580D01*
%TO.C,R5*%
X131442500Y-78662258D02*
X131442500Y-78187742D01*
X130397500Y-78662258D02*
X130397500Y-78187742D01*
%TO.C,R13*%
X125237258Y-97022500D02*
X124762742Y-97022500D01*
X125237258Y-95977500D02*
X124762742Y-95977500D01*
%TO.C,C10*%
X144645580Y-79510000D02*
X144364420Y-79510000D01*
X144645580Y-78490000D02*
X144364420Y-78490000D01*
%TO.C,C12*%
X154585580Y-86240000D02*
X154304420Y-86240000D01*
X154585580Y-87260000D02*
X154304420Y-87260000D01*
%TO.C,R7*%
X143272500Y-89722742D02*
X143272500Y-90197258D01*
X142227500Y-89722742D02*
X142227500Y-90197258D01*
%TO.C,D4*%
X124250000Y-91210000D02*
X124250000Y-87310000D01*
X124250000Y-91210000D02*
X126250000Y-91210000D01*
X126250000Y-91210000D02*
X126250000Y-87310000D01*
%TO.C,U1*%
X119500000Y-96935000D02*
X122950000Y-96935000D01*
X119500000Y-96935000D02*
X117550000Y-96935000D01*
X119500000Y-88065000D02*
X117550000Y-88065000D01*
X119500000Y-88065000D02*
X121450000Y-88065000D01*
%TO.C,U4*%
X146810000Y-89862500D02*
X146810000Y-89062500D01*
X143690000Y-89862500D02*
X143690000Y-91662500D01*
X143690000Y-89862500D02*
X143690000Y-89062500D01*
X146810000Y-89862500D02*
X146810000Y-90662500D01*
%TO.C,SW1*%
X129050000Y-86030000D02*
X131650000Y-86030000D01*
X129050000Y-86030000D02*
X129050000Y-83370000D01*
X127780000Y-86030000D02*
X126450000Y-86030000D01*
X126450000Y-86030000D02*
X126450000Y-84700000D01*
X131650000Y-86030000D02*
X131650000Y-83370000D01*
X129050000Y-83370000D02*
X131650000Y-83370000D01*
%TO.C,R12*%
X128977500Y-89697258D02*
X128977500Y-89222742D01*
X130022500Y-89697258D02*
X130022500Y-89222742D01*
%TO.C,C13*%
X150655000Y-91359420D02*
X150655000Y-91640580D01*
X149635000Y-91359420D02*
X149635000Y-91640580D01*
%TO.C,R3*%
X145487258Y-84522500D02*
X145012742Y-84522500D01*
X145487258Y-83477500D02*
X145012742Y-83477500D01*
%TO.C,Q1*%
X145000000Y-97520000D02*
X144350000Y-97520000D01*
X145000000Y-94400000D02*
X144350000Y-94400000D01*
X145000000Y-94400000D02*
X145650000Y-94400000D01*
X145000000Y-97520000D02*
X146675000Y-97520000D01*
%TO.C,J5*%
X157910000Y-85860000D02*
X157910000Y-84750000D01*
X157360000Y-86700000D02*
X156860000Y-86450000D01*
X156860000Y-86950000D02*
X157360000Y-86700000D01*
X157910000Y-88650000D02*
X157910000Y-87540000D01*
X161620000Y-88650000D02*
X161620000Y-87540000D01*
X161620000Y-85860000D02*
X161620000Y-84750000D01*
X156860000Y-86450000D02*
X156860000Y-86950000D01*
%TO.C,R2*%
X114762742Y-84227500D02*
X115237258Y-84227500D01*
X114762742Y-85272500D02*
X115237258Y-85272500D01*
%TO.C,L3*%
X141337221Y-78490000D02*
X141662779Y-78490000D01*
X141337221Y-79510000D02*
X141662779Y-79510000D01*
%TO.C,C5*%
X145390580Y-93260000D02*
X145109420Y-93260000D01*
X145390580Y-92240000D02*
X145109420Y-92240000D01*
%TO.C,U5*%
X131940000Y-78272500D02*
X138620000Y-78272500D01*
X138620000Y-80752500D02*
X137820000Y-81552500D01*
X138620000Y-78272500D02*
X138620000Y-80752500D01*
X137820000Y-81552500D02*
X131940000Y-81552500D01*
X131940000Y-81552500D02*
X131940000Y-78272500D01*
%TO.C,R6*%
X141932742Y-96937500D02*
X142407258Y-96937500D01*
X141932742Y-97982500D02*
X142407258Y-97982500D01*
%TO.C,R9*%
X131587742Y-87732500D02*
X132062258Y-87732500D01*
X131587742Y-86687500D02*
X132062258Y-86687500D01*
%TO.C,C19*%
X130490000Y-89600580D02*
X130490000Y-89319420D01*
X131510000Y-89600580D02*
X131510000Y-89319420D01*
%TO.C,J3*%
X161620000Y-82950000D02*
X161620000Y-81840000D01*
X156860000Y-80750000D02*
X156860000Y-81250000D01*
X156860000Y-81250000D02*
X157360000Y-81000000D01*
X157360000Y-81000000D02*
X156860000Y-80750000D01*
X161620000Y-80160000D02*
X161620000Y-79050000D01*
X157910000Y-80160000D02*
X157910000Y-79050000D01*
X157910000Y-82950000D02*
X157910000Y-81840000D01*
%TO.C,R11*%
X130477500Y-95947258D02*
X130477500Y-95472742D01*
X131522500Y-95947258D02*
X131522500Y-95472742D01*
%TO.C,C14*%
X155915580Y-95490000D02*
X155634420Y-95490000D01*
X155915580Y-96510000D02*
X155634420Y-96510000D01*
%TO.C,C4*%
X126740000Y-80140580D02*
X126740000Y-79859420D01*
X127760000Y-80140580D02*
X127760000Y-79859420D01*
%TO.C,C6*%
X145390580Y-87510000D02*
X145109420Y-87510000D01*
X145390580Y-86490000D02*
X145109420Y-86490000D01*
%TO.C,Y1*%
X135395000Y-81537500D02*
X136195000Y-82337500D01*
X136195000Y-84337500D02*
X132995000Y-84337500D01*
X132995000Y-81537500D02*
X135395000Y-81537500D01*
X132995000Y-84337500D02*
X132995000Y-81537500D01*
X136195000Y-82337500D02*
X136195000Y-84337500D01*
%TO.C,R4*%
X130397500Y-81262742D02*
X130397500Y-81737258D01*
X131442500Y-81262742D02*
X131442500Y-81737258D01*
%TO.C,J1*%
X115090000Y-76190000D02*
X115090000Y-75740000D01*
X114640000Y-75740000D02*
X115090000Y-75740000D01*
X114410000Y-81260000D02*
X114410000Y-80840000D01*
X112430000Y-81260000D02*
X114410000Y-81260000D01*
X114410000Y-73740000D02*
X114410000Y-74160000D01*
X110460000Y-81260000D02*
X110060000Y-81260000D01*
X110060000Y-73740000D02*
X110460000Y-73740000D01*
X112430000Y-73740000D02*
X114410000Y-73740000D01*
%TO.C,C18*%
X134684420Y-86700000D02*
X134965580Y-86700000D01*
X134684420Y-87720000D02*
X134965580Y-87720000D01*
%TO.C,C7*%
X139884420Y-84010000D02*
X140165580Y-84010000D01*
X139884420Y-82990000D02*
X140165580Y-82990000D01*
%TO.C,J2*%
X113870000Y-98730000D02*
X112540000Y-98730000D01*
X113870000Y-96130000D02*
X113870000Y-85910000D01*
X113870000Y-96130000D02*
X111210000Y-96130000D01*
X113870000Y-85910000D02*
X111210000Y-85910000D01*
X113870000Y-97400000D02*
X113870000Y-98730000D01*
X111210000Y-96130000D02*
X111210000Y-85910000D01*
%TO.C,L4*%
X152719721Y-87990000D02*
X153045279Y-87990000D01*
X152719721Y-89010000D02*
X153045279Y-89010000D01*
%TO.C,L1*%
X117060000Y-76850378D02*
X117060000Y-77649622D01*
X115940000Y-76850378D02*
X115940000Y-77649622D01*
%TO.C,R1*%
X114762742Y-82477500D02*
X115237258Y-82477500D01*
X114762742Y-83522500D02*
X115237258Y-83522500D01*
D11*
%TO.C,U2*%
X120925000Y-81975000D02*
X120925000Y-80865000D01*
X120925000Y-74135000D02*
X120925000Y-73025000D01*
X120925000Y-74135000D02*
X119800000Y-74135000D01*
X125075000Y-73025000D02*
X125075000Y-74135000D01*
X125075000Y-81975000D02*
X125075000Y-80865000D01*
X120925000Y-73025000D02*
X125075000Y-73025000D01*
X120925000Y-81975000D02*
X125075000Y-81975000D01*
%TD*%
%LPC*%
D13*
X155281107Y-75000000D02*
G75*
G03*
X155281107Y-75000000I-1281107J0D01*
G01*
X135281107Y-75000000D02*
G75*
G03*
X135281107Y-75000000I-1281107J0D01*
G01*
D14*
%TO.C,C11*%
X153670000Y-86775000D03*
X153670000Y-85225000D03*
%TD*%
D15*
%TO.C,C8*%
X140775000Y-82000000D03*
X139225000Y-82000000D03*
%TD*%
D16*
%TO.C,C3*%
X127250000Y-76225000D03*
X127250000Y-77775000D03*
%TD*%
D15*
%TO.C,C15*%
X156550000Y-94500000D03*
X155000000Y-94500000D03*
%TD*%
D17*
%TO.C,U6*%
X153620000Y-90500000D03*
X152970000Y-90500000D03*
X152320000Y-90500000D03*
X151670000Y-90500000D03*
X151670000Y-94500000D03*
X152320000Y-94500000D03*
X152970000Y-94500000D03*
X153620000Y-94500000D03*
%TD*%
D14*
%TO.C,C9*%
X143730000Y-79000000D03*
X143730000Y-77450000D03*
%TD*%
D18*
%TO.C,R8*%
X141250000Y-90785000D03*
X141250000Y-89135000D03*
%TD*%
D19*
%TO.C,J6*%
X148100000Y-94860000D03*
%TD*%
D14*
%TO.C,C17*%
X139750000Y-90735000D03*
X139750000Y-89185000D03*
%TD*%
D20*
%TO.C,U7*%
X137512500Y-90755000D03*
X137512500Y-90105000D03*
X137512500Y-89455000D03*
X137512500Y-88805000D03*
X133287500Y-88805000D03*
X133287500Y-89455000D03*
X133287500Y-90105000D03*
X133287500Y-90755000D03*
%TD*%
D21*
%TO.C,D1*%
X111212500Y-83000000D03*
X112787500Y-83000000D03*
%TD*%
D22*
%TO.C,L2*%
X139250000Y-80575000D03*
X139250000Y-79000000D03*
%TD*%
D14*
%TO.C,C2*%
X116500000Y-81775000D03*
X116500000Y-80225000D03*
%TD*%
D19*
%TO.C,J8*%
X127780000Y-92320000D03*
%TD*%
D23*
%TO.C,C1*%
X118410000Y-98000000D03*
X119960000Y-98000000D03*
%TD*%
D24*
%TO.C,U3*%
X147745000Y-79175000D03*
X153665000Y-79175000D03*
X153665000Y-83825000D03*
X147745000Y-83825000D03*
D25*
X150705000Y-81500000D03*
%TD*%
D26*
%TO.C,J4*%
X143730000Y-73900000D03*
D27*
X140905000Y-74100000D03*
X146555000Y-74100000D03*
%TD*%
D28*
%TO.C,U8*%
X133025000Y-93055000D03*
X133025000Y-94325000D03*
X133025000Y-95595000D03*
X133025000Y-96865000D03*
X137975000Y-96865000D03*
X137975000Y-95595000D03*
X137975000Y-94325000D03*
X137975000Y-93055000D03*
%TD*%
D21*
%TO.C,D2*%
X111212500Y-84750000D03*
X112787500Y-84750000D03*
%TD*%
D29*
%TO.C,D3*%
X127500000Y-87310000D03*
X127500000Y-90610000D03*
%TD*%
D30*
%TO.C,R10*%
X131000000Y-93500000D03*
X129350000Y-93500000D03*
%TD*%
D16*
%TO.C,C16*%
X142500000Y-92685000D03*
X142500000Y-94235000D03*
%TD*%
D18*
%TO.C,R5*%
X130920000Y-79250000D03*
X130920000Y-77600000D03*
%TD*%
D30*
%TO.C,R13*%
X125825000Y-96500000D03*
X124175000Y-96500000D03*
%TD*%
D15*
%TO.C,C10*%
X145280000Y-79000000D03*
X143730000Y-79000000D03*
%TD*%
%TO.C,C12*%
X155220000Y-86750000D03*
X153670000Y-86750000D03*
%TD*%
D31*
%TO.C,R7*%
X142750000Y-89135000D03*
X142750000Y-90785000D03*
%TD*%
D29*
%TO.C,D4*%
X125250000Y-90610000D03*
X125250000Y-87310000D03*
%TD*%
D19*
%TO.C,J9*%
X127780000Y-94860000D03*
%TD*%
D32*
%TO.C,U1*%
X121975000Y-96310000D03*
X121975000Y-95040000D03*
X121975000Y-93770000D03*
X121975000Y-92500000D03*
X121975000Y-91230000D03*
X121975000Y-89960000D03*
X121975000Y-88690000D03*
X117025000Y-88690000D03*
X117025000Y-89960000D03*
X117025000Y-91230000D03*
X117025000Y-92500000D03*
X117025000Y-93770000D03*
X117025000Y-95040000D03*
X117025000Y-96310000D03*
%TD*%
D33*
%TO.C,U4*%
X144300000Y-91000000D03*
X145250000Y-91000000D03*
X146200000Y-91000000D03*
X146200000Y-88725000D03*
X144300000Y-88725000D03*
%TD*%
D34*
%TO.C,SW1*%
X127780000Y-84700000D03*
D35*
X130320000Y-84700000D03*
%TD*%
D18*
%TO.C,R12*%
X129500000Y-90285000D03*
X129500000Y-88635000D03*
%TD*%
D16*
%TO.C,C13*%
X150145000Y-90725000D03*
X150145000Y-92275000D03*
%TD*%
D30*
%TO.C,R3*%
X146075000Y-84000000D03*
X144425000Y-84000000D03*
%TD*%
D36*
%TO.C,Q1*%
X145937500Y-96910000D03*
X145937500Y-95010000D03*
X144062500Y-95960000D03*
%TD*%
D37*
%TO.C,J5*%
X159820000Y-86700000D03*
D38*
X159620000Y-89525000D03*
X159620000Y-83875000D03*
%TD*%
D39*
%TO.C,R2*%
X114175000Y-84750000D03*
X115825000Y-84750000D03*
%TD*%
D21*
%TO.C,L3*%
X140712500Y-79000000D03*
X142287500Y-79000000D03*
%TD*%
D15*
%TO.C,C5*%
X146025000Y-92750000D03*
X144475000Y-92750000D03*
%TD*%
D40*
%TO.C,U5*%
X137420000Y-80912500D03*
X137420000Y-80412500D03*
X137420000Y-79912500D03*
X137420000Y-79412500D03*
X137420000Y-78912500D03*
X133140000Y-78912500D03*
X133140000Y-79412500D03*
X133140000Y-79912500D03*
X133140000Y-80412500D03*
X133140000Y-80912500D03*
%TD*%
D39*
%TO.C,R6*%
X141345000Y-97460000D03*
X142995000Y-97460000D03*
%TD*%
%TO.C,R9*%
X131000000Y-87210000D03*
X132650000Y-87210000D03*
%TD*%
D14*
%TO.C,C19*%
X131000000Y-90235000D03*
X131000000Y-88685000D03*
%TD*%
D37*
%TO.C,J3*%
X159820000Y-81000000D03*
D38*
X159620000Y-78175000D03*
X159620000Y-83825000D03*
%TD*%
D18*
%TO.C,R11*%
X131000000Y-96535000D03*
X131000000Y-94885000D03*
%TD*%
D15*
%TO.C,C14*%
X156550000Y-96000000D03*
X155000000Y-96000000D03*
%TD*%
D14*
%TO.C,C4*%
X127250000Y-80775000D03*
X127250000Y-79225000D03*
%TD*%
D15*
%TO.C,C6*%
X146025000Y-87000000D03*
X144475000Y-87000000D03*
%TD*%
D41*
%TO.C,Y1*%
X135270000Y-82412500D03*
X133920000Y-82412500D03*
X133920000Y-83462500D03*
X135270000Y-83462500D03*
%TD*%
D31*
%TO.C,R4*%
X130920000Y-80675000D03*
X130920000Y-82325000D03*
%TD*%
D19*
%TO.C,J7*%
X140480000Y-92320000D03*
%TD*%
D42*
%TO.C,J1*%
X114150000Y-76200000D03*
X114150000Y-76850000D03*
X114150000Y-77500000D03*
X114150000Y-78150000D03*
X114150000Y-78800000D03*
D43*
X111450000Y-74000000D03*
D44*
X111450000Y-80400000D03*
D45*
X114150000Y-80000000D03*
D44*
X111450000Y-74600000D03*
D46*
X111450000Y-76500000D03*
D45*
X114150000Y-75000000D03*
D43*
X111450000Y-81000000D03*
D46*
X111450000Y-78500000D03*
%TD*%
D23*
%TO.C,C18*%
X134050000Y-87210000D03*
X135600000Y-87210000D03*
%TD*%
%TO.C,C7*%
X139250000Y-83500000D03*
X140800000Y-83500000D03*
%TD*%
D34*
%TO.C,J2*%
X112540000Y-97400000D03*
D35*
X112540000Y-94860000D03*
X112540000Y-92320000D03*
X112540000Y-89780000D03*
X112540000Y-87240000D03*
%TD*%
D21*
%TO.C,L4*%
X152095000Y-88500000D03*
X153670000Y-88500000D03*
%TD*%
D47*
%TO.C,L1*%
X116500000Y-76187500D03*
X116500000Y-78312500D03*
%TD*%
D39*
%TO.C,R1*%
X114175000Y-83000000D03*
X115825000Y-83000000D03*
%TD*%
D48*
%TO.C,U2*%
X120400000Y-74642500D03*
X120400000Y-75277500D03*
X120400000Y-75912500D03*
X120400000Y-76547500D03*
X120400000Y-77182500D03*
X120400000Y-77817500D03*
X120400000Y-78452500D03*
X120400000Y-79087500D03*
X120400000Y-79722500D03*
X120400000Y-80357500D03*
X125600000Y-80357500D03*
X125600000Y-79722500D03*
X125600000Y-79087500D03*
X125600000Y-78452500D03*
X125600000Y-77817500D03*
X125600000Y-77182500D03*
X125600000Y-76547500D03*
X125600000Y-75912500D03*
X125600000Y-75277500D03*
X125600000Y-74642500D03*
%TD*%
D49*
X156250000Y-91250000D03*
X145750000Y-77500000D03*
X157750000Y-76500000D03*
X120250000Y-90750000D03*
X151500000Y-80000000D03*
X155170000Y-85500000D03*
X147242857Y-87008577D03*
X156420000Y-83250000D03*
X143750000Y-80250000D03*
X116000000Y-98210000D03*
X118500000Y-96750000D03*
X137170000Y-83000000D03*
X150000000Y-83000000D03*
X121750000Y-86750000D03*
X119750000Y-93960000D03*
X157500000Y-95250000D03*
X151920000Y-86750000D03*
X150000000Y-81500000D03*
X150000000Y-84750000D03*
X142000000Y-77500000D03*
X129250000Y-83000000D03*
X151500000Y-81500000D03*
X150000000Y-80000000D03*
X155145000Y-88250000D03*
X151500000Y-78250000D03*
X147250000Y-92750000D03*
D50*
X134000000Y-75000000D03*
D49*
X147500000Y-77500000D03*
X154730000Y-81500000D03*
X117750000Y-73750000D03*
X151500000Y-83000000D03*
X136250000Y-88250000D03*
X156420000Y-84750000D03*
X150145000Y-94000000D03*
X148060000Y-73000000D03*
X160670000Y-91250000D03*
X140250000Y-77500000D03*
X159250000Y-91250000D03*
X150000000Y-78250000D03*
X140645000Y-80250000D03*
X135000000Y-96250000D03*
X139310000Y-76000000D03*
X148060000Y-76000000D03*
X146730000Y-81500000D03*
X126250000Y-81500000D03*
X134750000Y-93000000D03*
X160750000Y-76500000D03*
X122000000Y-78250000D03*
X135920000Y-78912500D03*
X151500000Y-84750000D03*
X139310000Y-74500000D03*
X156250000Y-89750000D03*
X144500000Y-82500000D03*
X157750000Y-91250000D03*
X142145000Y-80250000D03*
X124250000Y-77000000D03*
X139310000Y-73000000D03*
D50*
X154000000Y-75000000D03*
D49*
X134641269Y-80756889D03*
X156250000Y-78000000D03*
X151895000Y-92250000D03*
X159250000Y-76500000D03*
X145705000Y-80250000D03*
X127500000Y-74750000D03*
X131000000Y-91710000D03*
X148060000Y-74500000D03*
X153000000Y-81500000D03*
X148500000Y-81500000D03*
X133750000Y-91750000D03*
X144000000Y-94000000D03*
X117250000Y-79250000D03*
X138000000Y-91750000D03*
X153000000Y-97500000D03*
X121500000Y-97500000D03*
X137000000Y-87250000D03*
X119000000Y-76750000D03*
X124250000Y-74749018D03*
M02*
