%TF.GenerationSoftware,KiCad,Pcbnew,(6.0.0-0)*%
%TF.CreationDate,2022-07-29T21:18:11+02:00*%
%TF.ProjectId,DetectorReader,44657465-6374-46f7-9252-65616465722e,rev?*%
%TF.SameCoordinates,Original*%
%TF.FileFunction,Copper,L2,Bot*%
%TF.FilePolarity,Positive*%
%FSLAX46Y46*%
G04 Gerber Fmt 4.6, Leading zero omitted, Abs format (unit mm)*
G04 Created by KiCad (PCBNEW (6.0.0-0)) date 2022-07-29 21:18:11*
%MOMM*%
%LPD*%
G01*
G04 APERTURE LIST*
%TA.AperFunction,ComponentPad*%
%ADD10C,1.700000*%
%TD*%
%TA.AperFunction,SMDPad,CuDef*%
%ADD11R,1.350000X4.200000*%
%TD*%
%TA.AperFunction,ComponentPad*%
%ADD12R,1.700000X1.700000*%
%TD*%
%TA.AperFunction,ComponentPad*%
%ADD13O,1.700000X1.700000*%
%TD*%
%TA.AperFunction,SMDPad,CuDef*%
%ADD14R,4.200000X1.350000*%
%TD*%
%TA.AperFunction,ComponentPad*%
%ADD15O,1.550000X0.890000*%
%TD*%
%TA.AperFunction,ComponentPad*%
%ADD16O,0.950000X1.250000*%
%TD*%
%TA.AperFunction,ViaPad*%
%ADD17C,0.800000*%
%TD*%
%TA.AperFunction,ViaPad*%
%ADD18C,5.000000*%
%TD*%
%TA.AperFunction,Conductor*%
%ADD19C,1.000000*%
%TD*%
%TA.AperFunction,Conductor*%
%ADD20C,0.500000*%
%TD*%
%TA.AperFunction,Conductor*%
%ADD21C,0.300000*%
%TD*%
G04 APERTURE END LIST*
D10*
%TO.P,J6,1,Pin_1*%
%TO.N,/RF_Rx/Signal*%
X150640000Y-97400000D03*
%TD*%
%TO.P,J8,1,Pin_1*%
%TO.N,/RF_Rx/Amp2*%
X130320000Y-89750000D03*
%TD*%
D11*
%TO.P,J3,2,Ext*%
%TO.N,GND*%
X140905000Y-74100000D03*
X146555000Y-74100000D03*
%TD*%
D10*
%TO.P,J9,1,Pin_1*%
%TO.N,/TagPulses*%
X125240000Y-97400000D03*
%TD*%
D12*
%TO.P,SW1,1,A*%
%TO.N,/ReaderPulses*%
X127780000Y-87240000D03*
D13*
%TO.P,SW1,2,B*%
%TO.N,/RF_Tx/Mod*%
X130320000Y-87240000D03*
%TD*%
D14*
%TO.P,J5,2,Ext*%
%TO.N,GND*%
X159620000Y-89525000D03*
X159620000Y-83875000D03*
%TD*%
%TO.P,J4,2,Ext*%
%TO.N,GND*%
X159620000Y-83825000D03*
X159620000Y-78175000D03*
%TD*%
D10*
%TO.P,J7,1,Pin_1*%
%TO.N,/RF_Rx/Amp1*%
X140480000Y-89780000D03*
%TD*%
D15*
%TO.P,J1,6,Shield*%
%TO.N,GND*%
X111450000Y-74000000D03*
D16*
X114150000Y-80000000D03*
X114150000Y-75000000D03*
D15*
X111450000Y-81000000D03*
%TD*%
D12*
%TO.P,J2,1,Pin_1*%
%TO.N,/UPDI*%
X112540000Y-99940000D03*
D13*
%TO.P,J2,2,Pin_2*%
%TO.N,GND*%
X112540000Y-97400000D03*
%TO.P,J2,3,Pin_3*%
%TO.N,+5V*%
X112540000Y-94860000D03*
%TO.P,J2,4,Pin_4*%
%TO.N,/uartTx*%
X112540000Y-92320000D03*
%TO.P,J2,5,Pin_5*%
%TO.N,/uartRx*%
X112540000Y-89780000D03*
%TD*%
D17*
%TO.N,GND*%
X160750000Y-76500000D03*
X159250000Y-76500000D03*
X157750000Y-76500000D03*
X140250000Y-77500000D03*
X145750000Y-77500000D03*
X153000000Y-81500000D03*
X148500000Y-81500000D03*
X150000000Y-83000000D03*
X151500000Y-83000000D03*
X150000000Y-80000000D03*
X151500000Y-80000000D03*
X150000000Y-81500000D03*
X151500000Y-81500000D03*
X156250000Y-91250000D03*
X126750000Y-85750000D03*
X155170000Y-85500000D03*
X156420000Y-83250000D03*
X143750000Y-80250000D03*
X116000000Y-100750000D03*
X137170000Y-83000000D03*
X119750000Y-96500000D03*
X151920000Y-86750000D03*
X113500000Y-87250000D03*
X150000000Y-84750000D03*
X142000000Y-77500000D03*
X129250000Y-83000000D03*
X155145000Y-88250000D03*
X151500000Y-78250000D03*
X143750000Y-91000000D03*
D18*
X135000000Y-75000000D03*
D17*
X123250000Y-90000000D03*
X147500000Y-77500000D03*
X154730000Y-81500000D03*
X117750000Y-73750000D03*
X156420000Y-84750000D03*
X119500000Y-87250000D03*
X150145000Y-94000000D03*
X148060000Y-73000000D03*
X156250000Y-76500000D03*
X160670000Y-91250000D03*
X128000000Y-88750000D03*
X147500000Y-91000000D03*
X159250000Y-91250000D03*
X150000000Y-78250000D03*
X140645000Y-80250000D03*
X139310000Y-76000000D03*
X148060000Y-76000000D03*
X146730000Y-81500000D03*
X126250000Y-81500000D03*
X132250000Y-76500000D03*
X122000000Y-78250000D03*
X135920000Y-78912500D03*
X151500000Y-84750000D03*
X153500000Y-77500000D03*
X145000000Y-96000000D03*
X139310000Y-74500000D03*
X156250000Y-89750000D03*
X144500000Y-82500000D03*
X157750000Y-91250000D03*
X142145000Y-80250000D03*
X124250000Y-77000000D03*
X139310000Y-73000000D03*
D18*
X158000000Y-99000000D03*
D17*
X134641269Y-80756889D03*
X156250000Y-78000000D03*
X151895000Y-92250000D03*
X145705000Y-80250000D03*
X127500000Y-74750000D03*
X131000000Y-94250000D03*
X148060000Y-74500000D03*
%TO.N,+5V*%
X140000000Y-95250000D03*
X117250000Y-79250000D03*
X153000000Y-98000000D03*
X121340000Y-100255000D03*
%TO.N,+3V0*%
X139250000Y-83500000D03*
X135500000Y-94000000D03*
X127250000Y-84500000D03*
%TO.N,/SeqProg*%
X123750000Y-95250000D03*
X128000000Y-98750000D03*
%TO.N,/uartTx*%
X119000000Y-76750000D03*
%TO.N,/uartRx*%
X124250000Y-74749018D03*
%TO.N,Net-(D2-Pad1)*%
X143000000Y-93500000D03*
X118399312Y-83100688D03*
%TD*%
D19*
%TO.N,+5V*%
X121340000Y-100255000D02*
X140255000Y-100255000D01*
X117250000Y-93250000D02*
X115640000Y-94860000D01*
X153000000Y-98000000D02*
X150745000Y-100255000D01*
X140000000Y-95250000D02*
X140000000Y-100000000D01*
X117250000Y-79250000D02*
X117250000Y-93250000D01*
X115640000Y-94860000D02*
X112540000Y-94860000D01*
X112540000Y-94860000D02*
X115860000Y-94860000D01*
X115860000Y-94860000D02*
X121255000Y-100255000D01*
X140000000Y-100000000D02*
X140255000Y-100255000D01*
X150745000Y-100255000D02*
X140255000Y-100255000D01*
X121255000Y-100255000D02*
X121340000Y-100255000D01*
%TO.N,+3V0*%
X139250000Y-83500000D02*
X138250000Y-84500000D01*
X135500000Y-84500000D02*
X135500000Y-94000000D01*
X127250000Y-84500000D02*
X135500000Y-84500000D01*
X138250000Y-84500000D02*
X135500000Y-84500000D01*
D20*
%TO.N,/SeqProg*%
X128000000Y-96750000D02*
X128000000Y-98750000D01*
X126500000Y-95250000D02*
X128000000Y-96750000D01*
X123750000Y-95250000D02*
X126500000Y-95250000D01*
D21*
%TO.N,/uartTx*%
X119000000Y-76750000D02*
X118000000Y-76750000D01*
X112540000Y-92210000D02*
X112540000Y-92320000D01*
X118000000Y-76750000D02*
X116000000Y-78750000D01*
X116000000Y-88750000D02*
X112540000Y-92210000D01*
X116000000Y-78750000D02*
X116000000Y-88750000D01*
%TO.N,/uartRx*%
X124250000Y-74749018D02*
X118750982Y-74749018D01*
X115250000Y-88250000D02*
X113720000Y-89780000D01*
X118750982Y-74749018D02*
X115250000Y-78250000D01*
X113720000Y-89780000D02*
X112540000Y-89780000D01*
X115250000Y-78250000D02*
X115250000Y-88250000D01*
D20*
%TO.N,Net-(D2-Pad1)*%
X136750000Y-95500000D02*
X138750000Y-93500000D01*
X118399312Y-83100688D02*
X130798624Y-95500000D01*
X138750000Y-93500000D02*
X143000000Y-93500000D01*
X130798624Y-95500000D02*
X136750000Y-95500000D01*
%TD*%
%TA.AperFunction,Conductor*%
%TO.N,GND*%
G36*
X161442121Y-72270002D02*
G01*
X161488614Y-72323658D01*
X161500000Y-72376000D01*
X161500000Y-101624000D01*
X161479998Y-101692121D01*
X161426342Y-101738614D01*
X161374000Y-101750000D01*
X110376000Y-101750000D01*
X110307879Y-101729998D01*
X110261386Y-101676342D01*
X110250000Y-101624000D01*
X110250000Y-100814674D01*
X111439500Y-100814674D01*
X111454034Y-100887740D01*
X111509399Y-100970601D01*
X111592260Y-101025966D01*
X111665326Y-101040500D01*
X113414674Y-101040500D01*
X113487740Y-101025966D01*
X113570601Y-100970601D01*
X113625966Y-100887740D01*
X113640500Y-100814674D01*
X113640500Y-99065326D01*
X113625966Y-98992260D01*
X113570601Y-98909399D01*
X113487740Y-98854034D01*
X113414674Y-98839500D01*
X111665326Y-98839500D01*
X111592260Y-98854034D01*
X111509399Y-98909399D01*
X111454034Y-98992260D01*
X111439500Y-99065326D01*
X111439500Y-100814674D01*
X110250000Y-100814674D01*
X110250000Y-94831069D01*
X111435164Y-94831069D01*
X111448392Y-95032894D01*
X111449815Y-95038496D01*
X111493331Y-95209841D01*
X111498178Y-95228928D01*
X111582856Y-95412607D01*
X111699588Y-95577780D01*
X111703730Y-95581815D01*
X111796171Y-95671866D01*
X111844466Y-95718913D01*
X112012637Y-95831282D01*
X112017940Y-95833560D01*
X112017943Y-95833562D01*
X112172564Y-95899992D01*
X112198470Y-95911122D01*
X112395740Y-95955760D01*
X112401509Y-95955987D01*
X112401512Y-95955987D01*
X112477683Y-95958979D01*
X112597842Y-95963700D01*
X112684132Y-95951189D01*
X112792286Y-95935508D01*
X112792291Y-95935507D01*
X112798007Y-95934678D01*
X112803479Y-95932820D01*
X112803481Y-95932820D01*
X112984067Y-95871519D01*
X112984069Y-95871518D01*
X112989531Y-95869664D01*
X113135784Y-95787759D01*
X113160964Y-95773658D01*
X113160965Y-95773657D01*
X113166001Y-95770837D01*
X113190454Y-95750500D01*
X113321505Y-95641505D01*
X113322804Y-95643067D01*
X113377171Y-95613379D01*
X113403954Y-95610500D01*
X115496943Y-95610500D01*
X115565064Y-95630502D01*
X115586038Y-95647405D01*
X120677322Y-100738689D01*
X120689709Y-100753102D01*
X120698041Y-100764425D01*
X120698045Y-100764429D01*
X120702383Y-100770324D01*
X120742200Y-100804151D01*
X120749704Y-100811071D01*
X120755303Y-100816670D01*
X120777351Y-100834114D01*
X120780727Y-100836883D01*
X120830175Y-100878892D01*
X120830178Y-100878894D01*
X120835755Y-100883632D01*
X120842274Y-100886960D01*
X120847184Y-100890235D01*
X120852204Y-100893336D01*
X120857949Y-100897881D01*
X120864587Y-100900983D01*
X120864588Y-100900984D01*
X120923343Y-100928444D01*
X120927289Y-100930372D01*
X120991616Y-100963219D01*
X120998725Y-100964958D01*
X121004260Y-100967017D01*
X121009868Y-100968883D01*
X121016493Y-100971979D01*
X121023653Y-100973468D01*
X121023655Y-100973469D01*
X121087184Y-100986683D01*
X121091468Y-100987653D01*
X121161606Y-101004815D01*
X121167206Y-101005162D01*
X121167210Y-101005163D01*
X121172648Y-101005500D01*
X121172646Y-101005531D01*
X121176770Y-101005780D01*
X121180672Y-101006128D01*
X121187830Y-101007617D01*
X121264378Y-101005546D01*
X121267786Y-101005500D01*
X140168031Y-101005500D01*
X140179231Y-101005999D01*
X140180667Y-101006127D01*
X140187830Y-101007617D01*
X140264378Y-101005546D01*
X140267786Y-101005500D01*
X150678546Y-101005500D01*
X150697496Y-101006933D01*
X150711396Y-101009048D01*
X150711400Y-101009048D01*
X150718630Y-101010148D01*
X150725922Y-101009555D01*
X150725925Y-101009555D01*
X150770675Y-101005915D01*
X150780889Y-101005500D01*
X150788822Y-101005500D01*
X150798118Y-101004416D01*
X150816736Y-101002246D01*
X150821111Y-101001813D01*
X150851274Y-100999360D01*
X150893059Y-100995961D01*
X150900021Y-100993706D01*
X150905816Y-100992548D01*
X150911558Y-100991191D01*
X150918828Y-100990343D01*
X150986736Y-100965694D01*
X150990864Y-100964277D01*
X151052583Y-100944283D01*
X151052585Y-100944282D01*
X151059546Y-100942027D01*
X151065800Y-100938232D01*
X151071179Y-100935769D01*
X151076455Y-100933127D01*
X151083331Y-100930631D01*
X151143709Y-100891046D01*
X151147419Y-100888705D01*
X151204361Y-100854152D01*
X151204368Y-100854147D01*
X151209160Y-100851239D01*
X151217452Y-100843915D01*
X151217474Y-100843940D01*
X151220569Y-100841194D01*
X151223563Y-100838691D01*
X151229685Y-100834677D01*
X151282383Y-100779048D01*
X151284760Y-100776607D01*
X153559083Y-98502285D01*
X153561671Y-98499697D01*
X153563934Y-98496836D01*
X153563939Y-98496831D01*
X153638341Y-98402789D01*
X153642881Y-98397051D01*
X153716980Y-98238507D01*
X153752618Y-98067169D01*
X153747885Y-97892228D01*
X153703032Y-97723068D01*
X153620468Y-97568764D01*
X153504621Y-97437592D01*
X153361704Y-97336588D01*
X153354918Y-97333853D01*
X153354914Y-97333851D01*
X153280545Y-97303880D01*
X153199385Y-97271171D01*
X153192148Y-97270070D01*
X153033604Y-97245951D01*
X153033600Y-97245951D01*
X153026370Y-97244851D01*
X153019078Y-97245444D01*
X153019075Y-97245444D01*
X152929375Y-97252741D01*
X152851941Y-97259039D01*
X152844982Y-97261293D01*
X152844979Y-97261294D01*
X152692420Y-97310716D01*
X152692417Y-97310717D01*
X152685454Y-97312973D01*
X152679199Y-97316769D01*
X152679196Y-97316770D01*
X152639575Y-97340813D01*
X152535841Y-97403761D01*
X152527548Y-97411084D01*
X151706361Y-98232271D01*
X151644052Y-98266294D01*
X151573237Y-98261230D01*
X151516401Y-98218683D01*
X151491590Y-98152163D01*
X151506681Y-98082789D01*
X151520394Y-98062605D01*
X151547146Y-98030439D01*
X151550837Y-98026001D01*
X151649664Y-97849531D01*
X151694783Y-97716617D01*
X151712820Y-97663481D01*
X151712820Y-97663479D01*
X151714678Y-97658007D01*
X151715507Y-97652291D01*
X151715508Y-97652286D01*
X151743167Y-97461516D01*
X151743700Y-97457842D01*
X151745019Y-97407470D01*
X151745118Y-97403704D01*
X151745215Y-97400000D01*
X151726708Y-97198591D01*
X151671807Y-97003926D01*
X151582351Y-96822527D01*
X151564079Y-96798057D01*
X151464788Y-96665091D01*
X151464787Y-96665090D01*
X151461335Y-96660467D01*
X151438350Y-96639220D01*
X151317053Y-96527094D01*
X151317051Y-96527092D01*
X151312812Y-96523174D01*
X151285374Y-96505862D01*
X151146637Y-96418325D01*
X151141757Y-96415246D01*
X150953898Y-96340298D01*
X150755526Y-96300839D01*
X150749752Y-96300763D01*
X150749748Y-96300763D01*
X150647257Y-96299422D01*
X150553286Y-96298192D01*
X150547589Y-96299171D01*
X150547588Y-96299171D01*
X150359646Y-96331465D01*
X150359645Y-96331465D01*
X150353949Y-96332444D01*
X150164193Y-96402449D01*
X150159232Y-96405401D01*
X150159231Y-96405401D01*
X150134328Y-96420217D01*
X149990371Y-96505862D01*
X149838305Y-96639220D01*
X149713089Y-96798057D01*
X149618914Y-96977053D01*
X149558937Y-97170213D01*
X149535164Y-97371069D01*
X149548392Y-97572894D01*
X149598178Y-97768928D01*
X149682856Y-97952607D01*
X149799588Y-98117780D01*
X149944466Y-98258913D01*
X150112637Y-98371282D01*
X150117940Y-98373560D01*
X150117943Y-98373562D01*
X150290081Y-98447518D01*
X150298470Y-98451122D01*
X150495740Y-98495760D01*
X150501509Y-98495987D01*
X150501512Y-98495987D01*
X150577683Y-98498979D01*
X150697842Y-98503700D01*
X150784132Y-98491189D01*
X150892286Y-98475508D01*
X150892291Y-98475507D01*
X150898007Y-98474678D01*
X150903479Y-98472820D01*
X150903481Y-98472820D01*
X151084067Y-98411519D01*
X151084069Y-98411518D01*
X151089531Y-98409664D01*
X151266001Y-98310837D01*
X151270440Y-98307145D01*
X151270446Y-98307141D01*
X151302604Y-98280395D01*
X151367768Y-98252213D01*
X151437823Y-98263736D01*
X151490528Y-98311304D01*
X151509148Y-98379816D01*
X151487773Y-98447518D01*
X151472269Y-98466363D01*
X150471038Y-99467595D01*
X150408726Y-99501620D01*
X150381943Y-99504500D01*
X140876500Y-99504500D01*
X140808379Y-99484498D01*
X140761886Y-99430842D01*
X140750500Y-99378500D01*
X140750500Y-95206178D01*
X140735343Y-95076172D01*
X140700471Y-94980100D01*
X140678128Y-94918548D01*
X140675631Y-94911669D01*
X140579677Y-94765315D01*
X140452628Y-94644960D01*
X140301298Y-94557061D01*
X140133807Y-94506333D01*
X139959138Y-94495497D01*
X139951922Y-94496737D01*
X139951920Y-94496737D01*
X139793875Y-94523894D01*
X139793873Y-94523895D01*
X139786660Y-94525134D01*
X139625627Y-94593654D01*
X139484676Y-94697383D01*
X139479937Y-94702961D01*
X139479934Y-94702964D01*
X139376107Y-94825176D01*
X139376104Y-94825180D01*
X139371368Y-94830755D01*
X139345253Y-94881898D01*
X139295416Y-94979498D01*
X139291781Y-94986616D01*
X139290042Y-94993721D01*
X139290041Y-94993725D01*
X139288628Y-94999500D01*
X139250185Y-95156606D01*
X139249500Y-95167648D01*
X139249500Y-99378500D01*
X139229498Y-99446621D01*
X139175842Y-99493114D01*
X139123500Y-99504500D01*
X128459800Y-99504500D01*
X128391679Y-99484498D01*
X128345186Y-99430842D01*
X128335082Y-99360568D01*
X128364576Y-99295988D01*
X128377970Y-99282689D01*
X128476574Y-99198474D01*
X128476576Y-99198471D01*
X128482348Y-99193542D01*
X128574224Y-99065683D01*
X128632950Y-98919598D01*
X128644178Y-98840707D01*
X128654553Y-98767807D01*
X128654553Y-98767804D01*
X128655134Y-98763723D01*
X128655278Y-98750000D01*
X128636363Y-98593694D01*
X128602357Y-98503700D01*
X128583394Y-98453514D01*
X128583393Y-98453511D01*
X128580710Y-98446412D01*
X128576412Y-98440158D01*
X128576408Y-98440151D01*
X128522661Y-98361950D01*
X128500500Y-98290582D01*
X128500500Y-96820176D01*
X128501828Y-96808296D01*
X128501317Y-96808255D01*
X128502037Y-96799307D01*
X128504018Y-96790552D01*
X128500742Y-96737745D01*
X128500500Y-96729943D01*
X128500500Y-96714060D01*
X128499863Y-96709610D01*
X128499052Y-96703942D01*
X128498022Y-96693891D01*
X128495697Y-96656420D01*
X128495697Y-96656419D01*
X128495141Y-96647461D01*
X128492093Y-96639017D01*
X128491328Y-96635324D01*
X128487653Y-96620584D01*
X128486596Y-96616968D01*
X128485323Y-96608082D01*
X128466067Y-96565730D01*
X128462255Y-96556367D01*
X128446460Y-96512613D01*
X128441162Y-96505361D01*
X128439383Y-96502015D01*
X128431726Y-96488911D01*
X128429697Y-96485739D01*
X128425984Y-96477572D01*
X128420129Y-96470777D01*
X128420127Y-96470774D01*
X128395613Y-96442325D01*
X128389324Y-96434404D01*
X128384352Y-96427598D01*
X128381478Y-96423664D01*
X128370735Y-96412921D01*
X128364377Y-96406074D01*
X128363797Y-96405401D01*
X128332400Y-96368963D01*
X128324866Y-96364080D01*
X128318104Y-96358181D01*
X128318108Y-96358176D01*
X128307014Y-96349200D01*
X126903534Y-94945720D01*
X126896068Y-94936376D01*
X126895678Y-94936708D01*
X126889860Y-94929872D01*
X126885070Y-94922280D01*
X126845399Y-94887244D01*
X126839712Y-94881898D01*
X126828494Y-94870680D01*
X126824905Y-94867990D01*
X126820316Y-94864550D01*
X126812477Y-94858168D01*
X126784339Y-94833318D01*
X126777612Y-94827377D01*
X126769489Y-94823563D01*
X126766336Y-94821492D01*
X126753324Y-94813673D01*
X126750005Y-94811856D01*
X126742824Y-94806474D01*
X126699261Y-94790143D01*
X126689947Y-94786217D01*
X126655966Y-94770263D01*
X126655963Y-94770262D01*
X126647837Y-94766447D01*
X126638963Y-94765065D01*
X126635350Y-94763961D01*
X126620693Y-94760115D01*
X126616990Y-94759301D01*
X126608580Y-94756148D01*
X126562157Y-94752698D01*
X126552144Y-94751548D01*
X126538991Y-94749500D01*
X126523796Y-94749500D01*
X126514459Y-94749154D01*
X126499036Y-94748008D01*
X126465608Y-94745524D01*
X126456832Y-94747397D01*
X126447875Y-94748008D01*
X126447875Y-94748002D01*
X126433682Y-94749500D01*
X124214144Y-94749500D01*
X124146023Y-94729498D01*
X124130331Y-94717581D01*
X124123976Y-94711919D01*
X124112739Y-94705969D01*
X124027630Y-94660906D01*
X123984831Y-94638245D01*
X123930890Y-94624696D01*
X123839498Y-94601740D01*
X123839496Y-94601740D01*
X123832128Y-94599889D01*
X123824530Y-94599849D01*
X123824528Y-94599849D01*
X123757319Y-94599497D01*
X123674684Y-94599065D01*
X123667305Y-94600837D01*
X123667301Y-94600837D01*
X123528967Y-94634048D01*
X123528963Y-94634049D01*
X123521588Y-94635820D01*
X123381679Y-94708032D01*
X123375957Y-94713024D01*
X123375955Y-94713025D01*
X123268759Y-94806538D01*
X123268756Y-94806541D01*
X123263034Y-94811533D01*
X123244944Y-94837273D01*
X123209823Y-94887245D01*
X123172501Y-94940348D01*
X123115309Y-95087039D01*
X123114318Y-95094568D01*
X123096629Y-95228928D01*
X123094758Y-95243138D01*
X123112035Y-95399633D01*
X123166143Y-95547490D01*
X123170380Y-95553796D01*
X123170382Y-95553799D01*
X123208484Y-95610500D01*
X123253958Y-95678172D01*
X123259574Y-95683282D01*
X123355428Y-95770502D01*
X123370410Y-95784135D01*
X123377085Y-95787759D01*
X123502099Y-95855637D01*
X123502101Y-95855638D01*
X123508776Y-95859262D01*
X123516125Y-95861190D01*
X123653719Y-95897287D01*
X123653721Y-95897287D01*
X123661069Y-95899215D01*
X123744380Y-95900524D01*
X123810898Y-95901569D01*
X123810901Y-95901569D01*
X123818495Y-95901688D01*
X123971968Y-95866538D01*
X124112625Y-95795795D01*
X124130312Y-95780689D01*
X124195102Y-95751658D01*
X124212142Y-95750500D01*
X126240496Y-95750500D01*
X126308617Y-95770502D01*
X126329591Y-95787405D01*
X127462595Y-96920409D01*
X127496621Y-96982721D01*
X127499500Y-97009504D01*
X127499500Y-98290941D01*
X127476587Y-98363392D01*
X127422501Y-98440348D01*
X127365309Y-98587039D01*
X127344758Y-98743138D01*
X127362035Y-98899633D01*
X127416143Y-99047490D01*
X127420380Y-99053796D01*
X127420382Y-99053799D01*
X127460709Y-99113811D01*
X127503958Y-99178172D01*
X127526270Y-99198474D01*
X127620410Y-99284135D01*
X127618485Y-99286251D01*
X127654184Y-99331551D01*
X127661005Y-99402219D01*
X127628537Y-99465357D01*
X127567089Y-99500918D01*
X127537258Y-99504500D01*
X121618057Y-99504500D01*
X121549936Y-99484498D01*
X121528962Y-99467595D01*
X119432436Y-97371069D01*
X124135164Y-97371069D01*
X124148392Y-97572894D01*
X124198178Y-97768928D01*
X124282856Y-97952607D01*
X124399588Y-98117780D01*
X124544466Y-98258913D01*
X124712637Y-98371282D01*
X124717940Y-98373560D01*
X124717943Y-98373562D01*
X124890081Y-98447518D01*
X124898470Y-98451122D01*
X125095740Y-98495760D01*
X125101509Y-98495987D01*
X125101512Y-98495987D01*
X125177683Y-98498979D01*
X125297842Y-98503700D01*
X125384132Y-98491189D01*
X125492286Y-98475508D01*
X125492291Y-98475507D01*
X125498007Y-98474678D01*
X125503479Y-98472820D01*
X125503481Y-98472820D01*
X125684067Y-98411519D01*
X125684069Y-98411518D01*
X125689531Y-98409664D01*
X125866001Y-98310837D01*
X125922634Y-98263736D01*
X126017073Y-98185191D01*
X126021505Y-98181505D01*
X126150837Y-98026001D01*
X126249664Y-97849531D01*
X126294783Y-97716617D01*
X126312820Y-97663481D01*
X126312820Y-97663479D01*
X126314678Y-97658007D01*
X126315507Y-97652291D01*
X126315508Y-97652286D01*
X126343167Y-97461516D01*
X126343700Y-97457842D01*
X126345019Y-97407470D01*
X126345118Y-97403704D01*
X126345215Y-97400000D01*
X126326708Y-97198591D01*
X126271807Y-97003926D01*
X126182351Y-96822527D01*
X126164079Y-96798057D01*
X126064788Y-96665091D01*
X126064787Y-96665090D01*
X126061335Y-96660467D01*
X126038350Y-96639220D01*
X125917053Y-96527094D01*
X125917051Y-96527092D01*
X125912812Y-96523174D01*
X125885374Y-96505862D01*
X125746637Y-96418325D01*
X125741757Y-96415246D01*
X125553898Y-96340298D01*
X125355526Y-96300839D01*
X125349752Y-96300763D01*
X125349748Y-96300763D01*
X125247257Y-96299422D01*
X125153286Y-96298192D01*
X125147589Y-96299171D01*
X125147588Y-96299171D01*
X124959646Y-96331465D01*
X124959645Y-96331465D01*
X124953949Y-96332444D01*
X124764193Y-96402449D01*
X124759232Y-96405401D01*
X124759231Y-96405401D01*
X124734328Y-96420217D01*
X124590371Y-96505862D01*
X124438305Y-96639220D01*
X124313089Y-96798057D01*
X124218914Y-96977053D01*
X124158937Y-97170213D01*
X124135164Y-97371069D01*
X119432436Y-97371069D01*
X116900463Y-94839096D01*
X116866437Y-94776784D01*
X116871502Y-94705969D01*
X116900463Y-94660906D01*
X117733697Y-93827672D01*
X117748109Y-93815286D01*
X117759429Y-93806955D01*
X117765324Y-93802617D01*
X117799135Y-93762819D01*
X117806065Y-93755303D01*
X117811671Y-93749697D01*
X117813934Y-93746836D01*
X117813939Y-93746831D01*
X117829117Y-93727646D01*
X117831906Y-93724245D01*
X117873891Y-93674826D01*
X117873893Y-93674824D01*
X117878632Y-93669245D01*
X117881963Y-93662722D01*
X117885256Y-93657784D01*
X117888340Y-93652790D01*
X117892881Y-93647051D01*
X117895978Y-93640424D01*
X117895982Y-93640418D01*
X117923454Y-93581637D01*
X117925385Y-93577685D01*
X117954890Y-93519903D01*
X117958219Y-93513384D01*
X117959959Y-93506273D01*
X117962020Y-93500731D01*
X117963881Y-93495138D01*
X117966980Y-93488507D01*
X117981690Y-93417786D01*
X117982660Y-93413502D01*
X117993588Y-93368842D01*
X117999815Y-93343394D01*
X118000500Y-93332352D01*
X118000532Y-93332354D01*
X118000779Y-93328241D01*
X118001128Y-93324334D01*
X118002618Y-93317169D01*
X118000546Y-93240600D01*
X118000500Y-93237192D01*
X118000500Y-83831927D01*
X118020502Y-83763806D01*
X118074158Y-83717313D01*
X118144432Y-83707209D01*
X118158473Y-83710051D01*
X118310381Y-83749903D01*
X118310017Y-83751291D01*
X118367227Y-83776959D01*
X118374445Y-83783635D01*
X130395090Y-95804280D01*
X130402556Y-95813624D01*
X130402946Y-95813292D01*
X130408764Y-95820128D01*
X130413554Y-95827720D01*
X130420282Y-95833662D01*
X130420283Y-95833663D01*
X130453224Y-95862755D01*
X130458912Y-95868102D01*
X130470130Y-95879320D01*
X130473718Y-95882009D01*
X130473719Y-95882010D01*
X130478308Y-95885450D01*
X130486147Y-95891832D01*
X130497307Y-95901688D01*
X130521012Y-95922623D01*
X130529135Y-95926437D01*
X130532288Y-95928508D01*
X130545300Y-95936327D01*
X130548618Y-95938143D01*
X130555800Y-95943526D01*
X130599365Y-95959858D01*
X130608674Y-95963780D01*
X130650787Y-95983553D01*
X130659660Y-95984935D01*
X130663282Y-95986042D01*
X130677952Y-95989891D01*
X130681641Y-95990702D01*
X130690043Y-95993852D01*
X130698988Y-95994517D01*
X130698998Y-95994519D01*
X130736452Y-95997302D01*
X130746479Y-95998452D01*
X130759633Y-96000500D01*
X130774827Y-96000500D01*
X130784165Y-96000846D01*
X130833015Y-96004476D01*
X130841791Y-96002603D01*
X130850748Y-96001992D01*
X130850748Y-96001998D01*
X130864941Y-96000500D01*
X136679819Y-96000500D01*
X136691704Y-96001828D01*
X136691745Y-96001318D01*
X136700691Y-96002038D01*
X136709447Y-96004019D01*
X136752980Y-96001318D01*
X136762264Y-96000742D01*
X136770067Y-96000500D01*
X136785940Y-96000500D01*
X136796052Y-95999052D01*
X136806106Y-95998022D01*
X136834097Y-95996285D01*
X136852538Y-95995141D01*
X136860982Y-95992093D01*
X136864694Y-95991324D01*
X136879399Y-95987657D01*
X136883027Y-95986596D01*
X136891918Y-95985323D01*
X136934282Y-95966061D01*
X136943637Y-95962254D01*
X136978943Y-95949509D01*
X136978947Y-95949507D01*
X136987387Y-95946460D01*
X136994635Y-95941165D01*
X136997975Y-95939389D01*
X137011089Y-95931726D01*
X137014261Y-95929697D01*
X137022428Y-95925984D01*
X137029223Y-95920129D01*
X137029226Y-95920127D01*
X137057675Y-95895613D01*
X137065596Y-95889324D01*
X137072402Y-95884352D01*
X137076336Y-95881478D01*
X137087079Y-95870735D01*
X137093926Y-95864377D01*
X137124237Y-95838259D01*
X137131037Y-95832400D01*
X137135920Y-95824866D01*
X137141819Y-95818104D01*
X137141824Y-95818108D01*
X137150800Y-95807014D01*
X138920409Y-94037405D01*
X138982721Y-94003379D01*
X139009504Y-94000500D01*
X142534700Y-94000500D01*
X142602821Y-94020502D01*
X142608454Y-94024827D01*
X142608600Y-94024622D01*
X142614790Y-94029021D01*
X142620410Y-94034135D01*
X142627087Y-94037760D01*
X142627088Y-94037761D01*
X142752099Y-94105637D01*
X142752101Y-94105638D01*
X142758776Y-94109262D01*
X142766125Y-94111190D01*
X142903719Y-94147287D01*
X142903721Y-94147287D01*
X142911069Y-94149215D01*
X142994380Y-94150524D01*
X143060898Y-94151569D01*
X143060901Y-94151569D01*
X143068495Y-94151688D01*
X143221968Y-94116538D01*
X143362625Y-94045795D01*
X143435945Y-93983174D01*
X143476574Y-93948474D01*
X143476576Y-93948471D01*
X143482348Y-93943542D01*
X143574224Y-93815683D01*
X143632950Y-93669598D01*
X143646031Y-93577685D01*
X143654553Y-93517807D01*
X143654553Y-93517804D01*
X143655134Y-93513723D01*
X143655278Y-93500000D01*
X143636363Y-93343694D01*
X143596765Y-93238900D01*
X143583394Y-93203514D01*
X143583393Y-93203511D01*
X143580710Y-93196412D01*
X143491531Y-93066657D01*
X143433190Y-93014677D01*
X143379648Y-92966972D01*
X143379645Y-92966970D01*
X143373976Y-92961919D01*
X143234831Y-92888245D01*
X143218122Y-92884048D01*
X143089498Y-92851740D01*
X143089496Y-92851740D01*
X143082128Y-92849889D01*
X143074530Y-92849849D01*
X143074528Y-92849849D01*
X143007319Y-92849497D01*
X142924684Y-92849065D01*
X142917305Y-92850837D01*
X142917301Y-92850837D01*
X142778967Y-92884048D01*
X142778963Y-92884049D01*
X142771588Y-92885820D01*
X142631679Y-92958032D01*
X142619737Y-92968450D01*
X142555257Y-92998157D01*
X142536909Y-92999500D01*
X138820180Y-92999500D01*
X138808295Y-92998172D01*
X138808254Y-92998682D01*
X138799308Y-92997962D01*
X138790552Y-92995981D01*
X138755481Y-92998157D01*
X138737735Y-92999258D01*
X138729932Y-92999500D01*
X138714060Y-92999500D01*
X138703948Y-93000948D01*
X138693894Y-93001978D01*
X138665903Y-93003715D01*
X138647462Y-93004859D01*
X138639018Y-93007907D01*
X138635306Y-93008676D01*
X138620601Y-93012343D01*
X138616973Y-93013404D01*
X138608082Y-93014677D01*
X138565718Y-93033939D01*
X138556363Y-93037746D01*
X138521057Y-93050491D01*
X138521053Y-93050493D01*
X138512613Y-93053540D01*
X138505365Y-93058835D01*
X138502025Y-93060611D01*
X138488911Y-93068274D01*
X138485739Y-93070303D01*
X138477572Y-93074016D01*
X138470777Y-93079871D01*
X138470774Y-93079873D01*
X138442325Y-93104387D01*
X138434405Y-93110675D01*
X138423664Y-93118522D01*
X138412921Y-93129265D01*
X138406075Y-93135623D01*
X138368963Y-93167600D01*
X138364080Y-93175134D01*
X138358181Y-93181896D01*
X138358176Y-93181892D01*
X138349200Y-93192986D01*
X136579591Y-94962595D01*
X136517279Y-94996621D01*
X136490496Y-94999500D01*
X135592363Y-94999500D01*
X135524242Y-94979498D01*
X135510541Y-94963687D01*
X135452021Y-94996362D01*
X135424077Y-94999500D01*
X131058128Y-94999500D01*
X130990007Y-94979498D01*
X130969033Y-94962595D01*
X125727507Y-89721069D01*
X129215164Y-89721069D01*
X129228392Y-89922894D01*
X129278178Y-90118928D01*
X129362856Y-90302607D01*
X129479588Y-90467780D01*
X129624466Y-90608913D01*
X129792637Y-90721282D01*
X129797940Y-90723560D01*
X129797943Y-90723562D01*
X129956118Y-90791519D01*
X129978470Y-90801122D01*
X130175740Y-90845760D01*
X130181509Y-90845987D01*
X130181512Y-90845987D01*
X130257683Y-90848979D01*
X130377842Y-90853700D01*
X130464132Y-90841189D01*
X130572286Y-90825508D01*
X130572291Y-90825507D01*
X130578007Y-90824678D01*
X130583479Y-90822820D01*
X130583481Y-90822820D01*
X130764067Y-90761519D01*
X130764069Y-90761518D01*
X130769531Y-90759664D01*
X130946001Y-90660837D01*
X131008433Y-90608913D01*
X131097073Y-90535191D01*
X131101505Y-90531505D01*
X131230837Y-90376001D01*
X131329664Y-90199531D01*
X131341167Y-90165646D01*
X131392820Y-90013481D01*
X131392820Y-90013479D01*
X131394678Y-90008007D01*
X131395507Y-90002291D01*
X131395508Y-90002286D01*
X131412809Y-89882956D01*
X131423700Y-89807842D01*
X131425215Y-89750000D01*
X131406708Y-89548591D01*
X131351807Y-89353926D01*
X131262351Y-89172527D01*
X131244079Y-89148057D01*
X131144788Y-89015091D01*
X131144787Y-89015090D01*
X131141335Y-89010467D01*
X131137099Y-89006551D01*
X130997053Y-88877094D01*
X130997051Y-88877092D01*
X130992812Y-88873174D01*
X130965374Y-88855862D01*
X130826637Y-88768325D01*
X130821757Y-88765246D01*
X130633898Y-88690298D01*
X130435526Y-88650839D01*
X130429752Y-88650763D01*
X130429748Y-88650763D01*
X130327257Y-88649422D01*
X130233286Y-88648192D01*
X130227589Y-88649171D01*
X130227588Y-88649171D01*
X130039646Y-88681465D01*
X130039645Y-88681465D01*
X130033949Y-88682444D01*
X129844193Y-88752449D01*
X129839232Y-88755401D01*
X129839231Y-88755401D01*
X129772258Y-88795246D01*
X129670371Y-88855862D01*
X129518305Y-88989220D01*
X129393089Y-89148057D01*
X129298914Y-89327053D01*
X129238937Y-89520213D01*
X129215164Y-89721069D01*
X125727507Y-89721069D01*
X124121112Y-88114674D01*
X126679500Y-88114674D01*
X126694034Y-88187740D01*
X126749399Y-88270601D01*
X126832260Y-88325966D01*
X126905326Y-88340500D01*
X128654674Y-88340500D01*
X128727740Y-88325966D01*
X128810601Y-88270601D01*
X128865966Y-88187740D01*
X128880500Y-88114674D01*
X128880500Y-87211069D01*
X129215164Y-87211069D01*
X129228392Y-87412894D01*
X129278178Y-87608928D01*
X129362856Y-87792607D01*
X129479588Y-87957780D01*
X129624466Y-88098913D01*
X129792637Y-88211282D01*
X129797940Y-88213560D01*
X129797943Y-88213562D01*
X129973163Y-88288842D01*
X129978470Y-88291122D01*
X130175740Y-88335760D01*
X130181509Y-88335987D01*
X130181512Y-88335987D01*
X130257683Y-88338979D01*
X130377842Y-88343700D01*
X130464132Y-88331189D01*
X130572286Y-88315508D01*
X130572291Y-88315507D01*
X130578007Y-88314678D01*
X130583479Y-88312820D01*
X130583481Y-88312820D01*
X130764067Y-88251519D01*
X130764069Y-88251518D01*
X130769531Y-88249664D01*
X130946001Y-88150837D01*
X130981862Y-88121012D01*
X131097073Y-88025191D01*
X131101505Y-88021505D01*
X131230837Y-87866001D01*
X131329664Y-87689531D01*
X131394678Y-87498007D01*
X131395507Y-87492291D01*
X131395508Y-87492286D01*
X131423167Y-87301516D01*
X131423700Y-87297842D01*
X131425215Y-87240000D01*
X131406708Y-87038591D01*
X131351807Y-86843926D01*
X131262351Y-86662527D01*
X131244079Y-86638057D01*
X131144788Y-86505091D01*
X131144787Y-86505090D01*
X131141335Y-86500467D01*
X131118350Y-86479220D01*
X130997053Y-86367094D01*
X130997051Y-86367092D01*
X130992812Y-86363174D01*
X130965374Y-86345862D01*
X130826637Y-86258325D01*
X130821757Y-86255246D01*
X130633898Y-86180298D01*
X130435526Y-86140839D01*
X130429752Y-86140763D01*
X130429748Y-86140763D01*
X130327257Y-86139422D01*
X130233286Y-86138192D01*
X130227589Y-86139171D01*
X130227588Y-86139171D01*
X130039646Y-86171465D01*
X130039645Y-86171465D01*
X130033949Y-86172444D01*
X129844193Y-86242449D01*
X129670371Y-86345862D01*
X129518305Y-86479220D01*
X129393089Y-86638057D01*
X129298914Y-86817053D01*
X129238937Y-87010213D01*
X129215164Y-87211069D01*
X128880500Y-87211069D01*
X128880500Y-86365326D01*
X128865966Y-86292260D01*
X128810601Y-86209399D01*
X128727740Y-86154034D01*
X128654674Y-86139500D01*
X126905326Y-86139500D01*
X126832260Y-86154034D01*
X126749399Y-86209399D01*
X126694034Y-86292260D01*
X126679500Y-86365326D01*
X126679500Y-88114674D01*
X124121112Y-88114674D01*
X120547300Y-84540862D01*
X126495497Y-84540862D01*
X126525134Y-84713340D01*
X126593654Y-84874373D01*
X126697383Y-85015324D01*
X126702961Y-85020063D01*
X126702964Y-85020066D01*
X126825176Y-85123893D01*
X126825180Y-85123896D01*
X126830755Y-85128632D01*
X126911572Y-85169899D01*
X126922797Y-85175631D01*
X126986616Y-85208219D01*
X126993721Y-85209958D01*
X126993725Y-85209959D01*
X127074858Y-85229811D01*
X127156606Y-85249815D01*
X127162206Y-85250162D01*
X127162210Y-85250163D01*
X127165709Y-85250380D01*
X127165718Y-85250380D01*
X127167648Y-85250500D01*
X134623500Y-85250500D01*
X134691621Y-85270502D01*
X134738114Y-85324158D01*
X134749500Y-85376500D01*
X134749500Y-85624000D01*
X134729498Y-85692121D01*
X134675842Y-85738614D01*
X134623500Y-85750000D01*
X131750000Y-85750000D01*
X131750000Y-88000000D01*
X134623500Y-88000000D01*
X134691621Y-88020002D01*
X134738114Y-88073658D01*
X134749500Y-88126000D01*
X134749500Y-94043822D01*
X134764657Y-94173828D01*
X134767153Y-94180705D01*
X134767154Y-94180708D01*
X134821872Y-94331452D01*
X134824369Y-94338331D01*
X134920323Y-94484685D01*
X135000606Y-94560738D01*
X135041935Y-94599889D01*
X135047372Y-94605040D01*
X135198702Y-94692939D01*
X135366193Y-94743667D01*
X135427359Y-94747462D01*
X135431879Y-94747742D01*
X135498630Y-94771923D01*
X135507903Y-94784070D01*
X135556865Y-94752604D01*
X135571025Y-94749320D01*
X135578696Y-94748002D01*
X135603924Y-94743667D01*
X135706125Y-94726106D01*
X135706127Y-94726105D01*
X135713340Y-94724866D01*
X135874373Y-94656346D01*
X136015324Y-94552617D01*
X136020063Y-94547039D01*
X136020066Y-94547036D01*
X136123893Y-94424824D01*
X136123896Y-94424820D01*
X136128632Y-94419245D01*
X136208219Y-94263384D01*
X136210633Y-94253521D01*
X136236156Y-94149215D01*
X136249815Y-94093394D01*
X136250500Y-94082352D01*
X136250500Y-89751069D01*
X139375164Y-89751069D01*
X139388392Y-89952894D01*
X139389815Y-89958496D01*
X139436240Y-90141296D01*
X139438178Y-90148928D01*
X139522856Y-90332607D01*
X139639588Y-90497780D01*
X139643730Y-90501815D01*
X139677992Y-90535191D01*
X139784466Y-90638913D01*
X139952637Y-90751282D01*
X139957940Y-90753560D01*
X139957943Y-90753562D01*
X140123471Y-90824678D01*
X140138470Y-90831122D01*
X140335740Y-90875760D01*
X140341509Y-90875987D01*
X140341512Y-90875987D01*
X140417683Y-90878979D01*
X140537842Y-90883700D01*
X140624132Y-90871189D01*
X140732286Y-90855508D01*
X140732291Y-90855507D01*
X140738007Y-90854678D01*
X140743479Y-90852820D01*
X140743481Y-90852820D01*
X140924067Y-90791519D01*
X140924069Y-90791518D01*
X140929531Y-90789664D01*
X141106001Y-90690837D01*
X141168433Y-90638913D01*
X141204503Y-90608913D01*
X141261505Y-90561505D01*
X141390837Y-90406001D01*
X141410459Y-90370964D01*
X141486845Y-90234564D01*
X141489664Y-90229531D01*
X141501294Y-90195272D01*
X141552820Y-90043481D01*
X141552820Y-90043479D01*
X141554678Y-90038007D01*
X141555507Y-90032291D01*
X141555508Y-90032286D01*
X141583167Y-89841516D01*
X141583700Y-89837842D01*
X141585215Y-89780000D01*
X141566708Y-89578591D01*
X141511807Y-89383926D01*
X141422351Y-89202527D01*
X141404079Y-89178057D01*
X141304788Y-89045091D01*
X141304787Y-89045090D01*
X141301335Y-89040467D01*
X141297099Y-89036551D01*
X141157053Y-88907094D01*
X141157051Y-88907092D01*
X141152812Y-88903174D01*
X141125374Y-88885862D01*
X140986637Y-88798325D01*
X140981757Y-88795246D01*
X140793898Y-88720298D01*
X140595526Y-88680839D01*
X140589752Y-88680763D01*
X140589748Y-88680763D01*
X140487257Y-88679422D01*
X140393286Y-88678192D01*
X140387589Y-88679171D01*
X140387588Y-88679171D01*
X140199646Y-88711465D01*
X140199645Y-88711465D01*
X140193949Y-88712444D01*
X140004193Y-88782449D01*
X139999232Y-88785401D01*
X139999231Y-88785401D01*
X139845109Y-88877094D01*
X139830371Y-88885862D01*
X139678305Y-89019220D01*
X139553089Y-89178057D01*
X139458914Y-89357053D01*
X139398937Y-89550213D01*
X139375164Y-89751069D01*
X136250500Y-89751069D01*
X136250500Y-88126000D01*
X136270502Y-88057879D01*
X136324158Y-88011386D01*
X136376500Y-88000000D01*
X148750000Y-88000000D01*
X148750000Y-85750000D01*
X136376500Y-85750000D01*
X136308379Y-85729998D01*
X136261886Y-85676342D01*
X136250500Y-85624000D01*
X136250500Y-85376500D01*
X136270502Y-85308379D01*
X136324158Y-85261886D01*
X136376500Y-85250500D01*
X138183546Y-85250500D01*
X138202496Y-85251933D01*
X138216396Y-85254048D01*
X138216400Y-85254048D01*
X138223630Y-85255148D01*
X138230922Y-85254555D01*
X138230925Y-85254555D01*
X138275675Y-85250915D01*
X138285889Y-85250500D01*
X138293822Y-85250500D01*
X138303118Y-85249416D01*
X138321736Y-85247246D01*
X138326111Y-85246813D01*
X138356274Y-85244360D01*
X138398059Y-85240961D01*
X138405021Y-85238706D01*
X138410816Y-85237548D01*
X138416558Y-85236191D01*
X138423828Y-85235343D01*
X138491736Y-85210694D01*
X138495864Y-85209277D01*
X138557583Y-85189283D01*
X138557585Y-85189282D01*
X138564546Y-85187027D01*
X138570800Y-85183232D01*
X138576179Y-85180769D01*
X138581455Y-85178127D01*
X138588331Y-85175631D01*
X138648709Y-85136046D01*
X138652419Y-85133705D01*
X138709361Y-85099152D01*
X138709368Y-85099147D01*
X138714160Y-85096239D01*
X138722452Y-85088915D01*
X138722474Y-85088940D01*
X138725569Y-85086194D01*
X138728563Y-85083691D01*
X138734685Y-85079677D01*
X138787384Y-85024047D01*
X138789761Y-85021606D01*
X139811671Y-83999696D01*
X139892881Y-83897051D01*
X139966980Y-83738507D01*
X140002618Y-83567169D01*
X139997885Y-83392228D01*
X139953032Y-83223068D01*
X139870468Y-83068764D01*
X139754621Y-82937592D01*
X139611704Y-82836588D01*
X139604918Y-82833853D01*
X139604914Y-82833851D01*
X139530545Y-82803880D01*
X139449385Y-82771171D01*
X139442148Y-82770070D01*
X139283604Y-82745951D01*
X139283600Y-82745951D01*
X139276370Y-82744851D01*
X139269078Y-82745444D01*
X139269075Y-82745444D01*
X139179375Y-82752741D01*
X139101941Y-82759039D01*
X139094982Y-82761293D01*
X139094979Y-82761294D01*
X138942420Y-82810716D01*
X138942417Y-82810717D01*
X138935454Y-82812973D01*
X138929199Y-82816769D01*
X138929196Y-82816770D01*
X138889575Y-82840813D01*
X138785841Y-82903761D01*
X138777548Y-82911084D01*
X138776168Y-82912464D01*
X137976038Y-83712595D01*
X137913725Y-83746620D01*
X137886942Y-83749500D01*
X135527565Y-83749500D01*
X135519763Y-83749258D01*
X135459138Y-83745497D01*
X135451922Y-83746737D01*
X135451921Y-83746737D01*
X135450053Y-83747058D01*
X135446432Y-83747680D01*
X135425096Y-83749500D01*
X127206178Y-83749500D01*
X127114631Y-83760173D01*
X127083444Y-83763809D01*
X127083442Y-83763809D01*
X127076172Y-83764657D01*
X127069295Y-83767153D01*
X127069292Y-83767154D01*
X126918548Y-83821872D01*
X126911669Y-83824369D01*
X126765315Y-83920323D01*
X126644960Y-84047372D01*
X126557061Y-84198702D01*
X126506333Y-84366193D01*
X126495497Y-84540862D01*
X120547300Y-84540862D01*
X119078122Y-83071684D01*
X119044096Y-83009372D01*
X119042133Y-82997747D01*
X119035675Y-82944382D01*
X118996540Y-82840813D01*
X118982706Y-82804202D01*
X118982705Y-82804199D01*
X118980022Y-82797100D01*
X118890843Y-82667345D01*
X118844283Y-82625862D01*
X118778960Y-82567660D01*
X118778957Y-82567658D01*
X118773288Y-82562607D01*
X118634143Y-82488933D01*
X118513266Y-82458571D01*
X118488810Y-82452428D01*
X118488808Y-82452428D01*
X118481440Y-82450577D01*
X118473842Y-82450537D01*
X118473840Y-82450537D01*
X118406631Y-82450185D01*
X118323996Y-82449753D01*
X118316617Y-82451525D01*
X118316613Y-82451525D01*
X118178280Y-82484736D01*
X118178278Y-82484737D01*
X118170900Y-82486508D01*
X118168391Y-82487803D01*
X118099598Y-82492657D01*
X118037318Y-82458571D01*
X118003354Y-82396226D01*
X118000500Y-82369562D01*
X118000500Y-79206178D01*
X117985343Y-79076172D01*
X117925631Y-78911669D01*
X117829677Y-78765315D01*
X117702628Y-78644960D01*
X117551298Y-78557061D01*
X117383807Y-78506333D01*
X117209138Y-78495497D01*
X117201922Y-78496737D01*
X117201920Y-78496737D01*
X117166449Y-78502832D01*
X117131213Y-78508887D01*
X117060690Y-78500710D01*
X117005782Y-78455703D01*
X116983923Y-78388156D01*
X117002053Y-78319513D01*
X117020781Y-78295612D01*
X118128987Y-77187405D01*
X118191299Y-77153380D01*
X118218082Y-77150500D01*
X118424800Y-77150500D01*
X118492921Y-77170502D01*
X118509599Y-77183306D01*
X118614789Y-77279021D01*
X118614793Y-77279024D01*
X118620410Y-77284135D01*
X118627085Y-77287759D01*
X118752099Y-77355637D01*
X118752101Y-77355638D01*
X118758776Y-77359262D01*
X118766125Y-77361190D01*
X118903719Y-77397287D01*
X118903721Y-77397287D01*
X118911069Y-77399215D01*
X118994380Y-77400524D01*
X119060898Y-77401569D01*
X119060901Y-77401569D01*
X119068495Y-77401688D01*
X119221968Y-77366538D01*
X119362625Y-77295795D01*
X119388869Y-77273381D01*
X119476574Y-77198474D01*
X119476576Y-77198471D01*
X119482348Y-77193542D01*
X119574224Y-77065683D01*
X119632950Y-76919598D01*
X119655134Y-76763723D01*
X119655278Y-76750000D01*
X119636363Y-76593694D01*
X119580710Y-76446412D01*
X119491531Y-76316657D01*
X119444971Y-76275174D01*
X119379648Y-76216972D01*
X119379645Y-76216970D01*
X119373976Y-76211919D01*
X119234831Y-76138245D01*
X119218122Y-76134048D01*
X119089498Y-76101740D01*
X119089496Y-76101740D01*
X119082128Y-76099889D01*
X119074530Y-76099849D01*
X119074528Y-76099849D01*
X119007319Y-76099497D01*
X118924684Y-76099065D01*
X118917305Y-76100837D01*
X118917301Y-76100837D01*
X118778967Y-76134048D01*
X118778963Y-76134049D01*
X118771588Y-76135820D01*
X118631679Y-76208032D01*
X118625957Y-76213024D01*
X118625955Y-76213025D01*
X118553947Y-76275842D01*
X118513034Y-76311533D01*
X118512523Y-76310947D01*
X118457170Y-76345050D01*
X118423978Y-76349500D01*
X118021082Y-76349500D01*
X117952961Y-76329498D01*
X117906468Y-76275842D01*
X117896364Y-76205568D01*
X117925858Y-76140988D01*
X117931987Y-76134405D01*
X118879969Y-75186423D01*
X118942281Y-75152397D01*
X118969064Y-75149518D01*
X123674800Y-75149518D01*
X123742921Y-75169520D01*
X123759599Y-75182324D01*
X123864789Y-75278039D01*
X123864793Y-75278042D01*
X123870410Y-75283153D01*
X123877085Y-75286777D01*
X124002099Y-75354655D01*
X124002101Y-75354656D01*
X124008776Y-75358280D01*
X124016125Y-75360208D01*
X124153719Y-75396305D01*
X124153721Y-75396305D01*
X124161069Y-75398233D01*
X124244380Y-75399542D01*
X124310898Y-75400587D01*
X124310901Y-75400587D01*
X124318495Y-75400706D01*
X124471968Y-75365556D01*
X124612625Y-75294813D01*
X124638869Y-75272399D01*
X124726574Y-75197492D01*
X124726576Y-75197489D01*
X124732348Y-75192560D01*
X124824224Y-75064701D01*
X124882950Y-74918616D01*
X124905134Y-74762741D01*
X124905278Y-74749018D01*
X124886363Y-74592712D01*
X124830710Y-74445430D01*
X124741531Y-74315675D01*
X124694971Y-74274192D01*
X124629648Y-74215990D01*
X124629645Y-74215988D01*
X124623976Y-74210937D01*
X124484831Y-74137263D01*
X124468122Y-74133066D01*
X124339498Y-74100758D01*
X124339496Y-74100758D01*
X124332128Y-74098907D01*
X124324530Y-74098867D01*
X124324528Y-74098867D01*
X124257319Y-74098515D01*
X124174684Y-74098083D01*
X124167305Y-74099855D01*
X124167301Y-74099855D01*
X124028967Y-74133066D01*
X124028963Y-74133067D01*
X124021588Y-74134838D01*
X123881679Y-74207050D01*
X123875957Y-74212042D01*
X123875955Y-74212043D01*
X123768762Y-74305554D01*
X123763034Y-74310551D01*
X123762523Y-74309965D01*
X123707170Y-74344068D01*
X123673978Y-74348518D01*
X118719463Y-74348518D01*
X118719459Y-74348519D01*
X118687549Y-74348519D01*
X118678122Y-74351582D01*
X118678115Y-74351583D01*
X118666629Y-74355315D01*
X118647409Y-74359929D01*
X118635475Y-74361819D01*
X118635467Y-74361821D01*
X118625678Y-74363372D01*
X118616847Y-74367872D01*
X118616843Y-74367873D01*
X118606075Y-74373360D01*
X118587814Y-74380924D01*
X118566892Y-74387722D01*
X118551900Y-74398615D01*
X118549098Y-74400650D01*
X118532241Y-74410980D01*
X118521475Y-74416466D01*
X118521474Y-74416467D01*
X118512640Y-74420968D01*
X118490073Y-74443535D01*
X114944516Y-77989091D01*
X114944513Y-77989095D01*
X114921950Y-78011658D01*
X114917446Y-78020498D01*
X114911965Y-78031255D01*
X114901639Y-78048107D01*
X114888704Y-78065910D01*
X114881907Y-78086830D01*
X114874341Y-78105094D01*
X114868856Y-78115859D01*
X114868855Y-78115863D01*
X114864354Y-78124696D01*
X114862803Y-78134487D01*
X114862803Y-78134488D01*
X114860913Y-78146422D01*
X114856297Y-78165647D01*
X114852565Y-78177132D01*
X114852564Y-78177136D01*
X114849500Y-78186567D01*
X114849500Y-88031917D01*
X114829498Y-88100038D01*
X114812595Y-88121012D01*
X113688832Y-89244775D01*
X113626520Y-89278801D01*
X113555705Y-89273736D01*
X113498869Y-89231189D01*
X113486733Y-89211412D01*
X113484907Y-89207710D01*
X113484906Y-89207708D01*
X113482351Y-89202527D01*
X113464079Y-89178057D01*
X113364788Y-89045091D01*
X113364787Y-89045090D01*
X113361335Y-89040467D01*
X113357099Y-89036551D01*
X113217053Y-88907094D01*
X113217051Y-88907092D01*
X113212812Y-88903174D01*
X113185374Y-88885862D01*
X113046637Y-88798325D01*
X113041757Y-88795246D01*
X112853898Y-88720298D01*
X112655526Y-88680839D01*
X112649752Y-88680763D01*
X112649748Y-88680763D01*
X112547257Y-88679422D01*
X112453286Y-88678192D01*
X112447589Y-88679171D01*
X112447588Y-88679171D01*
X112259646Y-88711465D01*
X112259645Y-88711465D01*
X112253949Y-88712444D01*
X112064193Y-88782449D01*
X112059232Y-88785401D01*
X112059231Y-88785401D01*
X111905109Y-88877094D01*
X111890371Y-88885862D01*
X111738305Y-89019220D01*
X111613089Y-89178057D01*
X111518914Y-89357053D01*
X111458937Y-89550213D01*
X111435164Y-89751069D01*
X111448392Y-89952894D01*
X111449815Y-89958496D01*
X111496240Y-90141296D01*
X111498178Y-90148928D01*
X111582856Y-90332607D01*
X111699588Y-90497780D01*
X111703730Y-90501815D01*
X111737992Y-90535191D01*
X111844466Y-90638913D01*
X112012637Y-90751282D01*
X112017940Y-90753560D01*
X112017943Y-90753562D01*
X112183471Y-90824678D01*
X112198470Y-90831122D01*
X112395740Y-90875760D01*
X112401509Y-90875987D01*
X112401512Y-90875987D01*
X112477683Y-90878979D01*
X112597842Y-90883700D01*
X112684132Y-90871189D01*
X112792286Y-90855508D01*
X112792291Y-90855507D01*
X112798007Y-90854678D01*
X112803479Y-90852820D01*
X112803481Y-90852820D01*
X112984067Y-90791519D01*
X112984069Y-90791518D01*
X112989531Y-90789664D01*
X113113903Y-90720013D01*
X113183112Y-90704180D01*
X113249894Y-90728277D01*
X113293047Y-90784654D01*
X113298869Y-90855412D01*
X113264564Y-90919043D01*
X112959416Y-91224191D01*
X112897104Y-91258217D01*
X112845739Y-91258675D01*
X112661192Y-91221966D01*
X112661191Y-91221966D01*
X112655526Y-91220839D01*
X112649752Y-91220763D01*
X112649748Y-91220763D01*
X112547257Y-91219422D01*
X112453286Y-91218192D01*
X112447589Y-91219171D01*
X112447588Y-91219171D01*
X112259646Y-91251465D01*
X112259645Y-91251465D01*
X112253949Y-91252444D01*
X112064193Y-91322449D01*
X111890371Y-91425862D01*
X111738305Y-91559220D01*
X111613089Y-91718057D01*
X111518914Y-91897053D01*
X111458937Y-92090213D01*
X111435164Y-92291069D01*
X111448392Y-92492894D01*
X111498178Y-92688928D01*
X111582856Y-92872607D01*
X111612914Y-92915139D01*
X111683261Y-93014677D01*
X111699588Y-93037780D01*
X111703730Y-93041815D01*
X111786011Y-93121969D01*
X111844466Y-93178913D01*
X112012637Y-93291282D01*
X112017940Y-93293560D01*
X112017943Y-93293562D01*
X112133931Y-93343394D01*
X112198470Y-93371122D01*
X112395740Y-93415760D01*
X112401509Y-93415987D01*
X112401512Y-93415987D01*
X112477683Y-93418979D01*
X112597842Y-93423700D01*
X112684132Y-93411189D01*
X112792286Y-93395508D01*
X112792291Y-93395507D01*
X112798007Y-93394678D01*
X112803479Y-93392820D01*
X112803481Y-93392820D01*
X112984067Y-93331519D01*
X112984069Y-93331518D01*
X112989531Y-93329664D01*
X113148568Y-93240600D01*
X113160964Y-93233658D01*
X113160965Y-93233657D01*
X113166001Y-93230837D01*
X113228433Y-93178913D01*
X113317073Y-93105191D01*
X113321505Y-93101505D01*
X113404281Y-93001978D01*
X113447146Y-92950439D01*
X113450837Y-92946001D01*
X113549664Y-92769531D01*
X113614678Y-92578007D01*
X113615507Y-92572291D01*
X113615508Y-92572286D01*
X113643167Y-92381516D01*
X113643700Y-92377842D01*
X113645215Y-92320000D01*
X113626708Y-92118591D01*
X113571807Y-91923926D01*
X113552510Y-91884795D01*
X113540320Y-91814852D01*
X113567880Y-91749423D01*
X113576421Y-91739972D01*
X116284405Y-89031988D01*
X116346717Y-88997962D01*
X116417532Y-89003027D01*
X116474368Y-89045574D01*
X116499179Y-89112094D01*
X116499500Y-89121083D01*
X116499500Y-92886943D01*
X116479498Y-92955064D01*
X116462595Y-92976038D01*
X115366038Y-94072595D01*
X115303726Y-94106621D01*
X115276943Y-94109500D01*
X113398787Y-94109500D01*
X113330666Y-94089498D01*
X113313258Y-94076025D01*
X113217053Y-93987094D01*
X113217051Y-93987092D01*
X113212812Y-93983174D01*
X113185374Y-93965862D01*
X113046637Y-93878325D01*
X113041757Y-93875246D01*
X112853898Y-93800298D01*
X112655526Y-93760839D01*
X112649752Y-93760763D01*
X112649748Y-93760763D01*
X112547257Y-93759422D01*
X112453286Y-93758192D01*
X112447589Y-93759171D01*
X112447588Y-93759171D01*
X112259646Y-93791465D01*
X112259645Y-93791465D01*
X112253949Y-93792444D01*
X112064193Y-93862449D01*
X112059232Y-93865401D01*
X112059231Y-93865401D01*
X111919598Y-93948474D01*
X111890371Y-93965862D01*
X111738305Y-94099220D01*
X111613089Y-94258057D01*
X111518914Y-94437053D01*
X111458937Y-94630213D01*
X111435164Y-94831069D01*
X110250000Y-94831069D01*
X110250000Y-72376000D01*
X110270002Y-72307879D01*
X110323658Y-72261386D01*
X110376000Y-72250000D01*
X161374000Y-72250000D01*
X161442121Y-72270002D01*
G37*
%TD.AperFunction*%
%TD*%
M02*
