%TF.GenerationSoftware,KiCad,Pcbnew,(6.0.1)*%
%TF.CreationDate,2022-08-01T14:37:07+02:00*%
%TF.ProjectId,DetectorReader,44657465-6374-46f7-9252-65616465722e,rev?*%
%TF.SameCoordinates,Original*%
%TF.FileFunction,Copper,L1,Top*%
%TF.FilePolarity,Positive*%
%FSLAX46Y46*%
G04 Gerber Fmt 4.6, Leading zero omitted, Abs format (unit mm)*
G04 Created by KiCad (PCBNEW (6.0.1)) date 2022-08-01 14:37:07*
%MOMM*%
%LPD*%
G01*
G04 APERTURE LIST*
G04 Aperture macros list*
%AMRoundRect*
0 Rectangle with rounded corners*
0 $1 Rounding radius*
0 $2 $3 $4 $5 $6 $7 $8 $9 X,Y pos of 4 corners*
0 Add a 4 corners polygon primitive as box body*
4,1,4,$2,$3,$4,$5,$6,$7,$8,$9,$2,$3,0*
0 Add four circle primitives for the rounded corners*
1,1,$1+$1,$2,$3*
1,1,$1+$1,$4,$5*
1,1,$1+$1,$6,$7*
1,1,$1+$1,$8,$9*
0 Add four rect primitives between the rounded corners*
20,1,$1+$1,$2,$3,$4,$5,0*
20,1,$1+$1,$4,$5,$6,$7,0*
20,1,$1+$1,$6,$7,$8,$9,0*
20,1,$1+$1,$8,$9,$2,$3,0*%
%AMFreePoly0*
4,1,13,1.650000,1.015000,3.020000,1.015000,3.020000,-1.015000,1.650000,-1.015000,1.650000,-2.385000,-1.650000,-2.385000,-1.650000,-1.015000,-3.020000,-1.015000,-3.020000,1.015000,-1.650000,1.015000,-1.650000,2.385000,1.650000,2.385000,1.650000,1.015000,1.650000,1.015000,$1*%
G04 Aperture macros list end*
%TA.AperFunction,SMDPad,CuDef*%
%ADD10RoundRect,0.225000X0.250000X-0.225000X0.250000X0.225000X-0.250000X0.225000X-0.250000X-0.225000X0*%
%TD*%
%TA.AperFunction,SMDPad,CuDef*%
%ADD11RoundRect,0.225000X0.225000X0.250000X-0.225000X0.250000X-0.225000X-0.250000X0.225000X-0.250000X0*%
%TD*%
%TA.AperFunction,SMDPad,CuDef*%
%ADD12RoundRect,0.225000X-0.250000X0.225000X-0.250000X-0.225000X0.250000X-0.225000X0.250000X0.225000X0*%
%TD*%
%TA.AperFunction,SMDPad,CuDef*%
%ADD13R,0.300000X1.000000*%
%TD*%
%TA.AperFunction,SMDPad,CuDef*%
%ADD14RoundRect,0.200000X0.275000X-0.200000X0.275000X0.200000X-0.275000X0.200000X-0.275000X-0.200000X0*%
%TD*%
%TA.AperFunction,ComponentPad*%
%ADD15C,1.700000*%
%TD*%
%TA.AperFunction,SMDPad,CuDef*%
%ADD16RoundRect,0.100000X0.712500X0.100000X-0.712500X0.100000X-0.712500X-0.100000X0.712500X-0.100000X0*%
%TD*%
%TA.AperFunction,SMDPad,CuDef*%
%ADD17RoundRect,0.218750X-0.218750X-0.256250X0.218750X-0.256250X0.218750X0.256250X-0.218750X0.256250X0*%
%TD*%
%TA.AperFunction,SMDPad,CuDef*%
%ADD18RoundRect,0.218750X0.256250X-0.218750X0.256250X0.218750X-0.256250X0.218750X-0.256250X-0.218750X0*%
%TD*%
%TA.AperFunction,SMDPad,CuDef*%
%ADD19RoundRect,0.225000X-0.225000X-0.250000X0.225000X-0.250000X0.225000X0.250000X-0.225000X0.250000X0*%
%TD*%
%TA.AperFunction,SMDPad,CuDef*%
%ADD20R,1.600000X1.600000*%
%TD*%
%TA.AperFunction,SMDPad,CuDef*%
%ADD21FreePoly0,0.000000*%
%TD*%
%TA.AperFunction,SMDPad,CuDef*%
%ADD22R,1.270000X3.600000*%
%TD*%
%TA.AperFunction,SMDPad,CuDef*%
%ADD23R,1.350000X4.200000*%
%TD*%
%TA.AperFunction,SMDPad,CuDef*%
%ADD24RoundRect,0.150000X-0.825000X-0.150000X0.825000X-0.150000X0.825000X0.150000X-0.825000X0.150000X0*%
%TD*%
%TA.AperFunction,SMDPad,CuDef*%
%ADD25R,1.200000X0.900000*%
%TD*%
%TA.AperFunction,SMDPad,CuDef*%
%ADD26RoundRect,0.200000X0.200000X0.275000X-0.200000X0.275000X-0.200000X-0.275000X0.200000X-0.275000X0*%
%TD*%
%TA.AperFunction,SMDPad,CuDef*%
%ADD27RoundRect,0.200000X-0.275000X0.200000X-0.275000X-0.200000X0.275000X-0.200000X0.275000X0.200000X0*%
%TD*%
%TA.AperFunction,SMDPad,CuDef*%
%ADD28RoundRect,0.150000X0.825000X0.150000X-0.825000X0.150000X-0.825000X-0.150000X0.825000X-0.150000X0*%
%TD*%
%TA.AperFunction,SMDPad,CuDef*%
%ADD29RoundRect,0.150000X0.150000X-0.512500X0.150000X0.512500X-0.150000X0.512500X-0.150000X-0.512500X0*%
%TD*%
%TA.AperFunction,ComponentPad*%
%ADD30R,1.700000X1.700000*%
%TD*%
%TA.AperFunction,ComponentPad*%
%ADD31O,1.700000X1.700000*%
%TD*%
%TA.AperFunction,SMDPad,CuDef*%
%ADD32RoundRect,0.150000X0.587500X0.150000X-0.587500X0.150000X-0.587500X-0.150000X0.587500X-0.150000X0*%
%TD*%
%TA.AperFunction,SMDPad,CuDef*%
%ADD33R,3.600000X1.270000*%
%TD*%
%TA.AperFunction,SMDPad,CuDef*%
%ADD34R,4.200000X1.350000*%
%TD*%
%TA.AperFunction,SMDPad,CuDef*%
%ADD35RoundRect,0.200000X-0.200000X-0.275000X0.200000X-0.275000X0.200000X0.275000X-0.200000X0.275000X0*%
%TD*%
%TA.AperFunction,SMDPad,CuDef*%
%ADD36R,1.400000X0.280000*%
%TD*%
%TA.AperFunction,SMDPad,CuDef*%
%ADD37R,0.850000X0.750000*%
%TD*%
%TA.AperFunction,SMDPad,CuDef*%
%ADD38R,1.350000X0.400000*%
%TD*%
%TA.AperFunction,ComponentPad*%
%ADD39O,1.550000X0.890000*%
%TD*%
%TA.AperFunction,SMDPad,CuDef*%
%ADD40R,1.550000X1.200000*%
%TD*%
%TA.AperFunction,ComponentPad*%
%ADD41O,0.950000X1.250000*%
%TD*%
%TA.AperFunction,SMDPad,CuDef*%
%ADD42R,1.550000X1.500000*%
%TD*%
%TA.AperFunction,SMDPad,CuDef*%
%ADD43RoundRect,0.218750X-0.381250X0.218750X-0.381250X-0.218750X0.381250X-0.218750X0.381250X0.218750X0*%
%TD*%
%TA.AperFunction,SMDPad,CuDef*%
%ADD44R,1.200000X0.400000*%
%TD*%
%TA.AperFunction,ViaPad*%
%ADD45C,0.800000*%
%TD*%
%TA.AperFunction,ViaPad*%
%ADD46C,5.000000*%
%TD*%
%TA.AperFunction,Conductor*%
%ADD47C,0.600000*%
%TD*%
%TA.AperFunction,Conductor*%
%ADD48C,0.250000*%
%TD*%
%TA.AperFunction,Conductor*%
%ADD49C,0.300000*%
%TD*%
%TA.AperFunction,Conductor*%
%ADD50C,0.500000*%
%TD*%
%TA.AperFunction,Conductor*%
%ADD51C,1.000000*%
%TD*%
G04 APERTURE END LIST*
D10*
%TO.P,C11,1*%
%TO.N,Net-(C11-Pad1)*%
X153670000Y-86775000D03*
%TO.P,C11,2*%
%TO.N,/RF_Rx/DetectorIn*%
X153670000Y-85225000D03*
%TD*%
D11*
%TO.P,C8,1*%
%TO.N,GND*%
X140775000Y-82000000D03*
%TO.P,C8,2*%
%TO.N,+3V0*%
X139225000Y-82000000D03*
%TD*%
D12*
%TO.P,C3,1*%
%TO.N,GND*%
X127250000Y-76225000D03*
%TO.P,C3,2*%
%TO.N,+5V*%
X127250000Y-77775000D03*
%TD*%
D11*
%TO.P,C15,1*%
%TO.N,GND*%
X156550000Y-94500000D03*
%TO.P,C15,2*%
%TO.N,+5V*%
X155000000Y-94500000D03*
%TD*%
D13*
%TO.P,U6,1,RF_IN*%
%TO.N,Net-(C11-Pad1)*%
X153620000Y-90500000D03*
%TO.P,U6,2,~{SHDN}*%
%TO.N,+5V*%
X152970000Y-90500000D03*
%TO.P,U6,3,GND*%
%TO.N,GND*%
X152320000Y-90500000D03*
%TO.P,U6,4,CLPF*%
%TO.N,Net-(C13-Pad1)*%
X151670000Y-90500000D03*
%TO.P,U6,5,GND*%
%TO.N,GND*%
X151670000Y-94500000D03*
%TO.P,U6,6,NC*%
%TO.N,unconnected-(U6-Pad6)*%
X152320000Y-94500000D03*
%TO.P,U6,7,OUT*%
%TO.N,/RF_Rx/Signal*%
X152970000Y-94500000D03*
%TO.P,U6,8,VCC*%
%TO.N,+5V*%
X153620000Y-94500000D03*
%TD*%
D10*
%TO.P,C9,1*%
%TO.N,/RF_Tx/ModOutSelect*%
X143730000Y-79000000D03*
%TO.P,C9,2*%
%TO.N,Net-(C9-Pad2)*%
X143730000Y-77450000D03*
%TD*%
D14*
%TO.P,R8,1*%
%TO.N,/RF_Rx/Amp1*%
X141250000Y-90785000D03*
%TO.P,R8,2*%
%TO.N,Net-(C17-Pad2)*%
X141250000Y-89135000D03*
%TD*%
D15*
%TO.P,J6,1,Pin_1*%
%TO.N,/RF_Rx/Signal*%
X148100000Y-94860000D03*
%TD*%
D10*
%TO.P,C17,1*%
%TO.N,/RF_Rx/Amp1*%
X139750000Y-90735000D03*
%TO.P,C17,2*%
%TO.N,Net-(C17-Pad2)*%
X139750000Y-89185000D03*
%TD*%
D16*
%TO.P,U7,1*%
%TO.N,/RF_Rx/Amp1*%
X137512500Y-90755000D03*
%TO.P,U7,2,-*%
%TO.N,Net-(C17-Pad2)*%
X137512500Y-90105000D03*
%TO.P,U7,3,+*%
%TO.N,+3V0*%
X137512500Y-89455000D03*
%TO.P,U7,4,V-*%
%TO.N,GND*%
X137512500Y-88805000D03*
%TO.P,U7,5,+*%
%TO.N,+3V0*%
X133287500Y-88805000D03*
%TO.P,U7,6,-*%
%TO.N,Net-(C19-Pad2)*%
X133287500Y-89455000D03*
%TO.P,U7,7*%
%TO.N,/RF_Rx/Amp2*%
X133287500Y-90105000D03*
%TO.P,U7,8,V+*%
%TO.N,+5V*%
X133287500Y-90755000D03*
%TD*%
D17*
%TO.P,D1,1,K*%
%TO.N,GND*%
X111212500Y-83000000D03*
%TO.P,D1,2,A*%
%TO.N,Net-(D1-Pad2)*%
X112787500Y-83000000D03*
%TD*%
D18*
%TO.P,L2,1,1*%
%TO.N,+3V0*%
X139250000Y-80575000D03*
%TO.P,L2,2,2*%
%TO.N,/RF_Tx/ModOut*%
X139250000Y-79000000D03*
%TD*%
D10*
%TO.P,C2,1*%
%TO.N,GND*%
X116500000Y-81775000D03*
%TO.P,C2,2*%
%TO.N,+5V*%
X116500000Y-80225000D03*
%TD*%
D15*
%TO.P,J8,1,Pin_1*%
%TO.N,/RF_Rx/Amp2*%
X127780000Y-92320000D03*
%TD*%
D19*
%TO.P,C1,1*%
%TO.N,GND*%
X118410000Y-98000000D03*
%TO.P,C1,2*%
%TO.N,+5V*%
X119960000Y-98000000D03*
%TD*%
D20*
%TO.P,U3,1,IN*%
%TO.N,/RF_Tx/RfOut*%
X147745000Y-79175000D03*
%TO.P,U3,2,OUT*%
%TO.N,Net-(J3-Pad1)*%
X153665000Y-79175000D03*
%TO.P,U3,3,ISO*%
%TO.N,/RF_Rx/DetectorIn*%
X153665000Y-83825000D03*
%TO.P,U3,4,CPL*%
%TO.N,Net-(R3-Pad1)*%
X147745000Y-83825000D03*
D21*
%TO.P,U3,5,GND*%
%TO.N,GND*%
X150705000Y-81500000D03*
%TD*%
D22*
%TO.P,J4,1,In*%
%TO.N,Net-(C9-Pad2)*%
X143730000Y-73900000D03*
D23*
%TO.P,J4,2,Ext*%
%TO.N,GND*%
X140905000Y-74100000D03*
X146555000Y-74100000D03*
%TD*%
D24*
%TO.P,U8,1,GND*%
%TO.N,GND*%
X133025000Y-93055000D03*
%TO.P,U8,2,+*%
%TO.N,Net-(R10-Pad1)*%
X133025000Y-94325000D03*
%TO.P,U8,3,-*%
%TO.N,+3V0*%
X133025000Y-95595000D03*
%TO.P,U8,4,V-*%
%TO.N,GND*%
X133025000Y-96865000D03*
%TO.P,U8,5,BAL*%
%TO.N,unconnected-(U8-Pad5)*%
X137975000Y-96865000D03*
%TO.P,U8,6,STRB*%
%TO.N,unconnected-(U8-Pad6)*%
X137975000Y-95595000D03*
%TO.P,U8,7*%
%TO.N,/TagPulses*%
X137975000Y-94325000D03*
%TO.P,U8,8,V+*%
%TO.N,+5V*%
X137975000Y-93055000D03*
%TD*%
D17*
%TO.P,D2,1,K*%
%TO.N,GND*%
X111212500Y-84750000D03*
%TO.P,D2,2,A*%
%TO.N,Net-(D2-Pad2)*%
X112787500Y-84750000D03*
%TD*%
D25*
%TO.P,D3,1,K*%
%TO.N,Net-(C19-Pad2)*%
X127500000Y-87310000D03*
%TO.P,D3,2,A*%
%TO.N,/RF_Rx/Amp2*%
X127500000Y-90610000D03*
%TD*%
D26*
%TO.P,R10,1*%
%TO.N,Net-(R10-Pad1)*%
X131000000Y-93500000D03*
%TO.P,R10,2*%
%TO.N,/RF_Rx/Amp2*%
X129350000Y-93500000D03*
%TD*%
D12*
%TO.P,C16,1*%
%TO.N,Net-(C16-Pad1)*%
X142500000Y-92685000D03*
%TO.P,C16,2*%
%TO.N,Net-(C16-Pad2)*%
X142500000Y-94235000D03*
%TD*%
D14*
%TO.P,R5,1*%
%TO.N,/RF_Tx/ModLow*%
X130920000Y-79250000D03*
%TO.P,R5,2*%
%TO.N,GND*%
X130920000Y-77600000D03*
%TD*%
D26*
%TO.P,R13,1*%
%TO.N,/TagPulses*%
X125825000Y-96500000D03*
%TO.P,R13,2*%
%TO.N,+5V*%
X124175000Y-96500000D03*
%TD*%
D11*
%TO.P,C10,1*%
%TO.N,/RF_Tx/RfOut*%
X145280000Y-79000000D03*
%TO.P,C10,2*%
%TO.N,/RF_Tx/ModOutSelect*%
X143730000Y-79000000D03*
%TD*%
%TO.P,C12,1*%
%TO.N,Net-(C12-Pad1)*%
X155220000Y-86750000D03*
%TO.P,C12,2*%
%TO.N,Net-(C11-Pad1)*%
X153670000Y-86750000D03*
%TD*%
D27*
%TO.P,R7,1*%
%TO.N,Net-(C17-Pad2)*%
X142750000Y-89135000D03*
%TO.P,R7,2*%
%TO.N,Net-(C16-Pad1)*%
X142750000Y-90785000D03*
%TD*%
D25*
%TO.P,D4,1,K*%
%TO.N,/RF_Rx/Amp2*%
X125250000Y-90610000D03*
%TO.P,D4,2,A*%
%TO.N,Net-(C19-Pad2)*%
X125250000Y-87310000D03*
%TD*%
D15*
%TO.P,J9,1,Pin_1*%
%TO.N,/TagPulses*%
X127780000Y-94860000D03*
%TD*%
D28*
%TO.P,U1,1,VCC*%
%TO.N,+5V*%
X121975000Y-96310000D03*
%TO.P,U1,2,PA4*%
%TO.N,/SeqProg*%
X121975000Y-95040000D03*
%TO.P,U1,3,PA5*%
%TO.N,unconnected-(U1-Pad3)*%
X121975000Y-93770000D03*
%TO.P,U1,4,PA6*%
%TO.N,/TagPulses*%
X121975000Y-92500000D03*
%TO.P,U1,5,PA7*%
%TO.N,/ReaderPulses*%
X121975000Y-91230000D03*
%TO.P,U1,6,PB3*%
%TO.N,/TagEPCDetected*%
X121975000Y-89960000D03*
%TO.P,U1,7,PB2*%
%TO.N,/TagPreambleDetected*%
X121975000Y-88690000D03*
%TO.P,U1,8,PB1*%
%TO.N,unconnected-(U1-Pad8)*%
X117025000Y-88690000D03*
%TO.P,U1,9,PB0*%
%TO.N,unconnected-(U1-Pad9)*%
X117025000Y-89960000D03*
%TO.P,U1,10,~{RESET}/PA0*%
%TO.N,/UPDI*%
X117025000Y-91230000D03*
%TO.P,U1,11,PA1*%
%TO.N,/uartTx*%
X117025000Y-92500000D03*
%TO.P,U1,12,PA2*%
%TO.N,/uartRx*%
X117025000Y-93770000D03*
%TO.P,U1,13,PA3*%
%TO.N,unconnected-(U1-Pad13)*%
X117025000Y-95040000D03*
%TO.P,U1,14,GND*%
%TO.N,GND*%
X117025000Y-96310000D03*
%TD*%
D29*
%TO.P,U4,1,VIN*%
%TO.N,+5V*%
X144300000Y-91000000D03*
%TO.P,U4,2,GND*%
%TO.N,GND*%
X145250000Y-91000000D03*
%TO.P,U4,3,EN*%
%TO.N,+5V*%
X146200000Y-91000000D03*
%TO.P,U4,4,NC*%
%TO.N,unconnected-(U4-Pad4)*%
X146200000Y-88725000D03*
%TO.P,U4,5,VOUT*%
%TO.N,+3V0*%
X144300000Y-88725000D03*
%TD*%
D30*
%TO.P,SW1,1,A*%
%TO.N,/ReaderPulses*%
X127780000Y-84700000D03*
D31*
%TO.P,SW1,2,B*%
%TO.N,/RF_Tx/Mod*%
X130320000Y-84700000D03*
%TD*%
D14*
%TO.P,R12,1*%
%TO.N,/RF_Rx/Amp2*%
X129500000Y-90285000D03*
%TO.P,R12,2*%
%TO.N,Net-(C19-Pad2)*%
X129500000Y-88635000D03*
%TD*%
D12*
%TO.P,C13,1*%
%TO.N,Net-(C13-Pad1)*%
X150145000Y-90725000D03*
%TO.P,C13,2*%
%TO.N,GND*%
X150145000Y-92275000D03*
%TD*%
D26*
%TO.P,R3,1*%
%TO.N,Net-(R3-Pad1)*%
X146075000Y-84000000D03*
%TO.P,R3,2*%
%TO.N,GND*%
X144425000Y-84000000D03*
%TD*%
D32*
%TO.P,Q1,1,B*%
%TO.N,Net-(Q1-Pad1)*%
X145937500Y-96910000D03*
%TO.P,Q1,2,E*%
%TO.N,/RF_Rx/Signal*%
X145937500Y-95010000D03*
%TO.P,Q1,3,C*%
%TO.N,Net-(C16-Pad2)*%
X144062500Y-95960000D03*
%TD*%
D33*
%TO.P,J5,1,In*%
%TO.N,Net-(C12-Pad1)*%
X159820000Y-86700000D03*
D34*
%TO.P,J5,2,Ext*%
%TO.N,GND*%
X159620000Y-89525000D03*
X159620000Y-83875000D03*
%TD*%
D35*
%TO.P,R2,1*%
%TO.N,Net-(D2-Pad2)*%
X114175000Y-84750000D03*
%TO.P,R2,2*%
%TO.N,/TagEPCDetected*%
X115825000Y-84750000D03*
%TD*%
D17*
%TO.P,L3,1,1*%
%TO.N,/RF_Tx/ModOut*%
X140712500Y-79000000D03*
%TO.P,L3,2,2*%
%TO.N,/RF_Tx/ModOutSelect*%
X142287500Y-79000000D03*
%TD*%
D11*
%TO.P,C5,1*%
%TO.N,GND*%
X146025000Y-92750000D03*
%TO.P,C5,2*%
%TO.N,+5V*%
X144475000Y-92750000D03*
%TD*%
D36*
%TO.P,U5,1,XTAL2*%
%TO.N,Net-(U5-Pad1)*%
X137420000Y-80912500D03*
%TO.P,U5,2,GND*%
%TO.N,GND*%
X137420000Y-80412500D03*
%TO.P,U5,3,VDD*%
%TO.N,+3V0*%
X137420000Y-79912500D03*
%TO.P,U5,4,GND_PA*%
%TO.N,GND*%
X137420000Y-79412500D03*
%TO.P,U5,5,PA*%
%TO.N,/RF_Tx/ModOut*%
X137420000Y-78912500D03*
%TO.P,U5,6,CLKOUT/SCL*%
%TO.N,unconnected-(U5-Pad6)*%
X133140000Y-78912500D03*
%TO.P,U5,7,DATA/SDA*%
%TO.N,/RF_Tx/ModLow*%
X133140000Y-79412500D03*
%TO.P,U5,8,SEL0*%
%TO.N,+3V0*%
X133140000Y-79912500D03*
%TO.P,U5,9,SEL1*%
X133140000Y-80412500D03*
%TO.P,U5,10,XTAL1*%
%TO.N,Net-(U5-Pad10)*%
X133140000Y-80912500D03*
%TD*%
D35*
%TO.P,R6,1*%
%TO.N,/SeqProg*%
X141345000Y-97460000D03*
%TO.P,R6,2*%
%TO.N,Net-(Q1-Pad1)*%
X142995000Y-97460000D03*
%TD*%
%TO.P,R9,1*%
%TO.N,Net-(C19-Pad2)*%
X131000000Y-87210000D03*
%TO.P,R9,2*%
%TO.N,Net-(C18-Pad1)*%
X132650000Y-87210000D03*
%TD*%
D10*
%TO.P,C19,1*%
%TO.N,/RF_Rx/Amp2*%
X131000000Y-90235000D03*
%TO.P,C19,2*%
%TO.N,Net-(C19-Pad2)*%
X131000000Y-88685000D03*
%TD*%
D33*
%TO.P,J3,1,In*%
%TO.N,Net-(J3-Pad1)*%
X159820000Y-81000000D03*
D34*
%TO.P,J3,2,Ext*%
%TO.N,GND*%
X159620000Y-78175000D03*
X159620000Y-83825000D03*
%TD*%
D14*
%TO.P,R11,1*%
%TO.N,/TagPulses*%
X131000000Y-96535000D03*
%TO.P,R11,2*%
%TO.N,Net-(R10-Pad1)*%
X131000000Y-94885000D03*
%TD*%
D11*
%TO.P,C14,1*%
%TO.N,GND*%
X156550000Y-96000000D03*
%TO.P,C14,2*%
%TO.N,+5V*%
X155000000Y-96000000D03*
%TD*%
D10*
%TO.P,C4,1*%
%TO.N,GND*%
X127250000Y-80775000D03*
%TO.P,C4,2*%
%TO.N,Net-(C4-Pad2)*%
X127250000Y-79225000D03*
%TD*%
D11*
%TO.P,C6,1*%
%TO.N,GND*%
X146025000Y-87000000D03*
%TO.P,C6,2*%
%TO.N,+3V0*%
X144475000Y-87000000D03*
%TD*%
D37*
%TO.P,Y1,1,1*%
%TO.N,Net-(U5-Pad1)*%
X135270000Y-82412500D03*
%TO.P,Y1,2,2*%
%TO.N,GND*%
X133920000Y-82412500D03*
%TO.P,Y1,3,3*%
%TO.N,Net-(U5-Pad10)*%
X133920000Y-83462500D03*
%TO.P,Y1,4,4*%
%TO.N,GND*%
X135270000Y-83462500D03*
%TD*%
D27*
%TO.P,R4,1*%
%TO.N,/RF_Tx/ModLow*%
X130920000Y-80675000D03*
%TO.P,R4,2*%
%TO.N,/RF_Tx/Mod*%
X130920000Y-82325000D03*
%TD*%
D15*
%TO.P,J7,1,Pin_1*%
%TO.N,/RF_Rx/Amp1*%
X140480000Y-92320000D03*
%TD*%
D38*
%TO.P,J1,1,VBUS*%
%TO.N,/VBUS*%
X114150000Y-76200000D03*
%TO.P,J1,2,D-*%
%TO.N,/USB_N*%
X114150000Y-76850000D03*
%TO.P,J1,3,D+*%
%TO.N,/USB_P*%
X114150000Y-77500000D03*
%TO.P,J1,4,ID*%
%TO.N,GND*%
X114150000Y-78150000D03*
%TO.P,J1,5,GND*%
X114150000Y-78800000D03*
D39*
%TO.P,J1,6,Shield*%
X111450000Y-74000000D03*
D40*
X111450000Y-80400000D03*
D41*
X114150000Y-80000000D03*
D40*
X111450000Y-74600000D03*
D42*
X111450000Y-76500000D03*
D41*
X114150000Y-75000000D03*
D39*
X111450000Y-81000000D03*
D42*
X111450000Y-78500000D03*
%TD*%
D19*
%TO.P,C18,1*%
%TO.N,Net-(C18-Pad1)*%
X134050000Y-87210000D03*
%TO.P,C18,2*%
%TO.N,/RF_Rx/Amp1*%
X135600000Y-87210000D03*
%TD*%
%TO.P,C7,1*%
%TO.N,+3V0*%
X139250000Y-83500000D03*
%TO.P,C7,2*%
%TO.N,GND*%
X140800000Y-83500000D03*
%TD*%
D30*
%TO.P,J2,1,Pin_1*%
%TO.N,/UPDI*%
X112540000Y-97400000D03*
D31*
%TO.P,J2,2,Pin_2*%
%TO.N,GND*%
X112540000Y-94860000D03*
%TO.P,J2,3,Pin_3*%
%TO.N,+5V*%
X112540000Y-92320000D03*
%TO.P,J2,4,Pin_4*%
%TO.N,/uartTx*%
X112540000Y-89780000D03*
%TO.P,J2,5,Pin_5*%
%TO.N,/uartRx*%
X112540000Y-87240000D03*
%TD*%
D17*
%TO.P,L4,1,1*%
%TO.N,GND*%
X152095000Y-88500000D03*
%TO.P,L4,2,2*%
%TO.N,Net-(C11-Pad1)*%
X153670000Y-88500000D03*
%TD*%
D43*
%TO.P,L1,1,1*%
%TO.N,/VBUS*%
X116500000Y-76187500D03*
%TO.P,L1,2,2*%
%TO.N,+5V*%
X116500000Y-78312500D03*
%TD*%
D35*
%TO.P,R1,1*%
%TO.N,Net-(D1-Pad2)*%
X114175000Y-83000000D03*
%TO.P,R1,2*%
%TO.N,/TagPreambleDetected*%
X115825000Y-83000000D03*
%TD*%
D44*
%TO.P,U2,1,~{DTR}*%
%TO.N,unconnected-(U2-Pad1)*%
X120400000Y-74642500D03*
%TO.P,U2,2,~{RTS}*%
%TO.N,unconnected-(U2-Pad2)*%
X120400000Y-75277500D03*
%TO.P,U2,3,VCCIO*%
%TO.N,Net-(C4-Pad2)*%
X120400000Y-75912500D03*
%TO.P,U2,4,RXD*%
%TO.N,/uartTx*%
X120400000Y-76547500D03*
%TO.P,U2,5,~{RI}*%
%TO.N,unconnected-(U2-Pad5)*%
X120400000Y-77182500D03*
%TO.P,U2,6,GND*%
%TO.N,GND*%
X120400000Y-77817500D03*
%TO.P,U2,7,~{DSR}*%
%TO.N,unconnected-(U2-Pad7)*%
X120400000Y-78452500D03*
%TO.P,U2,8,~{DCD}*%
%TO.N,unconnected-(U2-Pad8)*%
X120400000Y-79087500D03*
%TO.P,U2,9,~{CTS}*%
%TO.N,unconnected-(U2-Pad9)*%
X120400000Y-79722500D03*
%TO.P,U2,10,CBUS2*%
%TO.N,unconnected-(U2-Pad10)*%
X120400000Y-80357500D03*
%TO.P,U2,11,USBDP*%
%TO.N,/USB_P*%
X125600000Y-80357500D03*
%TO.P,U2,12,USBDM*%
%TO.N,/USB_N*%
X125600000Y-79722500D03*
%TO.P,U2,13,3V3OUT*%
%TO.N,Net-(C4-Pad2)*%
X125600000Y-79087500D03*
%TO.P,U2,14,~{RESET}*%
X125600000Y-78452500D03*
%TO.P,U2,15,VCC*%
%TO.N,+5V*%
X125600000Y-77817500D03*
%TO.P,U2,16,GND*%
%TO.N,GND*%
X125600000Y-77182500D03*
%TO.P,U2,17,CBUS1*%
%TO.N,unconnected-(U2-Pad17)*%
X125600000Y-76547500D03*
%TO.P,U2,18,CBUS0*%
%TO.N,unconnected-(U2-Pad18)*%
X125600000Y-75912500D03*
%TO.P,U2,19,CBUS3*%
%TO.N,unconnected-(U2-Pad19)*%
X125600000Y-75277500D03*
%TO.P,U2,20,TXD*%
%TO.N,/uartRx*%
X125600000Y-74642500D03*
%TD*%
D45*
%TO.N,GND*%
X156250000Y-91250000D03*
X145750000Y-77500000D03*
X157750000Y-76500000D03*
X120250000Y-90750000D03*
X151500000Y-80000000D03*
X155170000Y-85500000D03*
X147242857Y-87008577D03*
X156420000Y-83250000D03*
X143750000Y-80250000D03*
X116000000Y-98210000D03*
X118500000Y-96750000D03*
X137170000Y-83000000D03*
X150000000Y-83000000D03*
X121750000Y-86750000D03*
X119750000Y-93960000D03*
X157500000Y-95250000D03*
X151920000Y-86750000D03*
X150000000Y-81500000D03*
X150000000Y-84750000D03*
X142000000Y-77500000D03*
X129250000Y-83000000D03*
X151500000Y-81500000D03*
X150000000Y-80000000D03*
X155145000Y-88250000D03*
X151500000Y-78250000D03*
X147250000Y-92750000D03*
D46*
X134000000Y-75000000D03*
D45*
X147500000Y-77500000D03*
X154730000Y-81500000D03*
X117750000Y-73750000D03*
X151500000Y-83000000D03*
X136250000Y-88250000D03*
X156420000Y-84750000D03*
X150145000Y-94000000D03*
X148060000Y-73000000D03*
X160670000Y-91250000D03*
X140250000Y-77500000D03*
X159250000Y-91250000D03*
X150000000Y-78250000D03*
X140645000Y-80250000D03*
X135000000Y-96250000D03*
X139310000Y-76000000D03*
X148060000Y-76000000D03*
X146730000Y-81500000D03*
X126250000Y-81500000D03*
X134750000Y-93000000D03*
X160750000Y-76500000D03*
X122000000Y-78250000D03*
X135920000Y-78912500D03*
X151500000Y-84750000D03*
X139310000Y-74500000D03*
X156250000Y-89750000D03*
X144500000Y-82500000D03*
X157750000Y-91250000D03*
X142145000Y-80250000D03*
X124250000Y-77000000D03*
X139310000Y-73000000D03*
D46*
X154000000Y-75000000D03*
D45*
X134641269Y-80756889D03*
X156250000Y-78000000D03*
X151895000Y-92250000D03*
X159250000Y-76500000D03*
X145705000Y-80250000D03*
X127500000Y-74750000D03*
X131000000Y-91710000D03*
X148060000Y-74500000D03*
X153000000Y-81500000D03*
X148500000Y-81500000D03*
%TO.N,+5V*%
X133750000Y-91750000D03*
X144000000Y-94000000D03*
X117250000Y-79250000D03*
X138000000Y-91750000D03*
X153000000Y-97500000D03*
X121500000Y-97500000D03*
%TO.N,/RF_Rx/Amp1*%
X137000000Y-87250000D03*
%TO.N,/uartTx*%
X119000000Y-76750000D03*
%TO.N,/uartRx*%
X124250000Y-74749018D03*
%TD*%
D47*
%TO.N,GND*%
X145250000Y-91631059D02*
X145250000Y-91940529D01*
D48*
X136420000Y-79412500D02*
X135920000Y-78912500D01*
X137420000Y-80412500D02*
X134985658Y-80412500D01*
X137420000Y-79412500D02*
X136420000Y-79412500D01*
X134985658Y-80412500D02*
X134641269Y-80756889D01*
D47*
X145250000Y-91940529D02*
X146025000Y-92715529D01*
X146025000Y-92715529D02*
X146025000Y-92750000D01*
D49*
%TO.N,+5V*%
X152970000Y-90500000D02*
X152970000Y-92325000D01*
X153620000Y-92975000D02*
X153620000Y-94500000D01*
X138000000Y-93030000D02*
X137975000Y-93055000D01*
D50*
X127250000Y-82750000D02*
X128250000Y-81750000D01*
D51*
X116500000Y-79250000D02*
X116500000Y-80250000D01*
D47*
X144475000Y-93525000D02*
X144000000Y-94000000D01*
D50*
X128250000Y-78512500D02*
X127512500Y-77775000D01*
X120047500Y-98171000D02*
X120784000Y-98171000D01*
D51*
X155000000Y-96000000D02*
X155000000Y-94500000D01*
D50*
X153750000Y-94500000D02*
X155000000Y-94500000D01*
D49*
X125600000Y-77817500D02*
X127207500Y-77817500D01*
D47*
X144475000Y-92750000D02*
X144475000Y-93525000D01*
D51*
X153000000Y-97500000D02*
X153500000Y-97500000D01*
D49*
X144712020Y-89750000D02*
X145700000Y-89750000D01*
D50*
X127512500Y-77775000D02*
X127250000Y-77775000D01*
X121725000Y-97230000D02*
X121725000Y-96520000D01*
D47*
X144300000Y-91050000D02*
X144300000Y-92575000D01*
D50*
X119500000Y-82750000D02*
X127250000Y-82750000D01*
X128250000Y-81750000D02*
X128250000Y-78512500D01*
D51*
X153500000Y-97500000D02*
X155000000Y-96000000D01*
D49*
X145700000Y-89750000D02*
X146150000Y-90200000D01*
D50*
X138000000Y-91750000D02*
X138000000Y-93030000D01*
D49*
X152970000Y-92325000D02*
X153620000Y-92975000D01*
X121975000Y-96310000D02*
X123985000Y-96310000D01*
D51*
X116500000Y-78750000D02*
X116500000Y-79250000D01*
D49*
X144250000Y-90212020D02*
X144712020Y-89750000D01*
X133287500Y-91287500D02*
X133750000Y-91750000D01*
X127207500Y-77817500D02*
X127250000Y-77775000D01*
X123985000Y-96310000D02*
X124175000Y-96500000D01*
D51*
X117250000Y-79250000D02*
X116500000Y-79250000D01*
D49*
X133287500Y-90755000D02*
X133287500Y-91287500D01*
D50*
X117250000Y-80500000D02*
X119500000Y-82750000D01*
X116500000Y-80500000D02*
X117250000Y-80500000D01*
X120784000Y-98171000D02*
X121725000Y-97230000D01*
D49*
X146150000Y-90200000D02*
X146150000Y-91000000D01*
X144250000Y-91000000D02*
X144250000Y-90212020D01*
D47*
X144300000Y-92575000D02*
X144475000Y-92750000D01*
D51*
%TO.N,/RF_Rx/DetectorIn*%
X153665000Y-83825000D02*
X153665000Y-85220000D01*
X153665000Y-85220000D02*
X153670000Y-85225000D01*
D49*
%TO.N,+3V0*%
X137512500Y-89455000D02*
X136000000Y-89455000D01*
X136000000Y-89500000D02*
X135305000Y-88805000D01*
X134405000Y-95595000D02*
X136000000Y-94000000D01*
X137420000Y-79912500D02*
X138670000Y-79912500D01*
D50*
X139250000Y-83500000D02*
X139250000Y-80575000D01*
D49*
X138750000Y-87500000D02*
X138750000Y-89211695D01*
X139250000Y-87000000D02*
X138750000Y-87500000D01*
X138670000Y-79912500D02*
X139420000Y-80662500D01*
D50*
X144300000Y-88725000D02*
X144300000Y-87175000D01*
D49*
X138750000Y-89211695D02*
X138506695Y-89455000D01*
X133140000Y-79912500D02*
X137420000Y-79912500D01*
X138506695Y-89455000D02*
X137512500Y-89455000D01*
D50*
X144300000Y-87175000D02*
X144475000Y-87000000D01*
D49*
X133140000Y-80412500D02*
X133140000Y-79912500D01*
X136000000Y-94000000D02*
X136000000Y-89500000D01*
X135305000Y-88805000D02*
X133287500Y-88805000D01*
D50*
X139250000Y-83500000D02*
X139250000Y-87000000D01*
X139250000Y-87000000D02*
X144475000Y-87000000D01*
X139250000Y-80575000D02*
X139420000Y-80575000D01*
D49*
X133025000Y-95595000D02*
X134405000Y-95595000D01*
D51*
%TO.N,/RF_Tx/ModOutSelect*%
X143730000Y-79000000D02*
X142287500Y-79000000D01*
D49*
%TO.N,/RF_Rx/Signal*%
X152334511Y-96000000D02*
X152970000Y-95364511D01*
X148100000Y-94860000D02*
X149240000Y-96000000D01*
D50*
X148510000Y-95010000D02*
X146607500Y-95010000D01*
D49*
X149240000Y-96000000D02*
X152334511Y-96000000D01*
X152970000Y-95364511D02*
X152970000Y-94500000D01*
%TO.N,/UPDI*%
X115770000Y-91440000D02*
X115250000Y-91960000D01*
X115250000Y-91960000D02*
X115250000Y-96460000D01*
X114310000Y-97400000D02*
X112540000Y-97400000D01*
X116775000Y-91440000D02*
X115770000Y-91440000D01*
X115250000Y-96460000D02*
X114310000Y-97400000D01*
D50*
%TO.N,Net-(D1-Pad2)*%
X112787500Y-83000000D02*
X114175000Y-83000000D01*
D49*
%TO.N,/SeqProg*%
X125000000Y-98000000D02*
X125500000Y-98500000D01*
X125000000Y-95500000D02*
X125000000Y-98000000D01*
X125500000Y-98500000D02*
X140305000Y-98500000D01*
X124540000Y-95040000D02*
X125000000Y-95500000D01*
X121975000Y-95040000D02*
X124540000Y-95040000D01*
X140305000Y-98500000D02*
X141345000Y-97460000D01*
D50*
%TO.N,Net-(D2-Pad2)*%
X112787500Y-84750000D02*
X114175000Y-84750000D01*
D49*
%TO.N,Net-(C4-Pad2)*%
X124101522Y-78750000D02*
X121264022Y-75912500D01*
X121264022Y-75912500D02*
X120400000Y-75912500D01*
X127250000Y-79225000D02*
X126775000Y-78750000D01*
X126775000Y-78750000D02*
X124101522Y-78750000D01*
%TO.N,Net-(C11-Pad1)*%
X153620000Y-88525000D02*
X153620000Y-90500000D01*
D51*
X153670000Y-88500000D02*
X153670000Y-86775000D01*
D49*
X153645000Y-88500000D02*
X153620000Y-88525000D01*
D51*
%TO.N,Net-(C9-Pad2)*%
X143730000Y-77450000D02*
X143730000Y-73750000D01*
D50*
%TO.N,/RF_Rx/Amp1*%
X140480000Y-92320000D02*
X140480000Y-90770000D01*
X141200000Y-90735000D02*
X141250000Y-90785000D01*
D49*
X139730000Y-90755000D02*
X139750000Y-90735000D01*
X137512500Y-90755000D02*
X139730000Y-90755000D01*
D50*
X139750000Y-90735000D02*
X140515000Y-90735000D01*
X140480000Y-90770000D02*
X140515000Y-90735000D01*
X140515000Y-90735000D02*
X141200000Y-90735000D01*
X135600000Y-87210000D02*
X136960000Y-87210000D01*
X136960000Y-87210000D02*
X137000000Y-87250000D01*
D49*
%TO.N,/uartTx*%
X119202500Y-76547500D02*
X119000000Y-76750000D01*
X120400000Y-76547500D02*
X119202500Y-76547500D01*
X118500000Y-88460000D02*
X117750000Y-87710000D01*
X118000000Y-92500000D02*
X118500000Y-92000000D01*
X118500000Y-92000000D02*
X118500000Y-88460000D01*
X117750000Y-87710000D02*
X114610000Y-87710000D01*
X117025000Y-92500000D02*
X118000000Y-92500000D01*
X114610000Y-87710000D02*
X112540000Y-89780000D01*
%TO.N,/uartRx*%
X124250000Y-74749018D02*
X124356518Y-74642500D01*
X119250000Y-92440000D02*
X119250000Y-88210000D01*
X119250000Y-88210000D02*
X118090000Y-87050000D01*
X124356518Y-74642500D02*
X125600000Y-74642500D01*
X116985000Y-93770000D02*
X117920000Y-93770000D01*
X118090000Y-87050000D02*
X112730000Y-87050000D01*
X112730000Y-87050000D02*
X112540000Y-87240000D01*
X117920000Y-93770000D02*
X119250000Y-92440000D01*
D51*
%TO.N,Net-(C12-Pad1)*%
X155220000Y-86750000D02*
X159770000Y-86750000D01*
D49*
%TO.N,/ReaderPulses*%
X123500000Y-90750000D02*
X123020000Y-91230000D01*
X124800000Y-84700000D02*
X123500000Y-86000000D01*
X123500000Y-86000000D02*
X123500000Y-90750000D01*
X127780000Y-84700000D02*
X124800000Y-84700000D01*
X123020000Y-91230000D02*
X121975000Y-91230000D01*
D50*
%TO.N,/TagPulses*%
X137175000Y-94325000D02*
X137975000Y-94325000D01*
X135500000Y-97750000D02*
X136250000Y-97000000D01*
X131000000Y-96535000D02*
X129455000Y-96535000D01*
X121975000Y-92500000D02*
X123500000Y-92500000D01*
X131000000Y-97000000D02*
X131750000Y-97750000D01*
X131015000Y-96520000D02*
X131000000Y-96535000D01*
X131750000Y-97750000D02*
X135500000Y-97750000D01*
X125825000Y-94860000D02*
X127780000Y-94860000D01*
X131000000Y-97000000D02*
X131000000Y-96535000D01*
X125825000Y-96500000D02*
X125825000Y-94860000D01*
X125860000Y-94860000D02*
X127780000Y-94860000D01*
X136250000Y-95250000D02*
X137175000Y-94325000D01*
X136250000Y-97000000D02*
X136250000Y-95250000D01*
X123500000Y-92500000D02*
X125860000Y-94860000D01*
X129455000Y-96535000D02*
X127780000Y-94860000D01*
D49*
%TO.N,Net-(C13-Pad1)*%
X150282500Y-90500000D02*
X150145000Y-90637500D01*
X151670000Y-90500000D02*
X150282500Y-90500000D01*
D50*
%TO.N,Net-(C16-Pad1)*%
X142750000Y-92435000D02*
X142750000Y-90785000D01*
X142500000Y-92685000D02*
X142750000Y-92435000D01*
%TO.N,Net-(C16-Pad2)*%
X143210000Y-95960000D02*
X142500000Y-95250000D01*
X144062500Y-95960000D02*
X143210000Y-95960000D01*
X142500000Y-95250000D02*
X142500000Y-94235000D01*
%TO.N,Net-(Q1-Pad1)*%
X142995000Y-97460000D02*
X145387500Y-97460000D01*
X145937500Y-96910000D02*
X146050000Y-96910000D01*
X145387500Y-97460000D02*
X145937500Y-96910000D01*
%TO.N,/RF_Tx/Mod*%
X130920000Y-82325000D02*
X130920000Y-84100000D01*
X130920000Y-84100000D02*
X130320000Y-84700000D01*
D49*
%TO.N,Net-(U5-Pad1)*%
X136420000Y-82412500D02*
X137420000Y-81412500D01*
X137420000Y-81412500D02*
X137420000Y-80912500D01*
X135270000Y-82412500D02*
X136420000Y-82412500D01*
%TO.N,Net-(U5-Pad10)*%
X132920000Y-83187500D02*
X132920000Y-80912500D01*
X133195000Y-83462500D02*
X132920000Y-83187500D01*
X133920000Y-83462500D02*
X133195000Y-83462500D01*
%TO.N,Net-(C17-Pad2)*%
X137512500Y-90105000D02*
X138830000Y-90105000D01*
D50*
X139750000Y-89185000D02*
X142700000Y-89185000D01*
X142700000Y-89185000D02*
X142750000Y-89135000D01*
D49*
X138830000Y-90105000D02*
X139750000Y-89185000D01*
D51*
%TO.N,/RF_Tx/RfOut*%
X147570000Y-79000000D02*
X147745000Y-79175000D01*
X145430000Y-79000000D02*
X147570000Y-79000000D01*
D50*
%TO.N,Net-(C18-Pad1)*%
X132650000Y-87210000D02*
X134050000Y-87210000D01*
%TO.N,/RF_Tx/ModLow*%
X130920000Y-80675000D02*
X130920000Y-79250000D01*
D49*
X131182500Y-79412500D02*
X133140000Y-79412500D01*
X130920000Y-79150000D02*
X131182500Y-79412500D01*
%TO.N,/USB_N*%
X119000000Y-79000000D02*
X119000000Y-80456522D01*
X115250000Y-77000000D02*
X117706428Y-77000000D01*
X119000000Y-78293572D02*
X119000000Y-79000000D01*
X114150000Y-76850000D02*
X115100000Y-76850000D01*
X119450489Y-80907011D02*
X122842989Y-80907011D01*
X119000000Y-80456522D02*
X119450489Y-80907011D01*
X115100000Y-76850000D02*
X115250000Y-77000000D01*
X122842989Y-80907011D02*
X124027500Y-79722500D01*
X124027500Y-79722500D02*
X125600000Y-79722500D01*
X117706428Y-77000000D02*
X119000000Y-78293572D01*
%TO.N,/USB_P*%
X119243581Y-81406531D02*
X123093469Y-81406531D01*
X118500000Y-80662950D02*
X119243580Y-81406530D01*
X117500000Y-77500000D02*
X118500000Y-78500000D01*
X114150000Y-77500000D02*
X117500000Y-77500000D01*
X124142500Y-80357500D02*
X125600000Y-80357500D01*
X123093469Y-81406531D02*
X124142500Y-80357500D01*
X118500000Y-78500000D02*
X118500000Y-80662950D01*
%TO.N,/VBUS*%
X114150000Y-76200000D02*
X116487500Y-76200000D01*
X116487500Y-76200000D02*
X116500000Y-76187500D01*
%TO.N,/RF_Rx/Amp2*%
X133287500Y-90105000D02*
X131130000Y-90105000D01*
D50*
X127500000Y-92040000D02*
X127780000Y-92320000D01*
X128170000Y-92320000D02*
X129350000Y-93500000D01*
X127500000Y-90610000D02*
X127500000Y-92040000D01*
X125250000Y-90610000D02*
X129175000Y-90610000D01*
X129175000Y-90610000D02*
X129500000Y-90285000D01*
X127780000Y-92320000D02*
X128170000Y-92320000D01*
X131000000Y-90235000D02*
X129550000Y-90235000D01*
D49*
X131130000Y-90105000D02*
X131000000Y-90235000D01*
D50*
X129550000Y-90235000D02*
X129500000Y-90285000D01*
%TO.N,Net-(C19-Pad2)*%
X128350000Y-87310000D02*
X129500000Y-88460000D01*
X129500000Y-88460000D02*
X129500000Y-88635000D01*
X131000000Y-87210000D02*
X131000000Y-88685000D01*
X125250000Y-87310000D02*
X128350000Y-87310000D01*
D49*
X133287500Y-89455000D02*
X131770000Y-89455000D01*
X131770000Y-89455000D02*
X131000000Y-88685000D01*
D50*
X129500000Y-88635000D02*
X130950000Y-88635000D01*
X130950000Y-88635000D02*
X131000000Y-88685000D01*
D51*
%TO.N,Net-(J3-Pad1)*%
X156892472Y-81000000D02*
X159870000Y-81000000D01*
X155067472Y-79175000D02*
X156892472Y-81000000D01*
X153665000Y-79175000D02*
X155067472Y-79175000D01*
%TO.N,/RF_Tx/ModOut*%
X140712500Y-79000000D02*
X139250000Y-79000000D01*
D49*
X139420000Y-78912500D02*
X137420000Y-78912500D01*
%TO.N,/TagPreambleDetected*%
X121975000Y-88690000D02*
X121515000Y-88690000D01*
X121515000Y-88690000D02*
X115825000Y-83000000D01*
%TO.N,/TagEPCDetected*%
X120710000Y-89960000D02*
X121975000Y-89960000D01*
X120000000Y-88000000D02*
X120000000Y-89250000D01*
X116750000Y-84750000D02*
X120000000Y-88000000D01*
X115825000Y-84750000D02*
X116750000Y-84750000D01*
X120000000Y-89250000D02*
X120710000Y-89960000D01*
D51*
%TO.N,Net-(R3-Pad1)*%
X147570000Y-84000000D02*
X147745000Y-83825000D01*
X146075000Y-84000000D02*
X147570000Y-84000000D01*
D50*
%TO.N,Net-(R10-Pad1)*%
X131000000Y-93500000D02*
X131000000Y-94250000D01*
X133025000Y-94325000D02*
X131075000Y-94325000D01*
X131075000Y-94325000D02*
X131000000Y-94250000D01*
X131000000Y-94250000D02*
X131000000Y-94885000D01*
%TD*%
%TA.AperFunction,Conductor*%
%TO.N,GND*%
G36*
X142786621Y-72270002D02*
G01*
X142833114Y-72323658D01*
X142844500Y-72376000D01*
X142844500Y-75724674D01*
X142859034Y-75797740D01*
X142914399Y-75880601D01*
X142924714Y-75887493D01*
X142933493Y-75896272D01*
X142932416Y-75897349D01*
X142969031Y-75941163D01*
X142979500Y-75991449D01*
X142979500Y-77493822D01*
X142986406Y-77553053D01*
X142991043Y-77592826D01*
X142994657Y-77623828D01*
X142997155Y-77630709D01*
X142998839Y-77637833D01*
X142998319Y-77637956D01*
X143004501Y-77673107D01*
X143004501Y-77720014D01*
X143010816Y-77778157D01*
X143058628Y-77905695D01*
X143140313Y-78014687D01*
X143147493Y-78020068D01*
X143147494Y-78020069D01*
X143150970Y-78022674D01*
X143153552Y-78026127D01*
X143153843Y-78026418D01*
X143153801Y-78026460D01*
X143193485Y-78079533D01*
X143198511Y-78150352D01*
X143164451Y-78212645D01*
X143102120Y-78246635D01*
X143075405Y-78249500D01*
X142243678Y-78249500D01*
X142240820Y-78249833D01*
X142235063Y-78250000D01*
X140806811Y-78250000D01*
X140799013Y-78249758D01*
X140798823Y-78249746D01*
X140794852Y-78249500D01*
X139206178Y-78249500D01*
X139136908Y-78257576D01*
X139083442Y-78263809D01*
X139083439Y-78263810D01*
X139076172Y-78264657D01*
X139069297Y-78267153D01*
X139069295Y-78267153D01*
X138958487Y-78307375D01*
X138929101Y-78314199D01*
X138891949Y-78318234D01*
X138766088Y-78365417D01*
X138758907Y-78370799D01*
X138758905Y-78370800D01*
X138684400Y-78426638D01*
X138658528Y-78446028D01*
X138646884Y-78461565D01*
X138590026Y-78504080D01*
X138546058Y-78512000D01*
X137388481Y-78512000D01*
X137335136Y-78520449D01*
X137315425Y-78522000D01*
X136695326Y-78522000D01*
X136622260Y-78536534D01*
X136539399Y-78591899D01*
X136484034Y-78674760D01*
X136469500Y-78747826D01*
X136469500Y-79077174D01*
X136484034Y-79150240D01*
X136539399Y-79233101D01*
X136549714Y-79239993D01*
X136549715Y-79239994D01*
X136611436Y-79281234D01*
X136656964Y-79335711D01*
X136665813Y-79406154D01*
X136635172Y-79470198D01*
X136574770Y-79507510D01*
X136541435Y-79512000D01*
X134216500Y-79512000D01*
X134148379Y-79491998D01*
X134101886Y-79438342D01*
X134090500Y-79386000D01*
X134090500Y-79247826D01*
X134078417Y-79187082D01*
X134078417Y-79137918D01*
X134081751Y-79121158D01*
X134090500Y-79077174D01*
X134090500Y-78747826D01*
X134075966Y-78674760D01*
X134020601Y-78591899D01*
X133937740Y-78536534D01*
X133864674Y-78522000D01*
X132415326Y-78522000D01*
X132342260Y-78536534D01*
X132259399Y-78591899D01*
X132204034Y-78674760D01*
X132189500Y-78747826D01*
X132189500Y-78886000D01*
X132169498Y-78954121D01*
X132115842Y-79000614D01*
X132063500Y-79012000D01*
X131748450Y-79012000D01*
X131680329Y-78991998D01*
X131633836Y-78938342D01*
X131629567Y-78927749D01*
X131611263Y-78875627D01*
X131597634Y-78836816D01*
X131592042Y-78829246D01*
X131592041Y-78829243D01*
X131522742Y-78735421D01*
X131517150Y-78727850D01*
X131500206Y-78715335D01*
X131415757Y-78652959D01*
X131415754Y-78652958D01*
X131408184Y-78647366D01*
X131280369Y-78602481D01*
X131272723Y-78601758D01*
X131272722Y-78601758D01*
X131266752Y-78601194D01*
X131248834Y-78599500D01*
X130591166Y-78599500D01*
X130573248Y-78601194D01*
X130567278Y-78601758D01*
X130567277Y-78601758D01*
X130559631Y-78602481D01*
X130431816Y-78647366D01*
X130424246Y-78652958D01*
X130424243Y-78652959D01*
X130339794Y-78715335D01*
X130322850Y-78727850D01*
X130317258Y-78735421D01*
X130247959Y-78829243D01*
X130247958Y-78829246D01*
X130242366Y-78836816D01*
X130197481Y-78964631D01*
X130194500Y-78996166D01*
X130194500Y-79503834D01*
X130197481Y-79535369D01*
X130242366Y-79663184D01*
X130247958Y-79670754D01*
X130247959Y-79670757D01*
X130306490Y-79750001D01*
X130322850Y-79772150D01*
X130353879Y-79795068D01*
X130368360Y-79805764D01*
X130411271Y-79862326D01*
X130419500Y-79907115D01*
X130419500Y-80017885D01*
X130399498Y-80086006D01*
X130368361Y-80119235D01*
X130322850Y-80152850D01*
X130317255Y-80160425D01*
X130317254Y-80160426D01*
X130247959Y-80254243D01*
X130247958Y-80254246D01*
X130242366Y-80261816D01*
X130197481Y-80389631D01*
X130194500Y-80421166D01*
X130194500Y-80928834D01*
X130197481Y-80960369D01*
X130242366Y-81088184D01*
X130247958Y-81095754D01*
X130247959Y-81095757D01*
X130310335Y-81180206D01*
X130322850Y-81197150D01*
X130330421Y-81202742D01*
X130424243Y-81272041D01*
X130424246Y-81272042D01*
X130431816Y-81277634D01*
X130559631Y-81322519D01*
X130567277Y-81323242D01*
X130567278Y-81323242D01*
X130573248Y-81323806D01*
X130591166Y-81325500D01*
X131248834Y-81325500D01*
X131266752Y-81323806D01*
X131272722Y-81323242D01*
X131272723Y-81323242D01*
X131280369Y-81322519D01*
X131408184Y-81277634D01*
X131415754Y-81272042D01*
X131415757Y-81272041D01*
X131509579Y-81202742D01*
X131517150Y-81197150D01*
X131529665Y-81180206D01*
X131592041Y-81095757D01*
X131592042Y-81095754D01*
X131597634Y-81088184D01*
X131642519Y-80960369D01*
X131645500Y-80928834D01*
X131645500Y-80421166D01*
X131642519Y-80389631D01*
X131597634Y-80261816D01*
X131592042Y-80254246D01*
X131592041Y-80254243D01*
X131522746Y-80160426D01*
X131522745Y-80160425D01*
X131517150Y-80152850D01*
X131471639Y-80119235D01*
X131428729Y-80062674D01*
X131420500Y-80017885D01*
X131420500Y-79939000D01*
X131440502Y-79870879D01*
X131494158Y-79824386D01*
X131546500Y-79813000D01*
X132063500Y-79813000D01*
X132131621Y-79833002D01*
X132178114Y-79886658D01*
X132189500Y-79939000D01*
X132189500Y-80077174D01*
X132200570Y-80132826D01*
X132201583Y-80137918D01*
X132201583Y-80187082D01*
X132189500Y-80247826D01*
X132189500Y-80577174D01*
X132192429Y-80591899D01*
X132201583Y-80637918D01*
X132201583Y-80687082D01*
X132189500Y-80747826D01*
X132189500Y-81077174D01*
X132204034Y-81150240D01*
X132259399Y-81233101D01*
X132342260Y-81288466D01*
X132354431Y-81290887D01*
X132415326Y-81303000D01*
X132414905Y-81305118D01*
X132471667Y-81328027D01*
X132512686Y-81385975D01*
X132519500Y-81426850D01*
X132519500Y-83250933D01*
X132522564Y-83260364D01*
X132522565Y-83260368D01*
X132526297Y-83271853D01*
X132530913Y-83291078D01*
X132534354Y-83312804D01*
X132538855Y-83321637D01*
X132538856Y-83321641D01*
X132544341Y-83332406D01*
X132551905Y-83350666D01*
X132558704Y-83371590D01*
X132571639Y-83389393D01*
X132581965Y-83406245D01*
X132591950Y-83425842D01*
X132614513Y-83448405D01*
X132614516Y-83448409D01*
X132934091Y-83767984D01*
X132934095Y-83767987D01*
X132956658Y-83790550D01*
X132965497Y-83795054D01*
X132965499Y-83795055D01*
X132976258Y-83800537D01*
X132993114Y-83810865D01*
X133010911Y-83823796D01*
X133031832Y-83830594D01*
X133050092Y-83838158D01*
X133060859Y-83843644D01*
X133060863Y-83843645D01*
X133069696Y-83848146D01*
X133079487Y-83849697D01*
X133079488Y-83849697D01*
X133091422Y-83851587D01*
X133110647Y-83856203D01*
X133122132Y-83859935D01*
X133122136Y-83859936D01*
X133131567Y-83863000D01*
X133147541Y-83863000D01*
X133215662Y-83883002D01*
X133258945Y-83934795D01*
X133259034Y-83935240D01*
X133265926Y-83945555D01*
X133265927Y-83945557D01*
X133294207Y-83987881D01*
X133314399Y-84018101D01*
X133332029Y-84029881D01*
X133359267Y-84048080D01*
X133397260Y-84073466D01*
X133470326Y-84088000D01*
X134369674Y-84088000D01*
X134442740Y-84073466D01*
X134480734Y-84048080D01*
X134507971Y-84029881D01*
X134525601Y-84018101D01*
X134580966Y-83935240D01*
X134595500Y-83862174D01*
X134595500Y-83146557D01*
X134615502Y-83078436D01*
X134669158Y-83031943D01*
X134739432Y-83021839D01*
X134747162Y-83023960D01*
X134747260Y-83023466D01*
X134820326Y-83038000D01*
X135719674Y-83038000D01*
X135792740Y-83023466D01*
X135818113Y-83006513D01*
X135865286Y-82974993D01*
X135875601Y-82968101D01*
X135914213Y-82910313D01*
X135924073Y-82895557D01*
X135924074Y-82895555D01*
X135930966Y-82885240D01*
X135931113Y-82884500D01*
X135970597Y-82835502D01*
X136042459Y-82813000D01*
X136483433Y-82813000D01*
X136492864Y-82809936D01*
X136492868Y-82809935D01*
X136504353Y-82806203D01*
X136523578Y-82801587D01*
X136535512Y-82799697D01*
X136535513Y-82799697D01*
X136545304Y-82798146D01*
X136554137Y-82793645D01*
X136554141Y-82793644D01*
X136564906Y-82788159D01*
X136583166Y-82780595D01*
X136604090Y-82773796D01*
X136621893Y-82760861D01*
X136638745Y-82750535D01*
X136649502Y-82745054D01*
X136658342Y-82740550D01*
X136680905Y-82717987D01*
X136680909Y-82717984D01*
X137725484Y-81673409D01*
X137725487Y-81673405D01*
X137748050Y-81650842D01*
X137756297Y-81634657D01*
X137758037Y-81631243D01*
X137768366Y-81614387D01*
X137775467Y-81604613D01*
X137781297Y-81596589D01*
X137788096Y-81575664D01*
X137795660Y-81557403D01*
X137801144Y-81546640D01*
X137801144Y-81546639D01*
X137805646Y-81537804D01*
X137809087Y-81516078D01*
X137813703Y-81496852D01*
X137817435Y-81485367D01*
X137817435Y-81485365D01*
X137820500Y-81475933D01*
X137820500Y-81429000D01*
X137840502Y-81360879D01*
X137894158Y-81314386D01*
X137946500Y-81303000D01*
X138144674Y-81303000D01*
X138217740Y-81288466D01*
X138300601Y-81233101D01*
X138355966Y-81150240D01*
X138367688Y-81091311D01*
X138400596Y-81028402D01*
X138462291Y-80993270D01*
X138533186Y-80997070D01*
X138592094Y-81040329D01*
X138653147Y-81121793D01*
X138653150Y-81121796D01*
X138658528Y-81128972D01*
X138665704Y-81134350D01*
X138665707Y-81134353D01*
X138699064Y-81159352D01*
X138741580Y-81216211D01*
X138749500Y-81260179D01*
X138749500Y-81280444D01*
X138729498Y-81348565D01*
X138699065Y-81381270D01*
X138660313Y-81410313D01*
X138578628Y-81519305D01*
X138530816Y-81646843D01*
X138529963Y-81654696D01*
X138529962Y-81654700D01*
X138527211Y-81680026D01*
X138524500Y-81704985D01*
X138524501Y-82295014D01*
X138530816Y-82353157D01*
X138578628Y-82480695D01*
X138660313Y-82589687D01*
X138667493Y-82595068D01*
X138699065Y-82618730D01*
X138741580Y-82675589D01*
X138749500Y-82719556D01*
X138749500Y-82799180D01*
X138729498Y-82867301D01*
X138699064Y-82900007D01*
X138692496Y-82904929D01*
X138692494Y-82904931D01*
X138685313Y-82910313D01*
X138679932Y-82917493D01*
X138679929Y-82917496D01*
X138663490Y-82939431D01*
X138603628Y-83019305D01*
X138555816Y-83146843D01*
X138554963Y-83154696D01*
X138554962Y-83154700D01*
X138550426Y-83196460D01*
X138549500Y-83204985D01*
X138549501Y-83795014D01*
X138555816Y-83853157D01*
X138603628Y-83980695D01*
X138609014Y-83987881D01*
X138679929Y-84082504D01*
X138679932Y-84082507D01*
X138685313Y-84089687D01*
X138692494Y-84095069D01*
X138692496Y-84095071D01*
X138699064Y-84099993D01*
X138741580Y-84156851D01*
X138749500Y-84200820D01*
X138749500Y-84874000D01*
X138729498Y-84942121D01*
X138675842Y-84988614D01*
X138623500Y-85000000D01*
X131534176Y-85000000D01*
X131466055Y-84979998D01*
X131419562Y-84926342D01*
X131409480Y-84855921D01*
X131423167Y-84761519D01*
X131423167Y-84761517D01*
X131423700Y-84757842D01*
X131425215Y-84700000D01*
X131406708Y-84498591D01*
X131374310Y-84383716D01*
X131375071Y-84312725D01*
X131377596Y-84305293D01*
X131379854Y-84299269D01*
X131383783Y-84289944D01*
X131403553Y-84247837D01*
X131404935Y-84238964D01*
X131406042Y-84235342D01*
X131409891Y-84220672D01*
X131410702Y-84216983D01*
X131413852Y-84208581D01*
X131414517Y-84199636D01*
X131414519Y-84199626D01*
X131417302Y-84162172D01*
X131418452Y-84152145D01*
X131420500Y-84138991D01*
X131420500Y-84123797D01*
X131420846Y-84114460D01*
X131423161Y-84083300D01*
X131424476Y-84065609D01*
X131422603Y-84056833D01*
X131421992Y-84047876D01*
X131421998Y-84047876D01*
X131420500Y-84033683D01*
X131420500Y-82982115D01*
X131440502Y-82913994D01*
X131471640Y-82880764D01*
X131496765Y-82862207D01*
X131517150Y-82847150D01*
X131523362Y-82838740D01*
X131592041Y-82745757D01*
X131592042Y-82745754D01*
X131597634Y-82738184D01*
X131642519Y-82610369D01*
X131645500Y-82578834D01*
X131645500Y-82071166D01*
X131642519Y-82039631D01*
X131597634Y-81911816D01*
X131592042Y-81904246D01*
X131592041Y-81904243D01*
X131526568Y-81815601D01*
X131517150Y-81802850D01*
X131461844Y-81762000D01*
X131415757Y-81727959D01*
X131415754Y-81727958D01*
X131408184Y-81722366D01*
X131280369Y-81677481D01*
X131272723Y-81676758D01*
X131272722Y-81676758D01*
X131266752Y-81676194D01*
X131248834Y-81674500D01*
X130591166Y-81674500D01*
X130573248Y-81676194D01*
X130567278Y-81676758D01*
X130567277Y-81676758D01*
X130559631Y-81677481D01*
X130431816Y-81722366D01*
X130424246Y-81727958D01*
X130424243Y-81727959D01*
X130378156Y-81762000D01*
X130322850Y-81802850D01*
X130313432Y-81815601D01*
X130247959Y-81904243D01*
X130247958Y-81904246D01*
X130242366Y-81911816D01*
X130197481Y-82039631D01*
X130194500Y-82071166D01*
X130194500Y-82578834D01*
X130197481Y-82610369D01*
X130242366Y-82738184D01*
X130247958Y-82745754D01*
X130247959Y-82745757D01*
X130316638Y-82838740D01*
X130322850Y-82847150D01*
X130343236Y-82862207D01*
X130368360Y-82880764D01*
X130411271Y-82937326D01*
X130419500Y-82982115D01*
X130419500Y-83472969D01*
X130399498Y-83541090D01*
X130345842Y-83587583D01*
X130291852Y-83598958D01*
X130260653Y-83598550D01*
X130233286Y-83598192D01*
X130227589Y-83599171D01*
X130227588Y-83599171D01*
X130039646Y-83631465D01*
X130039645Y-83631465D01*
X130033949Y-83632444D01*
X129844193Y-83702449D01*
X129839232Y-83705401D01*
X129839231Y-83705401D01*
X129679322Y-83800537D01*
X129670371Y-83805862D01*
X129518305Y-83939220D01*
X129393089Y-84098057D01*
X129298914Y-84277053D01*
X129238937Y-84470213D01*
X129215164Y-84671069D01*
X129215542Y-84676836D01*
X129227924Y-84865760D01*
X129212420Y-84935043D01*
X129161920Y-84984945D01*
X129102194Y-85000000D01*
X129006500Y-85000000D01*
X128938379Y-84979998D01*
X128891886Y-84926342D01*
X128880500Y-84874000D01*
X128880500Y-83825326D01*
X128865966Y-83752260D01*
X128843921Y-83719266D01*
X128817493Y-83679714D01*
X128810601Y-83669399D01*
X128727740Y-83614034D01*
X128654674Y-83599500D01*
X126905326Y-83599500D01*
X126832260Y-83614034D01*
X126749399Y-83669399D01*
X126742507Y-83679714D01*
X126716080Y-83719266D01*
X126694034Y-83752260D01*
X126679500Y-83825326D01*
X126679500Y-84173500D01*
X126659498Y-84241621D01*
X126605842Y-84288114D01*
X126553500Y-84299500D01*
X124736567Y-84299500D01*
X124727136Y-84302564D01*
X124727132Y-84302565D01*
X124715647Y-84306297D01*
X124696422Y-84310913D01*
X124684488Y-84312803D01*
X124684487Y-84312803D01*
X124674696Y-84314354D01*
X124665863Y-84318855D01*
X124665859Y-84318856D01*
X124655092Y-84324342D01*
X124636832Y-84331906D01*
X124615911Y-84338704D01*
X124607888Y-84344533D01*
X124598113Y-84351635D01*
X124581258Y-84361963D01*
X124570499Y-84367445D01*
X124570497Y-84367446D01*
X124561658Y-84371950D01*
X124539095Y-84394513D01*
X124539091Y-84394516D01*
X123194516Y-85739091D01*
X123194513Y-85739095D01*
X123171950Y-85761658D01*
X123167446Y-85770498D01*
X123161965Y-85781255D01*
X123151639Y-85798107D01*
X123138704Y-85815910D01*
X123134440Y-85829034D01*
X123131907Y-85836830D01*
X123124341Y-85855094D01*
X123118856Y-85865859D01*
X123118855Y-85865863D01*
X123114354Y-85874696D01*
X123112803Y-85884487D01*
X123112803Y-85884488D01*
X123110913Y-85896422D01*
X123106297Y-85915647D01*
X123102565Y-85927132D01*
X123102564Y-85927136D01*
X123099500Y-85936567D01*
X123099500Y-88039160D01*
X123079498Y-88107281D01*
X123025842Y-88153774D01*
X122955568Y-88163878D01*
X122934565Y-88158994D01*
X122934139Y-88158855D01*
X122925304Y-88154354D01*
X122831519Y-88139500D01*
X122718784Y-88139500D01*
X121583083Y-88139501D01*
X121514962Y-88119499D01*
X121493988Y-88102596D01*
X116512405Y-83121012D01*
X116478379Y-83058700D01*
X116475500Y-83031917D01*
X116475500Y-82671166D01*
X116472519Y-82639631D01*
X116427634Y-82511816D01*
X116422042Y-82504246D01*
X116422041Y-82504243D01*
X116352742Y-82410421D01*
X116347150Y-82402850D01*
X116289886Y-82360554D01*
X116245757Y-82327959D01*
X116245754Y-82327958D01*
X116238184Y-82322366D01*
X116110369Y-82277481D01*
X116102723Y-82276758D01*
X116102722Y-82276758D01*
X116096752Y-82276194D01*
X116078834Y-82274500D01*
X115571166Y-82274500D01*
X115553248Y-82276194D01*
X115547278Y-82276758D01*
X115547277Y-82276758D01*
X115539631Y-82277481D01*
X115411816Y-82322366D01*
X115404246Y-82327958D01*
X115404243Y-82327959D01*
X115360114Y-82360554D01*
X115302850Y-82402850D01*
X115297258Y-82410421D01*
X115227959Y-82504243D01*
X115227958Y-82504246D01*
X115222366Y-82511816D01*
X115177481Y-82639631D01*
X115174500Y-82671166D01*
X115174500Y-83328834D01*
X115177481Y-83360369D01*
X115222366Y-83488184D01*
X115227958Y-83495754D01*
X115227959Y-83495757D01*
X115290202Y-83580026D01*
X115302850Y-83597150D01*
X115310421Y-83602742D01*
X115404243Y-83672041D01*
X115404246Y-83672042D01*
X115411816Y-83677634D01*
X115539631Y-83722519D01*
X115547277Y-83723242D01*
X115547278Y-83723242D01*
X115553248Y-83723806D01*
X115571166Y-83725500D01*
X115931917Y-83725500D01*
X116000038Y-83745502D01*
X116021012Y-83762405D01*
X116068012Y-83809405D01*
X116102038Y-83871717D01*
X116096973Y-83942532D01*
X116054426Y-83999368D01*
X115987906Y-84024179D01*
X115978917Y-84024500D01*
X115571166Y-84024500D01*
X115553248Y-84026194D01*
X115547278Y-84026758D01*
X115547277Y-84026758D01*
X115539631Y-84027481D01*
X115411816Y-84072366D01*
X115404246Y-84077958D01*
X115404243Y-84077959D01*
X115348522Y-84119116D01*
X115302850Y-84152850D01*
X115297258Y-84160421D01*
X115227959Y-84254243D01*
X115227958Y-84254246D01*
X115222366Y-84261816D01*
X115177481Y-84389631D01*
X115174500Y-84421166D01*
X115174500Y-85078834D01*
X115177481Y-85110369D01*
X115222366Y-85238184D01*
X115227958Y-85245754D01*
X115227959Y-85245757D01*
X115290335Y-85330206D01*
X115302850Y-85347150D01*
X115310421Y-85352742D01*
X115404243Y-85422041D01*
X115404246Y-85422042D01*
X115411816Y-85427634D01*
X115539631Y-85472519D01*
X115547277Y-85473242D01*
X115547278Y-85473242D01*
X115553248Y-85473806D01*
X115571166Y-85475500D01*
X116078834Y-85475500D01*
X116096752Y-85473806D01*
X116102722Y-85473242D01*
X116102723Y-85473242D01*
X116110369Y-85472519D01*
X116238184Y-85427634D01*
X116245754Y-85422042D01*
X116245757Y-85422041D01*
X116339579Y-85352742D01*
X116347150Y-85347150D01*
X116427634Y-85238184D01*
X116430754Y-85229300D01*
X116431297Y-85228274D01*
X116480850Y-85177431D01*
X116550025Y-85161450D01*
X116616858Y-85185404D01*
X116631746Y-85198139D01*
X117868012Y-86434405D01*
X117902038Y-86496717D01*
X117896973Y-86567532D01*
X117854426Y-86624368D01*
X117787906Y-86649179D01*
X117778917Y-86649500D01*
X113535788Y-86649500D01*
X113467667Y-86629498D01*
X113434830Y-86598889D01*
X113364788Y-86505091D01*
X113364787Y-86505090D01*
X113361335Y-86500467D01*
X113338350Y-86479220D01*
X113217053Y-86367094D01*
X113217051Y-86367092D01*
X113212812Y-86363174D01*
X113185374Y-86345862D01*
X113046637Y-86258325D01*
X113041757Y-86255246D01*
X112853898Y-86180298D01*
X112655526Y-86140839D01*
X112649752Y-86140763D01*
X112649748Y-86140763D01*
X112547257Y-86139422D01*
X112453286Y-86138192D01*
X112447589Y-86139171D01*
X112447588Y-86139171D01*
X112259646Y-86171465D01*
X112259645Y-86171465D01*
X112253949Y-86172444D01*
X112064193Y-86242449D01*
X112059232Y-86245401D01*
X112059231Y-86245401D01*
X111960315Y-86304250D01*
X111890371Y-86345862D01*
X111738305Y-86479220D01*
X111613089Y-86638057D01*
X111518914Y-86817053D01*
X111458937Y-87010213D01*
X111435164Y-87211069D01*
X111448392Y-87412894D01*
X111470641Y-87500500D01*
X111494497Y-87594432D01*
X111498178Y-87608928D01*
X111582856Y-87792607D01*
X111586189Y-87797323D01*
X111658199Y-87899215D01*
X111699588Y-87957780D01*
X111703730Y-87961815D01*
X111716401Y-87974158D01*
X111844466Y-88098913D01*
X111849270Y-88102123D01*
X111861807Y-88110500D01*
X112012637Y-88211282D01*
X112017940Y-88213560D01*
X112017943Y-88213562D01*
X112193163Y-88288842D01*
X112198470Y-88291122D01*
X112395740Y-88335760D01*
X112401509Y-88335987D01*
X112401512Y-88335987D01*
X112477683Y-88338979D01*
X112597842Y-88343700D01*
X112684132Y-88331189D01*
X112792286Y-88315508D01*
X112792291Y-88315507D01*
X112798007Y-88314678D01*
X112803479Y-88312820D01*
X112803481Y-88312820D01*
X112984067Y-88251519D01*
X112984069Y-88251518D01*
X112989531Y-88249664D01*
X113120912Y-88176088D01*
X113160964Y-88153658D01*
X113160965Y-88153657D01*
X113166001Y-88150837D01*
X113228433Y-88098913D01*
X113317073Y-88025191D01*
X113321505Y-88021505D01*
X113450837Y-87866001D01*
X113549664Y-87689531D01*
X113555828Y-87671372D01*
X113601782Y-87535998D01*
X113642619Y-87477922D01*
X113708372Y-87451144D01*
X113721095Y-87450500D01*
X113998917Y-87450500D01*
X114067038Y-87470502D01*
X114113531Y-87524158D01*
X114123635Y-87594432D01*
X114094141Y-87659012D01*
X114088012Y-87665595D01*
X113040836Y-88712771D01*
X112978524Y-88746797D01*
X112905051Y-88740706D01*
X112859267Y-88722440D01*
X112853898Y-88720298D01*
X112655526Y-88680839D01*
X112649752Y-88680763D01*
X112649748Y-88680763D01*
X112547257Y-88679422D01*
X112453286Y-88678192D01*
X112447589Y-88679171D01*
X112447588Y-88679171D01*
X112259646Y-88711465D01*
X112259645Y-88711465D01*
X112253949Y-88712444D01*
X112064193Y-88782449D01*
X112059232Y-88785401D01*
X112059231Y-88785401D01*
X111924686Y-88865447D01*
X111890371Y-88885862D01*
X111738305Y-89019220D01*
X111613089Y-89178057D01*
X111518914Y-89357053D01*
X111458937Y-89550213D01*
X111435164Y-89751069D01*
X111448392Y-89952894D01*
X111457839Y-89990092D01*
X111495039Y-90136567D01*
X111498178Y-90148928D01*
X111582856Y-90332607D01*
X111586189Y-90337323D01*
X111685803Y-90478274D01*
X111699588Y-90497780D01*
X111703730Y-90501815D01*
X111724169Y-90521726D01*
X111844466Y-90638913D01*
X112012637Y-90751282D01*
X112017940Y-90753560D01*
X112017943Y-90753562D01*
X112155689Y-90812742D01*
X112198470Y-90831122D01*
X112395740Y-90875760D01*
X112401509Y-90875987D01*
X112401512Y-90875987D01*
X112477683Y-90878979D01*
X112597842Y-90883700D01*
X112684132Y-90871189D01*
X112792286Y-90855508D01*
X112792291Y-90855507D01*
X112798007Y-90854678D01*
X112803479Y-90852820D01*
X112803481Y-90852820D01*
X112984067Y-90791519D01*
X112984069Y-90791518D01*
X112989531Y-90789664D01*
X113166001Y-90690837D01*
X113228433Y-90638913D01*
X113317073Y-90565191D01*
X113321505Y-90561505D01*
X113407121Y-90458564D01*
X113447146Y-90410439D01*
X113450837Y-90406001D01*
X113549664Y-90229531D01*
X113571073Y-90166464D01*
X113612820Y-90043481D01*
X113612820Y-90043479D01*
X113614678Y-90038007D01*
X113615507Y-90032291D01*
X113615508Y-90032286D01*
X113641140Y-89855500D01*
X113643700Y-89837842D01*
X113645215Y-89780000D01*
X113626708Y-89578591D01*
X113623030Y-89565550D01*
X113576599Y-89400916D01*
X113577359Y-89329924D01*
X113608773Y-89277620D01*
X114738988Y-88147405D01*
X114801300Y-88113379D01*
X114828083Y-88110500D01*
X115765463Y-88110500D01*
X115833584Y-88130502D01*
X115880077Y-88184158D01*
X115890181Y-88254432D01*
X115871173Y-88301262D01*
X115871950Y-88301658D01*
X115814354Y-88414696D01*
X115812804Y-88424485D01*
X115812803Y-88424487D01*
X115810836Y-88436907D01*
X115799500Y-88508481D01*
X115799501Y-88871518D01*
X115814354Y-88965304D01*
X115871950Y-89078342D01*
X115961658Y-89168050D01*
X116049353Y-89212733D01*
X116100968Y-89261481D01*
X116118034Y-89330396D01*
X116095133Y-89397598D01*
X116049353Y-89437267D01*
X115961658Y-89481950D01*
X115871950Y-89571658D01*
X115814354Y-89684696D01*
X115799500Y-89778481D01*
X115799501Y-90141518D01*
X115800276Y-90146411D01*
X115800276Y-90146412D01*
X115808469Y-90198142D01*
X115814354Y-90235304D01*
X115818857Y-90244141D01*
X115818857Y-90244142D01*
X115825914Y-90257991D01*
X115871950Y-90348342D01*
X115961658Y-90438050D01*
X116001603Y-90458403D01*
X116049353Y-90482733D01*
X116100968Y-90531481D01*
X116118034Y-90600396D01*
X116095133Y-90667598D01*
X116049353Y-90707267D01*
X115961658Y-90751950D01*
X115871950Y-90841658D01*
X115831777Y-90920502D01*
X115826951Y-90929974D01*
X115814354Y-90954696D01*
X115813932Y-90957361D01*
X115776122Y-91012657D01*
X115716216Y-91039500D01*
X115706567Y-91039500D01*
X115697134Y-91042565D01*
X115685647Y-91046297D01*
X115666422Y-91050913D01*
X115654488Y-91052803D01*
X115654487Y-91052803D01*
X115644696Y-91054354D01*
X115635863Y-91058855D01*
X115635859Y-91058856D01*
X115625094Y-91064341D01*
X115606834Y-91071905D01*
X115585910Y-91078704D01*
X115568107Y-91091639D01*
X115551254Y-91101965D01*
X115531658Y-91111950D01*
X115509095Y-91134513D01*
X115509091Y-91134516D01*
X114944516Y-91699091D01*
X114944513Y-91699095D01*
X114921950Y-91721658D01*
X114917446Y-91730498D01*
X114911965Y-91741255D01*
X114901639Y-91758107D01*
X114888704Y-91775910D01*
X114881907Y-91796830D01*
X114874341Y-91815094D01*
X114868856Y-91825859D01*
X114868855Y-91825863D01*
X114864354Y-91834696D01*
X114862803Y-91844487D01*
X114862803Y-91844488D01*
X114860913Y-91856422D01*
X114856297Y-91875647D01*
X114852565Y-91887132D01*
X114852564Y-91887136D01*
X114849500Y-91896567D01*
X114849500Y-96241917D01*
X114829498Y-96310038D01*
X114812595Y-96331012D01*
X114181012Y-96962595D01*
X114118700Y-96996621D01*
X114091917Y-96999500D01*
X113766500Y-96999500D01*
X113698379Y-96979498D01*
X113651886Y-96925842D01*
X113640500Y-96873500D01*
X113640500Y-96525326D01*
X113625966Y-96452260D01*
X113570601Y-96369399D01*
X113513150Y-96331012D01*
X113498058Y-96320928D01*
X113498057Y-96320928D01*
X113487740Y-96314034D01*
X113414674Y-96299500D01*
X111665326Y-96299500D01*
X111592260Y-96314034D01*
X111581943Y-96320928D01*
X111581942Y-96320928D01*
X111566850Y-96331012D01*
X111509399Y-96369399D01*
X111454034Y-96452260D01*
X111439500Y-96525326D01*
X111439500Y-98274674D01*
X111454034Y-98347740D01*
X111509399Y-98430601D01*
X111519714Y-98437493D01*
X111571788Y-98472287D01*
X111592260Y-98485966D01*
X111665326Y-98500500D01*
X113414674Y-98500500D01*
X113487740Y-98485966D01*
X113508213Y-98472287D01*
X113560286Y-98437493D01*
X113570601Y-98430601D01*
X113625966Y-98347740D01*
X113640500Y-98274674D01*
X113640500Y-97926500D01*
X113660502Y-97858379D01*
X113714158Y-97811886D01*
X113766500Y-97800500D01*
X114373433Y-97800500D01*
X114382864Y-97797436D01*
X114382868Y-97797435D01*
X114394353Y-97793703D01*
X114413578Y-97789087D01*
X114425512Y-97787197D01*
X114425513Y-97787197D01*
X114435304Y-97785646D01*
X114444137Y-97781145D01*
X114444141Y-97781144D01*
X114454906Y-97775659D01*
X114473166Y-97768095D01*
X114494090Y-97761296D01*
X114511893Y-97748361D01*
X114528745Y-97738035D01*
X114539502Y-97732554D01*
X114548342Y-97728050D01*
X114570905Y-97705487D01*
X114570909Y-97705484D01*
X115555484Y-96720909D01*
X115555487Y-96720905D01*
X115578050Y-96698342D01*
X115582555Y-96689501D01*
X115588037Y-96678742D01*
X115598365Y-96661887D01*
X115605467Y-96652112D01*
X115611296Y-96644089D01*
X115618094Y-96623168D01*
X115625658Y-96604908D01*
X115631144Y-96594141D01*
X115631145Y-96594137D01*
X115635646Y-96585304D01*
X115639087Y-96563578D01*
X115643703Y-96544353D01*
X115647435Y-96532868D01*
X115647436Y-96532864D01*
X115650500Y-96523433D01*
X115650500Y-95508691D01*
X115670502Y-95440570D01*
X115724158Y-95394077D01*
X115794432Y-95383973D01*
X115859012Y-95413467D01*
X115871058Y-95426591D01*
X115871950Y-95428342D01*
X115961658Y-95518050D01*
X116074696Y-95575646D01*
X116084485Y-95577196D01*
X116084487Y-95577197D01*
X116111849Y-95581530D01*
X116168481Y-95590500D01*
X117024827Y-95590500D01*
X117881518Y-95590499D01*
X117886412Y-95589724D01*
X117965506Y-95577198D01*
X117965508Y-95577197D01*
X117975304Y-95575646D01*
X118088342Y-95518050D01*
X118178050Y-95428342D01*
X118235646Y-95315304D01*
X118237301Y-95304858D01*
X118242742Y-95270502D01*
X118250500Y-95221519D01*
X118250499Y-94858482D01*
X118235646Y-94764696D01*
X118178050Y-94651658D01*
X118088342Y-94561950D01*
X118000647Y-94517267D01*
X117949032Y-94468519D01*
X117931966Y-94399604D01*
X117954867Y-94332402D01*
X118000647Y-94292733D01*
X118088342Y-94248050D01*
X118178050Y-94158342D01*
X118235646Y-94045304D01*
X118236735Y-94038425D01*
X118266440Y-93989953D01*
X119555484Y-92700909D01*
X119555487Y-92700905D01*
X119578050Y-92678342D01*
X119588035Y-92658745D01*
X119598361Y-92641893D01*
X119611296Y-92624090D01*
X119618095Y-92603166D01*
X119625659Y-92584906D01*
X119631144Y-92574141D01*
X119631145Y-92574137D01*
X119635646Y-92565304D01*
X119639061Y-92543745D01*
X119639087Y-92543578D01*
X119643703Y-92524353D01*
X119647435Y-92512868D01*
X119647436Y-92512864D01*
X119650500Y-92503433D01*
X119650500Y-89771083D01*
X119670502Y-89702962D01*
X119724158Y-89656469D01*
X119794432Y-89646365D01*
X119859012Y-89675859D01*
X119865595Y-89681988D01*
X120449091Y-90265484D01*
X120449095Y-90265487D01*
X120471658Y-90288050D01*
X120480497Y-90292554D01*
X120480499Y-90292555D01*
X120491258Y-90298037D01*
X120508114Y-90308365D01*
X120525911Y-90321296D01*
X120546832Y-90328094D01*
X120565092Y-90335658D01*
X120575859Y-90341144D01*
X120575863Y-90341145D01*
X120584696Y-90345646D01*
X120594487Y-90347197D01*
X120594488Y-90347197D01*
X120606422Y-90349087D01*
X120625647Y-90353703D01*
X120637132Y-90357435D01*
X120637136Y-90357436D01*
X120646567Y-90360500D01*
X120781918Y-90360500D01*
X120850039Y-90380502D01*
X120871013Y-90397405D01*
X120911658Y-90438050D01*
X120951603Y-90458403D01*
X120999353Y-90482733D01*
X121050968Y-90531481D01*
X121068034Y-90600396D01*
X121045133Y-90667598D01*
X120999353Y-90707267D01*
X120911658Y-90751950D01*
X120821950Y-90841658D01*
X120764354Y-90954696D01*
X120762804Y-90964485D01*
X120762803Y-90964487D01*
X120760754Y-90977423D01*
X120749500Y-91048481D01*
X120749501Y-91411518D01*
X120750276Y-91416410D01*
X120750276Y-91416412D01*
X120760285Y-91479609D01*
X120764354Y-91505304D01*
X120768857Y-91514141D01*
X120768857Y-91514142D01*
X120777009Y-91530141D01*
X120821950Y-91618342D01*
X120911658Y-91708050D01*
X120965751Y-91735612D01*
X120999353Y-91752733D01*
X121050968Y-91801481D01*
X121068034Y-91870396D01*
X121045133Y-91937598D01*
X120999353Y-91977267D01*
X120911658Y-92021950D01*
X120821950Y-92111658D01*
X120764354Y-92224696D01*
X120762804Y-92234485D01*
X120762803Y-92234487D01*
X120758619Y-92260905D01*
X120749500Y-92318481D01*
X120749501Y-92681518D01*
X120750276Y-92686411D01*
X120750276Y-92686412D01*
X120761338Y-92756258D01*
X120764354Y-92775304D01*
X120768857Y-92784141D01*
X120768857Y-92784142D01*
X120779732Y-92805484D01*
X120821950Y-92888342D01*
X120911658Y-92978050D01*
X120977927Y-93011816D01*
X120999353Y-93022733D01*
X121050968Y-93071481D01*
X121068034Y-93140396D01*
X121045133Y-93207598D01*
X120999353Y-93247267D01*
X120911658Y-93291950D01*
X120821950Y-93381658D01*
X120764354Y-93494696D01*
X120749500Y-93588481D01*
X120749501Y-93951518D01*
X120750276Y-93956409D01*
X120750276Y-93956412D01*
X120760237Y-94019305D01*
X120764354Y-94045304D01*
X120821950Y-94158342D01*
X120911658Y-94248050D01*
X120999353Y-94292733D01*
X121050968Y-94341481D01*
X121068034Y-94410396D01*
X121045133Y-94477598D01*
X120999353Y-94517267D01*
X120911658Y-94561950D01*
X120821950Y-94651658D01*
X120764354Y-94764696D01*
X120749500Y-94858481D01*
X120749501Y-95221518D01*
X120750276Y-95226409D01*
X120750276Y-95226412D01*
X120762700Y-95304858D01*
X120764354Y-95315304D01*
X120821950Y-95428342D01*
X120911658Y-95518050D01*
X120999082Y-95562595D01*
X120999353Y-95562733D01*
X121050968Y-95611481D01*
X121068034Y-95680396D01*
X121045133Y-95747598D01*
X120999353Y-95787267D01*
X120911658Y-95831950D01*
X120821950Y-95921658D01*
X120764354Y-96034696D01*
X120749500Y-96128481D01*
X120749501Y-96491518D01*
X120750276Y-96496411D01*
X120750276Y-96496412D01*
X120757869Y-96544353D01*
X120764354Y-96585304D01*
X120821950Y-96698342D01*
X120911658Y-96788050D01*
X121007433Y-96836850D01*
X121059047Y-96885597D01*
X121076113Y-96954512D01*
X121053212Y-97021714D01*
X121033058Y-97044064D01*
X121013034Y-97061533D01*
X120988523Y-97096409D01*
X120929245Y-97180753D01*
X120922501Y-97190348D01*
X120865309Y-97337039D01*
X120864094Y-97346270D01*
X120863586Y-97347417D01*
X120862428Y-97351928D01*
X120861676Y-97351735D01*
X120835374Y-97411195D01*
X120828267Y-97418919D01*
X120761189Y-97485997D01*
X120698877Y-97520023D01*
X120628062Y-97514958D01*
X120571270Y-97472468D01*
X120524687Y-97410313D01*
X120415695Y-97328628D01*
X120288157Y-97280816D01*
X120280304Y-97279963D01*
X120280300Y-97279962D01*
X120233414Y-97274869D01*
X120233410Y-97274869D01*
X120230015Y-97274500D01*
X119960040Y-97274500D01*
X119689986Y-97274501D01*
X119631843Y-97280816D01*
X119624446Y-97283589D01*
X119601522Y-97292183D01*
X119504305Y-97328628D01*
X119395313Y-97410313D01*
X119313628Y-97519305D01*
X119265816Y-97646843D01*
X119264963Y-97654696D01*
X119264962Y-97654700D01*
X119259869Y-97701586D01*
X119259500Y-97704985D01*
X119259501Y-98295014D01*
X119265816Y-98353157D01*
X119313628Y-98480695D01*
X119395313Y-98589687D01*
X119504305Y-98671372D01*
X119631843Y-98719184D01*
X119639696Y-98720037D01*
X119639700Y-98720038D01*
X119686586Y-98725131D01*
X119686590Y-98725131D01*
X119689985Y-98725500D01*
X119959960Y-98725500D01*
X120230014Y-98725499D01*
X120288157Y-98719184D01*
X120393966Y-98679518D01*
X120438195Y-98671500D01*
X120713819Y-98671500D01*
X120725704Y-98672828D01*
X120725745Y-98672318D01*
X120734691Y-98673038D01*
X120743447Y-98675019D01*
X120796263Y-98671742D01*
X120804067Y-98671500D01*
X120819940Y-98671500D01*
X120830052Y-98670052D01*
X120840106Y-98669022D01*
X120868097Y-98667285D01*
X120886538Y-98666141D01*
X120894982Y-98663093D01*
X120898694Y-98662324D01*
X120913399Y-98658657D01*
X120917027Y-98657596D01*
X120925918Y-98656323D01*
X120968282Y-98637061D01*
X120977637Y-98633254D01*
X121012943Y-98620509D01*
X121012947Y-98620507D01*
X121021387Y-98617460D01*
X121028635Y-98612165D01*
X121031975Y-98610389D01*
X121045089Y-98602726D01*
X121048261Y-98600697D01*
X121056428Y-98596984D01*
X121063223Y-98591129D01*
X121063226Y-98591127D01*
X121091675Y-98566613D01*
X121099596Y-98560324D01*
X121106402Y-98555352D01*
X121110336Y-98552478D01*
X121121079Y-98541735D01*
X121127926Y-98535377D01*
X121158237Y-98509259D01*
X121165037Y-98503400D01*
X121169920Y-98495866D01*
X121175819Y-98489104D01*
X121175824Y-98489108D01*
X121184800Y-98478014D01*
X121474286Y-98188528D01*
X121536598Y-98154502D01*
X121553397Y-98152829D01*
X121553348Y-98152362D01*
X121560897Y-98151569D01*
X121568495Y-98151688D01*
X121721968Y-98116538D01*
X121862625Y-98045795D01*
X121898302Y-98015324D01*
X121976574Y-97948474D01*
X121976576Y-97948471D01*
X121982348Y-97943542D01*
X122074224Y-97815683D01*
X122081229Y-97798259D01*
X122094856Y-97764359D01*
X122132950Y-97669598D01*
X122155134Y-97513723D01*
X122156042Y-97513852D01*
X122168010Y-97473512D01*
X122168526Y-97472824D01*
X122184857Y-97429261D01*
X122188783Y-97419947D01*
X122204737Y-97385966D01*
X122204738Y-97385963D01*
X122208553Y-97377837D01*
X122209935Y-97368963D01*
X122211039Y-97365350D01*
X122214885Y-97350693D01*
X122215699Y-97346990D01*
X122218852Y-97338580D01*
X122222302Y-97292157D01*
X122223453Y-97282139D01*
X122223792Y-97279962D01*
X122225500Y-97268991D01*
X122225500Y-97253796D01*
X122225846Y-97244459D01*
X122227255Y-97225500D01*
X122229476Y-97195608D01*
X122227603Y-97186832D01*
X122226992Y-97177875D01*
X122226998Y-97177875D01*
X122225500Y-97163682D01*
X122225500Y-96986499D01*
X122245502Y-96918378D01*
X122299158Y-96871885D01*
X122351500Y-96860499D01*
X122831518Y-96860499D01*
X122836412Y-96859724D01*
X122915506Y-96847198D01*
X122915508Y-96847197D01*
X122925304Y-96845646D01*
X123038342Y-96788050D01*
X123078987Y-96747405D01*
X123141299Y-96713379D01*
X123168082Y-96710500D01*
X123374000Y-96710500D01*
X123442121Y-96730502D01*
X123488614Y-96784158D01*
X123500000Y-96836500D01*
X123500000Y-97000000D01*
X123517515Y-97000000D01*
X123585636Y-97020002D01*
X123618866Y-97051140D01*
X123652850Y-97097150D01*
X123660421Y-97102742D01*
X123754243Y-97172041D01*
X123754246Y-97172042D01*
X123761816Y-97177634D01*
X123889631Y-97222519D01*
X123897277Y-97223242D01*
X123897278Y-97223242D01*
X123901796Y-97223669D01*
X123921166Y-97225500D01*
X124428834Y-97225500D01*
X124460369Y-97222519D01*
X124460659Y-97225591D01*
X124517349Y-97229557D01*
X124574251Y-97272015D01*
X124599165Y-97338497D01*
X124599500Y-97347681D01*
X124599500Y-98063433D01*
X124602564Y-98072864D01*
X124602565Y-98072868D01*
X124606297Y-98084353D01*
X124610913Y-98103578D01*
X124614354Y-98125304D01*
X124618855Y-98134137D01*
X124618856Y-98134141D01*
X124624341Y-98144906D01*
X124631905Y-98163166D01*
X124638704Y-98184090D01*
X124651639Y-98201893D01*
X124661965Y-98218745D01*
X124671950Y-98238342D01*
X124694513Y-98260905D01*
X124694516Y-98260909D01*
X125239091Y-98805484D01*
X125239095Y-98805487D01*
X125261658Y-98828050D01*
X125270497Y-98832554D01*
X125270499Y-98832555D01*
X125281258Y-98838037D01*
X125298113Y-98848365D01*
X125307888Y-98855467D01*
X125315911Y-98861296D01*
X125336830Y-98868093D01*
X125355092Y-98875658D01*
X125365859Y-98881144D01*
X125365863Y-98881145D01*
X125374696Y-98885646D01*
X125384487Y-98887197D01*
X125384488Y-98887197D01*
X125396422Y-98889087D01*
X125415647Y-98893703D01*
X125427132Y-98897435D01*
X125427136Y-98897436D01*
X125436567Y-98900500D01*
X140368433Y-98900500D01*
X140377864Y-98897436D01*
X140377868Y-98897435D01*
X140389353Y-98893703D01*
X140408578Y-98889087D01*
X140420512Y-98887197D01*
X140420513Y-98887197D01*
X140430304Y-98885646D01*
X140439137Y-98881145D01*
X140439141Y-98881144D01*
X140449906Y-98875659D01*
X140468166Y-98868095D01*
X140489090Y-98861296D01*
X140506893Y-98848361D01*
X140523745Y-98838035D01*
X140534502Y-98832554D01*
X140543342Y-98828050D01*
X140565901Y-98805491D01*
X140565910Y-98805483D01*
X140836016Y-98535377D01*
X141148987Y-98222405D01*
X141211300Y-98188380D01*
X141238083Y-98185500D01*
X141598834Y-98185500D01*
X141616752Y-98183806D01*
X141622722Y-98183242D01*
X141622723Y-98183242D01*
X141630369Y-98182519D01*
X141758184Y-98137634D01*
X141765754Y-98132042D01*
X141765757Y-98132041D01*
X141857555Y-98064237D01*
X141867150Y-98057150D01*
X141894541Y-98020066D01*
X141942041Y-97955757D01*
X141942042Y-97955754D01*
X141947634Y-97948184D01*
X141987644Y-97834251D01*
X142029088Y-97776606D01*
X142095117Y-97750518D01*
X142106527Y-97750000D01*
X142233473Y-97750000D01*
X142301594Y-97770002D01*
X142348087Y-97823658D01*
X142352356Y-97834250D01*
X142392366Y-97948184D01*
X142397958Y-97955754D01*
X142397959Y-97955757D01*
X142445459Y-98020066D01*
X142472850Y-98057150D01*
X142482445Y-98064237D01*
X142574243Y-98132041D01*
X142574246Y-98132042D01*
X142581816Y-98137634D01*
X142709631Y-98182519D01*
X142717277Y-98183242D01*
X142717278Y-98183242D01*
X142723248Y-98183806D01*
X142741166Y-98185500D01*
X143248834Y-98185500D01*
X143266752Y-98183806D01*
X143272722Y-98183242D01*
X143272723Y-98183242D01*
X143280369Y-98182519D01*
X143408184Y-98137634D01*
X143415754Y-98132042D01*
X143415757Y-98132041D01*
X143509574Y-98062746D01*
X143509575Y-98062745D01*
X143517150Y-98057150D01*
X143550765Y-98011639D01*
X143607326Y-97968729D01*
X143652115Y-97960500D01*
X145317319Y-97960500D01*
X145329204Y-97961828D01*
X145329245Y-97961318D01*
X145338191Y-97962038D01*
X145346947Y-97964019D01*
X145399763Y-97960742D01*
X145407567Y-97960500D01*
X145423440Y-97960500D01*
X145433552Y-97959052D01*
X145443606Y-97958022D01*
X145471597Y-97956285D01*
X145490038Y-97955141D01*
X145498482Y-97952093D01*
X145502194Y-97951324D01*
X145516899Y-97947657D01*
X145520527Y-97946596D01*
X145529418Y-97945323D01*
X145571782Y-97926061D01*
X145581137Y-97922254D01*
X145616443Y-97909509D01*
X145616447Y-97909507D01*
X145624887Y-97906460D01*
X145632135Y-97901165D01*
X145635475Y-97899389D01*
X145648589Y-97891726D01*
X145651761Y-97889697D01*
X145659928Y-97885984D01*
X145666723Y-97880129D01*
X145666726Y-97880127D01*
X145695175Y-97855613D01*
X145703096Y-97849324D01*
X145709902Y-97844352D01*
X145713836Y-97841478D01*
X145724579Y-97830735D01*
X145731426Y-97824377D01*
X145734360Y-97821849D01*
X145768537Y-97792400D01*
X145773420Y-97784866D01*
X145779319Y-97778104D01*
X145779324Y-97778108D01*
X145788300Y-97767014D01*
X146057910Y-97497404D01*
X146120222Y-97463378D01*
X146147005Y-97460499D01*
X146556518Y-97460499D01*
X146561412Y-97459724D01*
X146640506Y-97447198D01*
X146640508Y-97447197D01*
X146650304Y-97445646D01*
X146763342Y-97388050D01*
X146853050Y-97298342D01*
X146910646Y-97185304D01*
X146925500Y-97091519D01*
X146925499Y-96728482D01*
X146922983Y-96712595D01*
X146912198Y-96644494D01*
X146912197Y-96644490D01*
X146910646Y-96634696D01*
X146853050Y-96521658D01*
X146763342Y-96431950D01*
X146650304Y-96374354D01*
X146640515Y-96372804D01*
X146640513Y-96372803D01*
X146610754Y-96368090D01*
X146556519Y-96359500D01*
X145937625Y-96359500D01*
X145318482Y-96359501D01*
X145313589Y-96360276D01*
X145313588Y-96360276D01*
X145234494Y-96372802D01*
X145234492Y-96372803D01*
X145224696Y-96374354D01*
X145215859Y-96378857D01*
X145215858Y-96378857D01*
X145213071Y-96380277D01*
X145209321Y-96380981D01*
X145206428Y-96381921D01*
X145206306Y-96381547D01*
X145143293Y-96393377D01*
X145077510Y-96366674D01*
X145036606Y-96308645D01*
X145033635Y-96239251D01*
X145035646Y-96235304D01*
X145050500Y-96141519D01*
X145050499Y-95778482D01*
X145035646Y-95684696D01*
X145035860Y-95684662D01*
X145034013Y-95619958D01*
X145070677Y-95559161D01*
X145134390Y-95527837D01*
X145204924Y-95535932D01*
X145213071Y-95539723D01*
X145224696Y-95545646D01*
X145234485Y-95547196D01*
X145234487Y-95547197D01*
X145261849Y-95551530D01*
X145318481Y-95560500D01*
X145937375Y-95560500D01*
X146556518Y-95560499D01*
X146564967Y-95559161D01*
X146640506Y-95547198D01*
X146640508Y-95547197D01*
X146650304Y-95545646D01*
X146692330Y-95524233D01*
X146749532Y-95510500D01*
X147146797Y-95510500D01*
X147214918Y-95530502D01*
X147249693Y-95563779D01*
X147259588Y-95577780D01*
X147263730Y-95581815D01*
X147276255Y-95594016D01*
X147404466Y-95718913D01*
X147572637Y-95831282D01*
X147577940Y-95833560D01*
X147577943Y-95833562D01*
X147753163Y-95908842D01*
X147758470Y-95911122D01*
X147955740Y-95955760D01*
X147961509Y-95955987D01*
X147961512Y-95955987D01*
X148037683Y-95958979D01*
X148157842Y-95963700D01*
X148249096Y-95950469D01*
X148352286Y-95935508D01*
X148352291Y-95935507D01*
X148358007Y-95934678D01*
X148363479Y-95932820D01*
X148363485Y-95932819D01*
X148470666Y-95896436D01*
X148541601Y-95893480D01*
X148600262Y-95926654D01*
X149001658Y-96328050D01*
X149010492Y-96332551D01*
X149010493Y-96332552D01*
X149021259Y-96338038D01*
X149038116Y-96348368D01*
X149055910Y-96361296D01*
X149076830Y-96368093D01*
X149095093Y-96375658D01*
X149105861Y-96381145D01*
X149105865Y-96381146D01*
X149114696Y-96385646D01*
X149124485Y-96387197D01*
X149124493Y-96387199D01*
X149136427Y-96389089D01*
X149155647Y-96393703D01*
X149167133Y-96397435D01*
X149167140Y-96397436D01*
X149176567Y-96400499D01*
X149208477Y-96400499D01*
X149208481Y-96400500D01*
X152397944Y-96400500D01*
X152407375Y-96397436D01*
X152407379Y-96397435D01*
X152418864Y-96393703D01*
X152438089Y-96389087D01*
X152450023Y-96387197D01*
X152450024Y-96387197D01*
X152459815Y-96385646D01*
X152468648Y-96381145D01*
X152468652Y-96381144D01*
X152479417Y-96375659D01*
X152497677Y-96368095D01*
X152518601Y-96361296D01*
X152536404Y-96348361D01*
X152553256Y-96338035D01*
X152564013Y-96332554D01*
X152572853Y-96328050D01*
X152595406Y-96305497D01*
X152595421Y-96305483D01*
X153275483Y-95625420D01*
X153298050Y-95602853D01*
X153302553Y-95594016D01*
X153308038Y-95583252D01*
X153318368Y-95566395D01*
X153325466Y-95556626D01*
X153325467Y-95556623D01*
X153331296Y-95548601D01*
X153338095Y-95527677D01*
X153345659Y-95509417D01*
X153351144Y-95498652D01*
X153351145Y-95498648D01*
X153355646Y-95489815D01*
X153357612Y-95477405D01*
X153359087Y-95468089D01*
X153363703Y-95448864D01*
X153367435Y-95437379D01*
X153367436Y-95437375D01*
X153370500Y-95427944D01*
X153370500Y-95376500D01*
X153390502Y-95308379D01*
X153444158Y-95261886D01*
X153496500Y-95250500D01*
X153794674Y-95250500D01*
X153867740Y-95235966D01*
X153882044Y-95226409D01*
X153940286Y-95187493D01*
X153950601Y-95180601D01*
X154005966Y-95097740D01*
X154007985Y-95087588D01*
X154051639Y-95033417D01*
X154119002Y-95010996D01*
X154187794Y-95028554D01*
X154236172Y-95080516D01*
X154249500Y-95136916D01*
X154249500Y-95636943D01*
X154229498Y-95705064D01*
X154212595Y-95726038D01*
X153226038Y-96712595D01*
X153163726Y-96746621D01*
X153136943Y-96749500D01*
X152956178Y-96749500D01*
X152864631Y-96760173D01*
X152833444Y-96763809D01*
X152833442Y-96763809D01*
X152826172Y-96764657D01*
X152819295Y-96767153D01*
X152819292Y-96767154D01*
X152705065Y-96808617D01*
X152661669Y-96824369D01*
X152515315Y-96920323D01*
X152394960Y-97047372D01*
X152307061Y-97198702D01*
X152256333Y-97366193D01*
X152245497Y-97540862D01*
X152246737Y-97548078D01*
X152246737Y-97548080D01*
X152273785Y-97705491D01*
X152275134Y-97713340D01*
X152306560Y-97787197D01*
X152336849Y-97858379D01*
X152343654Y-97874373D01*
X152447383Y-98015324D01*
X152452961Y-98020063D01*
X152452964Y-98020066D01*
X152575176Y-98123893D01*
X152575180Y-98123896D01*
X152580755Y-98128632D01*
X152612626Y-98144906D01*
X152724212Y-98201885D01*
X152736616Y-98208219D01*
X152743721Y-98209958D01*
X152743725Y-98209959D01*
X152823593Y-98229502D01*
X152906606Y-98249815D01*
X152912206Y-98250162D01*
X152912210Y-98250163D01*
X152915709Y-98250380D01*
X152915718Y-98250380D01*
X152917648Y-98250500D01*
X153433546Y-98250500D01*
X153452496Y-98251933D01*
X153466396Y-98254048D01*
X153466400Y-98254048D01*
X153473630Y-98255148D01*
X153480922Y-98254555D01*
X153480925Y-98254555D01*
X153525675Y-98250915D01*
X153535889Y-98250500D01*
X153543822Y-98250500D01*
X153553118Y-98249416D01*
X153571736Y-98247246D01*
X153576111Y-98246813D01*
X153606274Y-98244360D01*
X153648059Y-98240961D01*
X153655021Y-98238706D01*
X153660816Y-98237548D01*
X153666558Y-98236191D01*
X153673828Y-98235343D01*
X153741736Y-98210694D01*
X153745864Y-98209277D01*
X153807583Y-98189283D01*
X153807585Y-98189282D01*
X153814546Y-98187027D01*
X153820800Y-98183232D01*
X153826179Y-98180769D01*
X153831455Y-98178127D01*
X153838331Y-98175631D01*
X153898709Y-98136046D01*
X153902419Y-98133705D01*
X153959361Y-98099152D01*
X153959368Y-98099147D01*
X153964160Y-98096239D01*
X153972452Y-98088915D01*
X153972474Y-98088940D01*
X153975569Y-98086194D01*
X153978563Y-98083691D01*
X153984685Y-98079677D01*
X154037384Y-98024047D01*
X154039761Y-98021606D01*
X155331289Y-96730078D01*
X155376154Y-96701191D01*
X155447287Y-96674524D01*
X155455695Y-96671372D01*
X155564687Y-96589687D01*
X155646372Y-96480695D01*
X155694184Y-96353157D01*
X155695827Y-96338038D01*
X155700500Y-96295015D01*
X155700945Y-96295063D01*
X155707062Y-96265651D01*
X155708219Y-96263384D01*
X155709958Y-96256277D01*
X155712013Y-96250752D01*
X155713883Y-96245132D01*
X155716979Y-96238507D01*
X155719683Y-96225510D01*
X155731683Y-96167816D01*
X155732654Y-96163527D01*
X155739251Y-96136566D01*
X155749815Y-96093394D01*
X155750500Y-96082352D01*
X155750531Y-96082354D01*
X155750780Y-96078230D01*
X155751128Y-96074328D01*
X155752617Y-96067170D01*
X155750546Y-95990622D01*
X155750500Y-95987214D01*
X155750500Y-94456178D01*
X155735343Y-94326172D01*
X155727893Y-94305646D01*
X155708060Y-94251009D01*
X155701160Y-94211776D01*
X155700683Y-94211802D01*
X155700499Y-94208408D01*
X155700499Y-94204986D01*
X155694184Y-94146843D01*
X155646372Y-94019305D01*
X155564687Y-93910313D01*
X155455695Y-93828628D01*
X155328157Y-93780816D01*
X155320304Y-93779963D01*
X155320300Y-93779962D01*
X155273414Y-93774869D01*
X155273410Y-93774869D01*
X155270015Y-93774500D01*
X155212451Y-93774500D01*
X155175933Y-93769092D01*
X155133807Y-93756333D01*
X154959138Y-93745497D01*
X154951922Y-93746737D01*
X154951920Y-93746737D01*
X154800937Y-93772681D01*
X154779599Y-93774501D01*
X154729986Y-93774501D01*
X154671843Y-93780816D01*
X154544305Y-93828628D01*
X154435313Y-93910313D01*
X154429932Y-93917493D01*
X154406270Y-93949065D01*
X154349411Y-93991580D01*
X154305444Y-93999500D01*
X154146500Y-93999500D01*
X154078379Y-93979498D01*
X154031886Y-93925842D01*
X154020500Y-93873500D01*
X154020500Y-92911567D01*
X154017436Y-92902136D01*
X154017435Y-92902132D01*
X154013703Y-92890647D01*
X154009087Y-92871422D01*
X154007197Y-92859488D01*
X154007197Y-92859487D01*
X154005646Y-92849696D01*
X154001145Y-92840863D01*
X154001144Y-92840859D01*
X153995658Y-92830092D01*
X153988092Y-92811828D01*
X153984360Y-92800342D01*
X153981296Y-92790911D01*
X153973148Y-92779696D01*
X153968365Y-92773113D01*
X153958037Y-92756258D01*
X153952555Y-92745499D01*
X153952554Y-92745497D01*
X153948050Y-92736658D01*
X153925487Y-92714095D01*
X153925484Y-92714091D01*
X153407405Y-92196012D01*
X153373379Y-92133700D01*
X153370500Y-92106917D01*
X153370500Y-91376500D01*
X153390502Y-91308379D01*
X153444158Y-91261886D01*
X153496500Y-91250500D01*
X153794674Y-91250500D01*
X153867740Y-91235966D01*
X153903730Y-91211919D01*
X153914324Y-91204840D01*
X153950601Y-91180601D01*
X153981388Y-91134524D01*
X153999072Y-91108058D01*
X153999072Y-91108057D01*
X154005966Y-91097740D01*
X154020500Y-91024674D01*
X154020500Y-89295367D01*
X154040502Y-89227246D01*
X154094158Y-89180753D01*
X154102268Y-89177386D01*
X154108007Y-89175235D01*
X154108013Y-89175232D01*
X154116412Y-89172083D01*
X154136682Y-89156892D01*
X154170935Y-89131221D01*
X154223972Y-89091472D01*
X154251681Y-89054500D01*
X154299200Y-88991095D01*
X154299201Y-88991093D01*
X154304583Y-88983912D01*
X154351766Y-88858051D01*
X154355177Y-88826652D01*
X154368222Y-88782962D01*
X154378219Y-88763384D01*
X154419815Y-88593394D01*
X154420500Y-88582352D01*
X154420500Y-87404595D01*
X154440502Y-87336474D01*
X154494158Y-87289981D01*
X154564432Y-87279877D01*
X154629012Y-87309371D01*
X154647326Y-87329030D01*
X154655313Y-87339687D01*
X154764305Y-87421372D01*
X154891843Y-87469184D01*
X154899696Y-87470037D01*
X154899700Y-87470038D01*
X154946586Y-87475131D01*
X154946590Y-87475131D01*
X154949985Y-87475500D01*
X155012047Y-87475500D01*
X155041995Y-87479111D01*
X155126606Y-87499815D01*
X155132206Y-87500162D01*
X155132210Y-87500163D01*
X155135709Y-87500380D01*
X155135718Y-87500380D01*
X155137648Y-87500500D01*
X157778577Y-87500500D01*
X157848578Y-87521734D01*
X157922260Y-87570966D01*
X157995326Y-87585500D01*
X161374000Y-87585500D01*
X161442121Y-87605502D01*
X161488614Y-87659158D01*
X161500000Y-87711500D01*
X161500000Y-99124000D01*
X161479998Y-99192121D01*
X161426342Y-99238614D01*
X161374000Y-99250000D01*
X110376000Y-99250000D01*
X110307879Y-99229998D01*
X110261386Y-99176342D01*
X110250000Y-99124000D01*
X110250000Y-92291069D01*
X111435164Y-92291069D01*
X111448392Y-92492894D01*
X111468555Y-92572286D01*
X111495490Y-92678342D01*
X111498178Y-92688928D01*
X111582856Y-92872607D01*
X111602618Y-92900570D01*
X111681239Y-93011816D01*
X111699588Y-93037780D01*
X111703730Y-93041815D01*
X111724863Y-93062402D01*
X111844466Y-93178913D01*
X112012637Y-93291282D01*
X112017940Y-93293560D01*
X112017943Y-93293562D01*
X112150052Y-93350320D01*
X112198470Y-93371122D01*
X112395740Y-93415760D01*
X112401509Y-93415987D01*
X112401512Y-93415987D01*
X112477683Y-93418979D01*
X112597842Y-93423700D01*
X112684132Y-93411189D01*
X112792286Y-93395508D01*
X112792291Y-93395507D01*
X112798007Y-93394678D01*
X112803479Y-93392820D01*
X112803481Y-93392820D01*
X112984067Y-93331519D01*
X112984069Y-93331518D01*
X112989531Y-93329664D01*
X113166001Y-93230837D01*
X113228433Y-93178913D01*
X113317073Y-93105191D01*
X113321505Y-93101505D01*
X113450837Y-92946001D01*
X113464567Y-92921485D01*
X113502316Y-92854077D01*
X113549664Y-92769531D01*
X113568484Y-92714091D01*
X113612820Y-92583481D01*
X113612820Y-92583479D01*
X113614678Y-92578007D01*
X113615507Y-92572291D01*
X113615508Y-92572286D01*
X113639806Y-92404698D01*
X113643700Y-92377842D01*
X113645215Y-92320000D01*
X113626708Y-92118591D01*
X113622776Y-92104647D01*
X113593121Y-91999500D01*
X113571807Y-91923926D01*
X113482351Y-91742527D01*
X113466768Y-91721658D01*
X113364788Y-91585091D01*
X113364787Y-91585090D01*
X113361335Y-91580467D01*
X113357099Y-91576551D01*
X113217053Y-91447094D01*
X113217051Y-91447092D01*
X113212812Y-91443174D01*
X113185374Y-91425862D01*
X113046637Y-91338325D01*
X113041757Y-91335246D01*
X112853898Y-91260298D01*
X112655526Y-91220839D01*
X112649752Y-91220763D01*
X112649748Y-91220763D01*
X112547257Y-91219422D01*
X112453286Y-91218192D01*
X112447589Y-91219171D01*
X112447588Y-91219171D01*
X112259646Y-91251465D01*
X112259645Y-91251465D01*
X112253949Y-91252444D01*
X112064193Y-91322449D01*
X112059232Y-91325401D01*
X112059231Y-91325401D01*
X111901596Y-91419184D01*
X111890371Y-91425862D01*
X111738305Y-91559220D01*
X111613089Y-91718057D01*
X111518914Y-91897053D01*
X111458937Y-92090213D01*
X111435164Y-92291069D01*
X110250000Y-92291069D01*
X110250000Y-84449335D01*
X112099500Y-84449335D01*
X112099501Y-85050664D01*
X112105734Y-85108051D01*
X112152917Y-85233912D01*
X112158299Y-85241093D01*
X112158300Y-85241095D01*
X112171422Y-85258604D01*
X112233528Y-85341472D01*
X112240704Y-85346850D01*
X112330159Y-85413892D01*
X112341088Y-85422083D01*
X112349496Y-85425235D01*
X112459554Y-85466494D01*
X112459556Y-85466494D01*
X112466949Y-85469266D01*
X112474797Y-85470119D01*
X112474799Y-85470119D01*
X112520920Y-85475129D01*
X112524335Y-85475500D01*
X112787384Y-85475500D01*
X113050664Y-85475499D01*
X113108051Y-85469266D01*
X113158745Y-85450262D01*
X113225504Y-85425235D01*
X113233912Y-85422083D01*
X113244842Y-85413892D01*
X113334296Y-85346850D01*
X113341472Y-85341472D01*
X113346850Y-85334296D01*
X113346853Y-85334293D01*
X113371852Y-85300936D01*
X113428711Y-85258420D01*
X113472679Y-85250500D01*
X113517885Y-85250500D01*
X113586006Y-85270502D01*
X113619235Y-85301639D01*
X113652850Y-85347150D01*
X113660425Y-85352745D01*
X113660426Y-85352746D01*
X113754243Y-85422041D01*
X113754246Y-85422042D01*
X113761816Y-85427634D01*
X113889631Y-85472519D01*
X113897277Y-85473242D01*
X113897278Y-85473242D01*
X113903248Y-85473806D01*
X113921166Y-85475500D01*
X114428834Y-85475500D01*
X114446752Y-85473806D01*
X114452722Y-85473242D01*
X114452723Y-85473242D01*
X114460369Y-85472519D01*
X114588184Y-85427634D01*
X114595754Y-85422042D01*
X114595757Y-85422041D01*
X114689579Y-85352742D01*
X114697150Y-85347150D01*
X114709665Y-85330206D01*
X114772041Y-85245757D01*
X114772042Y-85245754D01*
X114777634Y-85238184D01*
X114822519Y-85110369D01*
X114825500Y-85078834D01*
X114825500Y-84421166D01*
X114822519Y-84389631D01*
X114777634Y-84261816D01*
X114772042Y-84254246D01*
X114772041Y-84254243D01*
X114702742Y-84160421D01*
X114697150Y-84152850D01*
X114651478Y-84119116D01*
X114595757Y-84077959D01*
X114595754Y-84077958D01*
X114588184Y-84072366D01*
X114460369Y-84027481D01*
X114452723Y-84026758D01*
X114452722Y-84026758D01*
X114446752Y-84026194D01*
X114428834Y-84024500D01*
X113921166Y-84024500D01*
X113903248Y-84026194D01*
X113897278Y-84026758D01*
X113897277Y-84026758D01*
X113889631Y-84027481D01*
X113761816Y-84072366D01*
X113754246Y-84077958D01*
X113754243Y-84077959D01*
X113660426Y-84147254D01*
X113652850Y-84152850D01*
X113647255Y-84160425D01*
X113619236Y-84198360D01*
X113562674Y-84241271D01*
X113517885Y-84249500D01*
X113472679Y-84249500D01*
X113404558Y-84229498D01*
X113371852Y-84199064D01*
X113346853Y-84165707D01*
X113346850Y-84165704D01*
X113341472Y-84158528D01*
X113282672Y-84114460D01*
X113241095Y-84083300D01*
X113241093Y-84083299D01*
X113233912Y-84077917D01*
X113154322Y-84048080D01*
X113115446Y-84033506D01*
X113115444Y-84033506D01*
X113108051Y-84030734D01*
X113100203Y-84029881D01*
X113100201Y-84029881D01*
X113054062Y-84024869D01*
X113050665Y-84024500D01*
X112787616Y-84024500D01*
X112524336Y-84024501D01*
X112466949Y-84030734D01*
X112459550Y-84033508D01*
X112459549Y-84033508D01*
X112420678Y-84048080D01*
X112341088Y-84077917D01*
X112333907Y-84083299D01*
X112333905Y-84083300D01*
X112292328Y-84114460D01*
X112233528Y-84158528D01*
X112228150Y-84165704D01*
X112175960Y-84235342D01*
X112152917Y-84266088D01*
X112149765Y-84274496D01*
X112108820Y-84383718D01*
X112105734Y-84391949D01*
X112104881Y-84399797D01*
X112104881Y-84399799D01*
X112099869Y-84445938D01*
X112099500Y-84449335D01*
X110250000Y-84449335D01*
X110250000Y-82699335D01*
X112099500Y-82699335D01*
X112099501Y-83300664D01*
X112105734Y-83358051D01*
X112108508Y-83365450D01*
X112108508Y-83365451D01*
X112127834Y-83417002D01*
X112152917Y-83483912D01*
X112158299Y-83491093D01*
X112158300Y-83491095D01*
X112180339Y-83520502D01*
X112233528Y-83591472D01*
X112240704Y-83596850D01*
X112328311Y-83662507D01*
X112341088Y-83672083D01*
X112349496Y-83675235D01*
X112459554Y-83716494D01*
X112459556Y-83716494D01*
X112466949Y-83719266D01*
X112474797Y-83720119D01*
X112474799Y-83720119D01*
X112520920Y-83725129D01*
X112524335Y-83725500D01*
X112787384Y-83725500D01*
X113050664Y-83725499D01*
X113108051Y-83719266D01*
X113152911Y-83702449D01*
X113225504Y-83675235D01*
X113233912Y-83672083D01*
X113246690Y-83662507D01*
X113334296Y-83596850D01*
X113341472Y-83591472D01*
X113346850Y-83584296D01*
X113346853Y-83584293D01*
X113371852Y-83550936D01*
X113428711Y-83508420D01*
X113472679Y-83500500D01*
X113517885Y-83500500D01*
X113586006Y-83520502D01*
X113619235Y-83551639D01*
X113652850Y-83597150D01*
X113660425Y-83602745D01*
X113660426Y-83602746D01*
X113754243Y-83672041D01*
X113754246Y-83672042D01*
X113761816Y-83677634D01*
X113889631Y-83722519D01*
X113897277Y-83723242D01*
X113897278Y-83723242D01*
X113903248Y-83723806D01*
X113921166Y-83725500D01*
X114428834Y-83725500D01*
X114446752Y-83723806D01*
X114452722Y-83723242D01*
X114452723Y-83723242D01*
X114460369Y-83722519D01*
X114588184Y-83677634D01*
X114595754Y-83672042D01*
X114595757Y-83672041D01*
X114689579Y-83602742D01*
X114697150Y-83597150D01*
X114709798Y-83580026D01*
X114772041Y-83495757D01*
X114772042Y-83495754D01*
X114777634Y-83488184D01*
X114822519Y-83360369D01*
X114825500Y-83328834D01*
X114825500Y-82671166D01*
X114822519Y-82639631D01*
X114777634Y-82511816D01*
X114772042Y-82504246D01*
X114772041Y-82504243D01*
X114702742Y-82410421D01*
X114697150Y-82402850D01*
X114639886Y-82360554D01*
X114595757Y-82327959D01*
X114595754Y-82327958D01*
X114588184Y-82322366D01*
X114460369Y-82277481D01*
X114452723Y-82276758D01*
X114452722Y-82276758D01*
X114446752Y-82276194D01*
X114428834Y-82274500D01*
X113921166Y-82274500D01*
X113903248Y-82276194D01*
X113897278Y-82276758D01*
X113897277Y-82276758D01*
X113889631Y-82277481D01*
X113761816Y-82322366D01*
X113754246Y-82327958D01*
X113754243Y-82327959D01*
X113710111Y-82360556D01*
X113652850Y-82402850D01*
X113647255Y-82410425D01*
X113619236Y-82448360D01*
X113562674Y-82491271D01*
X113517885Y-82499500D01*
X113472679Y-82499500D01*
X113404558Y-82479498D01*
X113371852Y-82449064D01*
X113346853Y-82415707D01*
X113346850Y-82415704D01*
X113341472Y-82408528D01*
X113257109Y-82345302D01*
X113241095Y-82333300D01*
X113241093Y-82333299D01*
X113233912Y-82327917D01*
X113146143Y-82295014D01*
X113115446Y-82283506D01*
X113115444Y-82283506D01*
X113108051Y-82280734D01*
X113100203Y-82279881D01*
X113100201Y-82279881D01*
X113054062Y-82274869D01*
X113050665Y-82274500D01*
X112787616Y-82274500D01*
X112524336Y-82274501D01*
X112466949Y-82280734D01*
X112341088Y-82327917D01*
X112333907Y-82333299D01*
X112333905Y-82333300D01*
X112317891Y-82345302D01*
X112233528Y-82408528D01*
X112152917Y-82516088D01*
X112149765Y-82524496D01*
X112109320Y-82632384D01*
X112105734Y-82641949D01*
X112104881Y-82649797D01*
X112104881Y-82649799D01*
X112101680Y-82679265D01*
X112099500Y-82699335D01*
X110250000Y-82699335D01*
X110250000Y-77724674D01*
X113224500Y-77724674D01*
X113239034Y-77797740D01*
X113294399Y-77880601D01*
X113377260Y-77935966D01*
X113450326Y-77950500D01*
X114849674Y-77950500D01*
X114922740Y-77935966D01*
X114944040Y-77921734D01*
X115014041Y-77900500D01*
X115525239Y-77900500D01*
X115593360Y-77920502D01*
X115639853Y-77974158D01*
X115650503Y-78040103D01*
X115649500Y-78049335D01*
X115649501Y-78575664D01*
X115655734Y-78633051D01*
X115702917Y-78758912D01*
X115708297Y-78766091D01*
X115708299Y-78766094D01*
X115724326Y-78787478D01*
X115749174Y-78853984D01*
X115749500Y-78863043D01*
X115749500Y-79222435D01*
X115749258Y-79230237D01*
X115745497Y-79290862D01*
X115746737Y-79298078D01*
X115746737Y-79298079D01*
X115747680Y-79303565D01*
X115749500Y-79324904D01*
X115749500Y-80293822D01*
X115758484Y-80370879D01*
X115761562Y-80397278D01*
X115764657Y-80423828D01*
X115767155Y-80430709D01*
X115768839Y-80437833D01*
X115768319Y-80437956D01*
X115774501Y-80473107D01*
X115774501Y-80495014D01*
X115780816Y-80553157D01*
X115828628Y-80680695D01*
X115910313Y-80789687D01*
X116019305Y-80871372D01*
X116027713Y-80874524D01*
X116139445Y-80916411D01*
X116139448Y-80916412D01*
X116146843Y-80919184D01*
X116148962Y-80919414D01*
X116178507Y-80931210D01*
X116192369Y-80939261D01*
X116192372Y-80939262D01*
X116198702Y-80942939D01*
X116366193Y-80993667D01*
X116373502Y-80994120D01*
X116373505Y-80994121D01*
X116445035Y-80998558D01*
X116455560Y-80999701D01*
X116456193Y-80999750D01*
X116461009Y-81000500D01*
X116472435Y-81000500D01*
X116480237Y-81000742D01*
X116540862Y-81004503D01*
X116548078Y-81003263D01*
X116548079Y-81003263D01*
X116549947Y-81002942D01*
X116553568Y-81002320D01*
X116574904Y-81000500D01*
X116990496Y-81000500D01*
X117058617Y-81020502D01*
X117079591Y-81037405D01*
X119096466Y-83054280D01*
X119103932Y-83063624D01*
X119104322Y-83063292D01*
X119110140Y-83070128D01*
X119114930Y-83077720D01*
X119121658Y-83083662D01*
X119121659Y-83083663D01*
X119154600Y-83112755D01*
X119160288Y-83118102D01*
X119171507Y-83129321D01*
X119175095Y-83132010D01*
X119175096Y-83132011D01*
X119179684Y-83135450D01*
X119187523Y-83141832D01*
X119202094Y-83154700D01*
X119222388Y-83172623D01*
X119230506Y-83176434D01*
X119233659Y-83178506D01*
X119246680Y-83186329D01*
X119249989Y-83188141D01*
X119257176Y-83193527D01*
X119265581Y-83196678D01*
X119265583Y-83196679D01*
X119300737Y-83209857D01*
X119310057Y-83213784D01*
X119352163Y-83233553D01*
X119361035Y-83234934D01*
X119364658Y-83236042D01*
X119379317Y-83239888D01*
X119383014Y-83240701D01*
X119391420Y-83243852D01*
X119437843Y-83247302D01*
X119447856Y-83248452D01*
X119461009Y-83250500D01*
X119476204Y-83250500D01*
X119485542Y-83250846D01*
X119534392Y-83254476D01*
X119543168Y-83252603D01*
X119552125Y-83251992D01*
X119552125Y-83251998D01*
X119566318Y-83250500D01*
X127179819Y-83250500D01*
X127191704Y-83251828D01*
X127191745Y-83251318D01*
X127200691Y-83252038D01*
X127209447Y-83254019D01*
X127259185Y-83250933D01*
X127262264Y-83250742D01*
X127270067Y-83250500D01*
X127285940Y-83250500D01*
X127296052Y-83249052D01*
X127306106Y-83248022D01*
X127334097Y-83246285D01*
X127352538Y-83245141D01*
X127360982Y-83242093D01*
X127364694Y-83241324D01*
X127379399Y-83237657D01*
X127383027Y-83236596D01*
X127391918Y-83235323D01*
X127434282Y-83216061D01*
X127443637Y-83212254D01*
X127478943Y-83199509D01*
X127478947Y-83199507D01*
X127487387Y-83196460D01*
X127494635Y-83191165D01*
X127497975Y-83189389D01*
X127511089Y-83181726D01*
X127514261Y-83179697D01*
X127522428Y-83175984D01*
X127529223Y-83170129D01*
X127529226Y-83170127D01*
X127557675Y-83145613D01*
X127565596Y-83139324D01*
X127572402Y-83134352D01*
X127576336Y-83131478D01*
X127587079Y-83120735D01*
X127593926Y-83114377D01*
X127624237Y-83088259D01*
X127631037Y-83082400D01*
X127635920Y-83074866D01*
X127641819Y-83068104D01*
X127641824Y-83068108D01*
X127650800Y-83057014D01*
X128554280Y-82153534D01*
X128563624Y-82146068D01*
X128563292Y-82145678D01*
X128570128Y-82139860D01*
X128577720Y-82135070D01*
X128612756Y-82095399D01*
X128618102Y-82089712D01*
X128629321Y-82078493D01*
X128635450Y-82070316D01*
X128641832Y-82062477D01*
X128666684Y-82034337D01*
X128666685Y-82034336D01*
X128672623Y-82027612D01*
X128676434Y-82019494D01*
X128678506Y-82016341D01*
X128686329Y-82003320D01*
X128688141Y-82000011D01*
X128693527Y-81992824D01*
X128709857Y-81949263D01*
X128713784Y-81939943D01*
X128729737Y-81905964D01*
X128733553Y-81897837D01*
X128734934Y-81888965D01*
X128736042Y-81885342D01*
X128739888Y-81870683D01*
X128740701Y-81866986D01*
X128743852Y-81858580D01*
X128747302Y-81812157D01*
X128748453Y-81802139D01*
X128748547Y-81801534D01*
X128750500Y-81788991D01*
X128750500Y-81773796D01*
X128750846Y-81764459D01*
X128751741Y-81752420D01*
X128754476Y-81715608D01*
X128752603Y-81706832D01*
X128751992Y-81697875D01*
X128751998Y-81697875D01*
X128750500Y-81683682D01*
X128750500Y-78582681D01*
X128751828Y-78570796D01*
X128751318Y-78570755D01*
X128752038Y-78561809D01*
X128754019Y-78553053D01*
X128750742Y-78500236D01*
X128750500Y-78492433D01*
X128750500Y-78476560D01*
X128749052Y-78466448D01*
X128748022Y-78456394D01*
X128745697Y-78418920D01*
X128745697Y-78418918D01*
X128745141Y-78409962D01*
X128742093Y-78401519D01*
X128741329Y-78397829D01*
X128737651Y-78383078D01*
X128736596Y-78379468D01*
X128735323Y-78370582D01*
X128731610Y-78362415D01*
X128731608Y-78362409D01*
X128716071Y-78328237D01*
X128712258Y-78318871D01*
X128699508Y-78283553D01*
X128699508Y-78283552D01*
X128696461Y-78275113D01*
X128691166Y-78267865D01*
X128689388Y-78264522D01*
X128681756Y-78251461D01*
X128679701Y-78248248D01*
X128675984Y-78240072D01*
X128645619Y-78204832D01*
X128639328Y-78196910D01*
X128634355Y-78190102D01*
X128634353Y-78190100D01*
X128631478Y-78186164D01*
X128620735Y-78175421D01*
X128614377Y-78168574D01*
X128598803Y-78150500D01*
X128582400Y-78131463D01*
X128574866Y-78126580D01*
X128568104Y-78120681D01*
X128568108Y-78120676D01*
X128557014Y-78111700D01*
X128009946Y-77564632D01*
X127975920Y-77502320D01*
X127973778Y-77489142D01*
X127970037Y-77454698D01*
X127969184Y-77446843D01*
X127921372Y-77319305D01*
X127839687Y-77210313D01*
X127730695Y-77128628D01*
X127603157Y-77080816D01*
X127595304Y-77079963D01*
X127595300Y-77079962D01*
X127548414Y-77074869D01*
X127548410Y-77074869D01*
X127545015Y-77074500D01*
X127250044Y-77074500D01*
X126954986Y-77074501D01*
X126896843Y-77080816D01*
X126769305Y-77128628D01*
X126660313Y-77210313D01*
X126654932Y-77217493D01*
X126584010Y-77312123D01*
X126584008Y-77312126D01*
X126578628Y-77319305D01*
X126575479Y-77327706D01*
X126575477Y-77327709D01*
X126572657Y-77335232D01*
X126530015Y-77391996D01*
X126463452Y-77416694D01*
X126454676Y-77417000D01*
X126389041Y-77417000D01*
X126319040Y-77395766D01*
X126308058Y-77388428D01*
X126297740Y-77381534D01*
X126224674Y-77367000D01*
X124975326Y-77367000D01*
X124902260Y-77381534D01*
X124819399Y-77436899D01*
X124812507Y-77447214D01*
X124773906Y-77504986D01*
X124764034Y-77519760D01*
X124749500Y-77592826D01*
X124749500Y-78042174D01*
X124754042Y-78065007D01*
X124763075Y-78110418D01*
X124763075Y-78159581D01*
X124749500Y-78227826D01*
X124749500Y-78234012D01*
X124749319Y-78235850D01*
X124722737Y-78301682D01*
X124664782Y-78342692D01*
X124623926Y-78349500D01*
X124319605Y-78349500D01*
X124251484Y-78329498D01*
X124230510Y-78312595D01*
X121524931Y-75607016D01*
X121524927Y-75607013D01*
X121502364Y-75584450D01*
X121482768Y-75574465D01*
X121465915Y-75564139D01*
X121448112Y-75551204D01*
X121427188Y-75544405D01*
X121408928Y-75536841D01*
X121398163Y-75531356D01*
X121398159Y-75531355D01*
X121389326Y-75526854D01*
X121379535Y-75525303D01*
X121379534Y-75525303D01*
X121367600Y-75523413D01*
X121348372Y-75518796D01*
X121337561Y-75515283D01*
X121278956Y-75475208D01*
X121251321Y-75409811D01*
X121250500Y-75395451D01*
X121250500Y-75052826D01*
X121236925Y-74984581D01*
X121236925Y-74935418D01*
X121249293Y-74873241D01*
X121250500Y-74867174D01*
X121250500Y-74742156D01*
X123594758Y-74742156D01*
X123612035Y-74898651D01*
X123666143Y-75046508D01*
X123670380Y-75052814D01*
X123670382Y-75052817D01*
X123674546Y-75059013D01*
X123753958Y-75177190D01*
X123870410Y-75283153D01*
X123930369Y-75315708D01*
X124002099Y-75354655D01*
X124002101Y-75354656D01*
X124008776Y-75358280D01*
X124016125Y-75360208D01*
X124153719Y-75396305D01*
X124153721Y-75396305D01*
X124161069Y-75398233D01*
X124244380Y-75399542D01*
X124310898Y-75400587D01*
X124310901Y-75400587D01*
X124318495Y-75400706D01*
X124471968Y-75365556D01*
X124566887Y-75317817D01*
X124636730Y-75305079D01*
X124702374Y-75332123D01*
X124742976Y-75390363D01*
X124749500Y-75430382D01*
X124749500Y-75502174D01*
X124761825Y-75564134D01*
X124763075Y-75570418D01*
X124763075Y-75619581D01*
X124749500Y-75687826D01*
X124749500Y-76137174D01*
X124750707Y-76143241D01*
X124763075Y-76205418D01*
X124763075Y-76254581D01*
X124749500Y-76322826D01*
X124749500Y-76772174D01*
X124764034Y-76845240D01*
X124819399Y-76928101D01*
X124902260Y-76983466D01*
X124975326Y-76998000D01*
X126224674Y-76998000D01*
X126297740Y-76983466D01*
X126380601Y-76928101D01*
X126435966Y-76845240D01*
X126450500Y-76772174D01*
X126450500Y-76322826D01*
X126436925Y-76254581D01*
X126436925Y-76205418D01*
X126449293Y-76143241D01*
X126450500Y-76137174D01*
X126450500Y-75687826D01*
X126436925Y-75619581D01*
X126436925Y-75570418D01*
X126438175Y-75564134D01*
X126450500Y-75502174D01*
X126450500Y-75052826D01*
X126436925Y-74984581D01*
X126436925Y-74935418D01*
X126449293Y-74873241D01*
X126450500Y-74867174D01*
X126450500Y-74417826D01*
X126435966Y-74344760D01*
X126380601Y-74261899D01*
X126297740Y-74206534D01*
X126224674Y-74192000D01*
X124975326Y-74192000D01*
X124902260Y-74206534D01*
X124891942Y-74213428D01*
X124880960Y-74220766D01*
X124810959Y-74242000D01*
X124706556Y-74242000D01*
X124634646Y-74219465D01*
X124629651Y-74215994D01*
X124623976Y-74210937D01*
X124484831Y-74137263D01*
X124468122Y-74133066D01*
X124339498Y-74100758D01*
X124339496Y-74100758D01*
X124332128Y-74098907D01*
X124324530Y-74098867D01*
X124324528Y-74098867D01*
X124257319Y-74098515D01*
X124174684Y-74098083D01*
X124167305Y-74099855D01*
X124167301Y-74099855D01*
X124028967Y-74133066D01*
X124028963Y-74133067D01*
X124021588Y-74134838D01*
X123881679Y-74207050D01*
X123875957Y-74212042D01*
X123875955Y-74212043D01*
X123768759Y-74305556D01*
X123768756Y-74305559D01*
X123763034Y-74310551D01*
X123724269Y-74365707D01*
X123687640Y-74417826D01*
X123672501Y-74439366D01*
X123615309Y-74586057D01*
X123594758Y-74742156D01*
X121250500Y-74742156D01*
X121250500Y-74417826D01*
X121235966Y-74344760D01*
X121180601Y-74261899D01*
X121097740Y-74206534D01*
X121024674Y-74192000D01*
X119775326Y-74192000D01*
X119702260Y-74206534D01*
X119619399Y-74261899D01*
X119564034Y-74344760D01*
X119549500Y-74417826D01*
X119549500Y-74867174D01*
X119550707Y-74873241D01*
X119563075Y-74935418D01*
X119563075Y-74984581D01*
X119549500Y-75052826D01*
X119549500Y-75502174D01*
X119561825Y-75564134D01*
X119563075Y-75570418D01*
X119563075Y-75619581D01*
X119549500Y-75687826D01*
X119549500Y-76021000D01*
X119529498Y-76089121D01*
X119475842Y-76135614D01*
X119423500Y-76147000D01*
X119278445Y-76147000D01*
X119236784Y-76139279D01*
X119234831Y-76138245D01*
X119158480Y-76119067D01*
X119089498Y-76101740D01*
X119089496Y-76101740D01*
X119082128Y-76099889D01*
X119074530Y-76099849D01*
X119074528Y-76099849D01*
X119007319Y-76099497D01*
X118924684Y-76099065D01*
X118917305Y-76100837D01*
X118917301Y-76100837D01*
X118778967Y-76134048D01*
X118778963Y-76134049D01*
X118771588Y-76135820D01*
X118631679Y-76208032D01*
X118625957Y-76213024D01*
X118625955Y-76213025D01*
X118518759Y-76306538D01*
X118518756Y-76306541D01*
X118513034Y-76311533D01*
X118422501Y-76440348D01*
X118365309Y-76587039D01*
X118359454Y-76631513D01*
X118350248Y-76701440D01*
X118344758Y-76743138D01*
X118346191Y-76756114D01*
X118333786Y-76826016D01*
X118285558Y-76878117D01*
X118216818Y-76895873D01*
X118149390Y-76873647D01*
X118131857Y-76859036D01*
X117967337Y-76694516D01*
X117967333Y-76694513D01*
X117944770Y-76671950D01*
X117925174Y-76661965D01*
X117908321Y-76651639D01*
X117890518Y-76638704D01*
X117869594Y-76631905D01*
X117851334Y-76624341D01*
X117840569Y-76618856D01*
X117840565Y-76618855D01*
X117831732Y-76614354D01*
X117821941Y-76612803D01*
X117821940Y-76612803D01*
X117810006Y-76610913D01*
X117790781Y-76606297D01*
X117779296Y-76602565D01*
X117779292Y-76602564D01*
X117769861Y-76599500D01*
X117474761Y-76599500D01*
X117406640Y-76579498D01*
X117360147Y-76525842D01*
X117349497Y-76459897D01*
X117350500Y-76450665D01*
X117350499Y-75924336D01*
X117344266Y-75866949D01*
X117297083Y-75741088D01*
X117289329Y-75730741D01*
X117221850Y-75640704D01*
X117216472Y-75633528D01*
X117191430Y-75614760D01*
X117116095Y-75558300D01*
X117116093Y-75558299D01*
X117108912Y-75552917D01*
X117039389Y-75526854D01*
X116990446Y-75508506D01*
X116990444Y-75508506D01*
X116983051Y-75505734D01*
X116975203Y-75504881D01*
X116975201Y-75504881D01*
X116929062Y-75499869D01*
X116925665Y-75499500D01*
X116500125Y-75499500D01*
X116074336Y-75499501D01*
X116016949Y-75505734D01*
X116009550Y-75508508D01*
X116009549Y-75508508D01*
X115960611Y-75526854D01*
X115891088Y-75552917D01*
X115883907Y-75558299D01*
X115883905Y-75558300D01*
X115808570Y-75614760D01*
X115783528Y-75633528D01*
X115702917Y-75741088D01*
X115701906Y-75740330D01*
X115657988Y-75784153D01*
X115597723Y-75799500D01*
X115014041Y-75799500D01*
X114944040Y-75778266D01*
X114933058Y-75770928D01*
X114922740Y-75764034D01*
X114849674Y-75749500D01*
X113450326Y-75749500D01*
X113377260Y-75764034D01*
X113294399Y-75819399D01*
X113239034Y-75902260D01*
X113224500Y-75975326D01*
X113224500Y-76424674D01*
X113232595Y-76465371D01*
X113239034Y-76497740D01*
X113235307Y-76498481D01*
X113240560Y-76547382D01*
X113239201Y-76552010D01*
X113239034Y-76552260D01*
X113224500Y-76625326D01*
X113224500Y-77074674D01*
X113226274Y-77083590D01*
X113239034Y-77147740D01*
X113235307Y-77148481D01*
X113240560Y-77197382D01*
X113239201Y-77202010D01*
X113239034Y-77202260D01*
X113224500Y-77275326D01*
X113224500Y-77724674D01*
X110250000Y-77724674D01*
X110250000Y-72376000D01*
X110270002Y-72307879D01*
X110323658Y-72261386D01*
X110376000Y-72250000D01*
X142718500Y-72250000D01*
X142786621Y-72270002D01*
G37*
%TD.AperFunction*%
%TA.AperFunction,Conductor*%
G36*
X126657975Y-79786567D02*
G01*
X126660313Y-79789687D01*
X126769305Y-79871372D01*
X126896843Y-79919184D01*
X126904696Y-79920037D01*
X126904700Y-79920038D01*
X126951586Y-79925131D01*
X126951590Y-79925131D01*
X126954985Y-79925500D01*
X127249956Y-79925500D01*
X127545014Y-79925499D01*
X127603157Y-79919184D01*
X127603325Y-79920730D01*
X127665255Y-79923965D01*
X127722898Y-79965411D01*
X127748983Y-80031442D01*
X127749500Y-80042845D01*
X127749500Y-81490496D01*
X127729498Y-81558617D01*
X127712595Y-81579591D01*
X127079591Y-82212595D01*
X127017279Y-82246621D01*
X126990496Y-82249500D01*
X119759504Y-82249500D01*
X119691383Y-82229498D01*
X119670409Y-82212595D01*
X119479940Y-82022126D01*
X119445914Y-81959814D01*
X119450979Y-81888999D01*
X119493526Y-81832163D01*
X119560046Y-81807352D01*
X119569035Y-81807031D01*
X123156902Y-81807031D01*
X123166333Y-81803967D01*
X123166337Y-81803966D01*
X123177822Y-81800234D01*
X123197047Y-81795618D01*
X123208981Y-81793728D01*
X123208982Y-81793728D01*
X123218773Y-81792177D01*
X123227606Y-81787676D01*
X123227610Y-81787675D01*
X123238375Y-81782190D01*
X123256635Y-81774626D01*
X123277559Y-81767827D01*
X123295362Y-81754892D01*
X123312214Y-81744566D01*
X123322971Y-81739085D01*
X123331811Y-81734581D01*
X123354374Y-81712018D01*
X123354378Y-81712015D01*
X124271488Y-80794905D01*
X124333800Y-80760879D01*
X124360583Y-80758000D01*
X124810959Y-80758000D01*
X124880960Y-80779234D01*
X124902260Y-80793466D01*
X124975326Y-80808000D01*
X126224674Y-80808000D01*
X126297740Y-80793466D01*
X126380601Y-80738101D01*
X126435966Y-80655240D01*
X126450500Y-80582174D01*
X126450500Y-80132826D01*
X126436925Y-80064581D01*
X126436925Y-80015418D01*
X126438850Y-80005741D01*
X126450500Y-79947174D01*
X126450500Y-79882265D01*
X126470502Y-79814144D01*
X126524158Y-79767651D01*
X126594432Y-79757547D01*
X126657975Y-79786567D01*
G37*
%TD.AperFunction*%
%TA.AperFunction,Conductor*%
G36*
X121459012Y-76674337D02*
G01*
X121465595Y-76680466D01*
X123840613Y-79055484D01*
X123840617Y-79055487D01*
X123863180Y-79078050D01*
X123872020Y-79082554D01*
X123882777Y-79088035D01*
X123899629Y-79098361D01*
X123917432Y-79111296D01*
X123918405Y-79111612D01*
X123966429Y-79156967D01*
X123983495Y-79225882D01*
X123960595Y-79293084D01*
X123906298Y-79336204D01*
X123902196Y-79336854D01*
X123893359Y-79341357D01*
X123893358Y-79341357D01*
X123882597Y-79346840D01*
X123864336Y-79354404D01*
X123843411Y-79361203D01*
X123835387Y-79367033D01*
X123825613Y-79374134D01*
X123808757Y-79384463D01*
X123797993Y-79389948D01*
X123797992Y-79389949D01*
X123789158Y-79394450D01*
X123766595Y-79417013D01*
X123766591Y-79417016D01*
X122714001Y-80469606D01*
X122651689Y-80503632D01*
X122624906Y-80506511D01*
X121376500Y-80506511D01*
X121308379Y-80486509D01*
X121261886Y-80432853D01*
X121250500Y-80380511D01*
X121250500Y-80132826D01*
X121236925Y-80064581D01*
X121236925Y-80015418D01*
X121238850Y-80005741D01*
X121250500Y-79947174D01*
X121250500Y-79497826D01*
X121236925Y-79429581D01*
X121236925Y-79380418D01*
X121238175Y-79374134D01*
X121250500Y-79312174D01*
X121250500Y-78862826D01*
X121236925Y-78794581D01*
X121236925Y-78745418D01*
X121237653Y-78741759D01*
X121250500Y-78677174D01*
X121250500Y-78227826D01*
X121235966Y-78154760D01*
X121228900Y-78144184D01*
X121187493Y-78082214D01*
X121180601Y-78071899D01*
X121097740Y-78016534D01*
X121024674Y-78002000D01*
X119775326Y-78002000D01*
X119702260Y-78016534D01*
X119619399Y-78071899D01*
X119583447Y-78125707D01*
X119580546Y-78130048D01*
X119526069Y-78175576D01*
X119455626Y-78184425D01*
X119391582Y-78153784D01*
X119364045Y-78117943D01*
X119361296Y-78109482D01*
X119348361Y-78091679D01*
X119338035Y-78074827D01*
X119335937Y-78070710D01*
X119328050Y-78055230D01*
X119305487Y-78032667D01*
X119305484Y-78032663D01*
X118888186Y-77615365D01*
X118854160Y-77553053D01*
X118859225Y-77482238D01*
X118901772Y-77425402D01*
X118968292Y-77400591D01*
X118979255Y-77400286D01*
X119010394Y-77400775D01*
X119060898Y-77401569D01*
X119060901Y-77401569D01*
X119068495Y-77401688D01*
X119221968Y-77366538D01*
X119362625Y-77295795D01*
X119363512Y-77297559D01*
X119421581Y-77279544D01*
X119489998Y-77298506D01*
X119537303Y-77351447D01*
X119547125Y-77394998D01*
X119548893Y-77394824D01*
X119549500Y-77400987D01*
X119549500Y-77407174D01*
X119564034Y-77480240D01*
X119619399Y-77563101D01*
X119702260Y-77618466D01*
X119775326Y-77633000D01*
X121024674Y-77633000D01*
X121097740Y-77618466D01*
X121180601Y-77563101D01*
X121235966Y-77480240D01*
X121250500Y-77407174D01*
X121250500Y-76957826D01*
X121236925Y-76889581D01*
X121236925Y-76840418D01*
X121249293Y-76778241D01*
X121250500Y-76772174D01*
X121250500Y-76765987D01*
X121251107Y-76759824D01*
X121253296Y-76760040D01*
X121270502Y-76701440D01*
X121324158Y-76654947D01*
X121394432Y-76644843D01*
X121459012Y-76674337D01*
G37*
%TD.AperFunction*%
%TA.AperFunction,Conductor*%
G36*
X135155037Y-89225502D02*
G01*
X135176011Y-89242404D01*
X135562595Y-89628987D01*
X135596620Y-89691300D01*
X135599500Y-89718083D01*
X135599500Y-93781917D01*
X135579498Y-93850038D01*
X135562595Y-93871012D01*
X134291593Y-95142014D01*
X134229283Y-95176038D01*
X134158468Y-95170974D01*
X134113405Y-95142013D01*
X134088342Y-95116950D01*
X134000647Y-95072267D01*
X133949032Y-95023519D01*
X133931966Y-94954604D01*
X133954867Y-94887402D01*
X134000647Y-94847733D01*
X134038431Y-94828481D01*
X134088342Y-94803050D01*
X134178050Y-94713342D01*
X134235646Y-94600304D01*
X134250500Y-94506519D01*
X134250499Y-94143482D01*
X134247620Y-94125304D01*
X134237198Y-94059494D01*
X134237197Y-94059492D01*
X134235646Y-94049696D01*
X134228420Y-94035513D01*
X134208454Y-93996329D01*
X134178050Y-93936658D01*
X134088342Y-93846950D01*
X133975304Y-93789354D01*
X133965515Y-93787804D01*
X133965513Y-93787803D01*
X133928348Y-93781917D01*
X133881519Y-93774500D01*
X133025173Y-93774500D01*
X132168482Y-93774501D01*
X132163589Y-93775276D01*
X132163588Y-93775276D01*
X132084494Y-93787802D01*
X132084492Y-93787803D01*
X132074696Y-93789354D01*
X132065859Y-93793857D01*
X132065858Y-93793857D01*
X132032671Y-93810767D01*
X131975468Y-93824500D01*
X131776500Y-93824500D01*
X131708379Y-93804498D01*
X131661886Y-93750842D01*
X131650500Y-93698500D01*
X131650500Y-93171166D01*
X131647519Y-93139631D01*
X131602634Y-93011816D01*
X131597042Y-93004246D01*
X131597041Y-93004243D01*
X131534665Y-92919794D01*
X131522150Y-92902850D01*
X131489094Y-92878434D01*
X131420757Y-92827959D01*
X131420754Y-92827958D01*
X131413184Y-92822366D01*
X131285369Y-92777481D01*
X131277723Y-92776758D01*
X131277722Y-92776758D01*
X131271752Y-92776194D01*
X131253834Y-92774500D01*
X130746166Y-92774500D01*
X130728248Y-92776194D01*
X130722278Y-92776758D01*
X130722277Y-92776758D01*
X130714631Y-92777481D01*
X130586816Y-92822366D01*
X130579246Y-92827958D01*
X130579243Y-92827959D01*
X130510906Y-92878434D01*
X130477850Y-92902850D01*
X130465335Y-92919794D01*
X130402959Y-93004243D01*
X130402958Y-93004246D01*
X130397366Y-93011816D01*
X130352481Y-93139631D01*
X130349500Y-93171166D01*
X130349500Y-93828834D01*
X130350288Y-93837172D01*
X130351213Y-93846950D01*
X130352481Y-93860369D01*
X130397366Y-93988184D01*
X130402957Y-93995754D01*
X130402961Y-93995761D01*
X130474851Y-94093091D01*
X130499234Y-94159769D01*
X130499500Y-94167950D01*
X130499500Y-94179819D01*
X130498172Y-94191704D01*
X130498682Y-94191745D01*
X130497962Y-94200692D01*
X130495981Y-94209447D01*
X130496755Y-94221929D01*
X130495979Y-94225345D01*
X130495817Y-94227355D01*
X130495527Y-94227332D01*
X130481013Y-94291156D01*
X130445861Y-94331082D01*
X130402850Y-94362850D01*
X130397255Y-94370425D01*
X130397254Y-94370426D01*
X130327959Y-94464243D01*
X130327958Y-94464246D01*
X130322366Y-94471816D01*
X130277481Y-94599631D01*
X130274500Y-94631166D01*
X130274500Y-95138834D01*
X130277481Y-95170369D01*
X130322366Y-95298184D01*
X130327958Y-95305754D01*
X130327959Y-95305757D01*
X130360669Y-95350042D01*
X130402850Y-95407150D01*
X130417575Y-95418026D01*
X130504243Y-95482041D01*
X130504246Y-95482042D01*
X130511816Y-95487634D01*
X130639631Y-95532519D01*
X130647277Y-95533242D01*
X130647278Y-95533242D01*
X130653248Y-95533806D01*
X130671166Y-95535500D01*
X131328834Y-95535500D01*
X131346752Y-95533806D01*
X131352722Y-95533242D01*
X131352723Y-95533242D01*
X131360369Y-95532519D01*
X131488184Y-95487634D01*
X131495754Y-95482042D01*
X131495757Y-95482041D01*
X131597150Y-95407150D01*
X131599153Y-95409862D01*
X131646717Y-95383890D01*
X131717532Y-95388955D01*
X131774368Y-95431502D01*
X131799179Y-95498022D01*
X131799500Y-95507011D01*
X131799501Y-95659091D01*
X131799501Y-95776518D01*
X131800276Y-95781411D01*
X131800276Y-95781412D01*
X131807666Y-95828072D01*
X131814354Y-95870304D01*
X131818857Y-95879141D01*
X131818857Y-95879142D01*
X131839551Y-95919756D01*
X131849862Y-95974660D01*
X131888876Y-96000268D01*
X131961658Y-96073050D01*
X132074696Y-96130646D01*
X132084485Y-96132196D01*
X132084487Y-96132197D01*
X132111849Y-96136530D01*
X132168481Y-96145500D01*
X133024827Y-96145500D01*
X133881518Y-96145499D01*
X133886412Y-96144724D01*
X133965506Y-96132198D01*
X133965508Y-96132197D01*
X133975304Y-96130646D01*
X134088342Y-96073050D01*
X134128987Y-96032405D01*
X134191299Y-95998379D01*
X134218082Y-95995500D01*
X134468433Y-95995500D01*
X134477864Y-95992436D01*
X134477868Y-95992435D01*
X134489353Y-95988703D01*
X134508578Y-95984087D01*
X134520512Y-95982197D01*
X134520513Y-95982197D01*
X134530304Y-95980646D01*
X134539137Y-95976145D01*
X134539141Y-95976144D01*
X134549906Y-95970659D01*
X134568166Y-95963095D01*
X134589090Y-95956296D01*
X134606893Y-95943361D01*
X134623745Y-95933035D01*
X134634502Y-95927554D01*
X134643342Y-95923050D01*
X134665905Y-95900487D01*
X134665909Y-95900484D01*
X135546471Y-95019922D01*
X135608783Y-94985896D01*
X135679598Y-94990961D01*
X135736434Y-95033508D01*
X135761245Y-95100028D01*
X135758741Y-95134504D01*
X135756148Y-95141420D01*
X135752698Y-95187843D01*
X135751548Y-95197856D01*
X135749500Y-95211009D01*
X135749500Y-95226204D01*
X135749154Y-95235541D01*
X135745524Y-95284392D01*
X135747397Y-95293168D01*
X135748008Y-95302125D01*
X135748002Y-95302125D01*
X135749500Y-95316318D01*
X135749500Y-96740496D01*
X135729498Y-96808617D01*
X135712595Y-96829591D01*
X135329591Y-97212595D01*
X135267279Y-97246621D01*
X135240496Y-97249500D01*
X132009504Y-97249500D01*
X131941383Y-97229498D01*
X131920409Y-97212595D01*
X131728063Y-97020249D01*
X131694037Y-96957937D01*
X131698275Y-96889406D01*
X131719974Y-96827616D01*
X131722519Y-96820369D01*
X131725500Y-96788834D01*
X131725500Y-96281166D01*
X131722519Y-96249631D01*
X131680898Y-96131111D01*
X131678679Y-96088572D01*
X131635681Y-96063474D01*
X131625933Y-96051818D01*
X131602745Y-96020424D01*
X131602742Y-96020421D01*
X131597150Y-96012850D01*
X131577558Y-95998379D01*
X131495757Y-95937959D01*
X131495754Y-95937958D01*
X131488184Y-95932366D01*
X131360369Y-95887481D01*
X131352723Y-95886758D01*
X131352722Y-95886758D01*
X131346752Y-95886194D01*
X131328834Y-95884500D01*
X130671166Y-95884500D01*
X130653248Y-95886194D01*
X130647278Y-95886758D01*
X130647277Y-95886758D01*
X130639631Y-95887481D01*
X130511816Y-95932366D01*
X130504246Y-95937957D01*
X130504239Y-95937961D01*
X130406909Y-96009851D01*
X130340231Y-96034234D01*
X130332050Y-96034500D01*
X129714504Y-96034500D01*
X129646383Y-96014498D01*
X129625409Y-95997595D01*
X129286905Y-95659091D01*
X129252879Y-95596779D01*
X129250000Y-95569996D01*
X129250000Y-94351500D01*
X129270002Y-94283379D01*
X129323658Y-94236886D01*
X129376000Y-94225500D01*
X129603834Y-94225500D01*
X129621752Y-94223806D01*
X129627722Y-94223242D01*
X129627723Y-94223242D01*
X129635369Y-94222519D01*
X129763184Y-94177634D01*
X129770754Y-94172042D01*
X129770757Y-94172041D01*
X129864579Y-94102742D01*
X129872150Y-94097150D01*
X129899963Y-94059494D01*
X129947041Y-93995757D01*
X129947042Y-93995754D01*
X129952634Y-93988184D01*
X129997519Y-93860369D01*
X129998788Y-93846950D01*
X129999712Y-93837172D01*
X130000500Y-93828834D01*
X130000500Y-93171166D01*
X129997519Y-93139631D01*
X129952634Y-93011816D01*
X129947042Y-93004246D01*
X129947041Y-93004243D01*
X129884665Y-92919794D01*
X129872150Y-92902850D01*
X129839094Y-92878434D01*
X129770757Y-92827959D01*
X129770754Y-92827958D01*
X129763184Y-92822366D01*
X129635369Y-92777481D01*
X129627723Y-92776758D01*
X129627722Y-92776758D01*
X129621752Y-92776194D01*
X129603834Y-92774500D01*
X129384504Y-92774500D01*
X129316383Y-92754498D01*
X129295409Y-92737595D01*
X129286905Y-92729091D01*
X129252879Y-92666779D01*
X129250000Y-92639996D01*
X129250000Y-91206873D01*
X129270002Y-91138752D01*
X129323847Y-91092173D01*
X129359267Y-91076068D01*
X129368637Y-91072254D01*
X129403943Y-91059509D01*
X129403947Y-91059507D01*
X129412387Y-91056460D01*
X129419635Y-91051165D01*
X129422975Y-91049389D01*
X129436089Y-91041726D01*
X129439261Y-91039697D01*
X129447428Y-91035984D01*
X129454223Y-91030129D01*
X129454226Y-91030127D01*
X129482675Y-91005613D01*
X129490596Y-90999324D01*
X129497402Y-90994352D01*
X129501336Y-90991478D01*
X129512079Y-90980735D01*
X129518924Y-90974379D01*
X129528591Y-90966049D01*
X129593253Y-90936734D01*
X129610841Y-90935500D01*
X129828834Y-90935500D01*
X129846752Y-90933806D01*
X129852722Y-90933242D01*
X129852723Y-90933242D01*
X129860369Y-90932519D01*
X129988184Y-90887634D01*
X129995754Y-90882042D01*
X129995757Y-90882041D01*
X130089579Y-90812742D01*
X130097150Y-90807150D01*
X130102742Y-90799579D01*
X130109406Y-90792915D01*
X130110711Y-90794220D01*
X130158149Y-90758230D01*
X130202940Y-90750000D01*
X130310234Y-90750000D01*
X130378355Y-90770002D01*
X130399328Y-90786903D01*
X130404932Y-90792507D01*
X130410313Y-90799687D01*
X130417493Y-90805068D01*
X130417496Y-90805071D01*
X130453958Y-90832397D01*
X130519305Y-90881372D01*
X130646843Y-90929184D01*
X130654696Y-90930037D01*
X130654700Y-90930038D01*
X130701586Y-90935131D01*
X130701590Y-90935131D01*
X130704985Y-90935500D01*
X130999956Y-90935500D01*
X131295014Y-90935499D01*
X131353157Y-90929184D01*
X131480695Y-90881372D01*
X131546042Y-90832397D01*
X131582504Y-90805071D01*
X131582507Y-90805068D01*
X131589687Y-90799687D01*
X131595068Y-90792507D01*
X131600672Y-90786903D01*
X131662985Y-90752879D01*
X131689766Y-90750000D01*
X132098500Y-90750000D01*
X132166621Y-90770002D01*
X132213114Y-90823658D01*
X132224500Y-90876000D01*
X132224500Y-90888218D01*
X132225170Y-90892768D01*
X132225170Y-90892771D01*
X132233202Y-90947330D01*
X132234642Y-90957112D01*
X132251515Y-90991478D01*
X132280696Y-91050913D01*
X132286068Y-91061855D01*
X132315899Y-91091634D01*
X132336251Y-91111950D01*
X132368650Y-91144293D01*
X132473482Y-91195536D01*
X132503973Y-91199984D01*
X132537256Y-91204840D01*
X132537260Y-91204840D01*
X132541782Y-91205500D01*
X132761000Y-91205500D01*
X132829121Y-91225502D01*
X132875614Y-91279158D01*
X132887000Y-91331500D01*
X132887000Y-91350933D01*
X132890064Y-91360364D01*
X132890065Y-91360368D01*
X132893797Y-91371853D01*
X132898413Y-91391078D01*
X132901854Y-91412804D01*
X132906355Y-91421637D01*
X132906356Y-91421641D01*
X132911841Y-91432406D01*
X132919405Y-91450666D01*
X132926204Y-91471590D01*
X132939139Y-91489393D01*
X132949465Y-91506245D01*
X132959450Y-91525842D01*
X132982013Y-91548405D01*
X132982016Y-91548409D01*
X133060359Y-91626752D01*
X133094385Y-91689064D01*
X133096186Y-91732292D01*
X133094758Y-91743138D01*
X133112035Y-91899633D01*
X133166143Y-92047490D01*
X133170380Y-92053796D01*
X133170382Y-92053799D01*
X133182631Y-92072027D01*
X133253958Y-92178172D01*
X133273564Y-92196012D01*
X133344881Y-92260905D01*
X133370410Y-92284135D01*
X133398171Y-92299208D01*
X133502099Y-92355637D01*
X133502101Y-92355638D01*
X133508776Y-92359262D01*
X133516125Y-92361190D01*
X133653719Y-92397287D01*
X133653721Y-92397287D01*
X133661069Y-92399215D01*
X133744380Y-92400524D01*
X133810898Y-92401569D01*
X133810901Y-92401569D01*
X133818495Y-92401688D01*
X133971968Y-92366538D01*
X134112625Y-92295795D01*
X134184408Y-92234487D01*
X134226574Y-92198474D01*
X134226576Y-92198471D01*
X134232348Y-92193542D01*
X134324224Y-92065683D01*
X134382950Y-91919598D01*
X134400422Y-91796830D01*
X134404553Y-91767807D01*
X134404553Y-91767804D01*
X134405134Y-91763723D01*
X134405278Y-91750000D01*
X134401413Y-91718057D01*
X134400746Y-91712550D01*
X134386363Y-91593694D01*
X134379885Y-91576551D01*
X134333394Y-91453514D01*
X134333393Y-91453511D01*
X134330710Y-91446412D01*
X134241531Y-91316657D01*
X134231491Y-91307711D01*
X134193935Y-91247463D01*
X134194914Y-91176473D01*
X134226136Y-91124617D01*
X134281935Y-91068721D01*
X134281935Y-91068720D01*
X134289293Y-91061350D01*
X134297138Y-91045302D01*
X134336240Y-90965306D01*
X134340536Y-90956518D01*
X134350500Y-90888218D01*
X134350500Y-90621782D01*
X134340358Y-90552888D01*
X134307304Y-90485564D01*
X134295236Y-90415601D01*
X134307206Y-90374705D01*
X134340536Y-90306518D01*
X134346522Y-90265484D01*
X134349840Y-90242744D01*
X134349840Y-90242740D01*
X134350500Y-90238218D01*
X134350500Y-89971782D01*
X134347720Y-89952894D01*
X134341784Y-89912574D01*
X134341784Y-89912573D01*
X134340358Y-89902888D01*
X134307304Y-89835564D01*
X134295236Y-89765601D01*
X134307206Y-89724705D01*
X134340536Y-89656518D01*
X134350500Y-89588218D01*
X134350500Y-89331500D01*
X134370502Y-89263379D01*
X134424158Y-89216886D01*
X134476500Y-89205500D01*
X135086916Y-89205500D01*
X135155037Y-89225502D01*
G37*
%TD.AperFunction*%
%TA.AperFunction,Conductor*%
G36*
X161442121Y-72270002D02*
G01*
X161488614Y-72323658D01*
X161500000Y-72376000D01*
X161500000Y-79988500D01*
X161479998Y-80056621D01*
X161426342Y-80103114D01*
X161374000Y-80114500D01*
X157995326Y-80114500D01*
X157922260Y-80129034D01*
X157839399Y-80184399D01*
X157832507Y-80194714D01*
X157823728Y-80203493D01*
X157822651Y-80202416D01*
X157778837Y-80239031D01*
X157728551Y-80249500D01*
X157255529Y-80249500D01*
X157187408Y-80229498D01*
X157166434Y-80212595D01*
X155645150Y-78691311D01*
X155632763Y-78676898D01*
X155624431Y-78665575D01*
X155624427Y-78665571D01*
X155620089Y-78659676D01*
X155580272Y-78625849D01*
X155572768Y-78618929D01*
X155567169Y-78613330D01*
X155545121Y-78595886D01*
X155541745Y-78593117D01*
X155492297Y-78551108D01*
X155492294Y-78551106D01*
X155486717Y-78546368D01*
X155480198Y-78543040D01*
X155475288Y-78539765D01*
X155470268Y-78536664D01*
X155464523Y-78532119D01*
X155439554Y-78520449D01*
X155421476Y-78512000D01*
X155399123Y-78501553D01*
X155395177Y-78499625D01*
X155388736Y-78496336D01*
X155330856Y-78466781D01*
X155323747Y-78465042D01*
X155318212Y-78462983D01*
X155312604Y-78461117D01*
X155305979Y-78458021D01*
X155298819Y-78456532D01*
X155298817Y-78456531D01*
X155235279Y-78443315D01*
X155230990Y-78442344D01*
X155214375Y-78438279D01*
X155160866Y-78425185D01*
X155155266Y-78424838D01*
X155155262Y-78424837D01*
X155149824Y-78424500D01*
X155149826Y-78424468D01*
X155145696Y-78424221D01*
X155141816Y-78423875D01*
X155134641Y-78422382D01*
X155127320Y-78422580D01*
X155127319Y-78422580D01*
X155058072Y-78424454D01*
X155054664Y-78424500D01*
X154833660Y-78424500D01*
X154765539Y-78404498D01*
X154719046Y-78350842D01*
X154710081Y-78323083D01*
X154703387Y-78289430D01*
X154703387Y-78289429D01*
X154700966Y-78277260D01*
X154692546Y-78264657D01*
X154652493Y-78204714D01*
X154645601Y-78194399D01*
X154583585Y-78152962D01*
X154573058Y-78145928D01*
X154573057Y-78145928D01*
X154562740Y-78139034D01*
X154489674Y-78124500D01*
X152840326Y-78124500D01*
X152767260Y-78139034D01*
X152756943Y-78145928D01*
X152756942Y-78145928D01*
X152746415Y-78152962D01*
X152684399Y-78194399D01*
X152677507Y-78204714D01*
X152637455Y-78264657D01*
X152629034Y-78277260D01*
X152614500Y-78350326D01*
X152614500Y-79999674D01*
X152629034Y-80072740D01*
X152684399Y-80155601D01*
X152694714Y-80162493D01*
X152756076Y-80203493D01*
X152767260Y-80210966D01*
X152840326Y-80225500D01*
X154489674Y-80225500D01*
X154562740Y-80210966D01*
X154573925Y-80203493D01*
X154635286Y-80162493D01*
X154645601Y-80155601D01*
X154696931Y-80078779D01*
X154751407Y-80033252D01*
X154821850Y-80024403D01*
X154890791Y-80059686D01*
X155610338Y-80779234D01*
X156314797Y-81483693D01*
X156327183Y-81498105D01*
X156335516Y-81509429D01*
X156335519Y-81509433D01*
X156339855Y-81515324D01*
X156354438Y-81527713D01*
X156379653Y-81549135D01*
X156387169Y-81556065D01*
X156392775Y-81561671D01*
X156395636Y-81563934D01*
X156395641Y-81563939D01*
X156414826Y-81579117D01*
X156418227Y-81581906D01*
X156456460Y-81614387D01*
X156473227Y-81628632D01*
X156479750Y-81631963D01*
X156484688Y-81635256D01*
X156489682Y-81638340D01*
X156495421Y-81642881D01*
X156502048Y-81645978D01*
X156502054Y-81645982D01*
X156560835Y-81673454D01*
X156564776Y-81675380D01*
X156629088Y-81708219D01*
X156636199Y-81709959D01*
X156641741Y-81712020D01*
X156647334Y-81713881D01*
X156653965Y-81716980D01*
X156661127Y-81718470D01*
X156661128Y-81718470D01*
X156724681Y-81731689D01*
X156728965Y-81732659D01*
X156799078Y-81749815D01*
X156804678Y-81750162D01*
X156804682Y-81750163D01*
X156810120Y-81750500D01*
X156810118Y-81750532D01*
X156814231Y-81750779D01*
X156818138Y-81751128D01*
X156825303Y-81752618D01*
X156901872Y-81750546D01*
X156905280Y-81750500D01*
X157728551Y-81750500D01*
X157796672Y-81770502D01*
X157823440Y-81796795D01*
X157823728Y-81796507D01*
X157832507Y-81805286D01*
X157839399Y-81815601D01*
X157922260Y-81870966D01*
X157995326Y-81885500D01*
X161374000Y-81885500D01*
X161442121Y-81905502D01*
X161488614Y-81959158D01*
X161500000Y-82011500D01*
X161500000Y-85688500D01*
X161479998Y-85756621D01*
X161426342Y-85803114D01*
X161374000Y-85814500D01*
X157995326Y-85814500D01*
X157922260Y-85829034D01*
X157839399Y-85884399D01*
X157832507Y-85894714D01*
X157799909Y-85943501D01*
X157745432Y-85989029D01*
X157695143Y-85999500D01*
X155176178Y-85999500D01*
X155097386Y-86008686D01*
X155053443Y-86013809D01*
X155053441Y-86013810D01*
X155046172Y-86014657D01*
X155039291Y-86017155D01*
X155032167Y-86018839D01*
X155032044Y-86018319D01*
X154996893Y-86024501D01*
X154949986Y-86024501D01*
X154891843Y-86030816D01*
X154764305Y-86078628D01*
X154655313Y-86160313D01*
X154573628Y-86269305D01*
X154570476Y-86277714D01*
X154570475Y-86277715D01*
X154564009Y-86294963D01*
X154521368Y-86351728D01*
X154454807Y-86376428D01*
X154385458Y-86361221D01*
X154342630Y-86318370D01*
X154341376Y-86319310D01*
X154339682Y-86317050D01*
X154337710Y-86313448D01*
X154335509Y-86311246D01*
X154331679Y-86304251D01*
X154332444Y-86303832D01*
X154322522Y-86285711D01*
X154316372Y-86269305D01*
X154310992Y-86262126D01*
X154310990Y-86262123D01*
X154240068Y-86167493D01*
X154234687Y-86160313D01*
X154227506Y-86154931D01*
X154131928Y-86083299D01*
X154089413Y-86026440D01*
X154084387Y-85955621D01*
X154118447Y-85893328D01*
X154144817Y-85873576D01*
X154150695Y-85871372D01*
X154259687Y-85789687D01*
X154341372Y-85680695D01*
X154389184Y-85553157D01*
X154390037Y-85545304D01*
X154390038Y-85545300D01*
X154395131Y-85498414D01*
X154395131Y-85498410D01*
X154395500Y-85495015D01*
X154395500Y-85450262D01*
X154398973Y-85424407D01*
X154398828Y-85424385D01*
X154424048Y-85258604D01*
X154424048Y-85258600D01*
X154425148Y-85251370D01*
X154424313Y-85241095D01*
X154415915Y-85137850D01*
X154415500Y-85127636D01*
X154415500Y-84993660D01*
X154435502Y-84925539D01*
X154489158Y-84879046D01*
X154516917Y-84870081D01*
X154550570Y-84863387D01*
X154550571Y-84863387D01*
X154562740Y-84860966D01*
X154645601Y-84805601D01*
X154700966Y-84722740D01*
X154715500Y-84649674D01*
X154715500Y-83000326D01*
X154700966Y-82927260D01*
X154687362Y-82906899D01*
X154652493Y-82854714D01*
X154645601Y-82844399D01*
X154588436Y-82806203D01*
X154573058Y-82795928D01*
X154573057Y-82795928D01*
X154562740Y-82789034D01*
X154489674Y-82774500D01*
X152840326Y-82774500D01*
X152767260Y-82789034D01*
X152756943Y-82795928D01*
X152756942Y-82795928D01*
X152741564Y-82806203D01*
X152684399Y-82844399D01*
X152677507Y-82854714D01*
X152642639Y-82906899D01*
X152629034Y-82927260D01*
X152614500Y-83000326D01*
X152614500Y-84649674D01*
X152629034Y-84722740D01*
X152684399Y-84805601D01*
X152767260Y-84860966D01*
X152779429Y-84863387D01*
X152779430Y-84863387D01*
X152813083Y-84870081D01*
X152875992Y-84902989D01*
X152911123Y-84964685D01*
X152914500Y-84993660D01*
X152914500Y-85153546D01*
X152913067Y-85172496D01*
X152909852Y-85193630D01*
X152910445Y-85200922D01*
X152910445Y-85200925D01*
X152914085Y-85245675D01*
X152914500Y-85255889D01*
X152914500Y-85263822D01*
X152914925Y-85267466D01*
X152917754Y-85291736D01*
X152918187Y-85296111D01*
X152918637Y-85301640D01*
X152924039Y-85368059D01*
X152926295Y-85375024D01*
X152927454Y-85380823D01*
X152928809Y-85386555D01*
X152929657Y-85393828D01*
X152932154Y-85400706D01*
X152936940Y-85413892D01*
X152944501Y-85456884D01*
X152944501Y-85495014D01*
X152950816Y-85553157D01*
X152998628Y-85680695D01*
X153080313Y-85789687D01*
X153189305Y-85871372D01*
X153194309Y-85873248D01*
X153243162Y-85922212D01*
X153258176Y-85991603D01*
X153233290Y-86058095D01*
X153208072Y-86083299D01*
X153112494Y-86154931D01*
X153105313Y-86160313D01*
X153099932Y-86167493D01*
X153029010Y-86262123D01*
X153029008Y-86262126D01*
X153023628Y-86269305D01*
X153017478Y-86285711D01*
X153007556Y-86303831D01*
X153008322Y-86304250D01*
X153004014Y-86312119D01*
X152998628Y-86319305D01*
X152950816Y-86446843D01*
X152949963Y-86454696D01*
X152949962Y-86454700D01*
X152947902Y-86473666D01*
X152944500Y-86504985D01*
X152944500Y-86567047D01*
X152940889Y-86596995D01*
X152920185Y-86681606D01*
X152919500Y-86692648D01*
X152919500Y-88543822D01*
X152934657Y-88673828D01*
X152937153Y-88680703D01*
X152937153Y-88680705D01*
X152977375Y-88791513D01*
X152984199Y-88820899D01*
X152988234Y-88858051D01*
X152991007Y-88865447D01*
X152991008Y-88865451D01*
X152995117Y-88876412D01*
X153035417Y-88983912D01*
X153040799Y-88991093D01*
X153040800Y-88991095D01*
X153088319Y-89054500D01*
X153116028Y-89091472D01*
X153123208Y-89096853D01*
X153123212Y-89096857D01*
X153169065Y-89131221D01*
X153211580Y-89188080D01*
X153219500Y-89232047D01*
X153219500Y-89623500D01*
X153199498Y-89691621D01*
X153145842Y-89738114D01*
X153093500Y-89749500D01*
X152795326Y-89749500D01*
X152722260Y-89764034D01*
X152711943Y-89770928D01*
X152711942Y-89770928D01*
X152703895Y-89776305D01*
X152639399Y-89819399D01*
X152584034Y-89902260D01*
X152569500Y-89975326D01*
X152569500Y-92388433D01*
X152572564Y-92397864D01*
X152572565Y-92397868D01*
X152576297Y-92409353D01*
X152580913Y-92428578D01*
X152584354Y-92450304D01*
X152588855Y-92459137D01*
X152588856Y-92459141D01*
X152594341Y-92469906D01*
X152601905Y-92488166D01*
X152608704Y-92509090D01*
X152621639Y-92526893D01*
X152631965Y-92543745D01*
X152641950Y-92563342D01*
X152664513Y-92585905D01*
X152664516Y-92585909D01*
X153182595Y-93103988D01*
X153216621Y-93166300D01*
X153219500Y-93193083D01*
X153219500Y-93623500D01*
X153199498Y-93691621D01*
X153145842Y-93738114D01*
X153093500Y-93749500D01*
X152795326Y-93749500D01*
X152722260Y-93764034D01*
X152711940Y-93770929D01*
X152700479Y-93775677D01*
X152699656Y-93773690D01*
X152647245Y-93790099D01*
X152590454Y-93773424D01*
X152589521Y-93775677D01*
X152578060Y-93770929D01*
X152567740Y-93764034D01*
X152494674Y-93749500D01*
X152145326Y-93749500D01*
X152072260Y-93764034D01*
X152061943Y-93770928D01*
X152061942Y-93770928D01*
X152045496Y-93781917D01*
X151989399Y-93819399D01*
X151979634Y-93834014D01*
X151945557Y-93885015D01*
X151934034Y-93902260D01*
X151919500Y-93975326D01*
X151919500Y-95024674D01*
X151934034Y-95097740D01*
X151989399Y-95180601D01*
X151999714Y-95187493D01*
X152057957Y-95226409D01*
X152072260Y-95235966D01*
X152145326Y-95250500D01*
X152213427Y-95250500D01*
X152281548Y-95270502D01*
X152328041Y-95324158D01*
X152338145Y-95394432D01*
X152308651Y-95459012D01*
X152302522Y-95465595D01*
X152205522Y-95562595D01*
X152143210Y-95596621D01*
X152116427Y-95599500D01*
X149458082Y-95599500D01*
X149389961Y-95579498D01*
X149368987Y-95562595D01*
X149166654Y-95360262D01*
X149132628Y-95297950D01*
X149136436Y-95230666D01*
X149172819Y-95123485D01*
X149172820Y-95123479D01*
X149174678Y-95118007D01*
X149175507Y-95112291D01*
X149175508Y-95112286D01*
X149198820Y-94951500D01*
X149203700Y-94917842D01*
X149205215Y-94860000D01*
X149186708Y-94658591D01*
X149182776Y-94644647D01*
X149150992Y-94531950D01*
X149131807Y-94463926D01*
X149042351Y-94282527D01*
X149024079Y-94258057D01*
X148924788Y-94125091D01*
X148924787Y-94125090D01*
X148921335Y-94120467D01*
X148917099Y-94116551D01*
X148777053Y-93987094D01*
X148777051Y-93987092D01*
X148772812Y-93983174D01*
X148745374Y-93965862D01*
X148606637Y-93878325D01*
X148601757Y-93875246D01*
X148413898Y-93800298D01*
X148215526Y-93760839D01*
X148209752Y-93760763D01*
X148209748Y-93760763D01*
X148107257Y-93759422D01*
X148013286Y-93758192D01*
X148007589Y-93759171D01*
X148007588Y-93759171D01*
X147819646Y-93791465D01*
X147819645Y-93791465D01*
X147813949Y-93792444D01*
X147624193Y-93862449D01*
X147619232Y-93865401D01*
X147619231Y-93865401D01*
X147484612Y-93945491D01*
X147450371Y-93965862D01*
X147298305Y-94099220D01*
X147173089Y-94258057D01*
X147078914Y-94437053D01*
X147077850Y-94436493D01*
X147037143Y-94487003D01*
X146965287Y-94509500D01*
X146749532Y-94509500D01*
X146692329Y-94495767D01*
X146650304Y-94474354D01*
X146640515Y-94472804D01*
X146640513Y-94472803D01*
X146613151Y-94468470D01*
X146556519Y-94459500D01*
X145937625Y-94459500D01*
X145318482Y-94459501D01*
X145313589Y-94460276D01*
X145313588Y-94460276D01*
X145234494Y-94472802D01*
X145234492Y-94472803D01*
X145224696Y-94474354D01*
X145111658Y-94531950D01*
X145021950Y-94621658D01*
X144964354Y-94734696D01*
X144949500Y-94828481D01*
X144949501Y-95191518D01*
X144950276Y-95196411D01*
X144950276Y-95196412D01*
X144950506Y-95197861D01*
X144964092Y-95283647D01*
X144964354Y-95285304D01*
X144964140Y-95285338D01*
X144965987Y-95350042D01*
X144929323Y-95410839D01*
X144865610Y-95442163D01*
X144795076Y-95434068D01*
X144786929Y-95430277D01*
X144775304Y-95424354D01*
X144765515Y-95422804D01*
X144765513Y-95422803D01*
X144735350Y-95418026D01*
X144681519Y-95409500D01*
X144376000Y-95409500D01*
X144307879Y-95389498D01*
X144261386Y-95335842D01*
X144250000Y-95283500D01*
X144250000Y-94680107D01*
X144270002Y-94611986D01*
X144319386Y-94567542D01*
X144339451Y-94557450D01*
X144362625Y-94545795D01*
X144414411Y-94501566D01*
X144476574Y-94448474D01*
X144476576Y-94448471D01*
X144482348Y-94443542D01*
X144574224Y-94315683D01*
X144632950Y-94169598D01*
X144633149Y-94168197D01*
X144664326Y-94114199D01*
X144853655Y-93924870D01*
X144857464Y-93921217D01*
X144875174Y-93904932D01*
X144903156Y-93879201D01*
X144926095Y-93842203D01*
X144932797Y-93832452D01*
X144959112Y-93797784D01*
X144964646Y-93783807D01*
X144974709Y-93763798D01*
X144978111Y-93758312D01*
X144978113Y-93758308D01*
X144982635Y-93751014D01*
X144985029Y-93742772D01*
X144985031Y-93742769D01*
X144994779Y-93709216D01*
X144998618Y-93698003D01*
X145014635Y-93657547D01*
X145016206Y-93642598D01*
X145020519Y-93620615D01*
X145022873Y-93612514D01*
X145024715Y-93606175D01*
X145025500Y-93595485D01*
X145025500Y-93560781D01*
X145026190Y-93547610D01*
X145029503Y-93516088D01*
X145030401Y-93507546D01*
X145028969Y-93499081D01*
X145028969Y-93499072D01*
X145027265Y-93489000D01*
X145025500Y-93467987D01*
X145025500Y-93400592D01*
X145045502Y-93332471D01*
X145050674Y-93325027D01*
X145075464Y-93291950D01*
X145121372Y-93230695D01*
X145169184Y-93103157D01*
X145173612Y-93062402D01*
X145175131Y-93048414D01*
X145175131Y-93048410D01*
X145175500Y-93045015D01*
X145175499Y-92454986D01*
X145169184Y-92396843D01*
X145121372Y-92269305D01*
X145039687Y-92160313D01*
X144930695Y-92078628D01*
X144922291Y-92075478D01*
X144915989Y-92072027D01*
X144865844Y-92021768D01*
X144850500Y-91961508D01*
X144850500Y-91012211D01*
X144850499Y-90460937D01*
X144850499Y-90455982D01*
X144843286Y-90410439D01*
X144837198Y-90371994D01*
X144837197Y-90371992D01*
X144835646Y-90362196D01*
X144821128Y-90333703D01*
X144808024Y-90263926D01*
X144834724Y-90198142D01*
X144892751Y-90157235D01*
X144933395Y-90150500D01*
X145481916Y-90150500D01*
X145550037Y-90170502D01*
X145571011Y-90187405D01*
X145630961Y-90247355D01*
X145664987Y-90309667D01*
X145662374Y-90361882D01*
X145664354Y-90362196D01*
X145649500Y-90455981D01*
X145649501Y-91544018D01*
X145650276Y-91548909D01*
X145650276Y-91548912D01*
X145662604Y-91626752D01*
X145664354Y-91637804D01*
X145721950Y-91750842D01*
X145811658Y-91840550D01*
X145924696Y-91898146D01*
X145934485Y-91899696D01*
X145934487Y-91899697D01*
X145961849Y-91904030D01*
X146018481Y-91913000D01*
X146199963Y-91913000D01*
X146381518Y-91912999D01*
X146386412Y-91912224D01*
X146465506Y-91899698D01*
X146465508Y-91899697D01*
X146475304Y-91898146D01*
X146487202Y-91892084D01*
X146506895Y-91882049D01*
X146588342Y-91840550D01*
X146678050Y-91750842D01*
X146735646Y-91637804D01*
X146737397Y-91626752D01*
X146748092Y-91559220D01*
X146750500Y-91544019D01*
X146750499Y-90455982D01*
X146750341Y-90454985D01*
X149419500Y-90454985D01*
X149419501Y-90995014D01*
X149425816Y-91053157D01*
X149473628Y-91180695D01*
X149555313Y-91289687D01*
X149664305Y-91371372D01*
X149791843Y-91419184D01*
X149799696Y-91420037D01*
X149799700Y-91420038D01*
X149846586Y-91425131D01*
X149846590Y-91425131D01*
X149849985Y-91425500D01*
X150144956Y-91425500D01*
X150440014Y-91425499D01*
X150498157Y-91419184D01*
X150625695Y-91371372D01*
X150734687Y-91289687D01*
X150816372Y-91180695D01*
X150864184Y-91053157D01*
X150868558Y-91012892D01*
X150895800Y-90947330D01*
X150954163Y-90906904D01*
X150993821Y-90900500D01*
X151143680Y-90900500D01*
X151211801Y-90920502D01*
X151258294Y-90974158D01*
X151269073Y-91014151D01*
X151269500Y-91018486D01*
X151269500Y-91024674D01*
X151284034Y-91097740D01*
X151290928Y-91108057D01*
X151290928Y-91108058D01*
X151308612Y-91134524D01*
X151339399Y-91180601D01*
X151375676Y-91204840D01*
X151386271Y-91211919D01*
X151422260Y-91235966D01*
X151495326Y-91250500D01*
X151844674Y-91250500D01*
X151917740Y-91235966D01*
X151953730Y-91211919D01*
X151964324Y-91204840D01*
X152000601Y-91180601D01*
X152031388Y-91134524D01*
X152049072Y-91108058D01*
X152049072Y-91108057D01*
X152055966Y-91097740D01*
X152070500Y-91024674D01*
X152070500Y-90541436D01*
X152072051Y-90521726D01*
X152073941Y-90509793D01*
X152075492Y-90500000D01*
X152072051Y-90478274D01*
X152070500Y-90458564D01*
X152070500Y-89975326D01*
X152055966Y-89902260D01*
X152000601Y-89819399D01*
X151936105Y-89776305D01*
X151928058Y-89770928D01*
X151928057Y-89770928D01*
X151917740Y-89764034D01*
X151844674Y-89749500D01*
X151495326Y-89749500D01*
X151422260Y-89764034D01*
X151411943Y-89770928D01*
X151411942Y-89770928D01*
X151403895Y-89776305D01*
X151339399Y-89819399D01*
X151284034Y-89902260D01*
X151269500Y-89975326D01*
X151269500Y-89981513D01*
X151269073Y-89985849D01*
X151242491Y-90051681D01*
X151184538Y-90092692D01*
X151143680Y-90099500D01*
X150693403Y-90099500D01*
X150632894Y-90084020D01*
X150632877Y-90084011D01*
X150625695Y-90078628D01*
X150617294Y-90075478D01*
X150617291Y-90075477D01*
X150531941Y-90043481D01*
X150498157Y-90030816D01*
X150490304Y-90029963D01*
X150490300Y-90029962D01*
X150443414Y-90024869D01*
X150443410Y-90024869D01*
X150440015Y-90024500D01*
X150145044Y-90024500D01*
X149849986Y-90024501D01*
X149791843Y-90030816D01*
X149664305Y-90078628D01*
X149555313Y-90160313D01*
X149473628Y-90269305D01*
X149425816Y-90396843D01*
X149424963Y-90404696D01*
X149424962Y-90404700D01*
X149420851Y-90442550D01*
X149419500Y-90454985D01*
X146750341Y-90454985D01*
X146743286Y-90410439D01*
X146737198Y-90371994D01*
X146737197Y-90371992D01*
X146735646Y-90362196D01*
X146724920Y-90341144D01*
X146717898Y-90327364D01*
X146678050Y-90249158D01*
X146588342Y-90159450D01*
X146584592Y-90157539D01*
X146543175Y-90103826D01*
X146540477Y-90093852D01*
X146540262Y-90093922D01*
X146537197Y-90084488D01*
X146535646Y-90074696D01*
X146531145Y-90065863D01*
X146531144Y-90065859D01*
X146525659Y-90055094D01*
X146518093Y-90036830D01*
X146517041Y-90033590D01*
X146511296Y-90015910D01*
X146505467Y-90007888D01*
X146505466Y-90007885D01*
X146498368Y-89998116D01*
X146488038Y-89981259D01*
X146482552Y-89970493D01*
X146482551Y-89970492D01*
X146478050Y-89961658D01*
X146360306Y-89843914D01*
X146326280Y-89781602D01*
X146331345Y-89710787D01*
X146373892Y-89653951D01*
X146429691Y-89630370D01*
X146465507Y-89624698D01*
X146465510Y-89624697D01*
X146475304Y-89623146D01*
X146588342Y-89565550D01*
X146678050Y-89475842D01*
X146735646Y-89362804D01*
X146739557Y-89338114D01*
X146746920Y-89291621D01*
X146750500Y-89269019D01*
X146750499Y-88180982D01*
X146745725Y-88150837D01*
X146737198Y-88096994D01*
X146737197Y-88096992D01*
X146735646Y-88087196D01*
X146678050Y-87974158D01*
X146588342Y-87884450D01*
X146475304Y-87826854D01*
X146465515Y-87825304D01*
X146465513Y-87825303D01*
X146438151Y-87820970D01*
X146381519Y-87812000D01*
X146200037Y-87812000D01*
X146018482Y-87812001D01*
X146013589Y-87812776D01*
X146013588Y-87812776D01*
X145934494Y-87825302D01*
X145934492Y-87825303D01*
X145924696Y-87826854D01*
X145811658Y-87884450D01*
X145721950Y-87974158D01*
X145664354Y-88087196D01*
X145649500Y-88180981D01*
X145649501Y-88722440D01*
X145649501Y-89223500D01*
X145629499Y-89291621D01*
X145575843Y-89338114D01*
X145523501Y-89349500D01*
X144976500Y-89349500D01*
X144908379Y-89329498D01*
X144861886Y-89275842D01*
X144850500Y-89223500D01*
X144850499Y-88185937D01*
X144850499Y-88180982D01*
X144845725Y-88150837D01*
X144837198Y-88096994D01*
X144837197Y-88096992D01*
X144835646Y-88087196D01*
X144814233Y-88045170D01*
X144800500Y-87987968D01*
X144800500Y-87807508D01*
X144820502Y-87739387D01*
X144874158Y-87692894D01*
X144882270Y-87689526D01*
X144922287Y-87674524D01*
X144930695Y-87671372D01*
X145039687Y-87589687D01*
X145121372Y-87480695D01*
X145169184Y-87353157D01*
X145170648Y-87339687D01*
X145175131Y-87298414D01*
X145175131Y-87298410D01*
X145175500Y-87295015D01*
X145175499Y-86704986D01*
X145169184Y-86646843D01*
X145121372Y-86519305D01*
X145039687Y-86410313D01*
X144930695Y-86328628D01*
X144803157Y-86280816D01*
X144795304Y-86279963D01*
X144795300Y-86279962D01*
X144748414Y-86274869D01*
X144748410Y-86274869D01*
X144745015Y-86274500D01*
X144731941Y-86274500D01*
X144375999Y-86274501D01*
X144307880Y-86254499D01*
X144261387Y-86200844D01*
X144250000Y-86148501D01*
X144250000Y-85000000D01*
X139876500Y-85000000D01*
X139808379Y-84979998D01*
X139761886Y-84926342D01*
X139750500Y-84874000D01*
X139750500Y-84200820D01*
X139770502Y-84132699D01*
X139800936Y-84099993D01*
X139807504Y-84095071D01*
X139807506Y-84095069D01*
X139814687Y-84089687D01*
X139820068Y-84082507D01*
X139820071Y-84082504D01*
X139851280Y-84040862D01*
X145320497Y-84040862D01*
X145321737Y-84048078D01*
X145321737Y-84048080D01*
X145348894Y-84206125D01*
X145350134Y-84213340D01*
X145418654Y-84374373D01*
X145422988Y-84380262D01*
X145422993Y-84380271D01*
X145433782Y-84394931D01*
X145451182Y-84427863D01*
X145466055Y-84470213D01*
X145472366Y-84488184D01*
X145477958Y-84495754D01*
X145477959Y-84495757D01*
X145484305Y-84504348D01*
X145552850Y-84597150D01*
X145560421Y-84602742D01*
X145654243Y-84672041D01*
X145654246Y-84672042D01*
X145661816Y-84677634D01*
X145789631Y-84722519D01*
X145797277Y-84723242D01*
X145797278Y-84723242D01*
X145803248Y-84723806D01*
X145821166Y-84725500D01*
X145867047Y-84725500D01*
X145896995Y-84729111D01*
X145981606Y-84749815D01*
X145987206Y-84750162D01*
X145987210Y-84750163D01*
X145990709Y-84750380D01*
X145990718Y-84750380D01*
X145992648Y-84750500D01*
X146660532Y-84750500D01*
X146728653Y-84770502D01*
X146749629Y-84787406D01*
X146757503Y-84795280D01*
X146764399Y-84805601D01*
X146847260Y-84860966D01*
X146920326Y-84875500D01*
X148569674Y-84875500D01*
X148642740Y-84860966D01*
X148725601Y-84805601D01*
X148780966Y-84722740D01*
X148795500Y-84649674D01*
X148795500Y-83000326D01*
X148780966Y-82927260D01*
X148767362Y-82906899D01*
X148732493Y-82854714D01*
X148725601Y-82844399D01*
X148668436Y-82806203D01*
X148653058Y-82795928D01*
X148653057Y-82795928D01*
X148642740Y-82789034D01*
X148569674Y-82774500D01*
X146920326Y-82774500D01*
X146847260Y-82789034D01*
X146836943Y-82795928D01*
X146836942Y-82795928D01*
X146821564Y-82806203D01*
X146764399Y-82844399D01*
X146757507Y-82854714D01*
X146722639Y-82906899D01*
X146709034Y-82927260D01*
X146694500Y-83000326D01*
X146694500Y-83123500D01*
X146674498Y-83191621D01*
X146620842Y-83238114D01*
X146568500Y-83249500D01*
X146031178Y-83249500D01*
X145939631Y-83260173D01*
X145908444Y-83263809D01*
X145908442Y-83263809D01*
X145901172Y-83264657D01*
X145894292Y-83267154D01*
X145887165Y-83268839D01*
X145887042Y-83268318D01*
X145851894Y-83274500D01*
X145821166Y-83274500D01*
X145803248Y-83276194D01*
X145797278Y-83276758D01*
X145797277Y-83276758D01*
X145789631Y-83277481D01*
X145661816Y-83322366D01*
X145654246Y-83327958D01*
X145654243Y-83327959D01*
X145571080Y-83389385D01*
X145552850Y-83402850D01*
X145547258Y-83410421D01*
X145477959Y-83504243D01*
X145477958Y-83504246D01*
X145472366Y-83511816D01*
X145469247Y-83520698D01*
X145448413Y-83580026D01*
X145438487Y-83601557D01*
X145382061Y-83698702D01*
X145331333Y-83866193D01*
X145320497Y-84040862D01*
X139851280Y-84040862D01*
X139890986Y-83987881D01*
X139896372Y-83980695D01*
X139944184Y-83853157D01*
X139945037Y-83845304D01*
X139945038Y-83845300D01*
X139950131Y-83798414D01*
X139950131Y-83798410D01*
X139950500Y-83795015D01*
X139950499Y-83204986D01*
X139944184Y-83146843D01*
X139896372Y-83019305D01*
X139836510Y-82939431D01*
X139820071Y-82917496D01*
X139820068Y-82917493D01*
X139814687Y-82910313D01*
X139807506Y-82904931D01*
X139807504Y-82904929D01*
X139800936Y-82900007D01*
X139758420Y-82843149D01*
X139750500Y-82799180D01*
X139750500Y-82679265D01*
X139770502Y-82611144D01*
X139784907Y-82593269D01*
X139789687Y-82589687D01*
X139871372Y-82480695D01*
X139919184Y-82353157D01*
X139920037Y-82345304D01*
X139920038Y-82345300D01*
X139925131Y-82298414D01*
X139925131Y-82298410D01*
X139925500Y-82295015D01*
X139925499Y-81704986D01*
X139919184Y-81646843D01*
X139871372Y-81519305D01*
X139789687Y-81410313D01*
X139786271Y-81407753D01*
X139753379Y-81347518D01*
X139750500Y-81320735D01*
X139750500Y-81260179D01*
X139770502Y-81192058D01*
X139800936Y-81159352D01*
X139834293Y-81134353D01*
X139834296Y-81134350D01*
X139841472Y-81128972D01*
X139922083Y-81021412D01*
X139959857Y-80920649D01*
X139966494Y-80902946D01*
X139966494Y-80902944D01*
X139969266Y-80895551D01*
X139975500Y-80838165D01*
X139975499Y-80311836D01*
X139969266Y-80254449D01*
X139934019Y-80160426D01*
X139925235Y-80136996D01*
X139922083Y-80128588D01*
X139916157Y-80120680D01*
X139846850Y-80028204D01*
X139841472Y-80021028D01*
X139834296Y-80015650D01*
X139834293Y-80015647D01*
X139783162Y-79977327D01*
X139740646Y-79920468D01*
X139735620Y-79849649D01*
X139769679Y-79787356D01*
X139832010Y-79753365D01*
X139858726Y-79750500D01*
X140756322Y-79750500D01*
X140759179Y-79750167D01*
X140764929Y-79750000D01*
X142193184Y-79750000D01*
X142200993Y-79750242D01*
X142205148Y-79750500D01*
X143773822Y-79750500D01*
X143776674Y-79750168D01*
X143782415Y-79750001D01*
X144920001Y-79750001D01*
X144920001Y-79744682D01*
X144945510Y-79737192D01*
X144957484Y-79729497D01*
X145003167Y-79725433D01*
X145003193Y-79724947D01*
X145006576Y-79725130D01*
X145006578Y-79725130D01*
X145006584Y-79725131D01*
X145006592Y-79725131D01*
X145009985Y-79725500D01*
X145222045Y-79725500D01*
X145251994Y-79729111D01*
X145336606Y-79749815D01*
X145342206Y-79750162D01*
X145342210Y-79750163D01*
X145345709Y-79750380D01*
X145345718Y-79750380D01*
X145347648Y-79750500D01*
X146568500Y-79750500D01*
X146636621Y-79770502D01*
X146683114Y-79824158D01*
X146694500Y-79876500D01*
X146694500Y-79999674D01*
X146709034Y-80072740D01*
X146764399Y-80155601D01*
X146774714Y-80162493D01*
X146836076Y-80203493D01*
X146847260Y-80210966D01*
X146920326Y-80225500D01*
X148569674Y-80225500D01*
X148642740Y-80210966D01*
X148653925Y-80203493D01*
X148715286Y-80162493D01*
X148725601Y-80155601D01*
X148780966Y-80072740D01*
X148795500Y-79999674D01*
X148795500Y-78350326D01*
X148780966Y-78277260D01*
X148772546Y-78264657D01*
X148732493Y-78204714D01*
X148725601Y-78194399D01*
X148663585Y-78152962D01*
X148653058Y-78145928D01*
X148653057Y-78145928D01*
X148642740Y-78139034D01*
X148569674Y-78124500D01*
X146920326Y-78124500D01*
X146847260Y-78139034D01*
X146836943Y-78145928D01*
X146836942Y-78145928D01*
X146776724Y-78186164D01*
X146764399Y-78194399D01*
X146757503Y-78204720D01*
X146749629Y-78212594D01*
X146687317Y-78246620D01*
X146660532Y-78249500D01*
X145386178Y-78249500D01*
X145307782Y-78258640D01*
X145263443Y-78263809D01*
X145263441Y-78263810D01*
X145256172Y-78264657D01*
X145249291Y-78267155D01*
X145242167Y-78268839D01*
X145242044Y-78268319D01*
X145206893Y-78274501D01*
X145009986Y-78274501D01*
X145006590Y-78274870D01*
X145006587Y-78274870D01*
X145002823Y-78275279D01*
X144932942Y-78262746D01*
X144920000Y-78254108D01*
X144920000Y-78250001D01*
X144383926Y-78250001D01*
X144315805Y-78229999D01*
X144269312Y-78176343D01*
X144259208Y-78106069D01*
X144288702Y-78041489D01*
X144308358Y-78023177D01*
X144319687Y-78014687D01*
X144401372Y-77905695D01*
X144449184Y-77778157D01*
X144450037Y-77770304D01*
X144450038Y-77770300D01*
X144455131Y-77723414D01*
X144455131Y-77723410D01*
X144455500Y-77720015D01*
X144455500Y-77657953D01*
X144459111Y-77628005D01*
X144474618Y-77564632D01*
X144479815Y-77543394D01*
X144480500Y-77532352D01*
X144480500Y-75991449D01*
X144500502Y-75923328D01*
X144526795Y-75896560D01*
X144526507Y-75896272D01*
X144535286Y-75887493D01*
X144545601Y-75880601D01*
X144600966Y-75797740D01*
X144615500Y-75724674D01*
X144615500Y-72376000D01*
X144635502Y-72307879D01*
X144689158Y-72261386D01*
X144741500Y-72250000D01*
X161374000Y-72250000D01*
X161442121Y-72270002D01*
G37*
%TD.AperFunction*%
%TA.AperFunction,Conductor*%
G36*
X133453355Y-87770002D02*
G01*
X133474328Y-87786903D01*
X133479932Y-87792507D01*
X133485313Y-87799687D01*
X133492493Y-87805068D01*
X133492496Y-87805071D01*
X133527567Y-87831355D01*
X133594305Y-87881372D01*
X133721843Y-87929184D01*
X133729696Y-87930037D01*
X133729700Y-87930038D01*
X133776586Y-87935131D01*
X133776590Y-87935131D01*
X133779985Y-87935500D01*
X134049960Y-87935500D01*
X134320014Y-87935499D01*
X134378157Y-87929184D01*
X134505695Y-87881372D01*
X134572433Y-87831355D01*
X134607504Y-87805071D01*
X134607507Y-87805068D01*
X134614687Y-87799687D01*
X134620068Y-87792507D01*
X134625672Y-87786903D01*
X134687985Y-87752879D01*
X134714766Y-87750000D01*
X134935234Y-87750000D01*
X135003355Y-87770002D01*
X135024328Y-87786903D01*
X135029932Y-87792507D01*
X135035313Y-87799687D01*
X135042493Y-87805068D01*
X135042496Y-87805071D01*
X135077567Y-87831355D01*
X135144305Y-87881372D01*
X135271843Y-87929184D01*
X135279696Y-87930037D01*
X135279700Y-87930038D01*
X135326586Y-87935131D01*
X135326590Y-87935131D01*
X135329985Y-87935500D01*
X135599960Y-87935500D01*
X135870014Y-87935499D01*
X135928157Y-87929184D01*
X136055695Y-87881372D01*
X136122433Y-87831355D01*
X136157504Y-87805071D01*
X136157507Y-87805068D01*
X136164687Y-87799687D01*
X136170068Y-87792507D01*
X136175672Y-87786903D01*
X136237985Y-87752879D01*
X136264766Y-87750000D01*
X136534150Y-87750000D01*
X136602271Y-87770002D01*
X136608491Y-87774777D01*
X136608600Y-87774623D01*
X136614794Y-87779025D01*
X136620410Y-87784135D01*
X136664141Y-87807879D01*
X136752099Y-87855637D01*
X136752101Y-87855638D01*
X136758776Y-87859262D01*
X136766125Y-87861190D01*
X136903719Y-87897287D01*
X136903721Y-87897287D01*
X136911069Y-87899215D01*
X136994380Y-87900524D01*
X137060898Y-87901569D01*
X137060901Y-87901569D01*
X137068495Y-87901688D01*
X137221968Y-87866538D01*
X137362625Y-87795795D01*
X137380898Y-87780189D01*
X137445686Y-87751158D01*
X137462728Y-87750000D01*
X138223500Y-87750000D01*
X138291621Y-87770002D01*
X138338114Y-87823658D01*
X138349500Y-87876000D01*
X138349500Y-88878500D01*
X138329498Y-88946621D01*
X138275842Y-88993114D01*
X138223500Y-89004500D01*
X136766782Y-89004500D01*
X136762232Y-89005170D01*
X136762229Y-89005170D01*
X136738575Y-89008652D01*
X136697888Y-89014642D01*
X136689097Y-89018958D01*
X136689094Y-89018959D01*
X136642974Y-89041603D01*
X136587444Y-89054500D01*
X136173083Y-89054500D01*
X136104962Y-89034498D01*
X136083987Y-89017595D01*
X135837856Y-88771463D01*
X135565909Y-88499516D01*
X135565895Y-88499503D01*
X135543342Y-88476950D01*
X135523746Y-88466965D01*
X135506893Y-88456639D01*
X135489090Y-88443704D01*
X135468166Y-88436905D01*
X135449906Y-88429341D01*
X135439141Y-88423856D01*
X135439137Y-88423855D01*
X135430304Y-88419354D01*
X135420513Y-88417803D01*
X135420512Y-88417803D01*
X135408578Y-88415913D01*
X135389353Y-88411297D01*
X135377868Y-88407565D01*
X135377864Y-88407564D01*
X135368433Y-88404500D01*
X134212570Y-88404500D01*
X134157237Y-88391700D01*
X134129130Y-88377961D01*
X134101518Y-88364464D01*
X134071027Y-88360016D01*
X134037744Y-88355160D01*
X134037740Y-88355160D01*
X134033218Y-88354500D01*
X133376000Y-88354500D01*
X133307879Y-88334498D01*
X133261386Y-88280842D01*
X133250000Y-88228500D01*
X133250000Y-87876000D01*
X133270002Y-87807879D01*
X133323658Y-87761386D01*
X133376000Y-87750000D01*
X133385234Y-87750000D01*
X133453355Y-87770002D01*
G37*
%TD.AperFunction*%
%TA.AperFunction,Conductor*%
G36*
X136609556Y-80333002D02*
G01*
X136656049Y-80386658D01*
X136666153Y-80456932D01*
X136636659Y-80521512D01*
X136611436Y-80543766D01*
X136552490Y-80583152D01*
X136539399Y-80591899D01*
X136484034Y-80674760D01*
X136469500Y-80747826D01*
X136469500Y-81077174D01*
X136484034Y-81150240D01*
X136539399Y-81233101D01*
X136622260Y-81288466D01*
X136687481Y-81301439D01*
X136750390Y-81334346D01*
X136785522Y-81396041D01*
X136781722Y-81466936D01*
X136751994Y-81514113D01*
X136291012Y-81975095D01*
X136228700Y-82009121D01*
X136201917Y-82012000D01*
X136042459Y-82012000D01*
X135974338Y-81991998D01*
X135931055Y-81940205D01*
X135930966Y-81939760D01*
X135902955Y-81897837D01*
X135892097Y-81881587D01*
X135875601Y-81856899D01*
X135792740Y-81801534D01*
X135719674Y-81787000D01*
X134820326Y-81787000D01*
X134747260Y-81801534D01*
X134664399Y-81856899D01*
X134609034Y-81939760D01*
X134594500Y-82012826D01*
X134594500Y-82728443D01*
X134574498Y-82796564D01*
X134520842Y-82843057D01*
X134450568Y-82853161D01*
X134442838Y-82851040D01*
X134442740Y-82851534D01*
X134369674Y-82837000D01*
X133470326Y-82837000D01*
X133464253Y-82838208D01*
X133458852Y-82838740D01*
X133389098Y-82825512D01*
X133337570Y-82776673D01*
X133320500Y-82713347D01*
X133320500Y-81429000D01*
X133340502Y-81360879D01*
X133394158Y-81314386D01*
X133446500Y-81303000D01*
X133864674Y-81303000D01*
X133937740Y-81288466D01*
X134020601Y-81233101D01*
X134075966Y-81150240D01*
X134090500Y-81077174D01*
X134090500Y-80747826D01*
X134078417Y-80687082D01*
X134078417Y-80637918D01*
X134087571Y-80591899D01*
X134090500Y-80577174D01*
X134090500Y-80439000D01*
X134110502Y-80370879D01*
X134164158Y-80324386D01*
X134216500Y-80313000D01*
X136541435Y-80313000D01*
X136609556Y-80333002D01*
G37*
%TD.AperFunction*%
%TD*%
M02*
