%TF.GenerationSoftware,KiCad,Pcbnew,9.0.0*%
%TF.CreationDate,2025-12-16T10:10:06+01:00*%
%TF.ProjectId,DetectorReader,44657465-6374-46f7-9252-65616465722e,rev?*%
%TF.SameCoordinates,Original*%
%TF.FileFunction,Soldermask,Top*%
%TF.FilePolarity,Negative*%
%FSLAX46Y46*%
G04 Gerber Fmt 4.6, Leading zero omitted, Abs format (unit mm)*
G04 Created by KiCad (PCBNEW 9.0.0) date 2025-12-16 10:10:06*
%MOMM*%
%LPD*%
G01*
G04 APERTURE LIST*
G04 Aperture macros list*
%AMRoundRect*
0 Rectangle with rounded corners*
0 $1 Rounding radius*
0 $2 $3 $4 $5 $6 $7 $8 $9 X,Y pos of 4 corners*
0 Add a 4 corners polygon primitive as box body*
4,1,4,$2,$3,$4,$5,$6,$7,$8,$9,$2,$3,0*
0 Add four circle primitives for the rounded corners*
1,1,$1+$1,$2,$3*
1,1,$1+$1,$4,$5*
1,1,$1+$1,$6,$7*
1,1,$1+$1,$8,$9*
0 Add four rect primitives between the rounded corners*
20,1,$1+$1,$2,$3,$4,$5,0*
20,1,$1+$1,$4,$5,$6,$7,0*
20,1,$1+$1,$6,$7,$8,$9,0*
20,1,$1+$1,$8,$9,$2,$3,0*%
%AMFreePoly0*
4,1,13,1.650000,1.015000,3.020000,1.015000,3.020000,-1.015000,1.650000,-1.015000,1.650000,-2.385000,-1.650000,-2.385000,-1.650000,-1.015000,-3.020000,-1.015000,-3.020000,1.015000,-1.650000,1.015000,-1.650000,2.385000,1.650000,2.385000,1.650000,1.015000,1.650000,1.015000,$1*%
G04 Aperture macros list end*
%ADD10RoundRect,0.225000X-0.250000X0.225000X-0.250000X-0.225000X0.250000X-0.225000X0.250000X0.225000X0*%
%ADD11RoundRect,0.225000X0.225000X0.250000X-0.225000X0.250000X-0.225000X-0.250000X0.225000X-0.250000X0*%
%ADD12RoundRect,0.200000X0.200000X0.275000X-0.200000X0.275000X-0.200000X-0.275000X0.200000X-0.275000X0*%
%ADD13RoundRect,0.100000X0.712500X0.100000X-0.712500X0.100000X-0.712500X-0.100000X0.712500X-0.100000X0*%
%ADD14RoundRect,0.218750X-0.256250X0.218750X-0.256250X-0.218750X0.256250X-0.218750X0.256250X0.218750X0*%
%ADD15C,1.700000*%
%ADD16RoundRect,0.225000X0.250000X-0.225000X0.250000X0.225000X-0.250000X0.225000X-0.250000X-0.225000X0*%
%ADD17RoundRect,0.200000X-0.275000X0.200000X-0.275000X-0.200000X0.275000X-0.200000X0.275000X0.200000X0*%
%ADD18RoundRect,0.225000X-0.225000X-0.250000X0.225000X-0.250000X0.225000X0.250000X-0.225000X0.250000X0*%
%ADD19RoundRect,0.150000X-0.512500X-0.150000X0.512500X-0.150000X0.512500X0.150000X-0.512500X0.150000X0*%
%ADD20RoundRect,0.100000X0.637500X0.100000X-0.637500X0.100000X-0.637500X-0.100000X0.637500X-0.100000X0*%
%ADD21R,0.800000X1.200000*%
%ADD22R,1.700000X1.700000*%
%ADD23O,1.700000X1.700000*%
%ADD24RoundRect,0.200000X-0.200000X-0.275000X0.200000X-0.275000X0.200000X0.275000X-0.200000X0.275000X0*%
%ADD25R,1.600000X1.600000*%
%ADD26FreePoly0,0.000000*%
%ADD27RoundRect,0.150000X-0.425000X0.150000X-0.425000X-0.150000X0.425000X-0.150000X0.425000X0.150000X0*%
%ADD28RoundRect,0.075000X-0.500000X0.075000X-0.500000X-0.075000X0.500000X-0.075000X0.500000X0.075000X0*%
%ADD29O,2.100000X1.000000*%
%ADD30O,1.800000X1.000000*%
%ADD31RoundRect,0.200000X0.275000X-0.200000X0.275000X0.200000X-0.275000X0.200000X-0.275000X-0.200000X0*%
%ADD32RoundRect,0.150000X-0.825000X-0.150000X0.825000X-0.150000X0.825000X0.150000X-0.825000X0.150000X0*%
%ADD33RoundRect,0.062500X-0.062500X0.350000X-0.062500X-0.350000X0.062500X-0.350000X0.062500X0.350000X0*%
%ADD34RoundRect,0.062500X-0.350000X0.062500X-0.350000X-0.062500X0.350000X-0.062500X0.350000X0.062500X0*%
%ADD35R,2.500000X2.500000*%
%ADD36RoundRect,0.250000X1.350000X-0.385000X1.350000X0.385000X-1.350000X0.385000X-1.350000X-0.385000X0*%
%ADD37RoundRect,0.250000X1.600000X-0.425000X1.600000X0.425000X-1.600000X0.425000X-1.600000X-0.425000X0*%
%ADD38RoundRect,0.218750X-0.218750X-0.256250X0.218750X-0.256250X0.218750X0.256250X-0.218750X0.256250X0*%
%ADD39RoundRect,0.075000X0.650000X0.075000X-0.650000X0.075000X-0.650000X-0.075000X0.650000X-0.075000X0*%
%ADD40RoundRect,0.112500X-0.237500X0.112500X-0.237500X-0.112500X0.237500X-0.112500X0.237500X0.112500X0*%
%ADD41RoundRect,0.150000X0.150000X-0.587500X0.150000X0.587500X-0.150000X0.587500X-0.150000X-0.587500X0*%
%ADD42R,0.900000X0.800000*%
G04 APERTURE END LIST*
D10*
%TO.C,C10*%
X139900000Y-74725000D03*
X139900000Y-76275000D03*
%TD*%
D11*
%TO.C,C14*%
X135450000Y-86600000D03*
X133900000Y-86600000D03*
%TD*%
D12*
%TO.C,R10*%
X143925000Y-89450000D03*
X142275000Y-89450000D03*
%TD*%
D13*
%TO.C,U7*%
X159525000Y-93275000D03*
X159525000Y-92625000D03*
X159525000Y-91975000D03*
X159525000Y-91325000D03*
X155300000Y-91325000D03*
X155300000Y-91975000D03*
X155300000Y-92625000D03*
X155300000Y-93275000D03*
%TD*%
D11*
%TO.C,C2*%
X125987500Y-79425000D03*
X124437500Y-79425000D03*
%TD*%
D14*
%TO.C,L5*%
X133900000Y-83612500D03*
X133900000Y-85187500D03*
%TD*%
D15*
%TO.C,TP2*%
X129580000Y-96000000D03*
%TD*%
D16*
%TO.C,C17*%
X155312500Y-96175000D03*
X155312500Y-94625000D03*
%TD*%
D17*
%TO.C,R7*%
X138400000Y-93925000D03*
X138400000Y-95575000D03*
%TD*%
D16*
%TO.C,C18*%
X147700000Y-95825000D03*
X147700000Y-94275000D03*
%TD*%
D18*
%TO.C,C16*%
X142325000Y-96400000D03*
X143875000Y-96400000D03*
%TD*%
D17*
%TO.C,R5*%
X149200000Y-91325000D03*
X149200000Y-92975000D03*
%TD*%
D16*
%TO.C,C3*%
X119900000Y-82875000D03*
X119900000Y-81325000D03*
%TD*%
D10*
%TO.C,C12*%
X143000000Y-77800000D03*
X143000000Y-79350000D03*
%TD*%
D19*
%TO.C,U3*%
X127725000Y-81400000D03*
X127725000Y-82350000D03*
X127725000Y-83300000D03*
X130000000Y-83300000D03*
X130000000Y-81400000D03*
%TD*%
D20*
%TO.C,U6*%
X145962500Y-94900000D03*
X145962500Y-94250000D03*
X145962500Y-93600000D03*
X145962500Y-92950000D03*
X145962500Y-92300000D03*
X145962500Y-91650000D03*
X145962500Y-91000000D03*
X140237500Y-91000000D03*
X140237500Y-91650000D03*
X140237500Y-92300000D03*
X140237500Y-92950000D03*
X140237500Y-93600000D03*
X140237500Y-94250000D03*
X140237500Y-94900000D03*
%TD*%
D14*
%TO.C,L3*%
X141600000Y-76225000D03*
X141600000Y-77800000D03*
%TD*%
D16*
%TO.C,C4*%
X124500000Y-82875000D03*
X124500000Y-81325000D03*
%TD*%
D21*
%TO.C,D1*%
X115950000Y-93320000D03*
X115950000Y-90520000D03*
X117450000Y-93320000D03*
X117450000Y-90520000D03*
%TD*%
D22*
%TO.C,J1*%
X111800000Y-96000000D03*
D23*
X111800000Y-93460000D03*
X111800000Y-90920000D03*
X111800000Y-88380000D03*
X111800000Y-85840000D03*
%TD*%
D15*
%TO.C,TP5*%
X134660000Y-90920000D03*
%TD*%
D17*
%TO.C,R4*%
X119900000Y-77975000D03*
X119900000Y-79625000D03*
%TD*%
D24*
%TO.C,R13*%
X132675000Y-96400000D03*
X134325000Y-96400000D03*
%TD*%
D11*
%TO.C,C1*%
X122975000Y-86020000D03*
X121425000Y-86020000D03*
%TD*%
D25*
%TO.C,U1*%
X153340000Y-77825000D03*
X159260000Y-77825000D03*
X159260000Y-82475000D03*
X153340000Y-82475000D03*
D26*
X156300000Y-80150000D03*
%TD*%
D12*
%TO.C,R11*%
X147525000Y-89450000D03*
X145875000Y-89450000D03*
%TD*%
D27*
%TO.C,J3*%
X117380000Y-74300000D03*
X117380000Y-75100000D03*
D28*
X117380000Y-76250000D03*
X117380000Y-77250000D03*
X117380000Y-77750000D03*
X117380000Y-78750000D03*
D27*
X117380000Y-79900000D03*
X117380000Y-80700000D03*
X117380000Y-80700000D03*
X117380000Y-79900000D03*
D28*
X117380000Y-79250000D03*
X117380000Y-78250000D03*
X117380000Y-76750000D03*
X117380000Y-75750000D03*
D27*
X117380000Y-75100000D03*
X117380000Y-74300000D03*
D29*
X116805000Y-73180000D03*
D30*
X112625000Y-73180000D03*
D29*
X116805000Y-81820000D03*
D30*
X112625000Y-81820000D03*
%TD*%
D11*
%TO.C,C23*%
X143875000Y-87950000D03*
X142325000Y-87950000D03*
%TD*%
D18*
%TO.C,C25*%
X138725000Y-87950000D03*
X140275000Y-87950000D03*
%TD*%
D14*
%TO.C,L6*%
X161412500Y-91625000D03*
X161412500Y-93200000D03*
%TD*%
D17*
%TO.C,R6*%
X149200000Y-94225000D03*
X149200000Y-95875000D03*
%TD*%
D11*
%TO.C,C11*%
X150175000Y-77800000D03*
X148625000Y-77800000D03*
%TD*%
D16*
%TO.C,C20*%
X162862500Y-93200000D03*
X162862500Y-91650000D03*
%TD*%
D31*
%TO.C,R3*%
X119900000Y-74825000D03*
X119900000Y-73175000D03*
%TD*%
D18*
%TO.C,C24*%
X145925000Y-87950000D03*
X147475000Y-87950000D03*
%TD*%
D15*
%TO.C,TP1*%
X129580000Y-88380000D03*
%TD*%
D32*
%TO.C,U2*%
X119725000Y-87710000D03*
X119725000Y-88980000D03*
X119725000Y-90250000D03*
X119725000Y-91520000D03*
X119725000Y-92790000D03*
X119725000Y-94060000D03*
X119725000Y-95330000D03*
X124675000Y-95330000D03*
X124675000Y-94060000D03*
X124675000Y-92790000D03*
X124675000Y-91520000D03*
X124675000Y-90250000D03*
X124675000Y-88980000D03*
X124675000Y-87710000D03*
%TD*%
D33*
%TO.C,U4*%
X126062500Y-74062500D03*
X125562500Y-74062500D03*
X125062500Y-74062500D03*
X124562500Y-74062500D03*
X124062500Y-74062500D03*
D34*
X123125000Y-75000000D03*
X123125000Y-75500000D03*
X123125000Y-76000000D03*
X123125000Y-76500000D03*
X123125000Y-77000000D03*
D33*
X124062500Y-77937500D03*
X124562500Y-77937500D03*
X125062500Y-77937500D03*
X125562500Y-77937500D03*
X126062500Y-77937500D03*
D34*
X127000000Y-77000000D03*
X127000000Y-76500000D03*
X127000000Y-76000000D03*
X127000000Y-75500000D03*
X127000000Y-75000000D03*
D35*
X125062500Y-76000000D03*
%TD*%
D12*
%TO.C,R12*%
X140325000Y-89450000D03*
X138675000Y-89450000D03*
%TD*%
D11*
%TO.C,C21*%
X158187500Y-89600000D03*
X156637500Y-89600000D03*
%TD*%
D31*
%TO.C,R1*%
X151700000Y-81975000D03*
X151700000Y-80325000D03*
%TD*%
D36*
%TO.C,J4*%
X167937500Y-92825000D03*
D37*
X167687500Y-90000000D03*
X167687500Y-95650000D03*
%TD*%
D38*
%TO.C,L4*%
X144412500Y-77800000D03*
X145987500Y-77800000D03*
%TD*%
D39*
%TO.C,U5*%
X139900000Y-79800000D03*
X139900000Y-79300000D03*
X139900000Y-78800000D03*
X139900000Y-78300000D03*
X139900000Y-77800000D03*
X135500000Y-77800000D03*
X135500000Y-78300000D03*
X135500000Y-78800000D03*
X135500000Y-79300000D03*
X135500000Y-79800000D03*
%TD*%
D15*
%TO.C,TP4*%
X154980000Y-88380000D03*
%TD*%
D16*
%TO.C,C5*%
X126000000Y-82875000D03*
X126000000Y-81325000D03*
%TD*%
D40*
%TO.C,D3*%
X138800000Y-85300000D03*
X138800000Y-86600000D03*
X140800000Y-85950000D03*
%TD*%
D36*
%TO.C,J2*%
X167937500Y-77000000D03*
D37*
X167687500Y-74175000D03*
X167687500Y-79825000D03*
%TD*%
D10*
%TO.C,C22*%
X152312500Y-87325000D03*
X152312500Y-88875000D03*
%TD*%
D41*
%TO.C,Q1*%
X151562500Y-92637500D03*
X153462500Y-92637500D03*
X152512500Y-90762500D03*
%TD*%
D16*
%TO.C,C15*%
X153812500Y-96175000D03*
X153812500Y-94625000D03*
%TD*%
%TO.C,C7*%
X122262500Y-79575000D03*
X122262500Y-78025000D03*
%TD*%
D40*
%TO.C,D2*%
X146000000Y-85300000D03*
X146000000Y-86600000D03*
X148000000Y-85950000D03*
%TD*%
D42*
%TO.C,Y1*%
X138300000Y-81450000D03*
X136900000Y-81450000D03*
X136900000Y-82550000D03*
X138300000Y-82550000D03*
%TD*%
D11*
%TO.C,C19*%
X164412500Y-93200000D03*
X162862500Y-93200000D03*
%TD*%
D10*
%TO.C,C8*%
X135300000Y-74725000D03*
X135300000Y-76275000D03*
%TD*%
D16*
%TO.C,C9*%
X137600000Y-76275000D03*
X137600000Y-74725000D03*
%TD*%
D17*
%TO.C,R8*%
X138400000Y-90925000D03*
X138400000Y-92575000D03*
%TD*%
D38*
%TO.C,L1*%
X121412500Y-81300000D03*
X122987500Y-81300000D03*
%TD*%
D17*
%TO.C,R2*%
X117500000Y-87195000D03*
X117500000Y-88845000D03*
%TD*%
D18*
%TO.C,C6*%
X128487500Y-79750000D03*
X130037500Y-79750000D03*
%TD*%
D10*
%TO.C,C13*%
X147300000Y-77800000D03*
X147300000Y-79350000D03*
%TD*%
D12*
%TO.C,R9*%
X152312500Y-85800000D03*
X150662500Y-85800000D03*
%TD*%
D15*
%TO.C,TP3*%
X129580000Y-93460000D03*
%TD*%
D38*
%TO.C,L2*%
X132112500Y-76200000D03*
X133687500Y-76200000D03*
%TD*%
M02*
