%TF.GenerationSoftware,KiCad,Pcbnew,9.0.0*%
%TF.CreationDate,2026-02-19T21:59:45+01:00*%
%TF.ProjectId,DetectorReader,44657465-6374-46f7-9252-65616465722e,rev?*%
%TF.SameCoordinates,Original*%
%TF.FileFunction,Soldermask,Top*%
%TF.FilePolarity,Negative*%
%FSLAX46Y46*%
G04 Gerber Fmt 4.6, Leading zero omitted, Abs format (unit mm)*
G04 Created by KiCad (PCBNEW 9.0.0) date 2026-02-19 21:59:45*
%MOMM*%
%LPD*%
G01*
G04 APERTURE LIST*
G04 Aperture macros list*
%AMRoundRect*
0 Rectangle with rounded corners*
0 $1 Rounding radius*
0 $2 $3 $4 $5 $6 $7 $8 $9 X,Y pos of 4 corners*
0 Add a 4 corners polygon primitive as box body*
4,1,4,$2,$3,$4,$5,$6,$7,$8,$9,$2,$3,0*
0 Add four circle primitives for the rounded corners*
1,1,$1+$1,$2,$3*
1,1,$1+$1,$4,$5*
1,1,$1+$1,$6,$7*
1,1,$1+$1,$8,$9*
0 Add four rect primitives between the rounded corners*
20,1,$1+$1,$2,$3,$4,$5,0*
20,1,$1+$1,$4,$5,$6,$7,0*
20,1,$1+$1,$6,$7,$8,$9,0*
20,1,$1+$1,$8,$9,$2,$3,0*%
G04 Aperture macros list end*
%ADD10RoundRect,0.225000X-0.250000X0.225000X-0.250000X-0.225000X0.250000X-0.225000X0.250000X0.225000X0*%
%ADD11RoundRect,0.218750X0.218750X0.256250X-0.218750X0.256250X-0.218750X-0.256250X0.218750X-0.256250X0*%
%ADD12RoundRect,0.150000X0.587500X0.150000X-0.587500X0.150000X-0.587500X-0.150000X0.587500X-0.150000X0*%
%ADD13RoundRect,0.218750X-0.256250X0.218750X-0.256250X-0.218750X0.256250X-0.218750X0.256250X0.218750X0*%
%ADD14RoundRect,0.225000X0.225000X0.250000X-0.225000X0.250000X-0.225000X-0.250000X0.225000X-0.250000X0*%
%ADD15RoundRect,0.200000X-0.275000X0.200000X-0.275000X-0.200000X0.275000X-0.200000X0.275000X0.200000X0*%
%ADD16RoundRect,0.225000X0.250000X-0.225000X0.250000X0.225000X-0.250000X0.225000X-0.250000X-0.225000X0*%
%ADD17RoundRect,0.250000X1.600000X-0.425000X1.600000X0.425000X-1.600000X0.425000X-1.600000X-0.425000X0*%
%ADD18RoundRect,0.250000X1.350000X-0.385000X1.350000X0.385000X-1.350000X0.385000X-1.350000X-0.385000X0*%
%ADD19RoundRect,0.218750X-0.218750X-0.256250X0.218750X-0.256250X0.218750X0.256250X-0.218750X0.256250X0*%
%ADD20RoundRect,0.075000X0.650000X0.075000X-0.650000X0.075000X-0.650000X-0.075000X0.650000X-0.075000X0*%
%ADD21C,1.700000*%
%ADD22RoundRect,0.200000X-0.200000X-0.275000X0.200000X-0.275000X0.200000X0.275000X-0.200000X0.275000X0*%
%ADD23R,0.900000X0.800000*%
%ADD24RoundRect,0.150000X-0.587500X-0.150000X0.587500X-0.150000X0.587500X0.150000X-0.587500X0.150000X0*%
%ADD25RoundRect,0.062500X-0.062500X0.350000X-0.062500X-0.350000X0.062500X-0.350000X0.062500X0.350000X0*%
%ADD26RoundRect,0.062500X-0.350000X0.062500X-0.350000X-0.062500X0.350000X-0.062500X0.350000X0.062500X0*%
%ADD27R,2.600000X2.600000*%
%ADD28RoundRect,0.150000X-0.512500X-0.150000X0.512500X-0.150000X0.512500X0.150000X-0.512500X0.150000X0*%
%ADD29R,0.800000X1.200000*%
%ADD30R,1.700000X1.700000*%
%ADD31O,1.700000X1.700000*%
%ADD32RoundRect,0.150000X-0.425000X0.150000X-0.425000X-0.150000X0.425000X-0.150000X0.425000X0.150000X0*%
%ADD33RoundRect,0.075000X-0.500000X0.075000X-0.500000X-0.075000X0.500000X-0.075000X0.500000X0.075000X0*%
%ADD34O,2.100000X1.000000*%
%ADD35O,1.800000X1.000000*%
%ADD36RoundRect,0.200000X0.275000X-0.200000X0.275000X0.200000X-0.275000X0.200000X-0.275000X-0.200000X0*%
%ADD37RoundRect,0.150000X-0.825000X-0.150000X0.825000X-0.150000X0.825000X0.150000X-0.825000X0.150000X0*%
%ADD38RoundRect,0.100000X-0.225000X-0.100000X0.225000X-0.100000X0.225000X0.100000X-0.225000X0.100000X0*%
%ADD39RoundRect,0.225000X-0.225000X-0.250000X0.225000X-0.250000X0.225000X0.250000X-0.225000X0.250000X0*%
G04 APERTURE END LIST*
D10*
%TO.C,C7*%
X133693750Y-78795000D03*
X133693750Y-77245000D03*
%TD*%
D11*
%TO.C,L3*%
X144412500Y-82520000D03*
X145987500Y-82520000D03*
%TD*%
D10*
%TO.C,C9*%
X136793750Y-81870000D03*
X136793750Y-80320000D03*
%TD*%
D12*
%TO.C,Q2*%
X137862500Y-90920000D03*
X139737500Y-89970000D03*
X139737500Y-91870000D03*
%TD*%
D10*
%TO.C,C14*%
X134500000Y-90595000D03*
X134500000Y-89045000D03*
%TD*%
D13*
%TO.C,L1*%
X135393750Y-80320000D03*
X135393750Y-78745000D03*
%TD*%
D14*
%TO.C,C17*%
X140925000Y-93520000D03*
X142475000Y-93520000D03*
%TD*%
D15*
%TO.C,R9*%
X136000000Y-93645000D03*
X136000000Y-91995000D03*
%TD*%
D14*
%TO.C,C8*%
X142418750Y-80320000D03*
X143968750Y-80320000D03*
%TD*%
D16*
%TO.C,C12*%
X147500000Y-80320000D03*
X147500000Y-81870000D03*
%TD*%
D15*
%TO.C,R4*%
X140400000Y-85445000D03*
X140400000Y-83795000D03*
%TD*%
D16*
%TO.C,C13*%
X141900000Y-83845000D03*
X141900000Y-85395000D03*
%TD*%
D17*
%TO.C,J4*%
X152950000Y-97345000D03*
X152950000Y-91695000D03*
D18*
X153200000Y-94520000D03*
%TD*%
D19*
%TO.C,L2*%
X139781250Y-80320000D03*
X138206250Y-80320000D03*
%TD*%
D20*
%TO.C,U4*%
X129293750Y-82320000D03*
X129293750Y-81820000D03*
X129293750Y-81320000D03*
X129293750Y-80820000D03*
X129293750Y-80320000D03*
X133693750Y-80320000D03*
X133693750Y-80820000D03*
X133693750Y-81320000D03*
X133693750Y-81820000D03*
X133693750Y-82320000D03*
%TD*%
D21*
%TO.C,TP4*%
X140480000Y-87240000D03*
%TD*%
D22*
%TO.C,R12*%
X139425000Y-93520000D03*
X137775000Y-93520000D03*
%TD*%
D17*
%TO.C,J2*%
X152950000Y-82345000D03*
X152950000Y-76695000D03*
D18*
X153200000Y-79520000D03*
%TD*%
D12*
%TO.C,Q1*%
X143837500Y-91870000D03*
X143837500Y-89970000D03*
X141962500Y-90920000D03*
%TD*%
D15*
%TO.C,R7*%
X136000000Y-90645000D03*
X136000000Y-88995000D03*
%TD*%
D16*
%TO.C,C15*%
X134500000Y-92045000D03*
X134500000Y-93595000D03*
%TD*%
D23*
%TO.C,Y1*%
X132093750Y-85070000D03*
X130693750Y-85070000D03*
X130693750Y-83970000D03*
X132093750Y-83970000D03*
%TD*%
D16*
%TO.C,C11*%
X147500000Y-81870000D03*
X147500000Y-83420000D03*
%TD*%
%TO.C,C6*%
X131393750Y-77245000D03*
X131393750Y-78795000D03*
%TD*%
D24*
%TO.C,D2*%
X145737500Y-85020000D03*
X143862500Y-85970000D03*
X143862500Y-84070000D03*
%TD*%
D10*
%TO.C,C10*%
X141093750Y-81870000D03*
X141093750Y-80320000D03*
%TD*%
D25*
%TO.C,U3*%
X123050000Y-76582500D03*
X122550000Y-76582500D03*
X122050000Y-76582500D03*
X121550000Y-76582500D03*
X121050000Y-76582500D03*
X120550000Y-76582500D03*
D26*
X119862500Y-77270000D03*
X119862500Y-77770000D03*
X119862500Y-78270000D03*
X119862500Y-78770000D03*
X119862500Y-79270000D03*
X119862500Y-79770000D03*
D25*
X120550000Y-80457500D03*
X121050000Y-80457500D03*
X121550000Y-80457500D03*
X122050000Y-80457500D03*
X122550000Y-80457500D03*
X123050000Y-80457500D03*
D26*
X123737500Y-79770000D03*
X123737500Y-79270000D03*
X123737500Y-78770000D03*
X123737500Y-78270000D03*
X123737500Y-77770000D03*
X123737500Y-77270000D03*
D27*
X121800000Y-78520000D03*
%TD*%
D16*
%TO.C,C2*%
X125600000Y-78695000D03*
X125600000Y-77145000D03*
%TD*%
D22*
%TO.C,R6*%
X129675000Y-92020000D03*
X131325000Y-92020000D03*
%TD*%
D21*
%TO.C,TP2*%
X125240000Y-97380000D03*
%TD*%
D16*
%TO.C,C16*%
X128200000Y-91195000D03*
X128200000Y-89645000D03*
%TD*%
D28*
%TO.C,U2*%
X122937500Y-83770000D03*
X122937500Y-85670000D03*
X120662500Y-85670000D03*
X120662500Y-84720000D03*
X120662500Y-83770000D03*
%TD*%
D16*
%TO.C,C3*%
X118000000Y-85457500D03*
X118000000Y-83907500D03*
%TD*%
D29*
%TO.C,D1*%
X113250000Y-94720000D03*
X113250000Y-91920000D03*
X114750000Y-94720000D03*
X114750000Y-91920000D03*
%TD*%
D30*
%TO.C,J1*%
X110000000Y-97400000D03*
D31*
X110000000Y-94860000D03*
X110000000Y-92320000D03*
X110000000Y-89780000D03*
X110000000Y-87240000D03*
%TD*%
D21*
%TO.C,TP5*%
X132860000Y-94860000D03*
%TD*%
D15*
%TO.C,R3*%
X118000000Y-80995000D03*
X118000000Y-82645000D03*
%TD*%
D22*
%TO.C,R5*%
X127175000Y-97520000D03*
X128825000Y-97520000D03*
%TD*%
D14*
%TO.C,C1*%
X120075000Y-87520000D03*
X118525000Y-87520000D03*
%TD*%
D32*
%TO.C,J3*%
X115580000Y-76820000D03*
X115580000Y-77620000D03*
D33*
X115580000Y-78770000D03*
X115580000Y-79770000D03*
X115580000Y-80270000D03*
X115580000Y-81270000D03*
D32*
X115580000Y-82420000D03*
X115580000Y-83220000D03*
X115580000Y-83220000D03*
X115580000Y-82420000D03*
D33*
X115580000Y-81770000D03*
X115580000Y-80770000D03*
X115580000Y-79270000D03*
X115580000Y-78270000D03*
D32*
X115580000Y-77620000D03*
X115580000Y-76820000D03*
D34*
X115005000Y-75700000D03*
D35*
X110825000Y-75700000D03*
D34*
X115005000Y-84340000D03*
D35*
X110825000Y-84340000D03*
%TD*%
D36*
%TO.C,R2*%
X118000000Y-77345000D03*
X118000000Y-75695000D03*
%TD*%
D21*
%TO.C,TP1*%
X125240000Y-89760000D03*
%TD*%
D37*
%TO.C,U1*%
X116625000Y-89110000D03*
X116625000Y-90380000D03*
X116625000Y-91650000D03*
X116625000Y-92920000D03*
X116625000Y-94190000D03*
X116625000Y-95460000D03*
X116625000Y-96730000D03*
X121575000Y-96730000D03*
X121575000Y-95460000D03*
X121575000Y-94190000D03*
X121575000Y-92920000D03*
X121575000Y-91650000D03*
X121575000Y-90380000D03*
X121575000Y-89110000D03*
%TD*%
D15*
%TO.C,R8*%
X133000000Y-88995000D03*
X133000000Y-90645000D03*
%TD*%
D36*
%TO.C,R10*%
X128200000Y-95045000D03*
X128200000Y-93395000D03*
%TD*%
D38*
%TO.C,U5*%
X129650000Y-89170000D03*
X129650000Y-89820000D03*
X129650000Y-90470000D03*
X131550000Y-90470000D03*
X131550000Y-89170000D03*
%TD*%
D16*
%TO.C,C5*%
X119500000Y-82595000D03*
X119500000Y-81045000D03*
%TD*%
D36*
%TO.C,R11*%
X129700000Y-95045000D03*
X129700000Y-93395000D03*
%TD*%
D15*
%TO.C,R1*%
X114400000Y-88595000D03*
X114400000Y-90245000D03*
%TD*%
D39*
%TO.C,C4*%
X122125000Y-82420000D03*
X123675000Y-82420000D03*
%TD*%
D21*
%TO.C,TP3*%
X125240000Y-94840000D03*
%TD*%
M02*
