%TF.GenerationSoftware,KiCad,Pcbnew,(6.0.0-0)*%
%TF.CreationDate,2022-07-29T21:18:11+02:00*%
%TF.ProjectId,DetectorReader,44657465-6374-46f7-9252-65616465722e,rev?*%
%TF.SameCoordinates,Original*%
%TF.FileFunction,Copper,L1,Top*%
%TF.FilePolarity,Positive*%
%FSLAX46Y46*%
G04 Gerber Fmt 4.6, Leading zero omitted, Abs format (unit mm)*
G04 Created by KiCad (PCBNEW (6.0.0-0)) date 2022-07-29 21:18:11*
%MOMM*%
%LPD*%
G01*
G04 APERTURE LIST*
G04 Aperture macros list*
%AMRoundRect*
0 Rectangle with rounded corners*
0 $1 Rounding radius*
0 $2 $3 $4 $5 $6 $7 $8 $9 X,Y pos of 4 corners*
0 Add a 4 corners polygon primitive as box body*
4,1,4,$2,$3,$4,$5,$6,$7,$8,$9,$2,$3,0*
0 Add four circle primitives for the rounded corners*
1,1,$1+$1,$2,$3*
1,1,$1+$1,$4,$5*
1,1,$1+$1,$6,$7*
1,1,$1+$1,$8,$9*
0 Add four rect primitives between the rounded corners*
20,1,$1+$1,$2,$3,$4,$5,0*
20,1,$1+$1,$4,$5,$6,$7,0*
20,1,$1+$1,$6,$7,$8,$9,0*
20,1,$1+$1,$8,$9,$2,$3,0*%
%AMFreePoly0*
4,1,13,1.650000,1.015000,3.020000,1.015000,3.020000,-1.015000,1.650000,-1.015000,1.650000,-2.385000,-1.650000,-2.385000,-1.650000,-1.015000,-3.020000,-1.015000,-3.020000,1.015000,-1.650000,1.015000,-1.650000,2.385000,1.650000,2.385000,1.650000,1.015000,1.650000,1.015000,$1*%
G04 Aperture macros list end*
%TA.AperFunction,SMDPad,CuDef*%
%ADD10RoundRect,0.225000X0.250000X-0.225000X0.250000X0.225000X-0.250000X0.225000X-0.250000X-0.225000X0*%
%TD*%
%TA.AperFunction,SMDPad,CuDef*%
%ADD11RoundRect,0.225000X-0.250000X0.225000X-0.250000X-0.225000X0.250000X-0.225000X0.250000X0.225000X0*%
%TD*%
%TA.AperFunction,SMDPad,CuDef*%
%ADD12RoundRect,0.225000X0.225000X0.250000X-0.225000X0.250000X-0.225000X-0.250000X0.225000X-0.250000X0*%
%TD*%
%TA.AperFunction,SMDPad,CuDef*%
%ADD13R,0.300000X1.000000*%
%TD*%
%TA.AperFunction,SMDPad,CuDef*%
%ADD14RoundRect,0.218750X-0.218750X-0.256250X0.218750X-0.256250X0.218750X0.256250X-0.218750X0.256250X0*%
%TD*%
%TA.AperFunction,SMDPad,CuDef*%
%ADD15RoundRect,0.200000X-0.275000X0.200000X-0.275000X-0.200000X0.275000X-0.200000X0.275000X0.200000X0*%
%TD*%
%TA.AperFunction,ComponentPad*%
%ADD16C,1.700000*%
%TD*%
%TA.AperFunction,SMDPad,CuDef*%
%ADD17RoundRect,0.200000X0.200000X0.275000X-0.200000X0.275000X-0.200000X-0.275000X0.200000X-0.275000X0*%
%TD*%
%TA.AperFunction,SMDPad,CuDef*%
%ADD18RoundRect,0.150000X0.587500X0.150000X-0.587500X0.150000X-0.587500X-0.150000X0.587500X-0.150000X0*%
%TD*%
%TA.AperFunction,SMDPad,CuDef*%
%ADD19RoundRect,0.218750X0.256250X-0.218750X0.256250X0.218750X-0.256250X0.218750X-0.256250X-0.218750X0*%
%TD*%
%TA.AperFunction,SMDPad,CuDef*%
%ADD20RoundRect,0.225000X-0.225000X-0.250000X0.225000X-0.250000X0.225000X0.250000X-0.225000X0.250000X0*%
%TD*%
%TA.AperFunction,SMDPad,CuDef*%
%ADD21R,1.600000X1.600000*%
%TD*%
%TA.AperFunction,SMDPad,CuDef*%
%ADD22FreePoly0,0.000000*%
%TD*%
%TA.AperFunction,SMDPad,CuDef*%
%ADD23R,1.270000X3.600000*%
%TD*%
%TA.AperFunction,SMDPad,CuDef*%
%ADD24R,1.350000X4.200000*%
%TD*%
%TA.AperFunction,SMDPad,CuDef*%
%ADD25R,1.200000X0.900000*%
%TD*%
%TA.AperFunction,SMDPad,CuDef*%
%ADD26RoundRect,0.200000X0.275000X-0.200000X0.275000X0.200000X-0.275000X0.200000X-0.275000X-0.200000X0*%
%TD*%
%TA.AperFunction,SMDPad,CuDef*%
%ADD27RoundRect,0.150000X0.825000X0.150000X-0.825000X0.150000X-0.825000X-0.150000X0.825000X-0.150000X0*%
%TD*%
%TA.AperFunction,SMDPad,CuDef*%
%ADD28RoundRect,0.150000X-0.512500X-0.150000X0.512500X-0.150000X0.512500X0.150000X-0.512500X0.150000X0*%
%TD*%
%TA.AperFunction,ComponentPad*%
%ADD29R,1.700000X1.700000*%
%TD*%
%TA.AperFunction,ComponentPad*%
%ADD30O,1.700000X1.700000*%
%TD*%
%TA.AperFunction,SMDPad,CuDef*%
%ADD31R,3.600000X1.270000*%
%TD*%
%TA.AperFunction,SMDPad,CuDef*%
%ADD32R,4.200000X1.350000*%
%TD*%
%TA.AperFunction,SMDPad,CuDef*%
%ADD33RoundRect,0.200000X-0.200000X-0.275000X0.200000X-0.275000X0.200000X0.275000X-0.200000X0.275000X0*%
%TD*%
%TA.AperFunction,SMDPad,CuDef*%
%ADD34R,1.400000X0.280000*%
%TD*%
%TA.AperFunction,SMDPad,CuDef*%
%ADD35R,0.850000X0.750000*%
%TD*%
%TA.AperFunction,SMDPad,CuDef*%
%ADD36R,1.350000X0.400000*%
%TD*%
%TA.AperFunction,ComponentPad*%
%ADD37O,1.550000X0.890000*%
%TD*%
%TA.AperFunction,SMDPad,CuDef*%
%ADD38R,1.550000X1.200000*%
%TD*%
%TA.AperFunction,ComponentPad*%
%ADD39O,0.950000X1.250000*%
%TD*%
%TA.AperFunction,SMDPad,CuDef*%
%ADD40R,1.550000X1.500000*%
%TD*%
%TA.AperFunction,SMDPad,CuDef*%
%ADD41RoundRect,0.218750X-0.381250X0.218750X-0.381250X-0.218750X0.381250X-0.218750X0.381250X0.218750X0*%
%TD*%
%TA.AperFunction,SMDPad,CuDef*%
%ADD42R,1.200000X0.400000*%
%TD*%
%TA.AperFunction,ViaPad*%
%ADD43C,0.800000*%
%TD*%
%TA.AperFunction,ViaPad*%
%ADD44C,5.000000*%
%TD*%
%TA.AperFunction,Conductor*%
%ADD45C,0.600000*%
%TD*%
%TA.AperFunction,Conductor*%
%ADD46C,0.250000*%
%TD*%
%TA.AperFunction,Conductor*%
%ADD47C,0.300000*%
%TD*%
%TA.AperFunction,Conductor*%
%ADD48C,0.500000*%
%TD*%
%TA.AperFunction,Conductor*%
%ADD49C,1.000000*%
%TD*%
G04 APERTURE END LIST*
D10*
%TO.P,C11,1*%
%TO.N,Net-(C11-Pad1)*%
X153670000Y-86775000D03*
%TO.P,C11,2*%
%TO.N,/RF_Rx/DetectorIn*%
X153670000Y-85225000D03*
%TD*%
D11*
%TO.P,C3,1*%
%TO.N,GND*%
X127250000Y-76225000D03*
%TO.P,C3,2*%
%TO.N,+5V*%
X127250000Y-77775000D03*
%TD*%
D12*
%TO.P,C14,1*%
%TO.N,GND*%
X156550000Y-94500000D03*
%TO.P,C14,2*%
%TO.N,+5V*%
X155000000Y-94500000D03*
%TD*%
D13*
%TO.P,U7,1,RF_IN*%
%TO.N,Net-(C11-Pad1)*%
X153620000Y-90500000D03*
%TO.P,U7,2,~{SHDN}*%
%TO.N,+5V*%
X152970000Y-90500000D03*
%TO.P,U7,3,GND*%
%TO.N,GND*%
X152320000Y-90500000D03*
%TO.P,U7,4,CLPF*%
%TO.N,Net-(C12-Pad1)*%
X151670000Y-90500000D03*
%TO.P,U7,5,GND*%
%TO.N,GND*%
X151670000Y-94500000D03*
%TO.P,U7,6,NC*%
%TO.N,unconnected-(U7-Pad6)*%
X152320000Y-94500000D03*
%TO.P,U7,7,OUT*%
%TO.N,/RF_Rx/Signal*%
X152970000Y-94500000D03*
%TO.P,U7,8,VCC*%
%TO.N,+5V*%
X153620000Y-94500000D03*
%TD*%
D14*
%TO.P,D2,1,K*%
%TO.N,Net-(D2-Pad1)*%
X111212500Y-84000000D03*
%TO.P,D2,2,A*%
%TO.N,Net-(D2-Pad2)*%
X112787500Y-84000000D03*
%TD*%
D10*
%TO.P,C5,1*%
%TO.N,/RF_Tx/ModOutSelect*%
X143730000Y-79000000D03*
%TO.P,C5,2*%
%TO.N,Net-(C5-Pad2)*%
X143730000Y-77450000D03*
%TD*%
D15*
%TO.P,R9,1*%
%TO.N,/RF_Rx/Amp1*%
X141500000Y-91175000D03*
%TO.P,R9,2*%
%TO.N,Net-(C16-Pad2)*%
X141500000Y-92825000D03*
%TD*%
D16*
%TO.P,J6,1,Pin_1*%
%TO.N,/RF_Rx/Signal*%
X150640000Y-97400000D03*
%TD*%
D11*
%TO.P,C16,1*%
%TO.N,/RF_Rx/Amp1*%
X140000000Y-91225000D03*
%TO.P,C16,2*%
%TO.N,Net-(C16-Pad2)*%
X140000000Y-92775000D03*
%TD*%
D17*
%TO.P,R7,1*%
%TO.N,+5V*%
X115825000Y-84000000D03*
%TO.P,R7,2*%
%TO.N,Net-(D2-Pad2)*%
X114175000Y-84000000D03*
%TD*%
D18*
%TO.P,Q1,1,B*%
%TO.N,Net-(Q1-Pad1)*%
X146607500Y-94450000D03*
%TO.P,Q1,2,E*%
%TO.N,GND*%
X146607500Y-92550000D03*
%TO.P,Q1,3,C*%
%TO.N,Net-(D2-Pad1)*%
X144732500Y-93500000D03*
%TD*%
D19*
%TO.P,L2,1,1*%
%TO.N,+3V0*%
X139250000Y-80575000D03*
%TO.P,L2,2,2*%
%TO.N,/RF_Tx/ModOut*%
X139250000Y-79000000D03*
%TD*%
D10*
%TO.P,C2,1*%
%TO.N,GND*%
X116500000Y-81775000D03*
%TO.P,C2,2*%
%TO.N,+5V*%
X116500000Y-80225000D03*
%TD*%
D16*
%TO.P,J8,1,Pin_1*%
%TO.N,/RF_Rx/Amp2*%
X130320000Y-89750000D03*
%TD*%
D20*
%TO.P,C1,1*%
%TO.N,GND*%
X118410000Y-100711000D03*
%TO.P,C1,2*%
%TO.N,+5V*%
X119960000Y-100711000D03*
%TD*%
D21*
%TO.P,U3,1,IN*%
%TO.N,/RF_Tx/RfOut*%
X147745000Y-79175000D03*
%TO.P,U3,2,OUT*%
%TO.N,Net-(J4-Pad1)*%
X153665000Y-79175000D03*
%TO.P,U3,3,ISO*%
%TO.N,/RF_Rx/DetectorIn*%
X153665000Y-83825000D03*
%TO.P,U3,4,CPL*%
%TO.N,Net-(R16-Pad1)*%
X147745000Y-83825000D03*
D22*
%TO.P,U3,5,GND*%
%TO.N,GND*%
X150705000Y-81500000D03*
%TD*%
D23*
%TO.P,J3,1,In*%
%TO.N,Net-(C5-Pad2)*%
X143730000Y-73900000D03*
D24*
%TO.P,J3,2,Ext*%
%TO.N,GND*%
X140905000Y-74100000D03*
X146555000Y-74100000D03*
%TD*%
D14*
%TO.P,D1,1,K*%
%TO.N,GND*%
X111212500Y-85750000D03*
%TO.P,D1,2,A*%
%TO.N,Net-(D1-Pad2)*%
X112787500Y-85750000D03*
%TD*%
D25*
%TO.P,D3,1,K*%
%TO.N,Net-(C18-Pad2)*%
X127500000Y-93650000D03*
%TO.P,D3,2,A*%
%TO.N,/RF_Rx/Amp2*%
X127500000Y-90350000D03*
%TD*%
D17*
%TO.P,R11,1*%
%TO.N,Net-(R11-Pad1)*%
X131000000Y-96000000D03*
%TO.P,R11,2*%
%TO.N,/RF_Rx/Amp2*%
X129350000Y-96000000D03*
%TD*%
D20*
%TO.P,C15,1*%
%TO.N,Net-(C15-Pad1)*%
X141395000Y-98500000D03*
%TO.P,C15,2*%
%TO.N,Net-(C15-Pad2)*%
X142945000Y-98500000D03*
%TD*%
D26*
%TO.P,R3,1*%
%TO.N,/RF_Tx/ModLow*%
X130920000Y-79250000D03*
%TO.P,R3,2*%
%TO.N,GND*%
X130920000Y-77600000D03*
%TD*%
D12*
%TO.P,C10,1*%
%TO.N,/RF_Tx/RfOut*%
X145280000Y-79000000D03*
%TO.P,C10,2*%
%TO.N,/RF_Tx/ModOutSelect*%
X143730000Y-79000000D03*
%TD*%
%TO.P,C6,1*%
%TO.N,Net-(C6-Pad1)*%
X155220000Y-86750000D03*
%TO.P,C6,2*%
%TO.N,Net-(C11-Pad1)*%
X153670000Y-86750000D03*
%TD*%
D15*
%TO.P,R8,1*%
%TO.N,Net-(C16-Pad2)*%
X141420000Y-95425000D03*
%TO.P,R8,2*%
%TO.N,Net-(C15-Pad1)*%
X141420000Y-97075000D03*
%TD*%
D25*
%TO.P,D4,1,K*%
%TO.N,/RF_Rx/Amp2*%
X125250000Y-90350000D03*
%TO.P,D4,2,A*%
%TO.N,Net-(C18-Pad2)*%
X125250000Y-93650000D03*
%TD*%
D16*
%TO.P,J9,1,Pin_1*%
%TO.N,/TagPulses*%
X125240000Y-97400000D03*
%TD*%
D27*
%TO.P,U1,1,VCC*%
%TO.N,+5V*%
X121725000Y-99060000D03*
%TO.P,U1,2,PA4*%
%TO.N,/TagPulsesLow*%
X121725000Y-97790000D03*
%TO.P,U1,3,PA5*%
%TO.N,unconnected-(U1-Pad3)*%
X121725000Y-96520000D03*
%TO.P,U1,4,PA6*%
%TO.N,unconnected-(U1-Pad4)*%
X121725000Y-95250000D03*
%TO.P,U1,5,PA7*%
%TO.N,/TagDetected*%
X121725000Y-93980000D03*
%TO.P,U1,6,PB3*%
%TO.N,/SeqProg*%
X121725000Y-92710000D03*
%TO.P,U1,7,PB2*%
%TO.N,/ReaderPulses*%
X121725000Y-91440000D03*
%TO.P,U1,8,PB1*%
%TO.N,unconnected-(U1-Pad8)*%
X116775000Y-91440000D03*
%TO.P,U1,9,PB0*%
%TO.N,unconnected-(U1-Pad9)*%
X116775000Y-92710000D03*
%TO.P,U1,10,~{RESET}/PA0*%
%TO.N,/UPDI*%
X116775000Y-93980000D03*
%TO.P,U1,11,PA1*%
%TO.N,/uartTx*%
X116775000Y-95250000D03*
%TO.P,U1,12,PA2*%
%TO.N,/uartRx*%
X116775000Y-96520000D03*
%TO.P,U1,13,PA3*%
%TO.N,unconnected-(U1-Pad13)*%
X116775000Y-97790000D03*
%TO.P,U1,14,GND*%
%TO.N,GND*%
X116775000Y-99060000D03*
%TD*%
D28*
%TO.P,U4,1,VIN*%
%TO.N,+5V*%
X121500000Y-84500000D03*
%TO.P,U4,2,GND*%
%TO.N,GND*%
X121500000Y-85450000D03*
%TO.P,U4,3,EN*%
%TO.N,+5V*%
X121500000Y-86400000D03*
%TO.P,U4,4,NC*%
%TO.N,unconnected-(U4-Pad4)*%
X123775000Y-86400000D03*
%TO.P,U4,5,VOUT*%
%TO.N,+3V0*%
X123775000Y-84500000D03*
%TD*%
D29*
%TO.P,SW1,1,A*%
%TO.N,/ReaderPulses*%
X127780000Y-87240000D03*
D30*
%TO.P,SW1,2,B*%
%TO.N,/RF_Tx/Mod*%
X130320000Y-87240000D03*
%TD*%
D15*
%TO.P,R13,1*%
%TO.N,/RF_Rx/Amp2*%
X129500000Y-91175000D03*
%TO.P,R13,2*%
%TO.N,Net-(C18-Pad2)*%
X129500000Y-92825000D03*
%TD*%
D11*
%TO.P,C12,1*%
%TO.N,Net-(C12-Pad1)*%
X150145000Y-90725000D03*
%TO.P,C12,2*%
%TO.N,GND*%
X150145000Y-92275000D03*
%TD*%
D17*
%TO.P,R16,1*%
%TO.N,Net-(R16-Pad1)*%
X146000000Y-84000000D03*
%TO.P,R16,2*%
%TO.N,GND*%
X144350000Y-84000000D03*
%TD*%
D15*
%TO.P,R4,1*%
%TO.N,Net-(Q1-Pad1)*%
X148420000Y-95850000D03*
%TO.P,R4,2*%
%TO.N,/RF_Rx/Signal*%
X148420000Y-97500000D03*
%TD*%
D18*
%TO.P,Q2,1,B*%
%TO.N,Net-(Q2-Pad1)*%
X146607500Y-99450000D03*
%TO.P,Q2,2,E*%
%TO.N,/RF_Rx/Signal*%
X146607500Y-97550000D03*
%TO.P,Q2,3,C*%
%TO.N,Net-(C15-Pad2)*%
X144732500Y-98500000D03*
%TD*%
D31*
%TO.P,J5,1,In*%
%TO.N,Net-(C6-Pad1)*%
X159820000Y-86700000D03*
D32*
%TO.P,J5,2,Ext*%
%TO.N,GND*%
X159620000Y-89525000D03*
X159620000Y-83875000D03*
%TD*%
D33*
%TO.P,R1,1*%
%TO.N,Net-(D1-Pad2)*%
X114175000Y-85750000D03*
%TO.P,R1,2*%
%TO.N,/TagDetected*%
X115825000Y-85750000D03*
%TD*%
D26*
%TO.P,R5,1*%
%TO.N,Net-(Q1-Pad1)*%
X148420000Y-94325000D03*
%TO.P,R5,2*%
%TO.N,GND*%
X148420000Y-92675000D03*
%TD*%
D27*
%TO.P,U6,1*%
%TO.N,N/C*%
X137975000Y-99060000D03*
%TO.P,U6,2*%
X137975000Y-97790000D03*
%TO.P,U6,3*%
X137975000Y-96520000D03*
%TO.P,U6,4,V+*%
%TO.N,+5V*%
X137975000Y-95250000D03*
%TO.P,U6,5,+*%
%TO.N,+3V0*%
X137975000Y-93980000D03*
%TO.P,U6,6,-*%
%TO.N,Net-(C16-Pad2)*%
X137975000Y-92710000D03*
%TO.P,U6,7*%
%TO.N,/RF_Rx/Amp1*%
X137975000Y-91440000D03*
%TO.P,U6,8*%
%TO.N,/RF_Rx/Amp2*%
X133025000Y-91440000D03*
%TO.P,U6,9,-*%
%TO.N,Net-(C18-Pad2)*%
X133025000Y-92710000D03*
%TO.P,U6,10,+*%
%TO.N,+3V0*%
X133025000Y-93980000D03*
%TO.P,U6,11,V-*%
%TO.N,GND*%
X133025000Y-95250000D03*
%TO.P,U6,12,+*%
%TO.N,Net-(R11-Pad1)*%
X133025000Y-96520000D03*
%TO.P,U6,13,-*%
%TO.N,+3V0*%
X133025000Y-97790000D03*
%TO.P,U6,14*%
%TO.N,/TagPulses*%
X133025000Y-99060000D03*
%TD*%
D14*
%TO.P,L4,1,1*%
%TO.N,/RF_Tx/ModOut*%
X140712500Y-79000000D03*
%TO.P,L4,2,2*%
%TO.N,/RF_Tx/ModOutSelect*%
X142287500Y-79000000D03*
%TD*%
D10*
%TO.P,C7,1*%
%TO.N,GND*%
X119500000Y-86087500D03*
%TO.P,C7,2*%
%TO.N,+5V*%
X119500000Y-84537500D03*
%TD*%
D34*
%TO.P,U5,1,XTAL2*%
%TO.N,Net-(U5-Pad1)*%
X137420000Y-80912500D03*
%TO.P,U5,2,GND*%
%TO.N,GND*%
X137420000Y-80412500D03*
%TO.P,U5,3,VDD*%
%TO.N,+3V0*%
X137420000Y-79912500D03*
%TO.P,U5,4,GND_PA*%
%TO.N,GND*%
X137420000Y-79412500D03*
%TO.P,U5,5,PA*%
%TO.N,/RF_Tx/ModOut*%
X137420000Y-78912500D03*
%TO.P,U5,6,CLKOUT/SCL*%
%TO.N,unconnected-(U5-Pad6)*%
X133140000Y-78912500D03*
%TO.P,U5,7,DATA/SDA*%
%TO.N,/RF_Tx/ModLow*%
X133140000Y-79412500D03*
%TO.P,U5,8,SEL0*%
%TO.N,+3V0*%
X133140000Y-79912500D03*
%TO.P,U5,9,SEL1*%
X133140000Y-80412500D03*
%TO.P,U5,10,XTAL1*%
%TO.N,Net-(U5-Pad10)*%
X133140000Y-80912500D03*
%TD*%
D33*
%TO.P,R6,1*%
%TO.N,/SeqProg*%
X141345000Y-100000000D03*
%TO.P,R6,2*%
%TO.N,Net-(Q2-Pad1)*%
X142995000Y-100000000D03*
%TD*%
%TO.P,R10,1*%
%TO.N,Net-(C18-Pad2)*%
X133175000Y-89750000D03*
%TO.P,R10,2*%
%TO.N,Net-(C17-Pad1)*%
X134825000Y-89750000D03*
%TD*%
D17*
%TO.P,R14,1*%
%TO.N,/TagPulses*%
X126825000Y-99250000D03*
%TO.P,R14,2*%
%TO.N,/TagPulsesLow*%
X125175000Y-99250000D03*
%TD*%
D11*
%TO.P,C18,1*%
%TO.N,/RF_Rx/Amp2*%
X131000000Y-91225000D03*
%TO.P,C18,2*%
%TO.N,Net-(C18-Pad2)*%
X131000000Y-92775000D03*
%TD*%
D31*
%TO.P,J4,1,In*%
%TO.N,Net-(J4-Pad1)*%
X159820000Y-81000000D03*
D32*
%TO.P,J4,2,Ext*%
%TO.N,GND*%
X159620000Y-78175000D03*
X159620000Y-83825000D03*
%TD*%
D26*
%TO.P,R12,1*%
%TO.N,/TagPulses*%
X131000000Y-99075000D03*
%TO.P,R12,2*%
%TO.N,Net-(R11-Pad1)*%
X131000000Y-97425000D03*
%TD*%
D12*
%TO.P,C13,1*%
%TO.N,GND*%
X156550000Y-96000000D03*
%TO.P,C13,2*%
%TO.N,+5V*%
X155000000Y-96000000D03*
%TD*%
D10*
%TO.P,C4,1*%
%TO.N,GND*%
X127250000Y-80775000D03*
%TO.P,C4,2*%
%TO.N,Net-(C4-Pad2)*%
X127250000Y-79225000D03*
%TD*%
%TO.P,C8,1*%
%TO.N,GND*%
X125500000Y-86087500D03*
%TO.P,C8,2*%
%TO.N,+3V0*%
X125500000Y-84537500D03*
%TD*%
D35*
%TO.P,Y1,1,1*%
%TO.N,Net-(U5-Pad1)*%
X135270000Y-82412500D03*
%TO.P,Y1,2,2*%
%TO.N,GND*%
X133920000Y-82412500D03*
%TO.P,Y1,3,3*%
%TO.N,Net-(U5-Pad10)*%
X133920000Y-83462500D03*
%TO.P,Y1,4,4*%
%TO.N,GND*%
X135270000Y-83462500D03*
%TD*%
D15*
%TO.P,R15,1*%
%TO.N,/TagPulsesLow*%
X123750000Y-99250000D03*
%TO.P,R15,2*%
%TO.N,GND*%
X123750000Y-100900000D03*
%TD*%
%TO.P,R2,1*%
%TO.N,/RF_Tx/ModLow*%
X130920000Y-80675000D03*
%TO.P,R2,2*%
%TO.N,/RF_Tx/Mod*%
X130920000Y-82325000D03*
%TD*%
D16*
%TO.P,J7,1,Pin_1*%
%TO.N,/RF_Rx/Amp1*%
X140480000Y-89780000D03*
%TD*%
D36*
%TO.P,J1,1,VBUS*%
%TO.N,/VBUS*%
X114150000Y-76200000D03*
%TO.P,J1,2,D-*%
%TO.N,/USB_N*%
X114150000Y-76850000D03*
%TO.P,J1,3,D+*%
%TO.N,/USB_P*%
X114150000Y-77500000D03*
%TO.P,J1,4,ID*%
%TO.N,GND*%
X114150000Y-78150000D03*
%TO.P,J1,5,GND*%
X114150000Y-78800000D03*
D37*
%TO.P,J1,6,Shield*%
X111450000Y-74000000D03*
D38*
X111450000Y-80400000D03*
D39*
X114150000Y-80000000D03*
D38*
X111450000Y-74600000D03*
D40*
X111450000Y-76500000D03*
D39*
X114150000Y-75000000D03*
D37*
X111450000Y-81000000D03*
D40*
X111450000Y-78500000D03*
%TD*%
D20*
%TO.P,C17,1*%
%TO.N,Net-(C17-Pad1)*%
X136225000Y-89750000D03*
%TO.P,C17,2*%
%TO.N,/RF_Rx/Amp1*%
X137775000Y-89750000D03*
%TD*%
%TO.P,C9,1*%
%TO.N,+3V0*%
X139250000Y-82000000D03*
%TO.P,C9,2*%
%TO.N,GND*%
X140800000Y-82000000D03*
%TD*%
D29*
%TO.P,J2,1,Pin_1*%
%TO.N,/UPDI*%
X112540000Y-99940000D03*
D30*
%TO.P,J2,2,Pin_2*%
%TO.N,GND*%
X112540000Y-97400000D03*
%TO.P,J2,3,Pin_3*%
%TO.N,+5V*%
X112540000Y-94860000D03*
%TO.P,J2,4,Pin_4*%
%TO.N,/uartTx*%
X112540000Y-92320000D03*
%TO.P,J2,5,Pin_5*%
%TO.N,/uartRx*%
X112540000Y-89780000D03*
%TD*%
D14*
%TO.P,L3,1,1*%
%TO.N,GND*%
X152095000Y-88500000D03*
%TO.P,L3,2,2*%
%TO.N,Net-(C11-Pad1)*%
X153670000Y-88500000D03*
%TD*%
D41*
%TO.P,L1,1,1*%
%TO.N,/VBUS*%
X116500000Y-76187500D03*
%TO.P,L1,2,2*%
%TO.N,+5V*%
X116500000Y-78312500D03*
%TD*%
D42*
%TO.P,U2,1,~{DTR}*%
%TO.N,unconnected-(U2-Pad1)*%
X120400000Y-74642500D03*
%TO.P,U2,2,~{RTS}*%
%TO.N,unconnected-(U2-Pad2)*%
X120400000Y-75277500D03*
%TO.P,U2,3,VCCIO*%
%TO.N,Net-(C4-Pad2)*%
X120400000Y-75912500D03*
%TO.P,U2,4,RXD*%
%TO.N,/uartTx*%
X120400000Y-76547500D03*
%TO.P,U2,5,~{RI}*%
%TO.N,unconnected-(U2-Pad5)*%
X120400000Y-77182500D03*
%TO.P,U2,6,GND*%
%TO.N,GND*%
X120400000Y-77817500D03*
%TO.P,U2,7,~{DSR}*%
%TO.N,unconnected-(U2-Pad7)*%
X120400000Y-78452500D03*
%TO.P,U2,8,~{DCD}*%
%TO.N,unconnected-(U2-Pad8)*%
X120400000Y-79087500D03*
%TO.P,U2,9,~{CTS}*%
%TO.N,unconnected-(U2-Pad9)*%
X120400000Y-79722500D03*
%TO.P,U2,10,CBUS2*%
%TO.N,unconnected-(U2-Pad10)*%
X120400000Y-80357500D03*
%TO.P,U2,11,USBDP*%
%TO.N,/USB_P*%
X125600000Y-80357500D03*
%TO.P,U2,12,USBDM*%
%TO.N,/USB_N*%
X125600000Y-79722500D03*
%TO.P,U2,13,3V3OUT*%
%TO.N,Net-(C4-Pad2)*%
X125600000Y-79087500D03*
%TO.P,U2,14,~{RESET}*%
X125600000Y-78452500D03*
%TO.P,U2,15,VCC*%
%TO.N,+5V*%
X125600000Y-77817500D03*
%TO.P,U2,16,GND*%
%TO.N,GND*%
X125600000Y-77182500D03*
%TO.P,U2,17,CBUS1*%
%TO.N,unconnected-(U2-Pad17)*%
X125600000Y-76547500D03*
%TO.P,U2,18,CBUS0*%
%TO.N,unconnected-(U2-Pad18)*%
X125600000Y-75912500D03*
%TO.P,U2,19,CBUS3*%
%TO.N,unconnected-(U2-Pad19)*%
X125600000Y-75277500D03*
%TO.P,U2,20,TXD*%
%TO.N,/uartRx*%
X125600000Y-74642500D03*
%TD*%
D43*
%TO.N,GND*%
X160750000Y-76500000D03*
X159250000Y-76500000D03*
X157750000Y-76500000D03*
X140250000Y-77500000D03*
X145750000Y-77500000D03*
X153000000Y-81500000D03*
X148500000Y-81500000D03*
X150000000Y-83000000D03*
X151500000Y-83000000D03*
X150000000Y-80000000D03*
X151500000Y-80000000D03*
X150000000Y-81500000D03*
X151500000Y-81500000D03*
X156250000Y-91250000D03*
X126750000Y-85750000D03*
X155170000Y-85500000D03*
X156420000Y-83250000D03*
X143750000Y-80250000D03*
X116000000Y-100750000D03*
X137170000Y-83000000D03*
X119750000Y-96500000D03*
X151920000Y-86750000D03*
X113500000Y-87250000D03*
X150000000Y-84750000D03*
X142000000Y-77500000D03*
X129250000Y-83000000D03*
X155145000Y-88250000D03*
X151500000Y-78250000D03*
X143750000Y-91000000D03*
D44*
X135000000Y-75000000D03*
D43*
X123250000Y-90000000D03*
X147500000Y-77500000D03*
X154730000Y-81500000D03*
X117750000Y-73750000D03*
X156420000Y-84750000D03*
X119500000Y-87250000D03*
X150145000Y-94000000D03*
X148060000Y-73000000D03*
X156250000Y-76500000D03*
X160670000Y-91250000D03*
X128000000Y-88750000D03*
X147500000Y-91000000D03*
X159250000Y-91250000D03*
X150000000Y-78250000D03*
X140645000Y-80250000D03*
X139310000Y-76000000D03*
X148060000Y-76000000D03*
X146730000Y-81500000D03*
X126250000Y-81500000D03*
X132250000Y-76500000D03*
X122000000Y-78250000D03*
X135920000Y-78912500D03*
X151500000Y-84750000D03*
X153500000Y-77500000D03*
X145000000Y-96000000D03*
X139310000Y-74500000D03*
X156250000Y-89750000D03*
X144500000Y-82500000D03*
X157750000Y-91250000D03*
X142145000Y-80250000D03*
X124250000Y-77000000D03*
X139310000Y-73000000D03*
D44*
X158000000Y-99000000D03*
D43*
X134641269Y-80756889D03*
X156250000Y-78000000D03*
X151895000Y-92250000D03*
X145705000Y-80250000D03*
X127500000Y-74750000D03*
X131000000Y-94250000D03*
X148060000Y-74500000D03*
%TO.N,+5V*%
X140000000Y-95250000D03*
X117250000Y-79250000D03*
X153000000Y-98000000D03*
X121340000Y-100255000D03*
%TO.N,+3V0*%
X139250000Y-83500000D03*
X135500000Y-94000000D03*
X127250000Y-84500000D03*
%TO.N,/SeqProg*%
X123750000Y-95250000D03*
X128000000Y-98750000D03*
%TO.N,/uartTx*%
X119000000Y-76750000D03*
%TO.N,/uartRx*%
X124250000Y-74749018D03*
%TO.N,Net-(D2-Pad1)*%
X143000000Y-93500000D03*
X118399312Y-83100688D03*
%TD*%
D45*
%TO.N,GND*%
X120225000Y-85450000D02*
X119500000Y-86175000D01*
D46*
X136420000Y-79412500D02*
X135920000Y-78912500D01*
X137420000Y-80412500D02*
X134985658Y-80412500D01*
D45*
X121500000Y-85450000D02*
X120225000Y-85450000D01*
D46*
X137420000Y-79412500D02*
X136420000Y-79412500D01*
X134985658Y-80412500D02*
X134641269Y-80756889D01*
D47*
%TO.N,+5V*%
X152970000Y-90500000D02*
X152970000Y-92325000D01*
X153620000Y-92975000D02*
X153620000Y-94500000D01*
D48*
X115825000Y-84000000D02*
X119500000Y-84000000D01*
D45*
X121500000Y-84500000D02*
X119550000Y-84500000D01*
D48*
X127250000Y-82750000D02*
X128250000Y-81750000D01*
D49*
X116500000Y-79250000D02*
X116500000Y-80250000D01*
D48*
X128250000Y-78512500D02*
X127512500Y-77775000D01*
X120047500Y-100711000D02*
X120784000Y-100711000D01*
D49*
X153000000Y-98000000D02*
X155000000Y-96000000D01*
X155000000Y-96000000D02*
X155000000Y-94500000D01*
D48*
X153750000Y-94500000D02*
X155000000Y-94500000D01*
D47*
X125600000Y-77817500D02*
X127207500Y-77817500D01*
X122750000Y-84962020D02*
X122750000Y-85950000D01*
D48*
X127512500Y-77775000D02*
X127250000Y-77775000D01*
X119500000Y-82750000D02*
X119500000Y-83000000D01*
X121725000Y-99770000D02*
X121725000Y-99060000D01*
X119500000Y-82750000D02*
X127250000Y-82750000D01*
X128250000Y-81750000D02*
X128250000Y-78512500D01*
D47*
X122750000Y-85950000D02*
X122300000Y-86400000D01*
X152970000Y-92325000D02*
X153620000Y-92975000D01*
D48*
X119500000Y-83000000D02*
X119500000Y-84537500D01*
D49*
X116500000Y-78750000D02*
X116500000Y-79250000D01*
D47*
X122287980Y-84500000D02*
X122750000Y-84962020D01*
X127207500Y-77817500D02*
X127250000Y-77775000D01*
D49*
X117250000Y-79250000D02*
X116500000Y-79250000D01*
D48*
X137975000Y-95250000D02*
X140000000Y-95250000D01*
X117250000Y-80500000D02*
X119500000Y-82750000D01*
X116500000Y-80500000D02*
X117250000Y-80500000D01*
X120784000Y-100711000D02*
X121725000Y-99770000D01*
D47*
X122300000Y-86400000D02*
X121500000Y-86400000D01*
X121500000Y-84500000D02*
X122287980Y-84500000D01*
D49*
%TO.N,/RF_Rx/DetectorIn*%
X153665000Y-83825000D02*
X153665000Y-85220000D01*
X153665000Y-85220000D02*
X153670000Y-85225000D01*
D45*
%TO.N,+3V0*%
X123775000Y-84500000D02*
X125500000Y-84500000D01*
D47*
X137420000Y-79912500D02*
X138670000Y-79912500D01*
D48*
X135500000Y-96750000D02*
X134460000Y-97790000D01*
X135500000Y-94000000D02*
X133045000Y-94000000D01*
D47*
X138670000Y-79912500D02*
X139420000Y-80662500D01*
D49*
X127212500Y-84537500D02*
X127250000Y-84500000D01*
D47*
X133140000Y-79912500D02*
X137420000Y-79912500D01*
D48*
X134460000Y-97790000D02*
X133025000Y-97790000D01*
X137955000Y-94000000D02*
X137975000Y-93980000D01*
D47*
X133140000Y-80412500D02*
X133140000Y-79912500D01*
D48*
X139250000Y-83500000D02*
X139250000Y-80575000D01*
D49*
X125500000Y-84537500D02*
X127212500Y-84537500D01*
D48*
X135500000Y-94000000D02*
X135500000Y-96750000D01*
X135500000Y-94000000D02*
X137955000Y-94000000D01*
X139250000Y-80575000D02*
X139420000Y-80575000D01*
D49*
%TO.N,/RF_Tx/ModOutSelect*%
X143730000Y-79000000D02*
X142287500Y-79000000D01*
D47*
%TO.N,/RF_Rx/Signal*%
X152970000Y-94500000D02*
X152970000Y-95780000D01*
X152970000Y-95780000D02*
X151350000Y-97400000D01*
D48*
X146607500Y-97550000D02*
X150490000Y-97550000D01*
D47*
X151350000Y-97400000D02*
X150640000Y-97400000D01*
D48*
X150490000Y-97550000D02*
X150640000Y-97400000D01*
D47*
%TO.N,/UPDI*%
X115770000Y-93980000D02*
X115250000Y-94500000D01*
X115250000Y-94500000D02*
X115250000Y-99000000D01*
X114310000Y-99940000D02*
X112540000Y-99940000D01*
X116775000Y-93980000D02*
X115770000Y-93980000D01*
X115250000Y-99000000D02*
X114310000Y-99940000D01*
%TO.N,Net-(C18-Pad2)*%
X133175000Y-89750000D02*
X134449520Y-91024520D01*
D48*
X125250000Y-93650000D02*
X128675000Y-93650000D01*
X128675000Y-93650000D02*
X129500000Y-92825000D01*
X129615000Y-92710000D02*
X133025000Y-92710000D01*
D47*
X134449520Y-91024520D02*
X134449520Y-92300480D01*
X134040000Y-92710000D02*
X133025000Y-92710000D01*
X134449520Y-92300480D02*
X134040000Y-92710000D01*
D48*
X129500000Y-92825000D02*
X129615000Y-92710000D01*
%TO.N,Net-(D1-Pad2)*%
X112787500Y-85750000D02*
X114175000Y-85750000D01*
%TO.N,/SeqProg*%
X129250000Y-100000000D02*
X128000000Y-98750000D01*
D47*
X122960000Y-92710000D02*
X121725000Y-92710000D01*
X123500000Y-95000000D02*
X123500000Y-93250000D01*
X123750000Y-95250000D02*
X123500000Y-95000000D01*
X123500000Y-93250000D02*
X122960000Y-92710000D01*
D48*
X141345000Y-100000000D02*
X129250000Y-100000000D01*
%TO.N,Net-(D2-Pad2)*%
X112787500Y-84000000D02*
X114175000Y-84000000D01*
D47*
%TO.N,Net-(C4-Pad2)*%
X124101522Y-78750000D02*
X121264022Y-75912500D01*
X121264022Y-75912500D02*
X120400000Y-75912500D01*
X127250000Y-79225000D02*
X126775000Y-78750000D01*
X126775000Y-78750000D02*
X124101522Y-78750000D01*
%TO.N,Net-(C11-Pad1)*%
X153620000Y-88525000D02*
X153620000Y-90500000D01*
D49*
X153670000Y-88500000D02*
X153670000Y-86775000D01*
D47*
X153645000Y-88500000D02*
X153620000Y-88525000D01*
D48*
%TO.N,Net-(C17-Pad1)*%
X134825000Y-89750000D02*
X136225000Y-89750000D01*
%TO.N,/RF_Rx/Amp1*%
X140575000Y-91175000D02*
X140480000Y-91080000D01*
X137775000Y-89750000D02*
X137775000Y-91240000D01*
X137775000Y-91240000D02*
X137975000Y-91440000D01*
X140575000Y-91175000D02*
X138240000Y-91175000D01*
X138240000Y-91175000D02*
X137975000Y-91440000D01*
X140480000Y-91080000D02*
X140480000Y-89780000D01*
X141500000Y-91175000D02*
X140575000Y-91175000D01*
D47*
%TO.N,/uartTx*%
X119202500Y-76547500D02*
X119000000Y-76750000D01*
X120400000Y-76547500D02*
X119202500Y-76547500D01*
X118250000Y-94750000D02*
X118250000Y-90750000D01*
X117750000Y-90250000D02*
X114610000Y-90250000D01*
X114610000Y-90250000D02*
X112540000Y-92320000D01*
X116775000Y-95250000D02*
X117750000Y-95250000D01*
X117750000Y-95250000D02*
X118250000Y-94750000D01*
X118250000Y-90750000D02*
X117750000Y-90250000D01*
%TO.N,/uartRx*%
X124250000Y-74749018D02*
X124356518Y-74642500D01*
X119000000Y-90500000D02*
X118090000Y-89590000D01*
X124356518Y-74642500D02*
X125600000Y-74642500D01*
X118090000Y-89590000D02*
X112730000Y-89590000D01*
X116775000Y-96520000D02*
X117980000Y-96520000D01*
X119000000Y-95500000D02*
X119000000Y-90500000D01*
X112730000Y-89590000D02*
X112540000Y-89780000D01*
X117980000Y-96520000D02*
X119000000Y-95500000D01*
%TO.N,Net-(C12-Pad1)*%
X150282500Y-90500000D02*
X150145000Y-90637500D01*
X151670000Y-90500000D02*
X150282500Y-90500000D01*
D48*
%TO.N,/ReaderPulses*%
X123000000Y-87750000D02*
X127270000Y-87750000D01*
X127270000Y-87750000D02*
X127780000Y-87240000D01*
X121725000Y-89025000D02*
X123000000Y-87750000D01*
X121725000Y-91440000D02*
X121725000Y-89025000D01*
%TO.N,/TagPulses*%
X131000000Y-99075000D02*
X130325000Y-99075000D01*
X127250000Y-97750000D02*
X126825000Y-98175000D01*
X131015000Y-99060000D02*
X131000000Y-99075000D01*
X127250000Y-97750000D02*
X126900000Y-97400000D01*
X130325000Y-99075000D02*
X129000000Y-97750000D01*
X133025000Y-99060000D02*
X131015000Y-99060000D01*
X126900000Y-97400000D02*
X125240000Y-97400000D01*
X126825000Y-98175000D02*
X126825000Y-99250000D01*
X129000000Y-97750000D02*
X127250000Y-97750000D01*
%TO.N,Net-(C15-Pad1)*%
X141420000Y-97075000D02*
X141420000Y-98475000D01*
X141420000Y-98475000D02*
X141395000Y-98500000D01*
%TO.N,Net-(C15-Pad2)*%
X142945000Y-98500000D02*
X144732500Y-98500000D01*
%TO.N,Net-(C16-Pad2)*%
X138090000Y-92825000D02*
X137975000Y-92710000D01*
X141420000Y-95425000D02*
X141420000Y-92905000D01*
X141500000Y-92825000D02*
X138090000Y-92825000D01*
X141420000Y-92905000D02*
X141500000Y-92825000D01*
D47*
%TO.N,Net-(D2-Pad1)*%
X111212500Y-84000000D02*
X111212500Y-83893750D01*
D48*
X143000000Y-93500000D02*
X144732500Y-93500000D01*
D47*
X112106250Y-83000000D02*
X118298624Y-83000000D01*
X111212500Y-83893750D02*
X112106250Y-83000000D01*
X118298624Y-83000000D02*
X118399312Y-83100688D01*
%TO.N,/TagDetected*%
X115825000Y-86325000D02*
X115825000Y-85750000D01*
X120480000Y-93980000D02*
X119750000Y-93250000D01*
X119750000Y-90250000D02*
X115825000Y-86325000D01*
X121725000Y-93980000D02*
X120480000Y-93980000D01*
X119750000Y-93250000D02*
X119750000Y-90250000D01*
D48*
%TO.N,Net-(Q1-Pad1)*%
X148420000Y-95850000D02*
X148420000Y-94325000D01*
X148295000Y-94450000D02*
X148420000Y-94325000D01*
X146607500Y-94450000D02*
X148295000Y-94450000D01*
%TO.N,Net-(Q2-Pad1)*%
X142995000Y-100000000D02*
X145500000Y-100000000D01*
X146050000Y-99450000D02*
X146607500Y-99450000D01*
X145500000Y-100000000D02*
X146050000Y-99450000D01*
%TO.N,/RF_Tx/Mod*%
X130920000Y-86640000D02*
X130920000Y-82325000D01*
X130320000Y-87240000D02*
X130920000Y-86640000D01*
D47*
%TO.N,Net-(U5-Pad1)*%
X136420000Y-82412500D02*
X137420000Y-81412500D01*
X137420000Y-81412500D02*
X137420000Y-80912500D01*
X135270000Y-82412500D02*
X136420000Y-82412500D01*
%TO.N,Net-(U5-Pad10)*%
X132920000Y-83187500D02*
X132920000Y-80912500D01*
X133195000Y-83462500D02*
X132920000Y-83187500D01*
X133920000Y-83462500D02*
X133195000Y-83462500D01*
D49*
%TO.N,/RF_Tx/RfOut*%
X147570000Y-79000000D02*
X147745000Y-79175000D01*
X145430000Y-79000000D02*
X147570000Y-79000000D01*
%TO.N,Net-(R16-Pad1)*%
X146000000Y-84000000D02*
X147570000Y-84000000D01*
X147570000Y-84000000D02*
X147745000Y-83825000D01*
D48*
%TO.N,/RF_Tx/ModLow*%
X130920000Y-80675000D02*
X130920000Y-79250000D01*
D47*
X131182500Y-79412500D02*
X133140000Y-79412500D01*
X130920000Y-79150000D02*
X131182500Y-79412500D01*
%TO.N,/USB_N*%
X119000000Y-79000000D02*
X119000000Y-80456522D01*
X115250000Y-77000000D02*
X117706428Y-77000000D01*
X119000000Y-78293572D02*
X119000000Y-79000000D01*
X114150000Y-76850000D02*
X115100000Y-76850000D01*
X119450489Y-80907011D02*
X122842989Y-80907011D01*
X119000000Y-80456522D02*
X119450489Y-80907011D01*
X115100000Y-76850000D02*
X115250000Y-77000000D01*
X122842989Y-80907011D02*
X124027500Y-79722500D01*
X124027500Y-79722500D02*
X125600000Y-79722500D01*
X117706428Y-77000000D02*
X119000000Y-78293572D01*
%TO.N,/USB_P*%
X119243581Y-81406531D02*
X123093469Y-81406531D01*
X118500000Y-80662950D02*
X119243580Y-81406530D01*
X117500000Y-77500000D02*
X118500000Y-78500000D01*
X114150000Y-77500000D02*
X117500000Y-77500000D01*
X124142500Y-80357500D02*
X125600000Y-80357500D01*
X123093469Y-81406531D02*
X124142500Y-80357500D01*
X118500000Y-78500000D02*
X118500000Y-80662950D01*
%TO.N,/VBUS*%
X114150000Y-76200000D02*
X116487500Y-76200000D01*
X116487500Y-76200000D02*
X116500000Y-76187500D01*
%TO.N,/TagPulsesLow*%
X123040000Y-97790000D02*
X121725000Y-97790000D01*
X123750000Y-98500000D02*
X123040000Y-97790000D01*
X123750000Y-99250000D02*
X123750000Y-98500000D01*
D48*
X125175000Y-99250000D02*
X123750000Y-99250000D01*
%TO.N,/RF_Rx/Amp2*%
X130325000Y-91175000D02*
X130320000Y-91170000D01*
D47*
X124750000Y-95000000D02*
X128350000Y-95000000D01*
X124250000Y-90750000D02*
X124250000Y-94500000D01*
D48*
X130325000Y-91175000D02*
X131925000Y-91175000D01*
X130320000Y-91170000D02*
X130320000Y-89750000D01*
D47*
X125250000Y-90350000D02*
X124650000Y-90350000D01*
X124650000Y-90350000D02*
X124250000Y-90750000D01*
X124250000Y-94500000D02*
X124750000Y-95000000D01*
D48*
X131925000Y-91175000D02*
X132190000Y-91440000D01*
X125250000Y-90350000D02*
X128675000Y-90350000D01*
X128675000Y-90350000D02*
X129500000Y-91175000D01*
D47*
X128350000Y-95000000D02*
X129350000Y-96000000D01*
D48*
X129500000Y-91175000D02*
X130325000Y-91175000D01*
X132190000Y-91440000D02*
X133025000Y-91440000D01*
%TO.N,Net-(R11-Pad1)*%
X131020000Y-96520000D02*
X131000000Y-96500000D01*
X131000000Y-96500000D02*
X131000000Y-97425000D01*
X131000000Y-96000000D02*
X131000000Y-96500000D01*
X133025000Y-96520000D02*
X131020000Y-96520000D01*
D49*
%TO.N,Net-(J4-Pad1)*%
X153665000Y-79175000D02*
X153689511Y-79150489D01*
X156892472Y-81000000D02*
X159870000Y-81000000D01*
X155067472Y-79175000D02*
X156892472Y-81000000D01*
X153665000Y-79175000D02*
X155067472Y-79175000D01*
%TO.N,Net-(C6-Pad1)*%
X155220000Y-86750000D02*
X159770000Y-86750000D01*
%TO.N,Net-(C5-Pad2)*%
X143730000Y-77450000D02*
X143730000Y-73750000D01*
%TO.N,/RF_Tx/ModOut*%
X140712500Y-79000000D02*
X139250000Y-79000000D01*
D47*
X139420000Y-78912500D02*
X137420000Y-78912500D01*
%TD*%
%TA.AperFunction,Conductor*%
%TO.N,GND*%
G36*
X142786621Y-72270002D02*
G01*
X142833114Y-72323658D01*
X142844500Y-72376000D01*
X142844500Y-75724674D01*
X142859034Y-75797740D01*
X142914399Y-75880601D01*
X142924714Y-75887493D01*
X142933493Y-75896272D01*
X142932416Y-75897349D01*
X142969031Y-75941163D01*
X142979500Y-75991449D01*
X142979500Y-77493822D01*
X142986406Y-77553053D01*
X142991043Y-77592826D01*
X142994657Y-77623828D01*
X142997155Y-77630709D01*
X142998839Y-77637833D01*
X142998319Y-77637956D01*
X143004501Y-77673107D01*
X143004501Y-77720014D01*
X143010816Y-77778157D01*
X143058628Y-77905695D01*
X143140313Y-78014687D01*
X143147493Y-78020068D01*
X143147494Y-78020069D01*
X143150970Y-78022674D01*
X143153552Y-78026127D01*
X143153843Y-78026418D01*
X143153801Y-78026460D01*
X143193485Y-78079533D01*
X143198511Y-78150352D01*
X143164451Y-78212645D01*
X143102120Y-78246635D01*
X143075405Y-78249500D01*
X142243678Y-78249500D01*
X142240820Y-78249833D01*
X142235063Y-78250000D01*
X140806811Y-78250000D01*
X140799013Y-78249758D01*
X140798823Y-78249746D01*
X140794852Y-78249500D01*
X139206178Y-78249500D01*
X139136908Y-78257576D01*
X139083442Y-78263809D01*
X139083439Y-78263810D01*
X139076172Y-78264657D01*
X139069297Y-78267153D01*
X139069295Y-78267153D01*
X138958487Y-78307375D01*
X138929101Y-78314199D01*
X138891949Y-78318234D01*
X138766088Y-78365417D01*
X138758907Y-78370799D01*
X138758905Y-78370800D01*
X138684400Y-78426638D01*
X138658528Y-78446028D01*
X138646884Y-78461565D01*
X138590026Y-78504080D01*
X138546058Y-78512000D01*
X137388481Y-78512000D01*
X137335136Y-78520449D01*
X137315425Y-78522000D01*
X136695326Y-78522000D01*
X136622260Y-78536534D01*
X136539399Y-78591899D01*
X136484034Y-78674760D01*
X136469500Y-78747826D01*
X136469500Y-79077174D01*
X136484034Y-79150240D01*
X136539399Y-79233101D01*
X136549714Y-79239993D01*
X136549715Y-79239994D01*
X136611436Y-79281234D01*
X136656964Y-79335711D01*
X136665813Y-79406154D01*
X136635172Y-79470198D01*
X136574770Y-79507510D01*
X136541435Y-79512000D01*
X134216500Y-79512000D01*
X134148379Y-79491998D01*
X134101886Y-79438342D01*
X134090500Y-79386000D01*
X134090500Y-79247826D01*
X134078417Y-79187082D01*
X134078417Y-79137918D01*
X134081751Y-79121158D01*
X134090500Y-79077174D01*
X134090500Y-78747826D01*
X134075966Y-78674760D01*
X134020601Y-78591899D01*
X133937740Y-78536534D01*
X133864674Y-78522000D01*
X132415326Y-78522000D01*
X132342260Y-78536534D01*
X132259399Y-78591899D01*
X132204034Y-78674760D01*
X132189500Y-78747826D01*
X132189500Y-78886000D01*
X132169498Y-78954121D01*
X132115842Y-79000614D01*
X132063500Y-79012000D01*
X131748450Y-79012000D01*
X131680329Y-78991998D01*
X131633836Y-78938342D01*
X131629567Y-78927749D01*
X131611263Y-78875627D01*
X131597634Y-78836816D01*
X131592042Y-78829246D01*
X131592041Y-78829243D01*
X131522742Y-78735421D01*
X131517150Y-78727850D01*
X131500206Y-78715335D01*
X131415757Y-78652959D01*
X131415754Y-78652958D01*
X131408184Y-78647366D01*
X131280369Y-78602481D01*
X131272723Y-78601758D01*
X131272722Y-78601758D01*
X131266752Y-78601194D01*
X131248834Y-78599500D01*
X130591166Y-78599500D01*
X130573248Y-78601194D01*
X130567278Y-78601758D01*
X130567277Y-78601758D01*
X130559631Y-78602481D01*
X130431816Y-78647366D01*
X130424246Y-78652958D01*
X130424243Y-78652959D01*
X130339794Y-78715335D01*
X130322850Y-78727850D01*
X130317258Y-78735421D01*
X130247959Y-78829243D01*
X130247958Y-78829246D01*
X130242366Y-78836816D01*
X130197481Y-78964631D01*
X130194500Y-78996166D01*
X130194500Y-79503834D01*
X130197481Y-79535369D01*
X130242366Y-79663184D01*
X130247958Y-79670754D01*
X130247959Y-79670757D01*
X130306490Y-79750001D01*
X130322850Y-79772150D01*
X130353879Y-79795068D01*
X130368360Y-79805764D01*
X130411271Y-79862326D01*
X130419500Y-79907115D01*
X130419500Y-80017885D01*
X130399498Y-80086006D01*
X130368361Y-80119235D01*
X130322850Y-80152850D01*
X130317255Y-80160425D01*
X130317254Y-80160426D01*
X130247959Y-80254243D01*
X130247958Y-80254246D01*
X130242366Y-80261816D01*
X130197481Y-80389631D01*
X130194500Y-80421166D01*
X130194500Y-80928834D01*
X130197481Y-80960369D01*
X130242366Y-81088184D01*
X130247958Y-81095754D01*
X130247959Y-81095757D01*
X130310335Y-81180206D01*
X130322850Y-81197150D01*
X130330421Y-81202742D01*
X130424243Y-81272041D01*
X130424246Y-81272042D01*
X130431816Y-81277634D01*
X130559631Y-81322519D01*
X130567277Y-81323242D01*
X130567278Y-81323242D01*
X130573248Y-81323806D01*
X130591166Y-81325500D01*
X131248834Y-81325500D01*
X131266752Y-81323806D01*
X131272722Y-81323242D01*
X131272723Y-81323242D01*
X131280369Y-81322519D01*
X131408184Y-81277634D01*
X131415754Y-81272042D01*
X131415757Y-81272041D01*
X131509579Y-81202742D01*
X131517150Y-81197150D01*
X131529665Y-81180206D01*
X131592041Y-81095757D01*
X131592042Y-81095754D01*
X131597634Y-81088184D01*
X131642519Y-80960369D01*
X131645500Y-80928834D01*
X131645500Y-80421166D01*
X131642519Y-80389631D01*
X131597634Y-80261816D01*
X131592042Y-80254246D01*
X131592041Y-80254243D01*
X131522746Y-80160426D01*
X131522745Y-80160425D01*
X131517150Y-80152850D01*
X131471639Y-80119235D01*
X131428729Y-80062674D01*
X131420500Y-80017885D01*
X131420500Y-79939000D01*
X131440502Y-79870879D01*
X131494158Y-79824386D01*
X131546500Y-79813000D01*
X132063500Y-79813000D01*
X132131621Y-79833002D01*
X132178114Y-79886658D01*
X132189500Y-79939000D01*
X132189500Y-80077174D01*
X132200570Y-80132826D01*
X132201583Y-80137918D01*
X132201583Y-80187082D01*
X132189500Y-80247826D01*
X132189500Y-80577174D01*
X132192429Y-80591899D01*
X132201583Y-80637918D01*
X132201583Y-80687082D01*
X132189500Y-80747826D01*
X132189500Y-81077174D01*
X132204034Y-81150240D01*
X132259399Y-81233101D01*
X132342260Y-81288466D01*
X132354431Y-81290887D01*
X132415326Y-81303000D01*
X132414905Y-81305118D01*
X132471667Y-81328027D01*
X132512686Y-81385975D01*
X132519500Y-81426850D01*
X132519500Y-83250933D01*
X132522564Y-83260364D01*
X132522565Y-83260368D01*
X132526297Y-83271853D01*
X132530913Y-83291078D01*
X132534354Y-83312804D01*
X132538855Y-83321637D01*
X132538856Y-83321641D01*
X132544341Y-83332406D01*
X132551905Y-83350666D01*
X132558704Y-83371590D01*
X132571639Y-83389393D01*
X132581965Y-83406245D01*
X132591950Y-83425842D01*
X132614513Y-83448405D01*
X132614516Y-83448409D01*
X132934091Y-83767984D01*
X132934095Y-83767987D01*
X132956658Y-83790550D01*
X132965497Y-83795054D01*
X132965499Y-83795055D01*
X132976258Y-83800537D01*
X132993114Y-83810865D01*
X133010911Y-83823796D01*
X133031832Y-83830594D01*
X133050092Y-83838158D01*
X133060859Y-83843644D01*
X133060863Y-83843645D01*
X133069696Y-83848146D01*
X133079487Y-83849697D01*
X133079488Y-83849697D01*
X133091422Y-83851587D01*
X133110647Y-83856203D01*
X133122132Y-83859935D01*
X133122136Y-83859936D01*
X133131567Y-83863000D01*
X133147541Y-83863000D01*
X133215662Y-83883002D01*
X133258945Y-83934795D01*
X133259034Y-83935240D01*
X133265926Y-83945555D01*
X133265927Y-83945557D01*
X133278487Y-83964354D01*
X133314399Y-84018101D01*
X133330748Y-84029025D01*
X133359267Y-84048080D01*
X133397260Y-84073466D01*
X133470326Y-84088000D01*
X134369674Y-84088000D01*
X134442740Y-84073466D01*
X134480734Y-84048080D01*
X134509252Y-84029025D01*
X134525601Y-84018101D01*
X134562550Y-83962802D01*
X134574072Y-83945558D01*
X134574072Y-83945557D01*
X134580966Y-83935240D01*
X134595500Y-83862174D01*
X134595500Y-83146557D01*
X134615502Y-83078436D01*
X134669158Y-83031943D01*
X134739432Y-83021839D01*
X134747162Y-83023960D01*
X134747260Y-83023466D01*
X134820326Y-83038000D01*
X135719674Y-83038000D01*
X135792740Y-83023466D01*
X135818113Y-83006513D01*
X135865286Y-82974993D01*
X135875601Y-82968101D01*
X135911754Y-82913994D01*
X135924073Y-82895557D01*
X135924074Y-82895555D01*
X135930966Y-82885240D01*
X135931113Y-82884500D01*
X135970597Y-82835502D01*
X136042459Y-82813000D01*
X136483433Y-82813000D01*
X136492864Y-82809936D01*
X136492868Y-82809935D01*
X136504353Y-82806203D01*
X136523578Y-82801587D01*
X136535512Y-82799697D01*
X136535513Y-82799697D01*
X136545304Y-82798146D01*
X136554137Y-82793645D01*
X136554141Y-82793644D01*
X136564906Y-82788159D01*
X136583166Y-82780595D01*
X136604090Y-82773796D01*
X136621893Y-82760861D01*
X136638745Y-82750535D01*
X136649502Y-82745054D01*
X136658342Y-82740550D01*
X136680905Y-82717987D01*
X136680909Y-82717984D01*
X137725484Y-81673409D01*
X137725487Y-81673405D01*
X137748050Y-81650842D01*
X137756297Y-81634657D01*
X137758037Y-81631243D01*
X137768366Y-81614387D01*
X137775467Y-81604613D01*
X137781297Y-81596589D01*
X137788096Y-81575664D01*
X137795660Y-81557403D01*
X137801144Y-81546640D01*
X137801144Y-81546639D01*
X137805646Y-81537804D01*
X137809087Y-81516078D01*
X137813703Y-81496852D01*
X137817435Y-81485367D01*
X137817435Y-81485365D01*
X137820500Y-81475933D01*
X137820500Y-81429000D01*
X137840502Y-81360879D01*
X137894158Y-81314386D01*
X137946500Y-81303000D01*
X138144674Y-81303000D01*
X138217740Y-81288466D01*
X138300601Y-81233101D01*
X138355966Y-81150240D01*
X138367688Y-81091311D01*
X138400596Y-81028402D01*
X138462291Y-80993270D01*
X138533186Y-80997070D01*
X138592094Y-81040329D01*
X138653147Y-81121793D01*
X138653150Y-81121796D01*
X138658528Y-81128972D01*
X138665704Y-81134350D01*
X138665707Y-81134353D01*
X138699064Y-81159352D01*
X138741580Y-81216211D01*
X138749500Y-81260179D01*
X138749500Y-81299180D01*
X138729498Y-81367301D01*
X138699064Y-81400007D01*
X138692496Y-81404929D01*
X138692494Y-81404931D01*
X138685313Y-81410313D01*
X138679932Y-81417493D01*
X138679929Y-81417496D01*
X138643567Y-81466014D01*
X138603628Y-81519305D01*
X138555816Y-81646843D01*
X138554963Y-81654696D01*
X138554962Y-81654700D01*
X138552211Y-81680026D01*
X138549500Y-81704985D01*
X138549501Y-82295014D01*
X138555816Y-82353157D01*
X138603628Y-82480695D01*
X138635907Y-82523765D01*
X138679929Y-82582504D01*
X138679932Y-82582507D01*
X138685313Y-82589687D01*
X138692494Y-82595069D01*
X138692496Y-82595071D01*
X138699064Y-82599993D01*
X138741580Y-82656851D01*
X138749500Y-82700820D01*
X138749500Y-83040941D01*
X138726587Y-83113392D01*
X138678561Y-83181726D01*
X138672501Y-83190348D01*
X138615309Y-83337039D01*
X138613440Y-83351234D01*
X138597257Y-83474158D01*
X138594758Y-83493138D01*
X138612035Y-83649633D01*
X138666143Y-83797490D01*
X138670380Y-83803796D01*
X138670382Y-83803799D01*
X138705597Y-83856203D01*
X138753958Y-83928172D01*
X138870410Y-84034135D01*
X138930151Y-84066572D01*
X139002099Y-84105637D01*
X139002101Y-84105638D01*
X139008776Y-84109262D01*
X139016125Y-84111190D01*
X139153719Y-84147287D01*
X139153721Y-84147287D01*
X139161069Y-84149215D01*
X139244380Y-84150524D01*
X139310898Y-84151569D01*
X139310901Y-84151569D01*
X139318495Y-84151688D01*
X139471968Y-84116538D01*
X139612625Y-84045795D01*
X139618401Y-84040862D01*
X145245497Y-84040862D01*
X145246737Y-84048078D01*
X145246737Y-84048080D01*
X145271898Y-84194509D01*
X145275134Y-84213340D01*
X145343654Y-84374373D01*
X145347988Y-84380262D01*
X145347993Y-84380271D01*
X145358782Y-84394931D01*
X145376182Y-84427863D01*
X145392913Y-84475504D01*
X145397366Y-84488184D01*
X145402958Y-84495754D01*
X145402959Y-84495757D01*
X145460868Y-84574158D01*
X145477850Y-84597150D01*
X145485421Y-84602742D01*
X145579243Y-84672041D01*
X145579246Y-84672042D01*
X145586816Y-84677634D01*
X145714631Y-84722519D01*
X145722277Y-84723242D01*
X145722278Y-84723242D01*
X145728248Y-84723806D01*
X145746166Y-84725500D01*
X145792047Y-84725500D01*
X145821995Y-84729111D01*
X145906606Y-84749815D01*
X145912206Y-84750162D01*
X145912210Y-84750163D01*
X145915709Y-84750380D01*
X145915718Y-84750380D01*
X145917648Y-84750500D01*
X146660532Y-84750500D01*
X146728653Y-84770502D01*
X146749629Y-84787406D01*
X146757503Y-84795280D01*
X146764399Y-84805601D01*
X146847260Y-84860966D01*
X146920326Y-84875500D01*
X148569674Y-84875500D01*
X148642740Y-84860966D01*
X148725601Y-84805601D01*
X148780966Y-84722740D01*
X148795500Y-84649674D01*
X148795500Y-83000326D01*
X148780966Y-82927260D01*
X148767362Y-82906899D01*
X148732493Y-82854714D01*
X148725601Y-82844399D01*
X148668436Y-82806203D01*
X148653058Y-82795928D01*
X148653057Y-82795928D01*
X148642740Y-82789034D01*
X148569674Y-82774500D01*
X146920326Y-82774500D01*
X146847260Y-82789034D01*
X146836943Y-82795928D01*
X146836942Y-82795928D01*
X146821564Y-82806203D01*
X146764399Y-82844399D01*
X146757507Y-82854714D01*
X146722639Y-82906899D01*
X146709034Y-82927260D01*
X146694500Y-83000326D01*
X146694500Y-83123500D01*
X146674498Y-83191621D01*
X146620842Y-83238114D01*
X146568500Y-83249500D01*
X145956178Y-83249500D01*
X145864631Y-83260173D01*
X145833444Y-83263809D01*
X145833442Y-83263809D01*
X145826172Y-83264657D01*
X145819292Y-83267154D01*
X145812165Y-83268839D01*
X145812042Y-83268318D01*
X145776894Y-83274500D01*
X145746166Y-83274500D01*
X145728248Y-83276194D01*
X145722278Y-83276758D01*
X145722277Y-83276758D01*
X145714631Y-83277481D01*
X145586816Y-83322366D01*
X145579246Y-83327958D01*
X145579243Y-83327959D01*
X145496080Y-83389385D01*
X145477850Y-83402850D01*
X145472258Y-83410421D01*
X145402959Y-83504243D01*
X145402958Y-83504246D01*
X145397366Y-83511816D01*
X145377549Y-83568249D01*
X145373413Y-83580026D01*
X145363487Y-83601557D01*
X145307061Y-83698702D01*
X145256333Y-83866193D01*
X145245497Y-84040862D01*
X139618401Y-84040862D01*
X139702708Y-83968857D01*
X139726574Y-83948474D01*
X139726576Y-83948471D01*
X139732348Y-83943542D01*
X139824224Y-83815683D01*
X139829662Y-83802157D01*
X139843402Y-83767976D01*
X139882950Y-83669598D01*
X139903969Y-83521907D01*
X139904553Y-83517807D01*
X139904553Y-83517804D01*
X139905134Y-83513723D01*
X139905202Y-83507254D01*
X139905235Y-83504134D01*
X139905235Y-83504128D01*
X139905278Y-83500000D01*
X139886363Y-83343694D01*
X139862780Y-83281284D01*
X139833394Y-83203514D01*
X139833393Y-83203511D01*
X139830710Y-83196412D01*
X139826412Y-83190158D01*
X139826408Y-83190151D01*
X139772661Y-83111950D01*
X139750500Y-83040582D01*
X139750500Y-82700820D01*
X139770502Y-82632699D01*
X139800936Y-82599993D01*
X139807504Y-82595071D01*
X139807506Y-82595069D01*
X139814687Y-82589687D01*
X139820068Y-82582507D01*
X139820071Y-82582504D01*
X139864093Y-82523765D01*
X139896372Y-82480695D01*
X139944184Y-82353157D01*
X139945037Y-82345304D01*
X139945038Y-82345300D01*
X139950131Y-82298414D01*
X139950131Y-82298410D01*
X139950500Y-82295015D01*
X139950499Y-81704986D01*
X139944184Y-81646843D01*
X139896372Y-81519305D01*
X139856433Y-81466014D01*
X139820071Y-81417496D01*
X139820068Y-81417493D01*
X139814687Y-81410313D01*
X139807506Y-81404931D01*
X139807504Y-81404929D01*
X139800936Y-81400007D01*
X139758420Y-81343149D01*
X139750500Y-81299180D01*
X139750500Y-81260179D01*
X139770502Y-81192058D01*
X139800936Y-81159352D01*
X139834293Y-81134353D01*
X139834296Y-81134350D01*
X139841472Y-81128972D01*
X139922083Y-81021412D01*
X139959857Y-80920649D01*
X139966494Y-80902946D01*
X139966494Y-80902944D01*
X139969266Y-80895551D01*
X139975500Y-80838165D01*
X139975499Y-80311836D01*
X139969266Y-80254449D01*
X139934019Y-80160426D01*
X139925235Y-80136996D01*
X139922083Y-80128588D01*
X139916157Y-80120680D01*
X139846850Y-80028204D01*
X139841472Y-80021028D01*
X139834296Y-80015650D01*
X139834293Y-80015647D01*
X139783162Y-79977327D01*
X139740646Y-79920468D01*
X139735620Y-79849649D01*
X139769679Y-79787356D01*
X139832010Y-79753365D01*
X139858726Y-79750500D01*
X140756322Y-79750500D01*
X140759179Y-79750167D01*
X140764929Y-79750000D01*
X142193184Y-79750000D01*
X142200993Y-79750242D01*
X142205148Y-79750500D01*
X143773822Y-79750500D01*
X143776674Y-79750168D01*
X143782415Y-79750001D01*
X144920001Y-79750001D01*
X144920001Y-79744682D01*
X144945510Y-79737192D01*
X144957484Y-79729497D01*
X145003167Y-79725433D01*
X145003193Y-79724947D01*
X145006576Y-79725130D01*
X145006578Y-79725130D01*
X145006584Y-79725131D01*
X145006592Y-79725131D01*
X145009985Y-79725500D01*
X145222045Y-79725500D01*
X145251994Y-79729111D01*
X145336606Y-79749815D01*
X145342206Y-79750162D01*
X145342210Y-79750163D01*
X145345709Y-79750380D01*
X145345718Y-79750380D01*
X145347648Y-79750500D01*
X146568500Y-79750500D01*
X146636621Y-79770502D01*
X146683114Y-79824158D01*
X146694500Y-79876500D01*
X146694500Y-79999674D01*
X146709034Y-80072740D01*
X146764399Y-80155601D01*
X146774714Y-80162493D01*
X146836076Y-80203493D01*
X146847260Y-80210966D01*
X146920326Y-80225500D01*
X148569674Y-80225500D01*
X148642740Y-80210966D01*
X148653925Y-80203493D01*
X148715286Y-80162493D01*
X148725601Y-80155601D01*
X148780966Y-80072740D01*
X148795500Y-79999674D01*
X148795500Y-78350326D01*
X148780966Y-78277260D01*
X148772546Y-78264657D01*
X148732493Y-78204714D01*
X148725601Y-78194399D01*
X148663585Y-78152962D01*
X148653058Y-78145928D01*
X148653057Y-78145928D01*
X148642740Y-78139034D01*
X148569674Y-78124500D01*
X146920326Y-78124500D01*
X146847260Y-78139034D01*
X146836943Y-78145928D01*
X146836942Y-78145928D01*
X146776724Y-78186164D01*
X146764399Y-78194399D01*
X146757503Y-78204720D01*
X146749629Y-78212594D01*
X146687317Y-78246620D01*
X146660532Y-78249500D01*
X145386178Y-78249500D01*
X145307782Y-78258640D01*
X145263443Y-78263809D01*
X145263441Y-78263810D01*
X145256172Y-78264657D01*
X145249291Y-78267155D01*
X145242167Y-78268839D01*
X145242044Y-78268319D01*
X145206893Y-78274501D01*
X145009986Y-78274501D01*
X145006590Y-78274870D01*
X145006587Y-78274870D01*
X145002823Y-78275279D01*
X144932942Y-78262746D01*
X144920000Y-78254108D01*
X144920000Y-78250001D01*
X144383926Y-78250001D01*
X144315805Y-78229999D01*
X144269312Y-78176343D01*
X144259208Y-78106069D01*
X144288702Y-78041489D01*
X144308358Y-78023177D01*
X144319687Y-78014687D01*
X144401372Y-77905695D01*
X144449184Y-77778157D01*
X144450037Y-77770304D01*
X144450038Y-77770300D01*
X144455131Y-77723414D01*
X144455131Y-77723410D01*
X144455500Y-77720015D01*
X144455500Y-77657953D01*
X144459111Y-77628005D01*
X144474618Y-77564632D01*
X144479815Y-77543394D01*
X144480500Y-77532352D01*
X144480500Y-75991449D01*
X144500502Y-75923328D01*
X144526795Y-75896560D01*
X144526507Y-75896272D01*
X144535286Y-75887493D01*
X144545601Y-75880601D01*
X144600966Y-75797740D01*
X144615500Y-75724674D01*
X144615500Y-72376000D01*
X144635502Y-72307879D01*
X144689158Y-72261386D01*
X144741500Y-72250000D01*
X161374000Y-72250000D01*
X161442121Y-72270002D01*
X161488614Y-72323658D01*
X161500000Y-72376000D01*
X161500000Y-79988500D01*
X161479998Y-80056621D01*
X161426342Y-80103114D01*
X161374000Y-80114500D01*
X157995326Y-80114500D01*
X157922260Y-80129034D01*
X157839399Y-80184399D01*
X157832507Y-80194714D01*
X157823728Y-80203493D01*
X157822651Y-80202416D01*
X157778837Y-80239031D01*
X157728551Y-80249500D01*
X157255529Y-80249500D01*
X157187408Y-80229498D01*
X157166434Y-80212595D01*
X155645150Y-78691311D01*
X155632763Y-78676898D01*
X155624431Y-78665575D01*
X155624427Y-78665571D01*
X155620089Y-78659676D01*
X155580272Y-78625849D01*
X155572768Y-78618929D01*
X155567169Y-78613330D01*
X155545121Y-78595886D01*
X155541745Y-78593117D01*
X155492297Y-78551108D01*
X155492294Y-78551106D01*
X155486717Y-78546368D01*
X155480198Y-78543040D01*
X155475288Y-78539765D01*
X155470268Y-78536664D01*
X155464523Y-78532119D01*
X155439554Y-78520449D01*
X155421476Y-78512000D01*
X155399123Y-78501553D01*
X155395177Y-78499625D01*
X155388736Y-78496336D01*
X155330856Y-78466781D01*
X155323747Y-78465042D01*
X155318212Y-78462983D01*
X155312604Y-78461117D01*
X155305979Y-78458021D01*
X155298819Y-78456532D01*
X155298817Y-78456531D01*
X155235279Y-78443315D01*
X155230990Y-78442344D01*
X155214375Y-78438279D01*
X155160866Y-78425185D01*
X155155266Y-78424838D01*
X155155262Y-78424837D01*
X155149824Y-78424500D01*
X155149826Y-78424468D01*
X155145696Y-78424221D01*
X155141816Y-78423875D01*
X155134641Y-78422382D01*
X155127320Y-78422580D01*
X155127319Y-78422580D01*
X155058072Y-78424454D01*
X155054664Y-78424500D01*
X154833660Y-78424500D01*
X154765539Y-78404498D01*
X154719046Y-78350842D01*
X154710081Y-78323083D01*
X154703387Y-78289430D01*
X154703387Y-78289429D01*
X154700966Y-78277260D01*
X154692546Y-78264657D01*
X154652493Y-78204714D01*
X154645601Y-78194399D01*
X154583585Y-78152962D01*
X154573058Y-78145928D01*
X154573057Y-78145928D01*
X154562740Y-78139034D01*
X154489674Y-78124500D01*
X152840326Y-78124500D01*
X152767260Y-78139034D01*
X152756943Y-78145928D01*
X152756942Y-78145928D01*
X152746415Y-78152962D01*
X152684399Y-78194399D01*
X152677507Y-78204714D01*
X152637455Y-78264657D01*
X152629034Y-78277260D01*
X152614500Y-78350326D01*
X152614500Y-79999674D01*
X152629034Y-80072740D01*
X152684399Y-80155601D01*
X152694714Y-80162493D01*
X152756076Y-80203493D01*
X152767260Y-80210966D01*
X152840326Y-80225500D01*
X154489674Y-80225500D01*
X154562740Y-80210966D01*
X154573925Y-80203493D01*
X154635286Y-80162493D01*
X154645601Y-80155601D01*
X154696931Y-80078779D01*
X154751407Y-80033252D01*
X154821850Y-80024403D01*
X154890791Y-80059686D01*
X155610338Y-80779234D01*
X156314797Y-81483693D01*
X156327183Y-81498105D01*
X156335516Y-81509429D01*
X156335519Y-81509433D01*
X156339855Y-81515324D01*
X156354438Y-81527713D01*
X156379653Y-81549135D01*
X156387169Y-81556065D01*
X156392775Y-81561671D01*
X156395636Y-81563934D01*
X156395641Y-81563939D01*
X156414826Y-81579117D01*
X156418227Y-81581906D01*
X156456460Y-81614387D01*
X156473227Y-81628632D01*
X156479750Y-81631963D01*
X156484688Y-81635256D01*
X156489682Y-81638340D01*
X156495421Y-81642881D01*
X156502048Y-81645978D01*
X156502054Y-81645982D01*
X156560835Y-81673454D01*
X156564776Y-81675380D01*
X156629088Y-81708219D01*
X156636199Y-81709959D01*
X156641741Y-81712020D01*
X156647334Y-81713881D01*
X156653965Y-81716980D01*
X156661127Y-81718470D01*
X156661128Y-81718470D01*
X156724681Y-81731689D01*
X156728965Y-81732659D01*
X156799078Y-81749815D01*
X156804678Y-81750162D01*
X156804682Y-81750163D01*
X156810120Y-81750500D01*
X156810118Y-81750532D01*
X156814231Y-81750779D01*
X156818138Y-81751128D01*
X156825303Y-81752618D01*
X156901872Y-81750546D01*
X156905280Y-81750500D01*
X157728551Y-81750500D01*
X157796672Y-81770502D01*
X157823440Y-81796795D01*
X157823728Y-81796507D01*
X157832507Y-81805286D01*
X157839399Y-81815601D01*
X157922260Y-81870966D01*
X157995326Y-81885500D01*
X161374000Y-81885500D01*
X161442121Y-81905502D01*
X161488614Y-81959158D01*
X161500000Y-82011500D01*
X161500000Y-85688500D01*
X161479998Y-85756621D01*
X161426342Y-85803114D01*
X161374000Y-85814500D01*
X157995326Y-85814500D01*
X157922260Y-85829034D01*
X157911943Y-85835928D01*
X157911942Y-85835928D01*
X157880350Y-85857037D01*
X157839399Y-85884399D01*
X157832507Y-85894714D01*
X157799909Y-85943501D01*
X157745432Y-85989029D01*
X157695143Y-85999500D01*
X155176178Y-85999500D01*
X155097386Y-86008686D01*
X155053443Y-86013809D01*
X155053441Y-86013810D01*
X155046172Y-86014657D01*
X155039291Y-86017155D01*
X155032167Y-86018839D01*
X155032044Y-86018319D01*
X154996893Y-86024501D01*
X154949986Y-86024501D01*
X154891843Y-86030816D01*
X154764305Y-86078628D01*
X154655313Y-86160313D01*
X154573628Y-86269305D01*
X154570476Y-86277714D01*
X154570475Y-86277715D01*
X154564009Y-86294963D01*
X154521368Y-86351728D01*
X154454807Y-86376428D01*
X154385458Y-86361221D01*
X154342630Y-86318370D01*
X154341376Y-86319310D01*
X154339682Y-86317050D01*
X154337710Y-86313448D01*
X154335509Y-86311246D01*
X154331679Y-86304251D01*
X154332444Y-86303832D01*
X154322522Y-86285711D01*
X154316372Y-86269305D01*
X154310992Y-86262126D01*
X154310990Y-86262123D01*
X154240068Y-86167493D01*
X154234687Y-86160313D01*
X154208423Y-86140629D01*
X154131928Y-86083299D01*
X154089413Y-86026440D01*
X154084387Y-85955621D01*
X154118447Y-85893328D01*
X154144817Y-85873576D01*
X154150695Y-85871372D01*
X154259687Y-85789687D01*
X154341372Y-85680695D01*
X154389184Y-85553157D01*
X154390037Y-85545304D01*
X154390038Y-85545300D01*
X154395131Y-85498414D01*
X154395131Y-85498410D01*
X154395500Y-85495015D01*
X154395500Y-85450262D01*
X154398973Y-85424407D01*
X154398828Y-85424385D01*
X154424048Y-85258604D01*
X154424048Y-85258600D01*
X154425148Y-85251370D01*
X154424061Y-85237999D01*
X154415915Y-85137850D01*
X154415500Y-85127636D01*
X154415500Y-84993660D01*
X154435502Y-84925539D01*
X154489158Y-84879046D01*
X154516917Y-84870081D01*
X154550570Y-84863387D01*
X154550571Y-84863387D01*
X154562740Y-84860966D01*
X154645601Y-84805601D01*
X154700966Y-84722740D01*
X154715500Y-84649674D01*
X154715500Y-83000326D01*
X154700966Y-82927260D01*
X154687362Y-82906899D01*
X154652493Y-82854714D01*
X154645601Y-82844399D01*
X154588436Y-82806203D01*
X154573058Y-82795928D01*
X154573057Y-82795928D01*
X154562740Y-82789034D01*
X154489674Y-82774500D01*
X152840326Y-82774500D01*
X152767260Y-82789034D01*
X152756943Y-82795928D01*
X152756942Y-82795928D01*
X152741564Y-82806203D01*
X152684399Y-82844399D01*
X152677507Y-82854714D01*
X152642639Y-82906899D01*
X152629034Y-82927260D01*
X152614500Y-83000326D01*
X152614500Y-84649674D01*
X152629034Y-84722740D01*
X152684399Y-84805601D01*
X152767260Y-84860966D01*
X152779429Y-84863387D01*
X152779430Y-84863387D01*
X152813083Y-84870081D01*
X152875992Y-84902989D01*
X152911123Y-84964685D01*
X152914500Y-84993660D01*
X152914500Y-85153546D01*
X152913067Y-85172496D01*
X152909852Y-85193630D01*
X152910445Y-85200922D01*
X152910445Y-85200925D01*
X152914085Y-85245675D01*
X152914500Y-85255889D01*
X152914500Y-85263822D01*
X152914925Y-85267466D01*
X152917754Y-85291736D01*
X152918187Y-85296111D01*
X152924039Y-85368059D01*
X152926295Y-85375024D01*
X152927454Y-85380823D01*
X152928809Y-85386555D01*
X152929657Y-85393828D01*
X152932154Y-85400706D01*
X152936940Y-85413892D01*
X152944501Y-85456884D01*
X152944501Y-85495014D01*
X152950816Y-85553157D01*
X152998628Y-85680695D01*
X153080313Y-85789687D01*
X153189305Y-85871372D01*
X153194309Y-85873248D01*
X153243162Y-85922212D01*
X153258176Y-85991603D01*
X153233290Y-86058095D01*
X153208072Y-86083299D01*
X153131577Y-86140629D01*
X153105313Y-86160313D01*
X153099932Y-86167493D01*
X153029010Y-86262123D01*
X153029008Y-86262126D01*
X153023628Y-86269305D01*
X153017478Y-86285711D01*
X153007556Y-86303831D01*
X153008322Y-86304250D01*
X153004014Y-86312119D01*
X152998628Y-86319305D01*
X152950816Y-86446843D01*
X152949963Y-86454696D01*
X152949962Y-86454700D01*
X152944869Y-86501586D01*
X152944500Y-86504985D01*
X152944500Y-86567047D01*
X152940889Y-86596995D01*
X152920185Y-86681606D01*
X152919500Y-86692648D01*
X152919500Y-88543822D01*
X152925915Y-88598848D01*
X152931977Y-88650839D01*
X152934657Y-88673828D01*
X152937153Y-88680703D01*
X152937153Y-88680705D01*
X152977375Y-88791513D01*
X152984199Y-88820899D01*
X152988234Y-88858051D01*
X152991007Y-88865447D01*
X152991008Y-88865451D01*
X153006619Y-88907094D01*
X153035417Y-88983912D01*
X153040799Y-88991093D01*
X153040800Y-88991095D01*
X153110646Y-89084291D01*
X153116028Y-89091472D01*
X153123208Y-89096853D01*
X153123212Y-89096857D01*
X153169065Y-89131221D01*
X153211580Y-89188080D01*
X153219500Y-89232047D01*
X153219500Y-89623500D01*
X153199498Y-89691621D01*
X153145842Y-89738114D01*
X153093500Y-89749500D01*
X152795326Y-89749500D01*
X152722260Y-89764034D01*
X152639399Y-89819399D01*
X152618786Y-89850249D01*
X152592130Y-89890144D01*
X152584034Y-89902260D01*
X152569500Y-89975326D01*
X152569500Y-92388433D01*
X152572564Y-92397864D01*
X152572565Y-92397868D01*
X152576297Y-92409353D01*
X152580913Y-92428578D01*
X152584354Y-92450304D01*
X152588855Y-92459137D01*
X152588856Y-92459141D01*
X152594341Y-92469906D01*
X152601905Y-92488166D01*
X152608704Y-92509090D01*
X152621639Y-92526893D01*
X152631965Y-92543745D01*
X152641950Y-92563342D01*
X152664513Y-92585905D01*
X152664516Y-92585909D01*
X153182595Y-93103988D01*
X153216621Y-93166300D01*
X153219500Y-93193083D01*
X153219500Y-93623500D01*
X153199498Y-93691621D01*
X153145842Y-93738114D01*
X153093500Y-93749500D01*
X152795326Y-93749500D01*
X152722260Y-93764034D01*
X152711940Y-93770929D01*
X152700479Y-93775677D01*
X152699656Y-93773690D01*
X152647245Y-93790099D01*
X152590454Y-93773424D01*
X152589521Y-93775677D01*
X152578060Y-93770929D01*
X152567740Y-93764034D01*
X152494674Y-93749500D01*
X152145326Y-93749500D01*
X152072260Y-93764034D01*
X152061943Y-93770928D01*
X152061942Y-93770928D01*
X152042993Y-93783589D01*
X151989399Y-93819399D01*
X151982507Y-93829714D01*
X151943334Y-93888342D01*
X151934034Y-93902260D01*
X151919500Y-93975326D01*
X151919500Y-95024674D01*
X151934034Y-95097740D01*
X151940928Y-95108057D01*
X151940928Y-95108058D01*
X151943753Y-95112286D01*
X151989399Y-95180601D01*
X151999714Y-95187493D01*
X152061727Y-95228928D01*
X152072260Y-95235966D01*
X152145326Y-95250500D01*
X152443500Y-95250500D01*
X152511621Y-95270502D01*
X152558114Y-95324158D01*
X152569500Y-95376500D01*
X152569500Y-95561917D01*
X152549498Y-95630038D01*
X152532595Y-95651012D01*
X151579115Y-96604492D01*
X151516803Y-96638518D01*
X151445988Y-96633453D01*
X151404491Y-96607921D01*
X151317059Y-96527099D01*
X151317053Y-96527095D01*
X151312812Y-96523174D01*
X151285374Y-96505862D01*
X151146637Y-96418325D01*
X151141757Y-96415246D01*
X150953898Y-96340298D01*
X150755526Y-96300839D01*
X150749752Y-96300763D01*
X150749748Y-96300763D01*
X150647257Y-96299422D01*
X150553286Y-96298192D01*
X150547589Y-96299171D01*
X150547588Y-96299171D01*
X150359646Y-96331465D01*
X150359645Y-96331465D01*
X150353949Y-96332444D01*
X150164193Y-96402449D01*
X150159232Y-96405401D01*
X150159231Y-96405401D01*
X149999384Y-96500500D01*
X149990371Y-96505862D01*
X149838305Y-96639220D01*
X149713089Y-96798057D01*
X149618914Y-96977053D01*
X149617850Y-96976493D01*
X149577143Y-97027003D01*
X149505287Y-97049500D01*
X149133650Y-97049500D01*
X149065529Y-97029498D01*
X149032299Y-96998360D01*
X149022742Y-96985421D01*
X149017150Y-96977850D01*
X148972033Y-96944526D01*
X148915757Y-96902959D01*
X148915754Y-96902958D01*
X148908184Y-96897366D01*
X148780369Y-96852481D01*
X148772723Y-96851758D01*
X148772722Y-96851758D01*
X148766752Y-96851194D01*
X148748834Y-96849500D01*
X148091166Y-96849500D01*
X148073248Y-96851194D01*
X148067278Y-96851758D01*
X148067277Y-96851758D01*
X148059631Y-96852481D01*
X147931816Y-96897366D01*
X147924246Y-96902958D01*
X147924243Y-96902959D01*
X147867967Y-96944526D01*
X147822850Y-96977850D01*
X147817258Y-96985421D01*
X147807701Y-96998360D01*
X147751140Y-97041270D01*
X147706350Y-97049500D01*
X147419532Y-97049500D01*
X147362329Y-97035767D01*
X147320304Y-97014354D01*
X147310515Y-97012804D01*
X147310513Y-97012803D01*
X147281247Y-97008168D01*
X147226519Y-96999500D01*
X146607625Y-96999500D01*
X145988482Y-96999501D01*
X145983589Y-97000276D01*
X145983588Y-97000276D01*
X145904494Y-97012802D01*
X145904492Y-97012803D01*
X145894696Y-97014354D01*
X145885859Y-97018857D01*
X145885858Y-97018857D01*
X145882243Y-97020699D01*
X145781658Y-97071950D01*
X145691950Y-97161658D01*
X145634354Y-97274696D01*
X145632804Y-97284485D01*
X145632803Y-97284487D01*
X145632009Y-97289500D01*
X145619500Y-97368481D01*
X145619501Y-97731518D01*
X145620276Y-97736411D01*
X145620276Y-97736412D01*
X145627748Y-97783589D01*
X145634092Y-97823647D01*
X145634354Y-97825304D01*
X145634140Y-97825338D01*
X145635987Y-97890042D01*
X145599323Y-97950839D01*
X145535610Y-97982163D01*
X145465076Y-97974068D01*
X145456929Y-97970277D01*
X145445304Y-97964354D01*
X145435515Y-97962804D01*
X145435513Y-97962803D01*
X145408151Y-97958470D01*
X145351519Y-97949500D01*
X144732625Y-97949500D01*
X144113482Y-97949501D01*
X144108589Y-97950276D01*
X144108588Y-97950276D01*
X144029494Y-97962802D01*
X144029492Y-97962803D01*
X144019696Y-97964354D01*
X144010859Y-97968857D01*
X144010858Y-97968857D01*
X143977671Y-97985767D01*
X143920468Y-97999500D01*
X143639556Y-97999500D01*
X143571435Y-97979498D01*
X143538730Y-97949065D01*
X143515068Y-97917493D01*
X143509687Y-97910313D01*
X143400695Y-97828628D01*
X143273157Y-97780816D01*
X143265304Y-97779963D01*
X143265300Y-97779962D01*
X143218414Y-97774869D01*
X143218410Y-97774869D01*
X143215015Y-97774500D01*
X142945040Y-97774500D01*
X142674986Y-97774501D01*
X142616843Y-97780816D01*
X142489305Y-97828628D01*
X142380313Y-97910313D01*
X142298628Y-98019305D01*
X142295476Y-98027713D01*
X142287982Y-98047703D01*
X142245340Y-98104467D01*
X142178779Y-98129167D01*
X142109430Y-98113959D01*
X142059312Y-98063673D01*
X142052018Y-98047703D01*
X142044524Y-98027713D01*
X142041372Y-98019305D01*
X141959687Y-97910313D01*
X141956271Y-97907753D01*
X141923379Y-97847518D01*
X141920500Y-97820735D01*
X141920500Y-97732115D01*
X141940502Y-97663994D01*
X141971640Y-97630764D01*
X142009575Y-97602745D01*
X142017150Y-97597150D01*
X142037909Y-97569045D01*
X142092041Y-97495757D01*
X142092042Y-97495754D01*
X142097634Y-97488184D01*
X142142519Y-97360369D01*
X142145500Y-97328834D01*
X142145500Y-96821166D01*
X142142519Y-96789631D01*
X142097634Y-96661816D01*
X142092042Y-96654246D01*
X142092041Y-96654243D01*
X142022742Y-96560421D01*
X142017150Y-96552850D01*
X141982286Y-96527099D01*
X141915757Y-96477959D01*
X141915754Y-96477958D01*
X141908184Y-96472366D01*
X141780369Y-96427481D01*
X141772723Y-96426758D01*
X141772722Y-96426758D01*
X141766752Y-96426194D01*
X141748834Y-96424500D01*
X141091166Y-96424500D01*
X141073248Y-96426194D01*
X141067278Y-96426758D01*
X141067277Y-96426758D01*
X141059631Y-96427481D01*
X140931816Y-96472366D01*
X140924246Y-96477958D01*
X140924243Y-96477959D01*
X140857714Y-96527099D01*
X140822850Y-96552850D01*
X140817258Y-96560421D01*
X140747959Y-96654243D01*
X140747958Y-96654246D01*
X140742366Y-96661816D01*
X140697481Y-96789631D01*
X140694500Y-96821166D01*
X140694500Y-97328834D01*
X140697481Y-97360369D01*
X140742366Y-97488184D01*
X140747958Y-97495754D01*
X140747959Y-97495757D01*
X140802091Y-97569045D01*
X140822850Y-97597150D01*
X140830425Y-97602745D01*
X140868360Y-97630764D01*
X140911271Y-97687326D01*
X140919500Y-97732115D01*
X140919500Y-97780444D01*
X140899498Y-97848565D01*
X140869065Y-97881270D01*
X140830313Y-97910313D01*
X140748628Y-98019305D01*
X140700816Y-98146843D01*
X140699963Y-98154696D01*
X140699962Y-98154700D01*
X140694993Y-98200445D01*
X140694500Y-98204985D01*
X140694501Y-98795014D01*
X140700816Y-98853157D01*
X140748628Y-98980695D01*
X140830313Y-99089687D01*
X140837493Y-99095068D01*
X140901542Y-99143070D01*
X140944057Y-99199929D01*
X140949083Y-99270747D01*
X140915023Y-99333041D01*
X140900837Y-99345247D01*
X140841280Y-99389237D01*
X140822850Y-99402850D01*
X140817255Y-99410425D01*
X140789236Y-99448360D01*
X140732674Y-99491271D01*
X140687885Y-99499500D01*
X139304089Y-99499500D01*
X139235968Y-99479498D01*
X139189475Y-99425842D01*
X139179371Y-99355568D01*
X139182772Y-99340944D01*
X139185646Y-99335304D01*
X139200500Y-99241519D01*
X139200499Y-98878482D01*
X139194517Y-98840707D01*
X139187198Y-98794494D01*
X139187197Y-98794492D01*
X139185646Y-98784696D01*
X139128050Y-98671658D01*
X139038342Y-98581950D01*
X138950647Y-98537267D01*
X138899032Y-98488519D01*
X138881966Y-98419604D01*
X138904867Y-98352402D01*
X138950647Y-98312733D01*
X138992676Y-98291318D01*
X139038342Y-98268050D01*
X139128050Y-98178342D01*
X139185646Y-98065304D01*
X139200500Y-97971519D01*
X139200499Y-97608482D01*
X139198704Y-97597150D01*
X139187198Y-97524494D01*
X139187197Y-97524492D01*
X139185646Y-97514696D01*
X139178313Y-97500303D01*
X139158770Y-97461950D01*
X139128050Y-97401658D01*
X139038342Y-97311950D01*
X138950647Y-97267267D01*
X138899032Y-97218519D01*
X138881966Y-97149604D01*
X138904867Y-97082402D01*
X138950647Y-97042733D01*
X138961418Y-97037245D01*
X139038342Y-96998050D01*
X139128050Y-96908342D01*
X139185646Y-96795304D01*
X139187417Y-96784127D01*
X139191530Y-96758151D01*
X139200500Y-96701519D01*
X139200499Y-96338482D01*
X139194716Y-96301966D01*
X139187198Y-96254494D01*
X139187197Y-96254492D01*
X139185646Y-96244696D01*
X139128050Y-96131658D01*
X139038342Y-96041950D01*
X138950647Y-95997267D01*
X138899032Y-95948519D01*
X138881966Y-95879604D01*
X138904867Y-95812402D01*
X138950647Y-95772733D01*
X138967329Y-95764233D01*
X139024532Y-95750500D01*
X139534700Y-95750500D01*
X139602821Y-95770502D01*
X139608454Y-95774827D01*
X139608600Y-95774622D01*
X139614790Y-95779021D01*
X139620410Y-95784135D01*
X139627085Y-95787759D01*
X139627088Y-95787761D01*
X139752099Y-95855637D01*
X139752101Y-95855638D01*
X139758776Y-95859262D01*
X139766125Y-95861190D01*
X139903719Y-95897287D01*
X139903721Y-95897287D01*
X139911069Y-95899215D01*
X139994380Y-95900524D01*
X140060898Y-95901569D01*
X140060901Y-95901569D01*
X140068495Y-95901688D01*
X140221968Y-95866538D01*
X140362625Y-95795795D01*
X140429894Y-95738342D01*
X140476574Y-95698474D01*
X140476576Y-95698471D01*
X140482348Y-95693542D01*
X140486778Y-95687377D01*
X140491330Y-95682427D01*
X140552163Y-95645823D01*
X140623129Y-95647920D01*
X140681695Y-95688050D01*
X140702958Y-95725965D01*
X140742366Y-95838184D01*
X140747958Y-95845754D01*
X140747959Y-95845757D01*
X140783223Y-95893500D01*
X140822850Y-95947150D01*
X140830421Y-95952742D01*
X140924243Y-96022041D01*
X140924246Y-96022042D01*
X140931816Y-96027634D01*
X141059631Y-96072519D01*
X141067277Y-96073242D01*
X141067278Y-96073242D01*
X141073248Y-96073806D01*
X141091166Y-96075500D01*
X141748834Y-96075500D01*
X141766752Y-96073806D01*
X141772722Y-96073242D01*
X141772723Y-96073242D01*
X141780369Y-96072519D01*
X141908184Y-96027634D01*
X141915754Y-96022042D01*
X141915757Y-96022041D01*
X142009579Y-95952742D01*
X142017150Y-95947150D01*
X142056777Y-95893500D01*
X142092041Y-95845757D01*
X142092042Y-95845754D01*
X142097634Y-95838184D01*
X142142519Y-95710369D01*
X142145500Y-95678834D01*
X142145500Y-95171166D01*
X142142519Y-95139631D01*
X142097634Y-95011816D01*
X142092042Y-95004246D01*
X142092041Y-95004243D01*
X142022746Y-94910426D01*
X142022745Y-94910425D01*
X142017150Y-94902850D01*
X141971639Y-94869235D01*
X141928729Y-94812674D01*
X141920500Y-94767885D01*
X141920500Y-93537744D01*
X141940502Y-93469623D01*
X141984954Y-93428768D01*
X141988184Y-93427634D01*
X142097150Y-93347150D01*
X142102742Y-93339579D01*
X142102745Y-93339576D01*
X142131873Y-93300140D01*
X142188434Y-93257229D01*
X142259216Y-93251709D01*
X142321745Y-93285333D01*
X142356170Y-93347425D01*
X142358146Y-93391445D01*
X142346554Y-93479498D01*
X142344758Y-93493138D01*
X142362035Y-93649633D01*
X142416143Y-93797490D01*
X142420380Y-93803796D01*
X142420382Y-93803799D01*
X142440686Y-93834014D01*
X142503958Y-93928172D01*
X142555780Y-93975326D01*
X142614788Y-94029019D01*
X142620410Y-94034135D01*
X142671101Y-94061658D01*
X142752099Y-94105637D01*
X142752101Y-94105638D01*
X142758776Y-94109262D01*
X142766125Y-94111190D01*
X142903719Y-94147287D01*
X142903721Y-94147287D01*
X142911069Y-94149215D01*
X142994380Y-94150524D01*
X143060898Y-94151569D01*
X143060901Y-94151569D01*
X143068495Y-94151688D01*
X143221968Y-94116538D01*
X143362625Y-94045795D01*
X143380312Y-94030689D01*
X143445102Y-94001658D01*
X143462142Y-94000500D01*
X143920468Y-94000500D01*
X143977670Y-94014233D01*
X144019696Y-94035646D01*
X144029485Y-94037196D01*
X144029487Y-94037197D01*
X144044856Y-94039631D01*
X144113481Y-94050500D01*
X144732375Y-94050500D01*
X145351518Y-94050499D01*
X145359670Y-94049208D01*
X145435506Y-94037198D01*
X145435508Y-94037197D01*
X145445304Y-94035646D01*
X145455033Y-94030689D01*
X145456929Y-94029723D01*
X145460679Y-94029019D01*
X145463572Y-94028079D01*
X145463694Y-94028453D01*
X145526707Y-94016623D01*
X145592490Y-94043326D01*
X145633394Y-94101355D01*
X145636365Y-94170749D01*
X145634354Y-94174696D01*
X145619500Y-94268481D01*
X145619501Y-94631518D01*
X145620276Y-94636411D01*
X145620276Y-94636412D01*
X145632410Y-94713026D01*
X145634354Y-94725304D01*
X145638857Y-94734141D01*
X145638857Y-94734142D01*
X145650451Y-94756895D01*
X145691950Y-94838342D01*
X145781658Y-94928050D01*
X145894696Y-94985646D01*
X145904485Y-94987196D01*
X145904487Y-94987197D01*
X145931849Y-94991530D01*
X145988481Y-95000500D01*
X146607375Y-95000500D01*
X147226518Y-95000499D01*
X147231412Y-94999724D01*
X147310506Y-94987198D01*
X147310508Y-94987197D01*
X147320304Y-94985646D01*
X147362330Y-94964233D01*
X147419532Y-94950500D01*
X147793500Y-94950500D01*
X147861621Y-94970502D01*
X147908114Y-95024158D01*
X147919500Y-95076500D01*
X147919500Y-95192885D01*
X147899498Y-95261006D01*
X147868361Y-95294235D01*
X147822850Y-95327850D01*
X147817255Y-95335425D01*
X147817254Y-95335426D01*
X147747959Y-95429243D01*
X147747958Y-95429246D01*
X147742366Y-95436816D01*
X147697481Y-95564631D01*
X147696758Y-95572277D01*
X147696758Y-95572278D01*
X147696194Y-95578248D01*
X147694500Y-95596166D01*
X147694500Y-96103834D01*
X147697481Y-96135369D01*
X147742366Y-96263184D01*
X147747958Y-96270754D01*
X147747959Y-96270757D01*
X147797982Y-96338482D01*
X147822850Y-96372150D01*
X147830421Y-96377742D01*
X147924243Y-96447041D01*
X147924246Y-96447042D01*
X147931816Y-96452634D01*
X148059631Y-96497519D01*
X148067277Y-96498242D01*
X148067278Y-96498242D01*
X148073248Y-96498806D01*
X148091166Y-96500500D01*
X148748834Y-96500500D01*
X148766752Y-96498806D01*
X148772722Y-96498242D01*
X148772723Y-96498242D01*
X148780369Y-96497519D01*
X148908184Y-96452634D01*
X148915754Y-96447042D01*
X148915757Y-96447041D01*
X149009579Y-96377742D01*
X149017150Y-96372150D01*
X149042018Y-96338482D01*
X149092041Y-96270757D01*
X149092042Y-96270754D01*
X149097634Y-96263184D01*
X149142519Y-96135369D01*
X149145500Y-96103834D01*
X149145500Y-95596166D01*
X149143806Y-95578248D01*
X149143242Y-95572278D01*
X149143242Y-95572277D01*
X149142519Y-95564631D01*
X149097634Y-95436816D01*
X149092042Y-95429246D01*
X149092041Y-95429243D01*
X149022746Y-95335426D01*
X149022745Y-95335425D01*
X149017150Y-95327850D01*
X148971639Y-95294235D01*
X148928729Y-95237674D01*
X148920500Y-95192885D01*
X148920500Y-94982115D01*
X148940502Y-94913994D01*
X148971640Y-94880764D01*
X148977369Y-94876533D01*
X149017150Y-94847150D01*
X149042615Y-94812674D01*
X149092041Y-94745757D01*
X149092042Y-94745754D01*
X149097634Y-94738184D01*
X149142519Y-94610369D01*
X149143514Y-94599849D01*
X149143806Y-94596752D01*
X149145500Y-94578834D01*
X149145500Y-94071166D01*
X149143806Y-94053248D01*
X149143242Y-94047278D01*
X149143242Y-94047277D01*
X149142519Y-94039631D01*
X149097634Y-93911816D01*
X149092042Y-93904246D01*
X149092041Y-93904243D01*
X149022742Y-93810421D01*
X149017150Y-93802850D01*
X148986162Y-93779962D01*
X148915757Y-93727959D01*
X148915754Y-93727958D01*
X148908184Y-93722366D01*
X148780369Y-93677481D01*
X148772723Y-93676758D01*
X148772722Y-93676758D01*
X148763210Y-93675859D01*
X148748834Y-93674500D01*
X148091166Y-93674500D01*
X148076790Y-93675859D01*
X148067278Y-93676758D01*
X148067277Y-93676758D01*
X148059631Y-93677481D01*
X147931816Y-93722366D01*
X147924246Y-93727958D01*
X147924243Y-93727959D01*
X147853838Y-93779962D01*
X147822850Y-93802850D01*
X147817258Y-93810421D01*
X147817255Y-93810424D01*
X147752305Y-93898359D01*
X147695744Y-93941270D01*
X147650954Y-93949500D01*
X147419532Y-93949500D01*
X147362329Y-93935767D01*
X147320304Y-93914354D01*
X147310515Y-93912804D01*
X147310513Y-93912803D01*
X147283151Y-93908470D01*
X147226519Y-93899500D01*
X146607625Y-93899500D01*
X145988482Y-93899501D01*
X145983589Y-93900276D01*
X145983588Y-93900276D01*
X145904494Y-93912802D01*
X145904492Y-93912803D01*
X145894696Y-93914354D01*
X145885859Y-93918857D01*
X145885858Y-93918857D01*
X145883071Y-93920277D01*
X145879321Y-93920981D01*
X145876428Y-93921921D01*
X145876306Y-93921547D01*
X145813293Y-93933377D01*
X145747510Y-93906674D01*
X145706606Y-93848645D01*
X145703635Y-93779251D01*
X145705646Y-93775304D01*
X145720500Y-93681519D01*
X145720499Y-93318482D01*
X145717594Y-93300140D01*
X145707198Y-93234494D01*
X145707197Y-93234492D01*
X145705646Y-93224696D01*
X145648050Y-93111658D01*
X145558342Y-93021950D01*
X145445304Y-92964354D01*
X145435515Y-92962804D01*
X145435513Y-92962803D01*
X145405388Y-92958032D01*
X145351519Y-92949500D01*
X144732625Y-92949500D01*
X144113482Y-92949501D01*
X144108589Y-92950276D01*
X144108588Y-92950276D01*
X144029494Y-92962802D01*
X144029492Y-92962803D01*
X144019696Y-92964354D01*
X143978580Y-92985304D01*
X143977671Y-92985767D01*
X143920468Y-92999500D01*
X143464144Y-92999500D01*
X143396023Y-92979498D01*
X143380331Y-92967581D01*
X143373976Y-92961919D01*
X143351985Y-92950275D01*
X143261059Y-92902132D01*
X143234831Y-92888245D01*
X143200378Y-92879591D01*
X143089498Y-92851740D01*
X143089496Y-92851740D01*
X143082128Y-92849889D01*
X143074530Y-92849849D01*
X143074528Y-92849849D01*
X143007319Y-92849497D01*
X142924684Y-92849065D01*
X142917305Y-92850837D01*
X142917301Y-92850837D01*
X142778967Y-92884048D01*
X142778963Y-92884049D01*
X142771588Y-92885820D01*
X142739984Y-92902132D01*
X142648208Y-92949501D01*
X142631679Y-92958032D01*
X142625957Y-92963024D01*
X142625955Y-92963025D01*
X142518759Y-93056538D01*
X142518756Y-93056541D01*
X142513034Y-93061533D01*
X142508669Y-93067743D01*
X142508666Y-93067747D01*
X142454587Y-93144694D01*
X142399052Y-93188926D01*
X142328420Y-93196111D01*
X142265116Y-93163969D01*
X142229238Y-93102705D01*
X142225500Y-93072243D01*
X142225500Y-92571166D01*
X142222519Y-92539631D01*
X142177634Y-92411816D01*
X142172042Y-92404246D01*
X142172041Y-92404243D01*
X142102742Y-92310421D01*
X142097150Y-92302850D01*
X142079073Y-92289498D01*
X141995757Y-92227959D01*
X141995754Y-92227958D01*
X141988184Y-92222366D01*
X141860369Y-92177481D01*
X141852723Y-92176758D01*
X141852722Y-92176758D01*
X141846752Y-92176194D01*
X141828834Y-92174500D01*
X141171166Y-92174500D01*
X141153248Y-92176194D01*
X141147278Y-92176758D01*
X141147277Y-92176758D01*
X141139631Y-92177481D01*
X141011816Y-92222366D01*
X141004246Y-92227957D01*
X141004239Y-92227961D01*
X140906909Y-92299851D01*
X140840231Y-92324234D01*
X140832050Y-92324500D01*
X140738292Y-92324500D01*
X140670171Y-92304498D01*
X140637470Y-92274070D01*
X140589687Y-92210313D01*
X140480695Y-92128628D01*
X140452297Y-92117982D01*
X140395533Y-92075340D01*
X140370833Y-92008779D01*
X140386041Y-91939430D01*
X140436327Y-91889312D01*
X140452297Y-91882018D01*
X140472287Y-91874524D01*
X140480695Y-91871372D01*
X140589687Y-91789687D01*
X140637468Y-91725932D01*
X140694325Y-91683420D01*
X140738292Y-91675500D01*
X140832050Y-91675500D01*
X140900171Y-91695502D01*
X140906909Y-91700149D01*
X141004239Y-91772039D01*
X141004246Y-91772043D01*
X141011816Y-91777634D01*
X141139631Y-91822519D01*
X141147277Y-91823242D01*
X141147278Y-91823242D01*
X141153248Y-91823806D01*
X141171166Y-91825500D01*
X141828834Y-91825500D01*
X141846752Y-91823806D01*
X141852722Y-91823242D01*
X141852723Y-91823242D01*
X141860369Y-91822519D01*
X141988184Y-91777634D01*
X141995754Y-91772042D01*
X141995757Y-91772041D01*
X142089579Y-91702742D01*
X142097150Y-91697150D01*
X142113141Y-91675500D01*
X142172041Y-91595757D01*
X142172042Y-91595754D01*
X142177634Y-91588184D01*
X142222519Y-91460369D01*
X142225500Y-91428834D01*
X142225500Y-90921166D01*
X142223589Y-90900949D01*
X142223242Y-90897278D01*
X142223242Y-90897277D01*
X142222519Y-90889631D01*
X142177634Y-90761816D01*
X142172042Y-90754246D01*
X142172041Y-90754243D01*
X142102742Y-90660421D01*
X142097150Y-90652850D01*
X142059033Y-90624696D01*
X141995757Y-90577959D01*
X141995754Y-90577958D01*
X141988184Y-90572366D01*
X141860369Y-90527481D01*
X141852723Y-90526758D01*
X141852722Y-90526758D01*
X141846752Y-90526194D01*
X141828834Y-90524500D01*
X141539451Y-90524500D01*
X141471330Y-90504498D01*
X141428427Y-90454985D01*
X149419500Y-90454985D01*
X149419501Y-90995014D01*
X149425816Y-91053157D01*
X149473628Y-91180695D01*
X149555313Y-91289687D01*
X149664305Y-91371372D01*
X149791843Y-91419184D01*
X149799696Y-91420037D01*
X149799700Y-91420038D01*
X149846586Y-91425131D01*
X149846590Y-91425131D01*
X149849985Y-91425500D01*
X150144956Y-91425500D01*
X150440014Y-91425499D01*
X150498157Y-91419184D01*
X150625695Y-91371372D01*
X150734687Y-91289687D01*
X150816372Y-91180695D01*
X150864184Y-91053157D01*
X150868558Y-91012892D01*
X150895800Y-90947330D01*
X150954163Y-90906904D01*
X150993821Y-90900500D01*
X151143680Y-90900500D01*
X151211801Y-90920502D01*
X151258294Y-90974158D01*
X151269073Y-91014151D01*
X151269500Y-91018486D01*
X151269500Y-91024674D01*
X151284034Y-91097740D01*
X151290928Y-91108057D01*
X151290928Y-91108058D01*
X151299181Y-91120409D01*
X151339399Y-91180601D01*
X151422260Y-91235966D01*
X151495326Y-91250500D01*
X151844674Y-91250500D01*
X151917740Y-91235966D01*
X152000601Y-91180601D01*
X152040819Y-91120409D01*
X152049072Y-91108058D01*
X152049072Y-91108057D01*
X152055966Y-91097740D01*
X152070500Y-91024674D01*
X152070500Y-90541436D01*
X152072051Y-90521726D01*
X152072246Y-90520498D01*
X152075492Y-90500000D01*
X152072051Y-90478274D01*
X152070500Y-90458564D01*
X152070500Y-89975326D01*
X152055966Y-89902260D01*
X152047871Y-89890144D01*
X152021214Y-89850249D01*
X152000601Y-89819399D01*
X151917740Y-89764034D01*
X151844674Y-89749500D01*
X151495326Y-89749500D01*
X151422260Y-89764034D01*
X151339399Y-89819399D01*
X151318786Y-89850249D01*
X151292130Y-89890144D01*
X151284034Y-89902260D01*
X151269500Y-89975326D01*
X151269500Y-89981513D01*
X151269073Y-89985849D01*
X151242491Y-90051681D01*
X151184538Y-90092692D01*
X151143680Y-90099500D01*
X150693403Y-90099500D01*
X150632894Y-90084020D01*
X150632877Y-90084011D01*
X150625695Y-90078628D01*
X150617294Y-90075478D01*
X150617291Y-90075477D01*
X150526915Y-90041597D01*
X150498157Y-90030816D01*
X150490304Y-90029963D01*
X150490300Y-90029962D01*
X150443414Y-90024869D01*
X150443410Y-90024869D01*
X150440015Y-90024500D01*
X150145044Y-90024500D01*
X149849986Y-90024501D01*
X149791843Y-90030816D01*
X149664305Y-90078628D01*
X149555313Y-90160313D01*
X149473628Y-90269305D01*
X149425816Y-90396843D01*
X149424963Y-90404696D01*
X149424962Y-90404700D01*
X149422809Y-90424524D01*
X149419500Y-90454985D01*
X141428427Y-90454985D01*
X141424837Y-90450842D01*
X141414733Y-90380568D01*
X141429516Y-90336934D01*
X141466719Y-90270502D01*
X141489664Y-90229531D01*
X141501703Y-90194067D01*
X141552820Y-90043481D01*
X141552820Y-90043479D01*
X141554678Y-90038007D01*
X141555507Y-90032291D01*
X141555508Y-90032286D01*
X141577368Y-89881513D01*
X141583700Y-89837842D01*
X141585215Y-89780000D01*
X141566708Y-89578591D01*
X141511807Y-89383926D01*
X141447854Y-89254243D01*
X141424906Y-89207708D01*
X141422351Y-89202527D01*
X141404079Y-89178057D01*
X141304788Y-89045091D01*
X141304787Y-89045090D01*
X141301335Y-89040467D01*
X141297099Y-89036551D01*
X141157053Y-88907094D01*
X141157051Y-88907092D01*
X141152812Y-88903174D01*
X141125374Y-88885862D01*
X140986637Y-88798325D01*
X140981757Y-88795246D01*
X140793898Y-88720298D01*
X140595526Y-88680839D01*
X140589752Y-88680763D01*
X140589748Y-88680763D01*
X140487257Y-88679422D01*
X140393286Y-88678192D01*
X140387589Y-88679171D01*
X140387588Y-88679171D01*
X140199646Y-88711465D01*
X140199645Y-88711465D01*
X140193949Y-88712444D01*
X140004193Y-88782449D01*
X139999232Y-88785401D01*
X139999231Y-88785401D01*
X139845109Y-88877094D01*
X139830371Y-88885862D01*
X139678305Y-89019220D01*
X139553089Y-89178057D01*
X139458914Y-89357053D01*
X139398937Y-89550213D01*
X139375164Y-89751069D01*
X139388392Y-89952894D01*
X139403316Y-90011658D01*
X139434497Y-90134432D01*
X139438178Y-90148928D01*
X139522856Y-90332607D01*
X139561858Y-90387793D01*
X139566421Y-90394250D01*
X139589402Y-90461424D01*
X139572418Y-90530359D01*
X139525093Y-90576458D01*
X139519305Y-90578628D01*
X139512122Y-90584012D01*
X139512121Y-90584012D01*
X139424973Y-90649326D01*
X139358467Y-90674174D01*
X139349408Y-90674500D01*
X138401500Y-90674500D01*
X138333379Y-90654498D01*
X138286886Y-90600842D01*
X138275500Y-90548500D01*
X138275500Y-90450820D01*
X138295502Y-90382699D01*
X138325936Y-90349993D01*
X138332504Y-90345071D01*
X138332507Y-90345068D01*
X138339687Y-90339687D01*
X138345068Y-90332507D01*
X138345071Y-90332504D01*
X138406529Y-90250500D01*
X138421372Y-90230695D01*
X138469184Y-90103157D01*
X138470959Y-90086823D01*
X138475131Y-90048414D01*
X138475131Y-90048410D01*
X138475500Y-90045015D01*
X138475499Y-89454986D01*
X138469184Y-89396843D01*
X138421372Y-89269305D01*
X138339687Y-89160313D01*
X138230695Y-89078628D01*
X138103157Y-89030816D01*
X138095304Y-89029963D01*
X138095300Y-89029962D01*
X138048414Y-89024869D01*
X138048410Y-89024869D01*
X138045015Y-89024500D01*
X137775040Y-89024500D01*
X137504986Y-89024501D01*
X137446843Y-89030816D01*
X137319305Y-89078628D01*
X137210313Y-89160313D01*
X137128628Y-89269305D01*
X137125476Y-89277713D01*
X137117982Y-89297703D01*
X137075340Y-89354467D01*
X137008779Y-89379167D01*
X136939430Y-89363959D01*
X136889312Y-89313673D01*
X136882018Y-89297703D01*
X136874524Y-89277713D01*
X136871372Y-89269305D01*
X136789687Y-89160313D01*
X136680695Y-89078628D01*
X136553157Y-89030816D01*
X136545304Y-89029963D01*
X136545300Y-89029962D01*
X136498414Y-89024869D01*
X136498410Y-89024869D01*
X136495015Y-89024500D01*
X136225040Y-89024500D01*
X135954986Y-89024501D01*
X135896843Y-89030816D01*
X135769305Y-89078628D01*
X135660313Y-89160313D01*
X135647276Y-89177708D01*
X135631270Y-89199065D01*
X135574411Y-89241580D01*
X135530444Y-89249500D01*
X135482115Y-89249500D01*
X135413994Y-89229498D01*
X135380764Y-89198360D01*
X135380425Y-89197900D01*
X135347150Y-89152850D01*
X135334520Y-89143521D01*
X135245757Y-89077959D01*
X135245754Y-89077958D01*
X135238184Y-89072366D01*
X135110369Y-89027481D01*
X135102723Y-89026758D01*
X135102722Y-89026758D01*
X135096752Y-89026194D01*
X135078834Y-89024500D01*
X134571166Y-89024500D01*
X134553248Y-89026194D01*
X134547278Y-89026758D01*
X134547277Y-89026758D01*
X134539631Y-89027481D01*
X134411816Y-89072366D01*
X134404246Y-89077958D01*
X134404243Y-89077959D01*
X134378658Y-89096857D01*
X134302850Y-89152850D01*
X134297258Y-89160421D01*
X134227959Y-89254243D01*
X134227958Y-89254246D01*
X134222366Y-89261816D01*
X134177481Y-89389631D01*
X134174500Y-89421166D01*
X134174500Y-89878916D01*
X134154498Y-89947037D01*
X134100842Y-89993530D01*
X134030568Y-90003634D01*
X133965988Y-89974140D01*
X133959405Y-89968011D01*
X133862405Y-89871011D01*
X133828379Y-89808699D01*
X133825500Y-89781916D01*
X133825500Y-89421166D01*
X133822519Y-89389631D01*
X133777634Y-89261816D01*
X133772042Y-89254246D01*
X133772041Y-89254243D01*
X133702742Y-89160421D01*
X133697150Y-89152850D01*
X133621342Y-89096857D01*
X133595757Y-89077959D01*
X133595754Y-89077958D01*
X133588184Y-89072366D01*
X133460369Y-89027481D01*
X133452723Y-89026758D01*
X133452722Y-89026758D01*
X133446752Y-89026194D01*
X133428834Y-89024500D01*
X132921166Y-89024500D01*
X132903248Y-89026194D01*
X132897278Y-89026758D01*
X132897277Y-89026758D01*
X132889631Y-89027481D01*
X132761816Y-89072366D01*
X132754246Y-89077958D01*
X132754243Y-89077959D01*
X132728658Y-89096857D01*
X132652850Y-89152850D01*
X132647258Y-89160421D01*
X132577959Y-89254243D01*
X132577958Y-89254246D01*
X132572366Y-89261816D01*
X132527481Y-89389631D01*
X132524500Y-89421166D01*
X132524500Y-90078834D01*
X132525255Y-90086823D01*
X132526454Y-90099500D01*
X132527481Y-90110369D01*
X132572366Y-90238184D01*
X132577958Y-90245754D01*
X132577959Y-90245757D01*
X132619950Y-90302607D01*
X132652850Y-90347150D01*
X132660421Y-90352742D01*
X132754243Y-90422041D01*
X132754246Y-90422042D01*
X132761816Y-90427634D01*
X132889631Y-90472519D01*
X132897277Y-90473242D01*
X132897278Y-90473242D01*
X132903248Y-90473806D01*
X132921166Y-90475500D01*
X133281916Y-90475500D01*
X133350037Y-90495502D01*
X133371011Y-90512404D01*
X133533013Y-90674405D01*
X133567037Y-90736716D01*
X133561973Y-90807532D01*
X133519426Y-90864368D01*
X133452906Y-90889179D01*
X133443917Y-90889500D01*
X132562589Y-90889501D01*
X132402552Y-90889501D01*
X132334431Y-90869499D01*
X132311364Y-90849331D01*
X132310070Y-90847280D01*
X132270399Y-90812244D01*
X132264712Y-90806898D01*
X132253494Y-90795680D01*
X132249905Y-90792990D01*
X132245316Y-90789550D01*
X132237477Y-90783168D01*
X132209339Y-90758318D01*
X132202612Y-90752377D01*
X132194489Y-90748563D01*
X132191336Y-90746492D01*
X132178324Y-90738673D01*
X132175005Y-90736856D01*
X132167824Y-90731474D01*
X132124261Y-90715143D01*
X132114947Y-90711217D01*
X132080966Y-90695263D01*
X132080963Y-90695262D01*
X132072837Y-90691447D01*
X132063963Y-90690065D01*
X132060350Y-90688961D01*
X132045693Y-90685115D01*
X132041990Y-90684301D01*
X132033580Y-90681148D01*
X131987157Y-90677698D01*
X131977144Y-90676548D01*
X131963991Y-90674500D01*
X131948796Y-90674500D01*
X131939459Y-90674154D01*
X131924036Y-90673008D01*
X131890608Y-90670524D01*
X131881832Y-90672397D01*
X131872875Y-90673008D01*
X131872875Y-90673002D01*
X131858682Y-90674500D01*
X131650592Y-90674500D01*
X131582471Y-90654498D01*
X131575027Y-90649326D01*
X131504224Y-90596262D01*
X131480695Y-90578628D01*
X131353157Y-90530816D01*
X131345299Y-90529962D01*
X131337618Y-90528136D01*
X131337930Y-90526823D01*
X131279990Y-90502745D01*
X131239565Y-90444381D01*
X131237113Y-90373427D01*
X131249228Y-90343161D01*
X131251236Y-90339575D01*
X131329664Y-90199531D01*
X131340540Y-90167493D01*
X131392820Y-90013481D01*
X131392820Y-90013479D01*
X131394678Y-90008007D01*
X131395507Y-90002291D01*
X131395508Y-90002286D01*
X131418236Y-89845524D01*
X131423700Y-89807842D01*
X131425215Y-89750000D01*
X131406708Y-89548591D01*
X131351807Y-89353926D01*
X131262351Y-89172527D01*
X131256259Y-89164368D01*
X131144788Y-89015091D01*
X131144787Y-89015090D01*
X131141335Y-89010467D01*
X131137099Y-89006551D01*
X130997053Y-88877094D01*
X130997051Y-88877092D01*
X130992812Y-88873174D01*
X130980572Y-88865451D01*
X130826637Y-88768325D01*
X130821757Y-88765246D01*
X130633898Y-88690298D01*
X130435526Y-88650839D01*
X130429752Y-88650763D01*
X130429748Y-88650763D01*
X130327257Y-88649422D01*
X130233286Y-88648192D01*
X130227589Y-88649171D01*
X130227588Y-88649171D01*
X130039646Y-88681465D01*
X130039645Y-88681465D01*
X130033949Y-88682444D01*
X129844193Y-88752449D01*
X129839232Y-88755401D01*
X129839231Y-88755401D01*
X129679890Y-88850199D01*
X129670371Y-88855862D01*
X129518305Y-88989220D01*
X129393089Y-89148057D01*
X129298914Y-89327053D01*
X129238937Y-89520213D01*
X129215164Y-89721069D01*
X129215542Y-89726835D01*
X129225623Y-89880648D01*
X129210119Y-89949932D01*
X129159619Y-89999834D01*
X129090156Y-90014512D01*
X129023785Y-89989306D01*
X129010798Y-89977984D01*
X129003494Y-89970680D01*
X128999905Y-89967990D01*
X128995316Y-89964550D01*
X128987477Y-89958168D01*
X128959339Y-89933318D01*
X128952612Y-89927377D01*
X128944489Y-89923563D01*
X128941336Y-89921492D01*
X128928324Y-89913673D01*
X128925005Y-89911856D01*
X128917824Y-89906474D01*
X128906584Y-89902260D01*
X128874264Y-89890144D01*
X128864947Y-89886217D01*
X128830966Y-89870263D01*
X128830963Y-89870262D01*
X128822837Y-89866447D01*
X128813963Y-89865065D01*
X128810350Y-89863961D01*
X128795693Y-89860115D01*
X128791990Y-89859301D01*
X128783580Y-89856148D01*
X128737157Y-89852698D01*
X128727144Y-89851548D01*
X128713991Y-89849500D01*
X128698796Y-89849500D01*
X128689459Y-89849154D01*
X128674036Y-89848008D01*
X128640608Y-89845524D01*
X128631832Y-89847397D01*
X128622875Y-89848008D01*
X128622875Y-89848002D01*
X128608682Y-89849500D01*
X128434880Y-89849500D01*
X128366759Y-89829498D01*
X128330115Y-89793501D01*
X128287497Y-89729718D01*
X128287493Y-89729714D01*
X128280601Y-89719399D01*
X128197740Y-89664034D01*
X128124674Y-89649500D01*
X126875326Y-89649500D01*
X126802260Y-89664034D01*
X126719399Y-89719399D01*
X126712507Y-89729714D01*
X126712503Y-89729718D01*
X126669885Y-89793501D01*
X126615409Y-89839029D01*
X126565120Y-89849500D01*
X126184880Y-89849500D01*
X126116759Y-89829498D01*
X126080115Y-89793501D01*
X126037497Y-89729718D01*
X126037493Y-89729714D01*
X126030601Y-89719399D01*
X125947740Y-89664034D01*
X125874674Y-89649500D01*
X124625326Y-89649500D01*
X124552260Y-89664034D01*
X124469399Y-89719399D01*
X124442037Y-89760350D01*
X124426433Y-89783704D01*
X124414034Y-89802260D01*
X124399500Y-89875326D01*
X124399500Y-89981918D01*
X124379498Y-90050039D01*
X124362599Y-90071009D01*
X123944516Y-90489091D01*
X123944513Y-90489095D01*
X123921950Y-90511658D01*
X123917446Y-90520498D01*
X123911965Y-90531255D01*
X123901639Y-90548107D01*
X123888704Y-90565910D01*
X123882822Y-90584014D01*
X123881907Y-90586830D01*
X123874341Y-90605094D01*
X123868856Y-90615859D01*
X123868855Y-90615863D01*
X123864354Y-90624696D01*
X123862803Y-90634487D01*
X123862803Y-90634488D01*
X123860913Y-90646422D01*
X123856297Y-90665647D01*
X123852565Y-90677132D01*
X123852564Y-90677136D01*
X123849500Y-90686567D01*
X123849500Y-92728918D01*
X123829498Y-92797039D01*
X123775842Y-92843532D01*
X123705568Y-92853636D01*
X123640988Y-92824142D01*
X123634421Y-92818029D01*
X123220909Y-92404516D01*
X123220905Y-92404513D01*
X123198342Y-92381950D01*
X123178746Y-92371965D01*
X123161893Y-92361639D01*
X123144090Y-92348704D01*
X123123166Y-92341905D01*
X123104906Y-92334341D01*
X123094141Y-92328856D01*
X123094137Y-92328855D01*
X123085304Y-92324354D01*
X123075513Y-92322803D01*
X123075512Y-92322803D01*
X123063578Y-92320913D01*
X123044353Y-92316297D01*
X123032868Y-92312565D01*
X123032864Y-92312564D01*
X123023433Y-92309500D01*
X122918082Y-92309500D01*
X122849961Y-92289498D01*
X122828987Y-92272595D01*
X122788342Y-92231950D01*
X122700647Y-92187267D01*
X122649032Y-92138519D01*
X122631966Y-92069604D01*
X122654867Y-92002402D01*
X122700647Y-91962733D01*
X122743465Y-91940916D01*
X122788342Y-91918050D01*
X122878050Y-91828342D01*
X122935646Y-91715304D01*
X122938047Y-91700149D01*
X122949725Y-91626412D01*
X122950500Y-91621519D01*
X122950499Y-91258482D01*
X122944716Y-91221966D01*
X122937198Y-91174494D01*
X122937197Y-91174492D01*
X122935646Y-91164696D01*
X122878050Y-91051658D01*
X122788342Y-90961950D01*
X122675304Y-90904354D01*
X122665515Y-90902804D01*
X122665513Y-90902803D01*
X122638151Y-90898470D01*
X122581519Y-90889500D01*
X122351500Y-90889500D01*
X122283379Y-90869498D01*
X122236886Y-90815842D01*
X122225500Y-90763500D01*
X122225500Y-89284504D01*
X122245502Y-89216383D01*
X122262405Y-89195409D01*
X123170409Y-88287405D01*
X123232721Y-88253379D01*
X123259504Y-88250500D01*
X126681094Y-88250500D01*
X126751094Y-88271734D01*
X126832260Y-88325966D01*
X126905326Y-88340500D01*
X128654674Y-88340500D01*
X128727740Y-88325966D01*
X128810601Y-88270601D01*
X128865966Y-88187740D01*
X128880500Y-88114674D01*
X128880500Y-87211069D01*
X129215164Y-87211069D01*
X129228392Y-87412894D01*
X129250641Y-87500500D01*
X129271922Y-87584293D01*
X129278178Y-87608928D01*
X129362856Y-87792607D01*
X129479588Y-87957780D01*
X129624466Y-88098913D01*
X129792637Y-88211282D01*
X129797940Y-88213560D01*
X129797943Y-88213562D01*
X129969818Y-88287405D01*
X129978470Y-88291122D01*
X130175740Y-88335760D01*
X130181509Y-88335987D01*
X130181512Y-88335987D01*
X130257683Y-88338979D01*
X130377842Y-88343700D01*
X130464132Y-88331189D01*
X130572286Y-88315508D01*
X130572291Y-88315507D01*
X130578007Y-88314678D01*
X130583479Y-88312820D01*
X130583481Y-88312820D01*
X130764067Y-88251519D01*
X130764069Y-88251518D01*
X130769531Y-88249664D01*
X130946001Y-88150837D01*
X131008433Y-88098913D01*
X131097073Y-88025191D01*
X131101505Y-88021505D01*
X131119391Y-88000000D01*
X131750000Y-88000000D01*
X148750000Y-88000000D01*
X148750000Y-85750000D01*
X131750000Y-85750000D01*
X131750000Y-88000000D01*
X131119391Y-88000000D01*
X131230837Y-87866001D01*
X131329664Y-87689531D01*
X131339975Y-87659158D01*
X131392820Y-87503481D01*
X131392820Y-87503479D01*
X131394678Y-87498007D01*
X131395507Y-87492291D01*
X131395508Y-87492286D01*
X131415023Y-87357688D01*
X131423700Y-87297842D01*
X131425215Y-87240000D01*
X131406708Y-87038591D01*
X131374310Y-86923716D01*
X131375071Y-86852725D01*
X131377596Y-86845293D01*
X131379854Y-86839269D01*
X131383783Y-86829944D01*
X131387245Y-86822571D01*
X131403553Y-86787837D01*
X131404935Y-86778964D01*
X131406042Y-86775342D01*
X131409891Y-86760672D01*
X131410702Y-86756983D01*
X131413852Y-86748581D01*
X131414517Y-86739636D01*
X131414519Y-86739626D01*
X131417302Y-86702172D01*
X131418452Y-86692145D01*
X131420500Y-86678991D01*
X131420500Y-86663797D01*
X131420846Y-86654460D01*
X131423625Y-86617057D01*
X131424476Y-86605609D01*
X131422603Y-86596833D01*
X131421992Y-86587876D01*
X131421998Y-86587876D01*
X131420500Y-86573683D01*
X131420500Y-82982115D01*
X131440502Y-82913994D01*
X131471640Y-82880764D01*
X131509575Y-82852745D01*
X131517150Y-82847150D01*
X131523362Y-82838740D01*
X131592041Y-82745757D01*
X131592042Y-82745754D01*
X131597634Y-82738184D01*
X131642519Y-82610369D01*
X131643547Y-82599500D01*
X131645221Y-82581782D01*
X131645500Y-82578834D01*
X131645500Y-82071166D01*
X131642519Y-82039631D01*
X131597634Y-81911816D01*
X131592042Y-81904246D01*
X131592041Y-81904243D01*
X131526568Y-81815601D01*
X131517150Y-81802850D01*
X131461844Y-81762000D01*
X131415757Y-81727959D01*
X131415754Y-81727958D01*
X131408184Y-81722366D01*
X131280369Y-81677481D01*
X131272723Y-81676758D01*
X131272722Y-81676758D01*
X131266752Y-81676194D01*
X131248834Y-81674500D01*
X130591166Y-81674500D01*
X130573248Y-81676194D01*
X130567278Y-81676758D01*
X130567277Y-81676758D01*
X130559631Y-81677481D01*
X130431816Y-81722366D01*
X130424246Y-81727958D01*
X130424243Y-81727959D01*
X130378156Y-81762000D01*
X130322850Y-81802850D01*
X130313432Y-81815601D01*
X130247959Y-81904243D01*
X130247958Y-81904246D01*
X130242366Y-81911816D01*
X130197481Y-82039631D01*
X130194500Y-82071166D01*
X130194500Y-82578834D01*
X130194779Y-82581782D01*
X130196454Y-82599500D01*
X130197481Y-82610369D01*
X130242366Y-82738184D01*
X130247958Y-82745754D01*
X130247959Y-82745757D01*
X130316638Y-82838740D01*
X130322850Y-82847150D01*
X130330425Y-82852745D01*
X130368360Y-82880764D01*
X130411271Y-82937326D01*
X130419500Y-82982115D01*
X130419500Y-86012969D01*
X130399498Y-86081090D01*
X130345842Y-86127583D01*
X130291852Y-86138958D01*
X130260653Y-86138550D01*
X130233286Y-86138192D01*
X130227589Y-86139171D01*
X130227588Y-86139171D01*
X130039646Y-86171465D01*
X130039645Y-86171465D01*
X130033949Y-86172444D01*
X129844193Y-86242449D01*
X129839232Y-86245401D01*
X129839231Y-86245401D01*
X129680939Y-86339575D01*
X129670371Y-86345862D01*
X129518305Y-86479220D01*
X129393089Y-86638057D01*
X129298914Y-86817053D01*
X129238937Y-87010213D01*
X129215164Y-87211069D01*
X128880500Y-87211069D01*
X128880500Y-86365326D01*
X128865966Y-86292260D01*
X128845830Y-86262123D01*
X128823899Y-86229301D01*
X128810601Y-86209399D01*
X128727740Y-86154034D01*
X128654674Y-86139500D01*
X126905326Y-86139500D01*
X126832260Y-86154034D01*
X126749399Y-86209399D01*
X126736101Y-86229301D01*
X126714171Y-86262123D01*
X126694034Y-86292260D01*
X126679500Y-86365326D01*
X126679500Y-87123500D01*
X126659498Y-87191621D01*
X126605842Y-87238114D01*
X126553500Y-87249500D01*
X123070175Y-87249500D01*
X123058295Y-87248172D01*
X123058254Y-87248683D01*
X123049309Y-87247963D01*
X123040552Y-87245982D01*
X122987746Y-87249258D01*
X122979944Y-87249500D01*
X122964060Y-87249500D01*
X122959612Y-87250137D01*
X122959610Y-87250137D01*
X122953942Y-87250948D01*
X122943891Y-87251978D01*
X122906419Y-87254303D01*
X122906417Y-87254303D01*
X122897462Y-87254859D01*
X122889025Y-87257905D01*
X122885325Y-87258671D01*
X122870601Y-87262343D01*
X122866973Y-87263404D01*
X122858082Y-87264677D01*
X122815718Y-87283939D01*
X122806363Y-87287746D01*
X122771057Y-87300491D01*
X122771053Y-87300493D01*
X122762613Y-87303540D01*
X122755365Y-87308835D01*
X122752025Y-87310611D01*
X122738911Y-87318274D01*
X122735739Y-87320303D01*
X122727572Y-87324016D01*
X122720777Y-87329871D01*
X122720774Y-87329873D01*
X122692325Y-87354387D01*
X122684405Y-87360675D01*
X122673664Y-87368522D01*
X122662921Y-87379265D01*
X122656075Y-87385623D01*
X122618963Y-87417600D01*
X122614080Y-87425134D01*
X122608181Y-87431896D01*
X122608176Y-87431892D01*
X122599200Y-87442986D01*
X121420720Y-88621466D01*
X121411376Y-88628932D01*
X121411708Y-88629322D01*
X121404872Y-88635140D01*
X121397280Y-88639930D01*
X121391338Y-88646658D01*
X121391337Y-88646659D01*
X121362245Y-88679600D01*
X121356898Y-88685288D01*
X121345680Y-88696506D01*
X121342991Y-88700094D01*
X121342990Y-88700095D01*
X121339550Y-88704684D01*
X121333168Y-88712523D01*
X121302377Y-88747388D01*
X121298563Y-88755511D01*
X121296492Y-88758664D01*
X121288673Y-88771676D01*
X121286856Y-88774995D01*
X121281474Y-88782176D01*
X121278325Y-88790577D01*
X121278324Y-88790578D01*
X121265144Y-88825736D01*
X121261217Y-88835053D01*
X121245263Y-88869034D01*
X121245262Y-88869037D01*
X121241447Y-88877163D01*
X121240065Y-88886037D01*
X121238961Y-88889650D01*
X121235115Y-88904307D01*
X121234301Y-88908010D01*
X121231148Y-88916420D01*
X121227698Y-88962843D01*
X121226548Y-88972856D01*
X121224500Y-88986009D01*
X121224500Y-89001204D01*
X121224154Y-89010541D01*
X121220524Y-89059392D01*
X121222397Y-89068168D01*
X121223008Y-89077125D01*
X121223002Y-89077125D01*
X121224500Y-89091318D01*
X121224500Y-90763501D01*
X121204498Y-90831622D01*
X121150842Y-90878115D01*
X121098500Y-90889501D01*
X120868482Y-90889501D01*
X120863589Y-90890276D01*
X120863588Y-90890276D01*
X120784494Y-90902802D01*
X120784492Y-90902803D01*
X120774696Y-90904354D01*
X120765859Y-90908857D01*
X120765858Y-90908857D01*
X120747683Y-90918118D01*
X120661658Y-90961950D01*
X120571950Y-91051658D01*
X120514354Y-91164696D01*
X120499500Y-91258481D01*
X120499501Y-91621518D01*
X120500276Y-91626409D01*
X120500276Y-91626412D01*
X120512365Y-91702742D01*
X120514354Y-91715304D01*
X120571950Y-91828342D01*
X120661658Y-91918050D01*
X120706535Y-91940916D01*
X120749353Y-91962733D01*
X120800968Y-92011481D01*
X120818034Y-92080396D01*
X120795133Y-92147598D01*
X120749353Y-92187267D01*
X120661658Y-92231950D01*
X120571950Y-92321658D01*
X120514354Y-92434696D01*
X120512804Y-92444485D01*
X120512803Y-92444487D01*
X120511882Y-92450304D01*
X120499500Y-92528481D01*
X120499501Y-92891518D01*
X120500276Y-92896411D01*
X120500276Y-92896412D01*
X120510826Y-92963025D01*
X120514354Y-92985304D01*
X120571950Y-93098342D01*
X120661658Y-93188050D01*
X120736633Y-93226252D01*
X120749353Y-93232733D01*
X120800968Y-93281481D01*
X120818034Y-93350396D01*
X120795133Y-93417598D01*
X120749354Y-93457266D01*
X120681408Y-93491887D01*
X120611631Y-93504992D01*
X120545846Y-93478293D01*
X120535109Y-93468716D01*
X120187405Y-93121012D01*
X120153379Y-93058700D01*
X120150500Y-93031917D01*
X120150500Y-90218481D01*
X120150499Y-90218475D01*
X120150499Y-90186567D01*
X120147436Y-90177140D01*
X120147435Y-90177133D01*
X120143703Y-90165647D01*
X120139089Y-90146427D01*
X120137199Y-90134493D01*
X120137197Y-90134485D01*
X120135646Y-90124696D01*
X120131146Y-90115865D01*
X120131145Y-90115861D01*
X120125658Y-90105093D01*
X120118094Y-90086832D01*
X120111296Y-90065910D01*
X120098368Y-90048116D01*
X120088038Y-90031259D01*
X120082552Y-90020493D01*
X120082551Y-90020492D01*
X120078050Y-90011658D01*
X118220050Y-88153658D01*
X116449805Y-86383412D01*
X116415779Y-86321100D01*
X116420844Y-86250285D01*
X116424173Y-86242869D01*
X116427634Y-86238184D01*
X116472519Y-86110369D01*
X116475500Y-86078834D01*
X116475500Y-85421166D01*
X116472519Y-85389631D01*
X116427634Y-85261816D01*
X116422042Y-85254246D01*
X116422041Y-85254243D01*
X116352742Y-85160421D01*
X116347150Y-85152850D01*
X116291660Y-85111864D01*
X116245757Y-85077959D01*
X116245754Y-85077958D01*
X116238184Y-85072366D01*
X116110369Y-85027481D01*
X116102723Y-85026758D01*
X116102722Y-85026758D01*
X116096752Y-85026194D01*
X116078834Y-85024500D01*
X115571166Y-85024500D01*
X115553248Y-85026194D01*
X115547278Y-85026758D01*
X115547277Y-85026758D01*
X115539631Y-85027481D01*
X115411816Y-85072366D01*
X115404246Y-85077958D01*
X115404243Y-85077959D01*
X115358340Y-85111864D01*
X115302850Y-85152850D01*
X115297258Y-85160421D01*
X115227959Y-85254243D01*
X115227958Y-85254246D01*
X115222366Y-85261816D01*
X115177481Y-85389631D01*
X115174500Y-85421166D01*
X115174500Y-86078834D01*
X115177481Y-86110369D01*
X115222366Y-86238184D01*
X115227958Y-86245754D01*
X115227959Y-86245757D01*
X115271163Y-86304250D01*
X115302850Y-86347150D01*
X115310421Y-86352742D01*
X115411816Y-86427634D01*
X115409630Y-86430594D01*
X115447670Y-86467707D01*
X115457667Y-86490511D01*
X115463704Y-86509090D01*
X115476639Y-86526893D01*
X115486965Y-86543745D01*
X115496950Y-86563342D01*
X115519513Y-86585905D01*
X115519516Y-86585909D01*
X116804047Y-87870439D01*
X117908013Y-88974405D01*
X117942038Y-89036717D01*
X117936974Y-89107532D01*
X117894427Y-89164368D01*
X117827907Y-89189179D01*
X117818918Y-89189500D01*
X113535788Y-89189500D01*
X113467667Y-89169498D01*
X113434830Y-89138889D01*
X113364788Y-89045091D01*
X113364787Y-89045090D01*
X113361335Y-89040467D01*
X113357099Y-89036551D01*
X113217053Y-88907094D01*
X113217051Y-88907092D01*
X113212812Y-88903174D01*
X113185374Y-88885862D01*
X113046637Y-88798325D01*
X113041757Y-88795246D01*
X112853898Y-88720298D01*
X112655526Y-88680839D01*
X112649752Y-88680763D01*
X112649748Y-88680763D01*
X112547257Y-88679422D01*
X112453286Y-88678192D01*
X112447589Y-88679171D01*
X112447588Y-88679171D01*
X112259646Y-88711465D01*
X112259645Y-88711465D01*
X112253949Y-88712444D01*
X112064193Y-88782449D01*
X112059232Y-88785401D01*
X112059231Y-88785401D01*
X111905109Y-88877094D01*
X111890371Y-88885862D01*
X111738305Y-89019220D01*
X111613089Y-89178057D01*
X111518914Y-89357053D01*
X111458937Y-89550213D01*
X111435164Y-89751069D01*
X111448392Y-89952894D01*
X111463316Y-90011658D01*
X111494497Y-90134432D01*
X111498178Y-90148928D01*
X111582856Y-90332607D01*
X111587783Y-90339579D01*
X111685803Y-90478274D01*
X111699588Y-90497780D01*
X111703730Y-90501815D01*
X111730826Y-90528211D01*
X111844466Y-90638913D01*
X112012637Y-90751282D01*
X112017940Y-90753560D01*
X112017943Y-90753562D01*
X112178718Y-90822636D01*
X112198470Y-90831122D01*
X112330383Y-90860971D01*
X112381731Y-90872590D01*
X112395740Y-90875760D01*
X112401509Y-90875987D01*
X112401512Y-90875987D01*
X112477683Y-90878979D01*
X112597842Y-90883700D01*
X112688869Y-90870502D01*
X112792286Y-90855508D01*
X112792291Y-90855507D01*
X112798007Y-90854678D01*
X112803479Y-90852820D01*
X112803481Y-90852820D01*
X112984067Y-90791519D01*
X112984069Y-90791518D01*
X112989531Y-90789664D01*
X113155916Y-90696485D01*
X113160964Y-90693658D01*
X113160965Y-90693657D01*
X113166001Y-90690837D01*
X113228433Y-90638913D01*
X113304707Y-90575476D01*
X113321505Y-90561505D01*
X113407121Y-90458564D01*
X113447146Y-90410439D01*
X113450837Y-90406001D01*
X113549664Y-90229531D01*
X113560883Y-90196482D01*
X113601782Y-90075998D01*
X113642619Y-90017922D01*
X113708372Y-89991144D01*
X113721095Y-89990500D01*
X113998917Y-89990500D01*
X114067038Y-90010502D01*
X114113531Y-90064158D01*
X114123635Y-90134432D01*
X114094141Y-90199012D01*
X114088012Y-90205595D01*
X113040836Y-91252771D01*
X112978524Y-91286797D01*
X112905051Y-91280706D01*
X112859267Y-91262440D01*
X112853898Y-91260298D01*
X112655526Y-91220839D01*
X112649752Y-91220763D01*
X112649748Y-91220763D01*
X112547257Y-91219422D01*
X112453286Y-91218192D01*
X112447589Y-91219171D01*
X112447588Y-91219171D01*
X112259646Y-91251465D01*
X112259645Y-91251465D01*
X112253949Y-91252444D01*
X112064193Y-91322449D01*
X112059232Y-91325401D01*
X112059231Y-91325401D01*
X111901596Y-91419184D01*
X111890371Y-91425862D01*
X111738305Y-91559220D01*
X111613089Y-91718057D01*
X111518914Y-91897053D01*
X111458937Y-92090213D01*
X111435164Y-92291069D01*
X111448392Y-92492894D01*
X111498178Y-92688928D01*
X111582856Y-92872607D01*
X111599680Y-92896412D01*
X111694820Y-93031033D01*
X111699588Y-93037780D01*
X111844466Y-93178913D01*
X112012637Y-93291282D01*
X112017940Y-93293560D01*
X112017943Y-93293562D01*
X112150229Y-93350396D01*
X112198470Y-93371122D01*
X112395740Y-93415760D01*
X112401509Y-93415987D01*
X112401512Y-93415987D01*
X112477683Y-93418979D01*
X112597842Y-93423700D01*
X112684132Y-93411189D01*
X112792286Y-93395508D01*
X112792291Y-93395507D01*
X112798007Y-93394678D01*
X112803479Y-93392820D01*
X112803481Y-93392820D01*
X112984067Y-93331519D01*
X112984069Y-93331518D01*
X112989531Y-93329664D01*
X113128731Y-93251709D01*
X113160964Y-93233658D01*
X113160965Y-93233657D01*
X113166001Y-93230837D01*
X113190454Y-93210500D01*
X113274146Y-93140893D01*
X113321505Y-93101505D01*
X113450837Y-92946001D01*
X113464567Y-92921485D01*
X113489298Y-92877323D01*
X113549664Y-92769531D01*
X113563451Y-92728918D01*
X113612820Y-92583481D01*
X113612820Y-92583479D01*
X113614678Y-92578007D01*
X113615507Y-92572291D01*
X113615508Y-92572286D01*
X113637764Y-92418784D01*
X113643700Y-92377842D01*
X113645215Y-92320000D01*
X113643126Y-92297258D01*
X113627237Y-92124348D01*
X113626708Y-92118591D01*
X113617149Y-92084696D01*
X113576599Y-91940916D01*
X113577359Y-91869924D01*
X113608773Y-91817620D01*
X114738988Y-90687405D01*
X114801300Y-90653379D01*
X114828083Y-90650500D01*
X115826487Y-90650500D01*
X115894608Y-90670502D01*
X115941101Y-90724158D01*
X115951205Y-90794432D01*
X115921711Y-90859012D01*
X115861985Y-90897396D01*
X115846196Y-90900949D01*
X115834494Y-90902802D01*
X115834492Y-90902803D01*
X115824696Y-90904354D01*
X115815859Y-90908857D01*
X115815858Y-90908857D01*
X115797683Y-90918118D01*
X115711658Y-90961950D01*
X115621950Y-91051658D01*
X115564354Y-91164696D01*
X115549500Y-91258481D01*
X115549501Y-91621518D01*
X115550276Y-91626409D01*
X115550276Y-91626412D01*
X115562365Y-91702742D01*
X115564354Y-91715304D01*
X115621950Y-91828342D01*
X115711658Y-91918050D01*
X115756535Y-91940916D01*
X115799353Y-91962733D01*
X115850968Y-92011481D01*
X115868034Y-92080396D01*
X115845133Y-92147598D01*
X115799353Y-92187267D01*
X115711658Y-92231950D01*
X115621950Y-92321658D01*
X115564354Y-92434696D01*
X115562804Y-92444485D01*
X115562803Y-92444487D01*
X115561882Y-92450304D01*
X115549500Y-92528481D01*
X115549501Y-92891518D01*
X115550276Y-92896411D01*
X115550276Y-92896412D01*
X115560826Y-92963025D01*
X115564354Y-92985304D01*
X115621950Y-93098342D01*
X115711658Y-93188050D01*
X115786633Y-93226252D01*
X115799353Y-93232733D01*
X115850968Y-93281481D01*
X115868034Y-93350396D01*
X115845133Y-93417598D01*
X115799353Y-93457267D01*
X115711658Y-93501950D01*
X115621950Y-93591658D01*
X115620894Y-93590602D01*
X115589270Y-93617612D01*
X115585910Y-93618704D01*
X115568107Y-93631639D01*
X115551255Y-93641965D01*
X115547138Y-93644063D01*
X115531658Y-93651950D01*
X115509095Y-93674513D01*
X115509091Y-93674516D01*
X114944516Y-94239091D01*
X114944513Y-94239095D01*
X114921950Y-94261658D01*
X114917446Y-94270498D01*
X114911965Y-94281255D01*
X114901639Y-94298107D01*
X114888704Y-94315910D01*
X114881907Y-94336830D01*
X114874341Y-94355094D01*
X114868856Y-94365859D01*
X114868855Y-94365863D01*
X114864354Y-94374696D01*
X114862803Y-94384487D01*
X114862803Y-94384488D01*
X114860913Y-94396422D01*
X114856297Y-94415647D01*
X114852565Y-94427132D01*
X114852564Y-94427136D01*
X114849500Y-94436567D01*
X114849500Y-98781917D01*
X114829498Y-98850038D01*
X114812595Y-98871012D01*
X114181012Y-99502595D01*
X114118700Y-99536621D01*
X114091917Y-99539500D01*
X113766500Y-99539500D01*
X113698379Y-99519498D01*
X113651886Y-99465842D01*
X113640500Y-99413500D01*
X113640500Y-99065326D01*
X113625966Y-98992260D01*
X113570601Y-98909399D01*
X113487740Y-98854034D01*
X113414674Y-98839500D01*
X111665326Y-98839500D01*
X111592260Y-98854034D01*
X111509399Y-98909399D01*
X111454034Y-98992260D01*
X111439500Y-99065326D01*
X111439500Y-100814674D01*
X111454034Y-100887740D01*
X111509399Y-100970601D01*
X111592260Y-101025966D01*
X111665326Y-101040500D01*
X113414674Y-101040500D01*
X113487740Y-101025966D01*
X113570601Y-100970601D01*
X113625966Y-100887740D01*
X113640500Y-100814674D01*
X113640500Y-100466500D01*
X113660502Y-100398379D01*
X113714158Y-100351886D01*
X113766500Y-100340500D01*
X114373433Y-100340500D01*
X114382864Y-100337436D01*
X114382868Y-100337435D01*
X114394353Y-100333703D01*
X114413578Y-100329087D01*
X114425512Y-100327197D01*
X114425513Y-100327197D01*
X114435304Y-100325646D01*
X114444137Y-100321145D01*
X114444141Y-100321144D01*
X114454906Y-100315659D01*
X114473166Y-100308095D01*
X114494090Y-100301296D01*
X114511893Y-100288361D01*
X114528745Y-100278035D01*
X114532862Y-100275937D01*
X114548342Y-100268050D01*
X114570905Y-100245487D01*
X114570909Y-100245484D01*
X115555484Y-99260909D01*
X115555487Y-99260905D01*
X115578050Y-99238342D01*
X115582918Y-99228788D01*
X115588037Y-99218742D01*
X115598365Y-99201887D01*
X115605467Y-99192112D01*
X115611296Y-99184089D01*
X115618094Y-99163168D01*
X115625658Y-99144908D01*
X115631144Y-99134141D01*
X115631145Y-99134137D01*
X115635646Y-99125304D01*
X115639087Y-99103578D01*
X115643703Y-99084353D01*
X115647435Y-99072868D01*
X115647436Y-99072864D01*
X115650500Y-99063433D01*
X115650500Y-98440840D01*
X115670502Y-98372719D01*
X115724158Y-98326226D01*
X115794432Y-98316122D01*
X115815435Y-98321006D01*
X115815861Y-98321145D01*
X115824696Y-98325646D01*
X115918481Y-98340500D01*
X116774827Y-98340500D01*
X117631518Y-98340499D01*
X117654698Y-98336828D01*
X117715506Y-98327198D01*
X117715508Y-98327197D01*
X117725304Y-98325646D01*
X117734411Y-98321006D01*
X117792676Y-98291318D01*
X117838342Y-98268050D01*
X117928050Y-98178342D01*
X117985646Y-98065304D01*
X118000500Y-97971519D01*
X118000499Y-97608482D01*
X117998704Y-97597150D01*
X117987198Y-97524494D01*
X117987197Y-97524492D01*
X117985646Y-97514696D01*
X117978313Y-97500303D01*
X117958770Y-97461950D01*
X117928050Y-97401658D01*
X117838342Y-97311950D01*
X117750647Y-97267267D01*
X117699032Y-97218519D01*
X117681966Y-97149604D01*
X117704867Y-97082402D01*
X117750647Y-97042733D01*
X117761418Y-97037245D01*
X117838342Y-96998050D01*
X117878987Y-96957405D01*
X117941299Y-96923379D01*
X117968082Y-96920500D01*
X118043433Y-96920500D01*
X118052864Y-96917436D01*
X118052868Y-96917435D01*
X118064353Y-96913703D01*
X118083578Y-96909087D01*
X118095512Y-96907197D01*
X118095513Y-96907197D01*
X118105304Y-96905646D01*
X118114137Y-96901145D01*
X118114141Y-96901144D01*
X118124906Y-96895659D01*
X118143166Y-96888095D01*
X118164090Y-96881296D01*
X118181893Y-96868361D01*
X118198745Y-96858035D01*
X118202862Y-96855937D01*
X118218342Y-96848050D01*
X118240905Y-96825487D01*
X118240909Y-96825484D01*
X119305484Y-95760909D01*
X119305487Y-95760905D01*
X119328050Y-95738342D01*
X119334319Y-95726038D01*
X119338037Y-95718742D01*
X119348365Y-95701887D01*
X119355467Y-95692112D01*
X119361296Y-95684089D01*
X119368094Y-95663168D01*
X119375658Y-95644908D01*
X119381144Y-95634141D01*
X119381145Y-95634137D01*
X119385646Y-95625304D01*
X119387420Y-95614107D01*
X119389087Y-95603578D01*
X119393703Y-95584353D01*
X119397435Y-95572868D01*
X119397436Y-95572864D01*
X119400500Y-95563433D01*
X119400500Y-93771083D01*
X119420502Y-93702962D01*
X119474158Y-93656469D01*
X119544432Y-93646365D01*
X119609012Y-93675859D01*
X119615595Y-93681988D01*
X120219091Y-94285484D01*
X120219095Y-94285487D01*
X120241658Y-94308050D01*
X120250498Y-94312554D01*
X120261255Y-94318035D01*
X120278107Y-94328361D01*
X120295910Y-94341296D01*
X120316834Y-94348095D01*
X120335094Y-94355659D01*
X120345859Y-94361144D01*
X120345863Y-94361145D01*
X120354696Y-94365646D01*
X120364487Y-94367197D01*
X120364488Y-94367197D01*
X120376422Y-94369087D01*
X120395647Y-94373703D01*
X120407132Y-94377435D01*
X120407136Y-94377436D01*
X120416567Y-94380500D01*
X120531918Y-94380500D01*
X120600039Y-94400502D01*
X120621013Y-94417405D01*
X120661658Y-94458050D01*
X120749353Y-94502733D01*
X120800968Y-94551481D01*
X120818034Y-94620396D01*
X120795133Y-94687598D01*
X120749353Y-94727267D01*
X120661658Y-94771950D01*
X120571950Y-94861658D01*
X120514354Y-94974696D01*
X120512804Y-94984485D01*
X120512803Y-94984487D01*
X120511209Y-94994554D01*
X120499500Y-95068481D01*
X120499501Y-95431518D01*
X120500276Y-95436411D01*
X120500276Y-95436412D01*
X120511019Y-95504243D01*
X120514354Y-95525304D01*
X120571950Y-95638342D01*
X120661658Y-95728050D01*
X120726139Y-95760905D01*
X120749353Y-95772733D01*
X120800968Y-95821481D01*
X120818034Y-95890396D01*
X120795133Y-95957598D01*
X120749353Y-95997267D01*
X120661658Y-96041950D01*
X120571950Y-96131658D01*
X120514354Y-96244696D01*
X120499500Y-96338481D01*
X120499501Y-96701518D01*
X120500276Y-96706409D01*
X120500276Y-96706412D01*
X120510207Y-96769116D01*
X120514354Y-96795304D01*
X120571950Y-96908342D01*
X120661658Y-96998050D01*
X120738582Y-97037245D01*
X120749353Y-97042733D01*
X120800968Y-97091481D01*
X120818034Y-97160396D01*
X120795133Y-97227598D01*
X120749353Y-97267267D01*
X120661658Y-97311950D01*
X120571950Y-97401658D01*
X120514354Y-97514696D01*
X120499500Y-97608481D01*
X120499501Y-97971518D01*
X120500276Y-97976409D01*
X120500276Y-97976412D01*
X120512052Y-98050766D01*
X120514354Y-98065304D01*
X120571950Y-98178342D01*
X120661658Y-98268050D01*
X120707324Y-98291318D01*
X120749353Y-98312733D01*
X120800968Y-98361481D01*
X120818034Y-98430396D01*
X120795133Y-98497598D01*
X120749353Y-98537267D01*
X120661658Y-98581950D01*
X120571950Y-98671658D01*
X120514354Y-98784696D01*
X120512804Y-98794485D01*
X120512803Y-98794487D01*
X120512181Y-98798416D01*
X120499500Y-98878481D01*
X120499501Y-99241518D01*
X120500276Y-99246409D01*
X120500276Y-99246412D01*
X120505197Y-99277481D01*
X120514354Y-99335304D01*
X120571950Y-99448342D01*
X120661658Y-99538050D01*
X120774696Y-99595646D01*
X120784489Y-99597197D01*
X120784492Y-99597198D01*
X120789193Y-99597943D01*
X120853345Y-99628357D01*
X120890871Y-99688626D01*
X120889855Y-99759615D01*
X120863112Y-99806705D01*
X120858761Y-99811537D01*
X120853034Y-99816533D01*
X120836840Y-99839575D01*
X120771496Y-99932550D01*
X120762501Y-99945348D01*
X120753177Y-99969264D01*
X120721406Y-100050752D01*
X120693108Y-100094078D01*
X120682635Y-100104551D01*
X120620323Y-100138577D01*
X120549508Y-100133512D01*
X120517975Y-100116282D01*
X120422882Y-100045014D01*
X120422880Y-100045013D01*
X120415695Y-100039628D01*
X120288157Y-99991816D01*
X120280304Y-99990963D01*
X120280300Y-99990962D01*
X120233414Y-99985869D01*
X120233410Y-99985869D01*
X120230015Y-99985500D01*
X119960040Y-99985500D01*
X119689986Y-99985501D01*
X119631843Y-99991816D01*
X119624446Y-99994589D01*
X119600999Y-100003379D01*
X119504305Y-100039628D01*
X119395313Y-100121313D01*
X119313628Y-100230305D01*
X119265816Y-100357843D01*
X119264963Y-100365696D01*
X119264962Y-100365700D01*
X119259869Y-100412586D01*
X119259500Y-100415985D01*
X119259501Y-101006014D01*
X119265816Y-101064157D01*
X119313628Y-101191695D01*
X119395313Y-101300687D01*
X119504305Y-101382372D01*
X119631843Y-101430184D01*
X119639696Y-101431037D01*
X119639700Y-101431038D01*
X119686586Y-101436131D01*
X119686590Y-101436131D01*
X119689985Y-101436500D01*
X119959960Y-101436500D01*
X120230014Y-101436499D01*
X120288157Y-101430184D01*
X120415695Y-101382372D01*
X120524687Y-101300687D01*
X120553730Y-101261935D01*
X120610589Y-101219420D01*
X120654556Y-101211500D01*
X120713819Y-101211500D01*
X120725704Y-101212828D01*
X120725745Y-101212318D01*
X120734691Y-101213038D01*
X120743447Y-101215019D01*
X120796263Y-101211742D01*
X120804067Y-101211500D01*
X120819940Y-101211500D01*
X120830052Y-101210052D01*
X120840106Y-101209022D01*
X120868097Y-101207285D01*
X120886538Y-101206141D01*
X120894982Y-101203093D01*
X120898694Y-101202324D01*
X120913399Y-101198657D01*
X120917027Y-101197596D01*
X120925918Y-101196323D01*
X120968282Y-101177061D01*
X120977637Y-101173254D01*
X121012943Y-101160509D01*
X121012947Y-101160507D01*
X121021387Y-101157460D01*
X121028635Y-101152165D01*
X121031975Y-101150389D01*
X121045089Y-101142726D01*
X121048261Y-101140697D01*
X121056428Y-101136984D01*
X121063223Y-101131129D01*
X121063226Y-101131127D01*
X121091675Y-101106613D01*
X121099596Y-101100324D01*
X121106402Y-101095352D01*
X121110336Y-101092478D01*
X121121079Y-101081735D01*
X121127926Y-101075377D01*
X121140947Y-101064157D01*
X121165037Y-101043400D01*
X121169920Y-101035866D01*
X121175819Y-101029104D01*
X121175824Y-101029108D01*
X121184800Y-101018014D01*
X121260137Y-100942677D01*
X121322449Y-100908651D01*
X121351210Y-100905788D01*
X121360031Y-100905927D01*
X121400898Y-100906569D01*
X121400901Y-100906569D01*
X121408495Y-100906688D01*
X121561968Y-100871538D01*
X121702625Y-100800795D01*
X121728869Y-100778381D01*
X121816574Y-100703474D01*
X121816576Y-100703471D01*
X121822348Y-100698542D01*
X121914224Y-100570683D01*
X121972950Y-100424598D01*
X121986072Y-100332400D01*
X121994553Y-100272807D01*
X121994553Y-100272804D01*
X121995134Y-100268723D01*
X121995234Y-100259223D01*
X122015952Y-100191317D01*
X122039563Y-100164597D01*
X122045129Y-100159859D01*
X122052720Y-100155070D01*
X122087764Y-100115390D01*
X122093110Y-100109703D01*
X122104320Y-100098493D01*
X122107629Y-100094078D01*
X122110444Y-100090323D01*
X122116827Y-100082482D01*
X122141679Y-100054342D01*
X122147623Y-100047612D01*
X122151438Y-100039487D01*
X122153520Y-100036317D01*
X122161323Y-100023330D01*
X122163143Y-100020006D01*
X122168526Y-100012824D01*
X122184857Y-99969261D01*
X122188783Y-99959947D01*
X122204737Y-99925966D01*
X122204738Y-99925963D01*
X122208553Y-99917837D01*
X122209935Y-99908963D01*
X122211039Y-99905350D01*
X122214885Y-99890693D01*
X122215699Y-99886990D01*
X122218852Y-99878580D01*
X122222302Y-99832157D01*
X122223453Y-99822139D01*
X122225500Y-99808991D01*
X122225500Y-99793796D01*
X122225846Y-99784459D01*
X122229476Y-99735608D01*
X122230914Y-99735715D01*
X122244167Y-99675748D01*
X122294535Y-99625712D01*
X122354554Y-99610499D01*
X122581518Y-99610499D01*
X122586412Y-99609724D01*
X122665506Y-99597198D01*
X122665508Y-99597197D01*
X122675304Y-99595646D01*
X122788342Y-99538050D01*
X122824407Y-99501985D01*
X122886719Y-99467959D01*
X122957534Y-99473024D01*
X123014370Y-99515571D01*
X123032383Y-99549329D01*
X123072366Y-99663184D01*
X123077958Y-99670754D01*
X123077959Y-99670757D01*
X123127762Y-99738184D01*
X123152850Y-99772150D01*
X123160421Y-99777742D01*
X123254243Y-99847041D01*
X123254246Y-99847042D01*
X123261816Y-99852634D01*
X123389631Y-99897519D01*
X123397277Y-99898242D01*
X123397278Y-99898242D01*
X123403248Y-99898806D01*
X123421166Y-99900500D01*
X124078834Y-99900500D01*
X124096752Y-99898806D01*
X124102722Y-99898242D01*
X124102723Y-99898242D01*
X124110369Y-99897519D01*
X124238184Y-99852634D01*
X124245754Y-99847043D01*
X124245761Y-99847039D01*
X124343091Y-99775149D01*
X124409769Y-99750766D01*
X124417950Y-99750500D01*
X124517885Y-99750500D01*
X124586006Y-99770502D01*
X124619235Y-99801639D01*
X124652850Y-99847150D01*
X124660425Y-99852745D01*
X124660426Y-99852746D01*
X124754243Y-99922041D01*
X124754246Y-99922042D01*
X124761816Y-99927634D01*
X124889631Y-99972519D01*
X124897277Y-99973242D01*
X124897278Y-99973242D01*
X124903248Y-99973806D01*
X124921166Y-99975500D01*
X125428834Y-99975500D01*
X125446752Y-99973806D01*
X125452722Y-99973242D01*
X125452723Y-99973242D01*
X125460369Y-99972519D01*
X125588184Y-99927634D01*
X125595754Y-99922042D01*
X125595757Y-99922041D01*
X125680206Y-99859665D01*
X125697150Y-99847150D01*
X125728928Y-99804126D01*
X125772041Y-99745757D01*
X125772042Y-99745754D01*
X125777634Y-99738184D01*
X125822519Y-99610369D01*
X125825500Y-99578834D01*
X125825500Y-98921166D01*
X125822519Y-98889631D01*
X125777634Y-98761816D01*
X125772042Y-98754246D01*
X125772041Y-98754243D01*
X125702742Y-98660421D01*
X125697150Y-98652850D01*
X125662339Y-98627138D01*
X125619429Y-98570577D01*
X125613909Y-98499795D01*
X125647533Y-98437266D01*
X125685385Y-98411071D01*
X125689531Y-98409664D01*
X125838522Y-98326226D01*
X125860964Y-98313658D01*
X125860965Y-98313657D01*
X125866001Y-98310837D01*
X125890163Y-98290742D01*
X125993272Y-98204986D01*
X126021505Y-98181505D01*
X126025192Y-98177072D01*
X126100440Y-98086597D01*
X126159378Y-98047014D01*
X126230360Y-98045578D01*
X126290850Y-98082746D01*
X126321643Y-98146717D01*
X126322968Y-98176503D01*
X126320524Y-98209392D01*
X126322397Y-98218168D01*
X126323008Y-98227125D01*
X126323002Y-98227125D01*
X126324500Y-98241318D01*
X126324500Y-98582050D01*
X126304498Y-98650171D01*
X126299851Y-98656909D01*
X126227961Y-98754239D01*
X126227957Y-98754246D01*
X126222366Y-98761816D01*
X126177481Y-98889631D01*
X126174500Y-98921166D01*
X126174500Y-99578834D01*
X126177481Y-99610369D01*
X126222366Y-99738184D01*
X126227958Y-99745754D01*
X126227959Y-99745757D01*
X126271072Y-99804126D01*
X126302850Y-99847150D01*
X126319794Y-99859665D01*
X126404243Y-99922041D01*
X126404246Y-99922042D01*
X126411816Y-99927634D01*
X126539631Y-99972519D01*
X126547277Y-99973242D01*
X126547278Y-99973242D01*
X126553248Y-99973806D01*
X126571166Y-99975500D01*
X127078834Y-99975500D01*
X127096752Y-99973806D01*
X127102722Y-99973242D01*
X127102723Y-99973242D01*
X127110369Y-99972519D01*
X127238184Y-99927634D01*
X127245754Y-99922042D01*
X127245757Y-99922041D01*
X127330206Y-99859665D01*
X127347150Y-99847150D01*
X127378928Y-99804126D01*
X127422041Y-99745757D01*
X127422042Y-99745754D01*
X127427634Y-99738184D01*
X127472519Y-99610369D01*
X127475500Y-99578834D01*
X127475500Y-99417242D01*
X127495502Y-99349121D01*
X127549158Y-99302628D01*
X127619432Y-99292524D01*
X127661619Y-99306510D01*
X127758776Y-99359262D01*
X127766125Y-99361190D01*
X127911069Y-99399215D01*
X127910705Y-99400602D01*
X127967916Y-99426272D01*
X127975132Y-99432946D01*
X128846466Y-100304279D01*
X128853933Y-100313623D01*
X128854322Y-100313292D01*
X128860140Y-100320128D01*
X128864930Y-100327720D01*
X128871658Y-100333662D01*
X128871659Y-100333663D01*
X128904609Y-100362763D01*
X128910297Y-100368110D01*
X128921507Y-100379320D01*
X128925093Y-100382008D01*
X128925096Y-100382010D01*
X128929677Y-100385444D01*
X128937518Y-100391827D01*
X128941805Y-100395613D01*
X128972388Y-100422623D01*
X128980513Y-100426438D01*
X128983683Y-100428520D01*
X128996670Y-100436323D01*
X128999994Y-100438143D01*
X129007176Y-100443526D01*
X129015577Y-100446675D01*
X129015578Y-100446676D01*
X129050736Y-100459856D01*
X129060053Y-100463783D01*
X129094034Y-100479737D01*
X129094037Y-100479738D01*
X129102163Y-100483553D01*
X129111037Y-100484935D01*
X129114650Y-100486039D01*
X129129307Y-100489885D01*
X129133010Y-100490699D01*
X129141420Y-100493852D01*
X129187843Y-100497302D01*
X129197856Y-100498452D01*
X129211009Y-100500500D01*
X129226204Y-100500500D01*
X129235542Y-100500846D01*
X129284392Y-100504476D01*
X129293168Y-100502603D01*
X129302125Y-100501992D01*
X129302125Y-100501998D01*
X129316318Y-100500500D01*
X140687885Y-100500500D01*
X140756006Y-100520502D01*
X140789235Y-100551639D01*
X140822850Y-100597150D01*
X140830425Y-100602745D01*
X140830426Y-100602746D01*
X140924243Y-100672041D01*
X140924246Y-100672042D01*
X140931816Y-100677634D01*
X141059631Y-100722519D01*
X141067277Y-100723242D01*
X141067278Y-100723242D01*
X141073248Y-100723806D01*
X141091166Y-100725500D01*
X141598834Y-100725500D01*
X141616752Y-100723806D01*
X141622722Y-100723242D01*
X141622723Y-100723242D01*
X141630369Y-100722519D01*
X141758184Y-100677634D01*
X141765754Y-100672042D01*
X141765757Y-100672041D01*
X141859579Y-100602742D01*
X141867150Y-100597150D01*
X141891904Y-100563636D01*
X141942041Y-100495757D01*
X141942042Y-100495754D01*
X141947634Y-100488184D01*
X141992519Y-100360369D01*
X141995500Y-100328834D01*
X141995500Y-99671166D01*
X141992519Y-99639631D01*
X141947634Y-99511816D01*
X141942042Y-99504246D01*
X141942041Y-99504243D01*
X141872742Y-99410421D01*
X141867150Y-99402850D01*
X141859579Y-99397258D01*
X141859577Y-99397256D01*
X141837662Y-99381069D01*
X141794752Y-99324508D01*
X141789233Y-99253726D01*
X141822858Y-99191197D01*
X141847592Y-99172535D01*
X141850695Y-99171372D01*
X141959687Y-99089687D01*
X142041372Y-98980695D01*
X142052018Y-98952297D01*
X142094660Y-98895533D01*
X142161221Y-98870833D01*
X142230570Y-98886041D01*
X142280688Y-98936327D01*
X142287982Y-98952297D01*
X142298628Y-98980695D01*
X142380313Y-99089687D01*
X142489305Y-99171372D01*
X142490662Y-99171881D01*
X142538132Y-99219458D01*
X142553146Y-99288849D01*
X142528260Y-99355341D01*
X142502338Y-99381069D01*
X142480423Y-99397256D01*
X142480421Y-99397258D01*
X142472850Y-99402850D01*
X142467258Y-99410421D01*
X142397959Y-99504243D01*
X142397958Y-99504246D01*
X142392366Y-99511816D01*
X142347481Y-99639631D01*
X142344500Y-99671166D01*
X142344500Y-100328834D01*
X142347481Y-100360369D01*
X142392366Y-100488184D01*
X142397958Y-100495754D01*
X142397959Y-100495757D01*
X142448096Y-100563636D01*
X142472850Y-100597150D01*
X142480421Y-100602742D01*
X142574243Y-100672041D01*
X142574246Y-100672042D01*
X142581816Y-100677634D01*
X142709631Y-100722519D01*
X142717277Y-100723242D01*
X142717278Y-100723242D01*
X142723248Y-100723806D01*
X142741166Y-100725500D01*
X143248834Y-100725500D01*
X143266752Y-100723806D01*
X143272722Y-100723242D01*
X143272723Y-100723242D01*
X143280369Y-100722519D01*
X143408184Y-100677634D01*
X143415754Y-100672042D01*
X143415757Y-100672041D01*
X143509574Y-100602746D01*
X143509575Y-100602745D01*
X143517150Y-100597150D01*
X143550765Y-100551639D01*
X143607326Y-100508729D01*
X143652115Y-100500500D01*
X145429819Y-100500500D01*
X145441704Y-100501828D01*
X145441745Y-100501318D01*
X145450691Y-100502038D01*
X145459447Y-100504019D01*
X145502980Y-100501318D01*
X145512264Y-100500742D01*
X145520067Y-100500500D01*
X145535940Y-100500500D01*
X145546052Y-100499052D01*
X145556106Y-100498022D01*
X145584097Y-100496285D01*
X145602538Y-100495141D01*
X145610982Y-100492093D01*
X145614694Y-100491324D01*
X145629399Y-100487657D01*
X145633027Y-100486596D01*
X145641918Y-100485323D01*
X145684282Y-100466061D01*
X145693637Y-100462254D01*
X145728943Y-100449509D01*
X145728947Y-100449507D01*
X145737387Y-100446460D01*
X145744635Y-100441165D01*
X145747975Y-100439389D01*
X145761089Y-100431726D01*
X145764261Y-100429697D01*
X145772428Y-100425984D01*
X145779223Y-100420129D01*
X145779226Y-100420127D01*
X145807675Y-100395613D01*
X145815596Y-100389324D01*
X145822402Y-100384352D01*
X145826336Y-100381478D01*
X145837079Y-100370735D01*
X145843926Y-100364377D01*
X145845799Y-100362763D01*
X145881037Y-100332400D01*
X145885920Y-100324866D01*
X145891819Y-100318104D01*
X145891824Y-100318108D01*
X145900800Y-100307014D01*
X146170409Y-100037405D01*
X146232721Y-100003379D01*
X146259504Y-100000500D01*
X147138144Y-100000499D01*
X147226518Y-100000499D01*
X147231412Y-99999724D01*
X147310506Y-99987198D01*
X147310508Y-99987197D01*
X147320304Y-99985646D01*
X147433342Y-99928050D01*
X147523050Y-99838342D01*
X147580646Y-99725304D01*
X147595500Y-99631519D01*
X147595499Y-99268482D01*
X147590726Y-99238342D01*
X147582198Y-99184494D01*
X147582197Y-99184492D01*
X147580646Y-99174696D01*
X147523050Y-99061658D01*
X147433342Y-98971950D01*
X147320304Y-98914354D01*
X147310515Y-98912804D01*
X147310513Y-98912803D01*
X147283151Y-98908470D01*
X147226519Y-98899500D01*
X146607625Y-98899500D01*
X145988482Y-98899501D01*
X145983589Y-98900276D01*
X145983588Y-98900276D01*
X145904494Y-98912802D01*
X145904492Y-98912803D01*
X145894696Y-98914354D01*
X145885859Y-98918857D01*
X145885858Y-98918857D01*
X145883071Y-98920277D01*
X145879321Y-98920981D01*
X145876428Y-98921921D01*
X145876306Y-98921547D01*
X145813293Y-98933377D01*
X145747510Y-98906674D01*
X145706606Y-98848645D01*
X145703635Y-98779251D01*
X145705646Y-98775304D01*
X145720500Y-98681519D01*
X145720499Y-98318482D01*
X145719589Y-98312733D01*
X145707197Y-98234489D01*
X145705646Y-98224696D01*
X145705860Y-98224662D01*
X145704013Y-98159958D01*
X145740677Y-98099161D01*
X145804390Y-98067837D01*
X145874924Y-98075932D01*
X145883071Y-98079723D01*
X145894696Y-98085646D01*
X145904485Y-98087196D01*
X145904487Y-98087197D01*
X145931849Y-98091530D01*
X145988481Y-98100500D01*
X146607375Y-98100500D01*
X147226518Y-98100499D01*
X147248353Y-98097041D01*
X147310506Y-98087198D01*
X147310508Y-98087197D01*
X147320304Y-98085646D01*
X147362330Y-98064233D01*
X147419532Y-98050500D01*
X147819745Y-98050500D01*
X147887866Y-98070502D01*
X147894605Y-98075149D01*
X147924243Y-98097041D01*
X147924246Y-98097042D01*
X147931816Y-98102634D01*
X148059631Y-98147519D01*
X148067277Y-98148242D01*
X148067278Y-98148242D01*
X148073248Y-98148806D01*
X148091166Y-98150500D01*
X148748834Y-98150500D01*
X148766752Y-98148806D01*
X148772722Y-98148242D01*
X148772723Y-98148242D01*
X148780369Y-98147519D01*
X148908184Y-98102634D01*
X148915754Y-98097042D01*
X148915757Y-98097041D01*
X148945395Y-98075149D01*
X149012073Y-98050766D01*
X149020255Y-98050500D01*
X149686797Y-98050500D01*
X149754918Y-98070502D01*
X149789693Y-98103779D01*
X149799588Y-98117780D01*
X149944466Y-98258913D01*
X149949270Y-98262123D01*
X150003133Y-98298113D01*
X150112637Y-98371282D01*
X150117940Y-98373560D01*
X150117943Y-98373562D01*
X150250229Y-98430396D01*
X150298470Y-98451122D01*
X150495740Y-98495760D01*
X150501509Y-98495987D01*
X150501512Y-98495987D01*
X150577683Y-98498979D01*
X150697842Y-98503700D01*
X150784132Y-98491189D01*
X150892286Y-98475508D01*
X150892291Y-98475507D01*
X150898007Y-98474678D01*
X150903479Y-98472820D01*
X150903481Y-98472820D01*
X151084067Y-98411519D01*
X151084069Y-98411518D01*
X151089531Y-98409664D01*
X151238522Y-98326226D01*
X151260964Y-98313658D01*
X151260965Y-98313657D01*
X151266001Y-98310837D01*
X151290163Y-98290742D01*
X151393272Y-98204986D01*
X151421505Y-98181505D01*
X151510798Y-98074142D01*
X151547146Y-98030439D01*
X151550837Y-98026001D01*
X151649664Y-97849531D01*
X151654932Y-97834014D01*
X151712820Y-97663481D01*
X151712820Y-97663479D01*
X151714678Y-97658007D01*
X151718218Y-97633591D01*
X151747786Y-97569045D01*
X151753819Y-97562574D01*
X153275484Y-96040909D01*
X153275487Y-96040905D01*
X153298050Y-96018342D01*
X153308035Y-95998745D01*
X153318361Y-95981893D01*
X153331296Y-95964090D01*
X153338095Y-95943166D01*
X153345659Y-95924906D01*
X153351144Y-95914141D01*
X153351145Y-95914137D01*
X153355646Y-95905304D01*
X153357516Y-95893500D01*
X153359087Y-95883578D01*
X153363703Y-95864353D01*
X153367435Y-95852868D01*
X153367436Y-95852864D01*
X153370500Y-95843433D01*
X153370500Y-95376500D01*
X153390502Y-95308379D01*
X153444158Y-95261886D01*
X153496500Y-95250500D01*
X153794674Y-95250500D01*
X153867740Y-95235966D01*
X153878274Y-95228928D01*
X153940286Y-95187493D01*
X153950601Y-95180601D01*
X153996247Y-95112286D01*
X153999072Y-95108058D01*
X153999072Y-95108057D01*
X154005966Y-95097740D01*
X154007985Y-95087588D01*
X154051639Y-95033417D01*
X154119002Y-95010996D01*
X154187794Y-95028554D01*
X154236172Y-95080516D01*
X154249500Y-95136916D01*
X154249500Y-95636943D01*
X154229498Y-95705064D01*
X154212595Y-95726038D01*
X152438330Y-97500303D01*
X152436060Y-97503172D01*
X152436053Y-97503180D01*
X152385461Y-97567126D01*
X152357119Y-97602949D01*
X152354020Y-97609580D01*
X152354018Y-97609583D01*
X152286120Y-97754861D01*
X152286119Y-97754865D01*
X152283021Y-97761493D01*
X152247382Y-97932831D01*
X152252116Y-98107772D01*
X152296968Y-98276932D01*
X152300419Y-98283382D01*
X152300420Y-98283384D01*
X152373308Y-98419604D01*
X152379532Y-98431236D01*
X152384377Y-98436721D01*
X152384377Y-98436722D01*
X152486939Y-98552850D01*
X152495380Y-98562408D01*
X152501357Y-98566632D01*
X152501358Y-98566633D01*
X152529598Y-98586591D01*
X152638296Y-98663412D01*
X152645086Y-98666148D01*
X152645087Y-98666149D01*
X152741346Y-98704942D01*
X152800615Y-98728828D01*
X152860509Y-98737939D01*
X152966396Y-98754048D01*
X152966400Y-98754048D01*
X152973630Y-98755148D01*
X152980922Y-98754555D01*
X152980925Y-98754555D01*
X153140757Y-98741555D01*
X153140758Y-98741555D01*
X153148059Y-98740961D01*
X153155025Y-98738704D01*
X153155027Y-98738704D01*
X153307580Y-98689284D01*
X153307583Y-98689283D01*
X153314546Y-98687027D01*
X153320802Y-98683231D01*
X153320806Y-98683229D01*
X153459363Y-98599150D01*
X153459364Y-98599149D01*
X153464160Y-98596239D01*
X153472452Y-98588915D01*
X155331289Y-96730078D01*
X155376154Y-96701191D01*
X155447287Y-96674524D01*
X155455695Y-96671372D01*
X155564687Y-96589687D01*
X155646372Y-96480695D01*
X155694184Y-96353157D01*
X155695241Y-96343434D01*
X155700500Y-96295015D01*
X155700945Y-96295063D01*
X155707062Y-96265651D01*
X155708219Y-96263384D01*
X155709958Y-96256277D01*
X155712013Y-96250752D01*
X155713883Y-96245132D01*
X155716979Y-96238507D01*
X155731684Y-96167812D01*
X155732654Y-96163527D01*
X155748480Y-96098849D01*
X155749815Y-96093394D01*
X155750500Y-96082352D01*
X155750531Y-96082354D01*
X155750780Y-96078230D01*
X155751128Y-96074328D01*
X155752617Y-96067170D01*
X155750546Y-95990622D01*
X155750500Y-95987214D01*
X155750500Y-94456178D01*
X155735343Y-94326172D01*
X155732390Y-94318035D01*
X155708060Y-94251009D01*
X155701160Y-94211776D01*
X155700683Y-94211802D01*
X155700499Y-94208408D01*
X155700499Y-94204986D01*
X155694184Y-94146843D01*
X155690950Y-94138215D01*
X155662249Y-94061658D01*
X155646372Y-94019305D01*
X155564687Y-93910313D01*
X155455695Y-93828628D01*
X155328157Y-93780816D01*
X155320304Y-93779963D01*
X155320300Y-93779962D01*
X155273414Y-93774869D01*
X155273410Y-93774869D01*
X155270015Y-93774500D01*
X155212451Y-93774500D01*
X155175933Y-93769092D01*
X155133807Y-93756333D01*
X154959138Y-93745497D01*
X154951922Y-93746737D01*
X154951920Y-93746737D01*
X154800937Y-93772681D01*
X154779599Y-93774501D01*
X154729986Y-93774501D01*
X154671843Y-93780816D01*
X154544305Y-93828628D01*
X154435313Y-93910313D01*
X154416236Y-93935767D01*
X154406270Y-93949065D01*
X154349411Y-93991580D01*
X154305444Y-93999500D01*
X154146500Y-93999500D01*
X154078379Y-93979498D01*
X154031886Y-93925842D01*
X154020500Y-93873500D01*
X154020500Y-92911567D01*
X154017436Y-92902136D01*
X154017435Y-92902132D01*
X154013703Y-92890647D01*
X154009087Y-92871422D01*
X154007197Y-92859488D01*
X154007197Y-92859487D01*
X154005646Y-92849696D01*
X154001145Y-92840863D01*
X154001144Y-92840859D01*
X153995658Y-92830092D01*
X153988092Y-92811828D01*
X153984360Y-92800342D01*
X153981296Y-92790911D01*
X153968365Y-92773113D01*
X153958037Y-92756258D01*
X153952555Y-92745499D01*
X153952554Y-92745497D01*
X153948050Y-92736658D01*
X153925487Y-92714095D01*
X153925484Y-92714091D01*
X153407405Y-92196012D01*
X153373379Y-92133700D01*
X153370500Y-92106917D01*
X153370500Y-91376500D01*
X153390502Y-91308379D01*
X153444158Y-91261886D01*
X153496500Y-91250500D01*
X153794674Y-91250500D01*
X153867740Y-91235966D01*
X153950601Y-91180601D01*
X153990819Y-91120409D01*
X153999072Y-91108058D01*
X153999072Y-91108057D01*
X154005966Y-91097740D01*
X154020500Y-91024674D01*
X154020500Y-89295367D01*
X154040502Y-89227246D01*
X154094158Y-89180753D01*
X154102268Y-89177386D01*
X154108007Y-89175235D01*
X154108013Y-89175232D01*
X154116412Y-89172083D01*
X154223972Y-89091472D01*
X154248014Y-89059392D01*
X154299200Y-88991095D01*
X154299201Y-88991093D01*
X154304583Y-88983912D01*
X154351766Y-88858051D01*
X154355177Y-88826652D01*
X154368222Y-88782962D01*
X154378219Y-88763384D01*
X154419815Y-88593394D01*
X154420500Y-88582352D01*
X154420500Y-87404595D01*
X154440502Y-87336474D01*
X154494158Y-87289981D01*
X154564432Y-87279877D01*
X154629012Y-87309371D01*
X154647326Y-87329030D01*
X154655313Y-87339687D01*
X154764305Y-87421372D01*
X154891843Y-87469184D01*
X154899696Y-87470037D01*
X154899700Y-87470038D01*
X154946586Y-87475131D01*
X154946590Y-87475131D01*
X154949985Y-87475500D01*
X155012047Y-87475500D01*
X155041995Y-87479111D01*
X155126606Y-87499815D01*
X155132206Y-87500162D01*
X155132210Y-87500163D01*
X155135709Y-87500380D01*
X155135718Y-87500380D01*
X155137648Y-87500500D01*
X157778577Y-87500500D01*
X157848578Y-87521734D01*
X157922260Y-87570966D01*
X157995326Y-87585500D01*
X161374000Y-87585500D01*
X161442121Y-87605502D01*
X161488614Y-87659158D01*
X161500000Y-87711500D01*
X161500000Y-101624000D01*
X161479998Y-101692121D01*
X161426342Y-101738614D01*
X161374000Y-101750000D01*
X110376000Y-101750000D01*
X110307879Y-101729998D01*
X110261386Y-101676342D01*
X110250000Y-101624000D01*
X110250000Y-94831069D01*
X111435164Y-94831069D01*
X111448392Y-95032894D01*
X111461770Y-95085569D01*
X111485905Y-95180601D01*
X111498178Y-95228928D01*
X111582856Y-95412607D01*
X111586189Y-95417323D01*
X111696117Y-95572868D01*
X111699588Y-95577780D01*
X111703730Y-95581815D01*
X111724826Y-95602366D01*
X111844466Y-95718913D01*
X112012637Y-95831282D01*
X112017940Y-95833560D01*
X112017943Y-95833562D01*
X112172564Y-95899992D01*
X112198470Y-95911122D01*
X112395740Y-95955760D01*
X112401509Y-95955987D01*
X112401512Y-95955987D01*
X112477683Y-95958979D01*
X112597842Y-95963700D01*
X112684132Y-95951189D01*
X112792286Y-95935508D01*
X112792291Y-95935507D01*
X112798007Y-95934678D01*
X112803479Y-95932820D01*
X112803481Y-95932820D01*
X112984067Y-95871519D01*
X112984069Y-95871518D01*
X112989531Y-95869664D01*
X113135784Y-95787759D01*
X113160964Y-95773658D01*
X113160965Y-95773657D01*
X113166001Y-95770837D01*
X113190454Y-95750500D01*
X113317073Y-95645191D01*
X113321505Y-95641505D01*
X113450837Y-95486001D01*
X113549664Y-95309531D01*
X113561556Y-95274500D01*
X113612820Y-95123481D01*
X113612820Y-95123479D01*
X113614678Y-95118007D01*
X113615507Y-95112291D01*
X113615508Y-95112286D01*
X113636065Y-94970502D01*
X113643700Y-94917842D01*
X113645215Y-94860000D01*
X113626708Y-94658591D01*
X113620236Y-94635641D01*
X113584260Y-94508080D01*
X113571807Y-94463926D01*
X113482351Y-94282527D01*
X113466768Y-94261658D01*
X113364788Y-94125091D01*
X113364787Y-94125090D01*
X113361335Y-94120467D01*
X113354310Y-94113973D01*
X113217053Y-93987094D01*
X113217051Y-93987092D01*
X113212812Y-93983174D01*
X113188928Y-93968104D01*
X113046637Y-93878325D01*
X113041757Y-93875246D01*
X112853898Y-93800298D01*
X112655526Y-93760839D01*
X112649752Y-93760763D01*
X112649748Y-93760763D01*
X112547257Y-93759422D01*
X112453286Y-93758192D01*
X112447589Y-93759171D01*
X112447588Y-93759171D01*
X112259646Y-93791465D01*
X112259645Y-93791465D01*
X112253949Y-93792444D01*
X112064193Y-93862449D01*
X112059232Y-93865401D01*
X112059231Y-93865401D01*
X111931707Y-93941270D01*
X111890371Y-93965862D01*
X111738305Y-94099220D01*
X111613089Y-94258057D01*
X111518914Y-94437053D01*
X111458937Y-94630213D01*
X111435164Y-94831069D01*
X110250000Y-94831069D01*
X110250000Y-85449335D01*
X112099500Y-85449335D01*
X112099501Y-86050664D01*
X112105734Y-86108051D01*
X112108508Y-86115450D01*
X112108508Y-86115451D01*
X112109320Y-86117616D01*
X112152917Y-86233912D01*
X112158299Y-86241093D01*
X112158300Y-86241095D01*
X112174057Y-86262119D01*
X112233528Y-86341472D01*
X112240704Y-86346850D01*
X112317483Y-86404392D01*
X112341088Y-86422083D01*
X112349496Y-86425235D01*
X112459554Y-86466494D01*
X112459556Y-86466494D01*
X112466949Y-86469266D01*
X112474797Y-86470119D01*
X112474799Y-86470119D01*
X112507452Y-86473666D01*
X112524335Y-86475500D01*
X112787384Y-86475500D01*
X113050664Y-86475499D01*
X113108051Y-86469266D01*
X113187602Y-86439444D01*
X113225504Y-86425235D01*
X113233912Y-86422083D01*
X113257518Y-86404392D01*
X113334296Y-86346850D01*
X113341472Y-86341472D01*
X113346850Y-86334296D01*
X113346853Y-86334293D01*
X113371852Y-86300936D01*
X113428711Y-86258420D01*
X113472679Y-86250500D01*
X113517885Y-86250500D01*
X113586006Y-86270502D01*
X113619235Y-86301639D01*
X113652850Y-86347150D01*
X113660425Y-86352745D01*
X113660426Y-86352746D01*
X113754243Y-86422041D01*
X113754246Y-86422042D01*
X113761816Y-86427634D01*
X113889631Y-86472519D01*
X113897277Y-86473242D01*
X113897278Y-86473242D01*
X113903248Y-86473806D01*
X113921166Y-86475500D01*
X114428834Y-86475500D01*
X114446752Y-86473806D01*
X114452722Y-86473242D01*
X114452723Y-86473242D01*
X114460369Y-86472519D01*
X114588184Y-86427634D01*
X114595754Y-86422042D01*
X114595757Y-86422041D01*
X114689579Y-86352742D01*
X114697150Y-86347150D01*
X114728837Y-86304250D01*
X114772041Y-86245757D01*
X114772042Y-86245754D01*
X114777634Y-86238184D01*
X114822519Y-86110369D01*
X114825500Y-86078834D01*
X114825500Y-85421166D01*
X114822519Y-85389631D01*
X114777634Y-85261816D01*
X114772042Y-85254246D01*
X114772041Y-85254243D01*
X114702742Y-85160421D01*
X114697150Y-85152850D01*
X114641660Y-85111864D01*
X114595757Y-85077959D01*
X114595754Y-85077958D01*
X114588184Y-85072366D01*
X114460369Y-85027481D01*
X114452723Y-85026758D01*
X114452722Y-85026758D01*
X114446752Y-85026194D01*
X114428834Y-85024500D01*
X113921166Y-85024500D01*
X113903248Y-85026194D01*
X113897278Y-85026758D01*
X113897277Y-85026758D01*
X113889631Y-85027481D01*
X113761816Y-85072366D01*
X113754246Y-85077958D01*
X113754243Y-85077959D01*
X113678724Y-85133739D01*
X113652850Y-85152850D01*
X113622730Y-85193630D01*
X113619236Y-85198360D01*
X113562674Y-85241271D01*
X113517885Y-85249500D01*
X113472679Y-85249500D01*
X113404558Y-85229498D01*
X113371852Y-85199064D01*
X113346853Y-85165707D01*
X113346850Y-85165704D01*
X113341472Y-85158528D01*
X113266296Y-85102187D01*
X113241095Y-85083300D01*
X113241093Y-85083299D01*
X113233912Y-85077917D01*
X113183734Y-85059106D01*
X113115446Y-85033506D01*
X113115444Y-85033506D01*
X113108051Y-85030734D01*
X113100203Y-85029881D01*
X113100201Y-85029881D01*
X113054062Y-85024869D01*
X113050665Y-85024500D01*
X112787616Y-85024500D01*
X112524336Y-85024501D01*
X112466949Y-85030734D01*
X112459550Y-85033508D01*
X112459549Y-85033508D01*
X112416293Y-85049724D01*
X112341088Y-85077917D01*
X112333907Y-85083299D01*
X112333905Y-85083300D01*
X112308704Y-85102187D01*
X112233528Y-85158528D01*
X112228150Y-85165704D01*
X112160561Y-85255889D01*
X112152917Y-85266088D01*
X112149765Y-85274496D01*
X112109320Y-85382384D01*
X112105734Y-85391949D01*
X112104881Y-85399797D01*
X112104881Y-85399799D01*
X112103350Y-85413892D01*
X112099500Y-85449335D01*
X110250000Y-85449335D01*
X110250000Y-83699335D01*
X110524500Y-83699335D01*
X110524501Y-84300664D01*
X110530734Y-84358051D01*
X110533508Y-84365450D01*
X110533508Y-84365451D01*
X110539064Y-84380271D01*
X110577917Y-84483912D01*
X110583299Y-84491093D01*
X110583300Y-84491095D01*
X110596516Y-84508729D01*
X110658528Y-84591472D01*
X110665704Y-84596850D01*
X110744283Y-84655741D01*
X110766088Y-84672083D01*
X110774496Y-84675235D01*
X110884554Y-84716494D01*
X110884556Y-84716494D01*
X110891949Y-84719266D01*
X110899797Y-84720119D01*
X110899799Y-84720119D01*
X110945920Y-84725129D01*
X110949335Y-84725500D01*
X111212384Y-84725500D01*
X111475664Y-84725499D01*
X111533051Y-84719266D01*
X111556251Y-84710569D01*
X111650504Y-84675235D01*
X111658912Y-84672083D01*
X111680718Y-84655741D01*
X111759296Y-84596850D01*
X111766472Y-84591472D01*
X111828484Y-84508729D01*
X111841700Y-84491095D01*
X111841701Y-84491093D01*
X111847083Y-84483912D01*
X111882018Y-84390723D01*
X111924659Y-84333958D01*
X111991221Y-84309258D01*
X112060570Y-84324465D01*
X112110688Y-84374751D01*
X112117982Y-84390723D01*
X112152917Y-84483912D01*
X112158299Y-84491093D01*
X112158300Y-84491095D01*
X112171516Y-84508729D01*
X112233528Y-84591472D01*
X112240704Y-84596850D01*
X112319283Y-84655741D01*
X112341088Y-84672083D01*
X112349496Y-84675235D01*
X112459554Y-84716494D01*
X112459556Y-84716494D01*
X112466949Y-84719266D01*
X112474797Y-84720119D01*
X112474799Y-84720119D01*
X112520920Y-84725129D01*
X112524335Y-84725500D01*
X112787384Y-84725500D01*
X113050664Y-84725499D01*
X113108051Y-84719266D01*
X113131251Y-84710569D01*
X113225504Y-84675235D01*
X113233912Y-84672083D01*
X113255718Y-84655741D01*
X113334296Y-84596850D01*
X113341472Y-84591472D01*
X113346850Y-84584296D01*
X113346853Y-84584293D01*
X113371852Y-84550936D01*
X113428711Y-84508420D01*
X113472679Y-84500500D01*
X113517885Y-84500500D01*
X113586006Y-84520502D01*
X113619235Y-84551639D01*
X113652850Y-84597150D01*
X113660425Y-84602745D01*
X113660426Y-84602746D01*
X113754243Y-84672041D01*
X113754246Y-84672042D01*
X113761816Y-84677634D01*
X113889631Y-84722519D01*
X113897277Y-84723242D01*
X113897278Y-84723242D01*
X113903248Y-84723806D01*
X113921166Y-84725500D01*
X114428834Y-84725500D01*
X114446752Y-84723806D01*
X114452722Y-84723242D01*
X114452723Y-84723242D01*
X114460369Y-84722519D01*
X114588184Y-84677634D01*
X114595754Y-84672042D01*
X114595757Y-84672041D01*
X114689579Y-84602742D01*
X114697150Y-84597150D01*
X114714132Y-84574158D01*
X114772041Y-84495757D01*
X114772042Y-84495754D01*
X114777634Y-84488184D01*
X114822519Y-84360369D01*
X114825500Y-84328834D01*
X114825500Y-83671166D01*
X114823480Y-83649799D01*
X114823242Y-83647278D01*
X114823242Y-83647277D01*
X114822519Y-83639631D01*
X114805534Y-83591262D01*
X114797452Y-83568249D01*
X114793753Y-83497348D01*
X114828972Y-83435704D01*
X114891929Y-83402886D01*
X114916334Y-83400500D01*
X115083666Y-83400500D01*
X115151787Y-83420502D01*
X115198280Y-83474158D01*
X115208384Y-83544432D01*
X115202548Y-83568249D01*
X115194467Y-83591262D01*
X115177481Y-83639631D01*
X115176758Y-83647277D01*
X115176758Y-83647278D01*
X115176520Y-83649799D01*
X115174500Y-83671166D01*
X115174500Y-84328834D01*
X115177481Y-84360369D01*
X115222366Y-84488184D01*
X115227958Y-84495754D01*
X115227959Y-84495757D01*
X115285868Y-84574158D01*
X115302850Y-84597150D01*
X115310421Y-84602742D01*
X115404243Y-84672041D01*
X115404246Y-84672042D01*
X115411816Y-84677634D01*
X115539631Y-84722519D01*
X115547277Y-84723242D01*
X115547278Y-84723242D01*
X115553248Y-84723806D01*
X115571166Y-84725500D01*
X116078834Y-84725500D01*
X116096752Y-84723806D01*
X116102722Y-84723242D01*
X116102723Y-84723242D01*
X116110369Y-84722519D01*
X116238184Y-84677634D01*
X116245754Y-84672042D01*
X116245757Y-84672041D01*
X116339574Y-84602746D01*
X116339575Y-84602745D01*
X116347150Y-84597150D01*
X116380765Y-84551639D01*
X116437326Y-84508729D01*
X116482115Y-84500500D01*
X118648500Y-84500500D01*
X118716621Y-84520502D01*
X118763114Y-84574158D01*
X118774500Y-84626499D01*
X118774501Y-84716492D01*
X118774501Y-84807514D01*
X118780816Y-84865657D01*
X118783589Y-84873054D01*
X118784506Y-84875500D01*
X118828628Y-84993195D01*
X118910313Y-85102187D01*
X119019305Y-85183872D01*
X119146843Y-85231684D01*
X119154696Y-85232537D01*
X119154700Y-85232538D01*
X119201586Y-85237631D01*
X119201590Y-85237631D01*
X119204985Y-85238000D01*
X119499956Y-85238000D01*
X119795014Y-85237999D01*
X119853157Y-85231684D01*
X119980695Y-85183872D01*
X120089687Y-85102187D01*
X120095068Y-85095007D01*
X120101418Y-85088657D01*
X120103828Y-85091067D01*
X120147465Y-85058427D01*
X120191451Y-85050500D01*
X121537785Y-85050500D01*
X121537788Y-85050499D01*
X122044018Y-85050499D01*
X122137804Y-85035646D01*
X122146636Y-85031146D01*
X122153284Y-85028986D01*
X122224252Y-85026960D01*
X122281312Y-85059725D01*
X122312595Y-85091008D01*
X122346621Y-85153320D01*
X122349500Y-85180103D01*
X122349500Y-85731918D01*
X122329498Y-85800039D01*
X122312595Y-85821013D01*
X122289616Y-85843992D01*
X122227304Y-85878018D01*
X122156489Y-85872953D01*
X122148663Y-85869513D01*
X122146637Y-85868855D01*
X122137804Y-85864354D01*
X122128015Y-85862804D01*
X122128013Y-85862803D01*
X122100651Y-85858470D01*
X122044019Y-85849500D01*
X121500110Y-85849500D01*
X120955982Y-85849501D01*
X120951089Y-85850276D01*
X120951088Y-85850276D01*
X120871994Y-85862802D01*
X120871992Y-85862803D01*
X120862196Y-85864354D01*
X120853359Y-85868857D01*
X120853358Y-85868857D01*
X120836382Y-85877507D01*
X120749158Y-85921950D01*
X120659450Y-86011658D01*
X120601854Y-86124696D01*
X120587000Y-86218481D01*
X120587001Y-86581518D01*
X120587776Y-86586409D01*
X120587776Y-86586412D01*
X120600032Y-86663797D01*
X120601854Y-86675304D01*
X120606355Y-86684137D01*
X120606357Y-86684142D01*
X120615544Y-86702172D01*
X120659450Y-86788342D01*
X120749158Y-86878050D01*
X120862196Y-86935646D01*
X120871985Y-86937196D01*
X120871987Y-86937197D01*
X120899349Y-86941530D01*
X120955981Y-86950500D01*
X121499890Y-86950500D01*
X122044018Y-86950499D01*
X122048912Y-86949724D01*
X122128006Y-86937198D01*
X122128008Y-86937197D01*
X122137804Y-86935646D01*
X122250842Y-86878050D01*
X122294714Y-86834178D01*
X122360810Y-86800500D01*
X122363433Y-86800500D01*
X122372857Y-86797438D01*
X122372862Y-86797437D01*
X122384353Y-86793703D01*
X122403578Y-86789087D01*
X122415512Y-86787197D01*
X122415513Y-86787197D01*
X122425304Y-86785646D01*
X122434137Y-86781145D01*
X122434141Y-86781144D01*
X122444906Y-86775659D01*
X122463166Y-86768095D01*
X122484090Y-86761296D01*
X122501893Y-86748361D01*
X122518745Y-86738035D01*
X122529502Y-86732554D01*
X122538342Y-86728050D01*
X122560905Y-86705487D01*
X122560909Y-86705484D01*
X122662922Y-86603471D01*
X122725234Y-86569445D01*
X122796049Y-86574510D01*
X122852885Y-86617057D01*
X122869725Y-86656895D01*
X122872239Y-86656078D01*
X122875302Y-86665506D01*
X122876854Y-86675304D01*
X122881355Y-86684137D01*
X122881357Y-86684142D01*
X122890544Y-86702172D01*
X122934450Y-86788342D01*
X123024158Y-86878050D01*
X123137196Y-86935646D01*
X123146985Y-86937196D01*
X123146987Y-86937197D01*
X123174349Y-86941530D01*
X123230981Y-86950500D01*
X123774890Y-86950500D01*
X124319018Y-86950499D01*
X124323912Y-86949724D01*
X124403006Y-86937198D01*
X124403008Y-86937197D01*
X124412804Y-86935646D01*
X124525842Y-86878050D01*
X124615550Y-86788342D01*
X124673146Y-86675304D01*
X124676448Y-86654460D01*
X124682767Y-86614557D01*
X124688000Y-86581519D01*
X124687999Y-86218482D01*
X124677935Y-86154932D01*
X124674698Y-86134494D01*
X124674697Y-86134492D01*
X124673146Y-86124696D01*
X124668436Y-86115451D01*
X124651280Y-86081782D01*
X124615550Y-86011658D01*
X124525842Y-85921950D01*
X124412804Y-85864354D01*
X124403015Y-85862804D01*
X124403013Y-85862803D01*
X124375651Y-85858470D01*
X124319019Y-85849500D01*
X124212244Y-85849500D01*
X123276500Y-85849501D01*
X123208379Y-85829499D01*
X123161886Y-85775843D01*
X123150500Y-85723501D01*
X123150500Y-85176500D01*
X123170502Y-85108379D01*
X123224158Y-85061886D01*
X123276500Y-85050500D01*
X124808549Y-85050500D01*
X124876670Y-85070502D01*
X124897423Y-85089816D01*
X124898582Y-85088657D01*
X124904932Y-85095007D01*
X124910313Y-85102187D01*
X125019305Y-85183872D01*
X125146843Y-85231684D01*
X125154696Y-85232537D01*
X125154700Y-85232538D01*
X125204985Y-85238000D01*
X125204937Y-85238445D01*
X125234348Y-85244561D01*
X125236616Y-85245719D01*
X125243728Y-85247459D01*
X125243730Y-85247460D01*
X125289273Y-85258604D01*
X125406606Y-85287315D01*
X125412206Y-85287662D01*
X125412210Y-85287663D01*
X125415709Y-85287880D01*
X125415718Y-85287880D01*
X125417648Y-85288000D01*
X127146046Y-85288000D01*
X127164996Y-85289433D01*
X127178896Y-85291548D01*
X127178900Y-85291548D01*
X127186130Y-85292648D01*
X127193422Y-85292055D01*
X127193425Y-85292055D01*
X127238175Y-85288415D01*
X127248389Y-85288000D01*
X127256322Y-85288000D01*
X127265618Y-85286916D01*
X127284236Y-85284746D01*
X127288611Y-85284313D01*
X127318774Y-85281860D01*
X127360559Y-85278461D01*
X127367521Y-85276206D01*
X127373316Y-85275048D01*
X127379058Y-85273691D01*
X127386328Y-85272843D01*
X127454236Y-85248194D01*
X127458364Y-85246777D01*
X127520083Y-85226783D01*
X127520085Y-85226782D01*
X127527046Y-85224527D01*
X127533300Y-85220732D01*
X127538679Y-85218269D01*
X127543955Y-85215627D01*
X127550831Y-85213131D01*
X127611209Y-85173546D01*
X127614919Y-85171205D01*
X127671861Y-85136652D01*
X127671868Y-85136647D01*
X127676660Y-85133739D01*
X127684952Y-85126415D01*
X127684974Y-85126440D01*
X127688069Y-85123694D01*
X127691063Y-85121191D01*
X127697185Y-85117177D01*
X127749884Y-85061547D01*
X127752261Y-85059106D01*
X127811670Y-84999697D01*
X127813940Y-84996828D01*
X127813947Y-84996820D01*
X127888338Y-84902793D01*
X127892881Y-84897051D01*
X127901296Y-84879046D01*
X127963880Y-84745139D01*
X127963881Y-84745135D01*
X127966979Y-84738507D01*
X128002618Y-84567169D01*
X127997884Y-84392228D01*
X127953032Y-84223068D01*
X127943967Y-84206125D01*
X127873921Y-84075217D01*
X127873920Y-84075216D01*
X127870468Y-84068764D01*
X127754620Y-83937592D01*
X127667246Y-83875842D01*
X127617682Y-83840813D01*
X127617679Y-83840811D01*
X127611703Y-83836588D01*
X127449385Y-83771172D01*
X127369629Y-83759039D01*
X127283604Y-83745952D01*
X127283600Y-83745952D01*
X127276370Y-83744852D01*
X127269078Y-83745445D01*
X127269075Y-83745445D01*
X127109243Y-83758445D01*
X127109242Y-83758445D01*
X127101941Y-83759039D01*
X127094975Y-83761296D01*
X127094973Y-83761296D01*
X127034561Y-83780867D01*
X126995730Y-83787000D01*
X125456178Y-83787000D01*
X125366202Y-83797490D01*
X125333444Y-83801309D01*
X125333442Y-83801309D01*
X125326172Y-83802157D01*
X125319295Y-83804653D01*
X125319292Y-83804654D01*
X125251009Y-83829440D01*
X125211776Y-83836340D01*
X125211802Y-83836817D01*
X125208408Y-83837001D01*
X125204986Y-83837001D01*
X125146843Y-83843316D01*
X125019305Y-83891128D01*
X124999500Y-83905971D01*
X124975009Y-83924326D01*
X124908503Y-83949174D01*
X124899444Y-83949500D01*
X123737215Y-83949500D01*
X123737212Y-83949501D01*
X123230982Y-83949501D01*
X123226089Y-83950276D01*
X123226088Y-83950276D01*
X123146994Y-83962802D01*
X123146992Y-83962803D01*
X123137196Y-83964354D01*
X123024158Y-84021950D01*
X122934450Y-84111658D01*
X122876854Y-84224696D01*
X122875303Y-84234489D01*
X122874823Y-84237518D01*
X122873219Y-84240902D01*
X122872238Y-84243921D01*
X122871848Y-84243794D01*
X122844413Y-84301672D01*
X122784146Y-84339201D01*
X122713157Y-84338189D01*
X122661279Y-84306906D01*
X122548889Y-84194516D01*
X122548885Y-84194513D01*
X122526322Y-84171950D01*
X122506726Y-84161965D01*
X122489873Y-84151639D01*
X122472070Y-84138704D01*
X122451146Y-84131905D01*
X122432886Y-84124341D01*
X122422121Y-84118856D01*
X122422117Y-84118855D01*
X122413284Y-84114354D01*
X122403493Y-84112803D01*
X122403492Y-84112803D01*
X122391558Y-84110913D01*
X122372333Y-84106297D01*
X122351414Y-84099500D01*
X122352439Y-84096347D01*
X122296976Y-84068084D01*
X122250842Y-84021950D01*
X122137804Y-83964354D01*
X122128015Y-83962804D01*
X122128013Y-83962803D01*
X122100651Y-83958470D01*
X122044019Y-83949500D01*
X120126500Y-83949500D01*
X120058379Y-83929498D01*
X120011886Y-83875842D01*
X120000500Y-83823500D01*
X120000500Y-83376500D01*
X120020502Y-83308379D01*
X120074158Y-83261886D01*
X120126500Y-83250500D01*
X127179819Y-83250500D01*
X127191704Y-83251828D01*
X127191745Y-83251318D01*
X127200691Y-83252038D01*
X127209447Y-83254019D01*
X127262263Y-83250742D01*
X127270067Y-83250500D01*
X127285940Y-83250500D01*
X127296052Y-83249052D01*
X127306106Y-83248022D01*
X127334097Y-83246285D01*
X127352538Y-83245141D01*
X127360982Y-83242093D01*
X127364694Y-83241324D01*
X127379399Y-83237657D01*
X127383027Y-83236596D01*
X127391918Y-83235323D01*
X127434282Y-83216061D01*
X127443637Y-83212254D01*
X127478943Y-83199509D01*
X127478947Y-83199507D01*
X127487387Y-83196460D01*
X127494635Y-83191165D01*
X127497975Y-83189389D01*
X127511089Y-83181726D01*
X127514261Y-83179697D01*
X127522428Y-83175984D01*
X127529223Y-83170129D01*
X127529226Y-83170127D01*
X127557675Y-83145613D01*
X127565596Y-83139324D01*
X127572402Y-83134352D01*
X127576336Y-83131478D01*
X127587079Y-83120735D01*
X127593926Y-83114377D01*
X127624237Y-83088259D01*
X127631037Y-83082400D01*
X127635920Y-83074866D01*
X127641819Y-83068104D01*
X127641824Y-83068108D01*
X127650800Y-83057014D01*
X128554280Y-82153534D01*
X128563624Y-82146068D01*
X128563292Y-82145678D01*
X128570128Y-82139860D01*
X128577720Y-82135070D01*
X128612756Y-82095399D01*
X128618102Y-82089712D01*
X128629321Y-82078493D01*
X128635450Y-82070316D01*
X128641832Y-82062477D01*
X128666684Y-82034337D01*
X128666685Y-82034336D01*
X128672623Y-82027612D01*
X128676434Y-82019494D01*
X128678506Y-82016341D01*
X128686329Y-82003320D01*
X128688141Y-82000011D01*
X128693527Y-81992824D01*
X128709857Y-81949263D01*
X128713784Y-81939943D01*
X128729737Y-81905964D01*
X128733553Y-81897837D01*
X128734934Y-81888965D01*
X128736042Y-81885342D01*
X128739888Y-81870683D01*
X128740701Y-81866986D01*
X128743852Y-81858580D01*
X128747302Y-81812157D01*
X128748453Y-81802139D01*
X128748547Y-81801534D01*
X128750500Y-81788991D01*
X128750500Y-81773796D01*
X128750846Y-81764459D01*
X128751741Y-81752420D01*
X128754476Y-81715608D01*
X128752603Y-81706832D01*
X128751992Y-81697875D01*
X128751998Y-81697875D01*
X128750500Y-81683682D01*
X128750500Y-78582681D01*
X128751828Y-78570796D01*
X128751318Y-78570755D01*
X128752038Y-78561809D01*
X128754019Y-78553053D01*
X128750742Y-78500236D01*
X128750500Y-78492433D01*
X128750500Y-78476560D01*
X128749052Y-78466448D01*
X128748022Y-78456394D01*
X128745697Y-78418920D01*
X128745697Y-78418918D01*
X128745141Y-78409962D01*
X128742093Y-78401519D01*
X128741329Y-78397829D01*
X128737651Y-78383078D01*
X128736596Y-78379468D01*
X128735323Y-78370582D01*
X128731610Y-78362415D01*
X128731608Y-78362409D01*
X128716071Y-78328237D01*
X128712258Y-78318871D01*
X128699508Y-78283553D01*
X128699508Y-78283552D01*
X128696461Y-78275113D01*
X128691166Y-78267865D01*
X128689388Y-78264522D01*
X128681756Y-78251461D01*
X128679701Y-78248248D01*
X128675984Y-78240072D01*
X128645619Y-78204832D01*
X128639328Y-78196910D01*
X128634355Y-78190102D01*
X128634353Y-78190100D01*
X128631478Y-78186164D01*
X128620735Y-78175421D01*
X128614377Y-78168574D01*
X128598803Y-78150500D01*
X128582400Y-78131463D01*
X128574866Y-78126580D01*
X128568104Y-78120681D01*
X128568108Y-78120676D01*
X128557014Y-78111700D01*
X128009946Y-77564632D01*
X127975920Y-77502320D01*
X127973778Y-77489142D01*
X127970037Y-77454698D01*
X127969184Y-77446843D01*
X127921372Y-77319305D01*
X127839687Y-77210313D01*
X127730695Y-77128628D01*
X127603157Y-77080816D01*
X127595304Y-77079963D01*
X127595300Y-77079962D01*
X127548414Y-77074869D01*
X127548410Y-77074869D01*
X127545015Y-77074500D01*
X127250044Y-77074500D01*
X126954986Y-77074501D01*
X126896843Y-77080816D01*
X126769305Y-77128628D01*
X126660313Y-77210313D01*
X126654932Y-77217493D01*
X126584010Y-77312123D01*
X126584008Y-77312126D01*
X126578628Y-77319305D01*
X126575479Y-77327706D01*
X126575477Y-77327709D01*
X126572657Y-77335232D01*
X126530015Y-77391996D01*
X126463452Y-77416694D01*
X126454676Y-77417000D01*
X126389041Y-77417000D01*
X126319040Y-77395766D01*
X126308058Y-77388428D01*
X126297740Y-77381534D01*
X126224674Y-77367000D01*
X124975326Y-77367000D01*
X124902260Y-77381534D01*
X124819399Y-77436899D01*
X124812507Y-77447214D01*
X124773906Y-77504986D01*
X124764034Y-77519760D01*
X124749500Y-77592826D01*
X124749500Y-78042174D01*
X124754042Y-78065007D01*
X124763075Y-78110418D01*
X124763075Y-78159581D01*
X124749500Y-78227826D01*
X124749500Y-78234012D01*
X124749319Y-78235850D01*
X124722737Y-78301682D01*
X124664782Y-78342692D01*
X124623926Y-78349500D01*
X124319605Y-78349500D01*
X124251484Y-78329498D01*
X124230510Y-78312595D01*
X121524931Y-75607016D01*
X121524927Y-75607013D01*
X121502364Y-75584450D01*
X121482768Y-75574465D01*
X121465915Y-75564139D01*
X121448112Y-75551204D01*
X121427188Y-75544405D01*
X121408928Y-75536841D01*
X121398163Y-75531356D01*
X121398159Y-75531355D01*
X121389326Y-75526854D01*
X121379535Y-75525303D01*
X121379534Y-75525303D01*
X121367600Y-75523413D01*
X121348372Y-75518796D01*
X121337561Y-75515283D01*
X121278956Y-75475208D01*
X121251321Y-75409811D01*
X121250500Y-75395451D01*
X121250500Y-75052826D01*
X121236925Y-74984581D01*
X121236925Y-74935418D01*
X121249293Y-74873241D01*
X121250500Y-74867174D01*
X121250500Y-74742156D01*
X123594758Y-74742156D01*
X123612035Y-74898651D01*
X123666143Y-75046508D01*
X123670380Y-75052814D01*
X123670382Y-75052817D01*
X123674546Y-75059013D01*
X123753958Y-75177190D01*
X123870410Y-75283153D01*
X123930369Y-75315708D01*
X124002099Y-75354655D01*
X124002101Y-75354656D01*
X124008776Y-75358280D01*
X124016125Y-75360208D01*
X124153719Y-75396305D01*
X124153721Y-75396305D01*
X124161069Y-75398233D01*
X124244380Y-75399542D01*
X124310898Y-75400587D01*
X124310901Y-75400587D01*
X124318495Y-75400706D01*
X124471968Y-75365556D01*
X124566887Y-75317817D01*
X124636730Y-75305079D01*
X124702374Y-75332123D01*
X124742976Y-75390363D01*
X124749500Y-75430382D01*
X124749500Y-75502174D01*
X124761825Y-75564134D01*
X124763075Y-75570418D01*
X124763075Y-75619581D01*
X124749500Y-75687826D01*
X124749500Y-76137174D01*
X124750707Y-76143241D01*
X124763075Y-76205418D01*
X124763075Y-76254581D01*
X124749500Y-76322826D01*
X124749500Y-76772174D01*
X124764034Y-76845240D01*
X124819399Y-76928101D01*
X124902260Y-76983466D01*
X124975326Y-76998000D01*
X126224674Y-76998000D01*
X126297740Y-76983466D01*
X126380601Y-76928101D01*
X126435966Y-76845240D01*
X126450500Y-76772174D01*
X126450500Y-76322826D01*
X126436925Y-76254581D01*
X126436925Y-76205418D01*
X126449293Y-76143241D01*
X126450500Y-76137174D01*
X126450500Y-75687826D01*
X126436925Y-75619581D01*
X126436925Y-75570418D01*
X126438175Y-75564134D01*
X126450500Y-75502174D01*
X126450500Y-75052826D01*
X126436925Y-74984581D01*
X126436925Y-74935418D01*
X126449293Y-74873241D01*
X126450500Y-74867174D01*
X126450500Y-74417826D01*
X126435966Y-74344760D01*
X126380601Y-74261899D01*
X126297740Y-74206534D01*
X126224674Y-74192000D01*
X124975326Y-74192000D01*
X124902260Y-74206534D01*
X124891942Y-74213428D01*
X124880960Y-74220766D01*
X124810959Y-74242000D01*
X124706556Y-74242000D01*
X124634646Y-74219465D01*
X124629651Y-74215994D01*
X124623976Y-74210937D01*
X124484831Y-74137263D01*
X124468122Y-74133066D01*
X124339498Y-74100758D01*
X124339496Y-74100758D01*
X124332128Y-74098907D01*
X124324530Y-74098867D01*
X124324528Y-74098867D01*
X124257319Y-74098515D01*
X124174684Y-74098083D01*
X124167305Y-74099855D01*
X124167301Y-74099855D01*
X124028967Y-74133066D01*
X124028963Y-74133067D01*
X124021588Y-74134838D01*
X123881679Y-74207050D01*
X123875957Y-74212042D01*
X123875955Y-74212043D01*
X123768759Y-74305556D01*
X123768756Y-74305559D01*
X123763034Y-74310551D01*
X123724269Y-74365707D01*
X123687640Y-74417826D01*
X123672501Y-74439366D01*
X123615309Y-74586057D01*
X123594758Y-74742156D01*
X121250500Y-74742156D01*
X121250500Y-74417826D01*
X121235966Y-74344760D01*
X121180601Y-74261899D01*
X121097740Y-74206534D01*
X121024674Y-74192000D01*
X119775326Y-74192000D01*
X119702260Y-74206534D01*
X119619399Y-74261899D01*
X119564034Y-74344760D01*
X119549500Y-74417826D01*
X119549500Y-74867174D01*
X119550707Y-74873241D01*
X119563075Y-74935418D01*
X119563075Y-74984581D01*
X119549500Y-75052826D01*
X119549500Y-75502174D01*
X119561825Y-75564134D01*
X119563075Y-75570418D01*
X119563075Y-75619581D01*
X119549500Y-75687826D01*
X119549500Y-76021000D01*
X119529498Y-76089121D01*
X119475842Y-76135614D01*
X119423500Y-76147000D01*
X119278445Y-76147000D01*
X119236784Y-76139279D01*
X119234831Y-76138245D01*
X119158480Y-76119067D01*
X119089498Y-76101740D01*
X119089496Y-76101740D01*
X119082128Y-76099889D01*
X119074530Y-76099849D01*
X119074528Y-76099849D01*
X119007319Y-76099497D01*
X118924684Y-76099065D01*
X118917305Y-76100837D01*
X118917301Y-76100837D01*
X118778967Y-76134048D01*
X118778963Y-76134049D01*
X118771588Y-76135820D01*
X118631679Y-76208032D01*
X118625957Y-76213024D01*
X118625955Y-76213025D01*
X118518759Y-76306538D01*
X118518756Y-76306541D01*
X118513034Y-76311533D01*
X118422501Y-76440348D01*
X118365309Y-76587039D01*
X118359454Y-76631513D01*
X118350248Y-76701440D01*
X118344758Y-76743138D01*
X118346191Y-76756114D01*
X118333786Y-76826016D01*
X118285558Y-76878117D01*
X118216818Y-76895873D01*
X118149390Y-76873647D01*
X118131857Y-76859036D01*
X117967337Y-76694516D01*
X117967333Y-76694513D01*
X117944770Y-76671950D01*
X117925174Y-76661965D01*
X117908321Y-76651639D01*
X117890518Y-76638704D01*
X117869594Y-76631905D01*
X117851334Y-76624341D01*
X117840569Y-76618856D01*
X117840565Y-76618855D01*
X117831732Y-76614354D01*
X117821941Y-76612803D01*
X117821940Y-76612803D01*
X117810006Y-76610913D01*
X117790781Y-76606297D01*
X117779296Y-76602565D01*
X117779292Y-76602564D01*
X117769861Y-76599500D01*
X117474761Y-76599500D01*
X117406640Y-76579498D01*
X117360147Y-76525842D01*
X117349497Y-76459897D01*
X117350500Y-76450665D01*
X117350499Y-75924336D01*
X117344266Y-75866949D01*
X117297083Y-75741088D01*
X117289329Y-75730741D01*
X117221850Y-75640704D01*
X117216472Y-75633528D01*
X117191430Y-75614760D01*
X117116095Y-75558300D01*
X117116093Y-75558299D01*
X117108912Y-75552917D01*
X117039389Y-75526854D01*
X116990446Y-75508506D01*
X116990444Y-75508506D01*
X116983051Y-75505734D01*
X116975203Y-75504881D01*
X116975201Y-75504881D01*
X116929062Y-75499869D01*
X116925665Y-75499500D01*
X116500125Y-75499500D01*
X116074336Y-75499501D01*
X116016949Y-75505734D01*
X116009550Y-75508508D01*
X116009549Y-75508508D01*
X115960611Y-75526854D01*
X115891088Y-75552917D01*
X115883907Y-75558299D01*
X115883905Y-75558300D01*
X115808570Y-75614760D01*
X115783528Y-75633528D01*
X115702917Y-75741088D01*
X115701906Y-75740330D01*
X115657988Y-75784153D01*
X115597723Y-75799500D01*
X115014041Y-75799500D01*
X114944040Y-75778266D01*
X114933058Y-75770928D01*
X114922740Y-75764034D01*
X114849674Y-75749500D01*
X113450326Y-75749500D01*
X113377260Y-75764034D01*
X113294399Y-75819399D01*
X113239034Y-75902260D01*
X113224500Y-75975326D01*
X113224500Y-76424674D01*
X113232595Y-76465371D01*
X113239034Y-76497740D01*
X113235307Y-76498481D01*
X113240560Y-76547382D01*
X113239201Y-76552010D01*
X113239034Y-76552260D01*
X113224500Y-76625326D01*
X113224500Y-77074674D01*
X113226274Y-77083590D01*
X113239034Y-77147740D01*
X113235307Y-77148481D01*
X113240560Y-77197382D01*
X113239201Y-77202010D01*
X113239034Y-77202260D01*
X113224500Y-77275326D01*
X113224500Y-77724674D01*
X113239034Y-77797740D01*
X113294399Y-77880601D01*
X113377260Y-77935966D01*
X113450326Y-77950500D01*
X114849674Y-77950500D01*
X114922740Y-77935966D01*
X114944040Y-77921734D01*
X115014041Y-77900500D01*
X115525239Y-77900500D01*
X115593360Y-77920502D01*
X115639853Y-77974158D01*
X115650503Y-78040103D01*
X115649500Y-78049335D01*
X115649501Y-78575664D01*
X115655734Y-78633051D01*
X115702917Y-78758912D01*
X115708297Y-78766091D01*
X115708299Y-78766094D01*
X115724326Y-78787478D01*
X115749174Y-78853984D01*
X115749500Y-78863043D01*
X115749500Y-79222435D01*
X115749258Y-79230237D01*
X115745497Y-79290862D01*
X115746737Y-79298078D01*
X115746737Y-79298079D01*
X115747680Y-79303565D01*
X115749500Y-79324904D01*
X115749500Y-80293822D01*
X115758484Y-80370879D01*
X115761562Y-80397278D01*
X115764657Y-80423828D01*
X115767155Y-80430709D01*
X115768839Y-80437833D01*
X115768319Y-80437956D01*
X115774501Y-80473107D01*
X115774501Y-80495014D01*
X115780816Y-80553157D01*
X115828628Y-80680695D01*
X115910313Y-80789687D01*
X116019305Y-80871372D01*
X116027713Y-80874524D01*
X116139445Y-80916411D01*
X116139448Y-80916412D01*
X116146843Y-80919184D01*
X116148962Y-80919414D01*
X116178507Y-80931210D01*
X116192369Y-80939261D01*
X116192372Y-80939262D01*
X116198702Y-80942939D01*
X116366193Y-80993667D01*
X116373502Y-80994120D01*
X116373505Y-80994121D01*
X116445035Y-80998558D01*
X116455560Y-80999701D01*
X116456193Y-80999750D01*
X116461009Y-81000500D01*
X116472435Y-81000500D01*
X116480237Y-81000742D01*
X116540862Y-81004503D01*
X116548078Y-81003263D01*
X116548079Y-81003263D01*
X116549947Y-81002942D01*
X116553568Y-81002320D01*
X116574904Y-81000500D01*
X116990496Y-81000500D01*
X117058617Y-81020502D01*
X117079591Y-81037405D01*
X118300334Y-82258148D01*
X118334360Y-82320460D01*
X118329295Y-82391275D01*
X118286748Y-82448111D01*
X118240654Y-82469762D01*
X118230135Y-82472287D01*
X118178279Y-82484736D01*
X118178275Y-82484737D01*
X118170900Y-82486508D01*
X118030991Y-82558720D01*
X118020906Y-82567518D01*
X118019836Y-82568451D01*
X117955354Y-82598157D01*
X117937009Y-82599500D01*
X112074731Y-82599500D01*
X112074727Y-82599501D01*
X112042817Y-82599501D01*
X112033390Y-82602564D01*
X112033383Y-82602565D01*
X112021897Y-82606297D01*
X112002677Y-82610911D01*
X111990743Y-82612801D01*
X111990735Y-82612803D01*
X111980946Y-82614354D01*
X111972115Y-82618854D01*
X111972111Y-82618855D01*
X111961343Y-82624342D01*
X111943082Y-82631906D01*
X111922160Y-82638704D01*
X111907168Y-82649597D01*
X111904366Y-82651632D01*
X111887509Y-82661962D01*
X111876743Y-82667448D01*
X111876742Y-82667449D01*
X111867908Y-82671950D01*
X111845341Y-82694517D01*
X111302262Y-83237595D01*
X111239950Y-83271621D01*
X111213167Y-83274500D01*
X110968771Y-83274501D01*
X110949336Y-83274501D01*
X110891949Y-83280734D01*
X110766088Y-83327917D01*
X110758907Y-83333299D01*
X110758905Y-83333300D01*
X110743870Y-83344568D01*
X110658528Y-83408528D01*
X110653150Y-83415704D01*
X110589459Y-83500688D01*
X110577917Y-83516088D01*
X110574765Y-83524496D01*
X110545874Y-83601564D01*
X110530734Y-83641949D01*
X110524500Y-83699335D01*
X110250000Y-83699335D01*
X110250000Y-72376000D01*
X110270002Y-72307879D01*
X110323658Y-72261386D01*
X110376000Y-72250000D01*
X142718500Y-72250000D01*
X142786621Y-72270002D01*
G37*
%TD.AperFunction*%
%TA.AperFunction,Conductor*%
G36*
X126657975Y-79786567D02*
G01*
X126660313Y-79789687D01*
X126769305Y-79871372D01*
X126896843Y-79919184D01*
X126904696Y-79920037D01*
X126904700Y-79920038D01*
X126951586Y-79925131D01*
X126951590Y-79925131D01*
X126954985Y-79925500D01*
X127249956Y-79925500D01*
X127545014Y-79925499D01*
X127603157Y-79919184D01*
X127603325Y-79920730D01*
X127665255Y-79923965D01*
X127722898Y-79965411D01*
X127748983Y-80031442D01*
X127749500Y-80042845D01*
X127749500Y-81490496D01*
X127729498Y-81558617D01*
X127712595Y-81579591D01*
X127079591Y-82212595D01*
X127017279Y-82246621D01*
X126990496Y-82249500D01*
X119759504Y-82249500D01*
X119691383Y-82229498D01*
X119670409Y-82212595D01*
X119479940Y-82022126D01*
X119445914Y-81959814D01*
X119450979Y-81888999D01*
X119493526Y-81832163D01*
X119560046Y-81807352D01*
X119569035Y-81807031D01*
X123156902Y-81807031D01*
X123166333Y-81803967D01*
X123166337Y-81803966D01*
X123177822Y-81800234D01*
X123197047Y-81795618D01*
X123208981Y-81793728D01*
X123208982Y-81793728D01*
X123218773Y-81792177D01*
X123227606Y-81787676D01*
X123227610Y-81787675D01*
X123238375Y-81782190D01*
X123256635Y-81774626D01*
X123277559Y-81767827D01*
X123295362Y-81754892D01*
X123312214Y-81744566D01*
X123322971Y-81739085D01*
X123331811Y-81734581D01*
X123354374Y-81712018D01*
X123354378Y-81712015D01*
X124271488Y-80794905D01*
X124333800Y-80760879D01*
X124360583Y-80758000D01*
X124810959Y-80758000D01*
X124880960Y-80779234D01*
X124902260Y-80793466D01*
X124975326Y-80808000D01*
X126224674Y-80808000D01*
X126297740Y-80793466D01*
X126380601Y-80738101D01*
X126435966Y-80655240D01*
X126450500Y-80582174D01*
X126450500Y-80132826D01*
X126436925Y-80064581D01*
X126436925Y-80015418D01*
X126438850Y-80005741D01*
X126450500Y-79947174D01*
X126450500Y-79882265D01*
X126470502Y-79814144D01*
X126524158Y-79767651D01*
X126594432Y-79757547D01*
X126657975Y-79786567D01*
G37*
%TD.AperFunction*%
%TA.AperFunction,Conductor*%
G36*
X121459012Y-76674337D02*
G01*
X121465595Y-76680466D01*
X123840613Y-79055484D01*
X123840617Y-79055487D01*
X123863180Y-79078050D01*
X123872020Y-79082554D01*
X123882777Y-79088035D01*
X123899629Y-79098361D01*
X123917432Y-79111296D01*
X123918405Y-79111612D01*
X123966429Y-79156967D01*
X123983495Y-79225882D01*
X123960595Y-79293084D01*
X123906298Y-79336204D01*
X123902196Y-79336854D01*
X123893359Y-79341357D01*
X123893358Y-79341357D01*
X123882597Y-79346840D01*
X123864336Y-79354404D01*
X123843411Y-79361203D01*
X123835387Y-79367033D01*
X123825613Y-79374134D01*
X123808757Y-79384463D01*
X123797993Y-79389948D01*
X123797992Y-79389949D01*
X123789158Y-79394450D01*
X123766595Y-79417013D01*
X123766591Y-79417016D01*
X122714001Y-80469606D01*
X122651689Y-80503632D01*
X122624906Y-80506511D01*
X121376500Y-80506511D01*
X121308379Y-80486509D01*
X121261886Y-80432853D01*
X121250500Y-80380511D01*
X121250500Y-80132826D01*
X121236925Y-80064581D01*
X121236925Y-80015418D01*
X121238850Y-80005741D01*
X121250500Y-79947174D01*
X121250500Y-79497826D01*
X121236925Y-79429581D01*
X121236925Y-79380418D01*
X121238175Y-79374134D01*
X121250500Y-79312174D01*
X121250500Y-78862826D01*
X121236925Y-78794581D01*
X121236925Y-78745418D01*
X121237653Y-78741759D01*
X121250500Y-78677174D01*
X121250500Y-78227826D01*
X121235966Y-78154760D01*
X121228900Y-78144184D01*
X121187493Y-78082214D01*
X121180601Y-78071899D01*
X121097740Y-78016534D01*
X121024674Y-78002000D01*
X119775326Y-78002000D01*
X119702260Y-78016534D01*
X119619399Y-78071899D01*
X119583447Y-78125707D01*
X119580546Y-78130048D01*
X119526069Y-78175576D01*
X119455626Y-78184425D01*
X119391582Y-78153784D01*
X119364045Y-78117943D01*
X119361296Y-78109482D01*
X119348361Y-78091679D01*
X119338035Y-78074827D01*
X119335937Y-78070710D01*
X119328050Y-78055230D01*
X119305487Y-78032667D01*
X119305484Y-78032663D01*
X118888186Y-77615365D01*
X118854160Y-77553053D01*
X118859225Y-77482238D01*
X118901772Y-77425402D01*
X118968292Y-77400591D01*
X118979255Y-77400286D01*
X119010394Y-77400775D01*
X119060898Y-77401569D01*
X119060901Y-77401569D01*
X119068495Y-77401688D01*
X119221968Y-77366538D01*
X119362625Y-77295795D01*
X119363512Y-77297559D01*
X119421581Y-77279544D01*
X119489998Y-77298506D01*
X119537303Y-77351447D01*
X119547125Y-77394998D01*
X119548893Y-77394824D01*
X119549500Y-77400987D01*
X119549500Y-77407174D01*
X119564034Y-77480240D01*
X119619399Y-77563101D01*
X119702260Y-77618466D01*
X119775326Y-77633000D01*
X121024674Y-77633000D01*
X121097740Y-77618466D01*
X121180601Y-77563101D01*
X121235966Y-77480240D01*
X121250500Y-77407174D01*
X121250500Y-76957826D01*
X121236925Y-76889581D01*
X121236925Y-76840418D01*
X121249293Y-76778241D01*
X121250500Y-76772174D01*
X121250500Y-76765987D01*
X121251107Y-76759824D01*
X121253296Y-76760040D01*
X121270502Y-76701440D01*
X121324158Y-76654947D01*
X121394432Y-76644843D01*
X121459012Y-76674337D01*
G37*
%TD.AperFunction*%
%TA.AperFunction,Conductor*%
G36*
X132032670Y-93224233D02*
G01*
X132036633Y-93226252D01*
X132049353Y-93232733D01*
X132100968Y-93281482D01*
X132118034Y-93350397D01*
X132095133Y-93417598D01*
X132049353Y-93457267D01*
X131961658Y-93501950D01*
X131871950Y-93591658D01*
X131814354Y-93704696D01*
X131812804Y-93714485D01*
X131812803Y-93714487D01*
X131809061Y-93738114D01*
X131799500Y-93798481D01*
X131799501Y-94161518D01*
X131800276Y-94166409D01*
X131800276Y-94166412D01*
X131807465Y-94211802D01*
X131814354Y-94255304D01*
X131818855Y-94264137D01*
X131818857Y-94264142D01*
X131827577Y-94281255D01*
X131871950Y-94368342D01*
X131961658Y-94458050D01*
X132074696Y-94515646D01*
X132084485Y-94517196D01*
X132084487Y-94517197D01*
X132111849Y-94521530D01*
X132168481Y-94530500D01*
X133024827Y-94530500D01*
X133881518Y-94530499D01*
X133975304Y-94515646D01*
X133984140Y-94511144D01*
X133993570Y-94508080D01*
X133994304Y-94510338D01*
X134035279Y-94500500D01*
X134873500Y-94500500D01*
X134941621Y-94520502D01*
X134988114Y-94574158D01*
X134999500Y-94626500D01*
X134999500Y-96490496D01*
X134979498Y-96558617D01*
X134962595Y-96579591D01*
X134289591Y-97252595D01*
X134227279Y-97286621D01*
X134200496Y-97289500D01*
X134074532Y-97289500D01*
X134017329Y-97275767D01*
X134000647Y-97267267D01*
X133949032Y-97218518D01*
X133931966Y-97149603D01*
X133954867Y-97082402D01*
X134000647Y-97042733D01*
X134011418Y-97037245D01*
X134088342Y-96998050D01*
X134178050Y-96908342D01*
X134235646Y-96795304D01*
X134237417Y-96784127D01*
X134241530Y-96758151D01*
X134250500Y-96701519D01*
X134250499Y-96338482D01*
X134244716Y-96301966D01*
X134237198Y-96254494D01*
X134237197Y-96254492D01*
X134235646Y-96244696D01*
X134178050Y-96131658D01*
X134088342Y-96041950D01*
X133975304Y-95984354D01*
X133965515Y-95982804D01*
X133965513Y-95982803D01*
X133938151Y-95978470D01*
X133881519Y-95969500D01*
X133025173Y-95969500D01*
X132168482Y-95969501D01*
X132163589Y-95970276D01*
X132163588Y-95970276D01*
X132084494Y-95982802D01*
X132084492Y-95982803D01*
X132074696Y-95984354D01*
X132065859Y-95988857D01*
X132065858Y-95988857D01*
X132032671Y-96005767D01*
X131975468Y-96019500D01*
X131776500Y-96019500D01*
X131708379Y-95999498D01*
X131661886Y-95945842D01*
X131650500Y-95893500D01*
X131650500Y-95671166D01*
X131647519Y-95639631D01*
X131602634Y-95511816D01*
X131597042Y-95504246D01*
X131597041Y-95504243D01*
X131527742Y-95410421D01*
X131522150Y-95402850D01*
X131505206Y-95390335D01*
X131420757Y-95327959D01*
X131420754Y-95327958D01*
X131413184Y-95322366D01*
X131285369Y-95277481D01*
X131277723Y-95276758D01*
X131277722Y-95276758D01*
X131271752Y-95276194D01*
X131253834Y-95274500D01*
X130746166Y-95274500D01*
X130728248Y-95276194D01*
X130722278Y-95276758D01*
X130722277Y-95276758D01*
X130714631Y-95277481D01*
X130586816Y-95322366D01*
X130579246Y-95327958D01*
X130579243Y-95327959D01*
X130494794Y-95390335D01*
X130477850Y-95402850D01*
X130472258Y-95410421D01*
X130402959Y-95504243D01*
X130402958Y-95504246D01*
X130397366Y-95511816D01*
X130352481Y-95639631D01*
X130349500Y-95671166D01*
X130349500Y-96328834D01*
X130352481Y-96360369D01*
X130397366Y-96488184D01*
X130402957Y-96495754D01*
X130402961Y-96495761D01*
X130474851Y-96593091D01*
X130499234Y-96659769D01*
X130499500Y-96667950D01*
X130499500Y-96767885D01*
X130479498Y-96836006D01*
X130448361Y-96869235D01*
X130402850Y-96902850D01*
X130397255Y-96910425D01*
X130397254Y-96910426D01*
X130327959Y-97004243D01*
X130327958Y-97004246D01*
X130322366Y-97011816D01*
X130277481Y-97139631D01*
X130274500Y-97171166D01*
X130274500Y-97678834D01*
X130277481Y-97710369D01*
X130322366Y-97838184D01*
X130327958Y-97845754D01*
X130327959Y-97845757D01*
X130379047Y-97914923D01*
X130402850Y-97947150D01*
X130410421Y-97952742D01*
X130504243Y-98022041D01*
X130504246Y-98022042D01*
X130511816Y-98027634D01*
X130639631Y-98072519D01*
X130647277Y-98073242D01*
X130647278Y-98073242D01*
X130653248Y-98073806D01*
X130671166Y-98075500D01*
X131328834Y-98075500D01*
X131346752Y-98073806D01*
X131352722Y-98073242D01*
X131352723Y-98073242D01*
X131360369Y-98072519D01*
X131488184Y-98027634D01*
X131495754Y-98022042D01*
X131495757Y-98022041D01*
X131589579Y-97952742D01*
X131597150Y-97947150D01*
X131597477Y-97946708D01*
X131655684Y-97914923D01*
X131726499Y-97919988D01*
X131783335Y-97962535D01*
X131806915Y-98018335D01*
X131808882Y-98030753D01*
X131812052Y-98050766D01*
X131814354Y-98065304D01*
X131871950Y-98178342D01*
X131961658Y-98268050D01*
X132007324Y-98291318D01*
X132049353Y-98312733D01*
X132100968Y-98361481D01*
X132118034Y-98430396D01*
X132095133Y-98497598D01*
X132049353Y-98537267D01*
X132032671Y-98545767D01*
X131975468Y-98559500D01*
X131647641Y-98559500D01*
X131579520Y-98539498D01*
X131572781Y-98534851D01*
X131558570Y-98524354D01*
X131543659Y-98513340D01*
X131495757Y-98477959D01*
X131495754Y-98477958D01*
X131488184Y-98472366D01*
X131360369Y-98427481D01*
X131352723Y-98426758D01*
X131352722Y-98426758D01*
X131346752Y-98426194D01*
X131328834Y-98424500D01*
X130671166Y-98424500D01*
X130653248Y-98426194D01*
X130647278Y-98426758D01*
X130647277Y-98426758D01*
X130639631Y-98427481D01*
X130632384Y-98430026D01*
X130526188Y-98467319D01*
X130455288Y-98471017D01*
X130395345Y-98437531D01*
X129403534Y-97445720D01*
X129396068Y-97436376D01*
X129395678Y-97436708D01*
X129389860Y-97429872D01*
X129385070Y-97422280D01*
X129371722Y-97410491D01*
X129345400Y-97387245D01*
X129339712Y-97381898D01*
X129328494Y-97370680D01*
X129323636Y-97367039D01*
X129320316Y-97364550D01*
X129312477Y-97358168D01*
X129284339Y-97333318D01*
X129277612Y-97327377D01*
X129269489Y-97323563D01*
X129266336Y-97321492D01*
X129253324Y-97313673D01*
X129250005Y-97311856D01*
X129242824Y-97306474D01*
X129199261Y-97290143D01*
X129189947Y-97286217D01*
X129155966Y-97270263D01*
X129155963Y-97270262D01*
X129147837Y-97266447D01*
X129138963Y-97265065D01*
X129135350Y-97263961D01*
X129120693Y-97260115D01*
X129116990Y-97259301D01*
X129108580Y-97256148D01*
X129062157Y-97252698D01*
X129052144Y-97251548D01*
X129038991Y-97249500D01*
X129023796Y-97249500D01*
X129014459Y-97249154D01*
X128999036Y-97248008D01*
X128965608Y-97245524D01*
X128956832Y-97247397D01*
X128947875Y-97248008D01*
X128947875Y-97248002D01*
X128933682Y-97249500D01*
X127509504Y-97249500D01*
X127441383Y-97229498D01*
X127420409Y-97212595D01*
X127303534Y-97095720D01*
X127296068Y-97086376D01*
X127295678Y-97086708D01*
X127289860Y-97079872D01*
X127285070Y-97072280D01*
X127266236Y-97055646D01*
X127245400Y-97037245D01*
X127239712Y-97031898D01*
X127228494Y-97020680D01*
X127224905Y-97017990D01*
X127220316Y-97014550D01*
X127212477Y-97008168D01*
X127184339Y-96983318D01*
X127177612Y-96977377D01*
X127169489Y-96973563D01*
X127166336Y-96971492D01*
X127153324Y-96963673D01*
X127150005Y-96961856D01*
X127142824Y-96956474D01*
X127099261Y-96940143D01*
X127089947Y-96936217D01*
X127055966Y-96920263D01*
X127055963Y-96920262D01*
X127047837Y-96916447D01*
X127038963Y-96915065D01*
X127035350Y-96913961D01*
X127020693Y-96910115D01*
X127016990Y-96909301D01*
X127008580Y-96906148D01*
X126962157Y-96902698D01*
X126952144Y-96901548D01*
X126938991Y-96899500D01*
X126923796Y-96899500D01*
X126914459Y-96899154D01*
X126899036Y-96898008D01*
X126865608Y-96895524D01*
X126856832Y-96897397D01*
X126847875Y-96898008D01*
X126847875Y-96898002D01*
X126833682Y-96899500D01*
X126298662Y-96899500D01*
X126230541Y-96879498D01*
X126188424Y-96832328D01*
X126187925Y-96832634D01*
X126186235Y-96829877D01*
X126185656Y-96829228D01*
X126184907Y-96827709D01*
X126184904Y-96827705D01*
X126182351Y-96822527D01*
X126061335Y-96660467D01*
X126037591Y-96638518D01*
X125917053Y-96527094D01*
X125917051Y-96527092D01*
X125912812Y-96523174D01*
X125885374Y-96505862D01*
X125746637Y-96418325D01*
X125741757Y-96415246D01*
X125553898Y-96340298D01*
X125355526Y-96300839D01*
X125349752Y-96300763D01*
X125349748Y-96300763D01*
X125247257Y-96299422D01*
X125153286Y-96298192D01*
X125147589Y-96299171D01*
X125147588Y-96299171D01*
X124959646Y-96331465D01*
X124959645Y-96331465D01*
X124953949Y-96332444D01*
X124764193Y-96402449D01*
X124759232Y-96405401D01*
X124759231Y-96405401D01*
X124599384Y-96500500D01*
X124590371Y-96505862D01*
X124438305Y-96639220D01*
X124313089Y-96798057D01*
X124218914Y-96977053D01*
X124158937Y-97170213D01*
X124135164Y-97371069D01*
X124148392Y-97572894D01*
X124149815Y-97578496D01*
X124196290Y-97761493D01*
X124198178Y-97768928D01*
X124282856Y-97952607D01*
X124299680Y-97976412D01*
X124392753Y-98108108D01*
X124399588Y-98117780D01*
X124544466Y-98258913D01*
X124549270Y-98262123D01*
X124603133Y-98298113D01*
X124712637Y-98371282D01*
X124717943Y-98373562D01*
X124723023Y-98376320D01*
X124721914Y-98378362D01*
X124768831Y-98417213D01*
X124790351Y-98484870D01*
X124771878Y-98553421D01*
X124739242Y-98589039D01*
X124660429Y-98647251D01*
X124660425Y-98647255D01*
X124652850Y-98652850D01*
X124625940Y-98689284D01*
X124619236Y-98698360D01*
X124562674Y-98741271D01*
X124517885Y-98749500D01*
X124417950Y-98749500D01*
X124349829Y-98729498D01*
X124343091Y-98724851D01*
X124245761Y-98652961D01*
X124245754Y-98652957D01*
X124238184Y-98647366D01*
X124229303Y-98644247D01*
X124220973Y-98639837D01*
X124222347Y-98637241D01*
X124177111Y-98604723D01*
X124151018Y-98538695D01*
X124150500Y-98527278D01*
X124150500Y-98436567D01*
X124147436Y-98427136D01*
X124147435Y-98427132D01*
X124143703Y-98415647D01*
X124139087Y-98396422D01*
X124137197Y-98384488D01*
X124137197Y-98384487D01*
X124135646Y-98374696D01*
X124131145Y-98365863D01*
X124131144Y-98365859D01*
X124125658Y-98355092D01*
X124118092Y-98336828D01*
X124114648Y-98326226D01*
X124111296Y-98315911D01*
X124098365Y-98298113D01*
X124088037Y-98281258D01*
X124082555Y-98270499D01*
X124082554Y-98270497D01*
X124078050Y-98261658D01*
X124055487Y-98239095D01*
X124055484Y-98239091D01*
X123300909Y-97484516D01*
X123300905Y-97484513D01*
X123278342Y-97461950D01*
X123258746Y-97451965D01*
X123241893Y-97441639D01*
X123224090Y-97428704D01*
X123203166Y-97421905D01*
X123184906Y-97414341D01*
X123174141Y-97408856D01*
X123174137Y-97408855D01*
X123165304Y-97404354D01*
X123155513Y-97402803D01*
X123155512Y-97402803D01*
X123143578Y-97400913D01*
X123124353Y-97396297D01*
X123112868Y-97392565D01*
X123112864Y-97392564D01*
X123103433Y-97389500D01*
X122918082Y-97389500D01*
X122849961Y-97369498D01*
X122828987Y-97352595D01*
X122788342Y-97311950D01*
X122700647Y-97267267D01*
X122649032Y-97218519D01*
X122631966Y-97149604D01*
X122654867Y-97082402D01*
X122700647Y-97042733D01*
X122711418Y-97037245D01*
X122788342Y-96998050D01*
X122878050Y-96908342D01*
X122935646Y-96795304D01*
X122937417Y-96784127D01*
X122941530Y-96758151D01*
X122950500Y-96701519D01*
X122950499Y-96338482D01*
X122944716Y-96301966D01*
X122937198Y-96254494D01*
X122937197Y-96254492D01*
X122935646Y-96244696D01*
X122878050Y-96131658D01*
X122788342Y-96041950D01*
X122700647Y-95997267D01*
X122649032Y-95948519D01*
X122631966Y-95879604D01*
X122654867Y-95812402D01*
X122700647Y-95772733D01*
X122723861Y-95760905D01*
X122788342Y-95728050D01*
X122878050Y-95638342D01*
X122933826Y-95528876D01*
X122982575Y-95477261D01*
X123051489Y-95460195D01*
X123118691Y-95483096D01*
X123158134Y-95534579D01*
X123160083Y-95533586D01*
X123163532Y-95540355D01*
X123166143Y-95547490D01*
X123170380Y-95553796D01*
X123170382Y-95553799D01*
X123196413Y-95592537D01*
X123253958Y-95678172D01*
X123298544Y-95718742D01*
X123360181Y-95774827D01*
X123370410Y-95784135D01*
X123422471Y-95812402D01*
X123502099Y-95855637D01*
X123502101Y-95855638D01*
X123508776Y-95859262D01*
X123516125Y-95861190D01*
X123653719Y-95897287D01*
X123653721Y-95897287D01*
X123661069Y-95899215D01*
X123744380Y-95900524D01*
X123810898Y-95901569D01*
X123810901Y-95901569D01*
X123818495Y-95901688D01*
X123971968Y-95866538D01*
X124112625Y-95795795D01*
X124179894Y-95738342D01*
X124226574Y-95698474D01*
X124226576Y-95698471D01*
X124232348Y-95693542D01*
X124324224Y-95565683D01*
X124336728Y-95534579D01*
X124382711Y-95420193D01*
X124426678Y-95364449D01*
X124493803Y-95341324D01*
X124556821Y-95354923D01*
X124557887Y-95355466D01*
X124565911Y-95361296D01*
X124586832Y-95368094D01*
X124605092Y-95375658D01*
X124615859Y-95381144D01*
X124615863Y-95381145D01*
X124624696Y-95385646D01*
X124634487Y-95387197D01*
X124634488Y-95387197D01*
X124646422Y-95389087D01*
X124665647Y-95393703D01*
X124677132Y-95397435D01*
X124677136Y-95397436D01*
X124686567Y-95400500D01*
X128131917Y-95400500D01*
X128200038Y-95420502D01*
X128221012Y-95437405D01*
X128662595Y-95878988D01*
X128696621Y-95941300D01*
X128699500Y-95968083D01*
X128699500Y-96328834D01*
X128702481Y-96360369D01*
X128747366Y-96488184D01*
X128752958Y-96495754D01*
X128752959Y-96495757D01*
X128776109Y-96527099D01*
X128827850Y-96597150D01*
X128835421Y-96602742D01*
X128929243Y-96672041D01*
X128929246Y-96672042D01*
X128936816Y-96677634D01*
X129064631Y-96722519D01*
X129072277Y-96723242D01*
X129072278Y-96723242D01*
X129078248Y-96723806D01*
X129096166Y-96725500D01*
X129603834Y-96725500D01*
X129621752Y-96723806D01*
X129627722Y-96723242D01*
X129627723Y-96723242D01*
X129635369Y-96722519D01*
X129763184Y-96677634D01*
X129770754Y-96672042D01*
X129770757Y-96672041D01*
X129864579Y-96602742D01*
X129872150Y-96597150D01*
X129923891Y-96527099D01*
X129947041Y-96495757D01*
X129947042Y-96495754D01*
X129952634Y-96488184D01*
X129997519Y-96360369D01*
X130000500Y-96328834D01*
X130000500Y-95671166D01*
X129997519Y-95639631D01*
X129952634Y-95511816D01*
X129947042Y-95504246D01*
X129947041Y-95504243D01*
X129877742Y-95410421D01*
X129872150Y-95402850D01*
X129855206Y-95390335D01*
X129770757Y-95327959D01*
X129770754Y-95327958D01*
X129763184Y-95322366D01*
X129635369Y-95277481D01*
X129627723Y-95276758D01*
X129627722Y-95276758D01*
X129621752Y-95276194D01*
X129603834Y-95274500D01*
X129243083Y-95274500D01*
X129174962Y-95254498D01*
X129153988Y-95237595D01*
X128610909Y-94694516D01*
X128610905Y-94694513D01*
X128588342Y-94671950D01*
X128568746Y-94661965D01*
X128551893Y-94651639D01*
X128534090Y-94638704D01*
X128513166Y-94631905D01*
X128494906Y-94624341D01*
X128484141Y-94618856D01*
X128484137Y-94618855D01*
X128475304Y-94614354D01*
X128465513Y-94612803D01*
X128465512Y-94612803D01*
X128453578Y-94610913D01*
X128434353Y-94606297D01*
X128422868Y-94602565D01*
X128422864Y-94602564D01*
X128413433Y-94599500D01*
X128152167Y-94599500D01*
X128084046Y-94579498D01*
X128037553Y-94525842D01*
X128027449Y-94455568D01*
X128056943Y-94390988D01*
X128116669Y-94352604D01*
X128127585Y-94349921D01*
X128185569Y-94338387D01*
X128197740Y-94335966D01*
X128209115Y-94328366D01*
X128270286Y-94287493D01*
X128280601Y-94280601D01*
X128287493Y-94270286D01*
X128287497Y-94270282D01*
X128330115Y-94206499D01*
X128384591Y-94160971D01*
X128434880Y-94150500D01*
X128604819Y-94150500D01*
X128616704Y-94151828D01*
X128616745Y-94151318D01*
X128625691Y-94152038D01*
X128634447Y-94154019D01*
X128687263Y-94150742D01*
X128695067Y-94150500D01*
X128710940Y-94150500D01*
X128721052Y-94149052D01*
X128731106Y-94148022D01*
X128759097Y-94146285D01*
X128777538Y-94145141D01*
X128785982Y-94142093D01*
X128789694Y-94141324D01*
X128804399Y-94137657D01*
X128808027Y-94136596D01*
X128816918Y-94135323D01*
X128859282Y-94116061D01*
X128868637Y-94112254D01*
X128903943Y-94099509D01*
X128903947Y-94099507D01*
X128912387Y-94096460D01*
X128919635Y-94091165D01*
X128922975Y-94089389D01*
X128936089Y-94081726D01*
X128939261Y-94079697D01*
X128947428Y-94075984D01*
X128954223Y-94070129D01*
X128954226Y-94070127D01*
X128982675Y-94045613D01*
X128990596Y-94039324D01*
X128997402Y-94034352D01*
X129001336Y-94031478D01*
X129012079Y-94020735D01*
X129018926Y-94014377D01*
X129035031Y-94000500D01*
X129056037Y-93982400D01*
X129060920Y-93974866D01*
X129066819Y-93968104D01*
X129066824Y-93968108D01*
X129075800Y-93957014D01*
X129520409Y-93512405D01*
X129582721Y-93478379D01*
X129609504Y-93475500D01*
X129828834Y-93475500D01*
X129846752Y-93473806D01*
X129852722Y-93473242D01*
X129852723Y-93473242D01*
X129860369Y-93472519D01*
X129988184Y-93427634D01*
X129995754Y-93422042D01*
X129995757Y-93422041D01*
X130089579Y-93352742D01*
X130097150Y-93347150D01*
X130118325Y-93318482D01*
X130154753Y-93269163D01*
X130211315Y-93226252D01*
X130282096Y-93220733D01*
X130344626Y-93254358D01*
X130356929Y-93268456D01*
X130410313Y-93339687D01*
X130519305Y-93421372D01*
X130646843Y-93469184D01*
X130654696Y-93470037D01*
X130654700Y-93470038D01*
X130701586Y-93475131D01*
X130701590Y-93475131D01*
X130704985Y-93475500D01*
X130999956Y-93475500D01*
X131295014Y-93475499D01*
X131353157Y-93469184D01*
X131480695Y-93421372D01*
X131589687Y-93339687D01*
X131648709Y-93260934D01*
X131705567Y-93218420D01*
X131749534Y-93210500D01*
X131975468Y-93210500D01*
X132032670Y-93224233D01*
G37*
%TD.AperFunction*%
%TA.AperFunction,Conductor*%
G36*
X136609556Y-80333002D02*
G01*
X136656049Y-80386658D01*
X136666153Y-80456932D01*
X136636659Y-80521512D01*
X136611436Y-80543766D01*
X136552490Y-80583152D01*
X136539399Y-80591899D01*
X136484034Y-80674760D01*
X136469500Y-80747826D01*
X136469500Y-81077174D01*
X136484034Y-81150240D01*
X136539399Y-81233101D01*
X136622260Y-81288466D01*
X136687481Y-81301439D01*
X136750390Y-81334346D01*
X136785522Y-81396041D01*
X136781722Y-81466936D01*
X136751994Y-81514113D01*
X136291012Y-81975095D01*
X136228700Y-82009121D01*
X136201917Y-82012000D01*
X136042459Y-82012000D01*
X135974338Y-81991998D01*
X135931055Y-81940205D01*
X135930966Y-81939760D01*
X135902955Y-81897837D01*
X135892097Y-81881587D01*
X135875601Y-81856899D01*
X135792740Y-81801534D01*
X135719674Y-81787000D01*
X134820326Y-81787000D01*
X134747260Y-81801534D01*
X134664399Y-81856899D01*
X134609034Y-81939760D01*
X134594500Y-82012826D01*
X134594500Y-82728443D01*
X134574498Y-82796564D01*
X134520842Y-82843057D01*
X134450568Y-82853161D01*
X134442838Y-82851040D01*
X134442740Y-82851534D01*
X134369674Y-82837000D01*
X133470326Y-82837000D01*
X133464253Y-82838208D01*
X133458852Y-82838740D01*
X133389098Y-82825512D01*
X133337570Y-82776673D01*
X133320500Y-82713347D01*
X133320500Y-81429000D01*
X133340502Y-81360879D01*
X133394158Y-81314386D01*
X133446500Y-81303000D01*
X133864674Y-81303000D01*
X133937740Y-81288466D01*
X134020601Y-81233101D01*
X134075966Y-81150240D01*
X134090500Y-81077174D01*
X134090500Y-80747826D01*
X134078417Y-80687082D01*
X134078417Y-80637918D01*
X134087571Y-80591899D01*
X134090500Y-80577174D01*
X134090500Y-80439000D01*
X134110502Y-80370879D01*
X134164158Y-80324386D01*
X134216500Y-80313000D01*
X136541435Y-80313000D01*
X136609556Y-80333002D01*
G37*
%TD.AperFunction*%
%TD*%
M02*
