%TF.GenerationSoftware,KiCad,Pcbnew,(6.0.1)*%
%TF.CreationDate,2022-08-02T08:39:06+02:00*%
%TF.ProjectId,DetectorReader,44657465-6374-46f7-9252-65616465722e,rev?*%
%TF.SameCoordinates,Original*%
%TF.FileFunction,Legend,Top*%
%TF.FilePolarity,Positive*%
%FSLAX46Y46*%
G04 Gerber Fmt 4.6, Leading zero omitted, Abs format (unit mm)*
G04 Created by KiCad (PCBNEW (6.0.1)) date 2022-08-02 08:39:06*
%MOMM*%
%LPD*%
G01*
G04 APERTURE LIST*
G04 Aperture macros list*
%AMRoundRect*
0 Rectangle with rounded corners*
0 $1 Rounding radius*
0 $2 $3 $4 $5 $6 $7 $8 $9 X,Y pos of 4 corners*
0 Add a 4 corners polygon primitive as box body*
4,1,4,$2,$3,$4,$5,$6,$7,$8,$9,$2,$3,0*
0 Add four circle primitives for the rounded corners*
1,1,$1+$1,$2,$3*
1,1,$1+$1,$4,$5*
1,1,$1+$1,$6,$7*
1,1,$1+$1,$8,$9*
0 Add four rect primitives between the rounded corners*
20,1,$1+$1,$2,$3,$4,$5,0*
20,1,$1+$1,$4,$5,$6,$7,0*
20,1,$1+$1,$6,$7,$8,$9,0*
20,1,$1+$1,$8,$9,$2,$3,0*%
G04 Aperture macros list end*
%ADD10C,0.200000*%
%ADD11C,0.150000*%
%ADD12C,0.120000*%
%ADD13C,2.562214*%
%ADD14R,0.300000X0.500000*%
%ADD15RoundRect,0.062500X-0.350000X-0.062500X0.350000X-0.062500X0.350000X0.062500X-0.350000X0.062500X0*%
%ADD16RoundRect,0.062500X-0.062500X-0.350000X0.062500X-0.350000X0.062500X0.350000X-0.062500X0.350000X0*%
%ADD17R,1.700000X1.700000*%
%ADD18RoundRect,0.200000X-0.200000X-0.275000X0.200000X-0.275000X0.200000X0.275000X-0.200000X0.275000X0*%
%ADD19RoundRect,0.218750X-0.256250X0.218750X-0.256250X-0.218750X0.256250X-0.218750X0.256250X0.218750X0*%
%ADD20RoundRect,0.225000X0.225000X0.250000X-0.225000X0.250000X-0.225000X-0.250000X0.225000X-0.250000X0*%
%ADD21RoundRect,0.225000X0.250000X-0.225000X0.250000X0.225000X-0.250000X0.225000X-0.250000X-0.225000X0*%
%ADD22RoundRect,0.225000X-0.225000X-0.250000X0.225000X-0.250000X0.225000X0.250000X-0.225000X0.250000X0*%
%ADD23RoundRect,0.225000X-0.250000X0.225000X-0.250000X-0.225000X0.250000X-0.225000X0.250000X0.225000X0*%
%ADD24R,0.300000X1.000000*%
%ADD25RoundRect,0.200000X0.275000X-0.200000X0.275000X0.200000X-0.275000X0.200000X-0.275000X-0.200000X0*%
%ADD26C,1.700000*%
%ADD27RoundRect,0.100000X0.712500X0.100000X-0.712500X0.100000X-0.712500X-0.100000X0.712500X-0.100000X0*%
%ADD28RoundRect,0.218750X-0.218750X-0.256250X0.218750X-0.256250X0.218750X0.256250X-0.218750X0.256250X0*%
%ADD29RoundRect,0.218750X0.256250X-0.218750X0.256250X0.218750X-0.256250X0.218750X-0.256250X-0.218750X0*%
%ADD30R,1.270000X3.600000*%
%ADD31R,1.350000X4.200000*%
%ADD32RoundRect,0.150000X-0.825000X-0.150000X0.825000X-0.150000X0.825000X0.150000X-0.825000X0.150000X0*%
%ADD33R,1.200000X0.900000*%
%ADD34RoundRect,0.200000X0.200000X0.275000X-0.200000X0.275000X-0.200000X-0.275000X0.200000X-0.275000X0*%
%ADD35RoundRect,0.200000X-0.275000X0.200000X-0.275000X-0.200000X0.275000X-0.200000X0.275000X0.200000X0*%
%ADD36RoundRect,0.150000X0.825000X0.150000X-0.825000X0.150000X-0.825000X-0.150000X0.825000X-0.150000X0*%
%ADD37RoundRect,0.150000X0.150000X-0.512500X0.150000X0.512500X-0.150000X0.512500X-0.150000X-0.512500X0*%
%ADD38O,1.700000X1.700000*%
%ADD39RoundRect,0.150000X0.587500X0.150000X-0.587500X0.150000X-0.587500X-0.150000X0.587500X-0.150000X0*%
%ADD40R,3.600000X1.270000*%
%ADD41R,4.200000X1.350000*%
%ADD42R,1.400000X0.280000*%
%ADD43R,0.850000X0.750000*%
%ADD44R,1.350000X0.400000*%
%ADD45O,1.550000X0.890000*%
%ADD46R,1.550000X1.200000*%
%ADD47O,0.950000X1.250000*%
%ADD48R,1.550000X1.500000*%
%ADD49RoundRect,0.218750X-0.381250X0.218750X-0.381250X-0.218750X0.381250X-0.218750X0.381250X0.218750X0*%
%ADD50R,1.200000X0.400000*%
%ADD51C,0.800000*%
%ADD52C,0.700000*%
%ADD53C,5.000000*%
G04 APERTURE END LIST*
D10*
X144850000Y-77000000D02*
G75*
G03*
X144850000Y-77000000I-100000J0D01*
G01*
X115500000Y-75250000D02*
G75*
G03*
X115500000Y-75250000I-100000J0D01*
G01*
D11*
X115250000Y-94960000D02*
X115250000Y-93960000D01*
X115250000Y-94460000D02*
X114250000Y-94460000D01*
D10*
X119850000Y-73500000D02*
G75*
G03*
X119850000Y-73500000I-100000J0D01*
G01*
D11*
X114202380Y-90150476D02*
X114202380Y-89579047D01*
X115202380Y-89864761D02*
X114202380Y-89864761D01*
X115202380Y-89340952D02*
X114535714Y-88817142D01*
X114535714Y-89340952D02*
X115202380Y-88817142D01*
X114202380Y-98983809D02*
X115011904Y-98983809D01*
X115107142Y-98936190D01*
X115154761Y-98888571D01*
X115202380Y-98793333D01*
X115202380Y-98602857D01*
X115154761Y-98507619D01*
X115107142Y-98460000D01*
X115011904Y-98412380D01*
X114202380Y-98412380D01*
X115202380Y-97936190D02*
X114202380Y-97936190D01*
X114202380Y-97555238D01*
X114250000Y-97460000D01*
X114297619Y-97412380D01*
X114392857Y-97364761D01*
X114535714Y-97364761D01*
X114630952Y-97412380D01*
X114678571Y-97460000D01*
X114726190Y-97555238D01*
X114726190Y-97936190D01*
X115202380Y-96936190D02*
X114202380Y-96936190D01*
X114202380Y-96698095D01*
X114250000Y-96555238D01*
X114345238Y-96460000D01*
X114440476Y-96412380D01*
X114630952Y-96364761D01*
X114773809Y-96364761D01*
X114964285Y-96412380D01*
X115059523Y-96460000D01*
X115154761Y-96555238D01*
X115202380Y-96698095D01*
X115202380Y-96936190D01*
X115202380Y-95936190D02*
X114202380Y-95936190D01*
X121085595Y-85202380D02*
X121085595Y-84202380D01*
X121418928Y-84916666D01*
X121752261Y-84202380D01*
X121752261Y-85202380D01*
X122371309Y-85202380D02*
X122276071Y-85154761D01*
X122228452Y-85107142D01*
X122180833Y-85011904D01*
X122180833Y-84726190D01*
X122228452Y-84630952D01*
X122276071Y-84583333D01*
X122371309Y-84535714D01*
X122514166Y-84535714D01*
X122609404Y-84583333D01*
X122657023Y-84630952D01*
X122704642Y-84726190D01*
X122704642Y-85011904D01*
X122657023Y-85107142D01*
X122609404Y-85154761D01*
X122514166Y-85202380D01*
X122371309Y-85202380D01*
X123561785Y-85202380D02*
X123561785Y-84202380D01*
X123561785Y-85154761D02*
X123466547Y-85202380D01*
X123276071Y-85202380D01*
X123180833Y-85154761D01*
X123133214Y-85107142D01*
X123085595Y-85011904D01*
X123085595Y-84726190D01*
X123133214Y-84630952D01*
X123180833Y-84583333D01*
X123276071Y-84535714D01*
X123466547Y-84535714D01*
X123561785Y-84583333D01*
X114202380Y-92150476D02*
X114202380Y-92626666D01*
X114678571Y-92674285D01*
X114630952Y-92626666D01*
X114583333Y-92531428D01*
X114583333Y-92293333D01*
X114630952Y-92198095D01*
X114678571Y-92150476D01*
X114773809Y-92102857D01*
X115011904Y-92102857D01*
X115107142Y-92150476D01*
X115154761Y-92198095D01*
X115202380Y-92293333D01*
X115202380Y-92531428D01*
X115154761Y-92626666D01*
X115107142Y-92674285D01*
X114202380Y-91817142D02*
X115202380Y-91483809D01*
X114202380Y-91150476D01*
X115202380Y-87055238D02*
X114726190Y-87388571D01*
X115202380Y-87626666D02*
X114202380Y-87626666D01*
X114202380Y-87245714D01*
X114250000Y-87150476D01*
X114297619Y-87102857D01*
X114392857Y-87055238D01*
X114535714Y-87055238D01*
X114630952Y-87102857D01*
X114678571Y-87150476D01*
X114726190Y-87245714D01*
X114726190Y-87626666D01*
X115202380Y-86721904D02*
X114535714Y-86198095D01*
X114535714Y-86721904D02*
X115202380Y-86198095D01*
%TO.C,U3*%
X154152380Y-82261904D02*
X154961904Y-82261904D01*
X155057142Y-82214285D01*
X155104761Y-82166666D01*
X155152380Y-82071428D01*
X155152380Y-81880952D01*
X155104761Y-81785714D01*
X155057142Y-81738095D01*
X154961904Y-81690476D01*
X154152380Y-81690476D01*
X154152380Y-81309523D02*
X154152380Y-80690476D01*
X154533333Y-81023809D01*
X154533333Y-80880952D01*
X154580952Y-80785714D01*
X154628571Y-80738095D01*
X154723809Y-80690476D01*
X154961904Y-80690476D01*
X155057142Y-80738095D01*
X155104761Y-80785714D01*
X155152380Y-80880952D01*
X155152380Y-81166666D01*
X155104761Y-81261904D01*
X155057142Y-81309523D01*
%TO.C,U9*%
X144702380Y-76261904D02*
X145511904Y-76261904D01*
X145607142Y-76214285D01*
X145654761Y-76166666D01*
X145702380Y-76071428D01*
X145702380Y-75880952D01*
X145654761Y-75785714D01*
X145607142Y-75738095D01*
X145511904Y-75690476D01*
X144702380Y-75690476D01*
X145702380Y-75166666D02*
X145702380Y-74976190D01*
X145654761Y-74880952D01*
X145607142Y-74833333D01*
X145464285Y-74738095D01*
X145273809Y-74690476D01*
X144892857Y-74690476D01*
X144797619Y-74738095D01*
X144750000Y-74785714D01*
X144702380Y-74880952D01*
X144702380Y-75071428D01*
X144750000Y-75166666D01*
X144797619Y-75214285D01*
X144892857Y-75261904D01*
X145130952Y-75261904D01*
X145226190Y-75214285D01*
X145273809Y-75166666D01*
X145321428Y-75071428D01*
X145321428Y-74880952D01*
X145273809Y-74785714D01*
X145226190Y-74738095D01*
X145130952Y-74690476D01*
%TO.C,R14*%
X142357142Y-75452380D02*
X142023809Y-74976190D01*
X141785714Y-75452380D02*
X141785714Y-74452380D01*
X142166666Y-74452380D01*
X142261904Y-74500000D01*
X142309523Y-74547619D01*
X142357142Y-74642857D01*
X142357142Y-74785714D01*
X142309523Y-74880952D01*
X142261904Y-74928571D01*
X142166666Y-74976190D01*
X141785714Y-74976190D01*
X143309523Y-75452380D02*
X142738095Y-75452380D01*
X143023809Y-75452380D02*
X143023809Y-74452380D01*
X142928571Y-74595238D01*
X142833333Y-74690476D01*
X142738095Y-74738095D01*
X144166666Y-74785714D02*
X144166666Y-75452380D01*
X143928571Y-74404761D02*
X143690476Y-75119047D01*
X144309523Y-75119047D01*
%TO.C,L5*%
X151452380Y-80816666D02*
X151452380Y-81292857D01*
X150452380Y-81292857D01*
X150452380Y-80007142D02*
X150452380Y-80483333D01*
X150928571Y-80530952D01*
X150880952Y-80483333D01*
X150833333Y-80388095D01*
X150833333Y-80150000D01*
X150880952Y-80054761D01*
X150928571Y-80007142D01*
X151023809Y-79959523D01*
X151261904Y-79959523D01*
X151357142Y-80007142D01*
X151404761Y-80054761D01*
X151452380Y-80150000D01*
X151452380Y-80388095D01*
X151404761Y-80483333D01*
X151357142Y-80530952D01*
%TO.C,C22*%
X152857142Y-79357142D02*
X152809523Y-79404761D01*
X152666666Y-79452380D01*
X152571428Y-79452380D01*
X152428571Y-79404761D01*
X152333333Y-79309523D01*
X152285714Y-79214285D01*
X152238095Y-79023809D01*
X152238095Y-78880952D01*
X152285714Y-78690476D01*
X152333333Y-78595238D01*
X152428571Y-78500000D01*
X152571428Y-78452380D01*
X152666666Y-78452380D01*
X152809523Y-78500000D01*
X152857142Y-78547619D01*
X153238095Y-78547619D02*
X153285714Y-78500000D01*
X153380952Y-78452380D01*
X153619047Y-78452380D01*
X153714285Y-78500000D01*
X153761904Y-78547619D01*
X153809523Y-78642857D01*
X153809523Y-78738095D01*
X153761904Y-78880952D01*
X153190476Y-79452380D01*
X153809523Y-79452380D01*
X154190476Y-78547619D02*
X154238095Y-78500000D01*
X154333333Y-78452380D01*
X154571428Y-78452380D01*
X154666666Y-78500000D01*
X154714285Y-78547619D01*
X154761904Y-78642857D01*
X154761904Y-78738095D01*
X154714285Y-78880952D01*
X154142857Y-79452380D01*
X154761904Y-79452380D01*
%TO.C,C20*%
X143857142Y-82357142D02*
X143809523Y-82404761D01*
X143666666Y-82452380D01*
X143571428Y-82452380D01*
X143428571Y-82404761D01*
X143333333Y-82309523D01*
X143285714Y-82214285D01*
X143238095Y-82023809D01*
X143238095Y-81880952D01*
X143285714Y-81690476D01*
X143333333Y-81595238D01*
X143428571Y-81500000D01*
X143571428Y-81452380D01*
X143666666Y-81452380D01*
X143809523Y-81500000D01*
X143857142Y-81547619D01*
X144238095Y-81547619D02*
X144285714Y-81500000D01*
X144380952Y-81452380D01*
X144619047Y-81452380D01*
X144714285Y-81500000D01*
X144761904Y-81547619D01*
X144809523Y-81642857D01*
X144809523Y-81738095D01*
X144761904Y-81880952D01*
X144190476Y-82452380D01*
X144809523Y-82452380D01*
X145428571Y-81452380D02*
X145523809Y-81452380D01*
X145619047Y-81500000D01*
X145666666Y-81547619D01*
X145714285Y-81642857D01*
X145761904Y-81833333D01*
X145761904Y-82071428D01*
X145714285Y-82261904D01*
X145666666Y-82357142D01*
X145619047Y-82404761D01*
X145523809Y-82452380D01*
X145428571Y-82452380D01*
X145333333Y-82404761D01*
X145285714Y-82357142D01*
X145238095Y-82261904D01*
X145190476Y-82071428D01*
X145190476Y-81833333D01*
X145238095Y-81642857D01*
X145285714Y-81547619D01*
X145333333Y-81500000D01*
X145428571Y-81452380D01*
%TO.C,C9*%
X144833333Y-83857142D02*
X144785714Y-83904761D01*
X144642857Y-83952380D01*
X144547619Y-83952380D01*
X144404761Y-83904761D01*
X144309523Y-83809523D01*
X144261904Y-83714285D01*
X144214285Y-83523809D01*
X144214285Y-83380952D01*
X144261904Y-83190476D01*
X144309523Y-83095238D01*
X144404761Y-83000000D01*
X144547619Y-82952380D01*
X144642857Y-82952380D01*
X144785714Y-83000000D01*
X144833333Y-83047619D01*
X145309523Y-83952380D02*
X145500000Y-83952380D01*
X145595238Y-83904761D01*
X145642857Y-83857142D01*
X145738095Y-83714285D01*
X145785714Y-83523809D01*
X145785714Y-83142857D01*
X145738095Y-83047619D01*
X145690476Y-83000000D01*
X145595238Y-82952380D01*
X145404761Y-82952380D01*
X145309523Y-83000000D01*
X145261904Y-83047619D01*
X145214285Y-83142857D01*
X145214285Y-83380952D01*
X145261904Y-83476190D01*
X145309523Y-83523809D01*
X145404761Y-83571428D01*
X145595238Y-83571428D01*
X145690476Y-83523809D01*
X145738095Y-83476190D01*
X145785714Y-83380952D01*
%TO.C,C11*%
X152527142Y-86892857D02*
X152574761Y-86940476D01*
X152622380Y-87083333D01*
X152622380Y-87178571D01*
X152574761Y-87321428D01*
X152479523Y-87416666D01*
X152384285Y-87464285D01*
X152193809Y-87511904D01*
X152050952Y-87511904D01*
X151860476Y-87464285D01*
X151765238Y-87416666D01*
X151670000Y-87321428D01*
X151622380Y-87178571D01*
X151622380Y-87083333D01*
X151670000Y-86940476D01*
X151717619Y-86892857D01*
X152622380Y-85940476D02*
X152622380Y-86511904D01*
X152622380Y-86226190D02*
X151622380Y-86226190D01*
X151765238Y-86321428D01*
X151860476Y-86416666D01*
X151908095Y-86511904D01*
X152622380Y-84988095D02*
X152622380Y-85559523D01*
X152622380Y-85273809D02*
X151622380Y-85273809D01*
X151765238Y-85369047D01*
X151860476Y-85464285D01*
X151908095Y-85559523D01*
%TO.C,C8*%
X141150833Y-82357142D02*
X141103214Y-82404761D01*
X140960357Y-82452380D01*
X140865119Y-82452380D01*
X140722261Y-82404761D01*
X140627023Y-82309523D01*
X140579404Y-82214285D01*
X140531785Y-82023809D01*
X140531785Y-81880952D01*
X140579404Y-81690476D01*
X140627023Y-81595238D01*
X140722261Y-81500000D01*
X140865119Y-81452380D01*
X140960357Y-81452380D01*
X141103214Y-81500000D01*
X141150833Y-81547619D01*
X141722261Y-81880952D02*
X141627023Y-81833333D01*
X141579404Y-81785714D01*
X141531785Y-81690476D01*
X141531785Y-81642857D01*
X141579404Y-81547619D01*
X141627023Y-81500000D01*
X141722261Y-81452380D01*
X141912738Y-81452380D01*
X142007976Y-81500000D01*
X142055595Y-81547619D01*
X142103214Y-81642857D01*
X142103214Y-81690476D01*
X142055595Y-81785714D01*
X142007976Y-81833333D01*
X141912738Y-81880952D01*
X141722261Y-81880952D01*
X141627023Y-81928571D01*
X141579404Y-81976190D01*
X141531785Y-82071428D01*
X141531785Y-82261904D01*
X141579404Y-82357142D01*
X141627023Y-82404761D01*
X141722261Y-82452380D01*
X141912738Y-82452380D01*
X142007976Y-82404761D01*
X142055595Y-82357142D01*
X142103214Y-82261904D01*
X142103214Y-82071428D01*
X142055595Y-81976190D01*
X142007976Y-81928571D01*
X141912738Y-81880952D01*
%TO.C,C3*%
X128637142Y-77166666D02*
X128684761Y-77214285D01*
X128732380Y-77357142D01*
X128732380Y-77452380D01*
X128684761Y-77595238D01*
X128589523Y-77690476D01*
X128494285Y-77738095D01*
X128303809Y-77785714D01*
X128160952Y-77785714D01*
X127970476Y-77738095D01*
X127875238Y-77690476D01*
X127780000Y-77595238D01*
X127732380Y-77452380D01*
X127732380Y-77357142D01*
X127780000Y-77214285D01*
X127827619Y-77166666D01*
X127732380Y-76833333D02*
X127732380Y-76214285D01*
X128113333Y-76547619D01*
X128113333Y-76404761D01*
X128160952Y-76309523D01*
X128208571Y-76261904D01*
X128303809Y-76214285D01*
X128541904Y-76214285D01*
X128637142Y-76261904D01*
X128684761Y-76309523D01*
X128732380Y-76404761D01*
X128732380Y-76690476D01*
X128684761Y-76785714D01*
X128637142Y-76833333D01*
%TO.C,C15*%
X158107142Y-94857142D02*
X158059523Y-94904761D01*
X157916666Y-94952380D01*
X157821428Y-94952380D01*
X157678571Y-94904761D01*
X157583333Y-94809523D01*
X157535714Y-94714285D01*
X157488095Y-94523809D01*
X157488095Y-94380952D01*
X157535714Y-94190476D01*
X157583333Y-94095238D01*
X157678571Y-94000000D01*
X157821428Y-93952380D01*
X157916666Y-93952380D01*
X158059523Y-94000000D01*
X158107142Y-94047619D01*
X159059523Y-94952380D02*
X158488095Y-94952380D01*
X158773809Y-94952380D02*
X158773809Y-93952380D01*
X158678571Y-94095238D01*
X158583333Y-94190476D01*
X158488095Y-94238095D01*
X159964285Y-93952380D02*
X159488095Y-93952380D01*
X159440476Y-94428571D01*
X159488095Y-94380952D01*
X159583333Y-94333333D01*
X159821428Y-94333333D01*
X159916666Y-94380952D01*
X159964285Y-94428571D01*
X160011904Y-94523809D01*
X160011904Y-94761904D01*
X159964285Y-94857142D01*
X159916666Y-94904761D01*
X159821428Y-94952380D01*
X159583333Y-94952380D01*
X159488095Y-94904761D01*
X159440476Y-94857142D01*
%TO.C,U6*%
X154722380Y-93261904D02*
X155531904Y-93261904D01*
X155627142Y-93214285D01*
X155674761Y-93166666D01*
X155722380Y-93071428D01*
X155722380Y-92880952D01*
X155674761Y-92785714D01*
X155627142Y-92738095D01*
X155531904Y-92690476D01*
X154722380Y-92690476D01*
X154722380Y-91785714D02*
X154722380Y-91976190D01*
X154770000Y-92071428D01*
X154817619Y-92119047D01*
X154960476Y-92214285D01*
X155150952Y-92261904D01*
X155531904Y-92261904D01*
X155627142Y-92214285D01*
X155674761Y-92166666D01*
X155722380Y-92071428D01*
X155722380Y-91880952D01*
X155674761Y-91785714D01*
X155627142Y-91738095D01*
X155531904Y-91690476D01*
X155293809Y-91690476D01*
X155198571Y-91738095D01*
X155150952Y-91785714D01*
X155103333Y-91880952D01*
X155103333Y-92071428D01*
X155150952Y-92166666D01*
X155198571Y-92214285D01*
X155293809Y-92261904D01*
%TO.C,R8*%
X141702380Y-87666666D02*
X141226190Y-88000000D01*
X141702380Y-88238095D02*
X140702380Y-88238095D01*
X140702380Y-87857142D01*
X140750000Y-87761904D01*
X140797619Y-87714285D01*
X140892857Y-87666666D01*
X141035714Y-87666666D01*
X141130952Y-87714285D01*
X141178571Y-87761904D01*
X141226190Y-87857142D01*
X141226190Y-88238095D01*
X141130952Y-87095238D02*
X141083333Y-87190476D01*
X141035714Y-87238095D01*
X140940476Y-87285714D01*
X140892857Y-87285714D01*
X140797619Y-87238095D01*
X140750000Y-87190476D01*
X140702380Y-87095238D01*
X140702380Y-86904761D01*
X140750000Y-86809523D01*
X140797619Y-86761904D01*
X140892857Y-86714285D01*
X140940476Y-86714285D01*
X141035714Y-86761904D01*
X141083333Y-86809523D01*
X141130952Y-86904761D01*
X141130952Y-87095238D01*
X141178571Y-87190476D01*
X141226190Y-87238095D01*
X141321428Y-87285714D01*
X141511904Y-87285714D01*
X141607142Y-87238095D01*
X141654761Y-87190476D01*
X141702380Y-87095238D01*
X141702380Y-86904761D01*
X141654761Y-86809523D01*
X141607142Y-86761904D01*
X141511904Y-86714285D01*
X141321428Y-86714285D01*
X141226190Y-86761904D01*
X141178571Y-86809523D01*
X141130952Y-86904761D01*
%TO.C,C17*%
X140107142Y-87602857D02*
X140154761Y-87650476D01*
X140202380Y-87793333D01*
X140202380Y-87888571D01*
X140154761Y-88031428D01*
X140059523Y-88126666D01*
X139964285Y-88174285D01*
X139773809Y-88221904D01*
X139630952Y-88221904D01*
X139440476Y-88174285D01*
X139345238Y-88126666D01*
X139250000Y-88031428D01*
X139202380Y-87888571D01*
X139202380Y-87793333D01*
X139250000Y-87650476D01*
X139297619Y-87602857D01*
X140202380Y-86650476D02*
X140202380Y-87221904D01*
X140202380Y-86936190D02*
X139202380Y-86936190D01*
X139345238Y-87031428D01*
X139440476Y-87126666D01*
X139488095Y-87221904D01*
X139202380Y-86317142D02*
X139202380Y-85650476D01*
X140202380Y-86079047D01*
%TO.C,U7*%
X134638095Y-97912380D02*
X134638095Y-98721904D01*
X134685714Y-98817142D01*
X134733333Y-98864761D01*
X134828571Y-98912380D01*
X135019047Y-98912380D01*
X135114285Y-98864761D01*
X135161904Y-98817142D01*
X135209523Y-98721904D01*
X135209523Y-97912380D01*
X135590476Y-97912380D02*
X136257142Y-97912380D01*
X135828571Y-98912380D01*
%TO.C,D1*%
X116761904Y-83452380D02*
X116761904Y-82452380D01*
X117000000Y-82452380D01*
X117142857Y-82500000D01*
X117238095Y-82595238D01*
X117285714Y-82690476D01*
X117333333Y-82880952D01*
X117333333Y-83023809D01*
X117285714Y-83214285D01*
X117238095Y-83309523D01*
X117142857Y-83404761D01*
X117000000Y-83452380D01*
X116761904Y-83452380D01*
X118285714Y-83452380D02*
X117714285Y-83452380D01*
X118000000Y-83452380D02*
X118000000Y-82452380D01*
X117904761Y-82595238D01*
X117809523Y-82690476D01*
X117714285Y-82738095D01*
%TO.C,L2*%
X138519880Y-77666666D02*
X138519880Y-78142857D01*
X137519880Y-78142857D01*
X137615119Y-77380952D02*
X137567500Y-77333333D01*
X137519880Y-77238095D01*
X137519880Y-77000000D01*
X137567500Y-76904761D01*
X137615119Y-76857142D01*
X137710357Y-76809523D01*
X137805595Y-76809523D01*
X137948452Y-76857142D01*
X138519880Y-77428571D01*
X138519880Y-76809523D01*
%TO.C,C2*%
X118357142Y-81307246D02*
X118404761Y-81354865D01*
X118452380Y-81497722D01*
X118452380Y-81592960D01*
X118404761Y-81735818D01*
X118309523Y-81831056D01*
X118214285Y-81878675D01*
X118023809Y-81926294D01*
X117880952Y-81926294D01*
X117690476Y-81878675D01*
X117595238Y-81831056D01*
X117500000Y-81735818D01*
X117452380Y-81592960D01*
X117452380Y-81497722D01*
X117500000Y-81354865D01*
X117547619Y-81307246D01*
X117547619Y-80926294D02*
X117500000Y-80878675D01*
X117452380Y-80783437D01*
X117452380Y-80545341D01*
X117500000Y-80450103D01*
X117547619Y-80402484D01*
X117642857Y-80354865D01*
X117738095Y-80354865D01*
X117880952Y-80402484D01*
X118452380Y-80973913D01*
X118452380Y-80354865D01*
%TO.C,C1*%
X116583333Y-98396142D02*
X116535714Y-98443761D01*
X116392857Y-98491380D01*
X116297619Y-98491380D01*
X116154761Y-98443761D01*
X116059523Y-98348523D01*
X116011904Y-98253285D01*
X115964285Y-98062809D01*
X115964285Y-97919952D01*
X116011904Y-97729476D01*
X116059523Y-97634238D01*
X116154761Y-97539000D01*
X116297619Y-97491380D01*
X116392857Y-97491380D01*
X116535714Y-97539000D01*
X116583333Y-97586619D01*
X117535714Y-98491380D02*
X116964285Y-98491380D01*
X117250000Y-98491380D02*
X117250000Y-97491380D01*
X117154761Y-97634238D01*
X117059523Y-97729476D01*
X116964285Y-97777095D01*
%TO.C,J4*%
X154491666Y-73702380D02*
X154491666Y-74416666D01*
X154444047Y-74559523D01*
X154348809Y-74654761D01*
X154205952Y-74702380D01*
X154110714Y-74702380D01*
X155396428Y-74035714D02*
X155396428Y-74702380D01*
X155158333Y-73654761D02*
X154920238Y-74369047D01*
X155539285Y-74369047D01*
%TO.C,U8*%
X136738095Y-86702380D02*
X136738095Y-87511904D01*
X136785714Y-87607142D01*
X136833333Y-87654761D01*
X136928571Y-87702380D01*
X137119047Y-87702380D01*
X137214285Y-87654761D01*
X137261904Y-87607142D01*
X137309523Y-87511904D01*
X137309523Y-86702380D01*
X137928571Y-87130952D02*
X137833333Y-87083333D01*
X137785714Y-87035714D01*
X137738095Y-86940476D01*
X137738095Y-86892857D01*
X137785714Y-86797619D01*
X137833333Y-86750000D01*
X137928571Y-86702380D01*
X138119047Y-86702380D01*
X138214285Y-86750000D01*
X138261904Y-86797619D01*
X138309523Y-86892857D01*
X138309523Y-86940476D01*
X138261904Y-87035714D01*
X138214285Y-87083333D01*
X138119047Y-87130952D01*
X137928571Y-87130952D01*
X137833333Y-87178571D01*
X137785714Y-87226190D01*
X137738095Y-87321428D01*
X137738095Y-87511904D01*
X137785714Y-87607142D01*
X137833333Y-87654761D01*
X137928571Y-87702380D01*
X138119047Y-87702380D01*
X138214285Y-87654761D01*
X138261904Y-87607142D01*
X138309523Y-87511904D01*
X138309523Y-87321428D01*
X138261904Y-87226190D01*
X138214285Y-87178571D01*
X138119047Y-87130952D01*
%TO.C,D2*%
X116761904Y-85202380D02*
X116761904Y-84202380D01*
X117000000Y-84202380D01*
X117142857Y-84250000D01*
X117238095Y-84345238D01*
X117285714Y-84440476D01*
X117333333Y-84630952D01*
X117333333Y-84773809D01*
X117285714Y-84964285D01*
X117238095Y-85059523D01*
X117142857Y-85154761D01*
X117000000Y-85202380D01*
X116761904Y-85202380D01*
X117714285Y-84297619D02*
X117761904Y-84250000D01*
X117857142Y-84202380D01*
X118095238Y-84202380D01*
X118190476Y-84250000D01*
X118238095Y-84297619D01*
X118285714Y-84392857D01*
X118285714Y-84488095D01*
X118238095Y-84630952D01*
X117666666Y-85202380D01*
X118285714Y-85202380D01*
%TO.C,D3*%
X126761904Y-89412380D02*
X126761904Y-88412380D01*
X127000000Y-88412380D01*
X127142857Y-88460000D01*
X127238095Y-88555238D01*
X127285714Y-88650476D01*
X127333333Y-88840952D01*
X127333333Y-88983809D01*
X127285714Y-89174285D01*
X127238095Y-89269523D01*
X127142857Y-89364761D01*
X127000000Y-89412380D01*
X126761904Y-89412380D01*
X127666666Y-88412380D02*
X128285714Y-88412380D01*
X127952380Y-88793333D01*
X128095238Y-88793333D01*
X128190476Y-88840952D01*
X128238095Y-88888571D01*
X128285714Y-88983809D01*
X128285714Y-89221904D01*
X128238095Y-89317142D01*
X128190476Y-89364761D01*
X128095238Y-89412380D01*
X127809523Y-89412380D01*
X127714285Y-89364761D01*
X127666666Y-89317142D01*
%TO.C,R10*%
X124857142Y-93952380D02*
X124523809Y-93476190D01*
X124285714Y-93952380D02*
X124285714Y-92952380D01*
X124666666Y-92952380D01*
X124761904Y-93000000D01*
X124809523Y-93047619D01*
X124857142Y-93142857D01*
X124857142Y-93285714D01*
X124809523Y-93380952D01*
X124761904Y-93428571D01*
X124666666Y-93476190D01*
X124285714Y-93476190D01*
X125809523Y-93952380D02*
X125238095Y-93952380D01*
X125523809Y-93952380D02*
X125523809Y-92952380D01*
X125428571Y-93095238D01*
X125333333Y-93190476D01*
X125238095Y-93238095D01*
X126428571Y-92952380D02*
X126523809Y-92952380D01*
X126619047Y-93000000D01*
X126666666Y-93047619D01*
X126714285Y-93142857D01*
X126761904Y-93333333D01*
X126761904Y-93571428D01*
X126714285Y-93761904D01*
X126666666Y-93857142D01*
X126619047Y-93904761D01*
X126523809Y-93952380D01*
X126428571Y-93952380D01*
X126333333Y-93904761D01*
X126285714Y-93857142D01*
X126238095Y-93761904D01*
X126190476Y-93571428D01*
X126190476Y-93333333D01*
X126238095Y-93142857D01*
X126285714Y-93047619D01*
X126333333Y-93000000D01*
X126428571Y-92952380D01*
%TO.C,C16*%
X141357142Y-95602857D02*
X141404761Y-95650476D01*
X141452380Y-95793333D01*
X141452380Y-95888571D01*
X141404761Y-96031428D01*
X141309523Y-96126666D01*
X141214285Y-96174285D01*
X141023809Y-96221904D01*
X140880952Y-96221904D01*
X140690476Y-96174285D01*
X140595238Y-96126666D01*
X140500000Y-96031428D01*
X140452380Y-95888571D01*
X140452380Y-95793333D01*
X140500000Y-95650476D01*
X140547619Y-95602857D01*
X141452380Y-94650476D02*
X141452380Y-95221904D01*
X141452380Y-94936190D02*
X140452380Y-94936190D01*
X140595238Y-95031428D01*
X140690476Y-95126666D01*
X140738095Y-95221904D01*
X140452380Y-93793333D02*
X140452380Y-93983809D01*
X140500000Y-94079047D01*
X140547619Y-94126666D01*
X140690476Y-94221904D01*
X140880952Y-94269523D01*
X141261904Y-94269523D01*
X141357142Y-94221904D01*
X141404761Y-94174285D01*
X141452380Y-94079047D01*
X141452380Y-93888571D01*
X141404761Y-93793333D01*
X141357142Y-93745714D01*
X141261904Y-93698095D01*
X141023809Y-93698095D01*
X140928571Y-93745714D01*
X140880952Y-93793333D01*
X140833333Y-93888571D01*
X140833333Y-94079047D01*
X140880952Y-94174285D01*
X140928571Y-94221904D01*
X141023809Y-94269523D01*
%TO.C,R5*%
X130189880Y-76179166D02*
X129713690Y-76512500D01*
X130189880Y-76750595D02*
X129189880Y-76750595D01*
X129189880Y-76369642D01*
X129237500Y-76274404D01*
X129285119Y-76226785D01*
X129380357Y-76179166D01*
X129523214Y-76179166D01*
X129618452Y-76226785D01*
X129666071Y-76274404D01*
X129713690Y-76369642D01*
X129713690Y-76750595D01*
X129189880Y-75274404D02*
X129189880Y-75750595D01*
X129666071Y-75798214D01*
X129618452Y-75750595D01*
X129570833Y-75655357D01*
X129570833Y-75417261D01*
X129618452Y-75322023D01*
X129666071Y-75274404D01*
X129761309Y-75226785D01*
X129999404Y-75226785D01*
X130094642Y-75274404D01*
X130142261Y-75322023D01*
X130189880Y-75417261D01*
X130189880Y-75655357D01*
X130142261Y-75750595D01*
X130094642Y-75798214D01*
%TO.C,R13*%
X124357142Y-98382380D02*
X124023809Y-97906190D01*
X123785714Y-98382380D02*
X123785714Y-97382380D01*
X124166666Y-97382380D01*
X124261904Y-97430000D01*
X124309523Y-97477619D01*
X124357142Y-97572857D01*
X124357142Y-97715714D01*
X124309523Y-97810952D01*
X124261904Y-97858571D01*
X124166666Y-97906190D01*
X123785714Y-97906190D01*
X125309523Y-98382380D02*
X124738095Y-98382380D01*
X125023809Y-98382380D02*
X125023809Y-97382380D01*
X124928571Y-97525238D01*
X124833333Y-97620476D01*
X124738095Y-97668095D01*
X125642857Y-97382380D02*
X126261904Y-97382380D01*
X125928571Y-97763333D01*
X126071428Y-97763333D01*
X126166666Y-97810952D01*
X126214285Y-97858571D01*
X126261904Y-97953809D01*
X126261904Y-98191904D01*
X126214285Y-98287142D01*
X126166666Y-98334761D01*
X126071428Y-98382380D01*
X125785714Y-98382380D01*
X125690476Y-98334761D01*
X125642857Y-98287142D01*
%TO.C,C10*%
X142679642Y-80787142D02*
X142632023Y-80834761D01*
X142489166Y-80882380D01*
X142393928Y-80882380D01*
X142251071Y-80834761D01*
X142155833Y-80739523D01*
X142108214Y-80644285D01*
X142060595Y-80453809D01*
X142060595Y-80310952D01*
X142108214Y-80120476D01*
X142155833Y-80025238D01*
X142251071Y-79930000D01*
X142393928Y-79882380D01*
X142489166Y-79882380D01*
X142632023Y-79930000D01*
X142679642Y-79977619D01*
X143632023Y-80882380D02*
X143060595Y-80882380D01*
X143346309Y-80882380D02*
X143346309Y-79882380D01*
X143251071Y-80025238D01*
X143155833Y-80120476D01*
X143060595Y-80168095D01*
X144251071Y-79882380D02*
X144346309Y-79882380D01*
X144441547Y-79930000D01*
X144489166Y-79977619D01*
X144536785Y-80072857D01*
X144584404Y-80263333D01*
X144584404Y-80501428D01*
X144536785Y-80691904D01*
X144489166Y-80787142D01*
X144441547Y-80834761D01*
X144346309Y-80882380D01*
X144251071Y-80882380D01*
X144155833Y-80834761D01*
X144108214Y-80787142D01*
X144060595Y-80691904D01*
X144012976Y-80501428D01*
X144012976Y-80263333D01*
X144060595Y-80072857D01*
X144108214Y-79977619D01*
X144155833Y-79930000D01*
X144251071Y-79882380D01*
%TO.C,R7*%
X143202380Y-87626666D02*
X142726190Y-87960000D01*
X143202380Y-88198095D02*
X142202380Y-88198095D01*
X142202380Y-87817142D01*
X142250000Y-87721904D01*
X142297619Y-87674285D01*
X142392857Y-87626666D01*
X142535714Y-87626666D01*
X142630952Y-87674285D01*
X142678571Y-87721904D01*
X142726190Y-87817142D01*
X142726190Y-88198095D01*
X142202380Y-87293333D02*
X142202380Y-86626666D01*
X143202380Y-87055238D01*
%TO.C,D4*%
X124511904Y-89412380D02*
X124511904Y-88412380D01*
X124750000Y-88412380D01*
X124892857Y-88460000D01*
X124988095Y-88555238D01*
X125035714Y-88650476D01*
X125083333Y-88840952D01*
X125083333Y-88983809D01*
X125035714Y-89174285D01*
X124988095Y-89269523D01*
X124892857Y-89364761D01*
X124750000Y-89412380D01*
X124511904Y-89412380D01*
X125940476Y-88745714D02*
X125940476Y-89412380D01*
X125702380Y-88364761D02*
X125464285Y-89079047D01*
X126083333Y-89079047D01*
%TO.C,U1*%
X118738095Y-86491380D02*
X118738095Y-87300904D01*
X118785714Y-87396142D01*
X118833333Y-87443761D01*
X118928571Y-87491380D01*
X119119047Y-87491380D01*
X119214285Y-87443761D01*
X119261904Y-87396142D01*
X119309523Y-87300904D01*
X119309523Y-86491380D01*
X120309523Y-87491380D02*
X119738095Y-87491380D01*
X120023809Y-87491380D02*
X120023809Y-86491380D01*
X119928571Y-86634238D01*
X119833333Y-86729476D01*
X119738095Y-86777095D01*
%TO.C,U4*%
X147202380Y-90624404D02*
X148011904Y-90624404D01*
X148107142Y-90576785D01*
X148154761Y-90529166D01*
X148202380Y-90433928D01*
X148202380Y-90243452D01*
X148154761Y-90148214D01*
X148107142Y-90100595D01*
X148011904Y-90052976D01*
X147202380Y-90052976D01*
X147535714Y-89148214D02*
X148202380Y-89148214D01*
X147154761Y-89386309D02*
X147869047Y-89624404D01*
X147869047Y-89005357D01*
%TO.C,R12*%
X129771428Y-92135714D02*
X129485714Y-92335714D01*
X129771428Y-92478571D02*
X129171428Y-92478571D01*
X129171428Y-92250000D01*
X129200000Y-92192857D01*
X129228571Y-92164285D01*
X129285714Y-92135714D01*
X129371428Y-92135714D01*
X129428571Y-92164285D01*
X129457142Y-92192857D01*
X129485714Y-92250000D01*
X129485714Y-92478571D01*
X129771428Y-91564285D02*
X129771428Y-91907142D01*
X129771428Y-91735714D02*
X129171428Y-91735714D01*
X129257142Y-91792857D01*
X129314285Y-91850000D01*
X129342857Y-91907142D01*
X129228571Y-91335714D02*
X129200000Y-91307142D01*
X129171428Y-91250000D01*
X129171428Y-91107142D01*
X129200000Y-91050000D01*
X129228571Y-91021428D01*
X129285714Y-90992857D01*
X129342857Y-90992857D01*
X129428571Y-91021428D01*
X129771428Y-91364285D01*
X129771428Y-90992857D01*
%TO.C,C13*%
X150357142Y-95142857D02*
X150404761Y-95190476D01*
X150452380Y-95333333D01*
X150452380Y-95428571D01*
X150404761Y-95571428D01*
X150309523Y-95666666D01*
X150214285Y-95714285D01*
X150023809Y-95761904D01*
X149880952Y-95761904D01*
X149690476Y-95714285D01*
X149595238Y-95666666D01*
X149500000Y-95571428D01*
X149452380Y-95428571D01*
X149452380Y-95333333D01*
X149500000Y-95190476D01*
X149547619Y-95142857D01*
X150452380Y-94190476D02*
X150452380Y-94761904D01*
X150452380Y-94476190D02*
X149452380Y-94476190D01*
X149595238Y-94571428D01*
X149690476Y-94666666D01*
X149738095Y-94761904D01*
X149452380Y-93857142D02*
X149452380Y-93238095D01*
X149833333Y-93571428D01*
X149833333Y-93428571D01*
X149880952Y-93333333D01*
X149928571Y-93285714D01*
X150023809Y-93238095D01*
X150261904Y-93238095D01*
X150357142Y-93285714D01*
X150404761Y-93333333D01*
X150452380Y-93428571D01*
X150452380Y-93714285D01*
X150404761Y-93809523D01*
X150357142Y-93857142D01*
%TO.C,R3*%
X150202380Y-84416666D02*
X149726190Y-84750000D01*
X150202380Y-84988095D02*
X149202380Y-84988095D01*
X149202380Y-84607142D01*
X149250000Y-84511904D01*
X149297619Y-84464285D01*
X149392857Y-84416666D01*
X149535714Y-84416666D01*
X149630952Y-84464285D01*
X149678571Y-84511904D01*
X149726190Y-84607142D01*
X149726190Y-84988095D01*
X149202380Y-84083333D02*
X149202380Y-83464285D01*
X149583333Y-83797619D01*
X149583333Y-83654761D01*
X149630952Y-83559523D01*
X149678571Y-83511904D01*
X149773809Y-83464285D01*
X150011904Y-83464285D01*
X150107142Y-83511904D01*
X150154761Y-83559523D01*
X150202380Y-83654761D01*
X150202380Y-83940476D01*
X150154761Y-84035714D01*
X150107142Y-84083333D01*
%TO.C,Q1*%
X144904761Y-98907619D02*
X144809523Y-98860000D01*
X144714285Y-98764761D01*
X144571428Y-98621904D01*
X144476190Y-98574285D01*
X144380952Y-98574285D01*
X144428571Y-98812380D02*
X144333333Y-98764761D01*
X144238095Y-98669523D01*
X144190476Y-98479047D01*
X144190476Y-98145714D01*
X144238095Y-97955238D01*
X144333333Y-97860000D01*
X144428571Y-97812380D01*
X144619047Y-97812380D01*
X144714285Y-97860000D01*
X144809523Y-97955238D01*
X144857142Y-98145714D01*
X144857142Y-98479047D01*
X144809523Y-98669523D01*
X144714285Y-98764761D01*
X144619047Y-98812380D01*
X144428571Y-98812380D01*
X145809523Y-98812380D02*
X145238095Y-98812380D01*
X145523809Y-98812380D02*
X145523809Y-97812380D01*
X145428571Y-97955238D01*
X145333333Y-98050476D01*
X145238095Y-98098095D01*
%TO.C,J5*%
X156086666Y-87702380D02*
X156086666Y-88416666D01*
X156039047Y-88559523D01*
X155943809Y-88654761D01*
X155800952Y-88702380D01*
X155705714Y-88702380D01*
X157039047Y-87702380D02*
X156562857Y-87702380D01*
X156515238Y-88178571D01*
X156562857Y-88130952D01*
X156658095Y-88083333D01*
X156896190Y-88083333D01*
X156991428Y-88130952D01*
X157039047Y-88178571D01*
X157086666Y-88273809D01*
X157086666Y-88511904D01*
X157039047Y-88607142D01*
X156991428Y-88654761D01*
X156896190Y-88702380D01*
X156658095Y-88702380D01*
X156562857Y-88654761D01*
X156515238Y-88607142D01*
%TO.C,R2*%
X119333333Y-85202380D02*
X119000000Y-84726190D01*
X118761904Y-85202380D02*
X118761904Y-84202380D01*
X119142857Y-84202380D01*
X119238095Y-84250000D01*
X119285714Y-84297619D01*
X119333333Y-84392857D01*
X119333333Y-84535714D01*
X119285714Y-84630952D01*
X119238095Y-84678571D01*
X119142857Y-84726190D01*
X118761904Y-84726190D01*
X119714285Y-84297619D02*
X119761904Y-84250000D01*
X119857142Y-84202380D01*
X120095238Y-84202380D01*
X120190476Y-84250000D01*
X120238095Y-84297619D01*
X120285714Y-84392857D01*
X120285714Y-84488095D01*
X120238095Y-84630952D01*
X119666666Y-85202380D01*
X120285714Y-85202380D01*
%TO.C,L3*%
X140150833Y-80952380D02*
X139674642Y-80952380D01*
X139674642Y-79952380D01*
X140388928Y-79952380D02*
X141007976Y-79952380D01*
X140674642Y-80333333D01*
X140817500Y-80333333D01*
X140912738Y-80380952D01*
X140960357Y-80428571D01*
X141007976Y-80523809D01*
X141007976Y-80761904D01*
X140960357Y-80857142D01*
X140912738Y-80904761D01*
X140817500Y-80952380D01*
X140531785Y-80952380D01*
X140436547Y-80904761D01*
X140388928Y-80857142D01*
%TO.C,C5*%
X147470833Y-93132142D02*
X147423214Y-93179761D01*
X147280357Y-93227380D01*
X147185119Y-93227380D01*
X147042261Y-93179761D01*
X146947023Y-93084523D01*
X146899404Y-92989285D01*
X146851785Y-92798809D01*
X146851785Y-92655952D01*
X146899404Y-92465476D01*
X146947023Y-92370238D01*
X147042261Y-92275000D01*
X147185119Y-92227380D01*
X147280357Y-92227380D01*
X147423214Y-92275000D01*
X147470833Y-92322619D01*
X148375595Y-92227380D02*
X147899404Y-92227380D01*
X147851785Y-92703571D01*
X147899404Y-92655952D01*
X147994642Y-92608333D01*
X148232738Y-92608333D01*
X148327976Y-92655952D01*
X148375595Y-92703571D01*
X148423214Y-92798809D01*
X148423214Y-93036904D01*
X148375595Y-93132142D01*
X148327976Y-93179761D01*
X148232738Y-93227380D01*
X147994642Y-93227380D01*
X147899404Y-93179761D01*
X147851785Y-93132142D01*
%TO.C,U5*%
X130738095Y-76952380D02*
X130738095Y-77761904D01*
X130785714Y-77857142D01*
X130833333Y-77904761D01*
X130928571Y-77952380D01*
X131119047Y-77952380D01*
X131214285Y-77904761D01*
X131261904Y-77857142D01*
X131309523Y-77761904D01*
X131309523Y-76952380D01*
X132261904Y-76952380D02*
X131785714Y-76952380D01*
X131738095Y-77428571D01*
X131785714Y-77380952D01*
X131880952Y-77333333D01*
X132119047Y-77333333D01*
X132214285Y-77380952D01*
X132261904Y-77428571D01*
X132309523Y-77523809D01*
X132309523Y-77761904D01*
X132261904Y-77857142D01*
X132214285Y-77904761D01*
X132119047Y-77952380D01*
X131880952Y-77952380D01*
X131785714Y-77904761D01*
X131738095Y-77857142D01*
%TO.C,R6*%
X140452380Y-98126666D02*
X139976190Y-98460000D01*
X140452380Y-98698095D02*
X139452380Y-98698095D01*
X139452380Y-98317142D01*
X139500000Y-98221904D01*
X139547619Y-98174285D01*
X139642857Y-98126666D01*
X139785714Y-98126666D01*
X139880952Y-98174285D01*
X139928571Y-98221904D01*
X139976190Y-98317142D01*
X139976190Y-98698095D01*
X139452380Y-97269523D02*
X139452380Y-97460000D01*
X139500000Y-97555238D01*
X139547619Y-97602857D01*
X139690476Y-97698095D01*
X139880952Y-97745714D01*
X140261904Y-97745714D01*
X140357142Y-97698095D01*
X140404761Y-97650476D01*
X140452380Y-97555238D01*
X140452380Y-97364761D01*
X140404761Y-97269523D01*
X140357142Y-97221904D01*
X140261904Y-97174285D01*
X140023809Y-97174285D01*
X139928571Y-97221904D01*
X139880952Y-97269523D01*
X139833333Y-97364761D01*
X139833333Y-97555238D01*
X139880952Y-97650476D01*
X139928571Y-97698095D01*
X140023809Y-97745714D01*
%TO.C,R9*%
X132333333Y-86202380D02*
X132000000Y-85726190D01*
X131761904Y-86202380D02*
X131761904Y-85202380D01*
X132142857Y-85202380D01*
X132238095Y-85250000D01*
X132285714Y-85297619D01*
X132333333Y-85392857D01*
X132333333Y-85535714D01*
X132285714Y-85630952D01*
X132238095Y-85678571D01*
X132142857Y-85726190D01*
X131761904Y-85726190D01*
X132809523Y-86202380D02*
X133000000Y-86202380D01*
X133095238Y-86154761D01*
X133142857Y-86107142D01*
X133238095Y-85964285D01*
X133285714Y-85773809D01*
X133285714Y-85392857D01*
X133238095Y-85297619D01*
X133190476Y-85250000D01*
X133095238Y-85202380D01*
X132904761Y-85202380D01*
X132809523Y-85250000D01*
X132761904Y-85297619D01*
X132714285Y-85392857D01*
X132714285Y-85630952D01*
X132761904Y-85726190D01*
X132809523Y-85773809D01*
X132904761Y-85821428D01*
X133095238Y-85821428D01*
X133190476Y-85773809D01*
X133238095Y-85726190D01*
X133285714Y-85630952D01*
%TO.C,C19*%
X131214285Y-92135714D02*
X131242857Y-92164285D01*
X131271428Y-92250000D01*
X131271428Y-92307142D01*
X131242857Y-92392857D01*
X131185714Y-92450000D01*
X131128571Y-92478571D01*
X131014285Y-92507142D01*
X130928571Y-92507142D01*
X130814285Y-92478571D01*
X130757142Y-92450000D01*
X130700000Y-92392857D01*
X130671428Y-92307142D01*
X130671428Y-92250000D01*
X130700000Y-92164285D01*
X130728571Y-92135714D01*
X131271428Y-91564285D02*
X131271428Y-91907142D01*
X131271428Y-91735714D02*
X130671428Y-91735714D01*
X130757142Y-91792857D01*
X130814285Y-91850000D01*
X130842857Y-91907142D01*
X131271428Y-91278571D02*
X131271428Y-91164285D01*
X131242857Y-91107142D01*
X131214285Y-91078571D01*
X131128571Y-91021428D01*
X131014285Y-90992857D01*
X130785714Y-90992857D01*
X130728571Y-91021428D01*
X130700000Y-91050000D01*
X130671428Y-91107142D01*
X130671428Y-91221428D01*
X130700000Y-91278571D01*
X130728571Y-91307142D01*
X130785714Y-91335714D01*
X130928571Y-91335714D01*
X130985714Y-91307142D01*
X131014285Y-91278571D01*
X131042857Y-91221428D01*
X131042857Y-91107142D01*
X131014285Y-91050000D01*
X130985714Y-91021428D01*
X130928571Y-90992857D01*
%TO.C,J3*%
X155536666Y-79452380D02*
X155536666Y-80166666D01*
X155489047Y-80309523D01*
X155393809Y-80404761D01*
X155250952Y-80452380D01*
X155155714Y-80452380D01*
X155917619Y-79452380D02*
X156536666Y-79452380D01*
X156203333Y-79833333D01*
X156346190Y-79833333D01*
X156441428Y-79880952D01*
X156489047Y-79928571D01*
X156536666Y-80023809D01*
X156536666Y-80261904D01*
X156489047Y-80357142D01*
X156441428Y-80404761D01*
X156346190Y-80452380D01*
X156060476Y-80452380D01*
X155965238Y-80404761D01*
X155917619Y-80357142D01*
%TO.C,R11*%
X130022380Y-96352857D02*
X129546190Y-96686190D01*
X130022380Y-96924285D02*
X129022380Y-96924285D01*
X129022380Y-96543333D01*
X129070000Y-96448095D01*
X129117619Y-96400476D01*
X129212857Y-96352857D01*
X129355714Y-96352857D01*
X129450952Y-96400476D01*
X129498571Y-96448095D01*
X129546190Y-96543333D01*
X129546190Y-96924285D01*
X130022380Y-95400476D02*
X130022380Y-95971904D01*
X130022380Y-95686190D02*
X129022380Y-95686190D01*
X129165238Y-95781428D01*
X129260476Y-95876666D01*
X129308095Y-95971904D01*
X130022380Y-94448095D02*
X130022380Y-95019523D01*
X130022380Y-94733809D02*
X129022380Y-94733809D01*
X129165238Y-94829047D01*
X129260476Y-94924285D01*
X129308095Y-95019523D01*
%TO.C,C14*%
X158107142Y-96107142D02*
X158059523Y-96154761D01*
X157916666Y-96202380D01*
X157821428Y-96202380D01*
X157678571Y-96154761D01*
X157583333Y-96059523D01*
X157535714Y-95964285D01*
X157488095Y-95773809D01*
X157488095Y-95630952D01*
X157535714Y-95440476D01*
X157583333Y-95345238D01*
X157678571Y-95250000D01*
X157821428Y-95202380D01*
X157916666Y-95202380D01*
X158059523Y-95250000D01*
X158107142Y-95297619D01*
X159059523Y-96202380D02*
X158488095Y-96202380D01*
X158773809Y-96202380D02*
X158773809Y-95202380D01*
X158678571Y-95345238D01*
X158583333Y-95440476D01*
X158488095Y-95488095D01*
X159916666Y-95535714D02*
X159916666Y-96202380D01*
X159678571Y-95154761D02*
X159440476Y-95869047D01*
X160059523Y-95869047D01*
%TO.C,C4*%
X128707142Y-80026086D02*
X128754761Y-80073705D01*
X128802380Y-80216562D01*
X128802380Y-80311800D01*
X128754761Y-80454658D01*
X128659523Y-80549896D01*
X128564285Y-80597515D01*
X128373809Y-80645134D01*
X128230952Y-80645134D01*
X128040476Y-80597515D01*
X127945238Y-80549896D01*
X127850000Y-80454658D01*
X127802380Y-80311800D01*
X127802380Y-80216562D01*
X127850000Y-80073705D01*
X127897619Y-80026086D01*
X128135714Y-79168943D02*
X128802380Y-79168943D01*
X127754761Y-79407039D02*
X128469047Y-79645134D01*
X128469047Y-79026086D01*
%TO.C,C6*%
X147520833Y-87357142D02*
X147473214Y-87404761D01*
X147330357Y-87452380D01*
X147235119Y-87452380D01*
X147092261Y-87404761D01*
X146997023Y-87309523D01*
X146949404Y-87214285D01*
X146901785Y-87023809D01*
X146901785Y-86880952D01*
X146949404Y-86690476D01*
X146997023Y-86595238D01*
X147092261Y-86500000D01*
X147235119Y-86452380D01*
X147330357Y-86452380D01*
X147473214Y-86500000D01*
X147520833Y-86547619D01*
X148377976Y-86452380D02*
X148187500Y-86452380D01*
X148092261Y-86500000D01*
X148044642Y-86547619D01*
X147949404Y-86690476D01*
X147901785Y-86880952D01*
X147901785Y-87261904D01*
X147949404Y-87357142D01*
X147997023Y-87404761D01*
X148092261Y-87452380D01*
X148282738Y-87452380D01*
X148377976Y-87404761D01*
X148425595Y-87357142D01*
X148473214Y-87261904D01*
X148473214Y-87023809D01*
X148425595Y-86928571D01*
X148377976Y-86880952D01*
X148282738Y-86833333D01*
X148092261Y-86833333D01*
X147997023Y-86880952D01*
X147949404Y-86928571D01*
X147901785Y-87023809D01*
%TO.C,Y1*%
X135761309Y-82976190D02*
X135761309Y-83452380D01*
X135427976Y-82452380D02*
X135761309Y-82976190D01*
X136094642Y-82452380D01*
X136951785Y-83452380D02*
X136380357Y-83452380D01*
X136666071Y-83452380D02*
X136666071Y-82452380D01*
X136570833Y-82595238D01*
X136475595Y-82690476D01*
X136380357Y-82738095D01*
%TO.C,R4*%
X128952380Y-82166666D02*
X128476190Y-82500000D01*
X128952380Y-82738095D02*
X127952380Y-82738095D01*
X127952380Y-82357142D01*
X128000000Y-82261904D01*
X128047619Y-82214285D01*
X128142857Y-82166666D01*
X128285714Y-82166666D01*
X128380952Y-82214285D01*
X128428571Y-82261904D01*
X128476190Y-82357142D01*
X128476190Y-82738095D01*
X128285714Y-81309523D02*
X128952380Y-81309523D01*
X127904761Y-81547619D02*
X128619047Y-81785714D01*
X128619047Y-81166666D01*
%TO.C,J1*%
X115702380Y-74583333D02*
X116416666Y-74583333D01*
X116559523Y-74630952D01*
X116654761Y-74726190D01*
X116702380Y-74869047D01*
X116702380Y-74964285D01*
X116702380Y-73583333D02*
X116702380Y-74154761D01*
X116702380Y-73869047D02*
X115702380Y-73869047D01*
X115845238Y-73964285D01*
X115940476Y-74059523D01*
X115988095Y-74154761D01*
%TO.C,C18*%
X134607142Y-86137142D02*
X134559523Y-86184761D01*
X134416666Y-86232380D01*
X134321428Y-86232380D01*
X134178571Y-86184761D01*
X134083333Y-86089523D01*
X134035714Y-85994285D01*
X133988095Y-85803809D01*
X133988095Y-85660952D01*
X134035714Y-85470476D01*
X134083333Y-85375238D01*
X134178571Y-85280000D01*
X134321428Y-85232380D01*
X134416666Y-85232380D01*
X134559523Y-85280000D01*
X134607142Y-85327619D01*
X135559523Y-86232380D02*
X134988095Y-86232380D01*
X135273809Y-86232380D02*
X135273809Y-85232380D01*
X135178571Y-85375238D01*
X135083333Y-85470476D01*
X134988095Y-85518095D01*
X136130952Y-85660952D02*
X136035714Y-85613333D01*
X135988095Y-85565714D01*
X135940476Y-85470476D01*
X135940476Y-85422857D01*
X135988095Y-85327619D01*
X136035714Y-85280000D01*
X136130952Y-85232380D01*
X136321428Y-85232380D01*
X136416666Y-85280000D01*
X136464285Y-85327619D01*
X136511904Y-85422857D01*
X136511904Y-85470476D01*
X136464285Y-85565714D01*
X136416666Y-85613333D01*
X136321428Y-85660952D01*
X136130952Y-85660952D01*
X136035714Y-85708571D01*
X135988095Y-85756190D01*
X135940476Y-85851428D01*
X135940476Y-86041904D01*
X135988095Y-86137142D01*
X136035714Y-86184761D01*
X136130952Y-86232380D01*
X136321428Y-86232380D01*
X136416666Y-86184761D01*
X136464285Y-86137142D01*
X136511904Y-86041904D01*
X136511904Y-85851428D01*
X136464285Y-85756190D01*
X136416666Y-85708571D01*
X136321428Y-85660952D01*
%TO.C,C7*%
X141150833Y-83857142D02*
X141103214Y-83904761D01*
X140960357Y-83952380D01*
X140865119Y-83952380D01*
X140722261Y-83904761D01*
X140627023Y-83809523D01*
X140579404Y-83714285D01*
X140531785Y-83523809D01*
X140531785Y-83380952D01*
X140579404Y-83190476D01*
X140627023Y-83095238D01*
X140722261Y-83000000D01*
X140865119Y-82952380D01*
X140960357Y-82952380D01*
X141103214Y-83000000D01*
X141150833Y-83047619D01*
X141484166Y-82952380D02*
X142150833Y-82952380D01*
X141722261Y-83952380D01*
%TO.C,L4*%
X150365833Y-88952380D02*
X149889642Y-88952380D01*
X149889642Y-87952380D01*
X151127738Y-88285714D02*
X151127738Y-88952380D01*
X150889642Y-87904761D02*
X150651547Y-88619047D01*
X151270595Y-88619047D01*
%TO.C,L1*%
X118083333Y-77702380D02*
X117607142Y-77702380D01*
X117607142Y-76702380D01*
X118940476Y-77702380D02*
X118369047Y-77702380D01*
X118654761Y-77702380D02*
X118654761Y-76702380D01*
X118559523Y-76845238D01*
X118464285Y-76940476D01*
X118369047Y-76988095D01*
%TO.C,R1*%
X119333333Y-83452380D02*
X119000000Y-82976190D01*
X118761904Y-83452380D02*
X118761904Y-82452380D01*
X119142857Y-82452380D01*
X119238095Y-82500000D01*
X119285714Y-82547619D01*
X119333333Y-82642857D01*
X119333333Y-82785714D01*
X119285714Y-82880952D01*
X119238095Y-82928571D01*
X119142857Y-82976190D01*
X118761904Y-82976190D01*
X120285714Y-83452380D02*
X119714285Y-83452380D01*
X120000000Y-83452380D02*
X120000000Y-82452380D01*
X119904761Y-82595238D01*
X119809523Y-82690476D01*
X119714285Y-82738095D01*
%TO.C,U2*%
X126338095Y-72952380D02*
X126338095Y-73761904D01*
X126385714Y-73857142D01*
X126433333Y-73904761D01*
X126528571Y-73952380D01*
X126719047Y-73952380D01*
X126814285Y-73904761D01*
X126861904Y-73857142D01*
X126909523Y-73761904D01*
X126909523Y-72952380D01*
X127338095Y-73047619D02*
X127385714Y-73000000D01*
X127480952Y-72952380D01*
X127719047Y-72952380D01*
X127814285Y-73000000D01*
X127861904Y-73047619D01*
X127909523Y-73142857D01*
X127909523Y-73238095D01*
X127861904Y-73380952D01*
X127290476Y-73952380D01*
X127909523Y-73952380D01*
D12*
%TO.C,U3*%
X151400000Y-80400000D02*
X153100000Y-80400000D01*
X153100000Y-80400000D02*
X153600000Y-80900000D01*
X153600000Y-82600000D02*
X151400000Y-82600000D01*
X151400000Y-82600000D02*
X151400000Y-80400000D01*
X153600000Y-80900000D02*
X153600000Y-82600000D01*
%TO.C,U9*%
X148360000Y-80110000D02*
X148360000Y-79635000D01*
X145615000Y-80110000D02*
X145140000Y-80110000D01*
X145615000Y-76890000D02*
X145140000Y-76890000D01*
X148360000Y-76890000D02*
X148360000Y-77365000D01*
X147885000Y-76890000D02*
X148360000Y-76890000D01*
X147885000Y-80110000D02*
X148360000Y-80110000D01*
X145140000Y-80110000D02*
X145140000Y-79635000D01*
%TO.C,R14*%
X142762742Y-76772500D02*
X143237258Y-76772500D01*
X142762742Y-75727500D02*
X143237258Y-75727500D01*
%TO.C,L5*%
X149240000Y-81087221D02*
X149240000Y-81412779D01*
X150260000Y-81087221D02*
X150260000Y-81412779D01*
%TO.C,C22*%
X150665580Y-78490000D02*
X150384420Y-78490000D01*
X150665580Y-79510000D02*
X150384420Y-79510000D01*
%TO.C,C21*%
X150260000Y-78365580D02*
X150260000Y-78084420D01*
X149240000Y-78365580D02*
X149240000Y-78084420D01*
%TO.C,C20*%
X147359420Y-82510000D02*
X147640580Y-82510000D01*
X147359420Y-81490000D02*
X147640580Y-81490000D01*
%TO.C,C9*%
X147640580Y-82990000D02*
X147359420Y-82990000D01*
X147640580Y-84010000D02*
X147359420Y-84010000D01*
%TO.C,C11*%
X154180000Y-86140580D02*
X154180000Y-85859420D01*
X153160000Y-86140580D02*
X153160000Y-85859420D01*
%TO.C,C8*%
X138958080Y-82510000D02*
X138676920Y-82510000D01*
X138958080Y-81490000D02*
X138676920Y-81490000D01*
%TO.C,C3*%
X126340000Y-76859420D02*
X126340000Y-77140580D01*
X127360000Y-76859420D02*
X127360000Y-77140580D01*
%TO.C,C15*%
X155915580Y-95010000D02*
X155634420Y-95010000D01*
X155915580Y-93990000D02*
X155634420Y-93990000D01*
%TO.C,U6*%
X154270000Y-95500000D02*
X151020000Y-95500000D01*
X151020000Y-89500000D02*
X153470000Y-89500000D01*
X151020000Y-95500000D02*
X151020000Y-89500000D01*
X154270000Y-90300000D02*
X154270000Y-95500000D01*
X153470000Y-89500000D02*
X154270000Y-90300000D01*
%TO.C,R8*%
X140727500Y-90197258D02*
X140727500Y-89722742D01*
X141772500Y-90197258D02*
X141772500Y-89722742D01*
%TO.C,C17*%
X139240000Y-90100580D02*
X139240000Y-89819420D01*
X140260000Y-90100580D02*
X140260000Y-89819420D01*
%TO.C,U7*%
X135400000Y-91390000D02*
X133900000Y-91390000D01*
X135400000Y-88170000D02*
X133900000Y-88170000D01*
X135400000Y-88170000D02*
X136900000Y-88170000D01*
X135400000Y-91390000D02*
X138325000Y-91390000D01*
%TO.C,D1*%
X110515000Y-83735000D02*
X112800000Y-83735000D01*
X110515000Y-82265000D02*
X110515000Y-83735000D01*
X112800000Y-82265000D02*
X110515000Y-82265000D01*
%TO.C,L2*%
X137557500Y-79950279D02*
X137557500Y-79624721D01*
X138577500Y-79950279D02*
X138577500Y-79624721D01*
%TO.C,C2*%
X115990000Y-81140580D02*
X115990000Y-80859420D01*
X117010000Y-81140580D02*
X117010000Y-80859420D01*
%TO.C,C1*%
X119044420Y-97490000D02*
X119325580Y-97490000D01*
X119044420Y-98510000D02*
X119325580Y-98510000D01*
%TO.C,J4*%
X151775000Y-72100000D02*
X150665000Y-72100000D01*
X151775000Y-75810000D02*
X150665000Y-75810000D01*
X150075000Y-76860000D02*
X149825000Y-76360000D01*
X148985000Y-75810000D02*
X147875000Y-75810000D01*
X149575000Y-76860000D02*
X150075000Y-76860000D01*
X149825000Y-76360000D02*
X149575000Y-76860000D01*
X148985000Y-72100000D02*
X147875000Y-72100000D01*
%TO.C,U8*%
X135500000Y-97520000D02*
X133550000Y-97520000D01*
X135500000Y-92400000D02*
X132050000Y-92400000D01*
X135500000Y-97520000D02*
X137450000Y-97520000D01*
X135500000Y-92400000D02*
X137450000Y-92400000D01*
%TO.C,D2*%
X112800000Y-84015000D02*
X110515000Y-84015000D01*
X110515000Y-84015000D02*
X110515000Y-85485000D01*
X110515000Y-85485000D02*
X112800000Y-85485000D01*
%TO.C,D3*%
X126500000Y-86710000D02*
X126500000Y-90610000D01*
X128500000Y-86710000D02*
X128500000Y-90610000D01*
X128500000Y-86710000D02*
X126500000Y-86710000D01*
%TO.C,R10*%
X130412258Y-92977500D02*
X129937742Y-92977500D01*
X130412258Y-94022500D02*
X129937742Y-94022500D01*
%TO.C,C16*%
X141990000Y-93319420D02*
X141990000Y-93600580D01*
X143010000Y-93319420D02*
X143010000Y-93600580D01*
%TO.C,R5*%
X130260000Y-78662258D02*
X130260000Y-78187742D01*
X129215000Y-78662258D02*
X129215000Y-78187742D01*
%TO.C,R13*%
X125237258Y-97022500D02*
X124762742Y-97022500D01*
X125237258Y-95977500D02*
X124762742Y-95977500D01*
%TO.C,C10*%
X143463080Y-79510000D02*
X143181920Y-79510000D01*
X143463080Y-78490000D02*
X143181920Y-78490000D01*
%TO.C,C12*%
X154585580Y-86240000D02*
X154304420Y-86240000D01*
X154585580Y-87260000D02*
X154304420Y-87260000D01*
%TO.C,R7*%
X143272500Y-89722742D02*
X143272500Y-90197258D01*
X142227500Y-89722742D02*
X142227500Y-90197258D01*
%TO.C,D4*%
X124250000Y-91210000D02*
X124250000Y-87310000D01*
X124250000Y-91210000D02*
X126250000Y-91210000D01*
X126250000Y-91210000D02*
X126250000Y-87310000D01*
%TO.C,U1*%
X119500000Y-96935000D02*
X122950000Y-96935000D01*
X119500000Y-96935000D02*
X117550000Y-96935000D01*
X119500000Y-88065000D02*
X117550000Y-88065000D01*
X119500000Y-88065000D02*
X121450000Y-88065000D01*
%TO.C,U4*%
X146810000Y-89862500D02*
X146810000Y-89062500D01*
X143690000Y-89862500D02*
X143690000Y-91662500D01*
X143690000Y-89862500D02*
X143690000Y-89062500D01*
X146810000Y-89862500D02*
X146810000Y-90662500D01*
%TO.C,SW1*%
X126510000Y-86030000D02*
X129110000Y-86030000D01*
X126510000Y-86030000D02*
X126510000Y-83370000D01*
X125240000Y-86030000D02*
X123910000Y-86030000D01*
X123910000Y-86030000D02*
X123910000Y-84700000D01*
X129110000Y-86030000D02*
X129110000Y-83370000D01*
X126510000Y-83370000D02*
X129110000Y-83370000D01*
%TO.C,R12*%
X128977500Y-89697258D02*
X128977500Y-89222742D01*
X130022500Y-89697258D02*
X130022500Y-89222742D01*
%TO.C,C13*%
X150655000Y-91359420D02*
X150655000Y-91640580D01*
X149635000Y-91359420D02*
X149635000Y-91640580D01*
%TO.C,R3*%
X151522500Y-83837742D02*
X151522500Y-84312258D01*
X150477500Y-83837742D02*
X150477500Y-84312258D01*
%TO.C,Q1*%
X145000000Y-97520000D02*
X144350000Y-97520000D01*
X145000000Y-94400000D02*
X144350000Y-94400000D01*
X145000000Y-94400000D02*
X145650000Y-94400000D01*
X145000000Y-97520000D02*
X146675000Y-97520000D01*
%TO.C,J5*%
X157910000Y-85860000D02*
X157910000Y-84750000D01*
X157360000Y-86700000D02*
X156860000Y-86450000D01*
X156860000Y-86950000D02*
X157360000Y-86700000D01*
X157910000Y-88650000D02*
X157910000Y-87540000D01*
X161620000Y-88650000D02*
X161620000Y-87540000D01*
X161620000Y-85860000D02*
X161620000Y-84750000D01*
X156860000Y-86450000D02*
X156860000Y-86950000D01*
%TO.C,R2*%
X114762742Y-84227500D02*
X115237258Y-84227500D01*
X114762742Y-85272500D02*
X115237258Y-85272500D01*
%TO.C,L3*%
X140154721Y-78490000D02*
X140480279Y-78490000D01*
X140154721Y-79510000D02*
X140480279Y-79510000D01*
%TO.C,C5*%
X145390580Y-93260000D02*
X145109420Y-93260000D01*
X145390580Y-92240000D02*
X145109420Y-92240000D01*
%TO.C,U5*%
X130757500Y-78272500D02*
X137437500Y-78272500D01*
X137437500Y-80752500D02*
X136637500Y-81552500D01*
X137437500Y-78272500D02*
X137437500Y-80752500D01*
X136637500Y-81552500D02*
X130757500Y-81552500D01*
X130757500Y-81552500D02*
X130757500Y-78272500D01*
%TO.C,R6*%
X141932742Y-96937500D02*
X142407258Y-96937500D01*
X141932742Y-97982500D02*
X142407258Y-97982500D01*
%TO.C,R9*%
X131587742Y-87732500D02*
X132062258Y-87732500D01*
X131587742Y-86687500D02*
X132062258Y-86687500D01*
%TO.C,C19*%
X130490000Y-89600580D02*
X130490000Y-89319420D01*
X131510000Y-89600580D02*
X131510000Y-89319420D01*
%TO.C,J3*%
X161620000Y-82950000D02*
X161620000Y-81840000D01*
X156860000Y-80750000D02*
X156860000Y-81250000D01*
X156860000Y-81250000D02*
X157360000Y-81000000D01*
X157360000Y-81000000D02*
X156860000Y-80750000D01*
X161620000Y-80160000D02*
X161620000Y-79050000D01*
X157910000Y-80160000D02*
X157910000Y-79050000D01*
X157910000Y-82950000D02*
X157910000Y-81840000D01*
%TO.C,R11*%
X130477500Y-95947258D02*
X130477500Y-95472742D01*
X131522500Y-95947258D02*
X131522500Y-95472742D01*
%TO.C,C14*%
X155915580Y-95490000D02*
X155634420Y-95490000D01*
X155915580Y-96510000D02*
X155634420Y-96510000D01*
%TO.C,C4*%
X126340000Y-80140580D02*
X126340000Y-79859420D01*
X127360000Y-80140580D02*
X127360000Y-79859420D01*
%TO.C,C6*%
X145390580Y-87510000D02*
X145109420Y-87510000D01*
X145390580Y-86490000D02*
X145109420Y-86490000D01*
%TO.C,Y1*%
X134212500Y-81537500D02*
X135012500Y-82337500D01*
X135012500Y-84337500D02*
X131812500Y-84337500D01*
X131812500Y-81537500D02*
X134212500Y-81537500D01*
X131812500Y-84337500D02*
X131812500Y-81537500D01*
X135012500Y-82337500D02*
X135012500Y-84337500D01*
%TO.C,R4*%
X129215000Y-81262742D02*
X129215000Y-81737258D01*
X130260000Y-81262742D02*
X130260000Y-81737258D01*
%TO.C,J1*%
X115090000Y-76190000D02*
X115090000Y-75740000D01*
X114640000Y-75740000D02*
X115090000Y-75740000D01*
X114410000Y-81260000D02*
X114410000Y-80840000D01*
X112430000Y-81260000D02*
X114410000Y-81260000D01*
X114410000Y-73740000D02*
X114410000Y-74160000D01*
X110460000Y-81260000D02*
X110060000Y-81260000D01*
X110060000Y-73740000D02*
X110460000Y-73740000D01*
X112430000Y-73740000D02*
X114410000Y-73740000D01*
%TO.C,C18*%
X134684420Y-86700000D02*
X134965580Y-86700000D01*
X134684420Y-87720000D02*
X134965580Y-87720000D01*
%TO.C,C7*%
X138701920Y-84010000D02*
X138983080Y-84010000D01*
X138701920Y-82990000D02*
X138983080Y-82990000D01*
%TO.C,J2*%
X113870000Y-98730000D02*
X112540000Y-98730000D01*
X113870000Y-96130000D02*
X113870000Y-85910000D01*
X113870000Y-96130000D02*
X111210000Y-96130000D01*
X113870000Y-85910000D02*
X111210000Y-85910000D01*
X113870000Y-97400000D02*
X113870000Y-98730000D01*
X111210000Y-96130000D02*
X111210000Y-85910000D01*
%TO.C,L4*%
X152719721Y-87990000D02*
X153045279Y-87990000D01*
X152719721Y-89010000D02*
X153045279Y-89010000D01*
%TO.C,L1*%
X117060000Y-76850378D02*
X117060000Y-77649622D01*
X115940000Y-76850378D02*
X115940000Y-77649622D01*
%TO.C,R1*%
X114762742Y-82477500D02*
X115237258Y-82477500D01*
X114762742Y-83522500D02*
X115237258Y-83522500D01*
D11*
%TO.C,U2*%
X120525000Y-81975000D02*
X120525000Y-80865000D01*
X120525000Y-74135000D02*
X120525000Y-73025000D01*
X120525000Y-74135000D02*
X119400000Y-74135000D01*
X124675000Y-73025000D02*
X124675000Y-74135000D01*
X124675000Y-81975000D02*
X124675000Y-80865000D01*
X120525000Y-73025000D02*
X124675000Y-73025000D01*
X120525000Y-81975000D02*
X124675000Y-81975000D01*
%TD*%
%LPC*%
D13*
X135281107Y-75000000D02*
G75*
G03*
X135281107Y-75000000I-1281107J0D01*
G01*
D14*
%TO.C,U3*%
X153050000Y-81000000D03*
X152500000Y-81000000D03*
X151950000Y-81000000D03*
X151950000Y-82000000D03*
X152500000Y-82000000D03*
X153050000Y-82000000D03*
%TD*%
D15*
%TO.C,U9*%
X145287500Y-77750000D03*
X145287500Y-78250000D03*
X145287500Y-78750000D03*
X145287500Y-79250000D03*
D16*
X146000000Y-79962500D03*
X146500000Y-79962500D03*
X147000000Y-79962500D03*
X147500000Y-79962500D03*
D15*
X148212500Y-79250000D03*
X148212500Y-78750000D03*
X148212500Y-78250000D03*
X148212500Y-77750000D03*
D16*
X147500000Y-77037500D03*
X147000000Y-77037500D03*
X146500000Y-77037500D03*
X146000000Y-77037500D03*
D17*
X146750000Y-78500000D03*
%TD*%
D18*
%TO.C,R14*%
X142175000Y-76250000D03*
X143825000Y-76250000D03*
%TD*%
D19*
%TO.C,L5*%
X149750000Y-80462500D03*
X149750000Y-82037500D03*
%TD*%
D20*
%TO.C,C22*%
X151300000Y-79000000D03*
X149750000Y-79000000D03*
%TD*%
D21*
%TO.C,C21*%
X149750000Y-79000000D03*
X149750000Y-77450000D03*
%TD*%
D22*
%TO.C,C20*%
X146725000Y-82000000D03*
X148275000Y-82000000D03*
%TD*%
D20*
%TO.C,C9*%
X148275000Y-83500000D03*
X146725000Y-83500000D03*
%TD*%
D21*
%TO.C,C11*%
X153670000Y-85225000D03*
X153670000Y-86775000D03*
%TD*%
D20*
%TO.C,C8*%
X139592500Y-82000000D03*
X138042500Y-82000000D03*
%TD*%
D23*
%TO.C,C3*%
X126850000Y-76225000D03*
X126850000Y-77775000D03*
%TD*%
D20*
%TO.C,C15*%
X156550000Y-94500000D03*
X155000000Y-94500000D03*
%TD*%
D24*
%TO.C,U6*%
X153620000Y-90500000D03*
X152970000Y-90500000D03*
X152320000Y-90500000D03*
X151670000Y-90500000D03*
X151670000Y-94500000D03*
X152320000Y-94500000D03*
X152970000Y-94500000D03*
X153620000Y-94500000D03*
%TD*%
D25*
%TO.C,R8*%
X141250000Y-90785000D03*
X141250000Y-89135000D03*
%TD*%
D26*
%TO.C,J6*%
X148100000Y-94860000D03*
%TD*%
D21*
%TO.C,C17*%
X139750000Y-90735000D03*
X139750000Y-89185000D03*
%TD*%
D27*
%TO.C,U7*%
X137512500Y-90755000D03*
X137512500Y-90105000D03*
X137512500Y-89455000D03*
X137512500Y-88805000D03*
X133287500Y-88805000D03*
X133287500Y-89455000D03*
X133287500Y-90105000D03*
X133287500Y-90755000D03*
%TD*%
D28*
%TO.C,D1*%
X111212500Y-83000000D03*
X112787500Y-83000000D03*
%TD*%
D29*
%TO.C,L2*%
X138067500Y-80575000D03*
X138067500Y-79000000D03*
%TD*%
D21*
%TO.C,C2*%
X116500000Y-81775000D03*
X116500000Y-80225000D03*
%TD*%
D26*
%TO.C,J8*%
X127780000Y-92320000D03*
%TD*%
D22*
%TO.C,C1*%
X118410000Y-98000000D03*
X119960000Y-98000000D03*
%TD*%
D30*
%TO.C,J4*%
X149825000Y-73900000D03*
D31*
X147000000Y-74100000D03*
X152650000Y-74100000D03*
%TD*%
D32*
%TO.C,U8*%
X133025000Y-93055000D03*
X133025000Y-94325000D03*
X133025000Y-95595000D03*
X133025000Y-96865000D03*
X137975000Y-96865000D03*
X137975000Y-95595000D03*
X137975000Y-94325000D03*
X137975000Y-93055000D03*
%TD*%
D28*
%TO.C,D2*%
X111212500Y-84750000D03*
X112787500Y-84750000D03*
%TD*%
D33*
%TO.C,D3*%
X127500000Y-87310000D03*
X127500000Y-90610000D03*
%TD*%
D34*
%TO.C,R10*%
X131000000Y-93500000D03*
X129350000Y-93500000D03*
%TD*%
D23*
%TO.C,C16*%
X142500000Y-92685000D03*
X142500000Y-94235000D03*
%TD*%
D25*
%TO.C,R5*%
X129737500Y-79250000D03*
X129737500Y-77600000D03*
%TD*%
D34*
%TO.C,R13*%
X125825000Y-96500000D03*
X124175000Y-96500000D03*
%TD*%
D20*
%TO.C,C10*%
X144097500Y-79000000D03*
X142547500Y-79000000D03*
%TD*%
%TO.C,C12*%
X155220000Y-86750000D03*
X153670000Y-86750000D03*
%TD*%
D35*
%TO.C,R7*%
X142750000Y-89135000D03*
X142750000Y-90785000D03*
%TD*%
D33*
%TO.C,D4*%
X125250000Y-90610000D03*
X125250000Y-87310000D03*
%TD*%
D26*
%TO.C,J9*%
X127780000Y-94860000D03*
%TD*%
D36*
%TO.C,U1*%
X121975000Y-96310000D03*
X121975000Y-95040000D03*
X121975000Y-93770000D03*
X121975000Y-92500000D03*
X121975000Y-91230000D03*
X121975000Y-89960000D03*
X121975000Y-88690000D03*
X117025000Y-88690000D03*
X117025000Y-89960000D03*
X117025000Y-91230000D03*
X117025000Y-92500000D03*
X117025000Y-93770000D03*
X117025000Y-95040000D03*
X117025000Y-96310000D03*
%TD*%
D37*
%TO.C,U4*%
X144300000Y-91000000D03*
X145250000Y-91000000D03*
X146200000Y-91000000D03*
X146200000Y-88725000D03*
X144300000Y-88725000D03*
%TD*%
D17*
%TO.C,SW1*%
X125240000Y-84700000D03*
D38*
X127780000Y-84700000D03*
%TD*%
D25*
%TO.C,R12*%
X129500000Y-90285000D03*
X129500000Y-88635000D03*
%TD*%
D23*
%TO.C,C13*%
X150145000Y-90725000D03*
X150145000Y-92275000D03*
%TD*%
D35*
%TO.C,R3*%
X151000000Y-83250000D03*
X151000000Y-84900000D03*
%TD*%
D39*
%TO.C,Q1*%
X145937500Y-96910000D03*
X145937500Y-95010000D03*
X144062500Y-95960000D03*
%TD*%
D40*
%TO.C,J5*%
X159820000Y-86700000D03*
D41*
X159620000Y-89525000D03*
X159620000Y-83875000D03*
%TD*%
D18*
%TO.C,R2*%
X114175000Y-84750000D03*
X115825000Y-84750000D03*
%TD*%
D28*
%TO.C,L3*%
X139530000Y-79000000D03*
X141105000Y-79000000D03*
%TD*%
D20*
%TO.C,C5*%
X146025000Y-92750000D03*
X144475000Y-92750000D03*
%TD*%
D42*
%TO.C,U5*%
X136237500Y-80912500D03*
X136237500Y-80412500D03*
X136237500Y-79912500D03*
X136237500Y-79412500D03*
X136237500Y-78912500D03*
X131957500Y-78912500D03*
X131957500Y-79412500D03*
X131957500Y-79912500D03*
X131957500Y-80412500D03*
X131957500Y-80912500D03*
%TD*%
D18*
%TO.C,R6*%
X141345000Y-97460000D03*
X142995000Y-97460000D03*
%TD*%
%TO.C,R9*%
X131000000Y-87210000D03*
X132650000Y-87210000D03*
%TD*%
D21*
%TO.C,C19*%
X131000000Y-90235000D03*
X131000000Y-88685000D03*
%TD*%
D40*
%TO.C,J3*%
X159820000Y-81000000D03*
D41*
X159620000Y-78175000D03*
X159620000Y-83825000D03*
%TD*%
D25*
%TO.C,R11*%
X131000000Y-96535000D03*
X131000000Y-94885000D03*
%TD*%
D20*
%TO.C,C14*%
X156550000Y-96000000D03*
X155000000Y-96000000D03*
%TD*%
D21*
%TO.C,C4*%
X126850000Y-80775000D03*
X126850000Y-79225000D03*
%TD*%
D20*
%TO.C,C6*%
X146025000Y-87000000D03*
X144475000Y-87000000D03*
%TD*%
D43*
%TO.C,Y1*%
X134087500Y-82412500D03*
X132737500Y-82412500D03*
X132737500Y-83462500D03*
X134087500Y-83462500D03*
%TD*%
D35*
%TO.C,R4*%
X129737500Y-80675000D03*
X129737500Y-82325000D03*
%TD*%
D26*
%TO.C,J7*%
X140480000Y-92320000D03*
%TD*%
D44*
%TO.C,J1*%
X114150000Y-76200000D03*
X114150000Y-76850000D03*
X114150000Y-77500000D03*
X114150000Y-78150000D03*
X114150000Y-78800000D03*
D45*
X111450000Y-74000000D03*
D46*
X111450000Y-80400000D03*
D47*
X114150000Y-80000000D03*
D46*
X111450000Y-74600000D03*
D48*
X111450000Y-76500000D03*
D47*
X114150000Y-75000000D03*
D45*
X111450000Y-81000000D03*
D48*
X111450000Y-78500000D03*
%TD*%
D22*
%TO.C,C18*%
X134050000Y-87210000D03*
X135600000Y-87210000D03*
%TD*%
%TO.C,C7*%
X138067500Y-83500000D03*
X139617500Y-83500000D03*
%TD*%
D17*
%TO.C,J2*%
X112540000Y-97400000D03*
D38*
X112540000Y-94860000D03*
X112540000Y-92320000D03*
X112540000Y-89780000D03*
X112540000Y-87240000D03*
%TD*%
D28*
%TO.C,L4*%
X152095000Y-88500000D03*
X153670000Y-88500000D03*
%TD*%
D49*
%TO.C,L1*%
X116500000Y-76187500D03*
X116500000Y-78312500D03*
%TD*%
D18*
%TO.C,R1*%
X114175000Y-83000000D03*
X115825000Y-83000000D03*
%TD*%
D50*
%TO.C,U2*%
X120000000Y-74642500D03*
X120000000Y-75277500D03*
X120000000Y-75912500D03*
X120000000Y-76547500D03*
X120000000Y-77182500D03*
X120000000Y-77817500D03*
X120000000Y-78452500D03*
X120000000Y-79087500D03*
X120000000Y-79722500D03*
X120000000Y-80357500D03*
X125200000Y-80357500D03*
X125200000Y-79722500D03*
X125200000Y-79087500D03*
X125200000Y-78452500D03*
X125200000Y-77817500D03*
X125200000Y-77182500D03*
X125200000Y-76547500D03*
X125200000Y-75912500D03*
X125200000Y-75277500D03*
X125200000Y-74642500D03*
%TD*%
D51*
X151750000Y-93250000D03*
X152250000Y-89500000D03*
X157487060Y-96738791D03*
X157500000Y-93750000D03*
X146000000Y-85750000D03*
X149750000Y-85500000D03*
X142750000Y-83250000D03*
X140500000Y-81250000D03*
X140500000Y-82750000D03*
X137750000Y-76000000D03*
X136750000Y-77750000D03*
X152500000Y-78750000D03*
X148250000Y-77000000D03*
X148250000Y-80750000D03*
X145250000Y-80750000D03*
X147250000Y-80750000D03*
X146250000Y-80750000D03*
X148000000Y-80000000D03*
X145500000Y-80000000D03*
D52*
X146750000Y-78500000D03*
X146250000Y-79000000D03*
X147250000Y-79000000D03*
X147250000Y-78000000D03*
X146250000Y-78000000D03*
D51*
X145750000Y-82750000D03*
X152250000Y-84750000D03*
X154750000Y-82500000D03*
X154716236Y-79486558D03*
X156250000Y-79500000D03*
X152500000Y-80200000D03*
X144000000Y-84500000D03*
X141000000Y-76250000D03*
X141000000Y-77750000D03*
X144000000Y-77750000D03*
X139500000Y-77750000D03*
X142500000Y-77750000D03*
X156250000Y-91250000D03*
X151845000Y-77500000D03*
X157750000Y-76500000D03*
X120250000Y-90750000D03*
X155170000Y-85500000D03*
X147242857Y-87008577D03*
X156420000Y-83250000D03*
X142500000Y-80250000D03*
X116000000Y-98210000D03*
X118500000Y-96750000D03*
X135987500Y-83000000D03*
X121750000Y-86750000D03*
X119750000Y-93960000D03*
X157500000Y-95250000D03*
X151920000Y-86750000D03*
X152500000Y-82800000D03*
X123000000Y-84000000D03*
X155145000Y-88250000D03*
X147250000Y-92750000D03*
D53*
X134000000Y-75000000D03*
D51*
X153595000Y-77500000D03*
X117750000Y-73750000D03*
X136250000Y-88250000D03*
X156420000Y-84750000D03*
X150145000Y-94000000D03*
X154155000Y-73000000D03*
X160670000Y-91250000D03*
X159250000Y-91250000D03*
X139462500Y-80250000D03*
X135000000Y-96250000D03*
X145405000Y-76000000D03*
X154155000Y-76000000D03*
X125850000Y-81500000D03*
X134750000Y-93000000D03*
X160750000Y-76500000D03*
X121600000Y-78250000D03*
X134737500Y-78912500D03*
X145405000Y-74500000D03*
X156250000Y-89750000D03*
X157750000Y-91250000D03*
X140962500Y-80250000D03*
X123850000Y-77000000D03*
X145405000Y-73000000D03*
X133458769Y-80756889D03*
X156250000Y-78000000D03*
X152000000Y-91750000D03*
X159250000Y-76500000D03*
X144000000Y-80250000D03*
X127100000Y-74750000D03*
X131000000Y-91710000D03*
X154155000Y-74500000D03*
X133750000Y-91750000D03*
X144000000Y-94000000D03*
X117250000Y-79250000D03*
X138000000Y-91750000D03*
X153000000Y-97500000D03*
X121500000Y-97500000D03*
X137000000Y-87250000D03*
X118600000Y-76750000D03*
X123850000Y-74749018D03*
M02*
