%TF.GenerationSoftware,KiCad,Pcbnew,10.0.1*%
%TF.CreationDate,2026-05-24T00:29:44+02:00*%
%TF.ProjectId,DetectorReader,44657465-6374-46f7-9252-65616465722e,rev?*%
%TF.SameCoordinates,Original*%
%TF.FileFunction,Copper,L1,Top*%
%TF.FilePolarity,Positive*%
%FSLAX46Y46*%
G04 Gerber Fmt 4.6, Leading zero omitted, Abs format (unit mm)*
G04 Created by KiCad (PCBNEW 10.0.1) date 2026-05-24 00:29:44*
%MOMM*%
%LPD*%
G01*
G04 APERTURE LIST*
G04 Aperture macros list*
%AMRoundRect*
0 Rectangle with rounded corners*
0 $1 Rounding radius*
0 $2 $3 $4 $5 $6 $7 $8 $9 X,Y pos of 4 corners*
0 Add a 4 corners polygon primitive as box body*
4,1,4,$2,$3,$4,$5,$6,$7,$8,$9,$2,$3,0*
0 Add four circle primitives for the rounded corners*
1,1,$1+$1,$2,$3*
1,1,$1+$1,$4,$5*
1,1,$1+$1,$6,$7*
1,1,$1+$1,$8,$9*
0 Add four rect primitives between the rounded corners*
20,1,$1+$1,$2,$3,$4,$5,0*
20,1,$1+$1,$4,$5,$6,$7,0*
20,1,$1+$1,$6,$7,$8,$9,0*
20,1,$1+$1,$8,$9,$2,$3,0*%
G04 Aperture macros list end*
%TA.AperFunction,SMDPad,CuDef*%
%ADD10RoundRect,0.200000X0.200000X0.275000X-0.200000X0.275000X-0.200000X-0.275000X0.200000X-0.275000X0*%
%TD*%
%TA.AperFunction,SMDPad,CuDef*%
%ADD11RoundRect,0.062500X-0.062500X0.350000X-0.062500X-0.350000X0.062500X-0.350000X0.062500X0.350000X0*%
%TD*%
%TA.AperFunction,SMDPad,CuDef*%
%ADD12RoundRect,0.062500X-0.350000X0.062500X-0.350000X-0.062500X0.350000X-0.062500X0.350000X0.062500X0*%
%TD*%
%TA.AperFunction,HeatsinkPad*%
%ADD13R,2.600000X2.600000*%
%TD*%
%TA.AperFunction,SMDPad,CuDef*%
%ADD14RoundRect,0.225000X-0.250000X0.225000X-0.250000X-0.225000X0.250000X-0.225000X0.250000X0.225000X0*%
%TD*%
%TA.AperFunction,SMDPad,CuDef*%
%ADD15RoundRect,0.200000X-0.200000X-0.275000X0.200000X-0.275000X0.200000X0.275000X-0.200000X0.275000X0*%
%TD*%
%TA.AperFunction,ComponentPad*%
%ADD16C,1.700000*%
%TD*%
%TA.AperFunction,SMDPad,CuDef*%
%ADD17RoundRect,0.150000X0.587500X0.150000X-0.587500X0.150000X-0.587500X-0.150000X0.587500X-0.150000X0*%
%TD*%
%TA.AperFunction,SMDPad,CuDef*%
%ADD18RoundRect,0.225000X0.250000X-0.225000X0.250000X0.225000X-0.250000X0.225000X-0.250000X-0.225000X0*%
%TD*%
%TA.AperFunction,SMDPad,CuDef*%
%ADD19RoundRect,0.150000X-0.512500X-0.150000X0.512500X-0.150000X0.512500X0.150000X-0.512500X0.150000X0*%
%TD*%
%TA.AperFunction,SMDPad,CuDef*%
%ADD20RoundRect,0.218750X-0.256250X0.218750X-0.256250X-0.218750X0.256250X-0.218750X0.256250X0.218750X0*%
%TD*%
%TA.AperFunction,SMDPad,CuDef*%
%ADD21R,0.800000X1.200000*%
%TD*%
%TA.AperFunction,ComponentPad*%
%ADD22R,1.700000X1.700000*%
%TD*%
%TA.AperFunction,ComponentPad*%
%ADD23O,1.700000X1.700000*%
%TD*%
%TA.AperFunction,SMDPad,CuDef*%
%ADD24RoundRect,0.225000X0.225000X0.250000X-0.225000X0.250000X-0.225000X-0.250000X0.225000X-0.250000X0*%
%TD*%
%TA.AperFunction,SMDPad,CuDef*%
%ADD25RoundRect,0.200000X-0.275000X0.200000X-0.275000X-0.200000X0.275000X-0.200000X0.275000X0.200000X0*%
%TD*%
%TA.AperFunction,SMDPad,CuDef*%
%ADD26RoundRect,0.150000X-0.425000X0.150000X-0.425000X-0.150000X0.425000X-0.150000X0.425000X0.150000X0*%
%TD*%
%TA.AperFunction,SMDPad,CuDef*%
%ADD27RoundRect,0.075000X-0.500000X0.075000X-0.500000X-0.075000X0.500000X-0.075000X0.500000X0.075000X0*%
%TD*%
%TA.AperFunction,HeatsinkPad*%
%ADD28O,2.100000X1.000000*%
%TD*%
%TA.AperFunction,HeatsinkPad*%
%ADD29O,1.800000X1.000000*%
%TD*%
%TA.AperFunction,SMDPad,CuDef*%
%ADD30RoundRect,0.200000X0.275000X-0.200000X0.275000X0.200000X-0.275000X0.200000X-0.275000X-0.200000X0*%
%TD*%
%TA.AperFunction,SMDPad,CuDef*%
%ADD31RoundRect,0.150000X-0.825000X-0.150000X0.825000X-0.150000X0.825000X0.150000X-0.825000X0.150000X0*%
%TD*%
%TA.AperFunction,SMDPad,CuDef*%
%ADD32RoundRect,0.250000X1.350000X-0.385000X1.350000X0.385000X-1.350000X0.385000X-1.350000X-0.385000X0*%
%TD*%
%TA.AperFunction,SMDPad,CuDef*%
%ADD33RoundRect,0.250000X1.600000X-0.425000X1.600000X0.425000X-1.600000X0.425000X-1.600000X-0.425000X0*%
%TD*%
%TA.AperFunction,SMDPad,CuDef*%
%ADD34RoundRect,0.218750X-0.218750X-0.256250X0.218750X-0.256250X0.218750X0.256250X-0.218750X0.256250X0*%
%TD*%
%TA.AperFunction,SMDPad,CuDef*%
%ADD35RoundRect,0.075000X0.650000X0.075000X-0.650000X0.075000X-0.650000X-0.075000X0.650000X-0.075000X0*%
%TD*%
%TA.AperFunction,SMDPad,CuDef*%
%ADD36RoundRect,0.100000X-0.225000X-0.100000X0.225000X-0.100000X0.225000X0.100000X-0.225000X0.100000X0*%
%TD*%
%TA.AperFunction,SMDPad,CuDef*%
%ADD37R,0.900000X0.800000*%
%TD*%
%TA.AperFunction,SMDPad,CuDef*%
%ADD38RoundRect,0.150000X-0.587500X-0.150000X0.587500X-0.150000X0.587500X0.150000X-0.587500X0.150000X0*%
%TD*%
%TA.AperFunction,SMDPad,CuDef*%
%ADD39RoundRect,0.225000X-0.225000X-0.250000X0.225000X-0.250000X0.225000X0.250000X-0.225000X0.250000X0*%
%TD*%
%TA.AperFunction,ViaPad*%
%ADD40C,0.600000*%
%TD*%
%TA.AperFunction,Conductor*%
%ADD41C,0.300000*%
%TD*%
%TA.AperFunction,Conductor*%
%ADD42C,0.600000*%
%TD*%
%TA.AperFunction,Conductor*%
%ADD43C,0.250000*%
%TD*%
%TA.AperFunction,Conductor*%
%ADD44C,1.000000*%
%TD*%
G04 APERTURE END LIST*
D10*
%TO.P,R13,1*%
%TO.N,Net-(D2-COM)*%
X146825000Y-80000000D03*
%TO.P,R13,2*%
%TO.N,GND*%
X145175000Y-80000000D03*
%TD*%
D11*
%TO.P,U3,1,SCB_0/GPIO_6_1*%
%TO.N,/uartTx*%
X124850000Y-74062500D03*
%TO.P,U3,2,SCB_5/GPIO_7_2*%
%TO.N,unconnected-(U3-SCB_5{slash}GPIO_7-Pad2)*%
X124350000Y-74062500D03*
%TO.P,U3,3,VSSD_3*%
%TO.N,GND*%
X123850000Y-74062500D03*
%TO.P,U3,4,GPIO_8_4*%
%TO.N,unconnected-(U3-GPIO_8-Pad4)*%
X123350000Y-74062500D03*
%TO.P,U3,5,GPIO_9_5*%
%TO.N,unconnected-(U3-GPIO_9-Pad5)*%
X122850000Y-74062500D03*
%TO.P,U3,6,GPIO_10_6*%
%TO.N,unconnected-(U3-GPIO_10-Pad6)*%
X122350000Y-74062500D03*
D12*
%TO.P,U3,7,GPIO_11_7*%
%TO.N,unconnected-(U3-GPIO_11-Pad7)*%
X121662500Y-74750000D03*
%TO.P,U3,8,SUSPEND_8*%
%TO.N,unconnected-(U3-SUSPEND-Pad8)*%
X121662500Y-75250000D03*
%TO.P,U3,9,WAKEUP_9*%
%TO.N,unconnected-(U3-WAKEUP-Pad9)*%
X121662500Y-75750000D03*
%TO.P,U3,10,USBDP_10*%
%TO.N,/USB_P*%
X121662500Y-76250000D03*
%TO.P,U3,11,USBDM_11*%
%TO.N,/USB_N*%
X121662500Y-76750000D03*
%TO.P,U3,12,VCCD_12*%
%TO.N,Net-(U3-VCCD)*%
X121662500Y-77250000D03*
D11*
%TO.P,U3,13,VSSD_13*%
%TO.N,GND*%
X122350000Y-77937500D03*
%TO.P,U3,14,~{XRES}_14*%
%TO.N,unconnected-(U3-~{XRES}-Pad14)*%
X122850000Y-77937500D03*
%TO.P,U3,15,VBUS_15*%
%TO.N,+5V*%
X123350000Y-77937500D03*
%TO.P,U3,16,VSSD_16*%
%TO.N,GND*%
X123850000Y-77937500D03*
%TO.P,U3,17,VSSA_17*%
X124350000Y-77937500D03*
%TO.P,U3,18,GPIO_0_18*%
%TO.N,unconnected-(U3-GPIO_0-Pad18)*%
X124850000Y-77937500D03*
D12*
%TO.P,U3,19,GPIO_1_19*%
%TO.N,unconnected-(U3-GPIO_1-Pad19)*%
X125537500Y-77250000D03*
%TO.P,U3,20,SCB_1/GPIO_2_20*%
%TO.N,unconnected-(U3-SCB_1{slash}GPIO_2-Pad20)*%
X125537500Y-76750000D03*
%TO.P,U3,21,SCB_2/GPIO_3_21*%
%TO.N,unconnected-(U3-SCB_2{slash}GPIO_3-Pad21)*%
X125537500Y-76250000D03*
%TO.P,U3,22,SCB_3/GPIO_4_22*%
%TO.N,unconnected-(U3-SCB_3{slash}GPIO_4-Pad22)*%
X125537500Y-75750000D03*
%TO.P,U3,23,SCB_4/GPIO_5_23*%
%TO.N,/uartRx*%
X125537500Y-75250000D03*
%TO.P,U3,24,VDDD_24*%
%TO.N,+3V0*%
X125537500Y-74750000D03*
D13*
%TO.P,U3,25,1EP_25*%
%TO.N,unconnected-(U3-1EP-Pad25)*%
X123600000Y-76000000D03*
%TD*%
D14*
%TO.P,C7,1*%
%TO.N,GND*%
X134493750Y-74725000D03*
%TO.P,C7,2*%
%TO.N,+3V0*%
X134493750Y-76275000D03*
%TD*%
D15*
%TO.P,R6,1*%
%TO.N,Net-(U5-+)*%
X131475000Y-89500000D03*
%TO.P,R6,2*%
%TO.N,/TagPulses*%
X133125000Y-89500000D03*
%TD*%
D16*
%TO.P,TP2,1,1_1*%
%TO.N,/~{ReaderCmd}*%
X127040000Y-94860000D03*
%TD*%
D14*
%TO.P,C9,1*%
%TO.N,/RF_Tx/PAOut*%
X137593750Y-77800000D03*
%TO.P,C9,2*%
%TO.N,GND*%
X137593750Y-79350000D03*
%TD*%
D17*
%TO.P,Q2,1,B_1*%
%TO.N,Net-(Q2-B)*%
X141537500Y-89350000D03*
%TO.P,Q2,2,E_2*%
%TO.N,GND*%
X141537500Y-87450000D03*
%TO.P,Q2,3,C_3*%
%TO.N,/RF_Rx/AmpC*%
X139662500Y-88400000D03*
%TD*%
D14*
%TO.P,C14,1*%
%TO.N,+3V0*%
X136300000Y-86525000D03*
%TO.P,C14,2*%
%TO.N,/RF_Rx/AmpC*%
X136300000Y-88075000D03*
%TD*%
D18*
%TO.P,C16,1*%
%TO.N,/RF_Rx/Avr*%
X130000000Y-88675000D03*
%TO.P,C16,2*%
%TO.N,GND*%
X130000000Y-87125000D03*
%TD*%
D19*
%TO.P,U2,1,VIN_1*%
%TO.N,+5V*%
X122462500Y-81250000D03*
%TO.P,U2,2,GND_2*%
%TO.N,GND*%
X122462500Y-82200000D03*
%TO.P,U2,3,EN_3*%
%TO.N,+5V*%
X122462500Y-83150000D03*
%TO.P,U2,4,NC_4*%
%TO.N,unconnected-(U2-NC-Pad4)*%
X124737500Y-83150000D03*
%TO.P,U2,5,VOUT_5*%
%TO.N,+3V0*%
X124737500Y-81250000D03*
%TD*%
D20*
%TO.P,L1,1,1_1*%
%TO.N,+3V0*%
X136193750Y-76225000D03*
%TO.P,L1,2,2_2*%
%TO.N,/RF_Tx/PAOut*%
X136193750Y-77800000D03*
%TD*%
D18*
%TO.P,C3,1*%
%TO.N,GND*%
X119800000Y-82937500D03*
%TO.P,C3,2*%
%TO.N,+5V*%
X119800000Y-81387500D03*
%TD*%
D21*
%TO.P,D1,1,RK_1*%
%TO.N,/LEDRed*%
X115050000Y-92200000D03*
%TO.P,D1,2,A_2*%
%TO.N,Net-(D1-A)*%
X115050000Y-89400000D03*
%TO.P,D1,3,GK_3*%
%TO.N,/LEDGreen*%
X116550000Y-92200000D03*
%TO.P,D1,4,BK_4*%
%TO.N,/LEDBlue*%
X116550000Y-89400000D03*
%TD*%
D22*
%TO.P,J1,1,Pin_1_1*%
%TO.N,/UPDI*%
X111800000Y-94880000D03*
D23*
%TO.P,J1,2,Pin_2_2*%
%TO.N,GND*%
X111800000Y-92340000D03*
%TO.P,J1,3,Pin_3_3*%
%TO.N,+5V*%
X111800000Y-89800000D03*
%TO.P,J1,4,Pin_4_4*%
%TO.N,/uartTx*%
X111800000Y-87260000D03*
%TO.P,J1,5,Pin_5_5*%
%TO.N,/uartRx*%
X111800000Y-84720000D03*
%TD*%
D24*
%TO.P,C17,1*%
%TO.N,/RF_Rx/TagSignal*%
X144275000Y-91000000D03*
%TO.P,C17,2*%
%TO.N,Net-(Q2-B)*%
X142725000Y-91000000D03*
%TD*%
D16*
%TO.P,TP5,1,1_1*%
%TO.N,/RF_Rx/Amp*%
X134660000Y-92340000D03*
%TD*%
D25*
%TO.P,R3,1*%
%TO.N,Net-(J3-CC2)*%
X119800000Y-78475000D03*
%TO.P,R3,2*%
%TO.N,GND*%
X119800000Y-80125000D03*
%TD*%
D15*
%TO.P,R5,1*%
%TO.N,/~{ReaderCmd}*%
X128975000Y-95000000D03*
%TO.P,R5,2*%
%TO.N,Net-(Q1-B)*%
X130625000Y-95000000D03*
%TD*%
D24*
%TO.P,C1,1*%
%TO.N,GND*%
X121875000Y-85000000D03*
%TO.P,C1,2*%
%TO.N,+3V0*%
X120325000Y-85000000D03*
%TD*%
D26*
%TO.P,J3,A1,GND_A1*%
%TO.N,GND*%
X117380000Y-74300000D03*
%TO.P,J3,A4,VBUS_A4*%
%TO.N,+5V*%
X117380000Y-75100000D03*
D27*
%TO.P,J3,A5,CC1_A5*%
%TO.N,Net-(J3-CC1)*%
X117380000Y-76250000D03*
%TO.P,J3,A6,D+_A6*%
%TO.N,/USB_P*%
X117380000Y-77250000D03*
%TO.P,J3,A7,D-_A7*%
%TO.N,/USB_N*%
X117380000Y-77750000D03*
%TO.P,J3,A8,SBU1_A8*%
%TO.N,unconnected-(J3-SBU1-PadA8)*%
X117380000Y-78750000D03*
D26*
%TO.P,J3,A9,VBUS_A9*%
%TO.N,+5V*%
X117380000Y-79900000D03*
%TO.P,J3,A12,GND_A12*%
%TO.N,GND*%
X117380000Y-80700000D03*
%TO.P,J3,B1,GND_B1*%
X117380000Y-80700000D03*
%TO.P,J3,B4,VBUS_B4*%
%TO.N,+5V*%
X117380000Y-79900000D03*
D27*
%TO.P,J3,B5,CC2_B5*%
%TO.N,Net-(J3-CC2)*%
X117380000Y-79250000D03*
%TO.P,J3,B6,D+_B6*%
%TO.N,/USB_P*%
X117380000Y-78250000D03*
%TO.P,J3,B7,D-_B7*%
%TO.N,/USB_N*%
X117380000Y-76750000D03*
%TO.P,J3,B8,SBU2_B8*%
%TO.N,unconnected-(J3-SBU2-PadB8)*%
X117380000Y-75750000D03*
D26*
%TO.P,J3,B9,VBUS_B9*%
%TO.N,+5V*%
X117380000Y-75100000D03*
%TO.P,J3,B12,GND_B12*%
%TO.N,GND*%
X117380000Y-74300000D03*
D28*
%TO.P,J3,S1,SHIELD_S1*%
X116805000Y-73180000D03*
D29*
X112625000Y-73180000D03*
D28*
X116805000Y-81820000D03*
D29*
X112625000Y-81820000D03*
%TD*%
D25*
%TO.P,R9,1*%
%TO.N,/RF_Rx/AmpC*%
X137800000Y-89475000D03*
%TO.P,R9,2*%
%TO.N,/RF_Rx/Amp*%
X137800000Y-91125000D03*
%TD*%
D24*
%TO.P,C8,1*%
%TO.N,/RF_Rx/DetectorIn*%
X144768750Y-77800000D03*
%TO.P,C8,2*%
%TO.N,/RF_Tx/PAMatched*%
X143218750Y-77800000D03*
%TD*%
D18*
%TO.P,C12,1*%
%TO.N,Net-(D2-COM)*%
X148300000Y-79350000D03*
%TO.P,C12,2*%
%TO.N,/RF_Rx/DetectorIn*%
X148300000Y-77800000D03*
%TD*%
D30*
%TO.P,R2,1*%
%TO.N,Net-(J3-CC1)*%
X119800000Y-74825000D03*
%TO.P,R2,2*%
%TO.N,GND*%
X119800000Y-73175000D03*
%TD*%
D16*
%TO.P,TP1,1,1_1*%
%TO.N,/SPI.MOSI*%
X127040000Y-87240000D03*
%TD*%
D31*
%TO.P,U1,1,VCC_1*%
%TO.N,+3V0*%
X118425000Y-86590000D03*
%TO.P,U1,2,PA4_2*%
%TO.N,/SPI.~{CS}*%
X118425000Y-87860000D03*
%TO.P,U1,3,PA5_3*%
%TO.N,/LEDBlue*%
X118425000Y-89130000D03*
%TO.P,U1,4,PA6_4*%
%TO.N,/LEDRed*%
X118425000Y-90400000D03*
%TO.P,U1,5,PA7_5*%
%TO.N,/LEDGreen*%
X118425000Y-91670000D03*
%TO.P,U1,6,PB3_6*%
%TO.N,/uartRx*%
X118425000Y-92940000D03*
%TO.P,U1,7,PB2_7*%
%TO.N,/uartTx*%
X118425000Y-94210000D03*
%TO.P,U1,8,PB1_8*%
%TO.N,/~{ReaderCmd}*%
X123375000Y-94210000D03*
%TO.P,U1,9,PB0_9*%
%TO.N,/TagPulses*%
X123375000Y-92940000D03*
%TO.P,U1,10,~{RESET}/PA0_10*%
%TO.N,/UPDI*%
X123375000Y-91670000D03*
%TO.P,U1,11,PA1_11*%
%TO.N,/SPI.MOSI*%
X123375000Y-90400000D03*
%TO.P,U1,12,PA2_12*%
%TO.N,/SPI.MISO*%
X123375000Y-89130000D03*
%TO.P,U1,13,PA3_13*%
%TO.N,/SPI.SCK*%
X123375000Y-87860000D03*
%TO.P,U1,14,GND_14*%
%TO.N,GND*%
X123375000Y-86590000D03*
%TD*%
D25*
%TO.P,R4,1*%
%TO.N,GND*%
X141200000Y-81275000D03*
%TO.P,R4,2*%
%TO.N,/RF_Rx/Signal*%
X141200000Y-82925000D03*
%TD*%
D18*
%TO.P,C13,1*%
%TO.N,/RF_Rx/Signal*%
X142700000Y-82875000D03*
%TO.P,C13,2*%
%TO.N,GND*%
X142700000Y-81325000D03*
%TD*%
D32*
%TO.P,J4,1,In_1*%
%TO.N,Net-(J4-In)*%
X154000000Y-92000000D03*
D33*
%TO.P,J4,2,Ext_2*%
%TO.N,GND*%
X153750000Y-89175000D03*
X153750000Y-94825000D03*
%TD*%
D34*
%TO.P,L2,1,1_1*%
%TO.N,/RF_Tx/PAOut*%
X139006250Y-77800000D03*
%TO.P,L2,2,2_2*%
%TO.N,/RF_Tx/PAMatched*%
X140581250Y-77800000D03*
%TD*%
D35*
%TO.P,U4,1,XTAL2_1*%
%TO.N,Net-(U4-XTAL2)*%
X134493750Y-79800000D03*
%TO.P,U4,2,GND_2*%
%TO.N,GND*%
X134493750Y-79300000D03*
%TO.P,U4,3,VDD_3*%
%TO.N,+3V0*%
X134493750Y-78800000D03*
%TO.P,U4,4,GND_PA_4*%
%TO.N,GND*%
X134493750Y-78300000D03*
%TO.P,U4,5,PA_5*%
%TO.N,/RF_Tx/PAOut*%
X134493750Y-77800000D03*
%TO.P,U4,6,CLKOUT/SDO_6*%
%TO.N,/SPI.MISO*%
X130093750Y-77800000D03*
%TO.P,U4,7,DATA/SDI_7*%
%TO.N,/SPI.MOSI*%
X130093750Y-78300000D03*
%TO.P,U4,8,SCLK_8*%
%TO.N,/SPI.SCK*%
X130093750Y-78800000D03*
%TO.P,U4,9,CSB/PDNB_9*%
%TO.N,/SPI.~{CS}*%
X130093750Y-79300000D03*
%TO.P,U4,10,XTAL1_10*%
%TO.N,Net-(U4-XTAL1)*%
X130093750Y-79800000D03*
%TD*%
D25*
%TO.P,R8,1*%
%TO.N,+3V0*%
X134800000Y-86475000D03*
%TO.P,R8,2*%
%TO.N,/TagPulses*%
X134800000Y-88125000D03*
%TD*%
D30*
%TO.P,R10,1*%
%TO.N,/RF_Rx/Amp*%
X130000000Y-92525000D03*
%TO.P,R10,2*%
%TO.N,/RF_Rx/Avr*%
X130000000Y-90875000D03*
%TD*%
D16*
%TO.P,TP4,1,1_1*%
%TO.N,/RF_Rx/Signal*%
X142280000Y-84720000D03*
%TD*%
D36*
%TO.P,U5,1,+_1*%
%TO.N,Net-(U5-+)*%
X131450000Y-86650000D03*
%TO.P,U5,2,V-_2*%
%TO.N,GND*%
X131450000Y-87300000D03*
%TO.P,U5,3,-_3*%
%TO.N,/RF_Rx/Avr*%
X131450000Y-87950000D03*
%TO.P,U5,4*%
%TO.N,/TagPulses*%
X133350000Y-87950000D03*
%TO.P,U5,5,V+_5*%
%TO.N,+3V0*%
X133350000Y-86650000D03*
%TD*%
D15*
%TO.P,R12,1*%
%TO.N,/RF_Rx/AmpC*%
X139575000Y-91000000D03*
%TO.P,R12,2*%
%TO.N,Net-(Q2-B)*%
X141225000Y-91000000D03*
%TD*%
D18*
%TO.P,C5,1*%
%TO.N,GND*%
X121300000Y-80075000D03*
%TO.P,C5,2*%
%TO.N,Net-(U3-VCCD)*%
X121300000Y-78525000D03*
%TD*%
D32*
%TO.P,J2,1,In_1*%
%TO.N,/RF_Rx/DetectorIn*%
X154000000Y-77000000D03*
D33*
%TO.P,J2,2,Ext_2*%
%TO.N,GND*%
X153750000Y-74175000D03*
X153750000Y-79825000D03*
%TD*%
D17*
%TO.P,Q1,1,B_1*%
%TO.N,Net-(Q1-B)*%
X145637500Y-89350000D03*
%TO.P,Q1,2,E_2*%
%TO.N,/RF_Rx/Signal*%
X145637500Y-87450000D03*
%TO.P,Q1,3,C_3*%
%TO.N,/RF_Rx/TagSignal*%
X143762500Y-88400000D03*
%TD*%
D25*
%TO.P,R7,1*%
%TO.N,+3V0*%
X137800000Y-86475000D03*
%TO.P,R7,2*%
%TO.N,/RF_Rx/AmpC*%
X137800000Y-88125000D03*
%TD*%
D18*
%TO.P,C15,1*%
%TO.N,/RF_Rx/Amp*%
X136300000Y-91075000D03*
%TO.P,C15,2*%
%TO.N,GND*%
X136300000Y-89525000D03*
%TD*%
D37*
%TO.P,Y1,1,1_1*%
%TO.N,Net-(U4-XTAL2)*%
X132893750Y-81450000D03*
%TO.P,Y1,2,2_2*%
%TO.N,GND*%
X131493750Y-81450000D03*
%TO.P,Y1,3,3_3*%
%TO.N,Net-(U4-XTAL1)*%
X131493750Y-82550000D03*
%TO.P,Y1,4,4_4*%
%TO.N,GND*%
X132893750Y-82550000D03*
%TD*%
D18*
%TO.P,C11,1*%
%TO.N,Net-(J4-In)*%
X148300000Y-80900000D03*
%TO.P,C11,2*%
%TO.N,Net-(D2-COM)*%
X148300000Y-79350000D03*
%TD*%
%TO.P,C6,1*%
%TO.N,+3V0*%
X132193750Y-76275000D03*
%TO.P,C6,2*%
%TO.N,GND*%
X132193750Y-74725000D03*
%TD*%
D38*
%TO.P,D2,1,A_1*%
%TO.N,GND*%
X144662500Y-81550000D03*
%TO.P,D2,2,K_2*%
%TO.N,/RF_Rx/Signal*%
X144662500Y-83450000D03*
%TO.P,D2,3,COM_3*%
%TO.N,Net-(D2-COM)*%
X146537500Y-82500000D03*
%TD*%
D30*
%TO.P,R11,1*%
%TO.N,/RF_Rx/Amp*%
X131500000Y-92525000D03*
%TO.P,R11,2*%
%TO.N,Net-(U5-+)*%
X131500000Y-90875000D03*
%TD*%
D25*
%TO.P,R1,1*%
%TO.N,+3V0*%
X116200000Y-86075000D03*
%TO.P,R1,2*%
%TO.N,Net-(D1-A)*%
X116200000Y-87725000D03*
%TD*%
D39*
%TO.P,C4,1*%
%TO.N,GND*%
X123925000Y-79900000D03*
%TO.P,C4,2*%
%TO.N,+3V0*%
X125475000Y-79900000D03*
%TD*%
D14*
%TO.P,C10,1*%
%TO.N,/RF_Tx/PAMatched*%
X141893750Y-77800000D03*
%TO.P,C10,2*%
%TO.N,GND*%
X141893750Y-79350000D03*
%TD*%
D16*
%TO.P,TP3,1,1_1*%
%TO.N,/TagPulses*%
X127040000Y-92320000D03*
%TD*%
D40*
%TO.N,GND*%
X135793750Y-78800000D03*
X153000000Y-93300000D03*
X149500000Y-89500000D03*
X137293750Y-76700000D03*
X146000000Y-78900000D03*
X140893750Y-76700000D03*
X152000000Y-88000000D03*
X121500000Y-94280000D03*
X149000000Y-75700000D03*
X147200000Y-89480000D03*
X133293750Y-79500000D03*
X120500000Y-79600000D03*
X148000000Y-76500000D03*
X120800000Y-74200000D03*
X127400000Y-72900000D03*
X149400000Y-81500000D03*
X138893750Y-78900000D03*
X114900000Y-96100000D03*
X152000000Y-73000000D03*
X149400000Y-79500000D03*
X155000000Y-90700000D03*
X152000000Y-96000000D03*
X135200000Y-89400000D03*
X155000000Y-93300000D03*
X151000000Y-90700000D03*
X146000000Y-76700000D03*
X138893750Y-76700000D03*
X149400000Y-87500000D03*
X155000000Y-88000000D03*
X133293750Y-78100000D03*
X155000000Y-75700000D03*
X155000000Y-78300000D03*
X121000000Y-82200000D03*
X155000000Y-81000000D03*
X149400000Y-85500000D03*
X155000000Y-96000000D03*
X114300000Y-77700000D03*
X149400000Y-83500000D03*
X147200000Y-87500000D03*
X149100000Y-92280000D03*
X124200000Y-78900000D03*
X121800000Y-86300000D03*
X153000000Y-75700000D03*
X151000000Y-93300000D03*
X135593750Y-75200000D03*
X140893750Y-78900000D03*
X134193750Y-83100000D03*
X153000000Y-90700000D03*
X131093750Y-75200000D03*
X140000000Y-81200000D03*
X144100000Y-80200000D03*
X147200000Y-83500000D03*
X130800000Y-96200000D03*
X118700000Y-84100000D03*
X151000000Y-75700000D03*
X151000000Y-78300000D03*
X147200000Y-85500000D03*
X155000000Y-73000000D03*
X129500000Y-86000000D03*
X142893750Y-76700000D03*
X152000000Y-81000000D03*
X133393750Y-75200000D03*
X153000000Y-78300000D03*
X147800000Y-90980000D03*
X142893750Y-78900000D03*
%TO.N,+5V*%
X114800000Y-87500000D03*
%TO.N,+3V0*%
X129200000Y-81400000D03*
X125500000Y-79100000D03*
%TO.N,/uartTx*%
X124700000Y-72775000D03*
%TO.N,/uartRx*%
X126400000Y-75400000D03*
%TO.N,/USB_N*%
X118450000Y-77850000D03*
X116391373Y-76681021D03*
%TD*%
%TO.N,GND*%
D41*
X135393750Y-78300000D02*
X134493750Y-78300000D01*
D42*
X119975000Y-80125000D02*
X120500000Y-79600000D01*
D41*
X135793750Y-78800000D02*
X135793750Y-78700000D01*
D42*
X119800000Y-80125000D02*
X119975000Y-80125000D01*
D41*
X133493750Y-79300000D02*
X133293750Y-79500000D01*
X130175000Y-87300000D02*
X130000000Y-87125000D01*
D42*
X120975000Y-80075000D02*
X120500000Y-79600000D01*
D43*
X121300000Y-80062190D02*
X121300000Y-80075000D01*
D41*
X131450000Y-87300000D02*
X130175000Y-87300000D01*
X133293750Y-78100000D02*
X133493750Y-78300000D01*
X133493750Y-78300000D02*
X134493750Y-78300000D01*
D43*
X123850000Y-74062500D02*
X123850000Y-73350000D01*
D41*
X134493750Y-79300000D02*
X133493750Y-79300000D01*
X135793750Y-78900000D02*
X135393750Y-79300000D01*
X135793750Y-78800000D02*
X135793750Y-78900000D01*
D42*
X121300000Y-80075000D02*
X120975000Y-80075000D01*
D43*
X122350000Y-79025000D02*
X121300000Y-80075000D01*
D41*
X135793750Y-78700000D02*
X135393750Y-78300000D01*
X135393750Y-79300000D02*
X134493750Y-79300000D01*
D42*
X121250000Y-80125000D02*
X121300000Y-80075000D01*
D43*
X122350000Y-77937500D02*
X122350000Y-79025000D01*
D42*
X119800000Y-80125000D02*
X121250000Y-80125000D01*
%TO.N,+5V*%
X118787500Y-81387500D02*
X118700000Y-81300000D01*
D41*
X116805001Y-79900000D02*
X117380000Y-79900000D01*
D43*
X122462500Y-79837500D02*
X122462500Y-81250000D01*
D41*
X117380000Y-75100000D02*
X116800000Y-75100000D01*
D42*
X115600000Y-84400000D02*
X117000000Y-84400000D01*
X119937500Y-81250000D02*
X119800000Y-81387500D01*
X122462500Y-81250000D02*
X119937500Y-81250000D01*
D41*
X123575000Y-81555000D02*
X123270000Y-81250000D01*
D43*
X123350000Y-77937500D02*
X123350000Y-78950000D01*
D42*
X117000000Y-84400000D02*
X118700000Y-82700000D01*
X114800000Y-85200000D02*
X115600000Y-84400000D01*
D41*
X122462500Y-83150000D02*
X123250000Y-83150000D01*
D42*
X114800000Y-87500000D02*
X114800000Y-85200000D01*
D41*
X123270000Y-81250000D02*
X122462500Y-81250000D01*
X115700000Y-76200000D02*
X115700000Y-78794999D01*
X116800000Y-75100000D02*
X115700000Y-76200000D01*
D43*
X123350000Y-78950000D02*
X122462500Y-79837500D01*
D41*
X115700000Y-78794999D02*
X116805001Y-79900000D01*
D42*
X118300000Y-79900000D02*
X117380000Y-79900000D01*
D41*
X123250000Y-83150000D02*
X123575000Y-82825000D01*
D42*
X118700000Y-81300000D02*
X118700000Y-80300000D01*
X119800000Y-81387500D02*
X118787500Y-81387500D01*
X118700000Y-80300000D02*
X118300000Y-79900000D01*
D41*
X123575000Y-82825000D02*
X123575000Y-81555000D01*
D42*
X118700000Y-82700000D02*
X118700000Y-81300000D01*
%TO.N,/RF_Rx/DetectorIn*%
D44*
X148300000Y-77800000D02*
X149100000Y-77000000D01*
X144768750Y-77800000D02*
X148300000Y-77800000D01*
X149100000Y-77000000D02*
X154000000Y-77000000D01*
%TO.N,+3V0*%
D41*
X120325000Y-85000000D02*
X120325000Y-84475000D01*
D42*
X124737500Y-81250000D02*
X125150000Y-81250000D01*
D41*
X126200000Y-83300000D02*
X126200000Y-80300000D01*
D42*
X132200000Y-85180000D02*
X133495000Y-86475000D01*
D41*
X125500000Y-84000000D02*
X126200000Y-83300000D01*
D43*
X128100000Y-76100000D02*
X126750000Y-74750000D01*
D41*
X118410000Y-86575000D02*
X118410000Y-85690000D01*
D43*
X126750000Y-74750000D02*
X125537500Y-74750000D01*
X128100000Y-76200000D02*
X128100000Y-76100000D01*
D41*
X116715000Y-86590000D02*
X116200000Y-86075000D01*
X118425000Y-86590000D02*
X118410000Y-86575000D01*
X132193750Y-78200000D02*
X132193750Y-76275000D01*
D42*
X125150000Y-81250000D02*
X125475000Y-80925000D01*
X125475000Y-80925000D02*
X125475000Y-79900000D01*
X133495000Y-86475000D02*
X137800000Y-86475000D01*
X136168750Y-76200000D02*
X136193750Y-76225000D01*
X125475000Y-79125000D02*
X125500000Y-79100000D01*
D41*
X134493750Y-78800000D02*
X132793750Y-78800000D01*
X120800000Y-84000000D02*
X125500000Y-84000000D01*
X118410000Y-85690000D02*
X119100000Y-85000000D01*
X125800000Y-79900000D02*
X125475000Y-79900000D01*
X126200000Y-80300000D02*
X125800000Y-79900000D01*
D42*
X128100000Y-76200000D02*
X125500000Y-78800000D01*
D41*
X118425000Y-86590000D02*
X116715000Y-86590000D01*
X120325000Y-84475000D02*
X120800000Y-84000000D01*
D42*
X128100000Y-76200000D02*
X136168750Y-76200000D01*
X125475000Y-79900000D02*
X125475000Y-79125000D01*
X125500000Y-78800000D02*
X125500000Y-79100000D01*
X130300000Y-85180000D02*
X132200000Y-85180000D01*
X129200000Y-84080000D02*
X130300000Y-85180000D01*
D41*
X132793750Y-78800000D02*
X132193750Y-78200000D01*
X119100000Y-85000000D02*
X120325000Y-85000000D01*
D42*
X129200000Y-81400000D02*
X129200000Y-84080000D01*
%TO.N,/RF_Tx/PAMatched*%
D44*
X140581250Y-77800000D02*
X143218750Y-77800000D01*
%TO.N,/RF_Rx/Signal*%
D41*
X142825000Y-82925000D02*
X143350000Y-83450000D01*
X143360000Y-83640000D02*
X142280000Y-84720000D01*
D43*
X145106250Y-83450000D02*
X144662500Y-83450000D01*
D41*
X143350000Y-83450000D02*
X143360000Y-83460000D01*
X142200000Y-84640000D02*
X142280000Y-84720000D01*
X143360000Y-83460000D02*
X143360000Y-83640000D01*
X144637500Y-83475000D02*
X144662500Y-83450000D01*
X143350000Y-83450000D02*
X144662500Y-83450000D01*
D43*
X145637500Y-87450000D02*
X145637500Y-83981250D01*
D41*
X141200000Y-82925000D02*
X142825000Y-82925000D01*
D43*
X145637500Y-83981250D02*
X145106250Y-83450000D01*
%TO.N,/UPDI*%
D41*
X122652678Y-91670000D02*
X119442678Y-94880000D01*
X119442678Y-94880000D02*
X111800000Y-94880000D01*
X123375000Y-91670000D02*
X122652678Y-91670000D01*
%TO.N,Net-(U3-VCCD)*%
D43*
X121662500Y-77250000D02*
X121662500Y-78162500D01*
X121562500Y-78262500D02*
X121300000Y-78525000D01*
X121662500Y-78162500D02*
X121300000Y-78525000D01*
%TO.N,Net-(D2-COM)*%
D42*
X148300000Y-79350000D02*
X147437500Y-79350000D01*
X146787500Y-82250000D02*
X146537500Y-82500000D01*
X147437500Y-79350000D02*
X146787500Y-80000000D01*
X146787500Y-80000000D02*
X146787500Y-82250000D01*
%TO.N,Net-(J4-In)*%
D44*
X148300000Y-89900000D02*
X150400000Y-92000000D01*
X150400000Y-92000000D02*
X154000000Y-92000000D01*
X148300000Y-80900000D02*
X148300000Y-89900000D01*
%TO.N,/RF_Tx/PAOut*%
X136193750Y-77800000D02*
X139006250Y-77800000D01*
D41*
X134493750Y-77800000D02*
X136193750Y-77800000D01*
%TO.N,Net-(Q1-B)*%
X145637500Y-94342500D02*
X145637500Y-89350000D01*
X130625000Y-95000000D02*
X144980000Y-95000000D01*
X144980000Y-95000000D02*
X145637500Y-94342500D01*
%TO.N,Net-(Q2-B)*%
X141225000Y-91000000D02*
X141225000Y-89350000D01*
X142725000Y-91000000D02*
X141225000Y-91000000D01*
%TO.N,/RF_Rx/AmpC*%
X139575000Y-88487500D02*
X139662500Y-88400000D01*
X139575000Y-91000000D02*
X139575000Y-88487500D01*
X138620000Y-88400000D02*
X139662500Y-88400000D01*
X137750000Y-88075000D02*
X137800000Y-88125000D01*
X137800000Y-89475000D02*
X137800000Y-88125000D01*
X137800000Y-88125000D02*
X138345000Y-88125000D01*
X136300000Y-88075000D02*
X137750000Y-88075000D01*
X138345000Y-88125000D02*
X138620000Y-88400000D01*
%TO.N,/uartTx*%
D43*
X124850000Y-74062500D02*
X124850000Y-72925000D01*
D41*
X113100000Y-88560000D02*
X111800000Y-87260000D01*
X113100000Y-93180000D02*
X113100000Y-88560000D01*
X114130000Y-94210000D02*
X113100000Y-93180000D01*
D43*
X124850000Y-72925000D02*
X124700000Y-72775000D01*
D41*
X118425000Y-94210000D02*
X114130000Y-94210000D01*
%TO.N,/uartRx*%
X114400000Y-93480000D02*
X113665884Y-92745884D01*
X113665884Y-86585884D02*
X111800000Y-84720000D01*
D43*
X126250000Y-75250000D02*
X126400000Y-75400000D01*
D41*
X117440000Y-92940000D02*
X116900000Y-93480000D01*
X116900000Y-93480000D02*
X114400000Y-93480000D01*
X118425000Y-92940000D02*
X117440000Y-92940000D01*
D43*
X125537500Y-75250000D02*
X126250000Y-75250000D01*
D41*
X113665884Y-92745884D02*
X113665884Y-86585884D01*
%TO.N,Net-(D1-A)*%
X115050000Y-89400000D02*
X115050000Y-88550000D01*
X115875000Y-87725000D02*
X116200000Y-87725000D01*
X115050000Y-88550000D02*
X115875000Y-87725000D01*
%TO.N,/TagPulses*%
X134625000Y-87950000D02*
X134800000Y-88125000D01*
X133125000Y-88175000D02*
X133350000Y-87950000D01*
X133350000Y-87950000D02*
X134625000Y-87950000D01*
X133125000Y-89500000D02*
X133125000Y-88175000D01*
X127040000Y-92320000D02*
X127680000Y-91680000D01*
X132600000Y-91680000D02*
X133125000Y-91155000D01*
X126420000Y-92940000D02*
X127040000Y-92320000D01*
X133125000Y-91155000D02*
X133125000Y-89500000D01*
X123375000Y-92940000D02*
X126420000Y-92940000D01*
X127680000Y-91680000D02*
X132600000Y-91680000D01*
%TO.N,/RF_Rx/Amp*%
X134475000Y-92525000D02*
X134660000Y-92340000D01*
X135875000Y-91125000D02*
X134660000Y-92340000D01*
X130000000Y-92525000D02*
X134475000Y-92525000D01*
X137800000Y-91125000D02*
X135875000Y-91125000D01*
%TO.N,/RF_Rx/Avr*%
X131450000Y-87950000D02*
X130725000Y-87950000D01*
X130000000Y-88675000D02*
X130000000Y-90875000D01*
X130725000Y-87950000D02*
X130000000Y-88675000D01*
%TO.N,Net-(J3-CC1)*%
D43*
X118150000Y-76250000D02*
X119575000Y-74825000D01*
X117380000Y-76250000D02*
X118150000Y-76250000D01*
X119575000Y-74825000D02*
X119900000Y-74825000D01*
%TO.N,Net-(J3-CC2)*%
X119400000Y-78475000D02*
X119800000Y-78475000D01*
X118625000Y-79250000D02*
X119400000Y-78475000D01*
X117380000Y-79250000D02*
X118625000Y-79250000D01*
%TO.N,Net-(U5-+)*%
D41*
X131450000Y-86650000D02*
X131970000Y-86650000D01*
X131970000Y-86650000D02*
X132200000Y-86880000D01*
X132200000Y-88775000D02*
X131475000Y-89500000D01*
X132200000Y-86880000D02*
X132200000Y-88775000D01*
X131475000Y-89500000D02*
X131475000Y-90850000D01*
X131475000Y-90850000D02*
X131500000Y-90875000D01*
%TO.N,/RF_Rx/TagSignal*%
X144275000Y-91000000D02*
X144275000Y-90155000D01*
X143762500Y-89642500D02*
X143762500Y-88400000D01*
X144275000Y-90155000D02*
X143762500Y-89642500D01*
%TO.N,/SPI.MOSI*%
D43*
X127900000Y-84100000D02*
X127900000Y-79300000D01*
X123375000Y-90400000D02*
X124700000Y-90400000D01*
X127040000Y-84960000D02*
X127900000Y-84100000D01*
X127900000Y-79300000D02*
X128900000Y-78300000D01*
X124700000Y-90400000D02*
X127040000Y-88060000D01*
X127040000Y-87240000D02*
X127040000Y-84960000D01*
X129200000Y-78300000D02*
X129600000Y-78300000D01*
X128900000Y-78300000D02*
X130200000Y-78300000D01*
X127040000Y-88060000D02*
X127040000Y-87240000D01*
%TO.N,/SPI.SCK*%
X124850000Y-87550000D02*
X124540000Y-87860000D01*
X126813500Y-83586500D02*
X124850000Y-85550000D01*
X131144750Y-78543178D02*
X131144750Y-77556822D01*
X131144750Y-77556822D02*
X130911928Y-77324000D01*
X124850000Y-85550000D02*
X124850000Y-87550000D01*
X128276000Y-77324000D02*
X126813500Y-78786500D01*
X126813500Y-78786500D02*
X126813500Y-83586500D01*
X130093750Y-78800000D02*
X130887928Y-78800000D01*
X124540000Y-87860000D02*
X123375000Y-87860000D01*
X130911928Y-77324000D02*
X128276000Y-77324000D01*
X130887928Y-78800000D02*
X131144750Y-78543178D01*
%TO.N,/SPI.MISO*%
X123375000Y-89130000D02*
X124670000Y-89130000D01*
X125500000Y-88300000D02*
X125500000Y-85700000D01*
X127300000Y-79100000D02*
X128600000Y-77800000D01*
X128600000Y-77800000D02*
X130093750Y-77800000D01*
X127300000Y-83900000D02*
X127300000Y-79100000D01*
X124670000Y-89130000D02*
X125500000Y-88300000D01*
X125500000Y-85700000D02*
X127300000Y-83900000D01*
%TO.N,/SPI.~{CS}*%
X122348678Y-91026000D02*
X119182678Y-87860000D01*
X128700000Y-79300000D02*
X128418905Y-79581095D01*
X129900000Y-79300000D02*
X128700000Y-79300000D01*
X125074000Y-91026000D02*
X122348678Y-91026000D01*
X119182678Y-87860000D02*
X118425000Y-87860000D01*
X128418905Y-87681095D02*
X125074000Y-91026000D01*
X130093750Y-79300000D02*
X128900000Y-79300000D01*
X128418905Y-79581095D02*
X128418905Y-87681095D01*
%TO.N,/LEDRed*%
D41*
X116700000Y-90400000D02*
X115300000Y-91800000D01*
X118425000Y-90400000D02*
X116700000Y-90400000D01*
X115300000Y-91800000D02*
X115050000Y-91800000D01*
%TO.N,/LEDBlue*%
X118425000Y-89130000D02*
X116420000Y-89130000D01*
%TO.N,/LEDGreen*%
X118425000Y-91670000D02*
X116680000Y-91670000D01*
X116680000Y-91670000D02*
X116550000Y-91800000D01*
X116550000Y-91800000D02*
X116550000Y-92200000D01*
%TO.N,/USB_N*%
D43*
X119450000Y-76750000D02*
X118450000Y-77750000D01*
X118450000Y-77850000D02*
X118450000Y-77750000D01*
X116460352Y-76750000D02*
X116391373Y-76681021D01*
X118450000Y-77750000D02*
X117380000Y-77750000D01*
X121662500Y-76750000D02*
X119450000Y-76750000D01*
X117380000Y-76750000D02*
X116460352Y-76750000D01*
%TO.N,/USB_P*%
X116400000Y-77500000D02*
X116400000Y-78000000D01*
X117380000Y-77250000D02*
X116650000Y-77250000D01*
X116650000Y-78250000D02*
X117380000Y-78250000D01*
X119250000Y-76250000D02*
X118250000Y-77250000D01*
X116400000Y-78000000D02*
X116650000Y-78250000D01*
X121662500Y-76250000D02*
X119250000Y-76250000D01*
X118250000Y-77250000D02*
X117380000Y-77250000D01*
X116650000Y-77250000D02*
X116400000Y-77500000D01*
%TO.N,/~{ReaderCmd}*%
D41*
X123375000Y-94210000D02*
X126390000Y-94210000D01*
X128975000Y-95000000D02*
X127180000Y-95000000D01*
X126390000Y-94210000D02*
X127040000Y-94860000D01*
X127180000Y-95000000D02*
X127040000Y-94860000D01*
%TO.N,Net-(U4-XTAL2)*%
X133843750Y-81450000D02*
X132893750Y-81450000D01*
X134493750Y-79800000D02*
X134493750Y-80800000D01*
X134493750Y-80800000D02*
X133843750Y-81450000D01*
%TO.N,Net-(U4-XTAL1)*%
X130093750Y-81800000D02*
X130843750Y-82550000D01*
X130093750Y-79800000D02*
X130093750Y-81800000D01*
X130843750Y-82550000D02*
X131493750Y-82550000D01*
%TD*%
%TA.AperFunction,Conductor*%
%TO.N,GND*%
G36*
X124438355Y-72020502D02*
G01*
X124484848Y-72074158D01*
X124494952Y-72144432D01*
X124465458Y-72209012D01*
X124433234Y-72235619D01*
X124331287Y-72294477D01*
X124331277Y-72294485D01*
X124219485Y-72406277D01*
X124219477Y-72406287D01*
X124140424Y-72543211D01*
X124140423Y-72543216D01*
X124099500Y-72695943D01*
X124099500Y-72854057D01*
X124120207Y-72931336D01*
X124140424Y-73006788D01*
X124219477Y-73143712D01*
X124219485Y-73143722D01*
X124228029Y-73152266D01*
X124262055Y-73214578D01*
X124256990Y-73285393D01*
X124214443Y-73342229D01*
X124190712Y-73354317D01*
X124191282Y-73355482D01*
X124073655Y-73412985D01*
X124073651Y-73412988D01*
X123987988Y-73498651D01*
X123987986Y-73498654D01*
X123963195Y-73549364D01*
X123915306Y-73601777D01*
X123846683Y-73619979D01*
X123779112Y-73598191D01*
X123736802Y-73549363D01*
X123712012Y-73498653D01*
X123712011Y-73498652D01*
X123712011Y-73498651D01*
X123626348Y-73412988D01*
X123626346Y-73412987D01*
X123517510Y-73359780D01*
X123488008Y-73355482D01*
X123446949Y-73349500D01*
X123446947Y-73349500D01*
X123253054Y-73349500D01*
X123182488Y-73359780D01*
X123182487Y-73359780D01*
X123155336Y-73373054D01*
X123085352Y-73385002D01*
X123044664Y-73373054D01*
X123017510Y-73359780D01*
X122988008Y-73355482D01*
X122946949Y-73349500D01*
X122946947Y-73349500D01*
X122753054Y-73349500D01*
X122682488Y-73359780D01*
X122682487Y-73359780D01*
X122655336Y-73373054D01*
X122585352Y-73385002D01*
X122544664Y-73373054D01*
X122517510Y-73359780D01*
X122488008Y-73355482D01*
X122446949Y-73349500D01*
X122446947Y-73349500D01*
X122253054Y-73349500D01*
X122182488Y-73359780D01*
X122073655Y-73412985D01*
X122073651Y-73412988D01*
X121987988Y-73498651D01*
X121987987Y-73498653D01*
X121934780Y-73607488D01*
X121934780Y-73607491D01*
X121924500Y-73678047D01*
X121924500Y-74198500D01*
X121904498Y-74266621D01*
X121850842Y-74313114D01*
X121798500Y-74324500D01*
X121278054Y-74324500D01*
X121207488Y-74334780D01*
X121098655Y-74387985D01*
X121098651Y-74387988D01*
X121012988Y-74473651D01*
X121012987Y-74473653D01*
X120959780Y-74582488D01*
X120959780Y-74582491D01*
X120949500Y-74653047D01*
X120949500Y-74846945D01*
X120959780Y-74917511D01*
X120959780Y-74917512D01*
X120973054Y-74944664D01*
X120985002Y-75014648D01*
X120973054Y-75055336D01*
X120959780Y-75082489D01*
X120949500Y-75153047D01*
X120949500Y-75346945D01*
X120959780Y-75417511D01*
X120959780Y-75417512D01*
X120973054Y-75444664D01*
X120985002Y-75514648D01*
X120983794Y-75522700D01*
X120980669Y-75539761D01*
X120959780Y-75582491D01*
X120949500Y-75653051D01*
X120949500Y-75709939D01*
X120947438Y-75721200D01*
X120936406Y-75743093D01*
X120929498Y-75766621D01*
X120920717Y-75774229D01*
X120915491Y-75784602D01*
X120894374Y-75797055D01*
X120875842Y-75813114D01*
X120862063Y-75816111D01*
X120854337Y-75820668D01*
X120843098Y-75820236D01*
X120823500Y-75824500D01*
X119481437Y-75824500D01*
X119413316Y-75804498D01*
X119366823Y-75750842D01*
X119356719Y-75680568D01*
X119386213Y-75615988D01*
X119392341Y-75609405D01*
X119414110Y-75587636D01*
X119439343Y-75562402D01*
X119501652Y-75528379D01*
X119528428Y-75525499D01*
X120122872Y-75525499D01*
X120182483Y-75519091D01*
X120296646Y-75476510D01*
X120317326Y-75468798D01*
X120317326Y-75468797D01*
X120317331Y-75468796D01*
X120432546Y-75382546D01*
X120518796Y-75267331D01*
X120569091Y-75132483D01*
X120575500Y-75072873D01*
X120575499Y-74577128D01*
X120569091Y-74517517D01*
X120538442Y-74435343D01*
X120518798Y-74382673D01*
X120518796Y-74382670D01*
X120518796Y-74382669D01*
X120460277Y-74304498D01*
X120432546Y-74267453D01*
X120326858Y-74188336D01*
X120317331Y-74181204D01*
X120317329Y-74181203D01*
X120317326Y-74181201D01*
X120182483Y-74130909D01*
X120182486Y-74130909D01*
X120122873Y-74124500D01*
X119477135Y-74124500D01*
X119477114Y-74124502D01*
X119417519Y-74130908D01*
X119417518Y-74130908D01*
X119282673Y-74181201D01*
X119282670Y-74181203D01*
X119167453Y-74267453D01*
X119081203Y-74382670D01*
X119081201Y-74382673D01*
X119030909Y-74517515D01*
X119024500Y-74577121D01*
X119024500Y-74721562D01*
X119004498Y-74789683D01*
X118987595Y-74810657D01*
X118470595Y-75327657D01*
X118408283Y-75361683D01*
X118337468Y-75356618D01*
X118280632Y-75314071D01*
X118255821Y-75247551D01*
X118255500Y-75238562D01*
X118255500Y-74895735D01*
X118255500Y-74895734D01*
X118252646Y-74865301D01*
X118207793Y-74737118D01*
X118207791Y-74737114D01*
X118127150Y-74627849D01*
X118017885Y-74547208D01*
X118017881Y-74547206D01*
X117889704Y-74502355D01*
X117889700Y-74502354D01*
X117859266Y-74499500D01*
X116900734Y-74499500D01*
X116900733Y-74499500D01*
X116870293Y-74502354D01*
X116866996Y-74503075D01*
X116864497Y-74502898D01*
X116862668Y-74503070D01*
X116862639Y-74502767D01*
X116796176Y-74498069D01*
X116739305Y-74455569D01*
X116731594Y-74442029D01*
X116730792Y-74442493D01*
X116711750Y-74409512D01*
X116667090Y-74332158D01*
X116667088Y-74332156D01*
X116667084Y-74332151D01*
X116582848Y-74247915D01*
X116582838Y-74247907D01*
X116479663Y-74188339D01*
X116479660Y-74188338D01*
X116479659Y-74188337D01*
X116479657Y-74188336D01*
X116479656Y-74188336D01*
X116448818Y-74180073D01*
X116364573Y-74157500D01*
X116245427Y-74157500D01*
X116183755Y-74174024D01*
X116130343Y-74188336D01*
X116130336Y-74188339D01*
X116027161Y-74247907D01*
X116027151Y-74247915D01*
X115942915Y-74332151D01*
X115942907Y-74332161D01*
X115883339Y-74435336D01*
X115883336Y-74435343D01*
X115877917Y-74455569D01*
X115852500Y-74550427D01*
X115852500Y-74669573D01*
X115870599Y-74737118D01*
X115883336Y-74784656D01*
X115883339Y-74784663D01*
X115942907Y-74887838D01*
X115942915Y-74887848D01*
X116027151Y-74972084D01*
X116027156Y-74972088D01*
X116027158Y-74972090D01*
X116052095Y-74986487D01*
X116101089Y-75037869D01*
X116114527Y-75107582D01*
X116088141Y-75173493D01*
X116078193Y-75184702D01*
X115339513Y-75923383D01*
X115339508Y-75923389D01*
X115280203Y-76026108D01*
X115280199Y-76026117D01*
X115275412Y-76043981D01*
X115275413Y-76043982D01*
X115249500Y-76140691D01*
X115249500Y-78854308D01*
X115270753Y-78933625D01*
X115270752Y-78933625D01*
X115280198Y-78968878D01*
X115280203Y-78968890D01*
X115339508Y-79071609D01*
X115339516Y-79071619D01*
X116081363Y-79813466D01*
X116115389Y-79875778D01*
X116110324Y-79946593D01*
X116067777Y-80003429D01*
X116055269Y-80011680D01*
X116027159Y-80027909D01*
X116027151Y-80027915D01*
X115942915Y-80112151D01*
X115942907Y-80112161D01*
X115883339Y-80215336D01*
X115883336Y-80215343D01*
X115873222Y-80253091D01*
X115852500Y-80330427D01*
X115852500Y-80449573D01*
X115871505Y-80520502D01*
X115883336Y-80564656D01*
X115883339Y-80564663D01*
X115942907Y-80667838D01*
X115942915Y-80667848D01*
X116027151Y-80752084D01*
X116027156Y-80752088D01*
X116027158Y-80752090D01*
X116027159Y-80752091D01*
X116027161Y-80752092D01*
X116071774Y-80777849D01*
X116130341Y-80811663D01*
X116245427Y-80842500D01*
X116245429Y-80842500D01*
X116364571Y-80842500D01*
X116364573Y-80842500D01*
X116479659Y-80811663D01*
X116582842Y-80752090D01*
X116667090Y-80667842D01*
X116715960Y-80583197D01*
X116730793Y-80557506D01*
X116733844Y-80559267D01*
X116768089Y-80516636D01*
X116835417Y-80494110D01*
X116867010Y-80496927D01*
X116870298Y-80497645D01*
X116870301Y-80497646D01*
X116900734Y-80500500D01*
X117300943Y-80500500D01*
X117973500Y-80500500D01*
X118041621Y-80520502D01*
X118088114Y-80574158D01*
X118099500Y-80626500D01*
X118099500Y-81220939D01*
X118099499Y-81220943D01*
X118099499Y-81379057D01*
X118099500Y-81379060D01*
X118099500Y-82399075D01*
X118079498Y-82467196D01*
X118062595Y-82488170D01*
X116788170Y-83762595D01*
X116725858Y-83796621D01*
X116699075Y-83799500D01*
X115686791Y-83799500D01*
X115686775Y-83799499D01*
X115679057Y-83799499D01*
X115520943Y-83799499D01*
X115429306Y-83824053D01*
X115368213Y-83840423D01*
X115318095Y-83869360D01*
X115231287Y-83919477D01*
X115231282Y-83919481D01*
X115202060Y-83948704D01*
X115119480Y-84031284D01*
X115119478Y-84031286D01*
X114431286Y-84719478D01*
X114431284Y-84719480D01*
X114397652Y-84753112D01*
X114319481Y-84831282D01*
X114319480Y-84831284D01*
X114291058Y-84880514D01*
X114282811Y-84894798D01*
X114282810Y-84894799D01*
X114240423Y-84968213D01*
X114226501Y-85020171D01*
X114199499Y-85120943D01*
X114199499Y-85120945D01*
X114199499Y-85289207D01*
X114199500Y-85289220D01*
X114199500Y-86178206D01*
X114179498Y-86246327D01*
X114125842Y-86292820D01*
X114055568Y-86302924D01*
X113990988Y-86273430D01*
X113984405Y-86267301D01*
X112923881Y-85206778D01*
X112889856Y-85144466D01*
X112893142Y-85078749D01*
X112922171Y-84989409D01*
X112950500Y-84810546D01*
X112950500Y-84629454D01*
X112922171Y-84450591D01*
X112866211Y-84278361D01*
X112783996Y-84117006D01*
X112677553Y-83970499D01*
X112677550Y-83970496D01*
X112677548Y-83970493D01*
X112549506Y-83842451D01*
X112549503Y-83842449D01*
X112549501Y-83842447D01*
X112402994Y-83736004D01*
X112241639Y-83653789D01*
X112241636Y-83653788D01*
X112241634Y-83653787D01*
X112069412Y-83597830D01*
X112069409Y-83597829D01*
X111890546Y-83569500D01*
X111709454Y-83569500D01*
X111530591Y-83597829D01*
X111530588Y-83597829D01*
X111530587Y-83597830D01*
X111358365Y-83653787D01*
X111358359Y-83653790D01*
X111197002Y-83736006D01*
X111050496Y-83842449D01*
X111050493Y-83842451D01*
X110922451Y-83970493D01*
X110922449Y-83970496D01*
X110816006Y-84117002D01*
X110733790Y-84278359D01*
X110733787Y-84278365D01*
X110677830Y-84450587D01*
X110677829Y-84450591D01*
X110649500Y-84629454D01*
X110649500Y-84810546D01*
X110677829Y-84989409D01*
X110733789Y-85161639D01*
X110816004Y-85322994D01*
X110922447Y-85469501D01*
X110922449Y-85469503D01*
X110922451Y-85469506D01*
X111050493Y-85597548D01*
X111050496Y-85597550D01*
X111050499Y-85597553D01*
X111197006Y-85703996D01*
X111358361Y-85786211D01*
X111530591Y-85842171D01*
X111678211Y-85865551D01*
X111742363Y-85895964D01*
X111779890Y-85956232D01*
X111778876Y-86027221D01*
X111739643Y-86086393D01*
X111678211Y-86114448D01*
X111530591Y-86137829D01*
X111530588Y-86137829D01*
X111530587Y-86137830D01*
X111358365Y-86193787D01*
X111358359Y-86193790D01*
X111197002Y-86276006D01*
X111050496Y-86382449D01*
X111050493Y-86382451D01*
X110922451Y-86510493D01*
X110922449Y-86510496D01*
X110816006Y-86657002D01*
X110733790Y-86818359D01*
X110733787Y-86818365D01*
X110677830Y-86990587D01*
X110677829Y-86990591D01*
X110649500Y-87169454D01*
X110649500Y-87350546D01*
X110677829Y-87529409D01*
X110677830Y-87529412D01*
X110730715Y-87692180D01*
X110733789Y-87701639D01*
X110816004Y-87862994D01*
X110816006Y-87862997D01*
X110824136Y-87874187D01*
X110922447Y-88009501D01*
X110922449Y-88009503D01*
X110922451Y-88009506D01*
X111050493Y-88137548D01*
X111050496Y-88137550D01*
X111050499Y-88137553D01*
X111197006Y-88243996D01*
X111358361Y-88326211D01*
X111530591Y-88382171D01*
X111678211Y-88405551D01*
X111742363Y-88435964D01*
X111779890Y-88496232D01*
X111778876Y-88567221D01*
X111739643Y-88626393D01*
X111678211Y-88654448D01*
X111530591Y-88677829D01*
X111530588Y-88677829D01*
X111530587Y-88677830D01*
X111358365Y-88733787D01*
X111358359Y-88733790D01*
X111197002Y-88816006D01*
X111050496Y-88922449D01*
X111050493Y-88922451D01*
X110922451Y-89050493D01*
X110922449Y-89050496D01*
X110816006Y-89197002D01*
X110733790Y-89358359D01*
X110733787Y-89358365D01*
X110690081Y-89492882D01*
X110677829Y-89530591D01*
X110649500Y-89709454D01*
X110649500Y-89890546D01*
X110677829Y-90069409D01*
X110677830Y-90069412D01*
X110733234Y-90239933D01*
X110733789Y-90241639D01*
X110816004Y-90402994D01*
X110816006Y-90402997D01*
X110822233Y-90411568D01*
X110922447Y-90549501D01*
X110922449Y-90549503D01*
X110922451Y-90549506D01*
X111050493Y-90677548D01*
X111050496Y-90677550D01*
X111050499Y-90677553D01*
X111197006Y-90783996D01*
X111358361Y-90866211D01*
X111530591Y-90922171D01*
X111709454Y-90950500D01*
X111709457Y-90950500D01*
X111890543Y-90950500D01*
X111890546Y-90950500D01*
X112069409Y-90922171D01*
X112241639Y-90866211D01*
X112402994Y-90783996D01*
X112449439Y-90750251D01*
X112516305Y-90726393D01*
X112585457Y-90742472D01*
X112634938Y-90793386D01*
X112649500Y-90852187D01*
X112649500Y-93239307D01*
X112649499Y-93239307D01*
X112672192Y-93323996D01*
X112672191Y-93323996D01*
X112680198Y-93353879D01*
X112680203Y-93353891D01*
X112739508Y-93456610D01*
X112739516Y-93456620D01*
X112798095Y-93515199D01*
X112832121Y-93577511D01*
X112827056Y-93648326D01*
X112784509Y-93705162D01*
X112717989Y-93729973D01*
X112698510Y-93729545D01*
X112698501Y-93729710D01*
X112694867Y-93729500D01*
X110905140Y-93729500D01*
X110905133Y-93729501D01*
X110880009Y-93732414D01*
X110880005Y-93732416D01*
X110777234Y-93777793D01*
X110697795Y-93857232D01*
X110697794Y-93857234D01*
X110652414Y-93960009D01*
X110649500Y-93985129D01*
X110649500Y-95774859D01*
X110649501Y-95774866D01*
X110652414Y-95799990D01*
X110652416Y-95799994D01*
X110697793Y-95902765D01*
X110777232Y-95982204D01*
X110777234Y-95982205D01*
X110777235Y-95982206D01*
X110880009Y-96027585D01*
X110905135Y-96030500D01*
X112694864Y-96030499D01*
X112719991Y-96027585D01*
X112822765Y-95982206D01*
X112902206Y-95902765D01*
X112947585Y-95799991D01*
X112950500Y-95774865D01*
X112950500Y-95456500D01*
X112970502Y-95388379D01*
X113024158Y-95341886D01*
X113076500Y-95330500D01*
X119501987Y-95330500D01*
X119592351Y-95306286D01*
X119616565Y-95299799D01*
X119719292Y-95240489D01*
X121885633Y-93074147D01*
X121947943Y-93040124D01*
X122018758Y-93045188D01*
X122075594Y-93087735D01*
X122100175Y-93151477D01*
X122102352Y-93174692D01*
X122102355Y-93174704D01*
X122147206Y-93302881D01*
X122147208Y-93302885D01*
X122227848Y-93412148D01*
X122227849Y-93412148D01*
X122227850Y-93412150D01*
X122231876Y-93415121D01*
X122311140Y-93473621D01*
X122354072Y-93530166D01*
X122359618Y-93600946D01*
X122326017Y-93663488D01*
X122311140Y-93676379D01*
X122227848Y-93737851D01*
X122147208Y-93847114D01*
X122147206Y-93847118D01*
X122102355Y-93975295D01*
X122102354Y-93975299D01*
X122099500Y-94005733D01*
X122099500Y-94414266D01*
X122102354Y-94444700D01*
X122102355Y-94444704D01*
X122147206Y-94572881D01*
X122147208Y-94572885D01*
X122227849Y-94682150D01*
X122337114Y-94762791D01*
X122337118Y-94762793D01*
X122465301Y-94807646D01*
X122495734Y-94810500D01*
X122495736Y-94810500D01*
X124254264Y-94810500D01*
X124254266Y-94810500D01*
X124284699Y-94807646D01*
X124412882Y-94762793D01*
X124518124Y-94685120D01*
X124584812Y-94660763D01*
X124592946Y-94660500D01*
X125763500Y-94660500D01*
X125831621Y-94680502D01*
X125878114Y-94734158D01*
X125889500Y-94786500D01*
X125889500Y-94950546D01*
X125917829Y-95129409D01*
X125917830Y-95129412D01*
X125973190Y-95299798D01*
X125973789Y-95301639D01*
X126056004Y-95462994D01*
X126056006Y-95462997D01*
X126078522Y-95493988D01*
X126162447Y-95609501D01*
X126162449Y-95609503D01*
X126162451Y-95609506D01*
X126290493Y-95737548D01*
X126290496Y-95737550D01*
X126290499Y-95737553D01*
X126437006Y-95843996D01*
X126598361Y-95926211D01*
X126770591Y-95982171D01*
X126949454Y-96010500D01*
X126949457Y-96010500D01*
X127130543Y-96010500D01*
X127130546Y-96010500D01*
X127309409Y-95982171D01*
X127481639Y-95926211D01*
X127642994Y-95843996D01*
X127789501Y-95737553D01*
X127917553Y-95609501D01*
X127995338Y-95502439D01*
X127999741Y-95499043D01*
X128002050Y-95493988D01*
X128027547Y-95477601D01*
X128051560Y-95459085D01*
X128058341Y-95457811D01*
X128061776Y-95455604D01*
X128097274Y-95450500D01*
X128219952Y-95450500D01*
X128288073Y-95470502D01*
X128325302Y-95510490D01*
X128325803Y-95510116D01*
X128329287Y-95514770D01*
X128330540Y-95516116D01*
X128331201Y-95517327D01*
X128331204Y-95517331D01*
X128417454Y-95632546D01*
X128532669Y-95718796D01*
X128532671Y-95718796D01*
X128532673Y-95718798D01*
X128582946Y-95737548D01*
X128667514Y-95769090D01*
X128667517Y-95769091D01*
X128727127Y-95775500D01*
X129222872Y-95775499D01*
X129282483Y-95769091D01*
X129417331Y-95718796D01*
X129532546Y-95632546D01*
X129618796Y-95517331D01*
X129669091Y-95382483D01*
X129674722Y-95330104D01*
X129701892Y-95264513D01*
X129760210Y-95224023D01*
X129831161Y-95221489D01*
X129892219Y-95257717D01*
X129923998Y-95321204D01*
X129925278Y-95330107D01*
X129930908Y-95382481D01*
X129981201Y-95517326D01*
X129981203Y-95517329D01*
X130067453Y-95632546D01*
X130125061Y-95675671D01*
X130182669Y-95718796D01*
X130182671Y-95718796D01*
X130182673Y-95718798D01*
X130232946Y-95737548D01*
X130317514Y-95769090D01*
X130317517Y-95769091D01*
X130377127Y-95775500D01*
X130872872Y-95775499D01*
X130932483Y-95769091D01*
X131067331Y-95718796D01*
X131182546Y-95632546D01*
X131268796Y-95517331D01*
X131268796Y-95517328D01*
X131268798Y-95517327D01*
X131269460Y-95516116D01*
X131270436Y-95515139D01*
X131274197Y-95510116D01*
X131274919Y-95510656D01*
X131319661Y-95465913D01*
X131380048Y-95450500D01*
X145039309Y-95450500D01*
X145129673Y-95426286D01*
X145153887Y-95419799D01*
X145256614Y-95360489D01*
X145997989Y-94619114D01*
X146038180Y-94549500D01*
X146057299Y-94516386D01*
X146088000Y-94401809D01*
X146088000Y-90076500D01*
X146108002Y-90008379D01*
X146161658Y-89961886D01*
X146214000Y-89950500D01*
X146279264Y-89950500D01*
X146279266Y-89950500D01*
X146309699Y-89947646D01*
X146437882Y-89902793D01*
X146465406Y-89882480D01*
X146547150Y-89822150D01*
X146627791Y-89712885D01*
X146627793Y-89712881D01*
X146628993Y-89709454D01*
X146672646Y-89584699D01*
X146675500Y-89554266D01*
X146675500Y-89145734D01*
X146672646Y-89115301D01*
X146658249Y-89074158D01*
X146627793Y-88987118D01*
X146627791Y-88987114D01*
X146547150Y-88877849D01*
X146437885Y-88797208D01*
X146437881Y-88797206D01*
X146309704Y-88752355D01*
X146309700Y-88752354D01*
X146279266Y-88749500D01*
X144995734Y-88749500D01*
X144995733Y-88749500D01*
X144965299Y-88752354D01*
X144957811Y-88753990D01*
X144957498Y-88752557D01*
X144895043Y-88755742D01*
X144833440Y-88720448D01*
X144800697Y-88657453D01*
X144798891Y-88621428D01*
X144800499Y-88604282D01*
X144800500Y-88604264D01*
X144800500Y-88195735D01*
X144800499Y-88195714D01*
X144798891Y-88178570D01*
X144812444Y-88108879D01*
X144861524Y-88057579D01*
X144930547Y-88040957D01*
X144957753Y-88046273D01*
X144957811Y-88046010D01*
X144965296Y-88047644D01*
X144965301Y-88047646D01*
X144995734Y-88050500D01*
X144995736Y-88050500D01*
X146279264Y-88050500D01*
X146279266Y-88050500D01*
X146309699Y-88047646D01*
X146437882Y-88002793D01*
X146440159Y-88001113D01*
X146547150Y-87922150D01*
X146627791Y-87812885D01*
X146627793Y-87812881D01*
X146629137Y-87809042D01*
X146672646Y-87684699D01*
X146675500Y-87654266D01*
X146675500Y-87245734D01*
X146672646Y-87215301D01*
X146659402Y-87177453D01*
X146627793Y-87087118D01*
X146627791Y-87087114D01*
X146547150Y-86977849D01*
X146437885Y-86897208D01*
X146437881Y-86897206D01*
X146309704Y-86852355D01*
X146309700Y-86852354D01*
X146279266Y-86849500D01*
X146189000Y-86849500D01*
X146120879Y-86829498D01*
X146074386Y-86775842D01*
X146063000Y-86723500D01*
X146063000Y-83925233D01*
X146061459Y-83919481D01*
X146034003Y-83817013D01*
X146017359Y-83788185D01*
X145977987Y-83719990D01*
X145977983Y-83719985D01*
X145957155Y-83699157D01*
X145898763Y-83640765D01*
X145737405Y-83479407D01*
X145703379Y-83417095D01*
X145700500Y-83390312D01*
X145700500Y-83245735D01*
X145700499Y-83245714D01*
X145698891Y-83228570D01*
X145712444Y-83158879D01*
X145761524Y-83107579D01*
X145830547Y-83090957D01*
X145857753Y-83096273D01*
X145857811Y-83096010D01*
X145865296Y-83097644D01*
X145865301Y-83097646D01*
X145895734Y-83100500D01*
X146458439Y-83100500D01*
X146458443Y-83100501D01*
X146616557Y-83100501D01*
X146616561Y-83100500D01*
X147179266Y-83100500D01*
X147209699Y-83097646D01*
X147331886Y-83054890D01*
X147402788Y-83051271D01*
X147464394Y-83086560D01*
X147497141Y-83149553D01*
X147499500Y-83173820D01*
X147499500Y-89978844D01*
X147530263Y-90133497D01*
X147530265Y-90133502D01*
X147579907Y-90253348D01*
X147590606Y-90279179D01*
X147678211Y-90410289D01*
X149778211Y-92510289D01*
X149889711Y-92621789D01*
X149942920Y-92657342D01*
X150020821Y-92709394D01*
X150020823Y-92709395D01*
X150094224Y-92739798D01*
X150094225Y-92739799D01*
X150094226Y-92739799D01*
X150166502Y-92769737D01*
X150321157Y-92800500D01*
X150321158Y-92800500D01*
X152244479Y-92800500D01*
X152312600Y-92820502D01*
X152320612Y-92826102D01*
X152377658Y-92869361D01*
X152518435Y-92924877D01*
X152518434Y-92924877D01*
X152546394Y-92928234D01*
X152606898Y-92935500D01*
X152606901Y-92935500D01*
X155393099Y-92935500D01*
X155393102Y-92935500D01*
X155481564Y-92924877D01*
X155622342Y-92869361D01*
X155742922Y-92777922D01*
X155771832Y-92739799D01*
X155773103Y-92738123D01*
X155830201Y-92695930D01*
X155901047Y-92691305D01*
X155963147Y-92725716D01*
X155996784Y-92788239D01*
X155999500Y-92814257D01*
X155999500Y-96873500D01*
X155979498Y-96941621D01*
X155925842Y-96988114D01*
X155873500Y-96999500D01*
X110126500Y-96999500D01*
X110058379Y-96979498D01*
X110011886Y-96925842D01*
X110000500Y-96873500D01*
X110000500Y-72126500D01*
X110020502Y-72058379D01*
X110074158Y-72011886D01*
X110126500Y-72000500D01*
X124370234Y-72000500D01*
X124438355Y-72020502D01*
G37*
%TD.AperFunction*%
%TA.AperFunction,Conductor*%
G36*
X129052917Y-84782606D02*
G01*
X129059500Y-84788735D01*
X129815069Y-85544304D01*
X129815090Y-85544327D01*
X129931279Y-85660516D01*
X129931282Y-85660518D01*
X129931284Y-85660520D01*
X130006589Y-85703996D01*
X130018095Y-85710639D01*
X130018098Y-85710641D01*
X130068211Y-85739575D01*
X130068212Y-85739575D01*
X130068215Y-85739577D01*
X130220943Y-85780501D01*
X130220946Y-85780501D01*
X130386775Y-85780501D01*
X130386791Y-85780500D01*
X131899075Y-85780500D01*
X131967196Y-85800502D01*
X131988170Y-85817405D01*
X132162555Y-85991790D01*
X132196581Y-86054102D01*
X132191516Y-86124917D01*
X132148969Y-86181753D01*
X132082449Y-86206564D01*
X132068115Y-86206772D01*
X132054251Y-86206183D01*
X132029309Y-86199500D01*
X131896848Y-86199500D01*
X131894187Y-86199387D01*
X131882514Y-86195414D01*
X131842329Y-86185767D01*
X131800304Y-86164354D01*
X131706519Y-86149500D01*
X131706515Y-86149500D01*
X131193483Y-86149500D01*
X131099697Y-86164353D01*
X130986657Y-86221949D01*
X130896949Y-86311657D01*
X130845824Y-86411998D01*
X130839354Y-86424696D01*
X130824500Y-86518481D01*
X130824500Y-86518484D01*
X130824500Y-86781516D01*
X130839353Y-86875302D01*
X130896949Y-86988342D01*
X130986657Y-87078050D01*
X131020909Y-87095502D01*
X131099696Y-87135646D01*
X131193481Y-87150500D01*
X131623500Y-87150499D01*
X131632325Y-87153090D01*
X131641432Y-87151781D01*
X131665858Y-87162936D01*
X131691620Y-87170501D01*
X131697644Y-87177453D01*
X131706012Y-87181275D01*
X131720526Y-87203859D01*
X131738114Y-87224156D01*
X131740438Y-87234843D01*
X131744396Y-87241001D01*
X131749500Y-87276499D01*
X131749500Y-87323500D01*
X131729498Y-87391621D01*
X131675842Y-87438114D01*
X131623500Y-87449500D01*
X131193483Y-87449500D01*
X131099697Y-87464353D01*
X131057671Y-87485767D01*
X131000468Y-87499500D01*
X130665691Y-87499500D01*
X130581907Y-87521950D01*
X130581906Y-87521949D01*
X130551114Y-87530200D01*
X130551111Y-87530201D01*
X130448389Y-87589507D01*
X130448383Y-87589512D01*
X130366461Y-87671435D01*
X130150299Y-87887596D01*
X130087989Y-87921620D01*
X130061206Y-87924500D01*
X129708853Y-87924500D01*
X129624409Y-87934640D01*
X129490025Y-87987635D01*
X129490021Y-87987638D01*
X129374921Y-88074921D01*
X129287638Y-88190021D01*
X129287635Y-88190025D01*
X129234640Y-88324409D01*
X129224500Y-88408853D01*
X129224500Y-88941146D01*
X129234640Y-89025590D01*
X129287635Y-89159974D01*
X129287638Y-89159978D01*
X129374921Y-89275078D01*
X129496892Y-89367572D01*
X129495165Y-89369848D01*
X129534817Y-89410479D01*
X129549500Y-89469510D01*
X129549500Y-90119952D01*
X129529498Y-90188073D01*
X129489509Y-90225305D01*
X129489883Y-90225804D01*
X129485246Y-90229275D01*
X129483893Y-90230535D01*
X129482673Y-90231201D01*
X129367453Y-90317453D01*
X129281203Y-90432670D01*
X129281201Y-90432673D01*
X129230909Y-90567515D01*
X129224500Y-90627121D01*
X129224500Y-90627127D01*
X129224500Y-90873239D01*
X129224501Y-91103500D01*
X129204499Y-91171621D01*
X129150844Y-91218114D01*
X129098501Y-91229500D01*
X127620688Y-91229500D01*
X127539562Y-91251237D01*
X127468586Y-91249547D01*
X127468017Y-91249363D01*
X127309412Y-91197830D01*
X127309409Y-91197829D01*
X127130546Y-91169500D01*
X126949454Y-91169500D01*
X126770591Y-91197829D01*
X126770588Y-91197829D01*
X126770587Y-91197830D01*
X126598365Y-91253787D01*
X126598359Y-91253790D01*
X126437002Y-91336006D01*
X126290496Y-91442449D01*
X126290493Y-91442451D01*
X126162451Y-91570493D01*
X126162449Y-91570496D01*
X126056006Y-91717002D01*
X125973790Y-91878359D01*
X125973787Y-91878365D01*
X125938349Y-91987436D01*
X125917829Y-92050591D01*
X125893507Y-92204158D01*
X125889500Y-92229457D01*
X125889500Y-92363500D01*
X125869498Y-92431621D01*
X125815842Y-92478114D01*
X125763500Y-92489500D01*
X124592946Y-92489500D01*
X124571753Y-92483277D01*
X124549718Y-92481852D01*
X124529009Y-92470726D01*
X124524825Y-92469498D01*
X124518125Y-92464879D01*
X124438860Y-92406379D01*
X124395928Y-92349834D01*
X124390381Y-92279055D01*
X124423982Y-92216513D01*
X124438856Y-92203623D01*
X124522150Y-92142150D01*
X124522150Y-92142148D01*
X124522152Y-92142148D01*
X124602791Y-92032885D01*
X124602793Y-92032881D01*
X124618987Y-91986603D01*
X124647646Y-91904699D01*
X124650500Y-91874266D01*
X124650500Y-91577500D01*
X124670502Y-91509379D01*
X124724158Y-91462886D01*
X124776500Y-91451500D01*
X125130016Y-91451500D01*
X125130018Y-91451500D01*
X125238237Y-91422503D01*
X125335263Y-91366485D01*
X128759390Y-87942358D01*
X128815408Y-87845332D01*
X128844405Y-87737113D01*
X128844405Y-87625077D01*
X128844405Y-84877830D01*
X128864407Y-84809709D01*
X128918063Y-84763216D01*
X128988337Y-84753112D01*
X129052917Y-84782606D01*
G37*
%TD.AperFunction*%
%TA.AperFunction,Conductor*%
G36*
X133953087Y-88406839D02*
G01*
X133975531Y-88408445D01*
X133986485Y-88416646D01*
X133999618Y-88420502D01*
X134014355Y-88437509D01*
X134032366Y-88450993D01*
X134043147Y-88470737D01*
X134046111Y-88474158D01*
X134049548Y-88482458D01*
X134056992Y-88502414D01*
X134081201Y-88567326D01*
X134081203Y-88567329D01*
X134081204Y-88567331D01*
X134093299Y-88583488D01*
X134167453Y-88682546D01*
X134207140Y-88712255D01*
X134282669Y-88768796D01*
X134282671Y-88768796D01*
X134282673Y-88768798D01*
X134332332Y-88787319D01*
X134417514Y-88819090D01*
X134417517Y-88819091D01*
X134477127Y-88825500D01*
X135122872Y-88825499D01*
X135182483Y-88819091D01*
X135296646Y-88776510D01*
X135317326Y-88768798D01*
X135317326Y-88768797D01*
X135317331Y-88768796D01*
X135432546Y-88682546D01*
X135455547Y-88651820D01*
X135512380Y-88609275D01*
X135583196Y-88604209D01*
X135645509Y-88638234D01*
X135656811Y-88651196D01*
X135674921Y-88675078D01*
X135790021Y-88762361D01*
X135790025Y-88762364D01*
X135924409Y-88815359D01*
X135924408Y-88815359D01*
X135939965Y-88817227D01*
X136008856Y-88825500D01*
X136008859Y-88825500D01*
X136591141Y-88825500D01*
X136591144Y-88825500D01*
X136675590Y-88815359D01*
X136809975Y-88762364D01*
X136925078Y-88675078D01*
X136943188Y-88651196D01*
X136958195Y-88640106D01*
X136969603Y-88625337D01*
X136986154Y-88619445D01*
X137000285Y-88609004D01*
X137018907Y-88607788D01*
X137036489Y-88601530D01*
X137053599Y-88605522D01*
X137071130Y-88604378D01*
X137087453Y-88613422D01*
X137105628Y-88617664D01*
X137123528Y-88633411D01*
X137133231Y-88638788D01*
X137134011Y-88639585D01*
X137139622Y-88645368D01*
X137167454Y-88682546D01*
X137197585Y-88705102D01*
X137204526Y-88712255D01*
X137216612Y-88735204D01*
X137232157Y-88755970D01*
X137232880Y-88766093D01*
X137237610Y-88775073D01*
X137235370Y-88800915D01*
X137237220Y-88826786D01*
X137232356Y-88835692D01*
X137231480Y-88845804D01*
X137215625Y-88866331D01*
X137203194Y-88889097D01*
X137189611Y-88900867D01*
X137167453Y-88917454D01*
X137081203Y-89032670D01*
X137081201Y-89032673D01*
X137030909Y-89167515D01*
X137024500Y-89227121D01*
X137024500Y-89722864D01*
X137024502Y-89722885D01*
X137030908Y-89782480D01*
X137030908Y-89782481D01*
X137081201Y-89917326D01*
X137081203Y-89917329D01*
X137081204Y-89917331D01*
X137098190Y-89940021D01*
X137167453Y-90032546D01*
X137216746Y-90069446D01*
X137282669Y-90118796D01*
X137282671Y-90118796D01*
X137282673Y-90118798D01*
X137331117Y-90136866D01*
X137417517Y-90169091D01*
X137469895Y-90174722D01*
X137535486Y-90201892D01*
X137575976Y-90260210D01*
X137578510Y-90331161D01*
X137542282Y-90392219D01*
X137478795Y-90423998D01*
X137469892Y-90425278D01*
X137417518Y-90430908D01*
X137282674Y-90481201D01*
X137282670Y-90481203D01*
X137282669Y-90481204D01*
X137167454Y-90567454D01*
X137167451Y-90567456D01*
X137160241Y-90572855D01*
X137158443Y-90570453D01*
X137109354Y-90597244D01*
X137038540Y-90592162D01*
X136982203Y-90550251D01*
X136925078Y-90474921D01*
X136809978Y-90387638D01*
X136809974Y-90387635D01*
X136675590Y-90334640D01*
X136675591Y-90334640D01*
X136591146Y-90324500D01*
X136591144Y-90324500D01*
X136008856Y-90324500D01*
X136008853Y-90324500D01*
X135924409Y-90334640D01*
X135790025Y-90387635D01*
X135790021Y-90387638D01*
X135674921Y-90474921D01*
X135587638Y-90590021D01*
X135587635Y-90590025D01*
X135534640Y-90724409D01*
X135525663Y-90799167D01*
X135497681Y-90864417D01*
X135489657Y-90873239D01*
X135146777Y-91216118D01*
X135084465Y-91250143D01*
X135018748Y-91246856D01*
X134929409Y-91217829D01*
X134750546Y-91189500D01*
X134569454Y-91189500D01*
X134390591Y-91217829D01*
X134390588Y-91217829D01*
X134390587Y-91217830D01*
X134218365Y-91273787D01*
X134218359Y-91273790D01*
X134057002Y-91356006D01*
X133910496Y-91462449D01*
X133910493Y-91462451D01*
X133782451Y-91590493D01*
X133782449Y-91590496D01*
X133676006Y-91737002D01*
X133593790Y-91898359D01*
X133593787Y-91898365D01*
X133564847Y-91987436D01*
X133524774Y-92046042D01*
X133459377Y-92073679D01*
X133445014Y-92074500D01*
X133146794Y-92074500D01*
X133078673Y-92054498D01*
X133032180Y-92000842D01*
X133022076Y-91930568D01*
X133051570Y-91865988D01*
X133057699Y-91859405D01*
X133485483Y-91431620D01*
X133485489Y-91431614D01*
X133544799Y-91328887D01*
X133552837Y-91298887D01*
X133575500Y-91214309D01*
X133575500Y-90275750D01*
X133595502Y-90207629D01*
X133625988Y-90174884D01*
X133682546Y-90132546D01*
X133768796Y-90017331D01*
X133819091Y-89882483D01*
X133825500Y-89822873D01*
X133825499Y-89177128D01*
X133819091Y-89117517D01*
X133774381Y-88997644D01*
X133768798Y-88982674D01*
X133768797Y-88982673D01*
X133768796Y-88982669D01*
X133682546Y-88867454D01*
X133682543Y-88867452D01*
X133682542Y-88867450D01*
X133625990Y-88825115D01*
X133623208Y-88821399D01*
X133618988Y-88819472D01*
X133602131Y-88793243D01*
X133583444Y-88768279D01*
X133582412Y-88762559D01*
X133580604Y-88759746D01*
X133575500Y-88724248D01*
X133575500Y-88563027D01*
X133595502Y-88494906D01*
X133649158Y-88448413D01*
X133681792Y-88438578D01*
X133689629Y-88437336D01*
X133700304Y-88435646D01*
X133742329Y-88414232D01*
X133799532Y-88400500D01*
X133931497Y-88400500D01*
X133953087Y-88406839D01*
G37*
%TD.AperFunction*%
%TA.AperFunction,Conductor*%
G36*
X155963147Y-77725716D02*
G01*
X155996784Y-77788239D01*
X155999500Y-77814257D01*
X155999500Y-83030560D01*
X155979498Y-83098681D01*
X155925842Y-83145174D01*
X155855568Y-83155278D01*
X155790988Y-83125784D01*
X155759978Y-83085230D01*
X155728560Y-83019990D01*
X155717906Y-82997867D01*
X155712625Y-82989463D01*
X155663001Y-82910486D01*
X155532630Y-82703003D01*
X155517369Y-82683866D01*
X155315510Y-82430740D01*
X155069259Y-82184489D01*
X154797004Y-81967375D01*
X154797000Y-81967372D01*
X154502137Y-81782096D01*
X154502128Y-81782091D01*
X154188388Y-81631002D01*
X154188383Y-81631000D01*
X154188379Y-81630998D01*
X154188373Y-81630995D01*
X154188361Y-81630991D01*
X153859687Y-81515983D01*
X153520174Y-81438491D01*
X153174122Y-81399500D01*
X153174120Y-81399500D01*
X152825880Y-81399500D01*
X152825878Y-81399500D01*
X152479825Y-81438491D01*
X152140312Y-81515983D01*
X151811638Y-81630991D01*
X151811611Y-81631002D01*
X151497871Y-81782091D01*
X151497862Y-81782096D01*
X151202999Y-81967372D01*
X151202995Y-81967375D01*
X150930740Y-82184489D01*
X150684489Y-82430740D01*
X150467375Y-82702995D01*
X150467372Y-82702999D01*
X150282096Y-82997862D01*
X150282091Y-82997871D01*
X150131002Y-83311611D01*
X150130991Y-83311638D01*
X150015983Y-83640312D01*
X149938491Y-83979825D01*
X149899500Y-84325878D01*
X149899500Y-84674121D01*
X149938491Y-85020174D01*
X149968621Y-85152181D01*
X150015982Y-85359681D01*
X150015984Y-85359687D01*
X150015983Y-85359687D01*
X150130991Y-85688361D01*
X150131002Y-85688388D01*
X150282091Y-86002128D01*
X150282096Y-86002137D01*
X150403541Y-86195414D01*
X150464745Y-86292820D01*
X150467372Y-86297000D01*
X150467375Y-86297004D01*
X150684489Y-86569259D01*
X150930740Y-86815510D01*
X151202995Y-87032624D01*
X151203003Y-87032630D01*
X151376405Y-87141586D01*
X151497862Y-87217903D01*
X151497871Y-87217908D01*
X151510845Y-87224156D01*
X151811621Y-87369002D01*
X151811637Y-87369007D01*
X151811638Y-87369008D01*
X152140312Y-87484016D01*
X152140315Y-87484016D01*
X152140319Y-87484018D01*
X152479829Y-87561509D01*
X152725210Y-87589157D01*
X152825878Y-87600500D01*
X152825880Y-87600500D01*
X153174122Y-87600500D01*
X153271658Y-87589510D01*
X153520171Y-87561509D01*
X153859681Y-87484018D01*
X153879375Y-87477127D01*
X153958845Y-87449319D01*
X154188379Y-87369002D01*
X154502133Y-87217906D01*
X154796997Y-87032630D01*
X154889625Y-86958761D01*
X155069259Y-86815510D01*
X155315510Y-86569259D01*
X155480434Y-86362449D01*
X155532630Y-86296997D01*
X155717906Y-86002133D01*
X155753396Y-85928438D01*
X155759978Y-85914770D01*
X155807556Y-85862074D01*
X155876070Y-85843465D01*
X155943769Y-85864853D01*
X155989157Y-85919445D01*
X155999500Y-85969439D01*
X155999500Y-91185742D01*
X155979498Y-91253863D01*
X155925842Y-91300356D01*
X155855568Y-91310460D01*
X155790988Y-91280966D01*
X155773103Y-91261877D01*
X155742920Y-91222076D01*
X155622345Y-91130641D01*
X155622341Y-91130638D01*
X155481564Y-91075122D01*
X155481565Y-91075122D01*
X155393105Y-91064500D01*
X155393102Y-91064500D01*
X152606898Y-91064500D01*
X152606894Y-91064500D01*
X152518435Y-91075122D01*
X152377658Y-91130638D01*
X152320612Y-91173898D01*
X152254247Y-91199121D01*
X152244479Y-91199500D01*
X150783768Y-91199500D01*
X150715647Y-91179498D01*
X150694673Y-91162595D01*
X149137405Y-89605327D01*
X149103379Y-89543015D01*
X149100500Y-89516232D01*
X149100500Y-80821158D01*
X149100499Y-80821155D01*
X149098756Y-80812394D01*
X149077921Y-80707646D01*
X149075500Y-80683064D01*
X149075500Y-80633859D01*
X149075500Y-80633856D01*
X149065359Y-80549410D01*
X149055141Y-80523500D01*
X149012364Y-80415025D01*
X149012361Y-80415021D01*
X148925078Y-80299921D01*
X148826803Y-80225397D01*
X148784610Y-80168298D01*
X148779985Y-80097453D01*
X148814397Y-80035353D01*
X148826803Y-80024603D01*
X148925078Y-79950078D01*
X148954993Y-79910629D01*
X149012364Y-79834975D01*
X149065359Y-79700590D01*
X149075500Y-79616144D01*
X149075500Y-79083856D01*
X149066628Y-79009974D01*
X149065359Y-78999409D01*
X149012364Y-78865025D01*
X149012361Y-78865021D01*
X148925078Y-78749921D01*
X148826803Y-78675397D01*
X148784610Y-78618298D01*
X148779985Y-78547453D01*
X148814397Y-78485353D01*
X148826803Y-78474603D01*
X148925078Y-78400078D01*
X148984326Y-78321948D01*
X149012364Y-78284975D01*
X149045252Y-78201576D01*
X149073369Y-78158708D01*
X149394674Y-77837404D01*
X149456986Y-77803379D01*
X149483769Y-77800500D01*
X152244479Y-77800500D01*
X152312600Y-77820502D01*
X152320612Y-77826102D01*
X152377658Y-77869361D01*
X152518435Y-77924877D01*
X152518434Y-77924877D01*
X152546394Y-77928234D01*
X152606898Y-77935500D01*
X152606901Y-77935500D01*
X155393099Y-77935500D01*
X155393102Y-77935500D01*
X155481564Y-77924877D01*
X155622342Y-77869361D01*
X155742922Y-77777922D01*
X155773103Y-77738123D01*
X155830201Y-77695930D01*
X155901047Y-77691305D01*
X155963147Y-77725716D01*
G37*
%TD.AperFunction*%
%TA.AperFunction,Conductor*%
G36*
X135905581Y-78547091D02*
G01*
X135960253Y-78569737D01*
X136114908Y-78600500D01*
X136114909Y-78600500D01*
X139085091Y-78600500D01*
X139085092Y-78600500D01*
X139198615Y-78577918D01*
X139201815Y-78577325D01*
X139212419Y-78575500D01*
X139265652Y-78575500D01*
X139349096Y-78565479D01*
X139409837Y-78541524D01*
X139422619Y-78539325D01*
X139429934Y-78540171D01*
X139443989Y-78537500D01*
X140143508Y-78537500D01*
X140189731Y-78546285D01*
X140226430Y-78560757D01*
X140238404Y-78565479D01*
X140321848Y-78575500D01*
X140364315Y-78575500D01*
X140388895Y-78577920D01*
X140502408Y-78600500D01*
X140502409Y-78600500D01*
X143297591Y-78600500D01*
X143297592Y-78600500D01*
X143411113Y-78577919D01*
X143414993Y-78577211D01*
X143425270Y-78575500D01*
X143484894Y-78575500D01*
X143569340Y-78565359D01*
X143630094Y-78541399D01*
X143643234Y-78539212D01*
X143650371Y-78540077D01*
X143663926Y-78537501D01*
X144323571Y-78537501D01*
X144369794Y-78546286D01*
X144398561Y-78557630D01*
X144418160Y-78565359D01*
X144502606Y-78575500D01*
X144551815Y-78575500D01*
X144576395Y-78577920D01*
X144689908Y-78600500D01*
X147064433Y-78600500D01*
X147132554Y-78620502D01*
X147179047Y-78674158D01*
X147189151Y-78744432D01*
X147159657Y-78809012D01*
X147127433Y-78835619D01*
X147068787Y-78869477D01*
X147068782Y-78869481D01*
X147027635Y-78910629D01*
X146956980Y-78981284D01*
X146956978Y-78981286D01*
X146842054Y-79096210D01*
X146750668Y-79187596D01*
X146688356Y-79221621D01*
X146661574Y-79224500D01*
X146577135Y-79224500D01*
X146577113Y-79224502D01*
X146517519Y-79230908D01*
X146517518Y-79230908D01*
X146382673Y-79281201D01*
X146382670Y-79281203D01*
X146267453Y-79367453D01*
X146181203Y-79482670D01*
X146181201Y-79482673D01*
X146130909Y-79617515D01*
X146124500Y-79677121D01*
X146124500Y-80322864D01*
X146124502Y-80322885D01*
X146130908Y-80382479D01*
X146130908Y-80382481D01*
X146130909Y-80382483D01*
X146179056Y-80511571D01*
X146187000Y-80555603D01*
X146187000Y-81773500D01*
X146166998Y-81841621D01*
X146113342Y-81888114D01*
X146061000Y-81899500D01*
X145895733Y-81899500D01*
X145865299Y-81902354D01*
X145865295Y-81902355D01*
X145737118Y-81947206D01*
X145737114Y-81947208D01*
X145627849Y-82027849D01*
X145547208Y-82137114D01*
X145547206Y-82137118D01*
X145502355Y-82265295D01*
X145502354Y-82265299D01*
X145499500Y-82295733D01*
X145499500Y-82704278D01*
X145501109Y-82721435D01*
X145487552Y-82791125D01*
X145438470Y-82842423D01*
X145369446Y-82859042D01*
X145342246Y-82853727D01*
X145342189Y-82853990D01*
X145334700Y-82852354D01*
X145304266Y-82849500D01*
X144020734Y-82849500D01*
X144020733Y-82849500D01*
X143990299Y-82852354D01*
X143990295Y-82852355D01*
X143862118Y-82897206D01*
X143862117Y-82897206D01*
X143772652Y-82963235D01*
X143760574Y-82972150D01*
X143756876Y-82974879D01*
X143736129Y-82982456D01*
X143717552Y-82994396D01*
X143694281Y-82997741D01*
X143690188Y-82999237D01*
X143682054Y-82999500D01*
X143601500Y-82999500D01*
X143533379Y-82979498D01*
X143486886Y-82925842D01*
X143475500Y-82873500D01*
X143475500Y-82608859D01*
X143475500Y-82608856D01*
X143465359Y-82524410D01*
X143448898Y-82482669D01*
X143412364Y-82390025D01*
X143412361Y-82390021D01*
X143325078Y-82274921D01*
X143209978Y-82187638D01*
X143209974Y-82187635D01*
X143075590Y-82134640D01*
X143075591Y-82134640D01*
X142991146Y-82124500D01*
X142991144Y-82124500D01*
X142408856Y-82124500D01*
X142408853Y-82124500D01*
X142324409Y-82134640D01*
X142190025Y-82187635D01*
X142190021Y-82187638D01*
X142074920Y-82274922D01*
X142017795Y-82350252D01*
X141960696Y-82392444D01*
X141889850Y-82397068D01*
X141841530Y-82370488D01*
X141839759Y-82372855D01*
X141832548Y-82367457D01*
X141832546Y-82367454D01*
X141717331Y-82281204D01*
X141717327Y-82281202D01*
X141717325Y-82281201D01*
X141717326Y-82281201D01*
X141582483Y-82230909D01*
X141582486Y-82230909D01*
X141522873Y-82224500D01*
X140877135Y-82224500D01*
X140877114Y-82224502D01*
X140817519Y-82230908D01*
X140817518Y-82230908D01*
X140682673Y-82281201D01*
X140682670Y-82281203D01*
X140567453Y-82367453D01*
X140481203Y-82482670D01*
X140481201Y-82482673D01*
X140430909Y-82617515D01*
X140424500Y-82677121D01*
X140424500Y-83172864D01*
X140424502Y-83172885D01*
X140430908Y-83232480D01*
X140430908Y-83232481D01*
X140481201Y-83367326D01*
X140481203Y-83367329D01*
X140481204Y-83367331D01*
X140498408Y-83390312D01*
X140567453Y-83482546D01*
X140625061Y-83525671D01*
X140682669Y-83568796D01*
X140682671Y-83568796D01*
X140682673Y-83568798D01*
X140743030Y-83591309D01*
X140817514Y-83619090D01*
X140817517Y-83619091D01*
X140877127Y-83625500D01*
X141443255Y-83625499D01*
X141511376Y-83645501D01*
X141557869Y-83699157D01*
X141567973Y-83769430D01*
X141538480Y-83834011D01*
X141532351Y-83840594D01*
X141402447Y-83970498D01*
X141296006Y-84117002D01*
X141213790Y-84278359D01*
X141213787Y-84278365D01*
X141157830Y-84450587D01*
X141157829Y-84450591D01*
X141129500Y-84629454D01*
X141129500Y-84810546D01*
X141157829Y-84989409D01*
X141213789Y-85161639D01*
X141296004Y-85322994D01*
X141402447Y-85469501D01*
X141402449Y-85469503D01*
X141402451Y-85469506D01*
X141530493Y-85597548D01*
X141530496Y-85597550D01*
X141530499Y-85597553D01*
X141677006Y-85703996D01*
X141838361Y-85786211D01*
X142010591Y-85842171D01*
X142189454Y-85870500D01*
X142189457Y-85870500D01*
X142370543Y-85870500D01*
X142370546Y-85870500D01*
X142549409Y-85842171D01*
X142721639Y-85786211D01*
X142882994Y-85703996D01*
X143029501Y-85597553D01*
X143157553Y-85469501D01*
X143263996Y-85322994D01*
X143346211Y-85161639D01*
X143402171Y-84989409D01*
X143430500Y-84810546D01*
X143430500Y-84629454D01*
X143402171Y-84450591D01*
X143373142Y-84361250D01*
X143371115Y-84290286D01*
X143403881Y-84233222D01*
X143520101Y-84117002D01*
X143654374Y-83982729D01*
X143716685Y-83948704D01*
X143787500Y-83953769D01*
X143818290Y-83970447D01*
X143862113Y-84002790D01*
X143862118Y-84002793D01*
X143943546Y-84031286D01*
X143990301Y-84047646D01*
X144020734Y-84050500D01*
X145052812Y-84050500D01*
X145082727Y-84059283D01*
X145113197Y-84065912D01*
X145118292Y-84069726D01*
X145120933Y-84070502D01*
X145141907Y-84087405D01*
X145175095Y-84120593D01*
X145209121Y-84182905D01*
X145212000Y-84209688D01*
X145212000Y-86723500D01*
X145191998Y-86791621D01*
X145138342Y-86838114D01*
X145086000Y-86849500D01*
X144995733Y-86849500D01*
X144965299Y-86852354D01*
X144965295Y-86852355D01*
X144837118Y-86897206D01*
X144837114Y-86897208D01*
X144727849Y-86977849D01*
X144647208Y-87087114D01*
X144647206Y-87087118D01*
X144602355Y-87215295D01*
X144602354Y-87215299D01*
X144599500Y-87245733D01*
X144599500Y-87654278D01*
X144601109Y-87671435D01*
X144587552Y-87741125D01*
X144538470Y-87792423D01*
X144469446Y-87809042D01*
X144442246Y-87803727D01*
X144442189Y-87803990D01*
X144434700Y-87802354D01*
X144404266Y-87799500D01*
X143120734Y-87799500D01*
X143120733Y-87799500D01*
X143090299Y-87802354D01*
X143090295Y-87802355D01*
X142962118Y-87847206D01*
X142962114Y-87847208D01*
X142852849Y-87927849D01*
X142772208Y-88037114D01*
X142772206Y-88037118D01*
X142727355Y-88165295D01*
X142727354Y-88165299D01*
X142724500Y-88195733D01*
X142724500Y-88604266D01*
X142727354Y-88634700D01*
X142727355Y-88634704D01*
X142772206Y-88762881D01*
X142772208Y-88762885D01*
X142852849Y-88872150D01*
X142962114Y-88952791D01*
X142962118Y-88952793D01*
X143085625Y-88996010D01*
X143090301Y-88997646D01*
X143120734Y-89000500D01*
X143186000Y-89000500D01*
X143254121Y-89020502D01*
X143300614Y-89074158D01*
X143312000Y-89126500D01*
X143312000Y-89701809D01*
X143314967Y-89712881D01*
X143328801Y-89764513D01*
X143332044Y-89776613D01*
X143340946Y-89809835D01*
X143342701Y-89816386D01*
X143342703Y-89816391D01*
X143402008Y-89919110D01*
X143402016Y-89919120D01*
X143677274Y-90194378D01*
X143677823Y-90195383D01*
X143678822Y-90195952D01*
X143694804Y-90226480D01*
X143711300Y-90256690D01*
X143711218Y-90257834D01*
X143711750Y-90258851D01*
X143708693Y-90293132D01*
X143706235Y-90327505D01*
X143705513Y-90328799D01*
X143705445Y-90329567D01*
X143703032Y-90333250D01*
X143687709Y-90360738D01*
X143679239Y-90371647D01*
X143674922Y-90374922D01*
X143599973Y-90473756D01*
X143599530Y-90474327D01*
X143571279Y-90494712D01*
X143543298Y-90515389D01*
X143542558Y-90515437D01*
X143541957Y-90515871D01*
X143507221Y-90517744D01*
X143472452Y-90520014D01*
X143471802Y-90519654D01*
X143471064Y-90519694D01*
X143440813Y-90502481D01*
X143410353Y-90485602D01*
X143409579Y-90484709D01*
X143409357Y-90484583D01*
X143409184Y-90484253D01*
X143399603Y-90473196D01*
X143325078Y-90374921D01*
X143209978Y-90287638D01*
X143209974Y-90287635D01*
X143075590Y-90234640D01*
X143075591Y-90234640D01*
X142991146Y-90224500D01*
X142991144Y-90224500D01*
X142458856Y-90224500D01*
X142458853Y-90224500D01*
X142374409Y-90234640D01*
X142240025Y-90287635D01*
X142240021Y-90287638D01*
X142124923Y-90374920D01*
X142056488Y-90465164D01*
X142040645Y-90476870D01*
X142028345Y-90492254D01*
X142012680Y-90497533D01*
X141999388Y-90507356D01*
X141979733Y-90508639D01*
X141961067Y-90514931D01*
X141945036Y-90510904D01*
X141928543Y-90511981D01*
X141911313Y-90502433D01*
X141892210Y-90497635D01*
X141875220Y-90482433D01*
X141866443Y-90477569D01*
X141864200Y-90475238D01*
X141859414Y-90470137D01*
X141782546Y-90367454D01*
X141717160Y-90318506D01*
X141709609Y-90310457D01*
X141698373Y-90288222D01*
X141683444Y-90268279D01*
X141680750Y-90253348D01*
X141677588Y-90247091D01*
X141678329Y-90239933D01*
X141675500Y-90224248D01*
X141675500Y-90076500D01*
X141695502Y-90008379D01*
X141749158Y-89961886D01*
X141801500Y-89950500D01*
X142179264Y-89950500D01*
X142179266Y-89950500D01*
X142209699Y-89947646D01*
X142337882Y-89902793D01*
X142365406Y-89882480D01*
X142447150Y-89822150D01*
X142527791Y-89712885D01*
X142527793Y-89712881D01*
X142528993Y-89709454D01*
X142572646Y-89584699D01*
X142575500Y-89554266D01*
X142575500Y-89145734D01*
X142572646Y-89115301D01*
X142558249Y-89074158D01*
X142527793Y-88987118D01*
X142527791Y-88987114D01*
X142447150Y-88877849D01*
X142337885Y-88797208D01*
X142337881Y-88797206D01*
X142209704Y-88752355D01*
X142209700Y-88752354D01*
X142179266Y-88749500D01*
X140895734Y-88749500D01*
X140895733Y-88749500D01*
X140865299Y-88752354D01*
X140857811Y-88753990D01*
X140857498Y-88752557D01*
X140795043Y-88755742D01*
X140733440Y-88720448D01*
X140700697Y-88657453D01*
X140698891Y-88621428D01*
X140700499Y-88604282D01*
X140700500Y-88604264D01*
X140700500Y-88195735D01*
X140700500Y-88195734D01*
X140697646Y-88165301D01*
X140652793Y-88037118D01*
X140652791Y-88037114D01*
X140572150Y-87927849D01*
X140462885Y-87847208D01*
X140462881Y-87847206D01*
X140334704Y-87802355D01*
X140334700Y-87802354D01*
X140304266Y-87799500D01*
X139020734Y-87799500D01*
X139020733Y-87799500D01*
X138990299Y-87802354D01*
X138990295Y-87802355D01*
X138862120Y-87847205D01*
X138862118Y-87847206D01*
X138858561Y-87849832D01*
X138853998Y-87851498D01*
X138853770Y-87851619D01*
X138853753Y-87851587D01*
X138831516Y-87859708D01*
X138805736Y-87872515D01*
X138798608Y-87871726D01*
X138791872Y-87874187D01*
X138763785Y-87867875D01*
X138735170Y-87864710D01*
X138727842Y-87859797D01*
X138722603Y-87858620D01*
X138704383Y-87846315D01*
X138699282Y-87842178D01*
X138621614Y-87764511D01*
X138558733Y-87728206D01*
X138550995Y-87721931D01*
X138538069Y-87703193D01*
X138524702Y-87689503D01*
X138524196Y-87689883D01*
X138521317Y-87686037D01*
X138519770Y-87684453D01*
X138518796Y-87682669D01*
X138432546Y-87567453D01*
X138337793Y-87496522D01*
X138317331Y-87481204D01*
X138317329Y-87481203D01*
X138317326Y-87481201D01*
X138182483Y-87430909D01*
X138182486Y-87430909D01*
X138130103Y-87425277D01*
X138064512Y-87398106D01*
X138024022Y-87339787D01*
X138021490Y-87268836D01*
X138057718Y-87207778D01*
X138121206Y-87176001D01*
X138130109Y-87174721D01*
X138182483Y-87169091D01*
X138300491Y-87125077D01*
X138317326Y-87118798D01*
X138317326Y-87118797D01*
X138317331Y-87118796D01*
X138432546Y-87032546D01*
X138518796Y-86917331D01*
X138569091Y-86782483D01*
X138575500Y-86722873D01*
X138575499Y-86227128D01*
X138569091Y-86167517D01*
X138520489Y-86037207D01*
X138518798Y-86032673D01*
X138518796Y-86032670D01*
X138518796Y-86032669D01*
X138461575Y-85956232D01*
X138432546Y-85917453D01*
X138340964Y-85848896D01*
X138317331Y-85831204D01*
X138317329Y-85831203D01*
X138317326Y-85831201D01*
X138182483Y-85780909D01*
X138182486Y-85780909D01*
X138122873Y-85774500D01*
X137477135Y-85774500D01*
X137477114Y-85774502D01*
X137417519Y-85780908D01*
X137417518Y-85780908D01*
X137282669Y-85831203D01*
X137258404Y-85849368D01*
X137191884Y-85874179D01*
X137182895Y-85874500D01*
X136900959Y-85874500D01*
X136832838Y-85854498D01*
X136824824Y-85848896D01*
X136809979Y-85837638D01*
X136809974Y-85837635D01*
X136675590Y-85784640D01*
X136675591Y-85784640D01*
X136591146Y-85774500D01*
X136591144Y-85774500D01*
X136008856Y-85774500D01*
X136008853Y-85774500D01*
X135924409Y-85784640D01*
X135790025Y-85837635D01*
X135790020Y-85837638D01*
X135775176Y-85848896D01*
X135708812Y-85874121D01*
X135699041Y-85874500D01*
X135417105Y-85874500D01*
X135348984Y-85854498D01*
X135341596Y-85849368D01*
X135317330Y-85831203D01*
X135182483Y-85780909D01*
X135182486Y-85780909D01*
X135122873Y-85774500D01*
X134477135Y-85774500D01*
X134477114Y-85774502D01*
X134417519Y-85780908D01*
X134417518Y-85780908D01*
X134282669Y-85831203D01*
X134258404Y-85849368D01*
X134191884Y-85874179D01*
X134182895Y-85874500D01*
X133795926Y-85874500D01*
X133727805Y-85854498D01*
X133706831Y-85837595D01*
X132687708Y-84818473D01*
X132687696Y-84818459D01*
X132568722Y-84699485D01*
X132568712Y-84699477D01*
X132481086Y-84648887D01*
X132431786Y-84620423D01*
X132393603Y-84610192D01*
X132279057Y-84579499D01*
X132120943Y-84579499D01*
X132113225Y-84579499D01*
X132113209Y-84579500D01*
X130600925Y-84579500D01*
X130532804Y-84559498D01*
X130511830Y-84542595D01*
X129837405Y-83868170D01*
X129803379Y-83805858D01*
X129800500Y-83779075D01*
X129800500Y-82448043D01*
X129820502Y-82379922D01*
X129874158Y-82333429D01*
X129944432Y-82323325D01*
X130009012Y-82352819D01*
X130015581Y-82358934D01*
X130567136Y-82910489D01*
X130567137Y-82910490D01*
X130567139Y-82910491D01*
X130617403Y-82939511D01*
X130669863Y-82969799D01*
X130672988Y-82970636D01*
X130675324Y-82972060D01*
X130677494Y-82972959D01*
X130677353Y-82973297D01*
X130733608Y-83007587D01*
X130755638Y-83041447D01*
X130791544Y-83122766D01*
X130870982Y-83202204D01*
X130870984Y-83202205D01*
X130870985Y-83202206D01*
X130973759Y-83247585D01*
X130998885Y-83250500D01*
X131988614Y-83250499D01*
X132013741Y-83247585D01*
X132116515Y-83202206D01*
X132195956Y-83122765D01*
X132241335Y-83019991D01*
X132244250Y-82994865D01*
X132244249Y-82274021D01*
X132264251Y-82205901D01*
X132317907Y-82159408D01*
X132384772Y-82148862D01*
X132398885Y-82150500D01*
X133388614Y-82150499D01*
X133413741Y-82147585D01*
X133516515Y-82102206D01*
X133595956Y-82022765D01*
X133611493Y-81987578D01*
X133616779Y-81975606D01*
X133662592Y-81921369D01*
X133730456Y-81900510D01*
X133732043Y-81900500D01*
X133903059Y-81900500D01*
X133993423Y-81876286D01*
X134017637Y-81869799D01*
X134120364Y-81810489D01*
X134854240Y-81076614D01*
X134913549Y-80973887D01*
X134919710Y-80950892D01*
X134928128Y-80919480D01*
X134936799Y-80887115D01*
X134944250Y-80859309D01*
X134944250Y-80376500D01*
X134964252Y-80308379D01*
X135017908Y-80261886D01*
X135070250Y-80250500D01*
X135179380Y-80250500D01*
X135179386Y-80250500D01*
X135252375Y-80239866D01*
X135364961Y-80184826D01*
X135453576Y-80096211D01*
X135508616Y-79983625D01*
X135519250Y-79910636D01*
X135519250Y-79689364D01*
X135508616Y-79616375D01*
X135453576Y-79503789D01*
X135453575Y-79503787D01*
X135364962Y-79415174D01*
X135360919Y-79413198D01*
X135308504Y-79365310D01*
X135290301Y-79296687D01*
X135312087Y-79229116D01*
X135360919Y-79186802D01*
X135364961Y-79184826D01*
X135453576Y-79096211D01*
X135508616Y-78983625D01*
X135519250Y-78910636D01*
X135519250Y-78689364D01*
X135518128Y-78681664D01*
X135520688Y-78663615D01*
X135518094Y-78645568D01*
X135525571Y-78629194D01*
X135528100Y-78611374D01*
X135540014Y-78597571D01*
X135547588Y-78580988D01*
X135562728Y-78571257D01*
X135574492Y-78557630D01*
X135591978Y-78552459D01*
X135607314Y-78542604D01*
X135642350Y-78537566D01*
X135642575Y-78537500D01*
X135857363Y-78537500D01*
X135905581Y-78547091D01*
G37*
%TD.AperFunction*%
%TA.AperFunction,Conductor*%
G36*
X125111682Y-84470502D02*
G01*
X125158175Y-84524158D01*
X125168279Y-84594432D01*
X125138785Y-84659012D01*
X125132659Y-84665591D01*
X124838677Y-84959574D01*
X124571014Y-85227237D01*
X124571012Y-85227239D01*
X124509520Y-85288730D01*
X124509512Y-85288740D01*
X124453499Y-85385758D01*
X124453496Y-85385765D01*
X124445414Y-85415929D01*
X124426263Y-85487405D01*
X124424500Y-85493983D01*
X124424500Y-87137095D01*
X124404498Y-87205216D01*
X124350842Y-87251709D01*
X124286735Y-87262545D01*
X124284699Y-87262354D01*
X124254266Y-87259500D01*
X122495734Y-87259500D01*
X122495733Y-87259500D01*
X122465299Y-87262354D01*
X122465295Y-87262355D01*
X122337118Y-87307206D01*
X122337114Y-87307208D01*
X122227849Y-87387849D01*
X122147208Y-87497114D01*
X122147206Y-87497118D01*
X122102355Y-87625295D01*
X122102354Y-87625299D01*
X122099500Y-87655733D01*
X122099500Y-88064266D01*
X122102354Y-88094700D01*
X122102355Y-88094704D01*
X122147206Y-88222881D01*
X122147208Y-88222885D01*
X122227848Y-88332148D01*
X122227849Y-88332148D01*
X122227850Y-88332150D01*
X122260192Y-88356019D01*
X122311140Y-88393621D01*
X122354072Y-88450166D01*
X122359618Y-88520946D01*
X122326017Y-88583488D01*
X122311140Y-88596379D01*
X122227848Y-88657851D01*
X122147208Y-88767114D01*
X122147206Y-88767118D01*
X122102355Y-88895295D01*
X122102354Y-88895299D01*
X122099500Y-88925733D01*
X122099500Y-89334266D01*
X122102354Y-89364700D01*
X122102355Y-89364704D01*
X122147206Y-89492881D01*
X122147208Y-89492885D01*
X122227848Y-89602148D01*
X122227849Y-89602148D01*
X122227850Y-89602150D01*
X122232155Y-89605327D01*
X122311140Y-89663621D01*
X122354072Y-89720166D01*
X122359618Y-89790946D01*
X122326017Y-89853488D01*
X122311140Y-89866379D01*
X122227849Y-89927850D01*
X122155310Y-90026137D01*
X122098764Y-90069069D01*
X122027985Y-90074615D01*
X121965443Y-90041014D01*
X121964836Y-90040410D01*
X119737405Y-87812979D01*
X119703379Y-87750667D01*
X119700500Y-87723884D01*
X119700500Y-87655735D01*
X119700500Y-87655734D01*
X119697646Y-87625301D01*
X119687828Y-87597244D01*
X119652793Y-87497118D01*
X119652791Y-87497114D01*
X119572152Y-87387851D01*
X119530301Y-87356964D01*
X119488859Y-87326378D01*
X119445928Y-87269835D01*
X119440381Y-87199055D01*
X119473982Y-87136513D01*
X119488859Y-87123621D01*
X119572150Y-87062150D01*
X119572150Y-87062148D01*
X119572152Y-87062148D01*
X119652791Y-86952885D01*
X119652793Y-86952881D01*
X119654858Y-86946981D01*
X119697646Y-86824699D01*
X119700500Y-86794266D01*
X119700500Y-86385734D01*
X119697646Y-86355301D01*
X119659514Y-86246327D01*
X119652793Y-86227118D01*
X119652791Y-86227114D01*
X119572150Y-86117849D01*
X119462885Y-86037208D01*
X119462881Y-86037206D01*
X119334704Y-85992355D01*
X119334700Y-85992354D01*
X119304266Y-85989500D01*
X119051793Y-85989500D01*
X118983672Y-85969498D01*
X118937179Y-85915842D01*
X118927075Y-85845568D01*
X118956569Y-85780988D01*
X118962698Y-85774405D01*
X119249698Y-85487405D01*
X119277066Y-85472460D01*
X119303295Y-85455604D01*
X119309593Y-85454698D01*
X119312010Y-85453379D01*
X119338793Y-85450500D01*
X119530489Y-85450500D01*
X119598610Y-85470502D01*
X119630632Y-85504469D01*
X119632428Y-85503108D01*
X119724921Y-85625078D01*
X119840021Y-85712361D01*
X119840025Y-85712364D01*
X119974409Y-85765359D01*
X119974408Y-85765359D01*
X119997457Y-85768126D01*
X120058856Y-85775500D01*
X120058859Y-85775500D01*
X120591141Y-85775500D01*
X120591144Y-85775500D01*
X120675590Y-85765359D01*
X120809975Y-85712364D01*
X120925078Y-85625078D01*
X121012364Y-85509975D01*
X121065359Y-85375590D01*
X121075500Y-85291144D01*
X121075500Y-84708856D01*
X121067173Y-84639516D01*
X121065359Y-84624408D01*
X121065358Y-84624407D01*
X121064693Y-84622719D01*
X121064560Y-84621248D01*
X121063379Y-84616574D01*
X121064121Y-84616386D01*
X121058313Y-84552010D01*
X121091174Y-84489076D01*
X121152843Y-84453899D01*
X121181910Y-84450500D01*
X125043561Y-84450500D01*
X125111682Y-84470502D01*
G37*
%TD.AperFunction*%
%TA.AperFunction,Conductor*%
G36*
X123066621Y-81870502D02*
G01*
X123113114Y-81924158D01*
X123124500Y-81976500D01*
X123124500Y-82423500D01*
X123104498Y-82491621D01*
X123050842Y-82538114D01*
X122998500Y-82549500D01*
X121895733Y-82549500D01*
X121865299Y-82552354D01*
X121865295Y-82552355D01*
X121737118Y-82597206D01*
X121737114Y-82597208D01*
X121627849Y-82677849D01*
X121547208Y-82787114D01*
X121547206Y-82787118D01*
X121502355Y-82915295D01*
X121502354Y-82915299D01*
X121499500Y-82945733D01*
X121499500Y-83354266D01*
X121502354Y-83384700D01*
X121503990Y-83392189D01*
X121501917Y-83392641D01*
X121504990Y-83452781D01*
X121469705Y-83514389D01*
X121406714Y-83547140D01*
X121382440Y-83549500D01*
X120740691Y-83549500D01*
X120626114Y-83580201D01*
X120626113Y-83580201D01*
X120626111Y-83580202D01*
X120582696Y-83605268D01*
X120523389Y-83639508D01*
X120523379Y-83639516D01*
X119964513Y-84198382D01*
X119964510Y-84198386D01*
X119956472Y-84212307D01*
X119905086Y-84261296D01*
X119893585Y-84266513D01*
X119840023Y-84287636D01*
X119840021Y-84287638D01*
X119724921Y-84374921D01*
X119632428Y-84496892D01*
X119630156Y-84495169D01*
X119589489Y-84534833D01*
X119530489Y-84549500D01*
X119040691Y-84549500D01*
X118926114Y-84580201D01*
X118926113Y-84580201D01*
X118926111Y-84580202D01*
X118882696Y-84605268D01*
X118823389Y-84639508D01*
X118823379Y-84639516D01*
X118049516Y-85413379D01*
X118049508Y-85413389D01*
X117990200Y-85516113D01*
X117990201Y-85516114D01*
X117968380Y-85597553D01*
X117959500Y-85630692D01*
X117959500Y-85863500D01*
X117939498Y-85931621D01*
X117885842Y-85978114D01*
X117833500Y-85989500D01*
X117545733Y-85989500D01*
X117515299Y-85992354D01*
X117515295Y-85992355D01*
X117387118Y-86037206D01*
X117387117Y-86037206D01*
X117317817Y-86088353D01*
X117282459Y-86114449D01*
X117281876Y-86114879D01*
X117261129Y-86122456D01*
X117242552Y-86134396D01*
X117219281Y-86137741D01*
X117215188Y-86139237D01*
X117207054Y-86139500D01*
X117101500Y-86139500D01*
X117033379Y-86119498D01*
X116986886Y-86065842D01*
X116975500Y-86013501D01*
X116975499Y-85827135D01*
X116975499Y-85827128D01*
X116969091Y-85767517D01*
X116939578Y-85688388D01*
X116918798Y-85632673D01*
X116918796Y-85632670D01*
X116918796Y-85632669D01*
X116855947Y-85548713D01*
X116832546Y-85517453D01*
X116740749Y-85448735D01*
X116717331Y-85431204D01*
X116717329Y-85431203D01*
X116717326Y-85431201D01*
X116582483Y-85380909D01*
X116582486Y-85380909D01*
X116522873Y-85374500D01*
X115877135Y-85374500D01*
X115877114Y-85374502D01*
X115817519Y-85380908D01*
X115817518Y-85380908D01*
X115803298Y-85386212D01*
X115732482Y-85391275D01*
X115670171Y-85357248D01*
X115636148Y-85294934D01*
X115641215Y-85224119D01*
X115670170Y-85179064D01*
X115811832Y-85037402D01*
X115874142Y-85003379D01*
X115900925Y-85000500D01*
X116913209Y-85000500D01*
X116913225Y-85000501D01*
X116920943Y-85000501D01*
X117079054Y-85000501D01*
X117079057Y-85000501D01*
X117231785Y-84959577D01*
X117290809Y-84925499D01*
X117368716Y-84880520D01*
X117480520Y-84768716D01*
X117490887Y-84758349D01*
X117490894Y-84758339D01*
X119058339Y-83190894D01*
X119058349Y-83190887D01*
X119180514Y-83068722D01*
X119180520Y-83068716D01*
X119233984Y-82976113D01*
X119255114Y-82939515D01*
X119255116Y-82939512D01*
X119259575Y-82931788D01*
X119259576Y-82931787D01*
X119261169Y-82925842D01*
X119300500Y-82779057D01*
X119300500Y-82620943D01*
X119300500Y-82255015D01*
X119320502Y-82186894D01*
X119374158Y-82140401D01*
X119441522Y-82129914D01*
X119508856Y-82138000D01*
X119508859Y-82138000D01*
X120091141Y-82138000D01*
X120091144Y-82138000D01*
X120175590Y-82127859D01*
X120309975Y-82074864D01*
X120425078Y-81987578D01*
X120434157Y-81975606D01*
X120491214Y-81900366D01*
X120548313Y-81858173D01*
X120591611Y-81850500D01*
X122998500Y-81850500D01*
X123066621Y-81870502D01*
G37*
%TD.AperFunction*%
%TA.AperFunction,Conductor*%
G36*
X131717006Y-78367876D02*
G01*
X131720096Y-78367581D01*
X131749088Y-78382528D01*
X131778762Y-78396080D01*
X131781272Y-78399120D01*
X131783200Y-78400114D01*
X131805369Y-78428304D01*
X131833258Y-78476610D01*
X131833266Y-78476620D01*
X132517129Y-79160483D01*
X132517134Y-79160487D01*
X132517136Y-79160489D01*
X132517137Y-79160490D01*
X132517139Y-79160491D01*
X132579515Y-79196504D01*
X132619863Y-79219799D01*
X132637408Y-79224500D01*
X132734441Y-79250500D01*
X132734443Y-79250500D01*
X133483022Y-79250500D01*
X133551143Y-79270502D01*
X133597636Y-79324158D01*
X133607740Y-79394432D01*
X133578246Y-79459012D01*
X133572117Y-79465595D01*
X133533924Y-79503787D01*
X133533923Y-79503789D01*
X133478885Y-79616372D01*
X133478884Y-79616375D01*
X133468250Y-79689360D01*
X133468250Y-79910639D01*
X133478884Y-79983624D01*
X133478885Y-79983627D01*
X133533923Y-80096210D01*
X133533924Y-80096212D01*
X133622537Y-80184825D01*
X133622539Y-80184826D01*
X133735125Y-80239866D01*
X133808114Y-80250500D01*
X133917250Y-80250500D01*
X133926075Y-80253091D01*
X133935182Y-80251782D01*
X133959607Y-80262937D01*
X133985371Y-80270502D01*
X133991395Y-80277455D01*
X133999762Y-80281276D01*
X134014276Y-80303861D01*
X134031864Y-80324158D01*
X134034188Y-80334844D01*
X134038146Y-80341002D01*
X134043250Y-80376500D01*
X134043250Y-80561205D01*
X134023248Y-80629326D01*
X134006345Y-80650301D01*
X133776778Y-80879867D01*
X133714466Y-80913892D01*
X133643650Y-80908827D01*
X133598588Y-80879866D01*
X133516517Y-80797795D01*
X133516515Y-80797794D01*
X133413739Y-80752414D01*
X133413740Y-80752414D01*
X133388618Y-80749500D01*
X132398890Y-80749500D01*
X132398883Y-80749501D01*
X132373759Y-80752414D01*
X132373755Y-80752416D01*
X132270984Y-80797793D01*
X132191545Y-80877232D01*
X132191544Y-80877234D01*
X132146164Y-80980009D01*
X132143250Y-81005129D01*
X132143250Y-81725977D01*
X132123248Y-81794098D01*
X132069592Y-81840591D01*
X132002728Y-81851137D01*
X131988618Y-81849500D01*
X130998890Y-81849500D01*
X130998883Y-81849501D01*
X130973759Y-81852414D01*
X130973755Y-81852416D01*
X130920572Y-81875899D01*
X130850176Y-81885117D01*
X130785972Y-81854812D01*
X130780583Y-81849730D01*
X130581155Y-81650302D01*
X130547129Y-81587990D01*
X130544250Y-81561207D01*
X130544250Y-80376500D01*
X130564252Y-80308379D01*
X130617908Y-80261886D01*
X130670250Y-80250500D01*
X130779380Y-80250500D01*
X130779386Y-80250500D01*
X130852375Y-80239866D01*
X130964961Y-80184826D01*
X131053576Y-80096211D01*
X131108616Y-79983625D01*
X131119250Y-79910636D01*
X131119250Y-79689364D01*
X131108616Y-79616375D01*
X131103220Y-79605339D01*
X131091272Y-79535356D01*
X131103221Y-79494660D01*
X131108616Y-79483625D01*
X131119250Y-79410636D01*
X131119250Y-79222617D01*
X131139252Y-79154496D01*
X131156155Y-79133522D01*
X131485229Y-78804447D01*
X131485235Y-78804441D01*
X131541253Y-78707415D01*
X131570250Y-78599197D01*
X131570250Y-78491304D01*
X131571124Y-78488325D01*
X131570393Y-78485309D01*
X131581061Y-78454484D01*
X131590252Y-78423183D01*
X131592597Y-78421150D01*
X131593613Y-78418217D01*
X131619249Y-78398056D01*
X131643908Y-78376690D01*
X131646981Y-78376248D01*
X131649421Y-78374330D01*
X131681880Y-78371230D01*
X131714182Y-78366586D01*
X131717006Y-78367876D01*
G37*
%TD.AperFunction*%
%TA.AperFunction,Conductor*%
G36*
X124366621Y-77620501D02*
G01*
X124413114Y-77674157D01*
X124424500Y-77726499D01*
X124424500Y-78321945D01*
X124434780Y-78392511D01*
X124487985Y-78501344D01*
X124487988Y-78501348D01*
X124573651Y-78587011D01*
X124573653Y-78587012D01*
X124682491Y-78640220D01*
X124753051Y-78650500D01*
X124773496Y-78650499D01*
X124782321Y-78653090D01*
X124791430Y-78651781D01*
X124815853Y-78662934D01*
X124841616Y-78670498D01*
X124847642Y-78677452D01*
X124856011Y-78681274D01*
X124870525Y-78703858D01*
X124888111Y-78724152D01*
X124890436Y-78734840D01*
X124894395Y-78741000D01*
X124899498Y-78776496D01*
X124899499Y-78776498D01*
X124899499Y-78879057D01*
X124899499Y-78879059D01*
X124899500Y-78889214D01*
X124899500Y-78936048D01*
X124895207Y-78968658D01*
X124874499Y-79045942D01*
X124874499Y-79214207D01*
X124874500Y-79214220D01*
X124874500Y-79233106D01*
X124854498Y-79301227D01*
X124848897Y-79309240D01*
X124787638Y-79390021D01*
X124787635Y-79390025D01*
X124734640Y-79524409D01*
X124724500Y-79608853D01*
X124724500Y-80191146D01*
X124734640Y-80275590D01*
X124787635Y-80409974D01*
X124787638Y-80409978D01*
X124815990Y-80447366D01*
X124841214Y-80513731D01*
X124826553Y-80583197D01*
X124776664Y-80633710D01*
X124715593Y-80649500D01*
X124170733Y-80649500D01*
X124140299Y-80652354D01*
X124140295Y-80652355D01*
X124012118Y-80697206D01*
X124012114Y-80697208D01*
X123902849Y-80777849D01*
X123822208Y-80887114D01*
X123822207Y-80887115D01*
X123816379Y-80903773D01*
X123774999Y-80961464D01*
X123708999Y-80987626D01*
X123639331Y-80973951D01*
X123608355Y-80951251D01*
X123546620Y-80889516D01*
X123546610Y-80889508D01*
X123443891Y-80830203D01*
X123443888Y-80830202D01*
X123443887Y-80830201D01*
X123443885Y-80830200D01*
X123443884Y-80830200D01*
X123429619Y-80826378D01*
X123410137Y-80821158D01*
X123347564Y-80804391D01*
X123306707Y-80780802D01*
X123304748Y-80783457D01*
X123187885Y-80697208D01*
X123187881Y-80697206D01*
X123059704Y-80652355D01*
X123059700Y-80652354D01*
X123029266Y-80649500D01*
X123014000Y-80649500D01*
X122945879Y-80629498D01*
X122899386Y-80575842D01*
X122888000Y-80523500D01*
X122888000Y-80065938D01*
X122908002Y-79997817D01*
X122924900Y-79976847D01*
X123690485Y-79211263D01*
X123746503Y-79114237D01*
X123775500Y-79006018D01*
X123775500Y-78893981D01*
X123775500Y-77881482D01*
X123775500Y-77871332D01*
X123775499Y-77871318D01*
X123775499Y-77726499D01*
X123795501Y-77658378D01*
X123849157Y-77611885D01*
X123901499Y-77600499D01*
X124298500Y-77600499D01*
X124366621Y-77620501D01*
G37*
%TD.AperFunction*%
%TA.AperFunction,Conductor*%
G36*
X122366621Y-77620501D02*
G01*
X122413114Y-77674157D01*
X122424500Y-77726499D01*
X122424500Y-78321945D01*
X122434780Y-78392511D01*
X122487985Y-78501344D01*
X122487988Y-78501348D01*
X122573651Y-78587011D01*
X122573653Y-78587012D01*
X122682491Y-78640220D01*
X122753051Y-78650500D01*
X122753052Y-78650499D01*
X122757562Y-78651157D01*
X122757416Y-78652154D01*
X122819478Y-78675353D01*
X122861983Y-78732220D01*
X122866996Y-78803039D01*
X122832991Y-78865261D01*
X122201237Y-79497015D01*
X122173843Y-79524409D01*
X122122016Y-79576235D01*
X122122012Y-79576240D01*
X122065999Y-79673258D01*
X122065996Y-79673265D01*
X122037000Y-79781483D01*
X122037000Y-80523500D01*
X122016998Y-80591621D01*
X121963342Y-80638114D01*
X121911000Y-80649500D01*
X120200600Y-80649500D01*
X120183695Y-80647396D01*
X120183611Y-80648104D01*
X120091146Y-80637000D01*
X120091144Y-80637000D01*
X119508856Y-80637000D01*
X119508850Y-80637000D01*
X119441522Y-80645085D01*
X119371502Y-80633347D01*
X119318944Y-80585617D01*
X119300500Y-80519984D01*
X119300500Y-80220943D01*
X119300499Y-80220941D01*
X119298998Y-80215341D01*
X119290822Y-80184826D01*
X119276202Y-80130263D01*
X119259577Y-80068216D01*
X119194293Y-79955139D01*
X119180522Y-79931287D01*
X119180514Y-79931277D01*
X119064327Y-79815090D01*
X119064304Y-79815069D01*
X118952086Y-79702851D01*
X118918060Y-79640539D01*
X118923125Y-79569724D01*
X118952082Y-79524665D01*
X119280243Y-79196503D01*
X119342555Y-79162479D01*
X119409838Y-79167291D01*
X119409842Y-79167277D01*
X119409930Y-79167297D01*
X119413369Y-79167543D01*
X119417517Y-79169091D01*
X119477127Y-79175500D01*
X120122872Y-79175499D01*
X120182483Y-79169091D01*
X120317331Y-79118796D01*
X120432546Y-79032546D01*
X120432545Y-79032546D01*
X120439761Y-79027145D01*
X120441563Y-79029552D01*
X120490588Y-79002768D01*
X120561405Y-79007816D01*
X120617797Y-79049748D01*
X120674921Y-79125078D01*
X120790021Y-79212361D01*
X120790025Y-79212364D01*
X120924409Y-79265359D01*
X120924408Y-79265359D01*
X120947457Y-79268126D01*
X121008856Y-79275500D01*
X121008859Y-79275500D01*
X121591141Y-79275500D01*
X121591144Y-79275500D01*
X121675590Y-79265359D01*
X121809975Y-79212364D01*
X121925078Y-79125078D01*
X122012364Y-79009975D01*
X122065359Y-78875590D01*
X122075500Y-78791144D01*
X122075500Y-78281758D01*
X122079793Y-78249147D01*
X122079899Y-78248751D01*
X122088000Y-78218519D01*
X122088000Y-78106482D01*
X122088000Y-77758299D01*
X122092645Y-77742479D01*
X122092211Y-77725995D01*
X122102441Y-77709115D01*
X122108002Y-77690178D01*
X122120845Y-77678749D01*
X122129010Y-77665279D01*
X122158659Y-77645103D01*
X122166012Y-77641507D01*
X122223708Y-77613302D01*
X122279041Y-77600499D01*
X122298502Y-77600499D01*
X122366621Y-77620501D01*
G37*
%TD.AperFunction*%
%TA.AperFunction,Conductor*%
G36*
X133817656Y-76820502D02*
G01*
X133849929Y-76850362D01*
X133868672Y-76875078D01*
X133868674Y-76875079D01*
X133868675Y-76875081D01*
X133983771Y-76962361D01*
X133983775Y-76962364D01*
X134118159Y-77015359D01*
X134118158Y-77015359D01*
X134141207Y-77018126D01*
X134202606Y-77025500D01*
X134202609Y-77025500D01*
X134784891Y-77025500D01*
X134784894Y-77025500D01*
X134869340Y-77015359D01*
X135003725Y-76962364D01*
X135118828Y-76875078D01*
X135137570Y-76850363D01*
X135194668Y-76808172D01*
X135237965Y-76800500D01*
X135506225Y-76800500D01*
X135528174Y-76806944D01*
X135550981Y-76808717D01*
X135569892Y-76819194D01*
X135574346Y-76820502D01*
X135582343Y-76826090D01*
X135588230Y-76830555D01*
X135630426Y-76887649D01*
X135635056Y-76958494D01*
X135601198Y-77020051D01*
X135583750Y-77037499D01*
X135583750Y-77146018D01*
X135563748Y-77214139D01*
X135558148Y-77222151D01*
X135499392Y-77299633D01*
X135442293Y-77341827D01*
X135398994Y-77349500D01*
X133808110Y-77349500D01*
X133735125Y-77360134D01*
X133735122Y-77360135D01*
X133622539Y-77415173D01*
X133622537Y-77415174D01*
X133533924Y-77503787D01*
X133533923Y-77503789D01*
X133478885Y-77616372D01*
X133478884Y-77616375D01*
X133468250Y-77689360D01*
X133468250Y-77910639D01*
X133478884Y-77983624D01*
X133478885Y-77983627D01*
X133533923Y-78096210D01*
X133533924Y-78096212D01*
X133572117Y-78134405D01*
X133606143Y-78196717D01*
X133601078Y-78267532D01*
X133558531Y-78324368D01*
X133492011Y-78349179D01*
X133483022Y-78349500D01*
X133032543Y-78349500D01*
X132964422Y-78329498D01*
X132943448Y-78312595D01*
X132681155Y-78050302D01*
X132647129Y-77987990D01*
X132644250Y-77961207D01*
X132644250Y-77069510D01*
X132664252Y-77001389D01*
X132688496Y-76973633D01*
X132699979Y-76963841D01*
X132703725Y-76962364D01*
X132818828Y-76875078D01*
X132845821Y-76839481D01*
X132856211Y-76830623D01*
X132876655Y-76821481D01*
X132894668Y-76808172D01*
X132914141Y-76804721D01*
X132921024Y-76801644D01*
X132926669Y-76802501D01*
X132937965Y-76800500D01*
X133749535Y-76800500D01*
X133817656Y-76820502D01*
G37*
%TD.AperFunction*%
%TA.AperFunction,Conductor*%
G36*
X155941621Y-72020502D02*
G01*
X155988114Y-72074158D01*
X155999500Y-72126500D01*
X155999500Y-76185742D01*
X155979498Y-76253863D01*
X155925842Y-76300356D01*
X155855568Y-76310460D01*
X155790988Y-76280966D01*
X155773103Y-76261877D01*
X155742920Y-76222076D01*
X155622345Y-76130641D01*
X155622341Y-76130638D01*
X155481564Y-76075122D01*
X155481565Y-76075122D01*
X155393105Y-76064500D01*
X155393102Y-76064500D01*
X152606898Y-76064500D01*
X152606894Y-76064500D01*
X152518435Y-76075122D01*
X152377658Y-76130638D01*
X152320612Y-76173898D01*
X152254247Y-76199121D01*
X152244479Y-76199500D01*
X149021155Y-76199500D01*
X148866502Y-76230263D01*
X148866497Y-76230265D01*
X148720820Y-76290606D01*
X148589715Y-76378208D01*
X148589708Y-76378213D01*
X148005327Y-76962595D01*
X147943015Y-76996621D01*
X147916232Y-76999500D01*
X144689905Y-76999500D01*
X144608993Y-77015595D01*
X144576394Y-77022079D01*
X144561979Y-77024089D01*
X144556901Y-77024500D01*
X144502606Y-77024500D01*
X144418160Y-77034641D01*
X144414689Y-77036009D01*
X144401334Y-77037090D01*
X144398765Y-77036556D01*
X144391170Y-77037501D01*
X143596331Y-77037501D01*
X143577414Y-77035146D01*
X143577360Y-77035604D01*
X143484896Y-77024500D01*
X143484894Y-77024500D01*
X143435685Y-77024500D01*
X143411104Y-77022079D01*
X143377018Y-77015299D01*
X143297594Y-76999500D01*
X143297592Y-76999500D01*
X140502408Y-76999500D01*
X140502405Y-76999500D01*
X140421493Y-77015595D01*
X140388894Y-77022079D01*
X140374957Y-77024050D01*
X140369648Y-77024500D01*
X140321848Y-77024500D01*
X140238404Y-77034521D01*
X140234838Y-77035926D01*
X140221585Y-77037050D01*
X140218922Y-77036507D01*
X140210943Y-77037500D01*
X139376558Y-77037500D01*
X139357161Y-77035087D01*
X139357114Y-77035484D01*
X139349096Y-77034521D01*
X139313640Y-77030263D01*
X139265653Y-77024500D01*
X139265652Y-77024500D01*
X139223185Y-77024500D01*
X139198604Y-77022079D01*
X139164518Y-77015299D01*
X139085094Y-76999500D01*
X139085092Y-76999500D01*
X136933907Y-76999500D01*
X136865786Y-76979498D01*
X136819293Y-76925842D01*
X136809189Y-76855568D01*
X136833509Y-76797367D01*
X136854236Y-76770033D01*
X136906865Y-76700632D01*
X136959229Y-76567846D01*
X136969250Y-76484402D01*
X136969250Y-75965598D01*
X136959229Y-75882154D01*
X136958585Y-75880522D01*
X136914493Y-75768712D01*
X136906865Y-75749368D01*
X136820617Y-75635633D01*
X136706882Y-75549385D01*
X136706879Y-75549384D01*
X136706880Y-75549384D01*
X136574096Y-75497020D01*
X136574097Y-75497020D01*
X136490655Y-75487000D01*
X136490652Y-75487000D01*
X135896848Y-75487000D01*
X135896844Y-75487000D01*
X135813403Y-75497020D01*
X135680619Y-75549384D01*
X135680616Y-75549386D01*
X135648293Y-75573898D01*
X135581928Y-75599121D01*
X135572160Y-75599500D01*
X135057757Y-75599500D01*
X135011533Y-75590715D01*
X134869340Y-75534640D01*
X134869341Y-75534640D01*
X134784896Y-75524500D01*
X134784894Y-75524500D01*
X134202606Y-75524500D01*
X134202603Y-75524500D01*
X134118159Y-75534640D01*
X133975967Y-75590715D01*
X133929743Y-75599500D01*
X132757757Y-75599500D01*
X132711533Y-75590715D01*
X132569340Y-75534640D01*
X132569341Y-75534640D01*
X132484896Y-75524500D01*
X132484894Y-75524500D01*
X131902606Y-75524500D01*
X131902603Y-75524500D01*
X131818159Y-75534640D01*
X131675967Y-75590715D01*
X131629743Y-75599500D01*
X128253437Y-75599500D01*
X128185316Y-75579498D01*
X128164346Y-75562599D01*
X127011263Y-74409515D01*
X127011261Y-74409514D01*
X127011259Y-74409512D01*
X126914241Y-74353499D01*
X126914238Y-74353498D01*
X126914237Y-74353497D01*
X126914235Y-74353496D01*
X126914234Y-74353496D01*
X126885236Y-74345726D01*
X126806018Y-74324500D01*
X126806016Y-74324500D01*
X125401500Y-74324500D01*
X125333379Y-74304498D01*
X125286886Y-74250842D01*
X125275500Y-74198500D01*
X125275500Y-72963947D01*
X125279793Y-72931336D01*
X125300500Y-72854057D01*
X125300500Y-72695943D01*
X125259577Y-72543216D01*
X125259575Y-72543213D01*
X125259575Y-72543211D01*
X125180522Y-72406287D01*
X125180514Y-72406277D01*
X125068722Y-72294485D01*
X125068712Y-72294477D01*
X124966766Y-72235619D01*
X124917773Y-72184237D01*
X124904337Y-72114523D01*
X124930723Y-72048612D01*
X124988555Y-72007430D01*
X125029766Y-72000500D01*
X155873500Y-72000500D01*
X155941621Y-72020502D01*
G37*
%TD.AperFunction*%
%TD*%
M02*
