M48
; DRILL file {KiCad (6.0.1)} date Wed Aug 24 15:42:21 2022
; FORMAT={-:-/ absolute / inch / decimal}
; #@! TF.CreationDate,2022-08-24T15:42:21+02:00
; #@! TF.GenerationSoftware,Kicad,Pcbnew,(6.0.1)
; #@! TF.FileFunction,Plated,1,2,PTH
FMAT,2
INCH
; #@! TA.AperFunction,Plated,PTH,ViaDrill
T1C0.0157
; #@! TA.AperFunction,Plated,PTH,ComponentDrill
T2C0.0197
; #@! TA.AperFunction,Plated,PTH,ComponentDrill
T3C0.0217
; #@! TA.AperFunction,Plated,PTH,ComponentDrill
T4C0.0394
; #@! TA.AperFunction,Plated,PTH,ViaDrill
T5C0.1181
%
G90
G05
T1
X4.5669Y-3.7665
X4.6161Y-3.1201
X4.6358Y-2.9035
X4.6654Y-3.7091
X4.6752Y-3.3071
X4.685Y-3.0217
X4.7146Y-3.5992
X4.7343Y-3.4728
X4.7441Y-3.3661
X4.8031Y-3.0807
X4.813Y-3.3071
X4.8228Y-3.7795
X4.8819Y-3.75
X4.8917Y-2.9429
X4.8917Y-3.0315
X4.9705Y-3.2087
X5.0197Y-2.9429
X5.0295Y-3.5335
X5.0492Y-3.6909
X5.0591Y-3.2776
X5.0984Y-3.5039
X5.0984Y-3.7402
X5.1378Y-3.061
X5.2362Y-3.002
X5.2362Y-3.0709
X5.3008Y-3.1794
X5.3051Y-3.4744
X5.3051Y-3.6319
X5.3512Y-3.1068
X5.3543Y-2.9429
X5.4004Y-3.2677
X5.4035Y-3.4252
X5.4035Y-3.7402
X5.4134Y-2.9429
X5.4823Y-3.1594
X5.4921Y-3.6909
X5.5217Y-2.874
X5.5217Y-2.9331
X5.5217Y-2.9921
X5.5413Y-3.1594
X5.5508Y-3.0512
X5.6004Y-3.1594
X5.6197Y-3.0512
X5.6201Y-3.5925
X5.6299Y-3.7559
X5.6594Y-3.1594
X5.689Y-3.2677
X5.689Y-3.3465
X5.6988Y-3.435
X5.6988Y-3.6614
X5.7364Y-3.1594
X5.7579Y-3.3465
X5.7674Y-3.0512
X5.7768Y-3.2087
X5.8266Y-3.72
X5.8363Y-3.0512
X5.8465Y-3.2087
X5.8563Y-2.874
X5.8563Y-2.9331
X5.8563Y-2.9921
X5.8661Y-3.4646
X5.9055Y-3.0807
X5.9055Y-3.1496
X5.9055Y-3.2087
X5.9055Y-3.2677
X5.9055Y-3.3366
X5.9222Y-3.6614
X5.9646Y-3.0807
X5.9646Y-3.1496
X5.9646Y-3.2087
X5.9646Y-3.2677
X5.9646Y-3.3366
X5.9811Y-3.4154
X5.9953Y-3.5925
X5.9953Y-3.6614
X6.0236Y-3.2087
X6.0917Y-3.2087
X6.1024Y-3.7697
X6.1035Y-3.5531
X6.1081Y-3.4744
X6.1091Y-3.3661
X6.1516Y-3.0709
X6.1516Y-3.5138
X6.1516Y-3.5827
X6.1516Y-3.7205
X6.1583Y-3.2776
X6.1583Y-3.3366
X6.1921Y-3.6516
X6.2106Y-3.0217
X6.2106Y-3.5827
X6.2697Y-3.0217
X6.2697Y-3.5827
X6.3287Y-3.0217
X6.3287Y-3.5827
T4
X4.4307Y-3.3346
X4.4307Y-3.4346
X4.4307Y-3.5346
X4.4307Y-3.6346
X4.4307Y-3.7346
X4.9307Y-3.5346
X4.9307Y-3.6346
X5.0307Y-3.3346
X5.1307Y-3.3346
X5.5307Y-3.6346
X5.9307Y-3.7346
T5
X6.063Y-2.9528
T2
G00X4.4006Y-2.9134
M15
G01X4.375Y-2.9134
M16
G05
G00X4.4006Y-3.189
M15
G01X4.375Y-3.189
M16
G05
T3
G00X4.4941Y-2.9469
M15
G01X4.4941Y-2.9587
M16
G05
G00X4.4941Y-3.1437
M15
G01X4.4941Y-3.1555
M16
G05
T0
M30
